<?xml version="1.0" encoding="UTF-8" standalone="no"?>
<svg
   xmlns:dc="http://purl.org/dc/elements/1.1/"
   xmlns:cc="http://creativecommons.org/ns#"
   xmlns:rdf="http://www.w3.org/1999/02/22-rdf-syntax-ns#"
   xmlns:svg="http://www.w3.org/2000/svg"
   xmlns="http://www.w3.org/2000/svg"
   viewBox="0 0 450 315"
   height="315"
   width="450"
   xml:space="preserve"
   version="1.1"
   id="svg2"><metadata
     id="metadata8"><rdf:RDF><cc:Work
         rdf:about=""><dc:format>image/svg+xml</dc:format><dc:type
           rdf:resource="http://purl.org/dc/dcmitype/StillImage" /><dc:title></dc:title></cc:Work></rdf:RDF></metadata><defs
     id="defs6"><clipPath
       id="clipPath20"
       clipPathUnits="userSpaceOnUse"><path
         id="path22"
         d="m 52.805234,43.96 254.405156,0 0,195.08 -254.405156,0 0,-195.08 z" /></clipPath><clipPath
       id="clipPath36"
       clipPathUnits="userSpaceOnUse"><path
         id="path38"
         d="m 52.805234,43.96 254.405156,0 0,195.08 -254.405156,0 0,-195.08 z" /></clipPath><clipPath
       id="clipPath52"
       clipPathUnits="userSpaceOnUse"><path
         id="path54"
         d="m 52.805234,43.96 254.405156,0 0,195.08 -254.405156,0 0,-195.08 z" /></clipPath><clipPath
       id="clipPath68"
       clipPathUnits="userSpaceOnUse"><path
         id="path70"
         d="m 52.805234,43.96 254.405156,0 0,195.08 -254.405156,0 0,-195.08 z" /></clipPath><clipPath
       id="clipPath84"
       clipPathUnits="userSpaceOnUse"><path
         id="path86"
         d="m 52.805234,43.96 254.405156,0 0,195.08 -254.405156,0 0,-195.08 z" /></clipPath><clipPath
       id="clipPath100"
       clipPathUnits="userSpaceOnUse"><path
         id="path102"
         d="m 52.805234,43.96 254.405156,0 0,195.08 -254.405156,0 0,-195.08 z" /></clipPath><clipPath
       id="clipPath120"
       clipPathUnits="userSpaceOnUse"><path
         id="path122"
         d="m 52.805234,43.96 254.405156,0 0,195.08 -254.405156,0 0,-195.08 z" /></clipPath><clipPath
       id="clipPath142"
       clipPathUnits="userSpaceOnUse"><path
         id="path144"
         d="m 52.805234,43.96 254.405156,0 0,195.08 -254.405156,0 0,-195.08 z" /></clipPath><clipPath
       id="clipPath164"
       clipPathUnits="userSpaceOnUse"><path
         id="path166"
         d="m 52.805234,43.96 254.405156,0 0,195.08 -254.405156,0 0,-195.08 z" /></clipPath><clipPath
       id="clipPath186"
       clipPathUnits="userSpaceOnUse"><path
         id="path188"
         d="m 52.805234,43.96 254.405156,0 0,195.08 -254.405156,0 0,-195.08 z" /></clipPath><clipPath
       id="clipPath208"
       clipPathUnits="userSpaceOnUse"><path
         id="path210"
         d="m 52.805234,43.96 254.405156,0 0,195.08 -254.405156,0 0,-195.08 z" /></clipPath><clipPath
       id="clipPath234"
       clipPathUnits="userSpaceOnUse"><path
         id="path236"
         d="m 52.805234,43.96 254.405156,0 0,195.08 -254.405156,0 0,-195.08 z" /></clipPath><clipPath
       id="clipPath244"
       clipPathUnits="userSpaceOnUse"><path
         id="path246"
         d="m 52.805234,43.96 254.405156,0 0,195.08 -254.405156,0 0,-195.08 z" /></clipPath><clipPath
       id="clipPath254"
       clipPathUnits="userSpaceOnUse"><path
         id="path256"
         d="m 52.805234,43.96 254.405156,0 0,195.08 -254.405156,0 0,-195.08 z" /></clipPath><clipPath
       id="clipPath264"
       clipPathUnits="userSpaceOnUse"><path
         id="path266"
         d="m 52.805234,43.96 254.405156,0 0,195.08 -254.405156,0 0,-195.08 z" /></clipPath><clipPath
       id="clipPath274"
       clipPathUnits="userSpaceOnUse"><path
         id="path276"
         d="m 52.805234,43.96 254.405156,0 0,195.08 -254.405156,0 0,-195.08 z" /></clipPath><clipPath
       id="clipPath326"
       clipPathUnits="userSpaceOnUse"><path
         id="path328"
         d="m 52.805234,43.96 254.405156,0 0,195.08 -254.405156,0 0,-195.08 z" /></clipPath><clipPath
       id="clipPath336"
       clipPathUnits="userSpaceOnUse"><path
         id="path338"
         d="m 52.805234,43.96 254.405156,0 0,195.08 -254.405156,0 0,-195.08 z" /></clipPath></defs><g
     transform="matrix(1.25,0,0,-1.25,0,315)"
     id="g10"><path
       id="path12"
       style="fill:#ffffff;fill-opacity:1;fill-rule:nonzero;stroke:none"
       d="M 0,0 360,0 360,252 0,252 0,0 Z" /><path
       id="path14"
       style="fill:#ffffff;fill-opacity:1;fill-rule:nonzero;stroke:none"
       d="m 52.805234,43.96 254.405156,0 0,195.08 -254.405156,0 0,-195.08 z" /><g
       id="g16"><g
         clip-path="url(#clipPath20)"
         id="g18"><path
           id="path24"
           style="fill:none;stroke:#cccccc;stroke-width:1;stroke-linecap:round;stroke-linejoin:round;stroke-miterlimit:10;stroke-dasharray:none;stroke-opacity:0.3"
           d="m 55.332438,43.96 0,195.08" /></g></g><g
       id="g26"><text
         id="text28"
         style="font-variant:normal;font-weight:normal;font-size:10px;font-family:'DejaVu Sans';-inkscape-font-specification:DejaVuSans;writing-mode:lr-tb;fill:#262626;fill-opacity:1;fill-rule:nonzero;stroke:none"
         transform="matrix(1,0,0,-1,52.15275,29.36625)"><tspan
           id="tspan30"
           y="0"
           x="0">0</tspan></text>
</g><g
       id="g32"><g
         clip-path="url(#clipPath36)"
         id="g34"><path
           id="path40"
           style="fill:none;stroke:#cccccc;stroke-width:1;stroke-linecap:round;stroke-linejoin:round;stroke-miterlimit:10;stroke-dasharray:none;stroke-opacity:0.3"
           d="m 97.452497,43.96 0,195.08" /></g></g><g
       id="g42"><text
         id="text44"
         style="font-variant:normal;font-weight:normal;font-size:10px;font-family:'DejaVu Sans';-inkscape-font-specification:DejaVuSans;writing-mode:lr-tb;fill:#262626;fill-opacity:1;fill-rule:nonzero;stroke:none"
         transform="matrix(1,0,0,-1,91.093122,29.36625)"><tspan
           id="tspan46"
           y="0"
           x="0 6.3600001">50</tspan></text>
</g><g
       id="g48"><g
         clip-path="url(#clipPath52)"
         id="g50"><path
           id="path56"
           style="fill:none;stroke:#cccccc;stroke-width:1;stroke-linecap:round;stroke-linejoin:round;stroke-miterlimit:10;stroke-dasharray:none;stroke-opacity:0.3"
           d="m 139.57256,43.96 0,195.08" /></g></g><g
       id="g58"><text
         id="text60"
         style="font-variant:normal;font-weight:normal;font-size:10px;font-family:'DejaVu Sans';-inkscape-font-specification:DejaVuSans;writing-mode:lr-tb;fill:#262626;fill-opacity:1;fill-rule:nonzero;stroke:none"
         transform="matrix(1,0,0,-1,130.03349,29.36625)"><tspan
           id="tspan62"
           y="0"
           x="0 6.3600001 12.72">100</tspan></text>
</g><g
       id="g64"><g
         clip-path="url(#clipPath68)"
         id="g66"><path
           id="path72"
           style="fill:none;stroke:#cccccc;stroke-width:1;stroke-linecap:round;stroke-linejoin:round;stroke-miterlimit:10;stroke-dasharray:none;stroke-opacity:0.3"
           d="m 181.69261,43.96 0,195.08" /></g></g><g
       id="g74"><text
         id="text76"
         style="font-variant:normal;font-weight:normal;font-size:10px;font-family:'DejaVu Sans';-inkscape-font-specification:DejaVuSans;writing-mode:lr-tb;fill:#262626;fill-opacity:1;fill-rule:nonzero;stroke:none"
         transform="matrix(1,0,0,-1,172.15355,29.36625)"><tspan
           id="tspan78"
           y="0"
           x="0 6.3600001 12.72">150</tspan></text>
</g><g
       id="g80"><g
         clip-path="url(#clipPath84)"
         id="g82"><path
           id="path88"
           style="fill:none;stroke:#cccccc;stroke-width:1;stroke-linecap:round;stroke-linejoin:round;stroke-miterlimit:10;stroke-dasharray:none;stroke-opacity:0.3"
           d="m 223.81267,43.96 0,195.08" /></g></g><g
       id="g90"><text
         id="text92"
         style="font-variant:normal;font-weight:normal;font-size:10px;font-family:'DejaVu Sans';-inkscape-font-specification:DejaVuSans;writing-mode:lr-tb;fill:#262626;fill-opacity:1;fill-rule:nonzero;stroke:none"
         transform="matrix(1,0,0,-1,214.27361,29.36625)"><tspan
           id="tspan94"
           y="0"
           x="0 6.3600001 12.72">200</tspan></text>
</g><g
       id="g96"><g
         clip-path="url(#clipPath100)"
         id="g98"><path
           id="path104"
           style="fill:none;stroke:#cccccc;stroke-width:1;stroke-linecap:round;stroke-linejoin:round;stroke-miterlimit:10;stroke-dasharray:none;stroke-opacity:0.3"
           d="m 265.93273,43.96 0,195.08" /></g></g><g
       id="g106"><text
         id="text108"
         style="font-variant:normal;font-weight:normal;font-size:10px;font-family:'DejaVu Sans';-inkscape-font-specification:DejaVuSans;writing-mode:lr-tb;fill:#262626;fill-opacity:1;fill-rule:nonzero;stroke:none"
         transform="matrix(1,0,0,-1,256.39367,29.36625)"><tspan
           id="tspan110"
           y="0"
           x="0 6.3600001 12.72">250</tspan></text>
<text
         id="text112"
         style="font-variant:normal;font-weight:normal;font-size:11px;font-family:'DejaVu Sans';-inkscape-font-specification:DejaVuSans;writing-mode:lr-tb;fill:#262626;fill-opacity:1;fill-rule:nonzero;stroke:none"
         transform="matrix(1,0,0,-1,128.35156,14.92875)"><tspan
           id="tspan114"
           y="0"
           x="0 8.2279997 15.202 25.916 32.901001 39.666 44.187 47.685001 54.417 58.289001 61.786999 72.500999 79.265999 83.787003 90.772003 97.537003">Number of merges</tspan></text>
</g><g
       id="g116"><g
         clip-path="url(#clipPath120)"
         id="g118"><path
           id="path124"
           style="fill:none;stroke:#cccccc;stroke-width:1;stroke-linecap:round;stroke-linejoin:round;stroke-miterlimit:10;stroke-dasharray:none;stroke-opacity:0.8"
           d="m 52.805234,77.844429 254.405156,0" /></g></g><g
       id="g126"><g
         transform="translate(27.805234,73.883492)"
         id="g128"><text
           id="text130"
           style="font-variant:normal;font-weight:normal;font-size:10px;font-family:'DejaVu Sans';-inkscape-font-specification:DejaVuSans;writing-mode:lr-tb;fill:#262626;fill-opacity:1;fill-rule:nonzero;stroke:none"
           transform="matrix(1,0,0,-1,0,0.0640625)"><tspan
             id="tspan132"
             y="0"
             x="0 6.3623047">10</tspan></text>
<text
           id="text134"
           style="font-variant:normal;font-weight:normal;font-size:7px;font-family:'DejaVu Sans';-inkscape-font-specification:DejaVuSans;writing-mode:lr-tb;fill:#262626;fill-opacity:1;fill-rule:nonzero;stroke:none"
           transform="matrix(1,0,0,-1,12.820313,3.8921875)"><tspan
             id="tspan136"
             y="0"
             x="0">1</tspan></text>
</g></g><g
       id="g138"><g
         clip-path="url(#clipPath142)"
         id="g140"><path
           id="path146"
           style="fill:none;stroke:#cccccc;stroke-width:1;stroke-linecap:round;stroke-linejoin:round;stroke-miterlimit:10;stroke-dasharray:none;stroke-opacity:0.8"
           d="m 52.805234,113.63589 254.405156,0" /></g></g><g
       id="g148"><g
         transform="translate(27.805234,109.17495)"
         id="g150"><text
           id="text152"
           style="font-variant:normal;font-weight:normal;font-size:10px;font-family:'DejaVu Sans';-inkscape-font-specification:DejaVuSans;writing-mode:lr-tb;fill:#262626;fill-opacity:1;fill-rule:nonzero;stroke:none"
           transform="matrix(1,0,0,-1,0,0.9765625)"><tspan
             id="tspan154"
             y="0"
             x="0 6.3623047">10</tspan></text>
<text
           id="text156"
           style="font-variant:normal;font-weight:normal;font-size:7px;font-family:'DejaVu Sans';-inkscape-font-specification:DejaVuSans;writing-mode:lr-tb;fill:#262626;fill-opacity:1;fill-rule:nonzero;stroke:none"
           transform="matrix(1,0,0,-1,12.820313,4.8046875)"><tspan
             id="tspan158"
             y="0"
             x="0">2</tspan></text>
</g></g><g
       id="g160"><g
         clip-path="url(#clipPath164)"
         id="g162"><path
           id="path168"
           style="fill:none;stroke:#cccccc;stroke-width:1;stroke-linecap:round;stroke-linejoin:round;stroke-miterlimit:10;stroke-dasharray:none;stroke-opacity:0.8"
           d="m 52.805234,149.42735 254.405156,0" /></g></g><g
       id="g170"><g
         transform="translate(27.805234,144.96641)"
         id="g172"><text
           id="text174"
           style="font-variant:normal;font-weight:normal;font-size:10px;font-family:'DejaVu Sans';-inkscape-font-specification:DejaVuSans;writing-mode:lr-tb;fill:#262626;fill-opacity:1;fill-rule:nonzero;stroke:none"
           transform="matrix(1,0,0,-1,0,0.9765625)"><tspan
             id="tspan176"
             y="0"
             x="0 6.3623047">10</tspan></text>
<text
           id="text178"
           style="font-variant:normal;font-weight:normal;font-size:7px;font-family:'DejaVu Sans';-inkscape-font-specification:DejaVuSans;writing-mode:lr-tb;fill:#262626;fill-opacity:1;fill-rule:nonzero;stroke:none"
           transform="matrix(1,0,0,-1,12.820313,4.8046875)"><tspan
             id="tspan180"
             y="0"
             x="0">3</tspan></text>
</g></g><g
       id="g182"><g
         clip-path="url(#clipPath186)"
         id="g184"><path
           id="path190"
           style="fill:none;stroke:#cccccc;stroke-width:1;stroke-linecap:round;stroke-linejoin:round;stroke-miterlimit:10;stroke-dasharray:none;stroke-opacity:0.8"
           d="m 52.805234,185.21881 254.405156,0" /></g></g><g
       id="g192"><g
         transform="translate(27.805234,181.25787)"
         id="g194"><text
           id="text196"
           style="font-variant:normal;font-weight:normal;font-size:10px;font-family:'DejaVu Sans';-inkscape-font-specification:DejaVuSans;writing-mode:lr-tb;fill:#262626;fill-opacity:1;fill-rule:nonzero;stroke:none"
           transform="matrix(1,0,0,-1,0,0.0640625)"><tspan
             id="tspan198"
             y="0"
             x="0 6.3623047">10</tspan></text>
<text
           id="text200"
           style="font-variant:normal;font-weight:normal;font-size:7px;font-family:'DejaVu Sans';-inkscape-font-specification:DejaVuSans;writing-mode:lr-tb;fill:#262626;fill-opacity:1;fill-rule:nonzero;stroke:none"
           transform="matrix(1,0,0,-1,12.820313,3.8921875)"><tspan
             id="tspan202"
             y="0"
             x="0">4</tspan></text>
</g></g><g
       id="g204"><g
         clip-path="url(#clipPath208)"
         id="g206"><path
           id="path212"
           style="fill:none;stroke:#cccccc;stroke-width:1;stroke-linecap:round;stroke-linejoin:round;stroke-miterlimit:10;stroke-dasharray:none;stroke-opacity:0.8"
           d="m 52.805234,221.01027 254.405156,0" /></g></g><g
       id="g214"><g
         transform="translate(27.805234,217.04933)"
         id="g216"><text
           id="text218"
           style="font-variant:normal;font-weight:normal;font-size:10px;font-family:'DejaVu Sans';-inkscape-font-specification:DejaVuSans;writing-mode:lr-tb;fill:#262626;fill-opacity:1;fill-rule:nonzero;stroke:none"
           transform="matrix(1,0,0,-1,0,0.0640625)"><tspan
             id="tspan220"
             y="0"
             x="0 6.3623047">10</tspan></text>
<text
           id="text222"
           style="font-variant:normal;font-weight:normal;font-size:7px;font-family:'DejaVu Sans';-inkscape-font-specification:DejaVuSans;writing-mode:lr-tb;fill:#262626;fill-opacity:1;fill-rule:nonzero;stroke:none"
           transform="matrix(1,0,0,-1,12.820313,3.8921875)"><tspan
             id="tspan224"
             y="0"
             x="0">5</tspan></text>
</g><text
         id="text226"
         style="font-variant:normal;font-weight:normal;font-size:11px;font-family:'DejaVu Sans';-inkscape-font-specification:DejaVuSans;writing-mode:lr-tb;fill:#262626;fill-opacity:1;fill-rule:nonzero;stroke:none"
         transform="matrix(0,1,1,0,21.523984,110.72656)"><tspan
           id="tspan228"
           y="0"
           x="0 7.678 14.41 21.384001 28.358 32.669998 36.167999 40.458 43.515999 50.248001 57.233002">Count (log)</tspan></text>
</g><g
       id="g230"><g
         clip-path="url(#clipPath234)"
         id="g232"><path
           id="path238"
           style="fill:#191919;fill-opacity:1;fill-rule:nonzero;stroke:#191919;stroke-width:1.75;stroke-linecap:butt;stroke-linejoin:round;stroke-miterlimit:10;stroke-dasharray:none;stroke-opacity:1"
           d="m 174.82301,176.89068 7,7 m -7,0 7,-7" /></g></g><g
       id="g240"><g
         clip-path="url(#clipPath244)"
         id="g242"><path
           id="path248"
           style="fill:none;stroke:#ff0000;stroke-width:1.75;stroke-linecap:butt;stroke-linejoin:round;stroke-miterlimit:10;stroke-dasharray:6.475, 2.8;stroke-dashoffset:0;stroke-opacity:0.7"
           d="m 55.332438,185.5525 0.842401,-0.22372 0.842401,-0.15044 4.212006,-0.66873 10.951216,-1.2602 8.424011,-0.67244 16.005623,-1.12489 11.793614,-0.4216 30.32644,-0.92875 16.00563,-0.13888 33.69604,0.0153 14.32082,0.32752 19.37523,0.63301 2.5272,0.16494 8.42402,0.48261 5.8968,0.52513 10.10882,1.24886 5.89681,1.01709 5.0544,1.09134 5.05441,1.34014 2.5272,0.88504 3.36961,1.45304 3.3696,2.02134 0.84241,0.53146 1.6848,1.55184 2.5272,2.72765 0.8424,0.92047 0.8424,1.17245 1.68481,3.07274 0.8424,1.7431 0.8424,2.21199 1.6848,5.73289 0.8424,4.10531 0.8424,6.99304 0.84241,8.24163 0,0" /></g></g><g
       id="g250"><g
         clip-path="url(#clipPath254)"
         id="g252"><path
           id="path258"
           style="fill:none;stroke:#0000ff;stroke-width:1.75;stroke-linecap:butt;stroke-linejoin:round;stroke-miterlimit:10;stroke-dasharray:11.2, 2.8, 1.75, 2.8;stroke-dashoffset:0;stroke-opacity:0.7"
           d="m 55.332438,140.98687 4.212006,-0.71165 4.212006,-0.59957 20.217628,-2.69491 14.32082,-1.87416 5.896812,-0.71939 18.53282,-1.91285 5.89681,-0.7099 2.5272,-0.34271 10.95122,-1.39758 2.5272,-0.38382 2.52721,-0.39354 9.26641,-1.18263 21.06003,-1.61726 1.6848,-0.34467 2.5272,-0.35249 7.58161,-0.7299 3.36961,-0.53212 3.3696,-0.39156 2.52721,-0.40168 13.47842,-1.3599 5.0544,-1.00912 5.05441,-0.67804 4.21201,-0.50308 1.6848,-0.30986 1.6848,-0.21006 0.8424,-0.32051 1.68481,-0.32725 1.6848,-0.22206 0.8424,-0.33916 0.8424,-0.11472 0.8424,-0.34931 1.6848,-0.23732 0.8424,-0.241 0.84241,-0.12192 4.212,-1.14252 2.52721,-0.4003 1.6848,-0.55029 2.5272,-0.42589 0.8424,-0.43788 1.6848,-0.29894 0.84241,-0.45946 0.8424,-0.31403 0.8424,-0.64777 1.6848,-0.67593 0.8424,-0.52697 2.52721,-1.11076 1.6848,-0.38862 0.8424,-0.39858 0.8424,-0.2032 0.8424,-0.41453 0.8424,-0.64329 2.52721,-1.37242 0.8424,-0.73451 1.6848,-0.50968 1.6848,-2.83401 0.8424,-0.63454 0.8424,-1.35251 2.52721,-2.27881 0.8424,-1.278311 0.8424,-0.450584 0.8424,-1.94554 0.8424,-0.526967 0.8424,-1.697397 0.8424,-1.244187 0.84241,-0.661548 0.8424,-4.698664 0.8424,-1.94554 1.6848,-2.224364 0.8424,-4.078199 0.8424,-5.544167 L 287.8409,-1 l 0,0" /></g></g><g
       id="g260"><g
         clip-path="url(#clipPath264)"
         id="g262"><path
           id="path268"
           style="fill:none;stroke:#008000;stroke-width:1.75;stroke-linecap:round;stroke-linejoin:round;stroke-miterlimit:10;stroke-dasharray:none;stroke-opacity:0.7"
           d="m 55.332438,72.300262 0.842401,2.075616 2.527204,0 0.842401,1.830824 0.842401,3.119232 13.478419,0 0.842401,1.352508 69.076895,0 0.8424,1.244186 77.50091,0 0.8424,1.151937 8.42401,0 0.84241,1.072427 18.53282,0 0.8424,1.003189 1.6848,0 0.84241,0.942351 3.3696,0 0.8424,1.728895 9.26641,0 1.68481,1.555701 1.6848,0 0.8424,4.47174 3.36961,0 0.8424,0.54546 1.6848,4.201402 0.8424,0 0.8424,1.181128 0.8424,0 0.8424,1.447002 0.8424,1.94554 0.84241,0.88847 1.6848,5.51536 0.8424,1.53646 0.8424,2.5262 0.8424,4.43283 0.8424,6.87621 0.84241,5.76782 0,0" /></g></g><g
       id="g270"><g
         clip-path="url(#clipPath274)"
         id="g272"><path
           id="path278"
           style="fill:none;stroke:#008000;stroke-width:1.75;stroke-linecap:round;stroke-linejoin:round;stroke-miterlimit:10;stroke-dasharray:none;stroke-opacity:0.7"
           d="m 55.332438,52.827273 177.746652,0 0.8424,6.302563 11.79361,0 0.84241,4.47174 5.8968,0 0.8424,3.46855 8.42402,0 0.8424,2.834013 0.8424,0 0.8424,4.471739 3.3696,0 0.84241,1.830824 1.6848,0 0.8424,4.47174 1.6848,0 0.8424,1.244186 3.36961,0 0.8424,3.227553 1.6848,1.830824 0.8424,1.637727 0.8424,0.758396 0.8424,0 0.84241,2.710155 0.8424,0 0.8424,5.668025 0.8424,0 0.8424,5.414092 0.8424,6.40383 0.8424,4.06266 0.84241,17.07686 0,0" /></g></g><g
       id="g280"><text
         id="text282"
         style="font-variant:normal;font-weight:normal;font-size:9px;font-family:'DejaVu Sans';-inkscape-font-specification:DejaVuSans;writing-mode:lr-tb;fill:#262626;fill-opacity:1;fill-rule:nonzero;stroke:none"
         transform="matrix(0.99756405,-0.06975647,-0.06975647,-0.99756405,59.675237,189.31368)"><tspan
           id="tspan284"
           y="0"
           x="0 6.1560001 11.673 15.372 17.874001 23.391001 29.106001 31.608 37.143002">Variables</tspan></text>
<text
         id="text286"
         style="font-variant:normal;font-weight:normal;font-size:9px;font-family:'DejaVu Sans';-inkscape-font-specification:DejaVuSans;writing-mode:lr-tb;fill:#262626;fill-opacity:1;fill-rule:nonzero;stroke:none"
         transform="matrix(0.99254615,-0.12186934,-0.12186934,-0.99254615,59.772949,143.93419)"><tspan
           id="tspan288"
           y="0"
           x="0 5.013 7.5149999 13.221 18.431999 20.934 26.639999 32.355 35.216999 40.167 45.674999 51.381001 56.07 59.598 63.297001 68.814003 71.316002 77.022003 80.550003">Linking constraints</tspan></text>
<text
         id="text290"
         style="font-variant:normal;font-weight:normal;font-size:9px;font-family:'DejaVu Sans';-inkscape-font-specification:DejaVuSans;writing-mode:lr-tb;fill:#262626;fill-opacity:1;fill-rule:nonzero;stroke:none"
         transform="matrix(1,0,0,-1,147.99657,86.981005)"><tspan
           id="tspan292"
           y="0"
           x="0 5.013 10.53 14.229 19.944 25.479 30.167999 33.695999 36.557999 42.272999 45.972 51.48 57.186001">Largest group</tspan></text>
<text
         id="text294"
         style="font-variant:normal;font-weight:normal;font-size:9px;font-family:'DejaVu Sans';-inkscape-font-specification:DejaVuSans;writing-mode:lr-tb;fill:#262626;fill-opacity:1;fill-rule:nonzero;stroke:none"
         transform="matrix(1,0,0,-1,59.544444,56.295824)"><tspan
           id="tspan296"
           y="0"
           x="0 5.7150002 14.481 19.997999 22.5 25.002001 30.537001 35.226002 38.754002 41.616001 47.331001 51.029999 56.537998 62.243999">Smallest group</tspan></text>
<g
         transform="translate(314.21039,75.040524)"
         id="g298"><text
           id="text300"
           style="font-variant:normal;font-weight:normal;font-size:10px;font-family:'DejaVu Sans';-inkscape-font-specification:DejaVuSans;writing-mode:lr-tb;fill:#262626;fill-opacity:1;fill-rule:nonzero;stroke:none"
           transform="matrix(1,0,0,-1,0,0.9765625)"><tspan
             id="tspan302"
             y="0"
             x="0 6.3623047">10</tspan></text>
<text
           id="text304"
           style="font-variant:normal;font-weight:normal;font-size:7px;font-family:'DejaVu Sans';-inkscape-font-specification:DejaVuSans;writing-mode:lr-tb;fill:#262626;fill-opacity:1;fill-rule:nonzero;stroke:none"
           transform="matrix(1,0,0,-1,12.820313,4.8046875)"><tspan
             id="tspan306"
             y="0"
             x="0">0</tspan></text>
</g><g
         transform="translate(314.21039,216.68338)"
         id="g308"><text
           id="text310"
           style="font-variant:normal;font-weight:normal;font-size:10px;font-family:'DejaVu Sans';-inkscape-font-specification:DejaVuSans;writing-mode:lr-tb;fill:#262626;fill-opacity:1;fill-rule:nonzero;stroke:none"
           transform="matrix(1,0,0,-1,0,0.0640625)"><tspan
             id="tspan312"
             y="0"
             x="0 6.3623047">10</tspan></text>
<text
           id="text314"
           style="font-variant:normal;font-weight:normal;font-size:7px;font-family:'DejaVu Sans';-inkscape-font-specification:DejaVuSans;writing-mode:lr-tb;fill:#262626;fill-opacity:1;fill-rule:nonzero;stroke:none"
           transform="matrix(1,0,0,-1,12.820313,3.8921875)"><tspan
             id="tspan316"
             y="0"
             x="0">1</tspan></text>
</g><text
         id="text318"
         style="font-variant:normal;font-weight:normal;font-size:11px;font-family:'DejaVu Sans';-inkscape-font-specification:DejaVuSans;writing-mode:lr-tb;fill:#262626;fill-opacity:1;fill-rule:nonzero;stroke:none"
         transform="matrix(0,1,1,0,344.56977,101.10937)"><tspan
           id="tspan320"
           y="0"
           x="0 6.9850001 13.717 16.775 23.287001 30.052 34.573002 38.070999 42.382999 45.441002 56.154999 62.919998 66.417999 70.708 76.439003">Solver time (s)</tspan></text>
</g><g
       id="g322"><g
         clip-path="url(#clipPath326)"
         id="g324"><path
           id="path330"
           style="fill:#191919;fill-opacity:1;fill-rule:nonzero;stroke:#191919;stroke-width:1.75;stroke-linecap:butt;stroke-linejoin:round;stroke-miterlimit:10;stroke-dasharray:none;stroke-opacity:1"
           d="m 215.25827,57.372911 7,7 m -7,0 7,-7" /></g></g><g
       id="g332"><g
         clip-path="url(#clipPath336)"
         id="g334"><path
           id="path340"
           style="fill:none;stroke:#ffa500;stroke-width:1.75;stroke-linecap:round;stroke-linejoin:round;stroke-miterlimit:10;stroke-dasharray:none;stroke-opacity:0.7"
           d="m 55.332438,97.065847 0.842401,-3.615537 0.842401,4.503211 0.842401,-7.344117 0.842402,0.688751 0.842401,-4.420916 1.684802,2.467156 0.842401,-1.185702 0.842402,0.534432 0.842401,0.168468 0.842401,-1.132944 0.842401,-0.38175 0.842401,-2.004263 0.842401,1.844858 0.842402,-0.06649 0.842401,-4.286237 0.842401,2.8318 0.842401,-2.283965 0.842401,0.532164 0.842402,-2.408654 0.842401,1.688078 0.842401,-1.412531 0.842401,-0.365405 0.842401,-1.032689 0.842401,1.333926 0.842402,-1.739643 0.842401,-0.925316 0.842401,0.905766 0.842401,1.427258 0.842401,-3.632683 0.842401,2.397053 0.842402,-1.709391 1.684802,-0.468373 0.842401,1.400323 0.842401,-1.814829 0.842402,2.616177 0.842401,-4.104206 0.842401,2.491467 0.842401,-1.003667 0.842401,2.987903 0.842401,-3.849765 0.842402,-0.760798 0.842401,0.625465 0.842401,0.438736 0.842401,1.217762 0.842401,-2.501349 0.842402,0.573795 0.842401,-1.555776 0.842401,7.729689 0.842401,-10.126261 0.842401,3.649695 0.842401,0.619469 0.8424,-3.609819 0.8424,3.334403 0.8424,-0.09878 0.84241,1.865964 0.8424,-1.037612 0.8424,-1.444164 0.8424,-5.728287 0.8424,2.969829 0.8424,0.519632 0.8424,-2.702609 1.68481,2.372535 0.8424,2.525103 0.8424,-0.960844 0.8424,-0.332842 0.8424,0.299734 0.8424,-0.785299 0.8424,0.670973 0.8424,-4.299425 0.8424,3.28084 0.84241,-2.779625 1.6848,0.161203 0.8424,1.502217 0.8424,0.683921 0.8424,-3.392992 0.8424,2.153288 0.8424,0.982641 0.84241,-1.198048 0.8424,1.860679 0.8424,-1.438193 0.8424,0.923569 0.8424,-2.073437 0.8424,0.996615 0.8424,-1.73203 0.8424,4.440602 0.8424,0.337815 0.8424,-2.248911 0.84241,-0.581648 0.8424,1.554817 0.8424,-3.382684 0.8424,4.108463 0.8424,-3.087488 0.8424,-0.16012 0.8424,-0.368135 0.8424,1.7655 0.84241,-0.336006 0.8424,2.810378 0.8424,-1.901695 0.8424,-1.524994 0.8424,1.605272 0.8424,-0.214217 0.8424,1.878984 0.8424,-4.542451 0.8424,0.693738 0.84241,-2.84239 0.8424,2.430294 0.8424,1.35534 0.8424,-2.290378 0.8424,0.738501 1.6848,2.375864 0.8424,-4.324918 0.84241,4.191236 0.8424,-2.156463 0.8424,1.080822 0.8424,-0.383139 0.8424,0.323423 0.8424,-2.470131 0.8424,0.636881 0.8424,0.301499 0.8424,-1.742269 0.84241,2.925483 0.8424,0.44159 0.8424,0.732281 0.8424,-3.219099 0.8424,-0.08473 0.8424,1.08127 0.8424,-1.582604 0.8424,0.271862 0.84241,3.881836 0.8424,-4.472708 0.8424,0.16613 0.8424,1.463576 0.8424,-1.927802 0.8424,0.316694 0.8424,1.444445 0.8424,0.553604 0.8424,-1.4913 0.84241,-1.803111 0.8424,2.291929 0.8424,-1.865332 0.8424,-1.421966 0.8424,0.848753 0.8424,-0.785309 0.8424,0.636558 0.8424,0.004 0.84241,-0.994496 0.8424,-1.632505 0.8424,0.41654 0.8424,-0.757124 0.8424,0.02933 0.8424,0.686301 0.8424,0.965589 0.8424,-1.525766 0.8424,0.609224 0.84241,0.03908 0.8424,0.62793 0.8424,-1.660559 0.8424,5.082448 0.8424,-3.48688 0.8424,1.000362 0.8424,-1.479112 0.8424,0.566472 0.84241,0.887038 0.8424,0.514046 0.8424,1.201566 0.8424,-0.948628 0.8424,4.424683 0.8424,-6.854254 0.8424,1.146786 0.8424,-1.887132 0.84241,2.466177 0.8424,-0.656295 0.8424,-2.933163 0.8424,2.750861 0.8424,-1.937966 0.8424,1.620458 1.6848,0.994348 0.8424,-0.545243 0.84241,-0.932018 0.8424,-0.09542 0.8424,-0.942588 0.8424,2.248936 0.8424,-0.453224 0.8424,0.203326 2.52721,-2.170932 0.8424,-2.287868 0.8424,2.270761 0.8424,0.961395 0.8424,-0.174475 0.8424,-2.77613 0.8424,3.219908 0.8424,-1.020628 0.8424,1.28286 0.84241,-0.04956 0.8424,0.08809 0.8424,-3.183722 0.8424,4.216154 0.8424,-2.080536 0.8424,0.788483 0.8424,3.890006 0.8424,-5.222715 0.84241,2.534062 0.8424,-0.312864 0.8424,-1.205548 0.8424,2.375538 0.8424,-2.566463 0.8424,-0.896886 0.8424,0.921571 0.8424,1.107818 0.8424,0.652903 0.84241,2.192165 0.8424,-0.927398 0.8424,-3.68512 0.8424,5.085723 0.8424,-2.265036 0.8424,0.185797 0.8424,-0.02483 0.8424,1.518646 0.84241,-1.081795 0.8424,1.913972 0.8424,-3.753707 0.8424,0.182182 0.8424,2.496482 0.8424,0.266279 0.8424,-2.021166 0.8424,3.531852 0.8424,-1.068188 0.84241,-2.276878 0.8424,-1.872414 1.6848,5.642738 0.8424,-2.101567 0.8424,2.621325 0.8424,-1.587693 0.8424,-0.152294 0.84241,2.446239 0.8424,1.140805 0.8424,-1.81799 0.8424,3.094625 0.8424,-3.633211 0.8424,4.328557 0.8424,-4.14784 0.8424,-1.284111 0.8424,5.518038 0.84241,-2.992148 0.8424,-0.43807 0.8424,-1.695824 0.8424,2.284947 0.8424,3.72798 0.8424,2.433739 0.8424,-6.511399 0.8424,0.704333 1.68481,8.768519 0.8424,-3.08051 0.8424,4.956987 0.8424,2.814816 0.8424,-0.348418 0.8424,-0.688444 1.6848,13.605077 0.84241,1.578227 0.8424,4.133957 1.6848,25.90573 0.8424,10.81698 0.8424,22.7885 0.8424,41.8734 0.84241,32.96983 0,0" /></g></g><g
       id="g342"><text
         id="text344"
         style="font-variant:normal;font-weight:normal;font-size:9px;font-family:'DejaVu Sans';-inkscape-font-specification:DejaVuSans;writing-mode:lr-tb;fill:#262626;fill-opacity:1;fill-rule:nonzero;stroke:none"
         transform="matrix(0.01745241,0.9998477,0.9998477,-0.01745241,298.04748,111.27694)"><tspan
           id="tspan346"
           y="0"
           x="0 5.7150002 11.223 13.725 19.052999 24.587999 28.287001 31.149 34.676998 37.179001 45.945 51.48 54.341999 57.852001 63.576 69.300003 72.549004 76.077003 79.776001 82.278 87.794998 90.296997 93.158997 98.676003 104.004 109.719 112.581">Solver time (15-trial avg.)</tspan></text>
</g></g></svg>