<?xml version="1.0" encoding="UTF-8" standalone="no"?>
<!-- Created with Inkscape (http://www.inkscape.org/) -->

<svg
   xmlns:dc="http://purl.org/dc/elements/1.1/"
   xmlns:cc="http://creativecommons.org/ns#"
   xmlns:rdf="http://www.w3.org/1999/02/22-rdf-syntax-ns#"
   xmlns:svg="http://www.w3.org/2000/svg"
   xmlns="http://www.w3.org/2000/svg"
   xmlns:sodipodi="http://sodipodi.sourceforge.net/DTD/sodipodi-0.dtd"
   xmlns:inkscape="http://www.inkscape.org/namespaces/inkscape"
   version="1.1"
   id="svg2"
   xml:space="preserve"
   width="559.08154"
   height="303.34363"
   viewBox="0 0 559.08154 303.34363"
   sodipodi:docname="assortativity-case9-case6.svg"
   inkscape:version="0.92.2 5c3e80d, 2017-08-06"><metadata
     id="metadata8"><rdf:RDF><cc:Work
         rdf:about=""><dc:format>image/svg+xml</dc:format><dc:type
           rdf:resource="http://purl.org/dc/dcmitype/StillImage" /><dc:title></dc:title></cc:Work></rdf:RDF></metadata><defs
     id="defs6"><clipPath
       clipPathUnits="userSpaceOnUse"
       id="clipPath20"><path
         d="M 72,36 H 274.90909 V 259.2 H 72 Z"
         id="path18"
         inkscape:connector-curvature="0" /></clipPath><clipPath
       clipPathUnits="userSpaceOnUse"
       id="clipPath48"><path
         d="M 72,36 H 274.90909 V 259.2 H 72 Z"
         id="path46"
         inkscape:connector-curvature="0" /></clipPath><clipPath
       clipPathUnits="userSpaceOnUse"
       id="clipPath58"><path
         d="M -8.960254,-8.960254 H 8.960254 V 8.960254 H -8.960254 Z"
         id="path56"
         inkscape:connector-curvature="0" /></clipPath><clipPath
       clipPathUnits="userSpaceOnUse"
       id="clipPath70"><path
         d="M -8.960254,-8.960254 H 8.960254 V 8.960254 H -8.960254 Z"
         id="path68"
         inkscape:connector-curvature="0" /></clipPath><clipPath
       clipPathUnits="userSpaceOnUse"
       id="clipPath82"><path
         d="M -8.960254,-8.960254 H 8.960254 V 8.960254 H -8.960254 Z"
         id="path80"
         inkscape:connector-curvature="0" /></clipPath><clipPath
       clipPathUnits="userSpaceOnUse"
       id="clipPath94"><path
         d="M -8.960254,-8.960254 H 8.960254 V 8.960254 H -8.960254 Z"
         id="path92"
         inkscape:connector-curvature="0" /></clipPath><clipPath
       clipPathUnits="userSpaceOnUse"
       id="clipPath106"><path
         d="M -8.960254,-8.960254 H 8.960254 V 8.960254 H -8.960254 Z"
         id="path104"
         inkscape:connector-curvature="0" /></clipPath><clipPath
       clipPathUnits="userSpaceOnUse"
       id="clipPath118"><path
         d="M -8.960254,-8.960254 H 8.960254 V 8.960254 H -8.960254 Z"
         id="path116"
         inkscape:connector-curvature="0" /></clipPath><clipPath
       clipPathUnits="userSpaceOnUse"
       id="clipPath130"><path
         d="M -8.960254,-8.960254 H 8.960254 V 8.960254 H -8.960254 Z"
         id="path128"
         inkscape:connector-curvature="0" /></clipPath><clipPath
       clipPathUnits="userSpaceOnUse"
       id="clipPath142"><path
         d="M -8.960254,-8.960254 H 8.960254 V 8.960254 H -8.960254 Z"
         id="path140"
         inkscape:connector-curvature="0" /></clipPath><clipPath
       clipPathUnits="userSpaceOnUse"
       id="clipPath154"><path
         d="M -8.960254,-8.960254 H 8.960254 V 8.960254 H -8.960254 Z"
         id="path152"
         inkscape:connector-curvature="0" /></clipPath><clipPath
       clipPathUnits="userSpaceOnUse"
       id="clipPath172"><path
         d="M 315.49091,36 H 518.4 V 259.2 H 315.49091 Z"
         id="path170"
         inkscape:connector-curvature="0" /></clipPath><clipPath
       clipPathUnits="userSpaceOnUse"
       id="clipPath196"><path
         d="M 315.49091,36 H 518.4 V 259.2 H 315.49091 Z"
         id="path194"
         inkscape:connector-curvature="0" /></clipPath><clipPath
       clipPathUnits="userSpaceOnUse"
       id="clipPath206"><path
         d="M -8.960254,-8.960254 H 8.960254 V 8.960254 H -8.960254 Z"
         id="path204"
         inkscape:connector-curvature="0" /></clipPath><clipPath
       clipPathUnits="userSpaceOnUse"
       id="clipPath218"><path
         d="M -8.960254,-8.960254 H 8.960254 V 8.960254 H -8.960254 Z"
         id="path216"
         inkscape:connector-curvature="0" /></clipPath><clipPath
       clipPathUnits="userSpaceOnUse"
       id="clipPath230"><path
         d="M -8.960254,-8.960254 H 8.960254 V 8.960254 H -8.960254 Z"
         id="path228"
         inkscape:connector-curvature="0" /></clipPath><clipPath
       clipPathUnits="userSpaceOnUse"
       id="clipPath242"><path
         d="M -8.960254,-8.960254 H 8.960254 V 8.960254 H -8.960254 Z"
         id="path240"
         inkscape:connector-curvature="0" /></clipPath><clipPath
       clipPathUnits="userSpaceOnUse"
       id="clipPath254"><path
         d="M -8.960254,-8.960254 H 8.960254 V 8.960254 H -8.960254 Z"
         id="path252"
         inkscape:connector-curvature="0" /></clipPath><clipPath
       clipPathUnits="userSpaceOnUse"
       id="clipPath266"><path
         d="M -8.960254,-8.960254 H 8.960254 V 8.960254 H -8.960254 Z"
         id="path264"
         inkscape:connector-curvature="0" /></clipPath></defs><sodipodi:namedview
     pagecolor="#ffffff"
     bordercolor="#666666"
     borderopacity="1"
     objecttolerance="10"
     gridtolerance="10"
     guidetolerance="10"
     inkscape:pageopacity="0"
     inkscape:pageshadow="2"
     inkscape:window-width="2560"
     inkscape:window-height="1080"
     id="namedview4"
     showgrid="false"
     inkscape:zoom="0.46744792"
     inkscape:cx="-719.04827"
     inkscape:cy="31.66166"
     inkscape:window-x="0"
     inkscape:window-y="0"
     inkscape:window-maximized="0"
     inkscape:current-layer="g10"
     fit-margin-top="4"
     fit-margin-left="4"
     fit-margin-right="4"
     fit-margin-bottom="4" /><g
     id="g10"
     inkscape:groupmode="layer"
     inkscape:label="assortativity-case9-case6"
     transform="matrix(1.3333333,0,0,-1.3333333,-110.4243,378.11091)"><g
       id="g14"><g
         id="g16"
         clip-path="url(#clipPath20)"><path
           d="M 100.98701,169.80923 112.21593,99.232797"
           style="fill:none;stroke:#191919;stroke-width:1;stroke-linecap:butt;stroke-linejoin:round;stroke-miterlimit:10;stroke-dasharray:none;stroke-opacity:1"
           id="path22"
           inkscape:connector-curvature="0" /><path
           d="m 100.98701,169.80923 56.26579,57.50506"
           style="fill:none;stroke:#191919;stroke-width:1;stroke-linecap:butt;stroke-linejoin:round;stroke-miterlimit:10;stroke-dasharray:none;stroke-opacity:1"
           id="path24"
           inkscape:connector-curvature="0" /><path
           d="m 157.2528,227.31429 -29.80905,-11.8687"
           style="fill:none;stroke:#191919;stroke-width:1;stroke-linecap:butt;stroke-linejoin:round;stroke-miterlimit:10;stroke-dasharray:none;stroke-opacity:1"
           id="path26"
           inkscape:connector-curvature="0" /><path
           d="m 157.2528,227.31429 57.71558,-15.05598"
           style="fill:none;stroke:#191919;stroke-width:1;stroke-linecap:butt;stroke-linejoin:round;stroke-miterlimit:10;stroke-dasharray:none;stroke-opacity:1"
           id="path28"
           inkscape:connector-curvature="0" /><path
           d="M 181.37315,101.19215 112.21593,99.232797"
           style="fill:none;stroke:#191919;stroke-width:1;stroke-linecap:butt;stroke-linejoin:round;stroke-miterlimit:10;stroke-dasharray:none;stroke-opacity:1"
           id="path30"
           inkscape:connector-curvature="0" /><path
           d="M 181.37315,101.19215 229.14,153.25998"
           style="fill:none;stroke:#191919;stroke-width:1;stroke-linecap:butt;stroke-linejoin:round;stroke-miterlimit:10;stroke-dasharray:none;stroke-opacity:1"
           id="path32"
           inkscape:connector-curvature="0" /><path
           d="M 240.84576,113.49628 229.14,153.25998"
           style="fill:none;stroke:#191919;stroke-width:1;stroke-linecap:butt;stroke-linejoin:round;stroke-miterlimit:10;stroke-dasharray:none;stroke-opacity:1"
           id="path34"
           inkscape:connector-curvature="0" /><path
           d="m 112.21593,99.232797 36.8902,-31.347083"
           style="fill:none;stroke:#191919;stroke-width:1;stroke-linecap:butt;stroke-linejoin:round;stroke-miterlimit:10;stroke-dasharray:none;stroke-opacity:1"
           id="path36"
           inkscape:connector-curvature="0" /><path
           d="m 229.14,153.25998 -14.17162,58.99833"
           style="fill:none;stroke:#191919;stroke-width:1;stroke-linecap:butt;stroke-linejoin:round;stroke-miterlimit:10;stroke-dasharray:none;stroke-opacity:1"
           id="path38"
           inkscape:connector-curvature="0" /><g
           id="g40" /></g></g><g
       id="g42"><g
         id="g44"
         clip-path="url(#clipPath48)"><g
           id="g50"
           transform="translate(100.98701,169.80923)"><g
             id="g52"><g
               id="g54"
               clip-path="url(#clipPath58)"><path
                 d="m 0,-8.660254 c 2.296726,0 4.499694,0.912499 6.123724,2.53653 1.624031,1.62403 2.53653,3.826998 2.53653,6.123724 0,2.296726 -0.912499,4.499694 -2.53653,6.123724 C 4.499694,7.747755 2.296726,8.660254 0,8.660254 c -2.296726,0 -4.499694,-0.912499 -6.123724,-2.53653 C -7.747755,4.499694 -8.660254,2.296726 -8.660254,0 c 0,-2.296726 0.912499,-4.499694 2.53653,-6.123724 1.62403,-1.624031 3.826998,-2.53653 6.123724,-2.53653 z"
                 style="fill:#d65f5f;fill-opacity:1;fill-rule:nonzero;stroke:#191919;stroke-width:0.30000001;stroke-linecap:butt;stroke-linejoin:round;stroke-miterlimit:10;stroke-dasharray:none;stroke-opacity:1"
                 id="path60"
                 inkscape:connector-curvature="0" /></g></g><g
             id="g62"
             transform="translate(56.265789,57.505056)"><g
               id="g64"><g
                 id="g66"
                 clip-path="url(#clipPath70)"><path
                   d="m 0,-8.660254 c 2.296726,0 4.499694,0.912499 6.123724,2.53653 1.624031,1.62403 2.53653,3.826998 2.53653,6.123724 0,2.296726 -0.912499,4.499694 -2.53653,6.123724 C 4.499694,7.747755 2.296726,8.660254 0,8.660254 c -2.296726,0 -4.499694,-0.912499 -6.123724,-2.53653 C -7.747755,4.499694 -8.660254,2.296726 -8.660254,0 c 0,-2.296726 0.912499,-4.499694 2.53653,-6.123724 1.62403,-1.624031 3.826998,-2.53653 6.123724,-2.53653 z"
                   style="fill:#d65f5f;fill-opacity:1;fill-rule:nonzero;stroke:#191919;stroke-width:0.30000001;stroke-linecap:butt;stroke-linejoin:round;stroke-miterlimit:10;stroke-dasharray:none;stroke-opacity:1"
                   id="path72"
                   inkscape:connector-curvature="0" /></g></g><g
               id="g74"
               transform="translate(24.120344,-126.12213)"><g
                 id="g76"><g
                   id="g78"
                   clip-path="url(#clipPath82)"><path
                     d="m 0,-8.660254 c 2.296726,0 4.499694,0.912499 6.123724,2.53653 1.624031,1.62403 2.53653,3.826998 2.53653,6.123724 0,2.296726 -0.912499,4.499694 -2.53653,6.123724 C 4.499694,7.747755 2.296726,8.660254 0,8.660254 c -2.296726,0 -4.499694,-0.912499 -6.123724,-2.53653 C -7.747755,4.499694 -8.660254,2.296726 -8.660254,0 c 0,-2.296726 0.912499,-4.499694 2.53653,-6.123724 1.62403,-1.624031 3.826998,-2.53653 6.123724,-2.53653 z"
                     style="fill:#d65f5f;fill-opacity:1;fill-rule:nonzero;stroke:#191919;stroke-width:0.30000001;stroke-linecap:butt;stroke-linejoin:round;stroke-miterlimit:10;stroke-dasharray:none;stroke-opacity:1"
                     id="path84"
                     inkscape:connector-curvature="0" /></g></g><g
                 id="g86"
                 transform="translate(59.47261,12.304128)"><g
                   id="g88"><g
                     id="g90"
                     clip-path="url(#clipPath94)"><path
                       d="m 0,-8.660254 c 2.296726,0 4.499694,0.912499 6.123724,2.53653 1.624031,1.62403 2.53653,3.826998 2.53653,6.123724 0,2.296726 -0.912499,4.499694 -2.53653,6.123724 C 4.499694,7.747755 2.296726,8.660254 0,8.660254 c -2.296726,0 -4.499694,-0.912499 -6.123724,-2.53653 C -7.747755,4.499694 -8.660254,2.296726 -8.660254,0 c 0,-2.296726 0.912499,-4.499694 2.53653,-6.123724 1.62403,-1.624031 3.826998,-2.53653 6.123724,-2.53653 z"
                       style="fill:#d65f5f;fill-opacity:1;fill-rule:nonzero;stroke:#191919;stroke-width:0.30000001;stroke-linecap:butt;stroke-linejoin:round;stroke-miterlimit:10;stroke-dasharray:none;stroke-opacity:1"
                       id="path96"
                       inkscape:connector-curvature="0" /></g></g><g
                   id="g98"
                   transform="translate(-128.62983,-14.263482)"><g
                     id="g100"><g
                       id="g102"
                       clip-path="url(#clipPath106)"><path
                         d="m 0,-8.660254 c 2.296726,0 4.499694,0.912499 6.123724,2.53653 1.624031,1.62403 2.53653,3.826998 2.53653,6.123724 0,2.296726 -0.912499,4.499694 -2.53653,6.123724 C 4.499694,7.747755 2.296726,8.660254 0,8.660254 c -2.296726,0 -4.499694,-0.912499 -6.123724,-2.53653 C -7.747755,4.499694 -8.660254,2.296726 -8.660254,0 c 0,-2.296726 0.912499,-4.499694 2.53653,-6.123724 1.62403,-1.624031 3.826998,-2.53653 6.123724,-2.53653 z"
                         style="fill:#d65f5f;fill-opacity:1;fill-rule:nonzero;stroke:#191919;stroke-width:0.30000001;stroke-linecap:butt;stroke-linejoin:round;stroke-miterlimit:10;stroke-dasharray:none;stroke-opacity:1"
                         id="path108"
                         inkscape:connector-curvature="0" /></g></g><g
                     id="g110"
                     transform="translate(36.890203,-31.347083)"><g
                       id="g112"><g
                         id="g114"
                         clip-path="url(#clipPath118)"><path
                           d="m 0,-8.660254 c 2.296726,0 4.499694,0.912499 6.123724,2.53653 1.624031,1.62403 2.53653,3.826998 2.53653,6.123724 0,2.296726 -0.912499,4.499694 -2.53653,6.123724 C 4.499694,7.747755 2.296726,8.660254 0,8.660254 c -2.296726,0 -4.499694,-0.912499 -6.123724,-2.53653 C -7.747755,4.499694 -8.660254,2.296726 -8.660254,0 c 0,-2.296726 0.912499,-4.499694 2.53653,-6.123724 1.62403,-1.624031 3.826998,-2.53653 6.123724,-2.53653 z"
                           style="fill:#d65f5f;fill-opacity:1;fill-rule:nonzero;stroke:#191919;stroke-width:0.30000001;stroke-linecap:butt;stroke-linejoin:round;stroke-miterlimit:10;stroke-dasharray:none;stroke-opacity:1"
                           id="path120"
                           inkscape:connector-curvature="0" /></g></g><g
                       id="g122"
                       transform="translate(80.033873,85.374268)"><g
                         id="g124"><g
                           id="g126"
                           clip-path="url(#clipPath130)"><path
                             d="m 0,-8.660254 c 2.296726,0 4.499694,0.912499 6.123724,2.53653 1.624031,1.62403 2.53653,3.826998 2.53653,6.123724 0,2.296726 -0.912499,4.499694 -2.53653,6.123724 C 4.499694,7.747755 2.296726,8.660254 0,8.660254 c -2.296726,0 -4.499694,-0.912499 -6.123724,-2.53653 C -7.747755,4.499694 -8.660254,2.296726 -8.660254,0 c 0,-2.296726 0.912499,-4.499694 2.53653,-6.123724 1.62403,-1.624031 3.826998,-2.53653 6.123724,-2.53653 z"
                             style="fill:#d65f5f;fill-opacity:1;fill-rule:nonzero;stroke:#191919;stroke-width:0.30000001;stroke-linecap:butt;stroke-linejoin:round;stroke-miterlimit:10;stroke-dasharray:none;stroke-opacity:1"
                             id="path132"
                             inkscape:connector-curvature="0" /></g></g><g
                         id="g134"
                         transform="translate(-14.171626,58.998324)"><g
                           id="g136"><g
                             id="g138"
                             clip-path="url(#clipPath142)"><path
                               d="m 0,-8.660254 c 2.296726,0 4.499694,0.912499 6.123724,2.53653 1.624031,1.62403 2.53653,3.826998 2.53653,6.123724 0,2.296726 -0.912499,4.499694 -2.53653,6.123724 C 4.499694,7.747755 2.296726,8.660254 0,8.660254 c -2.296726,0 -4.499694,-0.912499 -6.123724,-2.53653 C -7.747755,4.499694 -8.660254,2.296726 -8.660254,0 c 0,-2.296726 0.912499,-4.499694 2.53653,-6.123724 1.62403,-1.624031 3.826998,-2.53653 6.123724,-2.53653 z"
                               style="fill:#d65f5f;fill-opacity:1;fill-rule:nonzero;stroke:#191919;stroke-width:0.30000001;stroke-linecap:butt;stroke-linejoin:round;stroke-miterlimit:10;stroke-dasharray:none;stroke-opacity:1"
                               id="path144"
                               inkscape:connector-curvature="0" /></g></g><g
                           id="g146"
                           transform="translate(-87.524632,3.1872819)"><g
                             id="g148"><g
                               id="g150"
                               clip-path="url(#clipPath154)"><path
                                 d="m 0,-8.660254 c 2.296726,0 4.499694,0.912499 6.123724,2.53653 1.624031,1.62403 2.53653,3.826998 2.53653,6.123724 0,2.296726 -0.912499,4.499694 -2.53653,6.123724 C 4.499694,7.747755 2.296726,8.660254 0,8.660254 c -2.296726,0 -4.499694,-0.912499 -6.123724,-2.53653 C -7.747755,4.499694 -8.660254,2.296726 -8.660254,0 c 0,-2.296726 0.912499,-4.499694 2.53653,-6.123724 1.62403,-1.624031 3.826998,-2.53653 6.123724,-2.53653 z"
                                 style="fill:#d65f5f;fill-opacity:1;fill-rule:nonzero;stroke:#191919;stroke-width:0.30000001;stroke-linecap:butt;stroke-linejoin:round;stroke-miterlimit:10;stroke-dasharray:none;stroke-opacity:1"
                                 id="path156"
                                 inkscape:connector-curvature="0" /></g></g></g></g></g></g></g></g></g></g></g></g></g><text
       transform="matrix(1,0,0,-1,129.97403,147.6)"
       style="font-variant:normal;font-weight:normal;font-size:21.60000038px;font-family:ArialMT;-inkscape-font-specification:ArialMT;writing-mode:lr-tb;fill:#262626;fill-opacity:1;fill-rule:nonzero;stroke:none"
       id="text160"><tspan
         x="0 7.1928 13.1976 25.812 31.816799 39.009602 51.019199 57.023998 69.0336"
         y="0"
         sodipodi:role="line"
         id="tspan158"></tspan></text>
<text
       transform="matrix(1,0,0,-1,82.071733,264.2)"
       style="font-variant:normal;font-weight:normal;font-size:21.60000038px;font-family:ArialMT;-inkscape-font-specification:ArialMT;writing-mode:lr-tb;fill:#262626;fill-opacity:1;fill-rule:nonzero;stroke:none"
       id="text164"><tspan
         x="0 12.0096 24.019199 34.819199 40.824001 52.833599 64.843201 75.643204 87.652802 98.452797 110.4624 122.472 134.4816 150.0768 160.8768 171.6768"
         y="0"
         sodipodi:role="line"
         id="tspan162"></tspan></text>
<g
       id="g166"><g
         id="g168"
         clip-path="url(#clipPath172)"><path
           d="M 490.31916,182.46264 453.94468,109.37178"
           style="fill:none;stroke:#191919;stroke-width:1;stroke-linecap:butt;stroke-linejoin:round;stroke-miterlimit:10;stroke-dasharray:none;stroke-opacity:1"
           id="path174"
           inkscape:connector-curvature="0" /><path
           d="m 490.31916,182.46264 -65.71101,44.85165"
           style="fill:none;stroke:#191919;stroke-width:1;stroke-linecap:butt;stroke-linejoin:round;stroke-miterlimit:10;stroke-dasharray:none;stroke-opacity:1"
           id="path176"
           inkscape:connector-curvature="0" /><path
           d="m 349.30909,198.82202 16.57702,-79.24578"
           style="fill:none;stroke:#191919;stroke-width:1;stroke-linecap:butt;stroke-linejoin:round;stroke-miterlimit:10;stroke-dasharray:none;stroke-opacity:1"
           id="path178"
           inkscape:connector-curvature="0" /><path
           d="m 349.30909,198.82202 75.29906,28.49227"
           style="fill:none;stroke:#191919;stroke-width:1;stroke-linecap:butt;stroke-linejoin:round;stroke-miterlimit:10;stroke-dasharray:none;stroke-opacity:1"
           id="path180"
           inkscape:connector-curvature="0" /><path
           d="M 365.88611,119.57624 403.86905,67.885714"
           style="fill:none;stroke:#191919;stroke-width:1;stroke-linecap:butt;stroke-linejoin:round;stroke-miterlimit:10;stroke-dasharray:none;stroke-opacity:1"
           id="path182"
           inkscape:connector-curvature="0" /><path
           d="m 365.88611,119.57624 88.05857,-10.20446"
           style="fill:none;stroke:#191919;stroke-width:1;stroke-linecap:butt;stroke-linejoin:round;stroke-miterlimit:10;stroke-dasharray:none;stroke-opacity:1"
           id="path184"
           inkscape:connector-curvature="0" /><path
           d="m 403.86905,67.885714 50.07563,41.486066"
           style="fill:none;stroke:#191919;stroke-width:1;stroke-linecap:butt;stroke-linejoin:round;stroke-miterlimit:10;stroke-dasharray:none;stroke-opacity:1"
           id="path186"
           inkscape:connector-curvature="0" /><g
           id="g188" /></g></g><g
       id="g190"><g
         id="g192"
         clip-path="url(#clipPath196)"><g
           id="g198"
           transform="translate(490.31916,182.46264)"><g
             id="g200"><g
               id="g202"
               clip-path="url(#clipPath206)"><path
                 d="m 0,-8.660254 c 2.296726,0 4.499694,0.912499 6.123724,2.53653 1.624031,1.62403 2.53653,3.826998 2.53653,6.123724 0,2.296726 -0.912499,4.499694 -2.53653,6.123724 C 4.499694,7.747755 2.296726,8.660254 0,8.660254 c -2.296726,0 -4.499694,-0.912499 -6.123724,-2.53653 C -7.747755,4.499694 -8.660254,2.296726 -8.660254,0 c 0,-2.296726 0.912499,-4.499694 2.53653,-6.123724 1.62403,-1.624031 3.826998,-2.53653 6.123724,-2.53653 z"
                 style="fill:#d65f5f;fill-opacity:1;fill-rule:nonzero;stroke:#191919;stroke-width:0.30000001;stroke-linecap:butt;stroke-linejoin:round;stroke-miterlimit:10;stroke-dasharray:none;stroke-opacity:1"
                 id="path208"
                 inkscape:connector-curvature="0" /></g></g><g
             id="g210"
             transform="translate(-141.01007,16.35938)"><g
               id="g212"><g
                 id="g214"
                 clip-path="url(#clipPath218)"><path
                   d="m 0,-8.660254 c 2.296726,0 4.499694,0.912499 6.123724,2.53653 1.624031,1.62403 2.53653,3.826998 2.53653,6.123724 0,2.296726 -0.912499,4.499694 -2.53653,6.123724 C 4.499694,7.747755 2.296726,8.660254 0,8.660254 c -2.296726,0 -4.499694,-0.912499 -6.123724,-2.53653 C -7.747755,4.499694 -8.660254,2.296726 -8.660254,0 c 0,-2.296726 0.912499,-4.499694 2.53653,-6.123724 1.62403,-1.624031 3.826998,-2.53653 6.123724,-2.53653 z"
                   style="fill:#d65f5f;fill-opacity:1;fill-rule:nonzero;stroke:#191919;stroke-width:0.30000001;stroke-linecap:butt;stroke-linejoin:round;stroke-miterlimit:10;stroke-dasharray:none;stroke-opacity:1"
                   id="path220"
                   inkscape:connector-curvature="0" /></g></g><g
               id="g222"
               transform="translate(16.577016,-79.245779)"><g
                 id="g224"><g
                   id="g226"
                   clip-path="url(#clipPath230)"><path
                     d="m 0,-8.660254 c 2.296726,0 4.499694,0.912499 6.123724,2.53653 1.624031,1.62403 2.53653,3.826998 2.53653,6.123724 0,2.296726 -0.912499,4.499694 -2.53653,6.123724 C 4.499694,7.747755 2.296726,8.660254 0,8.660254 c -2.296726,0 -4.499694,-0.912499 -6.123724,-2.53653 C -7.747755,4.499694 -8.660254,2.296726 -8.660254,0 c 0,-2.296726 0.912499,-4.499694 2.53653,-6.123724 1.62403,-1.624031 3.826998,-2.53653 6.123724,-2.53653 z"
                     style="fill:#d65f5f;fill-opacity:1;fill-rule:nonzero;stroke:#191919;stroke-width:0.30000001;stroke-linecap:butt;stroke-linejoin:round;stroke-miterlimit:10;stroke-dasharray:none;stroke-opacity:1"
                     id="path232"
                     inkscape:connector-curvature="0" /></g></g><g
                 id="g234"
                 transform="translate(37.982943,-51.690528)"><g
                   id="g236"><g
                     id="g238"
                     clip-path="url(#clipPath242)"><path
                       d="m 0,-8.660254 c 2.296726,0 4.499694,0.912499 6.123724,2.53653 1.624031,1.62403 2.53653,3.826998 2.53653,6.123724 0,2.296726 -0.912499,4.499694 -2.53653,6.123724 C 4.499694,7.747755 2.296726,8.660254 0,8.660254 c -2.296726,0 -4.499694,-0.912499 -6.123724,-2.53653 C -7.747755,4.499694 -8.660254,2.296726 -8.660254,0 c 0,-2.296726 0.912499,-4.499694 2.53653,-6.123724 1.62403,-1.624031 3.826998,-2.53653 6.123724,-2.53653 z"
                       style="fill:#d65f5f;fill-opacity:1;fill-rule:nonzero;stroke:#191919;stroke-width:0.30000001;stroke-linecap:butt;stroke-linejoin:round;stroke-miterlimit:10;stroke-dasharray:none;stroke-opacity:1"
                       id="path244"
                       inkscape:connector-curvature="0" /></g></g><g
                   id="g246"
                   transform="translate(50.075631,41.486064)"><g
                     id="g248"><g
                       id="g250"
                       clip-path="url(#clipPath254)"><path
                         d="m 0,-8.660254 c 2.296726,0 4.499694,0.912499 6.123724,2.53653 1.624031,1.62403 2.53653,3.826998 2.53653,6.123724 0,2.296726 -0.912499,4.499694 -2.53653,6.123724 C 4.499694,7.747755 2.296726,8.660254 0,8.660254 c -2.296726,0 -4.499694,-0.912499 -6.123724,-2.53653 C -7.747755,4.499694 -8.660254,2.296726 -8.660254,0 c 0,-2.296726 0.912499,-4.499694 2.53653,-6.123724 1.62403,-1.624031 3.826998,-2.53653 6.123724,-2.53653 z"
                         style="fill:#d65f5f;fill-opacity:1;fill-rule:nonzero;stroke:#191919;stroke-width:0.30000001;stroke-linecap:butt;stroke-linejoin:round;stroke-miterlimit:10;stroke-dasharray:none;stroke-opacity:1"
                         id="path256"
                         inkscape:connector-curvature="0" /></g></g><g
                     id="g258"
                     transform="translate(-29.336527,117.94251)"><g
                       id="g260"><g
                         id="g262"
                         clip-path="url(#clipPath266)"><path
                           d="m 0,-8.660254 c 2.296726,0 4.499694,0.912499 6.123724,2.53653 1.624031,1.62403 2.53653,3.826998 2.53653,6.123724 0,2.296726 -0.912499,4.499694 -2.53653,6.123724 C 4.499694,7.747755 2.296726,8.660254 0,8.660254 c -2.296726,0 -4.499694,-0.912499 -6.123724,-2.53653 C -7.747755,4.499694 -8.660254,2.296726 -8.660254,0 c 0,-2.296726 0.912499,-4.499694 2.53653,-6.123724 1.62403,-1.624031 3.826998,-2.53653 6.123724,-2.53653 z"
                           style="fill:#d65f5f;fill-opacity:1;fill-rule:nonzero;stroke:#191919;stroke-width:0.30000001;stroke-linecap:butt;stroke-linejoin:round;stroke-miterlimit:10;stroke-dasharray:none;stroke-opacity:1"
                           id="path268"
                           inkscape:connector-curvature="0" /></g></g></g></g></g></g></g></g></g></g><text
       transform="matrix(1,0,0,-1,383.12727,147.6)"
       style="font-variant:normal;font-weight:normal;font-size:21.60000038px;font-family:ArialMT;-inkscape-font-specification:ArialMT;writing-mode:lr-tb;fill:#262626;fill-opacity:1;fill-rule:nonzero;stroke:none"
       id="text272"><tspan
         x="0 7.1928 13.1976 25.812 31.816799 39.009602 51.019199 57.023998 69.0336"
         y="0"
         sodipodi:role="line"
         id="tspan270"></tspan></text>
<text
       transform="matrix(1,0,0,-1,344.18764,264.2)"
       style="font-variant:normal;font-weight:normal;font-size:21.60000038px;font-family:ArialMT;-inkscape-font-specification:ArialMT;writing-mode:lr-tb;fill:#262626;fill-opacity:1;fill-rule:nonzero;stroke:none"
       id="text276"><tspan
         x="0 12.0096 24.019199 34.819199 40.824001 52.833599 64.843201 75.643204 87.652802 98.452797 110.4624 122.472 134.4816"
         y="0"
         sodipodi:role="line"
         id="tspan274"></tspan></text>
<text
       xml:space="preserve"
       style="font-style:normal;font-weight:normal;font-size:30px;line-height:1.25;font-family:sans-serif;letter-spacing:0px;word-spacing:0px;fill:#000000;fill-opacity:1;stroke:none;stroke-width:0.75"
       x="84.162956"
       y="-258.31757"
       id="text280"
       transform="scale(1,-1)"><tspan
         sodipodi:role="line"
         id="tspan278"
         x="84.162956"
         y="-258.31757"
         style="stroke-width:0.75">case9_wscc           case6_c</tspan></text>
<text
       xml:space="preserve"
       style="font-style:normal;font-weight:normal;font-size:30px;line-height:1.25;font-family:sans-serif;letter-spacing:0px;word-spacing:0px;fill:#000000;fill-opacity:1;stroke:none;stroke-width:0.75"
       x="117.64764"
       y="-152.63232"
       id="text284"
       transform="scale(1,-1)"><tspan
         sodipodi:role="line"
         id="tspan282"
         x="117.64764"
         y="-152.63232"
         style="font-style:normal;font-variant:normal;font-weight:normal;font-stretch:normal;font-size:25px;font-family:sans-serif;-inkscape-font-specification:'sans-serif, Normal';font-variant-ligatures:normal;font-variant-caps:normal;font-variant-numeric:normal;font-feature-settings:normal;text-align:start;writing-mode:lr-tb;text-anchor:start;stroke-width:0.75">r=-0.80 </tspan></text>
<text
       xml:space="preserve"
       style="font-style:normal;font-variant:normal;font-weight:normal;font-stretch:normal;font-size:20px;line-height:1.25;font-family:sans-serif;-inkscape-font-specification:'sans-serif, Normal';font-variant-ligatures:normal;font-variant-caps:normal;font-variant-numeric:normal;font-feature-settings:normal;text-align:start;letter-spacing:0px;word-spacing:0px;writing-mode:lr-tb;text-anchor:start;fill:#000000;fill-opacity:1;stroke:none;stroke-width:0.75"
       x="366.23401"
       y="-156.05014"
       id="text288"
       transform="scale(1,-1)"><tspan
         sodipodi:role="line"
         id="tspan286"
         x="366.23401"
         y="-156.05014"
         style="font-style:normal;font-variant:normal;font-weight:normal;font-stretch:normal;font-size:25px;font-family:sans-serif;-inkscape-font-specification:'sans-serif, Normal';font-variant-ligatures:normal;font-variant-caps:normal;font-variant-numeric:normal;font-feature-settings:normal;text-align:start;writing-mode:lr-tb;text-anchor:start;stroke-width:0.75">r=-0.17</tspan></text>
</g></svg>