<?xml version="1.0" encoding="utf-8" standalone="no"?>
<!DOCTYPE svg PUBLIC "-//W3C//DTD SVG 1.1//EN"
  "http://www.w3.org/Graphics/SVG/1.1/DTD/svg11.dtd">
<!-- Created with matplotlib (http://matplotlib.org/) -->
<svg height="360pt" version="1.1" viewBox="0 0 576 360" width="576pt" xmlns="http://www.w3.org/2000/svg" xmlns:xlink="http://www.w3.org/1999/xlink">
 <defs>
  <style type="text/css">
*{stroke-linecap:butt;stroke-linejoin:round;}
  </style>
 </defs>
 <g id="figure_1">
  <g id="patch_1">
   <path d="M 0 360 
L 576 360 
L 576 0 
L 0 0 
z
" style="fill:#ffffff;"/>
  </g>
  <g id="axes_1">
   <g id="patch_2">
    <path d="M 52.805234 316.04 
L 563.04 316.04 
L 563.04 28.96 
L 52.805234 28.96 
z
" style="fill:#ffffff;"/>
   </g>
   <g id="matplotlib.axis_1">
    <g id="xtick_1">
     <g id="line2d_1">
      <path clip-path="url(#pf5f3e5e55d)" d="M 180.469481 316.04 
L 180.469481 28.96 
" style="fill:none;opacity:0.3;stroke:#cccccc;stroke-linecap:round;"/>
     </g>
     <g id="line2d_2"/>
     <g id="text_1">
      <!-- 20 -->
      <defs>
       <path d="M 19.1875 8.296875 
L 53.609375 8.296875 
L 53.609375 0 
L 7.328125 0 
L 7.328125 8.296875 
Q 12.9375 14.109375 22.625 23.890625 
Q 32.328125 33.6875 34.8125 36.53125 
Q 39.546875 41.84375 41.421875 45.53125 
Q 43.3125 49.21875 43.3125 52.78125 
Q 43.3125 58.59375 39.234375 62.25 
Q 35.15625 65.921875 28.609375 65.921875 
Q 23.96875 65.921875 18.8125 64.3125 
Q 13.671875 62.703125 7.8125 59.421875 
L 7.8125 69.390625 
Q 13.765625 71.78125 18.9375 73 
Q 24.125 74.21875 28.421875 74.21875 
Q 39.75 74.21875 46.484375 68.546875 
Q 53.21875 62.890625 53.21875 53.421875 
Q 53.21875 48.921875 51.53125 44.890625 
Q 49.859375 40.875 45.40625 35.40625 
Q 44.1875 33.984375 37.640625 27.21875 
Q 31.109375 20.453125 19.1875 8.296875 
z
" id="DejaVuSans-32"/>
       <path d="M 31.78125 66.40625 
Q 24.171875 66.40625 20.328125 58.90625 
Q 16.5 51.421875 16.5 36.375 
Q 16.5 21.390625 20.328125 13.890625 
Q 24.171875 6.390625 31.78125 6.390625 
Q 39.453125 6.390625 43.28125 13.890625 
Q 47.125 21.390625 47.125 36.375 
Q 47.125 51.421875 43.28125 58.90625 
Q 39.453125 66.40625 31.78125 66.40625 
z
M 31.78125 74.21875 
Q 44.046875 74.21875 50.515625 64.515625 
Q 56.984375 54.828125 56.984375 36.375 
Q 56.984375 17.96875 50.515625 8.265625 
Q 44.046875 -1.421875 31.78125 -1.421875 
Q 19.53125 -1.421875 13.0625 8.265625 
Q 6.59375 17.96875 6.59375 36.375 
Q 6.59375 54.828125 13.0625 64.515625 
Q 19.53125 74.21875 31.78125 74.21875 
z
" id="DejaVuSans-30"/>
      </defs>
      <g style="fill:#262626;" transform="translate(174.106981 330.638438)scale(0.1 -0.1)">
       <use xlink:href="#DejaVuSans-32"/>
       <use x="63.623047" xlink:href="#DejaVuSans-30"/>
      </g>
     </g>
    </g>
    <g id="xtick_2">
     <g id="line2d_3">
      <path clip-path="url(#pf5f3e5e55d)" d="M 395.602387 316.04 
L 395.602387 28.96 
" style="fill:none;opacity:0.3;stroke:#cccccc;stroke-linecap:round;"/>
     </g>
     <g id="line2d_4"/>
     <g id="text_2">
      <!-- 1000 -->
      <defs>
       <path d="M 12.40625 8.296875 
L 28.515625 8.296875 
L 28.515625 63.921875 
L 10.984375 60.40625 
L 10.984375 69.390625 
L 28.421875 72.90625 
L 38.28125 72.90625 
L 38.28125 8.296875 
L 54.390625 8.296875 
L 54.390625 0 
L 12.40625 0 
z
" id="DejaVuSans-31"/>
      </defs>
      <g style="fill:#262626;" transform="translate(382.877387 330.638438)scale(0.1 -0.1)">
       <use xlink:href="#DejaVuSans-31"/>
       <use x="63.623047" xlink:href="#DejaVuSans-30"/>
       <use x="127.246094" xlink:href="#DejaVuSans-30"/>
       <use x="190.869141" xlink:href="#DejaVuSans-30"/>
      </g>
     </g>
    </g>
    <g id="xtick_3">
     <g id="line2d_5">
      <path clip-path="url(#pf5f3e5e55d)" d="M 484.109804 316.04 
L 484.109804 28.96 
" style="fill:none;opacity:0.3;stroke:#cccccc;stroke-linecap:round;"/>
     </g>
     <g id="line2d_6"/>
     <g id="text_3">
      <!-- 5000 -->
      <defs>
       <path d="M 10.796875 72.90625 
L 49.515625 72.90625 
L 49.515625 64.59375 
L 19.828125 64.59375 
L 19.828125 46.734375 
Q 21.96875 47.46875 24.109375 47.828125 
Q 26.265625 48.1875 28.421875 48.1875 
Q 40.625 48.1875 47.75 41.5 
Q 54.890625 34.8125 54.890625 23.390625 
Q 54.890625 11.625 47.5625 5.09375 
Q 40.234375 -1.421875 26.90625 -1.421875 
Q 22.3125 -1.421875 17.546875 -0.640625 
Q 12.796875 0.140625 7.71875 1.703125 
L 7.71875 11.625 
Q 12.109375 9.234375 16.796875 8.0625 
Q 21.484375 6.890625 26.703125 6.890625 
Q 35.15625 6.890625 40.078125 11.328125 
Q 45.015625 15.765625 45.015625 23.390625 
Q 45.015625 31 40.078125 35.4375 
Q 35.15625 39.890625 26.703125 39.890625 
Q 22.75 39.890625 18.8125 39.015625 
Q 14.890625 38.140625 10.796875 36.28125 
z
" id="DejaVuSans-35"/>
      </defs>
      <g style="fill:#262626;" transform="translate(471.384804 330.638438)scale(0.1 -0.1)">
       <use xlink:href="#DejaVuSans-35"/>
       <use x="63.623047" xlink:href="#DejaVuSans-30"/>
       <use x="127.246094" xlink:href="#DejaVuSans-30"/>
       <use x="190.869141" xlink:href="#DejaVuSans-30"/>
      </g>
     </g>
    </g>
    <g id="xtick_4">
     <g id="line2d_7"/>
    </g>
    <g id="xtick_5">
     <g id="line2d_8"/>
    </g>
    <g id="xtick_6">
     <g id="line2d_9"/>
    </g>
    <g id="xtick_7">
     <g id="line2d_10"/>
    </g>
    <g id="xtick_8">
     <g id="line2d_11"/>
    </g>
    <g id="xtick_9">
     <g id="line2d_12"/>
    </g>
    <g id="xtick_10">
     <g id="line2d_13"/>
    </g>
    <g id="xtick_11">
     <g id="line2d_14"/>
    </g>
    <g id="xtick_12">
     <g id="line2d_15"/>
    </g>
    <g id="xtick_13">
     <g id="line2d_16"/>
    </g>
    <g id="xtick_14">
     <g id="line2d_17"/>
    </g>
    <g id="xtick_15">
     <g id="line2d_18"/>
    </g>
    <g id="xtick_16">
     <g id="line2d_19"/>
    </g>
    <g id="xtick_17">
     <g id="line2d_20"/>
    </g>
    <g id="xtick_18">
     <g id="line2d_21"/>
    </g>
    <g id="xtick_19">
     <g id="line2d_22"/>
    </g>
    <g id="xtick_20">
     <g id="line2d_23"/>
    </g>
    <g id="xtick_21">
     <g id="line2d_24"/>
    </g>
    <g id="xtick_22">
     <g id="line2d_25"/>
    </g>
    <g id="xtick_23">
     <g id="line2d_26"/>
    </g>
    <g id="xtick_24">
     <g id="line2d_27"/>
    </g>
    <g id="xtick_25">
     <g id="line2d_28"/>
    </g>
    <g id="xtick_26">
     <g id="line2d_29"/>
    </g>
    <g id="xtick_27">
     <g id="line2d_30"/>
    </g>
    <g id="xtick_28">
     <g id="line2d_31"/>
    </g>
    <g id="xtick_29">
     <g id="line2d_32"/>
    </g>
    <g id="xtick_30">
     <g id="line2d_33"/>
    </g>
    <g id="xtick_31">
     <g id="line2d_34"/>
    </g>
    <g id="xtick_32">
     <g id="line2d_35"/>
    </g>
    <g id="xtick_33">
     <g id="line2d_36"/>
    </g>
    <g id="xtick_34">
     <g id="line2d_37"/>
    </g>
    <g id="xtick_35">
     <g id="line2d_38"/>
    </g>
    <g id="xtick_36">
     <g id="line2d_39"/>
    </g>
    <g id="text_4">
     <!-- Number of nodes (log) -->
     <defs>
      <path d="M 9.8125 72.90625 
L 23.09375 72.90625 
L 55.421875 11.921875 
L 55.421875 72.90625 
L 64.984375 72.90625 
L 64.984375 0 
L 51.703125 0 
L 19.390625 60.984375 
L 19.390625 0 
L 9.8125 0 
z
" id="DejaVuSans-4e"/>
      <path d="M 8.5 21.578125 
L 8.5 54.6875 
L 17.484375 54.6875 
L 17.484375 21.921875 
Q 17.484375 14.15625 20.5 10.265625 
Q 23.53125 6.390625 29.59375 6.390625 
Q 36.859375 6.390625 41.078125 11.03125 
Q 45.3125 15.671875 45.3125 23.6875 
L 45.3125 54.6875 
L 54.296875 54.6875 
L 54.296875 0 
L 45.3125 0 
L 45.3125 8.40625 
Q 42.046875 3.421875 37.71875 1 
Q 33.40625 -1.421875 27.6875 -1.421875 
Q 18.265625 -1.421875 13.375 4.4375 
Q 8.5 10.296875 8.5 21.578125 
z
M 31.109375 56 
z
" id="DejaVuSans-75"/>
      <path d="M 52 44.1875 
Q 55.375 50.25 60.0625 53.125 
Q 64.75 56 71.09375 56 
Q 79.640625 56 84.28125 50.015625 
Q 88.921875 44.046875 88.921875 33.015625 
L 88.921875 0 
L 79.890625 0 
L 79.890625 32.71875 
Q 79.890625 40.578125 77.09375 44.375 
Q 74.3125 48.1875 68.609375 48.1875 
Q 61.625 48.1875 57.5625 43.546875 
Q 53.515625 38.921875 53.515625 30.90625 
L 53.515625 0 
L 44.484375 0 
L 44.484375 32.71875 
Q 44.484375 40.625 41.703125 44.40625 
Q 38.921875 48.1875 33.109375 48.1875 
Q 26.21875 48.1875 22.15625 43.53125 
Q 18.109375 38.875 18.109375 30.90625 
L 18.109375 0 
L 9.078125 0 
L 9.078125 54.6875 
L 18.109375 54.6875 
L 18.109375 46.1875 
Q 21.1875 51.21875 25.484375 53.609375 
Q 29.78125 56 35.6875 56 
Q 41.65625 56 45.828125 52.96875 
Q 50 49.953125 52 44.1875 
z
" id="DejaVuSans-6d"/>
      <path d="M 48.6875 27.296875 
Q 48.6875 37.203125 44.609375 42.84375 
Q 40.53125 48.484375 33.40625 48.484375 
Q 26.265625 48.484375 22.1875 42.84375 
Q 18.109375 37.203125 18.109375 27.296875 
Q 18.109375 17.390625 22.1875 11.75 
Q 26.265625 6.109375 33.40625 6.109375 
Q 40.53125 6.109375 44.609375 11.75 
Q 48.6875 17.390625 48.6875 27.296875 
z
M 18.109375 46.390625 
Q 20.953125 51.265625 25.265625 53.625 
Q 29.59375 56 35.59375 56 
Q 45.5625 56 51.78125 48.09375 
Q 58.015625 40.1875 58.015625 27.296875 
Q 58.015625 14.40625 51.78125 6.484375 
Q 45.5625 -1.421875 35.59375 -1.421875 
Q 29.59375 -1.421875 25.265625 0.953125 
Q 20.953125 3.328125 18.109375 8.203125 
L 18.109375 0 
L 9.078125 0 
L 9.078125 75.984375 
L 18.109375 75.984375 
z
" id="DejaVuSans-62"/>
      <path d="M 56.203125 29.59375 
L 56.203125 25.203125 
L 14.890625 25.203125 
Q 15.484375 15.921875 20.484375 11.0625 
Q 25.484375 6.203125 34.421875 6.203125 
Q 39.59375 6.203125 44.453125 7.46875 
Q 49.3125 8.734375 54.109375 11.28125 
L 54.109375 2.78125 
Q 49.265625 0.734375 44.1875 -0.34375 
Q 39.109375 -1.421875 33.890625 -1.421875 
Q 20.796875 -1.421875 13.15625 6.1875 
Q 5.515625 13.8125 5.515625 26.8125 
Q 5.515625 40.234375 12.765625 48.109375 
Q 20.015625 56 32.328125 56 
Q 43.359375 56 49.78125 48.890625 
Q 56.203125 41.796875 56.203125 29.59375 
z
M 47.21875 32.234375 
Q 47.125 39.59375 43.09375 43.984375 
Q 39.0625 48.390625 32.421875 48.390625 
Q 24.90625 48.390625 20.390625 44.140625 
Q 15.875 39.890625 15.1875 32.171875 
z
" id="DejaVuSans-65"/>
      <path d="M 41.109375 46.296875 
Q 39.59375 47.171875 37.8125 47.578125 
Q 36.03125 48 33.890625 48 
Q 26.265625 48 22.1875 43.046875 
Q 18.109375 38.09375 18.109375 28.8125 
L 18.109375 0 
L 9.078125 0 
L 9.078125 54.6875 
L 18.109375 54.6875 
L 18.109375 46.1875 
Q 20.953125 51.171875 25.484375 53.578125 
Q 30.03125 56 36.53125 56 
Q 37.453125 56 38.578125 55.875 
Q 39.703125 55.765625 41.0625 55.515625 
z
" id="DejaVuSans-72"/>
      <path id="DejaVuSans-20"/>
      <path d="M 30.609375 48.390625 
Q 23.390625 48.390625 19.1875 42.75 
Q 14.984375 37.109375 14.984375 27.296875 
Q 14.984375 17.484375 19.15625 11.84375 
Q 23.34375 6.203125 30.609375 6.203125 
Q 37.796875 6.203125 41.984375 11.859375 
Q 46.1875 17.53125 46.1875 27.296875 
Q 46.1875 37.015625 41.984375 42.703125 
Q 37.796875 48.390625 30.609375 48.390625 
z
M 30.609375 56 
Q 42.328125 56 49.015625 48.375 
Q 55.71875 40.765625 55.71875 27.296875 
Q 55.71875 13.875 49.015625 6.21875 
Q 42.328125 -1.421875 30.609375 -1.421875 
Q 18.84375 -1.421875 12.171875 6.21875 
Q 5.515625 13.875 5.515625 27.296875 
Q 5.515625 40.765625 12.171875 48.375 
Q 18.84375 56 30.609375 56 
z
" id="DejaVuSans-6f"/>
      <path d="M 37.109375 75.984375 
L 37.109375 68.5 
L 28.515625 68.5 
Q 23.6875 68.5 21.796875 66.546875 
Q 19.921875 64.59375 19.921875 59.515625 
L 19.921875 54.6875 
L 34.71875 54.6875 
L 34.71875 47.703125 
L 19.921875 47.703125 
L 19.921875 0 
L 10.890625 0 
L 10.890625 47.703125 
L 2.296875 47.703125 
L 2.296875 54.6875 
L 10.890625 54.6875 
L 10.890625 58.5 
Q 10.890625 67.625 15.140625 71.796875 
Q 19.390625 75.984375 28.609375 75.984375 
z
" id="DejaVuSans-66"/>
      <path d="M 54.890625 33.015625 
L 54.890625 0 
L 45.90625 0 
L 45.90625 32.71875 
Q 45.90625 40.484375 42.875 44.328125 
Q 39.84375 48.1875 33.796875 48.1875 
Q 26.515625 48.1875 22.3125 43.546875 
Q 18.109375 38.921875 18.109375 30.90625 
L 18.109375 0 
L 9.078125 0 
L 9.078125 54.6875 
L 18.109375 54.6875 
L 18.109375 46.1875 
Q 21.34375 51.125 25.703125 53.5625 
Q 30.078125 56 35.796875 56 
Q 45.21875 56 50.046875 50.171875 
Q 54.890625 44.34375 54.890625 33.015625 
z
" id="DejaVuSans-6e"/>
      <path d="M 45.40625 46.390625 
L 45.40625 75.984375 
L 54.390625 75.984375 
L 54.390625 0 
L 45.40625 0 
L 45.40625 8.203125 
Q 42.578125 3.328125 38.25 0.953125 
Q 33.9375 -1.421875 27.875 -1.421875 
Q 17.96875 -1.421875 11.734375 6.484375 
Q 5.515625 14.40625 5.515625 27.296875 
Q 5.515625 40.1875 11.734375 48.09375 
Q 17.96875 56 27.875 56 
Q 33.9375 56 38.25 53.625 
Q 42.578125 51.265625 45.40625 46.390625 
z
M 14.796875 27.296875 
Q 14.796875 17.390625 18.875 11.75 
Q 22.953125 6.109375 30.078125 6.109375 
Q 37.203125 6.109375 41.296875 11.75 
Q 45.40625 17.390625 45.40625 27.296875 
Q 45.40625 37.203125 41.296875 42.84375 
Q 37.203125 48.484375 30.078125 48.484375 
Q 22.953125 48.484375 18.875 42.84375 
Q 14.796875 37.203125 14.796875 27.296875 
z
" id="DejaVuSans-64"/>
      <path d="M 44.28125 53.078125 
L 44.28125 44.578125 
Q 40.484375 46.53125 36.375 47.5 
Q 32.28125 48.484375 27.875 48.484375 
Q 21.1875 48.484375 17.84375 46.4375 
Q 14.5 44.390625 14.5 40.28125 
Q 14.5 37.15625 16.890625 35.375 
Q 19.28125 33.59375 26.515625 31.984375 
L 29.59375 31.296875 
Q 39.15625 29.25 43.1875 25.515625 
Q 47.21875 21.78125 47.21875 15.09375 
Q 47.21875 7.46875 41.1875 3.015625 
Q 35.15625 -1.421875 24.609375 -1.421875 
Q 20.21875 -1.421875 15.453125 -0.5625 
Q 10.6875 0.296875 5.421875 2 
L 5.421875 11.28125 
Q 10.40625 8.6875 15.234375 7.390625 
Q 20.0625 6.109375 24.8125 6.109375 
Q 31.15625 6.109375 34.5625 8.28125 
Q 37.984375 10.453125 37.984375 14.40625 
Q 37.984375 18.0625 35.515625 20.015625 
Q 33.0625 21.96875 24.703125 23.78125 
L 21.578125 24.515625 
Q 13.234375 26.265625 9.515625 29.90625 
Q 5.8125 33.546875 5.8125 39.890625 
Q 5.8125 47.609375 11.28125 51.796875 
Q 16.75 56 26.8125 56 
Q 31.78125 56 36.171875 55.265625 
Q 40.578125 54.546875 44.28125 53.078125 
z
" id="DejaVuSans-73"/>
      <path d="M 31 75.875 
Q 24.46875 64.65625 21.28125 53.65625 
Q 18.109375 42.671875 18.109375 31.390625 
Q 18.109375 20.125 21.3125 9.0625 
Q 24.515625 -2 31 -13.1875 
L 23.1875 -13.1875 
Q 15.875 -1.703125 12.234375 9.375 
Q 8.59375 20.453125 8.59375 31.390625 
Q 8.59375 42.28125 12.203125 53.3125 
Q 15.828125 64.359375 23.1875 75.875 
z
" id="DejaVuSans-28"/>
      <path d="M 9.421875 75.984375 
L 18.40625 75.984375 
L 18.40625 0 
L 9.421875 0 
z
" id="DejaVuSans-6c"/>
      <path d="M 45.40625 27.984375 
Q 45.40625 37.75 41.375 43.109375 
Q 37.359375 48.484375 30.078125 48.484375 
Q 22.859375 48.484375 18.828125 43.109375 
Q 14.796875 37.75 14.796875 27.984375 
Q 14.796875 18.265625 18.828125 12.890625 
Q 22.859375 7.515625 30.078125 7.515625 
Q 37.359375 7.515625 41.375 12.890625 
Q 45.40625 18.265625 45.40625 27.984375 
z
M 54.390625 6.78125 
Q 54.390625 -7.171875 48.1875 -13.984375 
Q 42 -20.796875 29.203125 -20.796875 
Q 24.46875 -20.796875 20.265625 -20.09375 
Q 16.0625 -19.390625 12.109375 -17.921875 
L 12.109375 -9.1875 
Q 16.0625 -11.328125 19.921875 -12.34375 
Q 23.78125 -13.375 27.78125 -13.375 
Q 36.625 -13.375 41.015625 -8.765625 
Q 45.40625 -4.15625 45.40625 5.171875 
L 45.40625 9.625 
Q 42.625 4.78125 38.28125 2.390625 
Q 33.9375 0 27.875 0 
Q 17.828125 0 11.671875 7.65625 
Q 5.515625 15.328125 5.515625 27.984375 
Q 5.515625 40.671875 11.671875 48.328125 
Q 17.828125 56 27.875 56 
Q 33.9375 56 38.28125 53.609375 
Q 42.625 51.21875 45.40625 46.390625 
L 45.40625 54.6875 
L 54.390625 54.6875 
z
" id="DejaVuSans-67"/>
      <path d="M 8.015625 75.875 
L 15.828125 75.875 
Q 23.140625 64.359375 26.78125 53.3125 
Q 30.421875 42.28125 30.421875 31.390625 
Q 30.421875 20.453125 26.78125 9.375 
Q 23.140625 -1.703125 15.828125 -13.1875 
L 8.015625 -13.1875 
Q 14.5 -2 17.703125 9.0625 
Q 20.90625 20.125 20.90625 31.390625 
Q 20.90625 42.671875 17.703125 53.65625 
Q 14.5 64.65625 8.015625 75.875 
z
" id="DejaVuSans-29"/>
     </defs>
     <g style="fill:#262626;" transform="translate(246.014102 345.076406)scale(0.11 -0.11)">
      <use xlink:href="#DejaVuSans-4e"/>
      <use x="74.804688" xlink:href="#DejaVuSans-75"/>
      <use x="138.183594" xlink:href="#DejaVuSans-6d"/>
      <use x="235.595703" xlink:href="#DejaVuSans-62"/>
      <use x="299.072266" xlink:href="#DejaVuSans-65"/>
      <use x="360.595703" xlink:href="#DejaVuSans-72"/>
      <use x="401.708984" xlink:href="#DejaVuSans-20"/>
      <use x="433.496094" xlink:href="#DejaVuSans-6f"/>
      <use x="494.677734" xlink:href="#DejaVuSans-66"/>
      <use x="529.882812" xlink:href="#DejaVuSans-20"/>
      <use x="561.669922" xlink:href="#DejaVuSans-6e"/>
      <use x="625.048828" xlink:href="#DejaVuSans-6f"/>
      <use x="686.230469" xlink:href="#DejaVuSans-64"/>
      <use x="749.707031" xlink:href="#DejaVuSans-65"/>
      <use x="811.230469" xlink:href="#DejaVuSans-73"/>
      <use x="863.330078" xlink:href="#DejaVuSans-20"/>
      <use x="895.117188" xlink:href="#DejaVuSans-28"/>
      <use x="934.130859" xlink:href="#DejaVuSans-6c"/>
      <use x="961.914062" xlink:href="#DejaVuSans-6f"/>
      <use x="1023.095703" xlink:href="#DejaVuSans-67"/>
      <use x="1086.572266" xlink:href="#DejaVuSans-29"/>
     </g>
    </g>
   </g>
   <g id="matplotlib.axis_2">
    <g id="ytick_1">
     <g id="line2d_40">
      <path clip-path="url(#pf5f3e5e55d)" d="M 52.805234 300.613587 
L 563.04 300.613587 
" style="fill:none;stroke:#cccccc;stroke-linecap:round;"/>
     </g>
     <g id="line2d_41"/>
     <g id="text_5">
      <!-- $\mathdefault{10^{0}}$ -->
      <g style="fill:#262626;" transform="translate(28.205234 304.412806)scale(0.1 -0.1)">
       <use transform="translate(0 0.765625)" xlink:href="#DejaVuSans-31"/>
       <use transform="translate(63.623047 0.765625)" xlink:href="#DejaVuSans-30"/>
       <use transform="translate(128.203125 39.046875)scale(0.7)" xlink:href="#DejaVuSans-30"/>
      </g>
     </g>
    </g>
    <g id="ytick_2">
     <g id="line2d_42">
      <path clip-path="url(#pf5f3e5e55d)" d="M 52.805234 249.368152 
L 563.04 249.368152 
" style="fill:none;stroke:#cccccc;stroke-linecap:round;"/>
     </g>
     <g id="line2d_43"/>
     <g id="text_6">
      <!-- $\mathdefault{10^{1}}$ -->
      <g style="fill:#262626;" transform="translate(28.205234 253.167371)scale(0.1 -0.1)">
       <use transform="translate(0 0.684375)" xlink:href="#DejaVuSans-31"/>
       <use transform="translate(63.623047 0.684375)" xlink:href="#DejaVuSans-30"/>
       <use transform="translate(128.203125 38.965625)scale(0.7)" xlink:href="#DejaVuSans-31"/>
      </g>
     </g>
    </g>
    <g id="ytick_3">
     <g id="line2d_44">
      <path clip-path="url(#pf5f3e5e55d)" d="M 52.805234 198.122717 
L 563.04 198.122717 
" style="fill:none;stroke:#cccccc;stroke-linecap:round;"/>
     </g>
     <g id="line2d_45"/>
     <g id="text_7">
      <!-- $\mathdefault{10^{2}}$ -->
      <g style="fill:#262626;" transform="translate(28.205234 201.921936)scale(0.1 -0.1)">
       <use transform="translate(0 0.765625)" xlink:href="#DejaVuSans-31"/>
       <use transform="translate(63.623047 0.765625)" xlink:href="#DejaVuSans-30"/>
       <use transform="translate(128.203125 39.046875)scale(0.7)" xlink:href="#DejaVuSans-32"/>
      </g>
     </g>
    </g>
    <g id="ytick_4">
     <g id="line2d_46">
      <path clip-path="url(#pf5f3e5e55d)" d="M 52.805234 146.877283 
L 563.04 146.877283 
" style="fill:none;stroke:#cccccc;stroke-linecap:round;"/>
     </g>
     <g id="line2d_47"/>
     <g id="text_8">
      <!-- $\mathdefault{10^{3}}$ -->
      <defs>
       <path d="M 40.578125 39.3125 
Q 47.65625 37.796875 51.625 33 
Q 55.609375 28.21875 55.609375 21.1875 
Q 55.609375 10.40625 48.1875 4.484375 
Q 40.765625 -1.421875 27.09375 -1.421875 
Q 22.515625 -1.421875 17.65625 -0.515625 
Q 12.796875 0.390625 7.625 2.203125 
L 7.625 11.71875 
Q 11.71875 9.328125 16.59375 8.109375 
Q 21.484375 6.890625 26.8125 6.890625 
Q 36.078125 6.890625 40.9375 10.546875 
Q 45.796875 14.203125 45.796875 21.1875 
Q 45.796875 27.640625 41.28125 31.265625 
Q 36.765625 34.90625 28.71875 34.90625 
L 20.21875 34.90625 
L 20.21875 43.015625 
L 29.109375 43.015625 
Q 36.375 43.015625 40.234375 45.921875 
Q 44.09375 48.828125 44.09375 54.296875 
Q 44.09375 59.90625 40.109375 62.90625 
Q 36.140625 65.921875 28.71875 65.921875 
Q 24.65625 65.921875 20.015625 65.03125 
Q 15.375 64.15625 9.8125 62.3125 
L 9.8125 71.09375 
Q 15.4375 72.65625 20.34375 73.4375 
Q 25.25 74.21875 29.59375 74.21875 
Q 40.828125 74.21875 47.359375 69.109375 
Q 53.90625 64.015625 53.90625 55.328125 
Q 53.90625 49.265625 50.4375 45.09375 
Q 46.96875 40.921875 40.578125 39.3125 
z
" id="DejaVuSans-33"/>
      </defs>
      <g style="fill:#262626;" transform="translate(28.205234 150.676501)scale(0.1 -0.1)">
       <use transform="translate(0 0.765625)" xlink:href="#DejaVuSans-31"/>
       <use transform="translate(63.623047 0.765625)" xlink:href="#DejaVuSans-30"/>
       <use transform="translate(128.203125 39.046875)scale(0.7)" xlink:href="#DejaVuSans-33"/>
      </g>
     </g>
    </g>
    <g id="ytick_5">
     <g id="line2d_48">
      <path clip-path="url(#pf5f3e5e55d)" d="M 52.805234 95.631848 
L 563.04 95.631848 
" style="fill:none;stroke:#cccccc;stroke-linecap:round;"/>
     </g>
     <g id="line2d_49"/>
     <g id="text_9">
      <!-- $\mathdefault{10^{4}}$ -->
      <defs>
       <path d="M 37.796875 64.3125 
L 12.890625 25.390625 
L 37.796875 25.390625 
z
M 35.203125 72.90625 
L 47.609375 72.90625 
L 47.609375 25.390625 
L 58.015625 25.390625 
L 58.015625 17.1875 
L 47.609375 17.1875 
L 47.609375 0 
L 37.796875 0 
L 37.796875 17.1875 
L 4.890625 17.1875 
L 4.890625 26.703125 
z
" id="DejaVuSans-34"/>
      </defs>
      <g style="fill:#262626;" transform="translate(28.205234 99.431067)scale(0.1 -0.1)">
       <use transform="translate(0 0.684375)" xlink:href="#DejaVuSans-31"/>
       <use transform="translate(63.623047 0.684375)" xlink:href="#DejaVuSans-30"/>
       <use transform="translate(128.203125 38.965625)scale(0.7)" xlink:href="#DejaVuSans-34"/>
      </g>
     </g>
    </g>
    <g id="ytick_6">
     <g id="line2d_50">
      <path clip-path="url(#pf5f3e5e55d)" d="M 52.805234 44.386413 
L 563.04 44.386413 
" style="fill:none;stroke:#cccccc;stroke-linecap:round;"/>
     </g>
     <g id="line2d_51"/>
     <g id="text_10">
      <!-- $\mathdefault{10^{5}}$ -->
      <g style="fill:#262626;" transform="translate(28.205234 48.185632)scale(0.1 -0.1)">
       <use transform="translate(0 0.684375)" xlink:href="#DejaVuSans-31"/>
       <use transform="translate(63.623047 0.684375)" xlink:href="#DejaVuSans-30"/>
       <use transform="translate(128.203125 38.965625)scale(0.7)" xlink:href="#DejaVuSans-35"/>
      </g>
     </g>
    </g>
    <g id="ytick_7">
     <g id="line2d_52"/>
    </g>
    <g id="ytick_8">
     <g id="line2d_53"/>
    </g>
    <g id="ytick_9">
     <g id="line2d_54"/>
    </g>
    <g id="ytick_10">
     <g id="line2d_55"/>
    </g>
    <g id="ytick_11">
     <g id="line2d_56"/>
    </g>
    <g id="ytick_12">
     <g id="line2d_57"/>
    </g>
    <g id="ytick_13">
     <g id="line2d_58"/>
    </g>
    <g id="ytick_14">
     <g id="line2d_59"/>
    </g>
    <g id="ytick_15">
     <g id="line2d_60"/>
    </g>
    <g id="ytick_16">
     <g id="line2d_61"/>
    </g>
    <g id="ytick_17">
     <g id="line2d_62"/>
    </g>
    <g id="ytick_18">
     <g id="line2d_63"/>
    </g>
    <g id="ytick_19">
     <g id="line2d_64"/>
    </g>
    <g id="ytick_20">
     <g id="line2d_65"/>
    </g>
    <g id="ytick_21">
     <g id="line2d_66"/>
    </g>
    <g id="ytick_22">
     <g id="line2d_67"/>
    </g>
    <g id="ytick_23">
     <g id="line2d_68"/>
    </g>
    <g id="ytick_24">
     <g id="line2d_69"/>
    </g>
    <g id="ytick_25">
     <g id="line2d_70"/>
    </g>
    <g id="ytick_26">
     <g id="line2d_71"/>
    </g>
    <g id="ytick_27">
     <g id="line2d_72"/>
    </g>
    <g id="ytick_28">
     <g id="line2d_73"/>
    </g>
    <g id="ytick_29">
     <g id="line2d_74"/>
    </g>
    <g id="ytick_30">
     <g id="line2d_75"/>
    </g>
    <g id="ytick_31">
     <g id="line2d_76"/>
    </g>
    <g id="ytick_32">
     <g id="line2d_77"/>
    </g>
    <g id="ytick_33">
     <g id="line2d_78"/>
    </g>
    <g id="ytick_34">
     <g id="line2d_79"/>
    </g>
    <g id="ytick_35">
     <g id="line2d_80"/>
    </g>
    <g id="ytick_36">
     <g id="line2d_81"/>
    </g>
    <g id="ytick_37">
     <g id="line2d_82"/>
    </g>
    <g id="ytick_38">
     <g id="line2d_83"/>
    </g>
    <g id="ytick_39">
     <g id="line2d_84"/>
    </g>
    <g id="ytick_40">
     <g id="line2d_85"/>
    </g>
    <g id="ytick_41">
     <g id="line2d_86"/>
    </g>
    <g id="ytick_42">
     <g id="line2d_87"/>
    </g>
    <g id="ytick_43">
     <g id="line2d_88"/>
    </g>
    <g id="ytick_44">
     <g id="line2d_89"/>
    </g>
    <g id="ytick_45">
     <g id="line2d_90"/>
    </g>
    <g id="ytick_46">
     <g id="line2d_91"/>
    </g>
    <g id="ytick_47">
     <g id="line2d_92"/>
    </g>
    <g id="ytick_48">
     <g id="line2d_93"/>
    </g>
    <g id="ytick_49">
     <g id="line2d_94"/>
    </g>
    <g id="ytick_50">
     <g id="line2d_95"/>
    </g>
    <g id="ytick_51">
     <g id="line2d_96"/>
    </g>
    <g id="ytick_52">
     <g id="line2d_97"/>
    </g>
    <g id="text_11">
     <!-- Clique count / tree weight (log) -->
     <defs>
      <path d="M 64.40625 67.28125 
L 64.40625 56.890625 
Q 59.421875 61.53125 53.78125 63.8125 
Q 48.140625 66.109375 41.796875 66.109375 
Q 29.296875 66.109375 22.65625 58.46875 
Q 16.015625 50.828125 16.015625 36.375 
Q 16.015625 21.96875 22.65625 14.328125 
Q 29.296875 6.6875 41.796875 6.6875 
Q 48.140625 6.6875 53.78125 8.984375 
Q 59.421875 11.28125 64.40625 15.921875 
L 64.40625 5.609375 
Q 59.234375 2.09375 53.4375 0.328125 
Q 47.65625 -1.421875 41.21875 -1.421875 
Q 24.65625 -1.421875 15.125 8.703125 
Q 5.609375 18.84375 5.609375 36.375 
Q 5.609375 53.953125 15.125 64.078125 
Q 24.65625 74.21875 41.21875 74.21875 
Q 47.75 74.21875 53.53125 72.484375 
Q 59.328125 70.75 64.40625 67.28125 
z
" id="DejaVuSans-43"/>
      <path d="M 9.421875 54.6875 
L 18.40625 54.6875 
L 18.40625 0 
L 9.421875 0 
z
M 9.421875 75.984375 
L 18.40625 75.984375 
L 18.40625 64.59375 
L 9.421875 64.59375 
z
" id="DejaVuSans-69"/>
      <path d="M 14.796875 27.296875 
Q 14.796875 17.390625 18.875 11.75 
Q 22.953125 6.109375 30.078125 6.109375 
Q 37.203125 6.109375 41.296875 11.75 
Q 45.40625 17.390625 45.40625 27.296875 
Q 45.40625 37.203125 41.296875 42.84375 
Q 37.203125 48.484375 30.078125 48.484375 
Q 22.953125 48.484375 18.875 42.84375 
Q 14.796875 37.203125 14.796875 27.296875 
z
M 45.40625 8.203125 
Q 42.578125 3.328125 38.25 0.953125 
Q 33.9375 -1.421875 27.875 -1.421875 
Q 17.96875 -1.421875 11.734375 6.484375 
Q 5.515625 14.40625 5.515625 27.296875 
Q 5.515625 40.1875 11.734375 48.09375 
Q 17.96875 56 27.875 56 
Q 33.9375 56 38.25 53.625 
Q 42.578125 51.265625 45.40625 46.390625 
L 45.40625 54.6875 
L 54.390625 54.6875 
L 54.390625 -20.796875 
L 45.40625 -20.796875 
z
" id="DejaVuSans-71"/>
      <path d="M 48.78125 52.59375 
L 48.78125 44.1875 
Q 44.96875 46.296875 41.140625 47.34375 
Q 37.3125 48.390625 33.40625 48.390625 
Q 24.65625 48.390625 19.8125 42.84375 
Q 14.984375 37.3125 14.984375 27.296875 
Q 14.984375 17.28125 19.8125 11.734375 
Q 24.65625 6.203125 33.40625 6.203125 
Q 37.3125 6.203125 41.140625 7.25 
Q 44.96875 8.296875 48.78125 10.40625 
L 48.78125 2.09375 
Q 45.015625 0.34375 40.984375 -0.53125 
Q 36.96875 -1.421875 32.421875 -1.421875 
Q 20.0625 -1.421875 12.78125 6.34375 
Q 5.515625 14.109375 5.515625 27.296875 
Q 5.515625 40.671875 12.859375 48.328125 
Q 20.21875 56 33.015625 56 
Q 37.15625 56 41.109375 55.140625 
Q 45.0625 54.296875 48.78125 52.59375 
z
" id="DejaVuSans-63"/>
      <path d="M 18.3125 70.21875 
L 18.3125 54.6875 
L 36.8125 54.6875 
L 36.8125 47.703125 
L 18.3125 47.703125 
L 18.3125 18.015625 
Q 18.3125 11.328125 20.140625 9.421875 
Q 21.96875 7.515625 27.59375 7.515625 
L 36.8125 7.515625 
L 36.8125 0 
L 27.59375 0 
Q 17.1875 0 13.234375 3.875 
Q 9.28125 7.765625 9.28125 18.015625 
L 9.28125 47.703125 
L 2.6875 47.703125 
L 2.6875 54.6875 
L 9.28125 54.6875 
L 9.28125 70.21875 
z
" id="DejaVuSans-74"/>
      <path d="M 25.390625 72.90625 
L 33.6875 72.90625 
L 8.296875 -9.28125 
L 0 -9.28125 
z
" id="DejaVuSans-2f"/>
      <path d="M 4.203125 54.6875 
L 13.1875 54.6875 
L 24.421875 12.015625 
L 35.59375 54.6875 
L 46.1875 54.6875 
L 57.421875 12.015625 
L 68.609375 54.6875 
L 77.59375 54.6875 
L 63.28125 0 
L 52.6875 0 
L 40.921875 44.828125 
L 29.109375 0 
L 18.5 0 
z
" id="DejaVuSans-77"/>
      <path d="M 54.890625 33.015625 
L 54.890625 0 
L 45.90625 0 
L 45.90625 32.71875 
Q 45.90625 40.484375 42.875 44.328125 
Q 39.84375 48.1875 33.796875 48.1875 
Q 26.515625 48.1875 22.3125 43.546875 
Q 18.109375 38.921875 18.109375 30.90625 
L 18.109375 0 
L 9.078125 0 
L 9.078125 75.984375 
L 18.109375 75.984375 
L 18.109375 46.1875 
Q 21.34375 51.125 25.703125 53.5625 
Q 30.078125 56 35.796875 56 
Q 45.21875 56 50.046875 50.171875 
Q 54.890625 44.34375 54.890625 33.015625 
z
" id="DejaVuSans-68"/>
     </defs>
     <g style="fill:#262626;" transform="translate(21.917578 258.271641)rotate(-90)scale(0.11 -0.11)">
      <use xlink:href="#DejaVuSans-43"/>
      <use x="69.824219" xlink:href="#DejaVuSans-6c"/>
      <use x="97.607422" xlink:href="#DejaVuSans-69"/>
      <use x="125.390625" xlink:href="#DejaVuSans-71"/>
      <use x="188.867188" xlink:href="#DejaVuSans-75"/>
      <use x="252.246094" xlink:href="#DejaVuSans-65"/>
      <use x="313.769531" xlink:href="#DejaVuSans-20"/>
      <use x="345.556641" xlink:href="#DejaVuSans-63"/>
      <use x="400.537109" xlink:href="#DejaVuSans-6f"/>
      <use x="461.71875" xlink:href="#DejaVuSans-75"/>
      <use x="525.097656" xlink:href="#DejaVuSans-6e"/>
      <use x="588.476562" xlink:href="#DejaVuSans-74"/>
      <use x="627.685547" xlink:href="#DejaVuSans-20"/>
      <use x="659.472656" xlink:href="#DejaVuSans-2f"/>
      <use x="693.164062" xlink:href="#DejaVuSans-20"/>
      <use x="724.951172" xlink:href="#DejaVuSans-74"/>
      <use x="764.160156" xlink:href="#DejaVuSans-72"/>
      <use x="805.242188" xlink:href="#DejaVuSans-65"/>
      <use x="866.765625" xlink:href="#DejaVuSans-65"/>
      <use x="928.289062" xlink:href="#DejaVuSans-20"/>
      <use x="960.076172" xlink:href="#DejaVuSans-77"/>
      <use x="1041.863281" xlink:href="#DejaVuSans-65"/>
      <use x="1103.386719" xlink:href="#DejaVuSans-69"/>
      <use x="1131.169922" xlink:href="#DejaVuSans-67"/>
      <use x="1194.646484" xlink:href="#DejaVuSans-68"/>
      <use x="1258.025391" xlink:href="#DejaVuSans-74"/>
      <use x="1297.234375" xlink:href="#DejaVuSans-20"/>
      <use x="1329.021484" xlink:href="#DejaVuSans-28"/>
      <use x="1368.035156" xlink:href="#DejaVuSans-6c"/>
      <use x="1395.818359" xlink:href="#DejaVuSans-6f"/>
      <use x="1457" xlink:href="#DejaVuSans-67"/>
      <use x="1520.476562" xlink:href="#DejaVuSans-29"/>
     </g>
    </g>
   </g>
   <g id="PathCollection_1">
    <defs>
     <path d="M 0 3.5 
C 0.928211 3.5 1.81853 3.131218 2.474874 2.474874 
C 3.131218 1.81853 3.5 0.928211 3.5 0 
C 3.5 -0.928211 3.131218 -1.81853 2.474874 -2.474874 
C 1.81853 -3.131218 0.928211 -3.5 0 -3.5 
C -0.928211 -3.5 -1.81853 -3.131218 -2.474874 -2.474874 
C -3.131218 -1.81853 -3.5 -0.928211 -3.5 0 
C -3.5 0.928211 -3.131218 1.81853 -2.474874 2.474874 
C -1.81853 3.131218 -0.928211 3.5 0 3.5 
z
" id="C0_0_c6bad69dce"/>
    </defs>
    <g clip-path="url(#pf5f3e5e55d)">
     <use style="fill-opacity:0.7;stroke:#ffffff;stroke-opacity:0.7;" x="539.375359" xlink:href="#C0_0_c6bad69dce" y="89.811611"/>
    </g>
    <g clip-path="url(#pf5f3e5e55d)">
     <use style="fill-opacity:0.7;stroke:#ffffff;stroke-opacity:0.7;" x="517.887022" xlink:href="#C0_0_c6bad69dce" y="99.063678"/>
    </g>
    <g clip-path="url(#pf5f3e5e55d)">
     <use style="fill:#0000ff;fill-opacity:0.7;stroke:#ffffff;stroke-opacity:0.7;" x="500.245535" xlink:href="#C0_0_c6bad69dce" y="105.397945"/>
    </g>
    <g clip-path="url(#pf5f3e5e55d)">
     <use style="fill-opacity:0.7;stroke:#ffffff;stroke-opacity:0.7;" x="498.664697" xlink:href="#C0_0_c6bad69dce" y="106.295967"/>
    </g>
    <g clip-path="url(#pf5f3e5e55d)">
     <use style="fill:#0000ff;fill-opacity:0.7;stroke:#ffffff;stroke-opacity:0.7;" x="463.078794" xlink:href="#C0_0_c6bad69dce" y="120.38012"/>
    </g>
    <g clip-path="url(#pf5f3e5e55d)">
     <use style="fill-opacity:0.7;stroke:#ffffff;stroke-opacity:0.7;" x="458.174953" xlink:href="#C0_0_c6bad69dce" y="122.234946"/>
    </g>
    <g clip-path="url(#pf5f3e5e55d)">
     <use style="fill-opacity:0.7;stroke:#ffffff;stroke-opacity:0.7;" x="453.562741" xlink:href="#C0_0_c6bad69dce" y="124.771859"/>
    </g>
    <g clip-path="url(#pf5f3e5e55d)">
     <use style="fill-opacity:0.7;stroke:#ffffff;stroke-opacity:0.7;" x="453.543569" xlink:href="#C0_0_c6bad69dce" y="124.258527"/>
    </g>
    <g clip-path="url(#pf5f3e5e55d)">
     <use style="fill-opacity:0.7;stroke:#ffffff;stroke-opacity:0.7;" x="450.952425" xlink:href="#C0_0_c6bad69dce" y="125.229895"/>
    </g>
    <g clip-path="url(#pf5f3e5e55d)">
     <use style="fill-opacity:0.7;stroke:#ffffff;stroke-opacity:0.7;" x="443.355902" xlink:href="#C0_0_c6bad69dce" y="128.253465"/>
    </g>
    <g clip-path="url(#pf5f3e5e55d)">
     <use style="fill-opacity:0.7;stroke:#ffffff;stroke-opacity:0.7;" x="439.558498" xlink:href="#C0_0_c6bad69dce" y="130.857937"/>
    </g>
    <g clip-path="url(#pf5f3e5e55d)">
     <use style="fill:#ffa500;fill-opacity:0.7;stroke:#ffffff;stroke-opacity:0.7;" x="433.720457" xlink:href="#C0_0_c6bad69dce" y="133.367138"/>
    </g>
    <g clip-path="url(#pf5f3e5e55d)">
     <use style="fill-opacity:0.7;stroke:#ffffff;stroke-opacity:0.7;" x="432.356355" xlink:href="#C0_0_c6bad69dce" y="132.839786"/>
    </g>
    <g clip-path="url(#pf5f3e5e55d)">
     <use style="fill:#0000ff;fill-opacity:0.7;stroke:#ffffff;stroke-opacity:0.7;" x="425.967156" xlink:href="#C0_0_c6bad69dce" y="135.33121"/>
    </g>
    <g clip-path="url(#pf5f3e5e55d)">
     <use style="fill-opacity:0.7;stroke:#ffffff;stroke-opacity:0.7;" x="413.987952" xlink:href="#C0_0_c6bad69dce" y="140.698419"/>
    </g>
    <g clip-path="url(#pf5f3e5e55d)">
     <use style="fill-opacity:0.7;stroke:#ffffff;stroke-opacity:0.7;" x="412.268664" xlink:href="#C0_0_c6bad69dce" y="141.244596"/>
    </g>
    <g clip-path="url(#pf5f3e5e55d)">
     <use style="fill:#ffa500;fill-opacity:0.7;stroke:#ffffff;stroke-opacity:0.7;" x="357.484317" xlink:href="#C0_0_c6bad69dce" y="163.027519"/>
    </g>
    <g clip-path="url(#pf5f3e5e55d)">
     <use style="fill:#0000ff;fill-opacity:0.7;stroke:#ffffff;stroke-opacity:0.7;" x="345.623946" xlink:href="#C0_0_c6bad69dce" y="167.833355"/>
    </g>
    <g clip-path="url(#pf5f3e5e55d)">
     <use style="fill-opacity:0.7;stroke:#ffffff;stroke-opacity:0.7;" x="329.392611" xlink:href="#C0_0_c6bad69dce" y="175.287536"/>
    </g>
    <g clip-path="url(#pf5f3e5e55d)">
     <use style="fill-opacity:0.7;stroke:#ffffff;stroke-opacity:0.7;" x="317.121333" xlink:href="#C0_0_c6bad69dce" y="180.373709"/>
    </g>
    <g clip-path="url(#pf5f3e5e55d)">
     <use style="fill:#ffa500;fill-opacity:0.7;stroke:#ffffff;stroke-opacity:0.7;" x="307.094969" xlink:href="#C0_0_c6bad69dce" y="183.955312"/>
    </g>
    <g clip-path="url(#pf5f3e5e55d)">
     <use style="fill-opacity:0.7;stroke:#ffffff;stroke-opacity:0.7;" x="303.98401" xlink:href="#C0_0_c6bad69dce" y="185.041167"/>
    </g>
    <g clip-path="url(#pf5f3e5e55d)">
     <use style="fill-opacity:0.7;stroke:#ffffff;stroke-opacity:0.7;" x="295.50684" xlink:href="#C0_0_c6bad69dce" y="190.318635"/>
    </g>
    <g clip-path="url(#pf5f3e5e55d)">
     <use style="fill:#ffa500;fill-opacity:0.7;stroke:#ffffff;stroke-opacity:0.7;" x="291.274541" xlink:href="#C0_0_c6bad69dce" y="190.475919"/>
    </g>
    <g clip-path="url(#pf5f3e5e55d)">
     <use style="fill-opacity:0.7;stroke:#ffffff;stroke-opacity:0.7;" x="278.078993" xlink:href="#C0_0_c6bad69dce" y="196.409903"/>
    </g>
    <g clip-path="url(#pf5f3e5e55d)">
     <use style="fill-opacity:0.7;stroke:#ffffff;stroke-opacity:0.7;" x="262.568384" xlink:href="#C0_0_c6bad69dce" y="204.525257"/>
    </g>
    <g clip-path="url(#pf5f3e5e55d)">
     <use style="fill-opacity:0.7;stroke:#ffffff;stroke-opacity:0.7;" x="251.67009" xlink:href="#C0_0_c6bad69dce" y="208.055109"/>
    </g>
    <g clip-path="url(#pf5f3e5e55d)">
     <use style="fill-opacity:0.7;stroke:#ffffff;stroke-opacity:0.7;" x="238.064434" xlink:href="#C0_0_c6bad69dce" y="212.67625"/>
    </g>
    <g clip-path="url(#pf5f3e5e55d)">
     <use style="fill-opacity:0.7;stroke:#ffffff;stroke-opacity:0.7;" x="217.195256" xlink:href="#C0_0_c6bad69dce" y="222.132284"/>
    </g>
    <g clip-path="url(#pf5f3e5e55d)">
     <use style="fill-opacity:0.7;stroke:#ffffff;stroke-opacity:0.7;" x="202.767123" xlink:href="#C0_0_c6bad69dce" y="228.102663"/>
    </g>
    <g clip-path="url(#pf5f3e5e55d)">
     <use style="fill-opacity:0.7;stroke:#ffffff;stroke-opacity:0.7;" x="202.767123" xlink:href="#C0_0_c6bad69dce" y="228.102663"/>
    </g>
    <g clip-path="url(#pf5f3e5e55d)">
     <use style="fill-opacity:0.7;stroke:#ffffff;stroke-opacity:0.7;" x="202.767123" xlink:href="#C0_0_c6bad69dce" y="228.102663"/>
    </g>
    <g clip-path="url(#pf5f3e5e55d)">
     <use style="fill-opacity:0.7;stroke:#ffffff;stroke-opacity:0.7;" x="200.902783" xlink:href="#C0_0_c6bad69dce" y="230.831252"/>
    </g>
    <g clip-path="url(#pf5f3e5e55d)">
     <use style="fill-opacity:0.7;stroke:#ffffff;stroke-opacity:0.7;" x="190.495845" xlink:href="#C0_0_c6bad69dce" y="233.941739"/>
    </g>
    <g clip-path="url(#pf5f3e5e55d)">
     <use style="fill-opacity:0.7;stroke:#ffffff;stroke-opacity:0.7;" x="160.854945" xlink:href="#C0_0_c6bad69dce" y="245.310475"/>
    </g>
    <g clip-path="url(#pf5f3e5e55d)">
     <use style="fill-opacity:0.7;stroke:#ffffff;stroke-opacity:0.7;" x="136.557347" xlink:href="#C0_0_c6bad69dce" y="257.30617"/>
    </g>
    <g clip-path="url(#pf5f3e5e55d)">
     <use style="fill-opacity:0.7;stroke:#ffffff;stroke-opacity:0.7;" x="114.259705" xlink:href="#C0_0_c6bad69dce" y="269.760761"/>
    </g>
    <g clip-path="url(#pf5f3e5e55d)">
     <use style="fill-opacity:0.7;stroke:#ffffff;stroke-opacity:0.7;" x="114.259705" xlink:href="#C0_0_c6bad69dce" y="285.187174"/>
    </g>
    <g clip-path="url(#pf5f3e5e55d)">
     <use style="fill-opacity:0.7;stroke:#ffffff;stroke-opacity:0.7;" x="104.233342" xlink:href="#C0_0_c6bad69dce" y="276.163301"/>
    </g>
    <g clip-path="url(#pf5f3e5e55d)">
     <use style="fill-opacity:0.7;stroke:#ffffff;stroke-opacity:0.7;" x="91.962064" xlink:href="#C0_0_c6bad69dce" y="285.187174"/>
    </g>
    <g clip-path="url(#pf5f3e5e55d)">
     <use style="fill-opacity:0.7;stroke:#ffffff;stroke-opacity:0.7;" x="76.141635" xlink:href="#C0_0_c6bad69dce" y="300.613587"/>
    </g>
   </g>
   <g id="PathCollection_2">
    <path clip-path="url(#pf5f3e5e55d)" d="M 535.875359 77.898052 
L 542.875359 70.898052 
M 535.875359 70.898052 
L 542.875359 77.898052 
" style="stroke:#000000;"/>
    <path clip-path="url(#pf5f3e5e55d)" d="M 514.387022 82.016331 
L 521.387022 75.016331 
M 514.387022 75.016331 
L 521.387022 82.016331 
" style="stroke:#000000;"/>
    <path clip-path="url(#pf5f3e5e55d)" d="M 496.745535 96.272421 
L 503.745535 89.272421 
M 496.745535 89.272421 
L 503.745535 96.272421 
" style="fill:#0000ff;stroke:#0000ff;"/>
    <path clip-path="url(#pf5f3e5e55d)" d="M 495.164697 94.817858 
L 502.164697 87.817858 
M 495.164697 87.817858 
L 502.164697 94.817858 
" style="stroke:#000000;"/>
    <path clip-path="url(#pf5f3e5e55d)" d="M 459.578794 111.759591 
L 466.578794 104.759591 
M 459.578794 104.759591 
L 466.578794 111.759591 
" style="fill:#0000ff;stroke:#0000ff;"/>
    <path clip-path="url(#pf5f3e5e55d)" d="M 454.674953 107.399775 
L 461.674953 100.399775 
M 454.674953 100.399775 
L 461.674953 107.399775 
" style="stroke:#000000;"/>
    <path clip-path="url(#pf5f3e5e55d)" d="M 450.062741 110.382202 
L 457.062741 103.382202 
M 450.062741 103.382202 
L 457.062741 110.382202 
" style="stroke:#000000;"/>
    <path clip-path="url(#pf5f3e5e55d)" d="M 450.043569 115.035153 
L 457.043569 108.035153 
M 450.043569 108.035153 
L 457.043569 115.035153 
" style="stroke:#000000;"/>
    <path clip-path="url(#pf5f3e5e55d)" d="M 447.452425 110.209464 
L 454.452425 103.209464 
M 447.452425 103.209464 
L 454.452425 110.209464 
" style="stroke:#000000;"/>
    <path clip-path="url(#pf5f3e5e55d)" d="M 439.855902 113.62981 
L 446.855902 106.62981 
M 439.855902 106.62981 
L 446.855902 113.62981 
" style="stroke:#000000;"/>
    <path clip-path="url(#pf5f3e5e55d)" d="M 436.058498 121.091751 
L 443.058498 114.091751 
M 436.058498 114.091751 
L 443.058498 121.091751 
" style="stroke:#000000;"/>
    <path clip-path="url(#pf5f3e5e55d)" d="M 430.220457 110.705534 
L 437.220457 103.705534 
M 430.220457 103.705534 
L 437.220457 110.705534 
" style="fill:#ffa500;stroke:#ffa500;"/>
    <path clip-path="url(#pf5f3e5e55d)" d="M 428.856355 124.393496 
L 435.856355 117.393496 
M 428.856355 117.393496 
L 435.856355 124.393496 
" style="stroke:#000000;"/>
    <path clip-path="url(#pf5f3e5e55d)" d="M 422.467156 127.248895 
L 429.467156 120.248895 
M 422.467156 120.248895 
L 429.467156 127.248895 
" style="fill:#0000ff;stroke:#0000ff;"/>
    <path clip-path="url(#pf5f3e5e55d)" d="M 410.487952 137.086527 
L 417.487952 130.086527 
M 410.487952 130.086527 
L 417.487952 137.086527 
" style="stroke:#000000;"/>
    <path clip-path="url(#pf5f3e5e55d)" d="M 408.768664 130.699303 
L 415.768664 123.699303 
M 408.768664 123.699303 
L 415.768664 130.699303 
" style="stroke:#000000;"/>
    <path clip-path="url(#pf5f3e5e55d)" d="M 353.984317 154.766805 
L 360.984317 147.766805 
M 353.984317 147.766805 
L 360.984317 154.766805 
" style="fill:#ffa500;stroke:#ffa500;"/>
    <path clip-path="url(#pf5f3e5e55d)" d="M 342.123946 160.589623 
L 349.123946 153.589623 
M 342.123946 153.589623 
L 349.123946 160.589623 
" style="fill:#0000ff;stroke:#0000ff;"/>
    <path clip-path="url(#pf5f3e5e55d)" d="M 325.892611 162.195642 
L 332.892611 155.195642 
M 325.892611 155.195642 
L 332.892611 162.195642 
" style="stroke:#000000;"/>
    <path clip-path="url(#pf5f3e5e55d)" d="M 313.621333 165.31938 
L 320.621333 158.31938 
M 313.621333 158.31938 
L 320.621333 165.31938 
" style="stroke:#000000;"/>
    <path clip-path="url(#pf5f3e5e55d)" d="M 303.594969 172.028899 
L 310.594969 165.028899 
M 303.594969 165.028899 
L 310.594969 172.028899 
" style="fill:#ffa500;stroke:#ffa500;"/>
    <path clip-path="url(#pf5f3e5e55d)" d="M 300.48401 183.674105 
L 307.48401 176.674105 
M 300.48401 176.674105 
L 307.48401 183.674105 
" style="stroke:#000000;"/>
    <path clip-path="url(#pf5f3e5e55d)" d="M 292.00684 165.582245 
L 299.00684 158.582245 
M 292.00684 158.582245 
L 299.00684 165.582245 
" style="stroke:#000000;"/>
    <path clip-path="url(#pf5f3e5e55d)" d="M 287.774541 175.186538 
L 294.774541 168.186538 
M 287.774541 168.186538 
L 294.774541 175.186538 
" style="fill:#ffa500;stroke:#ffa500;"/>
    <path clip-path="url(#pf5f3e5e55d)" d="M 274.578993 182.324867 
L 281.578993 175.324867 
M 274.578993 175.324867 
L 281.578993 182.324867 
" style="stroke:#000000;"/>
    <path clip-path="url(#pf5f3e5e55d)" d="M 259.068384 183.476276 
L 266.068384 176.476276 
M 259.068384 176.476276 
L 266.068384 183.476276 
" style="stroke:#000000;"/>
    <path clip-path="url(#pf5f3e5e55d)" d="M 248.17009 191.583755 
L 255.17009 184.583755 
M 248.17009 184.583755 
L 255.17009 191.583755 
" style="stroke:#000000;"/>
    <path clip-path="url(#pf5f3e5e55d)" d="M 234.564434 197.19717 
L 241.564434 190.19717 
M 234.564434 190.19717 
L 241.564434 197.19717 
" style="stroke:#000000;"/>
    <path clip-path="url(#pf5f3e5e55d)" d="M 213.695256 214.133017 
L 220.695256 207.133017 
M 213.695256 207.133017 
L 220.695256 214.133017 
" style="stroke:#000000;"/>
    <path clip-path="url(#pf5f3e5e55d)" d="M 199.267123 218.426205 
L 206.267123 211.426205 
M 199.267123 211.426205 
L 206.267123 218.426205 
" style="stroke:#000000;"/>
    <path clip-path="url(#pf5f3e5e55d)" d="M 199.267123 218.426205 
L 206.267123 211.426205 
M 199.267123 211.426205 
L 206.267123 218.426205 
" style="stroke:#000000;"/>
    <path clip-path="url(#pf5f3e5e55d)" d="M 199.267123 218.426205 
L 206.267123 211.426205 
M 199.267123 211.426205 
L 206.267123 218.426205 
" style="stroke:#000000;"/>
    <path clip-path="url(#pf5f3e5e55d)" d="M 197.402783 215.336316 
L 204.402783 208.336316 
M 197.402783 208.336316 
L 204.402783 215.336316 
" style="stroke:#000000;"/>
    <path clip-path="url(#pf5f3e5e55d)" d="M 186.995845 220.929471 
L 193.995845 213.929471 
M 186.995845 213.929471 
L 193.995845 220.929471 
" style="stroke:#000000;"/>
    <path clip-path="url(#pf5f3e5e55d)" d="M 157.354945 236.355884 
L 164.354945 229.355884 
M 157.354945 229.355884 
L 164.354945 236.355884 
" style="stroke:#000000;"/>
    <path clip-path="url(#pf5f3e5e55d)" d="M 133.057347 255.213015 
L 140.057347 248.213015 
M 133.057347 248.213015 
L 140.057347 255.213015 
" style="stroke:#000000;"/>
    <path clip-path="url(#pf5f3e5e55d)" d="M 110.759705 264.236888 
L 117.759705 257.236888 
M 110.759705 257.236888 
L 117.759705 264.236888 
" style="stroke:#000000;"/>
    <path clip-path="url(#pf5f3e5e55d)" d="M 110.759705 288.687174 
L 117.759705 281.687174 
M 110.759705 281.687174 
L 117.759705 288.687174 
" style="stroke:#000000;"/>
    <path clip-path="url(#pf5f3e5e55d)" d="M 100.733342 273.260761 
L 107.733342 266.260761 
M 100.733342 266.260761 
L 107.733342 273.260761 
" style="stroke:#000000;"/>
    <path clip-path="url(#pf5f3e5e55d)" d="M 88.462064 288.687174 
L 95.462064 281.687174 
M 88.462064 281.687174 
L 95.462064 288.687174 
" style="stroke:#000000;"/>
    <path clip-path="url(#pf5f3e5e55d)" d="M 72.641635 15677.744025 
L 79.641635 15670.744025 
M 72.641635 15670.744025 
L 79.641635 15677.744025 
" style="stroke:#000000;"/>
   </g>
   <g id="text_12">
    <!-- Clique graph scaling -->
    <defs>
     <path d="M 34.28125 27.484375 
Q 23.390625 27.484375 19.1875 25 
Q 14.984375 22.515625 14.984375 16.5 
Q 14.984375 11.71875 18.140625 8.90625 
Q 21.296875 6.109375 26.703125 6.109375 
Q 34.1875 6.109375 38.703125 11.40625 
Q 43.21875 16.703125 43.21875 25.484375 
L 43.21875 27.484375 
z
M 52.203125 31.203125 
L 52.203125 0 
L 43.21875 0 
L 43.21875 8.296875 
Q 40.140625 3.328125 35.546875 0.953125 
Q 30.953125 -1.421875 24.3125 -1.421875 
Q 15.921875 -1.421875 10.953125 3.296875 
Q 6 8.015625 6 15.921875 
Q 6 25.140625 12.171875 29.828125 
Q 18.359375 34.515625 30.609375 34.515625 
L 43.21875 34.515625 
L 43.21875 35.40625 
Q 43.21875 41.609375 39.140625 45 
Q 35.0625 48.390625 27.6875 48.390625 
Q 23 48.390625 18.546875 47.265625 
Q 14.109375 46.140625 10.015625 43.890625 
L 10.015625 52.203125 
Q 14.9375 54.109375 19.578125 55.046875 
Q 24.21875 56 28.609375 56 
Q 40.484375 56 46.34375 49.84375 
Q 52.203125 43.703125 52.203125 31.203125 
z
" id="DejaVuSans-61"/>
     <path d="M 18.109375 8.203125 
L 18.109375 -20.796875 
L 9.078125 -20.796875 
L 9.078125 54.6875 
L 18.109375 54.6875 
L 18.109375 46.390625 
Q 20.953125 51.265625 25.265625 53.625 
Q 29.59375 56 35.59375 56 
Q 45.5625 56 51.78125 48.09375 
Q 58.015625 40.1875 58.015625 27.296875 
Q 58.015625 14.40625 51.78125 6.484375 
Q 45.5625 -1.421875 35.59375 -1.421875 
Q 29.59375 -1.421875 25.265625 0.953125 
Q 20.953125 3.328125 18.109375 8.203125 
z
M 48.6875 27.296875 
Q 48.6875 37.203125 44.609375 42.84375 
Q 40.53125 48.484375 33.40625 48.484375 
Q 26.265625 48.484375 22.1875 42.84375 
Q 18.109375 37.203125 18.109375 27.296875 
Q 18.109375 17.390625 22.1875 11.75 
Q 26.265625 6.109375 33.40625 6.109375 
Q 40.53125 6.109375 44.609375 11.75 
Q 48.6875 17.390625 48.6875 27.296875 
z
" id="DejaVuSans-70"/>
    </defs>
    <g style="fill:#262626;" transform="translate(246.671055 22.96)scale(0.12 -0.12)">
     <use xlink:href="#DejaVuSans-43"/>
     <use x="69.824219" xlink:href="#DejaVuSans-6c"/>
     <use x="97.607422" xlink:href="#DejaVuSans-69"/>
     <use x="125.390625" xlink:href="#DejaVuSans-71"/>
     <use x="188.867188" xlink:href="#DejaVuSans-75"/>
     <use x="252.246094" xlink:href="#DejaVuSans-65"/>
     <use x="313.769531" xlink:href="#DejaVuSans-20"/>
     <use x="345.556641" xlink:href="#DejaVuSans-67"/>
     <use x="409.033203" xlink:href="#DejaVuSans-72"/>
     <use x="450.146484" xlink:href="#DejaVuSans-61"/>
     <use x="511.425781" xlink:href="#DejaVuSans-70"/>
     <use x="574.902344" xlink:href="#DejaVuSans-68"/>
     <use x="638.28125" xlink:href="#DejaVuSans-20"/>
     <use x="670.068359" xlink:href="#DejaVuSans-73"/>
     <use x="722.167969" xlink:href="#DejaVuSans-63"/>
     <use x="777.148438" xlink:href="#DejaVuSans-61"/>
     <use x="838.427734" xlink:href="#DejaVuSans-6c"/>
     <use x="866.210938" xlink:href="#DejaVuSans-69"/>
     <use x="893.994141" xlink:href="#DejaVuSans-6e"/>
     <use x="957.373047" xlink:href="#DejaVuSans-67"/>
    </g>
   </g>
   <g id="legend_1">
    <g id="PathCollection_3">
     <path d="M 423.96957 267.734575 
C 424.897781 267.734575 425.7881 267.365793 426.444444 266.709449 
C 427.100788 266.053105 427.46957 265.162786 427.46957 264.234575 
C 427.46957 263.306364 427.100788 262.416045 426.444444 261.759701 
C 425.7881 261.103357 424.897781 260.734575 423.96957 260.734575 
C 423.041359 260.734575 422.151041 261.103357 421.494697 261.759701 
C 420.838352 262.416045 420.46957 263.306364 420.46957 264.234575 
C 420.46957 265.162786 420.838352 266.053105 421.494697 266.709449 
C 422.151041 267.365793 423.041359 267.734575 423.96957 267.734575 
z
" style="fill-opacity:0.7;stroke:#ffffff;stroke-opacity:0.7;"/>
    </g>
    <g id="text_13">
     <!-- Number of cliques -->
     <g style="fill:#262626;" transform="translate(441.96957 266.859575)scale(0.1 -0.1)">
      <use xlink:href="#DejaVuSans-4e"/>
      <use x="74.804688" xlink:href="#DejaVuSans-75"/>
      <use x="138.183594" xlink:href="#DejaVuSans-6d"/>
      <use x="235.595703" xlink:href="#DejaVuSans-62"/>
      <use x="299.072266" xlink:href="#DejaVuSans-65"/>
      <use x="360.595703" xlink:href="#DejaVuSans-72"/>
      <use x="401.708984" xlink:href="#DejaVuSans-20"/>
      <use x="433.496094" xlink:href="#DejaVuSans-6f"/>
      <use x="494.677734" xlink:href="#DejaVuSans-66"/>
      <use x="529.882812" xlink:href="#DejaVuSans-20"/>
      <use x="561.669922" xlink:href="#DejaVuSans-63"/>
      <use x="616.650391" xlink:href="#DejaVuSans-6c"/>
      <use x="644.433594" xlink:href="#DejaVuSans-69"/>
      <use x="672.216797" xlink:href="#DejaVuSans-71"/>
      <use x="735.693359" xlink:href="#DejaVuSans-75"/>
      <use x="799.072266" xlink:href="#DejaVuSans-65"/>
      <use x="860.595703" xlink:href="#DejaVuSans-73"/>
     </g>
    </g>
    <g id="PathCollection_4">
     <path d="M 420.46957 289.05145 
L 427.46957 282.05145 
M 420.46957 282.05145 
L 427.46957 289.05145 
" style="stroke:#000000;"/>
    </g>
    <g id="text_14">
     <!-- Minimum spanning -->
     <defs>
      <path d="M 9.8125 72.90625 
L 24.515625 72.90625 
L 43.109375 23.296875 
L 61.8125 72.90625 
L 76.515625 72.90625 
L 76.515625 0 
L 66.890625 0 
L 66.890625 64.015625 
L 48.09375 14.015625 
L 38.1875 14.015625 
L 19.390625 64.015625 
L 19.390625 0 
L 9.8125 0 
z
" id="DejaVuSans-4d"/>
     </defs>
     <g style="fill:#262626;" transform="translate(441.96957 281.5377)scale(0.1 -0.1)">
      <use xlink:href="#DejaVuSans-4d"/>
      <use x="86.279297" xlink:href="#DejaVuSans-69"/>
      <use x="114.0625" xlink:href="#DejaVuSans-6e"/>
      <use x="177.441406" xlink:href="#DejaVuSans-69"/>
      <use x="205.224609" xlink:href="#DejaVuSans-6d"/>
      <use x="302.636719" xlink:href="#DejaVuSans-75"/>
      <use x="366.015625" xlink:href="#DejaVuSans-6d"/>
      <use x="463.427734" xlink:href="#DejaVuSans-20"/>
      <use x="495.214844" xlink:href="#DejaVuSans-73"/>
      <use x="547.314453" xlink:href="#DejaVuSans-70"/>
      <use x="610.791016" xlink:href="#DejaVuSans-61"/>
      <use x="672.070312" xlink:href="#DejaVuSans-6e"/>
      <use x="735.449219" xlink:href="#DejaVuSans-6e"/>
      <use x="798.828125" xlink:href="#DejaVuSans-69"/>
      <use x="826.611328" xlink:href="#DejaVuSans-6e"/>
      <use x="889.990234" xlink:href="#DejaVuSans-67"/>
     </g>
     <!-- tree weight -->
     <g style="fill:#262626;" transform="translate(441.96957 292.735513)scale(0.1 -0.1)">
      <use xlink:href="#DejaVuSans-74"/>
      <use x="39.208984" xlink:href="#DejaVuSans-72"/>
      <use x="80.291016" xlink:href="#DejaVuSans-65"/>
      <use x="141.814453" xlink:href="#DejaVuSans-65"/>
      <use x="203.337891" xlink:href="#DejaVuSans-20"/>
      <use x="235.125" xlink:href="#DejaVuSans-77"/>
      <use x="316.912109" xlink:href="#DejaVuSans-65"/>
      <use x="378.435547" xlink:href="#DejaVuSans-69"/>
      <use x="406.21875" xlink:href="#DejaVuSans-67"/>
      <use x="469.695312" xlink:href="#DejaVuSans-68"/>
      <use x="533.074219" xlink:href="#DejaVuSans-74"/>
     </g>
    </g>
   </g>
  </g>
 </g>
 <defs>
  <clipPath id="pf5f3e5e55d">
   <rect height="287.08" width="510.234766" x="52.805234" y="28.96"/>
  </clipPath>
 </defs>
</svg>
