<?xml version="1.0" encoding="utf-8" standalone="no"?>
<!DOCTYPE svg PUBLIC "-//W3C//DTD SVG 1.1//EN"
  "http://www.w3.org/Graphics/SVG/1.1/DTD/svg11.dtd">
<!-- Created with matplotlib (http://matplotlib.org/) -->
<svg height="432pt" version="1.1" viewBox="0 0 576 432" width="576pt" xmlns="http://www.w3.org/2000/svg" xmlns:xlink="http://www.w3.org/1999/xlink">
 <defs>
  <style type="text/css">
*{stroke-linecap:butt;stroke-linejoin:round;}
  </style>
 </defs>
 <g id="figure_1">
  <g id="patch_1">
   <path d="M 0 432 
L 576 432 
L 576 0 
L 0 0 
z
" style="fill:#ffffff;"/>
  </g>
  <g id="axes_1">
   <g id="patch_2">
    <path d="M 72 378 
L 518.4 378 
L 518.4 51.84 
L 72 51.84 
z
" style="fill:#ffffff;"/>
   </g>
   <g id="LineCollection_1">
    <path clip-path="url(#pda6023c1bd)" d="M 304.80903 67.035384 
L 314.625333 100.009134 
" style="fill:none;stroke:#4878cf;stroke-opacity:0.8;stroke-width:2;"/>
    <path clip-path="url(#pda6023c1bd)" d="M 304.80903 67.035384 
L 271.699518 96.880064 
" style="fill:none;stroke:#4878cf;stroke-opacity:0.8;stroke-width:2;"/>
    <path clip-path="url(#pda6023c1bd)" d="M 314.625333 100.009134 
L 279.056339 145.856848 
" style="fill:none;stroke:#4878cf;stroke-opacity:0.8;stroke-width:2;"/>
    <path clip-path="url(#pda6023c1bd)" d="M 314.625333 100.009134 
L 368.614826 95.210613 
" style="fill:none;stroke:#4878cf;stroke-opacity:0.8;stroke-width:2;"/>
    <path clip-path="url(#pda6023c1bd)" d="M 314.625333 100.009134 
L 318.022095 178.670585 
" style="fill:none;stroke:#4878cf;stroke-opacity:0.8;stroke-width:2;"/>
    <path clip-path="url(#pda6023c1bd)" d="M 271.699518 96.880064 
L 279.056339 145.856848 
" style="fill:none;stroke:#4878cf;stroke-opacity:0.8;stroke-width:2;"/>
    <path clip-path="url(#pda6023c1bd)" d="M 279.056339 145.856848 
L 318.022095 178.670585 
" style="fill:none;stroke:#4878cf;stroke-opacity:0.8;stroke-width:2;"/>
    <path clip-path="url(#pda6023c1bd)" d="M 279.056339 145.856848 
L 167.862938 160.379621 
" style="fill:none;stroke:#4878cf;stroke-opacity:0.8;"/>
    <path clip-path="url(#pda6023c1bd)" d="M 368.614826 95.210613 
L 358.110698 132.904299 
" style="fill:none;stroke:#4878cf;stroke-opacity:0.8;stroke-width:2;"/>
    <path clip-path="url(#pda6023c1bd)" d="M 318.022095 178.670585 
L 358.110698 132.904299 
" style="fill:none;stroke:#4878cf;stroke-opacity:0.8;stroke-width:2;"/>
    <path clip-path="url(#pda6023c1bd)" d="M 318.022095 178.670585 
L 360.899501 169.341561 
" style="fill:none;stroke:#4878cf;stroke-opacity:0.8;stroke-width:2;"/>
    <path clip-path="url(#pda6023c1bd)" d="M 318.022095 178.670585 
L 380.390736 190.994887 
" style="fill:none;stroke:#4878cf;stroke-opacity:0.8;stroke-width:2;"/>
    <path clip-path="url(#pda6023c1bd)" d="M 318.022095 178.670585 
L 286.977839 237.328877 
" style="fill:none;stroke:#4878cf;stroke-opacity:0.8;"/>
    <path clip-path="url(#pda6023c1bd)" d="M 318.022095 178.670585 
L 246.580069 267.12742 
" style="fill:none;stroke:#4878cf;stroke-opacity:0.8;"/>
    <path clip-path="url(#pda6023c1bd)" d="M 360.899501 169.341561 
L 380.390736 190.994887 
" style="fill:none;stroke:#4878cf;stroke-opacity:0.8;stroke-width:2;"/>
    <path clip-path="url(#pda6023c1bd)" d="M 167.862938 160.379621 
L 108.894332 166.664579 
" style="fill:none;stroke:#4878cf;stroke-opacity:0.8;"/>
    <path clip-path="url(#pda6023c1bd)" d="M 167.862938 160.379621 
L 115.11454 207.999878 
" style="fill:none;stroke:#4878cf;stroke-opacity:0.8;"/>
    <path clip-path="url(#pda6023c1bd)" d="M 167.862938 160.379621 
L 176.522628 196.621841 
" style="fill:none;stroke:#4878cf;stroke-opacity:0.8;"/>
    <path clip-path="url(#pda6023c1bd)" d="M 167.862938 160.379621 
L 126.079546 127.474616 
" style="fill:none;stroke:#4878cf;stroke-opacity:0.8;"/>
    <path clip-path="url(#pda6023c1bd)" d="M 108.894332 166.664579 
L 115.11454 207.999878 
" style="fill:none;stroke:#4878cf;stroke-opacity:0.8;"/>
    <path clip-path="url(#pda6023c1bd)" d="M 115.11454 207.999878 
L 92.626945 251.996439 
" style="fill:none;stroke:#4878cf;stroke-opacity:0.8;"/>
    <path clip-path="url(#pda6023c1bd)" d="M 115.11454 207.999878 
L 159.22351 336.170613 
" style="fill:none;stroke:#4878cf;stroke-opacity:0.8;"/>
    <path clip-path="url(#pda6023c1bd)" d="M 176.522628 196.621841 
L 212.623745 255.036334 
" style="fill:none;stroke:#4878cf;stroke-opacity:0.8;"/>
    <path clip-path="url(#pda6023c1bd)" d="M 212.623745 255.036334 
L 246.580069 267.12742 
" style="fill:none;stroke:#4878cf;stroke-opacity:0.8;"/>
    <path clip-path="url(#pda6023c1bd)" d="M 92.626945 251.996439 
L 114.309951 282.592431 
" style="fill:none;stroke:#4878cf;stroke-opacity:0.8;"/>
    <path clip-path="url(#pda6023c1bd)" d="M 114.309951 282.592431 
L 153.416863 285.268374 
" style="fill:none;stroke:#4878cf;stroke-opacity:0.8;"/>
    <path clip-path="url(#pda6023c1bd)" d="M 153.416863 285.268374 
L 246.580069 267.12742 
" style="fill:none;stroke:#4878cf;stroke-opacity:0.8;"/>
    <path clip-path="url(#pda6023c1bd)" d="M 246.580069 267.12742 
L 242.123889 327.820218 
" style="fill:none;stroke:#4878cf;stroke-opacity:0.8;"/>
    <path clip-path="url(#pda6023c1bd)" d="M 246.580069 267.12742 
L 252.958556 337.094028 
" style="fill:none;stroke:#4878cf;stroke-opacity:0.8;"/>
    <path clip-path="url(#pda6023c1bd)" d="M 246.580069 267.12742 
L 286.977839 237.328877 
" style="fill:none;stroke:#4878cf;stroke-opacity:0.8;"/>
    <path clip-path="url(#pda6023c1bd)" d="M 242.123889 327.820218 
L 252.958556 337.094028 
" style="fill:none;stroke:#4878cf;stroke-opacity:0.8;"/>
    <path clip-path="url(#pda6023c1bd)" d="M 252.958556 337.094028 
L 291.728994 353.587936 
" style="fill:none;stroke:#4878cf;stroke-opacity:0.8;"/>
    <path clip-path="url(#pda6023c1bd)" d="M 159.22351 336.170613 
L 291.728994 353.587936 
" style="fill:none;stroke:#4878cf;stroke-opacity:0.8;"/>
    <path clip-path="url(#pda6023c1bd)" d="M 291.728994 353.587936 
L 392.870372 324.592699 
" style="fill:none;stroke:#4878cf;stroke-opacity:0.8;"/>
    <path clip-path="url(#pda6023c1bd)" d="M 392.870372 324.592699 
L 417.178274 362.804616 
" style="fill:none;stroke:#4878cf;stroke-opacity:0.8;"/>
    <path clip-path="url(#pda6023c1bd)" d="M 392.870372 324.592699 
L 428.70495 263.341299 
" style="fill:none;stroke:#4878cf;stroke-opacity:0.8;"/>
    <path clip-path="url(#pda6023c1bd)" d="M 428.70495 263.341299 
L 493.311975 265.162613 
" style="fill:none;stroke:#4878cf;stroke-opacity:0.8;"/>
    <path clip-path="url(#pda6023c1bd)" d="M 428.70495 263.341299 
L 497.773055 277.438091 
" style="fill:none;stroke:#4878cf;stroke-opacity:0.8;"/>
    <path clip-path="url(#pda6023c1bd)" d="M 428.70495 263.341299 
L 380.390736 190.994887 
" style="fill:none;stroke:#4878cf;stroke-opacity:0.8;"/>
    <path clip-path="url(#pda6023c1bd)" d="M 493.311975 265.162613 
L 497.773055 277.438091 
" style="fill:none;stroke:#4878cf;stroke-opacity:0.8;"/>
    <path clip-path="url(#pda6023c1bd)" d="M 286.977839 237.328877 
L 309.628732 259.676479 
" style="fill:none;stroke:#4878cf;stroke-opacity:0.8;"/>
   </g>
   <g id="matplotlib.axis_1">
    <g id="xtick_1">
     <g id="line2d_1"/>
     <g id="text_1">
      <!-- −4 -->
      <defs>
       <path d="M 10.59375 35.5 
L 73.1875 35.5 
L 73.1875 27.203125 
L 10.59375 27.203125 
z
" id="DejaVuSans-2212"/>
       <path d="M 37.796875 64.3125 
L 12.890625 25.390625 
L 37.796875 25.390625 
z
M 35.203125 72.90625 
L 47.609375 72.90625 
L 47.609375 25.390625 
L 58.015625 25.390625 
L 58.015625 17.1875 
L 47.609375 17.1875 
L 47.609375 0 
L 37.796875 0 
L 37.796875 17.1875 
L 4.890625 17.1875 
L 4.890625 26.703125 
z
" id="DejaVuSans-34"/>
      </defs>
      <g style="fill:#262626;" transform="translate(95.950909 392.598437)scale(0.1 -0.1)">
       <use xlink:href="#DejaVuSans-2212"/>
       <use x="83.789062" xlink:href="#DejaVuSans-34"/>
      </g>
     </g>
    </g>
    <g id="xtick_2">
     <g id="line2d_2"/>
     <g id="text_2">
      <!-- −2 -->
      <defs>
       <path d="M 19.1875 8.296875 
L 53.609375 8.296875 
L 53.609375 0 
L 7.328125 0 
L 7.328125 8.296875 
Q 12.9375 14.109375 22.625 23.890625 
Q 32.328125 33.6875 34.8125 36.53125 
Q 39.546875 41.84375 41.421875 45.53125 
Q 43.3125 49.21875 43.3125 52.78125 
Q 43.3125 58.59375 39.234375 62.25 
Q 35.15625 65.921875 28.609375 65.921875 
Q 23.96875 65.921875 18.8125 64.3125 
Q 13.671875 62.703125 7.8125 59.421875 
L 7.8125 69.390625 
Q 13.765625 71.78125 18.9375 73 
Q 24.125 74.21875 28.421875 74.21875 
Q 39.75 74.21875 46.484375 68.546875 
Q 53.21875 62.890625 53.21875 53.421875 
Q 53.21875 48.921875 51.53125 44.890625 
Q 49.859375 40.875 45.40625 35.40625 
Q 44.1875 33.984375 37.640625 27.21875 
Q 31.109375 20.453125 19.1875 8.296875 
z
" id="DejaVuSans-32"/>
      </defs>
      <g style="fill:#262626;" transform="translate(181.668904 392.598437)scale(0.1 -0.1)">
       <use xlink:href="#DejaVuSans-2212"/>
       <use x="83.789062" xlink:href="#DejaVuSans-32"/>
      </g>
     </g>
    </g>
    <g id="xtick_3">
     <g id="line2d_3"/>
     <g id="text_3">
      <!-- 0 -->
      <defs>
       <path d="M 31.78125 66.40625 
Q 24.171875 66.40625 20.328125 58.90625 
Q 16.5 51.421875 16.5 36.375 
Q 16.5 21.390625 20.328125 13.890625 
Q 24.171875 6.390625 31.78125 6.390625 
Q 39.453125 6.390625 43.28125 13.890625 
Q 47.125 21.390625 47.125 36.375 
Q 47.125 51.421875 43.28125 58.90625 
Q 39.453125 66.40625 31.78125 66.40625 
z
M 31.78125 74.21875 
Q 44.046875 74.21875 50.515625 64.515625 
Q 56.984375 54.828125 56.984375 36.375 
Q 56.984375 17.96875 50.515625 8.265625 
Q 44.046875 -1.421875 31.78125 -1.421875 
Q 19.53125 -1.421875 13.0625 8.265625 
Q 6.59375 17.96875 6.59375 36.375 
Q 6.59375 54.828125 13.0625 64.515625 
Q 19.53125 74.21875 31.78125 74.21875 
z
" id="DejaVuSans-30"/>
      </defs>
      <g style="fill:#262626;" transform="translate(271.576743 392.598437)scale(0.1 -0.1)">
       <use xlink:href="#DejaVuSans-30"/>
      </g>
     </g>
    </g>
    <g id="xtick_4">
     <g id="line2d_4"/>
     <g id="text_4">
      <!-- 2 -->
      <g style="fill:#262626;" transform="translate(357.294738 392.598437)scale(0.1 -0.1)">
       <use xlink:href="#DejaVuSans-32"/>
      </g>
     </g>
    </g>
    <g id="xtick_5">
     <g id="line2d_5"/>
     <g id="text_5">
      <!-- 4 -->
      <g style="fill:#262626;" transform="translate(443.012733 392.598437)scale(0.1 -0.1)">
       <use xlink:href="#DejaVuSans-34"/>
      </g>
     </g>
    </g>
    <g id="text_6">
     <!-- Electrical distance (pu) -->
     <defs>
      <path d="M 9.8125 72.90625 
L 55.90625 72.90625 
L 55.90625 64.59375 
L 19.671875 64.59375 
L 19.671875 43.015625 
L 54.390625 43.015625 
L 54.390625 34.71875 
L 19.671875 34.71875 
L 19.671875 8.296875 
L 56.78125 8.296875 
L 56.78125 0 
L 9.8125 0 
z
" id="DejaVuSans-45"/>
      <path d="M 9.421875 75.984375 
L 18.40625 75.984375 
L 18.40625 0 
L 9.421875 0 
z
" id="DejaVuSans-6c"/>
      <path d="M 56.203125 29.59375 
L 56.203125 25.203125 
L 14.890625 25.203125 
Q 15.484375 15.921875 20.484375 11.0625 
Q 25.484375 6.203125 34.421875 6.203125 
Q 39.59375 6.203125 44.453125 7.46875 
Q 49.3125 8.734375 54.109375 11.28125 
L 54.109375 2.78125 
Q 49.265625 0.734375 44.1875 -0.34375 
Q 39.109375 -1.421875 33.890625 -1.421875 
Q 20.796875 -1.421875 13.15625 6.1875 
Q 5.515625 13.8125 5.515625 26.8125 
Q 5.515625 40.234375 12.765625 48.109375 
Q 20.015625 56 32.328125 56 
Q 43.359375 56 49.78125 48.890625 
Q 56.203125 41.796875 56.203125 29.59375 
z
M 47.21875 32.234375 
Q 47.125 39.59375 43.09375 43.984375 
Q 39.0625 48.390625 32.421875 48.390625 
Q 24.90625 48.390625 20.390625 44.140625 
Q 15.875 39.890625 15.1875 32.171875 
z
" id="DejaVuSans-65"/>
      <path d="M 48.78125 52.59375 
L 48.78125 44.1875 
Q 44.96875 46.296875 41.140625 47.34375 
Q 37.3125 48.390625 33.40625 48.390625 
Q 24.65625 48.390625 19.8125 42.84375 
Q 14.984375 37.3125 14.984375 27.296875 
Q 14.984375 17.28125 19.8125 11.734375 
Q 24.65625 6.203125 33.40625 6.203125 
Q 37.3125 6.203125 41.140625 7.25 
Q 44.96875 8.296875 48.78125 10.40625 
L 48.78125 2.09375 
Q 45.015625 0.34375 40.984375 -0.53125 
Q 36.96875 -1.421875 32.421875 -1.421875 
Q 20.0625 -1.421875 12.78125 6.34375 
Q 5.515625 14.109375 5.515625 27.296875 
Q 5.515625 40.671875 12.859375 48.328125 
Q 20.21875 56 33.015625 56 
Q 37.15625 56 41.109375 55.140625 
Q 45.0625 54.296875 48.78125 52.59375 
z
" id="DejaVuSans-63"/>
      <path d="M 18.3125 70.21875 
L 18.3125 54.6875 
L 36.8125 54.6875 
L 36.8125 47.703125 
L 18.3125 47.703125 
L 18.3125 18.015625 
Q 18.3125 11.328125 20.140625 9.421875 
Q 21.96875 7.515625 27.59375 7.515625 
L 36.8125 7.515625 
L 36.8125 0 
L 27.59375 0 
Q 17.1875 0 13.234375 3.875 
Q 9.28125 7.765625 9.28125 18.015625 
L 9.28125 47.703125 
L 2.6875 47.703125 
L 2.6875 54.6875 
L 9.28125 54.6875 
L 9.28125 70.21875 
z
" id="DejaVuSans-74"/>
      <path d="M 41.109375 46.296875 
Q 39.59375 47.171875 37.8125 47.578125 
Q 36.03125 48 33.890625 48 
Q 26.265625 48 22.1875 43.046875 
Q 18.109375 38.09375 18.109375 28.8125 
L 18.109375 0 
L 9.078125 0 
L 9.078125 54.6875 
L 18.109375 54.6875 
L 18.109375 46.1875 
Q 20.953125 51.171875 25.484375 53.578125 
Q 30.03125 56 36.53125 56 
Q 37.453125 56 38.578125 55.875 
Q 39.703125 55.765625 41.0625 55.515625 
z
" id="DejaVuSans-72"/>
      <path d="M 9.421875 54.6875 
L 18.40625 54.6875 
L 18.40625 0 
L 9.421875 0 
z
M 9.421875 75.984375 
L 18.40625 75.984375 
L 18.40625 64.59375 
L 9.421875 64.59375 
z
" id="DejaVuSans-69"/>
      <path d="M 34.28125 27.484375 
Q 23.390625 27.484375 19.1875 25 
Q 14.984375 22.515625 14.984375 16.5 
Q 14.984375 11.71875 18.140625 8.90625 
Q 21.296875 6.109375 26.703125 6.109375 
Q 34.1875 6.109375 38.703125 11.40625 
Q 43.21875 16.703125 43.21875 25.484375 
L 43.21875 27.484375 
z
M 52.203125 31.203125 
L 52.203125 0 
L 43.21875 0 
L 43.21875 8.296875 
Q 40.140625 3.328125 35.546875 0.953125 
Q 30.953125 -1.421875 24.3125 -1.421875 
Q 15.921875 -1.421875 10.953125 3.296875 
Q 6 8.015625 6 15.921875 
Q 6 25.140625 12.171875 29.828125 
Q 18.359375 34.515625 30.609375 34.515625 
L 43.21875 34.515625 
L 43.21875 35.40625 
Q 43.21875 41.609375 39.140625 45 
Q 35.0625 48.390625 27.6875 48.390625 
Q 23 48.390625 18.546875 47.265625 
Q 14.109375 46.140625 10.015625 43.890625 
L 10.015625 52.203125 
Q 14.9375 54.109375 19.578125 55.046875 
Q 24.21875 56 28.609375 56 
Q 40.484375 56 46.34375 49.84375 
Q 52.203125 43.703125 52.203125 31.203125 
z
" id="DejaVuSans-61"/>
      <path id="DejaVuSans-20"/>
      <path d="M 45.40625 46.390625 
L 45.40625 75.984375 
L 54.390625 75.984375 
L 54.390625 0 
L 45.40625 0 
L 45.40625 8.203125 
Q 42.578125 3.328125 38.25 0.953125 
Q 33.9375 -1.421875 27.875 -1.421875 
Q 17.96875 -1.421875 11.734375 6.484375 
Q 5.515625 14.40625 5.515625 27.296875 
Q 5.515625 40.1875 11.734375 48.09375 
Q 17.96875 56 27.875 56 
Q 33.9375 56 38.25 53.625 
Q 42.578125 51.265625 45.40625 46.390625 
z
M 14.796875 27.296875 
Q 14.796875 17.390625 18.875 11.75 
Q 22.953125 6.109375 30.078125 6.109375 
Q 37.203125 6.109375 41.296875 11.75 
Q 45.40625 17.390625 45.40625 27.296875 
Q 45.40625 37.203125 41.296875 42.84375 
Q 37.203125 48.484375 30.078125 48.484375 
Q 22.953125 48.484375 18.875 42.84375 
Q 14.796875 37.203125 14.796875 27.296875 
z
" id="DejaVuSans-64"/>
      <path d="M 44.28125 53.078125 
L 44.28125 44.578125 
Q 40.484375 46.53125 36.375 47.5 
Q 32.28125 48.484375 27.875 48.484375 
Q 21.1875 48.484375 17.84375 46.4375 
Q 14.5 44.390625 14.5 40.28125 
Q 14.5 37.15625 16.890625 35.375 
Q 19.28125 33.59375 26.515625 31.984375 
L 29.59375 31.296875 
Q 39.15625 29.25 43.1875 25.515625 
Q 47.21875 21.78125 47.21875 15.09375 
Q 47.21875 7.46875 41.1875 3.015625 
Q 35.15625 -1.421875 24.609375 -1.421875 
Q 20.21875 -1.421875 15.453125 -0.5625 
Q 10.6875 0.296875 5.421875 2 
L 5.421875 11.28125 
Q 10.40625 8.6875 15.234375 7.390625 
Q 20.0625 6.109375 24.8125 6.109375 
Q 31.15625 6.109375 34.5625 8.28125 
Q 37.984375 10.453125 37.984375 14.40625 
Q 37.984375 18.0625 35.515625 20.015625 
Q 33.0625 21.96875 24.703125 23.78125 
L 21.578125 24.515625 
Q 13.234375 26.265625 9.515625 29.90625 
Q 5.8125 33.546875 5.8125 39.890625 
Q 5.8125 47.609375 11.28125 51.796875 
Q 16.75 56 26.8125 56 
Q 31.78125 56 36.171875 55.265625 
Q 40.578125 54.546875 44.28125 53.078125 
z
" id="DejaVuSans-73"/>
      <path d="M 54.890625 33.015625 
L 54.890625 0 
L 45.90625 0 
L 45.90625 32.71875 
Q 45.90625 40.484375 42.875 44.328125 
Q 39.84375 48.1875 33.796875 48.1875 
Q 26.515625 48.1875 22.3125 43.546875 
Q 18.109375 38.921875 18.109375 30.90625 
L 18.109375 0 
L 9.078125 0 
L 9.078125 54.6875 
L 18.109375 54.6875 
L 18.109375 46.1875 
Q 21.34375 51.125 25.703125 53.5625 
Q 30.078125 56 35.796875 56 
Q 45.21875 56 50.046875 50.171875 
Q 54.890625 44.34375 54.890625 33.015625 
z
" id="DejaVuSans-6e"/>
      <path d="M 31 75.875 
Q 24.46875 64.65625 21.28125 53.65625 
Q 18.109375 42.671875 18.109375 31.390625 
Q 18.109375 20.125 21.3125 9.0625 
Q 24.515625 -2 31 -13.1875 
L 23.1875 -13.1875 
Q 15.875 -1.703125 12.234375 9.375 
Q 8.59375 20.453125 8.59375 31.390625 
Q 8.59375 42.28125 12.203125 53.3125 
Q 15.828125 64.359375 23.1875 75.875 
z
" id="DejaVuSans-28"/>
      <path d="M 18.109375 8.203125 
L 18.109375 -20.796875 
L 9.078125 -20.796875 
L 9.078125 54.6875 
L 18.109375 54.6875 
L 18.109375 46.390625 
Q 20.953125 51.265625 25.265625 53.625 
Q 29.59375 56 35.59375 56 
Q 45.5625 56 51.78125 48.09375 
Q 58.015625 40.1875 58.015625 27.296875 
Q 58.015625 14.40625 51.78125 6.484375 
Q 45.5625 -1.421875 35.59375 -1.421875 
Q 29.59375 -1.421875 25.265625 0.953125 
Q 20.953125 3.328125 18.109375 8.203125 
z
M 48.6875 27.296875 
Q 48.6875 37.203125 44.609375 42.84375 
Q 40.53125 48.484375 33.40625 48.484375 
Q 26.265625 48.484375 22.1875 42.84375 
Q 18.109375 37.203125 18.109375 27.296875 
Q 18.109375 17.390625 22.1875 11.75 
Q 26.265625 6.109375 33.40625 6.109375 
Q 40.53125 6.109375 44.609375 11.75 
Q 48.6875 17.390625 48.6875 27.296875 
z
" id="DejaVuSans-70"/>
      <path d="M 8.5 21.578125 
L 8.5 54.6875 
L 17.484375 54.6875 
L 17.484375 21.921875 
Q 17.484375 14.15625 20.5 10.265625 
Q 23.53125 6.390625 29.59375 6.390625 
Q 36.859375 6.390625 41.078125 11.03125 
Q 45.3125 15.671875 45.3125 23.6875 
L 45.3125 54.6875 
L 54.296875 54.6875 
L 54.296875 0 
L 45.3125 0 
L 45.3125 8.40625 
Q 42.046875 3.421875 37.71875 1 
Q 33.40625 -1.421875 27.6875 -1.421875 
Q 18.265625 -1.421875 13.375 4.4375 
Q 8.5 10.296875 8.5 21.578125 
z
M 31.109375 56 
z
" id="DejaVuSans-75"/>
      <path d="M 8.015625 75.875 
L 15.828125 75.875 
Q 23.140625 64.359375 26.78125 53.3125 
Q 30.421875 42.28125 30.421875 31.390625 
Q 30.421875 20.453125 26.78125 9.375 
Q 23.140625 -1.703125 15.828125 -13.1875 
L 8.015625 -13.1875 
Q 14.5 -2 17.703125 9.0625 
Q 20.90625 20.125 20.90625 31.390625 
Q 20.90625 42.671875 17.703125 53.65625 
Q 14.5 64.65625 8.015625 75.875 
z
" id="DejaVuSans-29"/>
     </defs>
     <g style="fill:#262626;" transform="translate(231.850312 407.036406)scale(0.11 -0.11)">
      <use xlink:href="#DejaVuSans-45"/>
      <use x="63.183594" xlink:href="#DejaVuSans-6c"/>
      <use x="90.966797" xlink:href="#DejaVuSans-65"/>
      <use x="152.490234" xlink:href="#DejaVuSans-63"/>
      <use x="207.470703" xlink:href="#DejaVuSans-74"/>
      <use x="246.679688" xlink:href="#DejaVuSans-72"/>
      <use x="287.792969" xlink:href="#DejaVuSans-69"/>
      <use x="315.576172" xlink:href="#DejaVuSans-63"/>
      <use x="370.556641" xlink:href="#DejaVuSans-61"/>
      <use x="431.835938" xlink:href="#DejaVuSans-6c"/>
      <use x="459.619141" xlink:href="#DejaVuSans-20"/>
      <use x="491.40625" xlink:href="#DejaVuSans-64"/>
      <use x="554.882812" xlink:href="#DejaVuSans-69"/>
      <use x="582.666016" xlink:href="#DejaVuSans-73"/>
      <use x="634.765625" xlink:href="#DejaVuSans-74"/>
      <use x="673.974609" xlink:href="#DejaVuSans-61"/>
      <use x="735.253906" xlink:href="#DejaVuSans-6e"/>
      <use x="798.632812" xlink:href="#DejaVuSans-63"/>
      <use x="853.613281" xlink:href="#DejaVuSans-65"/>
      <use x="915.136719" xlink:href="#DejaVuSans-20"/>
      <use x="946.923828" xlink:href="#DejaVuSans-28"/>
      <use x="985.9375" xlink:href="#DejaVuSans-70"/>
      <use x="1049.414062" xlink:href="#DejaVuSans-75"/>
      <use x="1112.792969" xlink:href="#DejaVuSans-29"/>
     </g>
    </g>
   </g>
   <g id="matplotlib.axis_2">
    <g id="ytick_1">
     <g id="line2d_6"/>
     <g id="text_7">
      <!-- −4 -->
      <g style="fill:#262626;" transform="translate(50.257812 365.79475)scale(0.1 -0.1)">
       <use xlink:href="#DejaVuSans-2212"/>
       <use x="83.789062" xlink:href="#DejaVuSans-34"/>
      </g>
     </g>
    </g>
    <g id="ytick_2">
     <g id="line2d_7"/>
     <g id="text_8">
      <!-- −2 -->
      <g style="fill:#262626;" transform="translate(50.257812 296.848357)scale(0.1 -0.1)">
       <use xlink:href="#DejaVuSans-2212"/>
       <use x="83.789062" xlink:href="#DejaVuSans-32"/>
      </g>
     </g>
    </g>
    <g id="ytick_3">
     <g id="line2d_8"/>
     <g id="text_9">
      <!-- 0 -->
      <g style="fill:#262626;" transform="translate(58.6375 227.901965)scale(0.1 -0.1)">
       <use xlink:href="#DejaVuSans-30"/>
      </g>
     </g>
    </g>
    <g id="ytick_4">
     <g id="line2d_9"/>
     <g id="text_10">
      <!-- 2 -->
      <g style="fill:#262626;" transform="translate(58.6375 158.955572)scale(0.1 -0.1)">
       <use xlink:href="#DejaVuSans-32"/>
      </g>
     </g>
    </g>
    <g id="ytick_5">
     <g id="line2d_10"/>
     <g id="text_11">
      <!-- 4 -->
      <g style="fill:#262626;" transform="translate(58.6375 90.009179)scale(0.1 -0.1)">
       <use xlink:href="#DejaVuSans-34"/>
      </g>
     </g>
    </g>
    <g id="text_12">
     <!-- Electrical distance (pu) -->
     <g style="fill:#262626;" transform="translate(43.970156 278.269687)rotate(-90)scale(0.11 -0.11)">
      <use xlink:href="#DejaVuSans-45"/>
      <use x="63.183594" xlink:href="#DejaVuSans-6c"/>
      <use x="90.966797" xlink:href="#DejaVuSans-65"/>
      <use x="152.490234" xlink:href="#DejaVuSans-63"/>
      <use x="207.470703" xlink:href="#DejaVuSans-74"/>
      <use x="246.679688" xlink:href="#DejaVuSans-72"/>
      <use x="287.792969" xlink:href="#DejaVuSans-69"/>
      <use x="315.576172" xlink:href="#DejaVuSans-63"/>
      <use x="370.556641" xlink:href="#DejaVuSans-61"/>
      <use x="431.835938" xlink:href="#DejaVuSans-6c"/>
      <use x="459.619141" xlink:href="#DejaVuSans-20"/>
      <use x="491.40625" xlink:href="#DejaVuSans-64"/>
      <use x="554.882812" xlink:href="#DejaVuSans-69"/>
      <use x="582.666016" xlink:href="#DejaVuSans-73"/>
      <use x="634.765625" xlink:href="#DejaVuSans-74"/>
      <use x="673.974609" xlink:href="#DejaVuSans-61"/>
      <use x="735.253906" xlink:href="#DejaVuSans-6e"/>
      <use x="798.632812" xlink:href="#DejaVuSans-63"/>
      <use x="853.613281" xlink:href="#DejaVuSans-65"/>
      <use x="915.136719" xlink:href="#DejaVuSans-20"/>
      <use x="946.923828" xlink:href="#DejaVuSans-28"/>
      <use x="985.9375" xlink:href="#DejaVuSans-70"/>
      <use x="1049.414062" xlink:href="#DejaVuSans-75"/>
      <use x="1112.792969" xlink:href="#DejaVuSans-29"/>
     </g>
    </g>
   </g>
   <g id="PathCollection_1">
    <defs>
     <path d="M 0 3.5 
C 0.928211 3.5 1.81853 3.131218 2.474874 2.474874 
C 3.131218 1.81853 3.5 0.928211 3.5 0 
C 3.5 -0.928211 3.131218 -1.81853 2.474874 -2.474874 
C 1.81853 -3.131218 0.928211 -3.5 0 -3.5 
C -0.928211 -3.5 -1.81853 -3.131218 -2.474874 -2.474874 
C -3.131218 -1.81853 -3.5 -0.928211 -3.5 0 
C -3.5 0.928211 -3.131218 1.81853 -2.474874 2.474874 
C -1.81853 3.131218 -0.928211 3.5 0 3.5 
z
" id="m89af6e5ca0" style="stroke:#ffffff;stroke-width:0.3;"/>
    </defs>
    <g clip-path="url(#pda6023c1bd)">
     <use style="fill:#d3d3d3;stroke:#ffffff;stroke-width:0.3;" x="304.80903" xlink:href="#m89af6e5ca0" y="67.035384"/>
     <use style="fill:#d3d3d3;stroke:#ffffff;stroke-width:0.3;" x="314.625333" xlink:href="#m89af6e5ca0" y="100.009134"/>
     <use style="fill:#d3d3d3;stroke:#ffffff;stroke-width:0.3;" x="271.699518" xlink:href="#m89af6e5ca0" y="96.880064"/>
     <use style="fill:#d3d3d3;stroke:#ffffff;stroke-width:0.3;" x="279.056339" xlink:href="#m89af6e5ca0" y="145.856848"/>
     <use style="fill:#d3d3d3;stroke:#ffffff;stroke-width:0.3;" x="368.614826" xlink:href="#m89af6e5ca0" y="95.210613"/>
     <use style="fill:#d3d3d3;stroke:#ffffff;stroke-width:0.3;" x="318.022095" xlink:href="#m89af6e5ca0" y="178.670585"/>
     <use style="fill:#d3d3d3;stroke:#ffffff;stroke-width:0.3;" x="358.110698" xlink:href="#m89af6e5ca0" y="132.904299"/>
     <use style="fill:#d3d3d3;stroke:#ffffff;stroke-width:0.3;" x="360.899501" xlink:href="#m89af6e5ca0" y="169.341561"/>
     <use style="fill:#d3d3d3;stroke:#ffffff;stroke-width:0.3;" x="286.977839" xlink:href="#m89af6e5ca0" y="237.328877"/>
     <use style="fill:#d3d3d3;stroke:#ffffff;stroke-width:0.3;" x="246.580069" xlink:href="#m89af6e5ca0" y="267.12742"/>
     <use style="fill:#d3d3d3;stroke:#ffffff;stroke-width:0.3;" x="309.628732" xlink:href="#m89af6e5ca0" y="259.676479"/>
     <use style="fill:#d3d3d3;stroke:#ffffff;stroke-width:0.3;" x="167.862938" xlink:href="#m89af6e5ca0" y="160.379621"/>
     <use style="fill:#d3d3d3;stroke:#ffffff;stroke-width:0.3;" x="126.079546" xlink:href="#m89af6e5ca0" y="127.474616"/>
     <use style="fill:#d3d3d3;stroke:#ffffff;stroke-width:0.3;" x="108.894332" xlink:href="#m89af6e5ca0" y="166.664579"/>
     <use style="fill:#d3d3d3;stroke:#ffffff;stroke-width:0.3;" x="115.11454" xlink:href="#m89af6e5ca0" y="207.999878"/>
     <use style="fill:#d3d3d3;stroke:#ffffff;stroke-width:0.3;" x="176.522628" xlink:href="#m89af6e5ca0" y="196.621841"/>
     <use style="fill:#d3d3d3;stroke:#ffffff;stroke-width:0.3;" x="212.623745" xlink:href="#m89af6e5ca0" y="255.036334"/>
     <use style="fill:#d3d3d3;stroke:#ffffff;stroke-width:0.3;" x="92.626945" xlink:href="#m89af6e5ca0" y="251.996439"/>
     <use style="fill:#d3d3d3;stroke:#ffffff;stroke-width:0.3;" x="114.309951" xlink:href="#m89af6e5ca0" y="282.592431"/>
     <use style="fill:#d3d3d3;stroke:#ffffff;stroke-width:0.3;" x="153.416863" xlink:href="#m89af6e5ca0" y="285.268374"/>
     <use style="fill:#d3d3d3;stroke:#ffffff;stroke-width:0.3;" x="242.123889" xlink:href="#m89af6e5ca0" y="327.820218"/>
     <use style="fill:#d3d3d3;stroke:#ffffff;stroke-width:0.3;" x="252.958556" xlink:href="#m89af6e5ca0" y="337.094028"/>
     <use style="fill:#d3d3d3;stroke:#ffffff;stroke-width:0.3;" x="159.22351" xlink:href="#m89af6e5ca0" y="336.170613"/>
     <use style="fill:#d3d3d3;stroke:#ffffff;stroke-width:0.3;" x="291.728994" xlink:href="#m89af6e5ca0" y="353.587936"/>
     <use style="fill:#d3d3d3;stroke:#ffffff;stroke-width:0.3;" x="392.870372" xlink:href="#m89af6e5ca0" y="324.592699"/>
     <use style="fill:#d3d3d3;stroke:#ffffff;stroke-width:0.3;" x="417.178274" xlink:href="#m89af6e5ca0" y="362.804616"/>
     <use style="fill:#d3d3d3;stroke:#ffffff;stroke-width:0.3;" x="428.70495" xlink:href="#m89af6e5ca0" y="263.341299"/>
     <use style="fill:#d3d3d3;stroke:#ffffff;stroke-width:0.3;" x="380.390736" xlink:href="#m89af6e5ca0" y="190.994887"/>
     <use style="fill:#d3d3d3;stroke:#ffffff;stroke-width:0.3;" x="493.311975" xlink:href="#m89af6e5ca0" y="265.162613"/>
     <use style="fill:#d3d3d3;stroke:#ffffff;stroke-width:0.3;" x="497.773055" xlink:href="#m89af6e5ca0" y="277.438091"/>
    </g>
   </g>
   <g id="text_13">
    <!-- 01 -->
    <defs>
     <path d="M 12.40625 8.296875 
L 28.515625 8.296875 
L 28.515625 63.921875 
L 10.984375 60.40625 
L 10.984375 69.390625 
L 28.421875 72.90625 
L 38.28125 72.90625 
L 38.28125 8.296875 
L 54.390625 8.296875 
L 54.390625 0 
L 12.40625 0 
z
" id="DejaVuSans-31"/>
    </defs>
    <g style="fill:#262626;" transform="translate(299.08278 61.864405)scale(0.09 -0.09)">
     <use xlink:href="#DejaVuSans-30"/>
     <use x="63.623047" xlink:href="#DejaVuSans-31"/>
    </g>
   </g>
   <g id="text_14">
    <!-- 02 -->
    <g style="fill:#262626;" transform="translate(308.899083 94.838155)scale(0.09 -0.09)">
     <use xlink:href="#DejaVuSans-30"/>
     <use x="63.623047" xlink:href="#DejaVuSans-32"/>
    </g>
   </g>
   <g id="text_15">
    <!-- 03 -->
    <defs>
     <path d="M 40.578125 39.3125 
Q 47.65625 37.796875 51.625 33 
Q 55.609375 28.21875 55.609375 21.1875 
Q 55.609375 10.40625 48.1875 4.484375 
Q 40.765625 -1.421875 27.09375 -1.421875 
Q 22.515625 -1.421875 17.65625 -0.515625 
Q 12.796875 0.390625 7.625 2.203125 
L 7.625 11.71875 
Q 11.71875 9.328125 16.59375 8.109375 
Q 21.484375 6.890625 26.8125 6.890625 
Q 36.078125 6.890625 40.9375 10.546875 
Q 45.796875 14.203125 45.796875 21.1875 
Q 45.796875 27.640625 41.28125 31.265625 
Q 36.765625 34.90625 28.71875 34.90625 
L 20.21875 34.90625 
L 20.21875 43.015625 
L 29.109375 43.015625 
Q 36.375 43.015625 40.234375 45.921875 
Q 44.09375 48.828125 44.09375 54.296875 
Q 44.09375 59.90625 40.109375 62.90625 
Q 36.140625 65.921875 28.71875 65.921875 
Q 24.65625 65.921875 20.015625 65.03125 
Q 15.375 64.15625 9.8125 62.3125 
L 9.8125 71.09375 
Q 15.4375 72.65625 20.34375 73.4375 
Q 25.25 74.21875 29.59375 74.21875 
Q 40.828125 74.21875 47.359375 69.109375 
Q 53.90625 64.015625 53.90625 55.328125 
Q 53.90625 49.265625 50.4375 45.09375 
Q 46.96875 40.921875 40.578125 39.3125 
z
" id="DejaVuSans-33"/>
    </defs>
    <g style="fill:#262626;" transform="translate(265.973268 91.709085)scale(0.09 -0.09)">
     <use xlink:href="#DejaVuSans-30"/>
     <use x="63.623047" xlink:href="#DejaVuSans-33"/>
    </g>
   </g>
   <g id="text_16">
    <!-- 04 -->
    <g style="fill:#262626;" transform="translate(273.330089 140.685869)scale(0.09 -0.09)">
     <use xlink:href="#DejaVuSans-30"/>
     <use x="63.623047" xlink:href="#DejaVuSans-34"/>
    </g>
   </g>
   <g id="text_17">
    <!-- 05 -->
    <defs>
     <path d="M 10.796875 72.90625 
L 49.515625 72.90625 
L 49.515625 64.59375 
L 19.828125 64.59375 
L 19.828125 46.734375 
Q 21.96875 47.46875 24.109375 47.828125 
Q 26.265625 48.1875 28.421875 48.1875 
Q 40.625 48.1875 47.75 41.5 
Q 54.890625 34.8125 54.890625 23.390625 
Q 54.890625 11.625 47.5625 5.09375 
Q 40.234375 -1.421875 26.90625 -1.421875 
Q 22.3125 -1.421875 17.546875 -0.640625 
Q 12.796875 0.140625 7.71875 1.703125 
L 7.71875 11.625 
Q 12.109375 9.234375 16.796875 8.0625 
Q 21.484375 6.890625 26.703125 6.890625 
Q 35.15625 6.890625 40.078125 11.328125 
Q 45.015625 15.765625 45.015625 23.390625 
Q 45.015625 31 40.078125 35.4375 
Q 35.15625 39.890625 26.703125 39.890625 
Q 22.75 39.890625 18.8125 39.015625 
Q 14.890625 38.140625 10.796875 36.28125 
z
" id="DejaVuSans-35"/>
    </defs>
    <g style="fill:#262626;" transform="translate(362.888576 90.039633)scale(0.09 -0.09)">
     <use xlink:href="#DejaVuSans-30"/>
     <use x="63.623047" xlink:href="#DejaVuSans-35"/>
    </g>
   </g>
   <g id="text_18">
    <!-- 06 -->
    <defs>
     <path d="M 33.015625 40.375 
Q 26.375 40.375 22.484375 35.828125 
Q 18.609375 31.296875 18.609375 23.390625 
Q 18.609375 15.53125 22.484375 10.953125 
Q 26.375 6.390625 33.015625 6.390625 
Q 39.65625 6.390625 43.53125 10.953125 
Q 47.40625 15.53125 47.40625 23.390625 
Q 47.40625 31.296875 43.53125 35.828125 
Q 39.65625 40.375 33.015625 40.375 
z
M 52.59375 71.296875 
L 52.59375 62.3125 
Q 48.875 64.0625 45.09375 64.984375 
Q 41.3125 65.921875 37.59375 65.921875 
Q 27.828125 65.921875 22.671875 59.328125 
Q 17.53125 52.734375 16.796875 39.40625 
Q 19.671875 43.65625 24.015625 45.921875 
Q 28.375 48.1875 33.59375 48.1875 
Q 44.578125 48.1875 50.953125 41.515625 
Q 57.328125 34.859375 57.328125 23.390625 
Q 57.328125 12.15625 50.6875 5.359375 
Q 44.046875 -1.421875 33.015625 -1.421875 
Q 20.359375 -1.421875 13.671875 8.265625 
Q 6.984375 17.96875 6.984375 36.375 
Q 6.984375 53.65625 15.1875 63.9375 
Q 23.390625 74.21875 37.203125 74.21875 
Q 40.921875 74.21875 44.703125 73.484375 
Q 48.484375 72.75 52.59375 71.296875 
z
" id="DejaVuSans-36"/>
    </defs>
    <g style="fill:#262626;" transform="translate(312.295845 173.499606)scale(0.09 -0.09)">
     <use xlink:href="#DejaVuSans-30"/>
     <use x="63.623047" xlink:href="#DejaVuSans-36"/>
    </g>
   </g>
   <g id="text_19">
    <!-- 07 -->
    <defs>
     <path d="M 8.203125 72.90625 
L 55.078125 72.90625 
L 55.078125 68.703125 
L 28.609375 0 
L 18.3125 0 
L 43.21875 64.59375 
L 8.203125 64.59375 
z
" id="DejaVuSans-37"/>
    </defs>
    <g style="fill:#262626;" transform="translate(352.384448 127.73332)scale(0.09 -0.09)">
     <use xlink:href="#DejaVuSans-30"/>
     <use x="63.623047" xlink:href="#DejaVuSans-37"/>
    </g>
   </g>
   <g id="text_20">
    <!-- 08 -->
    <defs>
     <path d="M 31.78125 34.625 
Q 24.75 34.625 20.71875 30.859375 
Q 16.703125 27.09375 16.703125 20.515625 
Q 16.703125 13.921875 20.71875 10.15625 
Q 24.75 6.390625 31.78125 6.390625 
Q 38.8125 6.390625 42.859375 10.171875 
Q 46.921875 13.96875 46.921875 20.515625 
Q 46.921875 27.09375 42.890625 30.859375 
Q 38.875 34.625 31.78125 34.625 
z
M 21.921875 38.8125 
Q 15.578125 40.375 12.03125 44.71875 
Q 8.5 49.078125 8.5 55.328125 
Q 8.5 64.0625 14.71875 69.140625 
Q 20.953125 74.21875 31.78125 74.21875 
Q 42.671875 74.21875 48.875 69.140625 
Q 55.078125 64.0625 55.078125 55.328125 
Q 55.078125 49.078125 51.53125 44.71875 
Q 48 40.375 41.703125 38.8125 
Q 48.828125 37.15625 52.796875 32.3125 
Q 56.78125 27.484375 56.78125 20.515625 
Q 56.78125 9.90625 50.3125 4.234375 
Q 43.84375 -1.421875 31.78125 -1.421875 
Q 19.734375 -1.421875 13.25 4.234375 
Q 6.78125 9.90625 6.78125 20.515625 
Q 6.78125 27.484375 10.78125 32.3125 
Q 14.796875 37.15625 21.921875 38.8125 
z
M 18.3125 54.390625 
Q 18.3125 48.734375 21.84375 45.5625 
Q 25.390625 42.390625 31.78125 42.390625 
Q 38.140625 42.390625 41.71875 45.5625 
Q 45.3125 48.734375 45.3125 54.390625 
Q 45.3125 60.0625 41.71875 63.234375 
Q 38.140625 66.40625 31.78125 66.40625 
Q 25.390625 66.40625 21.84375 63.234375 
Q 18.3125 60.0625 18.3125 54.390625 
z
" id="DejaVuSans-38"/>
    </defs>
    <g style="fill:#262626;" transform="translate(355.173251 164.170581)scale(0.09 -0.09)">
     <use xlink:href="#DejaVuSans-30"/>
     <use x="63.623047" xlink:href="#DejaVuSans-38"/>
    </g>
   </g>
   <g id="text_21">
    <!-- 09 -->
    <defs>
     <path d="M 10.984375 1.515625 
L 10.984375 10.5 
Q 14.703125 8.734375 18.5 7.8125 
Q 22.3125 6.890625 25.984375 6.890625 
Q 35.75 6.890625 40.890625 13.453125 
Q 46.046875 20.015625 46.78125 33.40625 
Q 43.953125 29.203125 39.59375 26.953125 
Q 35.25 24.703125 29.984375 24.703125 
Q 19.046875 24.703125 12.671875 31.3125 
Q 6.296875 37.9375 6.296875 49.421875 
Q 6.296875 60.640625 12.9375 67.421875 
Q 19.578125 74.21875 30.609375 74.21875 
Q 43.265625 74.21875 49.921875 64.515625 
Q 56.59375 54.828125 56.59375 36.375 
Q 56.59375 19.140625 48.40625 8.859375 
Q 40.234375 -1.421875 26.421875 -1.421875 
Q 22.703125 -1.421875 18.890625 -0.6875 
Q 15.09375 0.046875 10.984375 1.515625 
z
M 30.609375 32.421875 
Q 37.25 32.421875 41.125 36.953125 
Q 45.015625 41.5 45.015625 49.421875 
Q 45.015625 57.28125 41.125 61.84375 
Q 37.25 66.40625 30.609375 66.40625 
Q 23.96875 66.40625 20.09375 61.84375 
Q 16.21875 57.28125 16.21875 49.421875 
Q 16.21875 41.5 20.09375 36.953125 
Q 23.96875 32.421875 30.609375 32.421875 
z
" id="DejaVuSans-39"/>
    </defs>
    <g style="fill:#262626;" transform="translate(281.251589 232.157898)scale(0.09 -0.09)">
     <use xlink:href="#DejaVuSans-30"/>
     <use x="63.623047" xlink:href="#DejaVuSans-39"/>
    </g>
   </g>
   <g id="text_22">
    <!-- 10 -->
    <g style="fill:#262626;" transform="translate(240.853819 261.956441)scale(0.09 -0.09)">
     <use xlink:href="#DejaVuSans-31"/>
     <use x="63.623047" xlink:href="#DejaVuSans-30"/>
    </g>
   </g>
   <g id="text_23">
    <!-- 11 -->
    <g style="fill:#262626;" transform="translate(303.902482 254.5055)scale(0.09 -0.09)">
     <use xlink:href="#DejaVuSans-31"/>
     <use x="63.623047" xlink:href="#DejaVuSans-31"/>
    </g>
   </g>
   <g id="text_24">
    <!-- 12 -->
    <g style="fill:#262626;" transform="translate(162.136688 155.208642)scale(0.09 -0.09)">
     <use xlink:href="#DejaVuSans-31"/>
     <use x="63.623047" xlink:href="#DejaVuSans-32"/>
    </g>
   </g>
   <g id="text_25">
    <!-- 13 -->
    <g style="fill:#262626;" transform="translate(120.353296 122.303636)scale(0.09 -0.09)">
     <use xlink:href="#DejaVuSans-31"/>
     <use x="63.623047" xlink:href="#DejaVuSans-33"/>
    </g>
   </g>
   <g id="text_26">
    <!-- 14 -->
    <g style="fill:#262626;" transform="translate(103.168082 161.493599)scale(0.09 -0.09)">
     <use xlink:href="#DejaVuSans-31"/>
     <use x="63.623047" xlink:href="#DejaVuSans-34"/>
    </g>
   </g>
   <g id="text_27">
    <!-- 15 -->
    <g style="fill:#262626;" transform="translate(109.38829 202.828899)scale(0.09 -0.09)">
     <use xlink:href="#DejaVuSans-31"/>
     <use x="63.623047" xlink:href="#DejaVuSans-35"/>
    </g>
   </g>
   <g id="text_28">
    <!-- 16 -->
    <g style="fill:#262626;" transform="translate(170.796378 191.450861)scale(0.09 -0.09)">
     <use xlink:href="#DejaVuSans-31"/>
     <use x="63.623047" xlink:href="#DejaVuSans-36"/>
    </g>
   </g>
   <g id="text_29">
    <!-- 17 -->
    <g style="fill:#262626;" transform="translate(206.897495 249.865355)scale(0.09 -0.09)">
     <use xlink:href="#DejaVuSans-31"/>
     <use x="63.623047" xlink:href="#DejaVuSans-37"/>
    </g>
   </g>
   <g id="text_30">
    <!-- 18 -->
    <g style="fill:#262626;" transform="translate(86.900695 246.825459)scale(0.09 -0.09)">
     <use xlink:href="#DejaVuSans-31"/>
     <use x="63.623047" xlink:href="#DejaVuSans-38"/>
    </g>
   </g>
   <g id="text_31">
    <!-- 19 -->
    <g style="fill:#262626;" transform="translate(108.583701 277.421452)scale(0.09 -0.09)">
     <use xlink:href="#DejaVuSans-31"/>
     <use x="63.623047" xlink:href="#DejaVuSans-39"/>
    </g>
   </g>
   <g id="text_32">
    <!-- 20 -->
    <g style="fill:#262626;" transform="translate(147.690613 280.097395)scale(0.09 -0.09)">
     <use xlink:href="#DejaVuSans-32"/>
     <use x="63.623047" xlink:href="#DejaVuSans-30"/>
    </g>
   </g>
   <g id="text_33">
    <!-- 21 -->
    <g style="fill:#262626;" transform="translate(236.397639 322.649239)scale(0.09 -0.09)">
     <use xlink:href="#DejaVuSans-32"/>
     <use x="63.623047" xlink:href="#DejaVuSans-31"/>
    </g>
   </g>
   <g id="text_34">
    <!-- 22 -->
    <g style="fill:#262626;" transform="translate(247.232306 331.923049)scale(0.09 -0.09)">
     <use xlink:href="#DejaVuSans-32"/>
     <use x="63.623047" xlink:href="#DejaVuSans-32"/>
    </g>
   </g>
   <g id="text_35">
    <!-- 23 -->
    <g style="fill:#262626;" transform="translate(153.49726 330.999633)scale(0.09 -0.09)">
     <use xlink:href="#DejaVuSans-32"/>
     <use x="63.623047" xlink:href="#DejaVuSans-33"/>
    </g>
   </g>
   <g id="text_36">
    <!-- 24 -->
    <g style="fill:#262626;" transform="translate(286.002744 348.416956)scale(0.09 -0.09)">
     <use xlink:href="#DejaVuSans-32"/>
     <use x="63.623047" xlink:href="#DejaVuSans-34"/>
    </g>
   </g>
   <g id="text_37">
    <!-- 25 -->
    <g style="fill:#262626;" transform="translate(387.144122 319.421719)scale(0.09 -0.09)">
     <use xlink:href="#DejaVuSans-32"/>
     <use x="63.623047" xlink:href="#DejaVuSans-35"/>
    </g>
   </g>
   <g id="text_38">
    <!-- 26 -->
    <g style="fill:#262626;" transform="translate(411.452024 357.633637)scale(0.09 -0.09)">
     <use xlink:href="#DejaVuSans-32"/>
     <use x="63.623047" xlink:href="#DejaVuSans-36"/>
    </g>
   </g>
   <g id="text_39">
    <!-- 27 -->
    <g style="fill:#262626;" transform="translate(422.9787 258.17032)scale(0.09 -0.09)">
     <use xlink:href="#DejaVuSans-32"/>
     <use x="63.623047" xlink:href="#DejaVuSans-37"/>
    </g>
   </g>
   <g id="text_40">
    <!-- 28 -->
    <g style="fill:#262626;" transform="translate(374.664486 185.823907)scale(0.09 -0.09)">
     <use xlink:href="#DejaVuSans-32"/>
     <use x="63.623047" xlink:href="#DejaVuSans-38"/>
    </g>
   </g>
   <g id="text_41">
    <!-- 29 -->
    <g style="fill:#262626;" transform="translate(487.585725 259.991634)scale(0.09 -0.09)">
     <use xlink:href="#DejaVuSans-32"/>
     <use x="63.623047" xlink:href="#DejaVuSans-39"/>
    </g>
   </g>
   <g id="text_42">
    <!-- 30 -->
    <g style="fill:#262626;" transform="translate(492.046805 272.267112)scale(0.09 -0.09)">
     <use xlink:href="#DejaVuSans-33"/>
     <use x="63.623047" xlink:href="#DejaVuSans-30"/>
    </g>
   </g>
  </g>
 </g>
 <defs>
  <clipPath id="pda6023c1bd">
   <rect height="326.16" width="446.4" x="72" y="51.84"/>
  </clipPath>
 </defs>
</svg>
