<?xml version="1.0" encoding="utf-8" standalone="no"?>
<!DOCTYPE svg PUBLIC "-//W3C//DTD SVG 1.1//EN"
  "http://www.w3.org/Graphics/SVG/1.1/DTD/svg11.dtd">
<!-- Created with matplotlib (http://matplotlib.org/) -->
<svg height="432pt" version="1.1" viewBox="0 0 720 432" width="720pt" xmlns="http://www.w3.org/2000/svg" xmlns:xlink="http://www.w3.org/1999/xlink">
 <defs>
  <style type="text/css">
*{stroke-linecap:butt;stroke-linejoin:round;}
  </style>
 </defs>
 <g id="figure_1">
  <g id="patch_1">
   <path d="M 0 432 
L 720 432 
L 720 0 
L 0 0 
z
" style="fill:#ffffff;"/>
  </g>
  <g id="axes_1">
   <g id="patch_2">
    <path d="M 58.473 377.152 
L 703.152 377.152 
L 703.152 21.848 
L 58.473 21.848 
z
" style="fill:#ffffff;"/>
   </g>
   <g id="matplotlib.axis_1">
    <g id="xtick_1">
     <g id="line2d_1">
      <path clip-path="url(#p0a9432fd06)" d="M 205.087988 377.152 
L 205.087988 21.848 
" style="fill:none;opacity:0.5;stroke:#cccccc;stroke-linecap:round;"/>
     </g>
     <g id="line2d_2"/>
     <g id="text_1">
      <!-- 20 -->
      <defs>
       <path d="M 19.1875 8.296875 
L 53.609375 8.296875 
L 53.609375 0 
L 7.328125 0 
L 7.328125 8.296875 
Q 12.9375 14.109375 22.625 23.890625 
Q 32.328125 33.6875 34.8125 36.53125 
Q 39.546875 41.84375 41.421875 45.53125 
Q 43.3125 49.21875 43.3125 52.78125 
Q 43.3125 58.59375 39.234375 62.25 
Q 35.15625 65.921875 28.609375 65.921875 
Q 23.96875 65.921875 18.8125 64.3125 
Q 13.671875 62.703125 7.8125 59.421875 
L 7.8125 69.390625 
Q 13.765625 71.78125 18.9375 73 
Q 24.125 74.21875 28.421875 74.21875 
Q 39.75 74.21875 46.484375 68.546875 
Q 53.21875 62.890625 53.21875 53.421875 
Q 53.21875 48.921875 51.53125 44.890625 
Q 49.859375 40.875 45.40625 35.40625 
Q 44.1875 33.984375 37.640625 27.21875 
Q 31.109375 20.453125 19.1875 8.296875 
z
" id="DejaVuSans-32"/>
       <path d="M 31.78125 66.40625 
Q 24.171875 66.40625 20.328125 58.90625 
Q 16.5 51.421875 16.5 36.375 
Q 16.5 21.390625 20.328125 13.890625 
Q 24.171875 6.390625 31.78125 6.390625 
Q 39.453125 6.390625 43.28125 13.890625 
Q 47.125 21.390625 47.125 36.375 
Q 47.125 51.421875 43.28125 58.90625 
Q 39.453125 66.40625 31.78125 66.40625 
z
M 31.78125 74.21875 
Q 44.046875 74.21875 50.515625 64.515625 
Q 56.984375 54.828125 56.984375 36.375 
Q 56.984375 17.96875 50.515625 8.265625 
Q 44.046875 -1.421875 31.78125 -1.421875 
Q 19.53125 -1.421875 13.0625 8.265625 
Q 6.59375 17.96875 6.59375 36.375 
Q 6.59375 54.828125 13.0625 64.515625 
Q 19.53125 74.21875 31.78125 74.21875 
z
" id="DejaVuSans-30"/>
      </defs>
      <g style="fill:#262626;" transform="translate(196.816738 394.029969)scale(0.13 -0.13)">
       <use xlink:href="#DejaVuSans-32"/>
       <use x="63.623047" xlink:href="#DejaVuSans-30"/>
      </g>
     </g>
    </g>
    <g id="xtick_2">
     <g id="line2d_3">
      <path clip-path="url(#p0a9432fd06)" d="M 454.182456 377.152 
L 454.182456 21.848 
" style="fill:none;opacity:0.5;stroke:#cccccc;stroke-linecap:round;"/>
     </g>
     <g id="line2d_4"/>
     <g id="text_2">
      <!-- 1000 -->
      <defs>
       <path d="M 12.40625 8.296875 
L 28.515625 8.296875 
L 28.515625 63.921875 
L 10.984375 60.40625 
L 10.984375 69.390625 
L 28.421875 72.90625 
L 38.28125 72.90625 
L 38.28125 8.296875 
L 54.390625 8.296875 
L 54.390625 0 
L 12.40625 0 
z
" id="DejaVuSans-31"/>
      </defs>
      <g style="fill:#262626;" transform="translate(437.639956 394.029969)scale(0.13 -0.13)">
       <use xlink:href="#DejaVuSans-31"/>
       <use x="63.623047" xlink:href="#DejaVuSans-30"/>
       <use x="127.246094" xlink:href="#DejaVuSans-30"/>
       <use x="190.869141" xlink:href="#DejaVuSans-30"/>
      </g>
     </g>
    </g>
    <g id="xtick_3">
     <g id="line2d_5">
      <path clip-path="url(#p0a9432fd06)" d="M 556.661935 377.152 
L 556.661935 21.848 
" style="fill:none;opacity:0.5;stroke:#cccccc;stroke-linecap:round;"/>
     </g>
     <g id="line2d_6"/>
     <g id="text_3">
      <!-- 5000 -->
      <defs>
       <path d="M 10.796875 72.90625 
L 49.515625 72.90625 
L 49.515625 64.59375 
L 19.828125 64.59375 
L 19.828125 46.734375 
Q 21.96875 47.46875 24.109375 47.828125 
Q 26.265625 48.1875 28.421875 48.1875 
Q 40.625 48.1875 47.75 41.5 
Q 54.890625 34.8125 54.890625 23.390625 
Q 54.890625 11.625 47.5625 5.09375 
Q 40.234375 -1.421875 26.90625 -1.421875 
Q 22.3125 -1.421875 17.546875 -0.640625 
Q 12.796875 0.140625 7.71875 1.703125 
L 7.71875 11.625 
Q 12.109375 9.234375 16.796875 8.0625 
Q 21.484375 6.890625 26.703125 6.890625 
Q 35.15625 6.890625 40.078125 11.328125 
Q 45.015625 15.765625 45.015625 23.390625 
Q 45.015625 31 40.078125 35.4375 
Q 35.15625 39.890625 26.703125 39.890625 
Q 22.75 39.890625 18.8125 39.015625 
Q 14.890625 38.140625 10.796875 36.28125 
z
" id="DejaVuSans-35"/>
      </defs>
      <g style="fill:#262626;" transform="translate(540.119435 394.029969)scale(0.13 -0.13)">
       <use xlink:href="#DejaVuSans-35"/>
       <use x="63.623047" xlink:href="#DejaVuSans-30"/>
       <use x="127.246094" xlink:href="#DejaVuSans-30"/>
       <use x="190.869141" xlink:href="#DejaVuSans-30"/>
      </g>
     </g>
    </g>
    <g id="xtick_4">
     <g id="line2d_7"/>
    </g>
    <g id="xtick_5">
     <g id="line2d_8"/>
    </g>
    <g id="xtick_6">
     <g id="line2d_9"/>
    </g>
    <g id="xtick_7">
     <g id="line2d_10"/>
    </g>
    <g id="xtick_8">
     <g id="line2d_11"/>
    </g>
    <g id="xtick_9">
     <g id="line2d_12"/>
    </g>
    <g id="xtick_10">
     <g id="line2d_13"/>
    </g>
    <g id="xtick_11">
     <g id="line2d_14"/>
    </g>
    <g id="xtick_12">
     <g id="line2d_15"/>
    </g>
    <g id="xtick_13">
     <g id="line2d_16"/>
    </g>
    <g id="xtick_14">
     <g id="line2d_17"/>
    </g>
    <g id="xtick_15">
     <g id="line2d_18"/>
    </g>
    <g id="xtick_16">
     <g id="line2d_19"/>
    </g>
    <g id="xtick_17">
     <g id="line2d_20"/>
    </g>
    <g id="xtick_18">
     <g id="line2d_21"/>
    </g>
    <g id="xtick_19">
     <g id="line2d_22"/>
    </g>
    <g id="xtick_20">
     <g id="line2d_23"/>
    </g>
    <g id="xtick_21">
     <g id="line2d_24"/>
    </g>
    <g id="xtick_22">
     <g id="line2d_25"/>
    </g>
    <g id="xtick_23">
     <g id="line2d_26"/>
    </g>
    <g id="xtick_24">
     <g id="line2d_27"/>
    </g>
    <g id="xtick_25">
     <g id="line2d_28"/>
    </g>
    <g id="xtick_26">
     <g id="line2d_29"/>
    </g>
    <g id="xtick_27">
     <g id="line2d_30"/>
    </g>
    <g id="xtick_28">
     <g id="line2d_31"/>
    </g>
    <g id="xtick_29">
     <g id="line2d_32"/>
    </g>
    <g id="xtick_30">
     <g id="line2d_33"/>
    </g>
    <g id="xtick_31">
     <g id="line2d_34"/>
    </g>
    <g id="xtick_32">
     <g id="line2d_35"/>
    </g>
    <g id="xtick_33">
     <g id="line2d_36"/>
    </g>
    <g id="xtick_34">
     <g id="line2d_37"/>
    </g>
    <g id="xtick_35">
     <g id="line2d_38"/>
    </g>
    <g id="xtick_36">
     <g id="line2d_39"/>
    </g>
    <g id="xtick_37">
     <g id="line2d_40"/>
    </g>
    <g id="xtick_38">
     <g id="line2d_41"/>
    </g>
    <g id="xtick_39">
     <g id="line2d_42"/>
    </g>
    <g id="text_4">
     <!-- Number of nodes (log) -->
     <defs>
      <path d="M 9.8125 72.90625 
L 23.09375 72.90625 
L 55.421875 11.921875 
L 55.421875 72.90625 
L 64.984375 72.90625 
L 64.984375 0 
L 51.703125 0 
L 19.390625 60.984375 
L 19.390625 0 
L 9.8125 0 
z
" id="DejaVuSans-4e"/>
      <path d="M 8.5 21.578125 
L 8.5 54.6875 
L 17.484375 54.6875 
L 17.484375 21.921875 
Q 17.484375 14.15625 20.5 10.265625 
Q 23.53125 6.390625 29.59375 6.390625 
Q 36.859375 6.390625 41.078125 11.03125 
Q 45.3125 15.671875 45.3125 23.6875 
L 45.3125 54.6875 
L 54.296875 54.6875 
L 54.296875 0 
L 45.3125 0 
L 45.3125 8.40625 
Q 42.046875 3.421875 37.71875 1 
Q 33.40625 -1.421875 27.6875 -1.421875 
Q 18.265625 -1.421875 13.375 4.4375 
Q 8.5 10.296875 8.5 21.578125 
z
M 31.109375 56 
z
" id="DejaVuSans-75"/>
      <path d="M 52 44.1875 
Q 55.375 50.25 60.0625 53.125 
Q 64.75 56 71.09375 56 
Q 79.640625 56 84.28125 50.015625 
Q 88.921875 44.046875 88.921875 33.015625 
L 88.921875 0 
L 79.890625 0 
L 79.890625 32.71875 
Q 79.890625 40.578125 77.09375 44.375 
Q 74.3125 48.1875 68.609375 48.1875 
Q 61.625 48.1875 57.5625 43.546875 
Q 53.515625 38.921875 53.515625 30.90625 
L 53.515625 0 
L 44.484375 0 
L 44.484375 32.71875 
Q 44.484375 40.625 41.703125 44.40625 
Q 38.921875 48.1875 33.109375 48.1875 
Q 26.21875 48.1875 22.15625 43.53125 
Q 18.109375 38.875 18.109375 30.90625 
L 18.109375 0 
L 9.078125 0 
L 9.078125 54.6875 
L 18.109375 54.6875 
L 18.109375 46.1875 
Q 21.1875 51.21875 25.484375 53.609375 
Q 29.78125 56 35.6875 56 
Q 41.65625 56 45.828125 52.96875 
Q 50 49.953125 52 44.1875 
z
" id="DejaVuSans-6d"/>
      <path d="M 48.6875 27.296875 
Q 48.6875 37.203125 44.609375 42.84375 
Q 40.53125 48.484375 33.40625 48.484375 
Q 26.265625 48.484375 22.1875 42.84375 
Q 18.109375 37.203125 18.109375 27.296875 
Q 18.109375 17.390625 22.1875 11.75 
Q 26.265625 6.109375 33.40625 6.109375 
Q 40.53125 6.109375 44.609375 11.75 
Q 48.6875 17.390625 48.6875 27.296875 
z
M 18.109375 46.390625 
Q 20.953125 51.265625 25.265625 53.625 
Q 29.59375 56 35.59375 56 
Q 45.5625 56 51.78125 48.09375 
Q 58.015625 40.1875 58.015625 27.296875 
Q 58.015625 14.40625 51.78125 6.484375 
Q 45.5625 -1.421875 35.59375 -1.421875 
Q 29.59375 -1.421875 25.265625 0.953125 
Q 20.953125 3.328125 18.109375 8.203125 
L 18.109375 0 
L 9.078125 0 
L 9.078125 75.984375 
L 18.109375 75.984375 
z
" id="DejaVuSans-62"/>
      <path d="M 56.203125 29.59375 
L 56.203125 25.203125 
L 14.890625 25.203125 
Q 15.484375 15.921875 20.484375 11.0625 
Q 25.484375 6.203125 34.421875 6.203125 
Q 39.59375 6.203125 44.453125 7.46875 
Q 49.3125 8.734375 54.109375 11.28125 
L 54.109375 2.78125 
Q 49.265625 0.734375 44.1875 -0.34375 
Q 39.109375 -1.421875 33.890625 -1.421875 
Q 20.796875 -1.421875 13.15625 6.1875 
Q 5.515625 13.8125 5.515625 26.8125 
Q 5.515625 40.234375 12.765625 48.109375 
Q 20.015625 56 32.328125 56 
Q 43.359375 56 49.78125 48.890625 
Q 56.203125 41.796875 56.203125 29.59375 
z
M 47.21875 32.234375 
Q 47.125 39.59375 43.09375 43.984375 
Q 39.0625 48.390625 32.421875 48.390625 
Q 24.90625 48.390625 20.390625 44.140625 
Q 15.875 39.890625 15.1875 32.171875 
z
" id="DejaVuSans-65"/>
      <path d="M 41.109375 46.296875 
Q 39.59375 47.171875 37.8125 47.578125 
Q 36.03125 48 33.890625 48 
Q 26.265625 48 22.1875 43.046875 
Q 18.109375 38.09375 18.109375 28.8125 
L 18.109375 0 
L 9.078125 0 
L 9.078125 54.6875 
L 18.109375 54.6875 
L 18.109375 46.1875 
Q 20.953125 51.171875 25.484375 53.578125 
Q 30.03125 56 36.53125 56 
Q 37.453125 56 38.578125 55.875 
Q 39.703125 55.765625 41.0625 55.515625 
z
" id="DejaVuSans-72"/>
      <path id="DejaVuSans-20"/>
      <path d="M 30.609375 48.390625 
Q 23.390625 48.390625 19.1875 42.75 
Q 14.984375 37.109375 14.984375 27.296875 
Q 14.984375 17.484375 19.15625 11.84375 
Q 23.34375 6.203125 30.609375 6.203125 
Q 37.796875 6.203125 41.984375 11.859375 
Q 46.1875 17.53125 46.1875 27.296875 
Q 46.1875 37.015625 41.984375 42.703125 
Q 37.796875 48.390625 30.609375 48.390625 
z
M 30.609375 56 
Q 42.328125 56 49.015625 48.375 
Q 55.71875 40.765625 55.71875 27.296875 
Q 55.71875 13.875 49.015625 6.21875 
Q 42.328125 -1.421875 30.609375 -1.421875 
Q 18.84375 -1.421875 12.171875 6.21875 
Q 5.515625 13.875 5.515625 27.296875 
Q 5.515625 40.765625 12.171875 48.375 
Q 18.84375 56 30.609375 56 
z
" id="DejaVuSans-6f"/>
      <path d="M 37.109375 75.984375 
L 37.109375 68.5 
L 28.515625 68.5 
Q 23.6875 68.5 21.796875 66.546875 
Q 19.921875 64.59375 19.921875 59.515625 
L 19.921875 54.6875 
L 34.71875 54.6875 
L 34.71875 47.703125 
L 19.921875 47.703125 
L 19.921875 0 
L 10.890625 0 
L 10.890625 47.703125 
L 2.296875 47.703125 
L 2.296875 54.6875 
L 10.890625 54.6875 
L 10.890625 58.5 
Q 10.890625 67.625 15.140625 71.796875 
Q 19.390625 75.984375 28.609375 75.984375 
z
" id="DejaVuSans-66"/>
      <path d="M 54.890625 33.015625 
L 54.890625 0 
L 45.90625 0 
L 45.90625 32.71875 
Q 45.90625 40.484375 42.875 44.328125 
Q 39.84375 48.1875 33.796875 48.1875 
Q 26.515625 48.1875 22.3125 43.546875 
Q 18.109375 38.921875 18.109375 30.90625 
L 18.109375 0 
L 9.078125 0 
L 9.078125 54.6875 
L 18.109375 54.6875 
L 18.109375 46.1875 
Q 21.34375 51.125 25.703125 53.5625 
Q 30.078125 56 35.796875 56 
Q 45.21875 56 50.046875 50.171875 
Q 54.890625 44.34375 54.890625 33.015625 
z
" id="DejaVuSans-6e"/>
      <path d="M 45.40625 46.390625 
L 45.40625 75.984375 
L 54.390625 75.984375 
L 54.390625 0 
L 45.40625 0 
L 45.40625 8.203125 
Q 42.578125 3.328125 38.25 0.953125 
Q 33.9375 -1.421875 27.875 -1.421875 
Q 17.96875 -1.421875 11.734375 6.484375 
Q 5.515625 14.40625 5.515625 27.296875 
Q 5.515625 40.1875 11.734375 48.09375 
Q 17.96875 56 27.875 56 
Q 33.9375 56 38.25 53.625 
Q 42.578125 51.265625 45.40625 46.390625 
z
M 14.796875 27.296875 
Q 14.796875 17.390625 18.875 11.75 
Q 22.953125 6.109375 30.078125 6.109375 
Q 37.203125 6.109375 41.296875 11.75 
Q 45.40625 17.390625 45.40625 27.296875 
Q 45.40625 37.203125 41.296875 42.84375 
Q 37.203125 48.484375 30.078125 48.484375 
Q 22.953125 48.484375 18.875 42.84375 
Q 14.796875 37.203125 14.796875 27.296875 
z
" id="DejaVuSans-64"/>
      <path d="M 44.28125 53.078125 
L 44.28125 44.578125 
Q 40.484375 46.53125 36.375 47.5 
Q 32.28125 48.484375 27.875 48.484375 
Q 21.1875 48.484375 17.84375 46.4375 
Q 14.5 44.390625 14.5 40.28125 
Q 14.5 37.15625 16.890625 35.375 
Q 19.28125 33.59375 26.515625 31.984375 
L 29.59375 31.296875 
Q 39.15625 29.25 43.1875 25.515625 
Q 47.21875 21.78125 47.21875 15.09375 
Q 47.21875 7.46875 41.1875 3.015625 
Q 35.15625 -1.421875 24.609375 -1.421875 
Q 20.21875 -1.421875 15.453125 -0.5625 
Q 10.6875 0.296875 5.421875 2 
L 5.421875 11.28125 
Q 10.40625 8.6875 15.234375 7.390625 
Q 20.0625 6.109375 24.8125 6.109375 
Q 31.15625 6.109375 34.5625 8.28125 
Q 37.984375 10.453125 37.984375 14.40625 
Q 37.984375 18.0625 35.515625 20.015625 
Q 33.0625 21.96875 24.703125 23.78125 
L 21.578125 24.515625 
Q 13.234375 26.265625 9.515625 29.90625 
Q 5.8125 33.546875 5.8125 39.890625 
Q 5.8125 47.609375 11.28125 51.796875 
Q 16.75 56 26.8125 56 
Q 31.78125 56 36.171875 55.265625 
Q 40.578125 54.546875 44.28125 53.078125 
z
" id="DejaVuSans-73"/>
      <path d="M 31 75.875 
Q 24.46875 64.65625 21.28125 53.65625 
Q 18.109375 42.671875 18.109375 31.390625 
Q 18.109375 20.125 21.3125 9.0625 
Q 24.515625 -2 31 -13.1875 
L 23.1875 -13.1875 
Q 15.875 -1.703125 12.234375 9.375 
Q 8.59375 20.453125 8.59375 31.390625 
Q 8.59375 42.28125 12.203125 53.3125 
Q 15.828125 64.359375 23.1875 75.875 
z
" id="DejaVuSans-28"/>
      <path d="M 9.421875 75.984375 
L 18.40625 75.984375 
L 18.40625 0 
L 9.421875 0 
z
" id="DejaVuSans-6c"/>
      <path d="M 45.40625 27.984375 
Q 45.40625 37.75 41.375 43.109375 
Q 37.359375 48.484375 30.078125 48.484375 
Q 22.859375 48.484375 18.828125 43.109375 
Q 14.796875 37.75 14.796875 27.984375 
Q 14.796875 18.265625 18.828125 12.890625 
Q 22.859375 7.515625 30.078125 7.515625 
Q 37.359375 7.515625 41.375 12.890625 
Q 45.40625 18.265625 45.40625 27.984375 
z
M 54.390625 6.78125 
Q 54.390625 -7.171875 48.1875 -13.984375 
Q 42 -20.796875 29.203125 -20.796875 
Q 24.46875 -20.796875 20.265625 -20.09375 
Q 16.0625 -19.390625 12.109375 -17.921875 
L 12.109375 -9.1875 
Q 16.0625 -11.328125 19.921875 -12.34375 
Q 23.78125 -13.375 27.78125 -13.375 
Q 36.625 -13.375 41.015625 -8.765625 
Q 45.40625 -4.15625 45.40625 5.171875 
L 45.40625 9.625 
Q 42.625 4.78125 38.28125 2.390625 
Q 33.9375 0 27.875 0 
Q 17.828125 0 11.671875 7.65625 
Q 5.515625 15.328125 5.515625 27.984375 
Q 5.515625 40.671875 11.671875 48.328125 
Q 17.828125 56 27.875 56 
Q 33.9375 56 38.28125 53.609375 
Q 42.625 51.21875 45.40625 46.390625 
L 45.40625 54.6875 
L 54.390625 54.6875 
z
" id="DejaVuSans-67"/>
      <path d="M 8.015625 75.875 
L 15.828125 75.875 
Q 23.140625 64.359375 26.78125 53.3125 
Q 30.421875 42.28125 30.421875 31.390625 
Q 30.421875 20.453125 26.78125 9.375 
Q 23.140625 -1.703125 15.828125 -13.1875 
L 8.015625 -13.1875 
Q 14.5 -2 17.703125 9.0625 
Q 20.90625 20.125 20.90625 31.390625 
Q 20.90625 42.671875 17.703125 53.65625 
Q 14.5 64.65625 8.015625 75.875 
z
" id="DejaVuSans-29"/>
     </defs>
     <g style="fill:#262626;" transform="translate(300.33143 411.599328)scale(0.143 -0.143)">
      <use xlink:href="#DejaVuSans-4e"/>
      <use x="74.804688" xlink:href="#DejaVuSans-75"/>
      <use x="138.183594" xlink:href="#DejaVuSans-6d"/>
      <use x="235.595703" xlink:href="#DejaVuSans-62"/>
      <use x="299.072266" xlink:href="#DejaVuSans-65"/>
      <use x="360.595703" xlink:href="#DejaVuSans-72"/>
      <use x="401.708984" xlink:href="#DejaVuSans-20"/>
      <use x="433.496094" xlink:href="#DejaVuSans-6f"/>
      <use x="494.677734" xlink:href="#DejaVuSans-66"/>
      <use x="529.882812" xlink:href="#DejaVuSans-20"/>
      <use x="561.669922" xlink:href="#DejaVuSans-6e"/>
      <use x="625.048828" xlink:href="#DejaVuSans-6f"/>
      <use x="686.230469" xlink:href="#DejaVuSans-64"/>
      <use x="749.707031" xlink:href="#DejaVuSans-65"/>
      <use x="811.230469" xlink:href="#DejaVuSans-73"/>
      <use x="863.330078" xlink:href="#DejaVuSans-20"/>
      <use x="895.117188" xlink:href="#DejaVuSans-28"/>
      <use x="934.130859" xlink:href="#DejaVuSans-6c"/>
      <use x="961.914062" xlink:href="#DejaVuSans-6f"/>
      <use x="1023.095703" xlink:href="#DejaVuSans-67"/>
      <use x="1086.572266" xlink:href="#DejaVuSans-29"/>
     </g>
    </g>
   </g>
   <g id="matplotlib.axis_2">
    <g id="ytick_1">
     <g id="line2d_43">
      <path clip-path="url(#p0a9432fd06)" d="M 58.473 377.152 
L 703.152 377.152 
" style="fill:none;opacity:0.5;stroke:#cccccc;stroke-linecap:round;"/>
     </g>
     <g id="line2d_44"/>
     <g id="text_5">
      <!-- 0 -->
      <g style="fill:#262626;" transform="translate(43.20175 382.090984)scale(0.13 -0.13)">
       <use xlink:href="#DejaVuSans-30"/>
      </g>
     </g>
    </g>
    <g id="ytick_2">
     <g id="line2d_45">
      <path clip-path="url(#p0a9432fd06)" d="M 58.473 337.673778 
L 703.152 337.673778 
" style="fill:none;opacity:0.5;stroke:#cccccc;stroke-linecap:round;"/>
     </g>
     <g id="line2d_46"/>
     <g id="text_6">
      <!-- 5 -->
      <g style="fill:#262626;" transform="translate(43.20175 342.612762)scale(0.13 -0.13)">
       <use xlink:href="#DejaVuSans-35"/>
      </g>
     </g>
    </g>
    <g id="ytick_3">
     <g id="line2d_47">
      <path clip-path="url(#p0a9432fd06)" d="M 58.473 298.195556 
L 703.152 298.195556 
" style="fill:none;opacity:0.5;stroke:#cccccc;stroke-linecap:round;"/>
     </g>
     <g id="line2d_48"/>
     <g id="text_7">
      <!-- 10 -->
      <g style="fill:#262626;" transform="translate(34.9305 303.13454)scale(0.13 -0.13)">
       <use xlink:href="#DejaVuSans-31"/>
       <use x="63.623047" xlink:href="#DejaVuSans-30"/>
      </g>
     </g>
    </g>
    <g id="ytick_4">
     <g id="line2d_49">
      <path clip-path="url(#p0a9432fd06)" d="M 58.473 258.717333 
L 703.152 258.717333 
" style="fill:none;opacity:0.5;stroke:#cccccc;stroke-linecap:round;"/>
     </g>
     <g id="line2d_50"/>
     <g id="text_8">
      <!-- 15 -->
      <g style="fill:#262626;" transform="translate(34.9305 263.656318)scale(0.13 -0.13)">
       <use xlink:href="#DejaVuSans-31"/>
       <use x="63.623047" xlink:href="#DejaVuSans-35"/>
      </g>
     </g>
    </g>
    <g id="ytick_5">
     <g id="line2d_51">
      <path clip-path="url(#p0a9432fd06)" d="M 58.473 219.239111 
L 703.152 219.239111 
" style="fill:none;opacity:0.5;stroke:#cccccc;stroke-linecap:round;"/>
     </g>
     <g id="line2d_52"/>
     <g id="text_9">
      <!-- 20 -->
      <g style="fill:#262626;" transform="translate(34.9305 224.178095)scale(0.13 -0.13)">
       <use xlink:href="#DejaVuSans-32"/>
       <use x="63.623047" xlink:href="#DejaVuSans-30"/>
      </g>
     </g>
    </g>
    <g id="ytick_6">
     <g id="line2d_53">
      <path clip-path="url(#p0a9432fd06)" d="M 58.473 179.760889 
L 703.152 179.760889 
" style="fill:none;opacity:0.5;stroke:#cccccc;stroke-linecap:round;"/>
     </g>
     <g id="line2d_54"/>
     <g id="text_10">
      <!-- 25 -->
      <g style="fill:#262626;" transform="translate(34.9305 184.699873)scale(0.13 -0.13)">
       <use xlink:href="#DejaVuSans-32"/>
       <use x="63.623047" xlink:href="#DejaVuSans-35"/>
      </g>
     </g>
    </g>
    <g id="ytick_7">
     <g id="line2d_55">
      <path clip-path="url(#p0a9432fd06)" d="M 58.473 140.282667 
L 703.152 140.282667 
" style="fill:none;opacity:0.5;stroke:#cccccc;stroke-linecap:round;"/>
     </g>
     <g id="line2d_56"/>
     <g id="text_11">
      <!-- 30 -->
      <defs>
       <path d="M 40.578125 39.3125 
Q 47.65625 37.796875 51.625 33 
Q 55.609375 28.21875 55.609375 21.1875 
Q 55.609375 10.40625 48.1875 4.484375 
Q 40.765625 -1.421875 27.09375 -1.421875 
Q 22.515625 -1.421875 17.65625 -0.515625 
Q 12.796875 0.390625 7.625 2.203125 
L 7.625 11.71875 
Q 11.71875 9.328125 16.59375 8.109375 
Q 21.484375 6.890625 26.8125 6.890625 
Q 36.078125 6.890625 40.9375 10.546875 
Q 45.796875 14.203125 45.796875 21.1875 
Q 45.796875 27.640625 41.28125 31.265625 
Q 36.765625 34.90625 28.71875 34.90625 
L 20.21875 34.90625 
L 20.21875 43.015625 
L 29.109375 43.015625 
Q 36.375 43.015625 40.234375 45.921875 
Q 44.09375 48.828125 44.09375 54.296875 
Q 44.09375 59.90625 40.109375 62.90625 
Q 36.140625 65.921875 28.71875 65.921875 
Q 24.65625 65.921875 20.015625 65.03125 
Q 15.375 64.15625 9.8125 62.3125 
L 9.8125 71.09375 
Q 15.4375 72.65625 20.34375 73.4375 
Q 25.25 74.21875 29.59375 74.21875 
Q 40.828125 74.21875 47.359375 69.109375 
Q 53.90625 64.015625 53.90625 55.328125 
Q 53.90625 49.265625 50.4375 45.09375 
Q 46.96875 40.921875 40.578125 39.3125 
z
" id="DejaVuSans-33"/>
      </defs>
      <g style="fill:#262626;" transform="translate(34.9305 145.221651)scale(0.13 -0.13)">
       <use xlink:href="#DejaVuSans-33"/>
       <use x="63.623047" xlink:href="#DejaVuSans-30"/>
      </g>
     </g>
    </g>
    <g id="ytick_8">
     <g id="line2d_57">
      <path clip-path="url(#p0a9432fd06)" d="M 58.473 100.804444 
L 703.152 100.804444 
" style="fill:none;opacity:0.5;stroke:#cccccc;stroke-linecap:round;"/>
     </g>
     <g id="line2d_58"/>
     <g id="text_12">
      <!-- 35 -->
      <g style="fill:#262626;" transform="translate(34.9305 105.743429)scale(0.13 -0.13)">
       <use xlink:href="#DejaVuSans-33"/>
       <use x="63.623047" xlink:href="#DejaVuSans-35"/>
      </g>
     </g>
    </g>
    <g id="ytick_9">
     <g id="line2d_59">
      <path clip-path="url(#p0a9432fd06)" d="M 58.473 61.326222 
L 703.152 61.326222 
" style="fill:none;opacity:0.5;stroke:#cccccc;stroke-linecap:round;"/>
     </g>
     <g id="line2d_60"/>
     <g id="text_13">
      <!-- 40 -->
      <defs>
       <path d="M 37.796875 64.3125 
L 12.890625 25.390625 
L 37.796875 25.390625 
z
M 35.203125 72.90625 
L 47.609375 72.90625 
L 47.609375 25.390625 
L 58.015625 25.390625 
L 58.015625 17.1875 
L 47.609375 17.1875 
L 47.609375 0 
L 37.796875 0 
L 37.796875 17.1875 
L 4.890625 17.1875 
L 4.890625 26.703125 
z
" id="DejaVuSans-34"/>
      </defs>
      <g style="fill:#262626;" transform="translate(34.9305 66.265207)scale(0.13 -0.13)">
       <use xlink:href="#DejaVuSans-34"/>
       <use x="63.623047" xlink:href="#DejaVuSans-30"/>
      </g>
     </g>
    </g>
    <g id="ytick_10">
     <g id="line2d_61">
      <path clip-path="url(#p0a9432fd06)" d="M 58.473 21.848 
L 703.152 21.848 
" style="fill:none;opacity:0.5;stroke:#cccccc;stroke-linecap:round;"/>
     </g>
     <g id="line2d_62"/>
     <g id="text_14">
      <!-- 45 -->
      <g style="fill:#262626;" transform="translate(34.9305 26.786984)scale(0.13 -0.13)">
       <use xlink:href="#DejaVuSans-34"/>
       <use x="63.623047" xlink:href="#DejaVuSans-35"/>
      </g>
     </g>
    </g>
    <g id="text_15">
     <!-- Maximum node degree -->
     <defs>
      <path d="M 9.8125 72.90625 
L 24.515625 72.90625 
L 43.109375 23.296875 
L 61.8125 72.90625 
L 76.515625 72.90625 
L 76.515625 0 
L 66.890625 0 
L 66.890625 64.015625 
L 48.09375 14.015625 
L 38.1875 14.015625 
L 19.390625 64.015625 
L 19.390625 0 
L 9.8125 0 
z
" id="DejaVuSans-4d"/>
      <path d="M 34.28125 27.484375 
Q 23.390625 27.484375 19.1875 25 
Q 14.984375 22.515625 14.984375 16.5 
Q 14.984375 11.71875 18.140625 8.90625 
Q 21.296875 6.109375 26.703125 6.109375 
Q 34.1875 6.109375 38.703125 11.40625 
Q 43.21875 16.703125 43.21875 25.484375 
L 43.21875 27.484375 
z
M 52.203125 31.203125 
L 52.203125 0 
L 43.21875 0 
L 43.21875 8.296875 
Q 40.140625 3.328125 35.546875 0.953125 
Q 30.953125 -1.421875 24.3125 -1.421875 
Q 15.921875 -1.421875 10.953125 3.296875 
Q 6 8.015625 6 15.921875 
Q 6 25.140625 12.171875 29.828125 
Q 18.359375 34.515625 30.609375 34.515625 
L 43.21875 34.515625 
L 43.21875 35.40625 
Q 43.21875 41.609375 39.140625 45 
Q 35.0625 48.390625 27.6875 48.390625 
Q 23 48.390625 18.546875 47.265625 
Q 14.109375 46.140625 10.015625 43.890625 
L 10.015625 52.203125 
Q 14.9375 54.109375 19.578125 55.046875 
Q 24.21875 56 28.609375 56 
Q 40.484375 56 46.34375 49.84375 
Q 52.203125 43.703125 52.203125 31.203125 
z
" id="DejaVuSans-61"/>
      <path d="M 54.890625 54.6875 
L 35.109375 28.078125 
L 55.90625 0 
L 45.3125 0 
L 29.390625 21.484375 
L 13.484375 0 
L 2.875 0 
L 24.125 28.609375 
L 4.6875 54.6875 
L 15.28125 54.6875 
L 29.78125 35.203125 
L 44.28125 54.6875 
z
" id="DejaVuSans-78"/>
      <path d="M 9.421875 54.6875 
L 18.40625 54.6875 
L 18.40625 0 
L 9.421875 0 
z
M 9.421875 75.984375 
L 18.40625 75.984375 
L 18.40625 64.59375 
L 9.421875 64.59375 
z
" id="DejaVuSans-69"/>
     </defs>
     <g style="fill:#262626;" transform="translate(27.956547 282.33275)rotate(-90)scale(0.143 -0.143)">
      <use xlink:href="#DejaVuSans-4d"/>
      <use x="86.279297" xlink:href="#DejaVuSans-61"/>
      <use x="147.558594" xlink:href="#DejaVuSans-78"/>
      <use x="206.738281" xlink:href="#DejaVuSans-69"/>
      <use x="234.521484" xlink:href="#DejaVuSans-6d"/>
      <use x="331.933594" xlink:href="#DejaVuSans-75"/>
      <use x="395.3125" xlink:href="#DejaVuSans-6d"/>
      <use x="492.724609" xlink:href="#DejaVuSans-20"/>
      <use x="524.511719" xlink:href="#DejaVuSans-6e"/>
      <use x="587.890625" xlink:href="#DejaVuSans-6f"/>
      <use x="649.072266" xlink:href="#DejaVuSans-64"/>
      <use x="712.548828" xlink:href="#DejaVuSans-65"/>
      <use x="774.072266" xlink:href="#DejaVuSans-20"/>
      <use x="805.859375" xlink:href="#DejaVuSans-64"/>
      <use x="869.335938" xlink:href="#DejaVuSans-65"/>
      <use x="930.859375" xlink:href="#DejaVuSans-67"/>
      <use x="994.335938" xlink:href="#DejaVuSans-72"/>
      <use x="1035.417969" xlink:href="#DejaVuSans-65"/>
      <use x="1096.941406" xlink:href="#DejaVuSans-65"/>
     </g>
    </g>
   </g>
   <g id="PathCollection_1">
    <defs>
     <path d="M 0 3.535534 
C 0.937635 3.535534 1.836992 3.163008 2.5 2.5 
C 3.163008 1.836992 3.535534 0.937635 3.535534 0 
C 3.535534 -0.937635 3.163008 -1.836992 2.5 -2.5 
C 1.836992 -3.163008 0.937635 -3.535534 0 -3.535534 
C -0.937635 -3.535534 -1.836992 -3.163008 -2.5 -2.5 
C -3.163008 -1.836992 -3.535534 -0.937635 -3.535534 0 
C -3.535534 0.937635 -3.163008 1.836992 -2.5 2.5 
C -1.836992 3.163008 -0.937635 3.535534 0 3.535534 
z
" id="C0_0_2f478bf2d2"/>
    </defs>
    <g clip-path="url(#p0a9432fd06)">
     <use style="fill-opacity:0.7;stroke:#ffffff;stroke-opacity:0.7;stroke-width:0.3;" x="620.651886" xlink:href="#C0_0_2f478bf2d2" y="53.430578"/>
    </g>
    <g clip-path="url(#p0a9432fd06)">
     <use style="fill-opacity:0.7;stroke:#ffffff;stroke-opacity:0.7;stroke-width:0.3;" x="595.771332" xlink:href="#C0_0_2f478bf2d2" y="53.430578"/>
    </g>
    <g clip-path="url(#p0a9432fd06)">
     <use style="fill:#0000ff;fill-opacity:0.7;stroke:#ffffff;stroke-opacity:0.7;stroke-width:0.3;" x="575.344904" xlink:href="#C0_0_2f478bf2d2" y="235.0304"/>
    </g>
    <g clip-path="url(#p0a9432fd06)">
     <use style="fill-opacity:0.7;stroke:#ffffff;stroke-opacity:0.7;stroke-width:0.3;" x="573.514509" xlink:href="#C0_0_2f478bf2d2" y="250.821689"/>
    </g>
    <g clip-path="url(#p0a9432fd06)">
     <use style="fill:#0000ff;fill-opacity:0.7;stroke:#ffffff;stroke-opacity:0.7;stroke-width:0.3;" x="532.310903" xlink:href="#C0_0_2f478bf2d2" y="235.0304"/>
    </g>
    <g clip-path="url(#p0a9432fd06)">
     <use style="fill-opacity:0.7;stroke:#ffffff;stroke-opacity:0.7;stroke-width:0.3;" x="526.632926" xlink:href="#C0_0_2f478bf2d2" y="306.0912"/>
    </g>
    <g clip-path="url(#p0a9432fd06)">
     <use style="fill-opacity:0.7;stroke:#ffffff;stroke-opacity:0.7;stroke-width:0.3;" x="521.292615" xlink:href="#C0_0_2f478bf2d2" y="258.717333"/>
    </g>
    <g clip-path="url(#p0a9432fd06)">
     <use style="fill-opacity:0.7;stroke:#ffffff;stroke-opacity:0.7;stroke-width:0.3;" x="521.270417" xlink:href="#C0_0_2f478bf2d2" y="250.821689"/>
    </g>
    <g clip-path="url(#p0a9432fd06)">
     <use style="fill-opacity:0.7;stroke:#ffffff;stroke-opacity:0.7;stroke-width:0.3;" x="518.270227" xlink:href="#C0_0_2f478bf2d2" y="306.0912"/>
    </g>
    <g clip-path="url(#p0a9432fd06)">
     <use style="fill-opacity:0.7;stroke:#ffffff;stroke-opacity:0.7;stroke-width:0.3;" x="509.474493" xlink:href="#C0_0_2f478bf2d2" y="306.0912"/>
    </g>
    <g clip-path="url(#p0a9432fd06)">
     <use style="fill-opacity:0.7;stroke:#ffffff;stroke-opacity:0.7;stroke-width:0.3;" x="505.077618" xlink:href="#C0_0_2f478bf2d2" y="266.612978"/>
    </g>
    <g clip-path="url(#p0a9432fd06)">
     <use style="fill:#ffa500;fill-opacity:0.7;stroke:#ffffff;stroke-opacity:0.7;stroke-width:0.3;" x="498.317965" xlink:href="#C0_0_2f478bf2d2" y="250.821689"/>
    </g>
    <g clip-path="url(#p0a9432fd06)">
     <use style="fill-opacity:0.7;stroke:#ffffff;stroke-opacity:0.7;stroke-width:0.3;" x="496.738522" xlink:href="#C0_0_2f478bf2d2" y="258.717333"/>
    </g>
    <g clip-path="url(#p0a9432fd06)">
     <use style="fill:#0000ff;fill-opacity:0.7;stroke:#ffffff;stroke-opacity:0.7;stroke-width:0.3;" x="489.340704" xlink:href="#C0_0_2f478bf2d2" y="242.926044"/>
    </g>
    <g clip-path="url(#p0a9432fd06)">
     <use style="fill-opacity:0.7;stroke:#ffffff;stroke-opacity:0.7;stroke-width:0.3;" x="475.470425" xlink:href="#C0_0_2f478bf2d2" y="258.717333"/>
    </g>
    <g clip-path="url(#p0a9432fd06)">
     <use style="fill-opacity:0.7;stroke:#ffffff;stroke-opacity:0.7;stroke-width:0.3;" x="473.479725" xlink:href="#C0_0_2f478bf2d2" y="274.508622"/>
    </g>
    <g clip-path="url(#p0a9432fd06)">
     <use style="fill:#ffa500;fill-opacity:0.7;stroke:#ffffff;stroke-opacity:0.7;stroke-width:0.3;" x="410.046947" xlink:href="#C0_0_2f478bf2d2" y="266.612978"/>
    </g>
    <g clip-path="url(#p0a9432fd06)">
     <use style="fill:#0000ff;fill-opacity:0.7;stroke:#ffffff;stroke-opacity:0.7;stroke-width:0.3;" x="396.31426" xlink:href="#C0_0_2f478bf2d2" y="298.195556"/>
    </g>
    <g clip-path="url(#p0a9432fd06)">
     <use style="fill-opacity:0.7;stroke:#ffffff;stroke-opacity:0.7;stroke-width:0.3;" x="377.520595" xlink:href="#C0_0_2f478bf2d2" y="290.299911"/>
    </g>
    <g clip-path="url(#p0a9432fd06)">
     <use style="fill-opacity:0.7;stroke:#ffffff;stroke-opacity:0.7;stroke-width:0.3;" x="363.312134" xlink:href="#C0_0_2f478bf2d2" y="306.0912"/>
    </g>
    <g clip-path="url(#p0a9432fd06)">
     <use style="fill:#ffa500;fill-opacity:0.7;stroke:#ffffff;stroke-opacity:0.7;stroke-width:0.3;" x="351.702977" xlink:href="#C0_0_2f478bf2d2" y="290.299911"/>
    </g>
    <g clip-path="url(#p0a9432fd06)">
     <use style="fill-opacity:0.7;stroke:#ffffff;stroke-opacity:0.7;stroke-width:0.3;" x="348.100912" xlink:href="#C0_0_2f478bf2d2" y="313.986844"/>
    </g>
    <g clip-path="url(#p0a9432fd06)">
     <use style="fill-opacity:0.7;stroke:#ffffff;stroke-opacity:0.7;stroke-width:0.3;" x="338.285509" xlink:href="#C0_0_2f478bf2d2" y="306.0912"/>
    </g>
    <g clip-path="url(#p0a9432fd06)">
     <use style="fill:#ffa500;fill-opacity:0.7;stroke:#ffffff;stroke-opacity:0.7;stroke-width:0.3;" x="333.385086" xlink:href="#C0_0_2f478bf2d2" y="298.195556"/>
    </g>
    <g clip-path="url(#p0a9432fd06)">
     <use style="fill-opacity:0.7;stroke:#ffffff;stroke-opacity:0.7;stroke-width:0.3;" x="318.106447" xlink:href="#C0_0_2f478bf2d2" y="306.0912"/>
    </g>
    <g clip-path="url(#p0a9432fd06)">
     <use style="fill-opacity:0.7;stroke:#ffffff;stroke-opacity:0.7;stroke-width:0.3;" x="300.147284" xlink:href="#C0_0_2f478bf2d2" y="258.717333"/>
    </g>
    <g clip-path="url(#p0a9432fd06)">
     <use style="fill-opacity:0.7;stroke:#ffffff;stroke-opacity:0.7;stroke-width:0.3;" x="287.52855" xlink:href="#C0_0_2f478bf2d2" y="337.673778"/>
    </g>
    <g clip-path="url(#p0a9432fd06)">
     <use style="fill-opacity:0.7;stroke:#ffffff;stroke-opacity:0.7;stroke-width:0.3;" x="271.775062" xlink:href="#C0_0_2f478bf2d2" y="329.778133"/>
    </g>
    <g clip-path="url(#p0a9432fd06)">
     <use style="fill-opacity:0.7;stroke:#ffffff;stroke-opacity:0.7;stroke-width:0.3;" x="247.61141" xlink:href="#C0_0_2f478bf2d2" y="337.673778"/>
    </g>
    <g clip-path="url(#p0a9432fd06)">
     <use style="fill-opacity:0.7;stroke:#ffffff;stroke-opacity:0.7;stroke-width:0.3;" x="230.905606" xlink:href="#C0_0_2f478bf2d2" y="321.882489"/>
    </g>
    <g clip-path="url(#p0a9432fd06)">
     <use style="fill-opacity:0.7;stroke:#ffffff;stroke-opacity:0.7;stroke-width:0.3;" x="230.905606" xlink:href="#C0_0_2f478bf2d2" y="321.882489"/>
    </g>
    <g clip-path="url(#p0a9432fd06)">
     <use style="fill-opacity:0.7;stroke:#ffffff;stroke-opacity:0.7;stroke-width:0.3;" x="230.905606" xlink:href="#C0_0_2f478bf2d2" y="321.882489"/>
    </g>
    <g clip-path="url(#p0a9432fd06)">
     <use style="fill-opacity:0.7;stroke:#ffffff;stroke-opacity:0.7;stroke-width:0.3;" x="228.746956" xlink:href="#C0_0_2f478bf2d2" y="329.778133"/>
    </g>
    <g clip-path="url(#p0a9432fd06)">
     <use style="fill-opacity:0.7;stroke:#ffffff;stroke-opacity:0.7;stroke-width:0.3;" x="216.697146" xlink:href="#C0_0_2f478bf2d2" y="337.673778"/>
    </g>
    <g clip-path="url(#p0a9432fd06)">
     <use style="fill-opacity:0.7;stroke:#ffffff;stroke-opacity:0.7;stroke-width:0.3;" x="182.377039" xlink:href="#C0_0_2f478bf2d2" y="337.673778"/>
    </g>
    <g clip-path="url(#p0a9432fd06)">
     <use style="fill-opacity:0.7;stroke:#ffffff;stroke-opacity:0.7;stroke-width:0.3;" x="154.243745" xlink:href="#C0_0_2f478bf2d2" y="353.465067"/>
    </g>
    <g clip-path="url(#p0a9432fd06)">
     <use style="fill-opacity:0.7;stroke:#ffffff;stroke-opacity:0.7;stroke-width:0.3;" x="128.426127" xlink:href="#C0_0_2f478bf2d2" y="353.465067"/>
    </g>
    <g clip-path="url(#p0a9432fd06)">
     <use style="fill-opacity:0.7;stroke:#ffffff;stroke-opacity:0.7;stroke-width:0.3;" x="128.426127" xlink:href="#C0_0_2f478bf2d2" y="337.673778"/>
    </g>
    <g clip-path="url(#p0a9432fd06)">
     <use style="fill-opacity:0.7;stroke:#ffffff;stroke-opacity:0.7;stroke-width:0.3;" x="116.81697" xlink:href="#C0_0_2f478bf2d2" y="353.465067"/>
    </g>
    <g clip-path="url(#p0a9432fd06)">
     <use style="fill-opacity:0.7;stroke:#ffffff;stroke-opacity:0.7;stroke-width:0.3;" x="102.608509" xlink:href="#C0_0_2f478bf2d2" y="361.360711"/>
    </g>
    <g clip-path="url(#p0a9432fd06)">
     <use style="fill-opacity:0.7;stroke:#ffffff;stroke-opacity:0.7;stroke-width:0.3;" x="84.290618" xlink:href="#C0_0_2f478bf2d2" y="361.360711"/>
    </g>
   </g>
   <g id="line2d_63">
    <path clip-path="url(#p0a9432fd06)" d="M 58.473 368.160101 
L 703.152 221.653591 
L 703.152 221.653591 
" style="fill:none;opacity:0.7;stroke:#1a1a1a;stroke-dasharray:6.475,2.8;stroke-dashoffset:0;stroke-width:1.75;"/>
   </g>
   <g id="text_16">
    <!-- case13659_pegase -->
    <defs>
     <path d="M 48.78125 52.59375 
L 48.78125 44.1875 
Q 44.96875 46.296875 41.140625 47.34375 
Q 37.3125 48.390625 33.40625 48.390625 
Q 24.65625 48.390625 19.8125 42.84375 
Q 14.984375 37.3125 14.984375 27.296875 
Q 14.984375 17.28125 19.8125 11.734375 
Q 24.65625 6.203125 33.40625 6.203125 
Q 37.3125 6.203125 41.140625 7.25 
Q 44.96875 8.296875 48.78125 10.40625 
L 48.78125 2.09375 
Q 45.015625 0.34375 40.984375 -0.53125 
Q 36.96875 -1.421875 32.421875 -1.421875 
Q 20.0625 -1.421875 12.78125 6.34375 
Q 5.515625 14.109375 5.515625 27.296875 
Q 5.515625 40.671875 12.859375 48.328125 
Q 20.21875 56 33.015625 56 
Q 37.15625 56 41.109375 55.140625 
Q 45.0625 54.296875 48.78125 52.59375 
z
" id="DejaVuSans-63"/>
     <path d="M 33.015625 40.375 
Q 26.375 40.375 22.484375 35.828125 
Q 18.609375 31.296875 18.609375 23.390625 
Q 18.609375 15.53125 22.484375 10.953125 
Q 26.375 6.390625 33.015625 6.390625 
Q 39.65625 6.390625 43.53125 10.953125 
Q 47.40625 15.53125 47.40625 23.390625 
Q 47.40625 31.296875 43.53125 35.828125 
Q 39.65625 40.375 33.015625 40.375 
z
M 52.59375 71.296875 
L 52.59375 62.3125 
Q 48.875 64.0625 45.09375 64.984375 
Q 41.3125 65.921875 37.59375 65.921875 
Q 27.828125 65.921875 22.671875 59.328125 
Q 17.53125 52.734375 16.796875 39.40625 
Q 19.671875 43.65625 24.015625 45.921875 
Q 28.375 48.1875 33.59375 48.1875 
Q 44.578125 48.1875 50.953125 41.515625 
Q 57.328125 34.859375 57.328125 23.390625 
Q 57.328125 12.15625 50.6875 5.359375 
Q 44.046875 -1.421875 33.015625 -1.421875 
Q 20.359375 -1.421875 13.671875 8.265625 
Q 6.984375 17.96875 6.984375 36.375 
Q 6.984375 53.65625 15.1875 63.9375 
Q 23.390625 74.21875 37.203125 74.21875 
Q 40.921875 74.21875 44.703125 73.484375 
Q 48.484375 72.75 52.59375 71.296875 
z
" id="DejaVuSans-36"/>
     <path d="M 10.984375 1.515625 
L 10.984375 10.5 
Q 14.703125 8.734375 18.5 7.8125 
Q 22.3125 6.890625 25.984375 6.890625 
Q 35.75 6.890625 40.890625 13.453125 
Q 46.046875 20.015625 46.78125 33.40625 
Q 43.953125 29.203125 39.59375 26.953125 
Q 35.25 24.703125 29.984375 24.703125 
Q 19.046875 24.703125 12.671875 31.3125 
Q 6.296875 37.9375 6.296875 49.421875 
Q 6.296875 60.640625 12.9375 67.421875 
Q 19.578125 74.21875 30.609375 74.21875 
Q 43.265625 74.21875 49.921875 64.515625 
Q 56.59375 54.828125 56.59375 36.375 
Q 56.59375 19.140625 48.40625 8.859375 
Q 40.234375 -1.421875 26.421875 -1.421875 
Q 22.703125 -1.421875 18.890625 -0.6875 
Q 15.09375 0.046875 10.984375 1.515625 
z
M 30.609375 32.421875 
Q 37.25 32.421875 41.125 36.953125 
Q 45.015625 41.5 45.015625 49.421875 
Q 45.015625 57.28125 41.125 61.84375 
Q 37.25 66.40625 30.609375 66.40625 
Q 23.96875 66.40625 20.09375 61.84375 
Q 16.21875 57.28125 16.21875 49.421875 
Q 16.21875 41.5 20.09375 36.953125 
Q 23.96875 32.421875 30.609375 32.421875 
z
" id="DejaVuSans-39"/>
     <path d="M 50.984375 -16.609375 
L 50.984375 -23.578125 
L -0.984375 -23.578125 
L -0.984375 -16.609375 
z
" id="DejaVuSans-5f"/>
     <path d="M 18.109375 8.203125 
L 18.109375 -20.796875 
L 9.078125 -20.796875 
L 9.078125 54.6875 
L 18.109375 54.6875 
L 18.109375 46.390625 
Q 20.953125 51.265625 25.265625 53.625 
Q 29.59375 56 35.59375 56 
Q 45.5625 56 51.78125 48.09375 
Q 58.015625 40.1875 58.015625 27.296875 
Q 58.015625 14.40625 51.78125 6.484375 
Q 45.5625 -1.421875 35.59375 -1.421875 
Q 29.59375 -1.421875 25.265625 0.953125 
Q 20.953125 3.328125 18.109375 8.203125 
z
M 48.6875 27.296875 
Q 48.6875 37.203125 44.609375 42.84375 
Q 40.53125 48.484375 33.40625 48.484375 
Q 26.265625 48.484375 22.1875 42.84375 
Q 18.109375 37.203125 18.109375 27.296875 
Q 18.109375 17.390625 22.1875 11.75 
Q 26.265625 6.109375 33.40625 6.109375 
Q 40.53125 6.109375 44.609375 11.75 
Q 48.6875 17.390625 48.6875 27.296875 
z
" id="DejaVuSans-70"/>
    </defs>
    <g style="fill:#262626;" transform="translate(503.663871 99.507306)rotate(-16)scale(0.13 -0.13)">
     <use xlink:href="#DejaVuSans-63"/>
     <use x="54.980469" xlink:href="#DejaVuSans-61"/>
     <use x="116.259766" xlink:href="#DejaVuSans-73"/>
     <use x="168.359375" xlink:href="#DejaVuSans-65"/>
     <use x="229.882812" xlink:href="#DejaVuSans-31"/>
     <use x="293.505859" xlink:href="#DejaVuSans-33"/>
     <use x="357.128906" xlink:href="#DejaVuSans-36"/>
     <use x="420.751953" xlink:href="#DejaVuSans-35"/>
     <use x="484.375" xlink:href="#DejaVuSans-39"/>
     <use x="547.998047" xlink:href="#DejaVuSans-5f"/>
     <use x="597.998047" xlink:href="#DejaVuSans-70"/>
     <use x="661.474609" xlink:href="#DejaVuSans-65"/>
     <use x="722.998047" xlink:href="#DejaVuSans-67"/>
     <use x="786.474609" xlink:href="#DejaVuSans-61"/>
     <use x="847.753906" xlink:href="#DejaVuSans-73"/>
     <use x="899.853516" xlink:href="#DejaVuSans-65"/>
    </g>
   </g>
   <g id="text_17">
    <!-- case9241_pegase -->
    <g style="fill:#262626;" transform="translate(478.734153 90.22744)rotate(-16)scale(0.13 -0.13)">
     <use xlink:href="#DejaVuSans-63"/>
     <use x="54.980469" xlink:href="#DejaVuSans-61"/>
     <use x="116.259766" xlink:href="#DejaVuSans-73"/>
     <use x="168.359375" xlink:href="#DejaVuSans-65"/>
     <use x="229.882812" xlink:href="#DejaVuSans-39"/>
     <use x="293.505859" xlink:href="#DejaVuSans-32"/>
     <use x="357.128906" xlink:href="#DejaVuSans-34"/>
     <use x="420.751953" xlink:href="#DejaVuSans-31"/>
     <use x="484.375" xlink:href="#DejaVuSans-5f"/>
     <use x="534.375" xlink:href="#DejaVuSans-70"/>
     <use x="597.851562" xlink:href="#DejaVuSans-65"/>
     <use x="659.375" xlink:href="#DejaVuSans-67"/>
     <use x="722.851562" xlink:href="#DejaVuSans-61"/>
     <use x="784.130859" xlink:href="#DejaVuSans-73"/>
     <use x="836.230469" xlink:href="#DejaVuSans-65"/>
    </g>
   </g>
   <g id="text_18">
    <!-- case89_pegase -->
    <defs>
     <path d="M 31.78125 34.625 
Q 24.75 34.625 20.71875 30.859375 
Q 16.703125 27.09375 16.703125 20.515625 
Q 16.703125 13.921875 20.71875 10.15625 
Q 24.75 6.390625 31.78125 6.390625 
Q 38.8125 6.390625 42.859375 10.171875 
Q 46.921875 13.96875 46.921875 20.515625 
Q 46.921875 27.09375 42.890625 30.859375 
Q 38.875 34.625 31.78125 34.625 
z
M 21.921875 38.8125 
Q 15.578125 40.375 12.03125 44.71875 
Q 8.5 49.078125 8.5 55.328125 
Q 8.5 64.0625 14.71875 69.140625 
Q 20.953125 74.21875 31.78125 74.21875 
Q 42.671875 74.21875 48.875 69.140625 
Q 55.078125 64.0625 55.078125 55.328125 
Q 55.078125 49.078125 51.53125 44.71875 
Q 48 40.375 41.703125 38.8125 
Q 48.828125 37.15625 52.796875 32.3125 
Q 56.78125 27.484375 56.78125 20.515625 
Q 56.78125 9.90625 50.3125 4.234375 
Q 43.84375 -1.421875 31.78125 -1.421875 
Q 19.734375 -1.421875 13.25 4.234375 
Q 6.78125 9.90625 6.78125 20.515625 
Q 6.78125 27.484375 10.78125 32.3125 
Q 14.796875 37.15625 21.921875 38.8125 
z
M 18.3125 54.390625 
Q 18.3125 48.734375 21.84375 45.5625 
Q 25.390625 42.390625 31.78125 42.390625 
Q 38.140625 42.390625 41.71875 45.5625 
Q 45.3125 48.734375 45.3125 54.390625 
Q 45.3125 60.0625 41.71875 63.234375 
Q 38.140625 66.40625 31.78125 66.40625 
Q 25.390625 66.40625 21.84375 63.234375 
Q 18.3125 60.0625 18.3125 54.390625 
z
" id="DejaVuSans-38"/>
    </defs>
    <g style="fill:#262626;" transform="translate(199.011777 290.954465)rotate(-16)scale(0.13 -0.13)">
     <use xlink:href="#DejaVuSans-63"/>
     <use x="54.980469" xlink:href="#DejaVuSans-61"/>
     <use x="116.259766" xlink:href="#DejaVuSans-73"/>
     <use x="168.359375" xlink:href="#DejaVuSans-65"/>
     <use x="229.882812" xlink:href="#DejaVuSans-38"/>
     <use x="293.505859" xlink:href="#DejaVuSans-39"/>
     <use x="357.128906" xlink:href="#DejaVuSans-5f"/>
     <use x="407.128906" xlink:href="#DejaVuSans-70"/>
     <use x="470.605469" xlink:href="#DejaVuSans-65"/>
     <use x="532.128906" xlink:href="#DejaVuSans-67"/>
     <use x="595.605469" xlink:href="#DejaVuSans-61"/>
     <use x="656.884766" xlink:href="#DejaVuSans-73"/>
     <use x="708.984375" xlink:href="#DejaVuSans-65"/>
    </g>
   </g>
   <g id="legend_1">
    <g id="line2d_64">
     <path d="M 70.173 38.875969 
L 96.173 38.875969 
" style="fill:none;opacity:0.6;"/>
    </g>
    <g id="line2d_65">
     <defs>
      <path d="M 0 3 
C 0.795609 3 1.55874 2.683901 2.12132 2.12132 
C 2.683901 1.55874 3 0.795609 3 0 
C 3 -0.795609 2.683901 -1.55874 2.12132 -2.12132 
C 1.55874 -2.683901 0.795609 -3 0 -3 
C -0.795609 -3 -1.55874 -2.683901 -2.12132 -2.12132 
C -2.683901 -1.55874 -3 -0.795609 -3 0 
C -3 0.795609 -2.683901 1.55874 -2.12132 2.12132 
C -1.55874 2.683901 -0.795609 3 0 3 
z
" id="m2efd6d2a58"/>
     </defs>
     <g>
      <use style="opacity:0.6;" x="83.173" xlink:href="#m2efd6d2a58" y="38.875969"/>
     </g>
    </g>
    <g id="text_19">
     <!-- NESTA -->
     <defs>
      <path d="M 9.8125 72.90625 
L 55.90625 72.90625 
L 55.90625 64.59375 
L 19.671875 64.59375 
L 19.671875 43.015625 
L 54.390625 43.015625 
L 54.390625 34.71875 
L 19.671875 34.71875 
L 19.671875 8.296875 
L 56.78125 8.296875 
L 56.78125 0 
L 9.8125 0 
z
" id="DejaVuSans-45"/>
      <path d="M 53.515625 70.515625 
L 53.515625 60.890625 
Q 47.90625 63.578125 42.921875 64.890625 
Q 37.9375 66.21875 33.296875 66.21875 
Q 25.25 66.21875 20.875 63.09375 
Q 16.5 59.96875 16.5 54.203125 
Q 16.5 49.359375 19.40625 46.890625 
Q 22.3125 44.4375 30.421875 42.921875 
L 36.375 41.703125 
Q 47.40625 39.59375 52.65625 34.296875 
Q 57.90625 29 57.90625 20.125 
Q 57.90625 9.515625 50.796875 4.046875 
Q 43.703125 -1.421875 29.984375 -1.421875 
Q 24.8125 -1.421875 18.96875 -0.25 
Q 13.140625 0.921875 6.890625 3.21875 
L 6.890625 13.375 
Q 12.890625 10.015625 18.65625 8.296875 
Q 24.421875 6.59375 29.984375 6.59375 
Q 38.421875 6.59375 43.015625 9.90625 
Q 47.609375 13.234375 47.609375 19.390625 
Q 47.609375 24.75 44.3125 27.78125 
Q 41.015625 30.8125 33.5 32.328125 
L 27.484375 33.5 
Q 16.453125 35.6875 11.515625 40.375 
Q 6.59375 45.0625 6.59375 53.421875 
Q 6.59375 63.09375 13.40625 68.65625 
Q 20.21875 74.21875 32.171875 74.21875 
Q 37.3125 74.21875 42.625 73.28125 
Q 47.953125 72.359375 53.515625 70.515625 
z
" id="DejaVuSans-53"/>
      <path d="M -0.296875 72.90625 
L 61.375 72.90625 
L 61.375 64.59375 
L 35.5 64.59375 
L 35.5 0 
L 25.59375 0 
L 25.59375 64.59375 
L -0.296875 64.59375 
z
" id="DejaVuSans-54"/>
      <path d="M 34.1875 63.1875 
L 20.796875 26.90625 
L 47.609375 26.90625 
z
M 28.609375 72.90625 
L 39.796875 72.90625 
L 67.578125 0 
L 57.328125 0 
L 50.6875 18.703125 
L 17.828125 18.703125 
L 11.1875 0 
L 0.78125 0 
z
" id="DejaVuSans-41"/>
     </defs>
     <g style="fill:#262626;" transform="translate(106.573 43.425969)scale(0.13 -0.13)">
      <use xlink:href="#DejaVuSans-4e"/>
      <use x="74.804688" xlink:href="#DejaVuSans-45"/>
      <use x="137.988281" xlink:href="#DejaVuSans-53"/>
      <use x="201.464844" xlink:href="#DejaVuSans-54"/>
      <use x="262.439453" xlink:href="#DejaVuSans-41"/>
     </g>
    </g>
    <g id="line2d_66">
     <path d="M 70.173 57.957531 
L 96.173 57.957531 
" style="fill:none;"/>
    </g>
    <g id="line2d_67">
     <defs>
      <path d="M 0 3 
C 0.795609 3 1.55874 2.683901 2.12132 2.12132 
C 2.683901 1.55874 3 0.795609 3 0 
C 3 -0.795609 2.683901 -1.55874 2.12132 -2.12132 
C 1.55874 -2.683901 0.795609 -3 0 -3 
C -0.795609 -3 -1.55874 -2.683901 -2.12132 -2.12132 
C -2.683901 -1.55874 -3 -0.795609 -3 0 
C -3 0.795609 -2.683901 1.55874 -2.12132 2.12132 
C -1.55874 2.683901 -0.795609 3 0 3 
z
" id="mc415aa73ae"/>
     </defs>
     <g>
      <use style="fill:#0000ff;" x="83.173" xlink:href="#mc415aa73ae" y="57.957531"/>
     </g>
    </g>
    <g id="text_20">
     <!-- RTE -->
     <defs>
      <path d="M 44.390625 34.1875 
Q 47.5625 33.109375 50.5625 29.59375 
Q 53.5625 26.078125 56.59375 19.921875 
L 66.609375 0 
L 56 0 
L 46.6875 18.703125 
Q 43.0625 26.03125 39.671875 28.421875 
Q 36.28125 30.8125 30.421875 30.8125 
L 19.671875 30.8125 
L 19.671875 0 
L 9.8125 0 
L 9.8125 72.90625 
L 32.078125 72.90625 
Q 44.578125 72.90625 50.734375 67.671875 
Q 56.890625 62.453125 56.890625 51.90625 
Q 56.890625 45.015625 53.6875 40.46875 
Q 50.484375 35.9375 44.390625 34.1875 
z
M 19.671875 64.796875 
L 19.671875 38.921875 
L 32.078125 38.921875 
Q 39.203125 38.921875 42.84375 42.21875 
Q 46.484375 45.515625 46.484375 51.90625 
Q 46.484375 58.296875 42.84375 61.546875 
Q 39.203125 64.796875 32.078125 64.796875 
z
" id="DejaVuSans-52"/>
     </defs>
     <g style="fill:#262626;" transform="translate(106.573 62.507531)scale(0.13 -0.13)">
      <use xlink:href="#DejaVuSans-52"/>
      <use x="69.373047" xlink:href="#DejaVuSans-54"/>
      <use x="130.457031" xlink:href="#DejaVuSans-45"/>
     </g>
    </g>
    <g id="line2d_68">
     <path d="M 70.173 77.039094 
L 96.173 77.039094 
" style="fill:none;"/>
    </g>
    <g id="line2d_69">
     <defs>
      <path d="M 0 3 
C 0.795609 3 1.55874 2.683901 2.12132 2.12132 
C 2.683901 1.55874 3 0.795609 3 0 
C 3 -0.795609 2.683901 -1.55874 2.12132 -2.12132 
C 1.55874 -2.683901 0.795609 -3 0 -3 
C -0.795609 -3 -1.55874 -2.683901 -2.12132 -2.12132 
C -2.683901 -1.55874 -3 -0.795609 -3 0 
C -3 0.795609 -2.683901 1.55874 -2.12132 2.12132 
C -1.55874 2.683901 -0.795609 3 0 3 
z
" id="md79690edd7"/>
     </defs>
     <g>
      <use style="fill:#ffa500;" x="83.173" xlink:href="#md79690edd7" y="77.039094"/>
     </g>
    </g>
    <g id="text_21">
     <!-- Synthetic -->
     <defs>
      <path d="M 32.171875 -5.078125 
Q 28.375 -14.84375 24.75 -17.8125 
Q 21.140625 -20.796875 15.09375 -20.796875 
L 7.90625 -20.796875 
L 7.90625 -13.28125 
L 13.1875 -13.28125 
Q 16.890625 -13.28125 18.9375 -11.515625 
Q 21 -9.765625 23.484375 -3.21875 
L 25.09375 0.875 
L 2.984375 54.6875 
L 12.5 54.6875 
L 29.59375 11.921875 
L 46.6875 54.6875 
L 56.203125 54.6875 
z
" id="DejaVuSans-79"/>
      <path d="M 18.3125 70.21875 
L 18.3125 54.6875 
L 36.8125 54.6875 
L 36.8125 47.703125 
L 18.3125 47.703125 
L 18.3125 18.015625 
Q 18.3125 11.328125 20.140625 9.421875 
Q 21.96875 7.515625 27.59375 7.515625 
L 36.8125 7.515625 
L 36.8125 0 
L 27.59375 0 
Q 17.1875 0 13.234375 3.875 
Q 9.28125 7.765625 9.28125 18.015625 
L 9.28125 47.703125 
L 2.6875 47.703125 
L 2.6875 54.6875 
L 9.28125 54.6875 
L 9.28125 70.21875 
z
" id="DejaVuSans-74"/>
      <path d="M 54.890625 33.015625 
L 54.890625 0 
L 45.90625 0 
L 45.90625 32.71875 
Q 45.90625 40.484375 42.875 44.328125 
Q 39.84375 48.1875 33.796875 48.1875 
Q 26.515625 48.1875 22.3125 43.546875 
Q 18.109375 38.921875 18.109375 30.90625 
L 18.109375 0 
L 9.078125 0 
L 9.078125 75.984375 
L 18.109375 75.984375 
L 18.109375 46.1875 
Q 21.34375 51.125 25.703125 53.5625 
Q 30.078125 56 35.796875 56 
Q 45.21875 56 50.046875 50.171875 
Q 54.890625 44.34375 54.890625 33.015625 
z
" id="DejaVuSans-68"/>
     </defs>
     <g style="fill:#262626;" transform="translate(106.573 81.589094)scale(0.13 -0.13)">
      <use xlink:href="#DejaVuSans-53"/>
      <use x="63.476562" xlink:href="#DejaVuSans-79"/>
      <use x="122.65625" xlink:href="#DejaVuSans-6e"/>
      <use x="186.035156" xlink:href="#DejaVuSans-74"/>
      <use x="225.244141" xlink:href="#DejaVuSans-68"/>
      <use x="288.623047" xlink:href="#DejaVuSans-65"/>
      <use x="350.146484" xlink:href="#DejaVuSans-74"/>
      <use x="389.355469" xlink:href="#DejaVuSans-69"/>
      <use x="417.138672" xlink:href="#DejaVuSans-63"/>
     </g>
    </g>
    <g id="line2d_70">
     <path d="M 70.173 96.120656 
L 96.173 96.120656 
" style="fill:none;stroke:#1a1a1a;stroke-dasharray:6.475,2.8;stroke-dashoffset:0;stroke-width:1.75;"/>
    </g>
    <g id="line2d_71"/>
    <g id="text_22">
     <!-- y = 4.22log10(x) + -0.13 -->
     <defs>
      <path d="M 10.59375 45.40625 
L 73.1875 45.40625 
L 73.1875 37.203125 
L 10.59375 37.203125 
z
M 10.59375 25.484375 
L 73.1875 25.484375 
L 73.1875 17.1875 
L 10.59375 17.1875 
z
" id="DejaVuSans-3d"/>
      <path d="M 10.6875 12.40625 
L 21 12.40625 
L 21 0 
L 10.6875 0 
z
" id="DejaVuSans-2e"/>
      <path d="M 46 62.703125 
L 46 35.5 
L 73.1875 35.5 
L 73.1875 27.203125 
L 46 27.203125 
L 46 0 
L 37.796875 0 
L 37.796875 27.203125 
L 10.59375 27.203125 
L 10.59375 35.5 
L 37.796875 35.5 
L 37.796875 62.703125 
z
" id="DejaVuSans-2b"/>
      <path d="M 4.890625 31.390625 
L 31.203125 31.390625 
L 31.203125 23.390625 
L 4.890625 23.390625 
z
" id="DejaVuSans-2d"/>
     </defs>
     <g style="fill:#262626;" transform="translate(106.573 100.670656)scale(0.13 -0.13)">
      <use xlink:href="#DejaVuSans-79"/>
      <use x="59.179688" xlink:href="#DejaVuSans-20"/>
      <use x="90.966797" xlink:href="#DejaVuSans-3d"/>
      <use x="174.755859" xlink:href="#DejaVuSans-20"/>
      <use x="206.542969" xlink:href="#DejaVuSans-34"/>
      <use x="270.166016" xlink:href="#DejaVuSans-2e"/>
      <use x="301.953125" xlink:href="#DejaVuSans-32"/>
      <use x="365.576172" xlink:href="#DejaVuSans-32"/>
      <use x="429.199219" xlink:href="#DejaVuSans-6c"/>
      <use x="456.982422" xlink:href="#DejaVuSans-6f"/>
      <use x="518.164062" xlink:href="#DejaVuSans-67"/>
      <use x="581.640625" xlink:href="#DejaVuSans-31"/>
      <use x="645.263672" xlink:href="#DejaVuSans-30"/>
      <use x="708.886719" xlink:href="#DejaVuSans-28"/>
      <use x="747.900391" xlink:href="#DejaVuSans-78"/>
      <use x="807.080078" xlink:href="#DejaVuSans-29"/>
      <use x="846.09375" xlink:href="#DejaVuSans-20"/>
      <use x="877.880859" xlink:href="#DejaVuSans-2b"/>
      <use x="961.669922" xlink:href="#DejaVuSans-20"/>
      <use x="993.457031" xlink:href="#DejaVuSans-2d"/>
      <use x="1029.541016" xlink:href="#DejaVuSans-30"/>
      <use x="1093.164062" xlink:href="#DejaVuSans-2e"/>
      <use x="1124.951172" xlink:href="#DejaVuSans-31"/>
      <use x="1188.574219" xlink:href="#DejaVuSans-33"/>
     </g>
    </g>
   </g>
  </g>
 </g>
 <defs>
  <clipPath id="p0a9432fd06">
   <rect height="355.304" width="644.679" x="58.473" y="21.848"/>
  </clipPath>
 </defs>
</svg>
