<?xml version="1.0" encoding="utf-8" standalone="no"?>
<!DOCTYPE svg PUBLIC "-//W3C//DTD SVG 1.1//EN"
  "http://www.w3.org/Graphics/SVG/1.1/DTD/svg11.dtd">
<!-- Created with matplotlib (http://matplotlib.org/) -->
<svg height="432pt" version="1.1" viewBox="0 0 720 432" width="720pt" xmlns="http://www.w3.org/2000/svg" xmlns:xlink="http://www.w3.org/1999/xlink">
 <defs>
  <style type="text/css">
*{stroke-linecap:butt;stroke-linejoin:round;}
  </style>
 </defs>
 <g id="figure_1">
  <g id="patch_1">
   <path d="M 0 432 
L 720 432 
L 720 0 
L 0 0 
z
" style="fill:#ffffff;"/>
  </g>
  <g id="axes_1">
   <g id="patch_2">
    <path d="M 90 378 
L 648 378 
L 648 51.84 
L 90 51.84 
z
" style="fill:#ffffff;"/>
   </g>
   <g id="matplotlib.axis_1">
    <g id="xtick_1">
     <g id="line2d_1">
      <path clip-path="url(#pfd772243cf)" d="M 91.532032 378 
L 91.532032 51.84 
" style="fill:none;stroke:#cccccc;stroke-linecap:round;stroke-width:0.8;"/>
     </g>
     <g id="line2d_2"/>
     <g id="text_1">
      <!-- 2017-07-21 -->
      <defs>
       <path d="M 19.1875 8.296875 
L 53.609375 8.296875 
L 53.609375 0 
L 7.328125 0 
L 7.328125 8.296875 
Q 12.9375 14.109375 22.625 23.890625 
Q 32.328125 33.6875 34.8125 36.53125 
Q 39.546875 41.84375 41.421875 45.53125 
Q 43.3125 49.21875 43.3125 52.78125 
Q 43.3125 58.59375 39.234375 62.25 
Q 35.15625 65.921875 28.609375 65.921875 
Q 23.96875 65.921875 18.8125 64.3125 
Q 13.671875 62.703125 7.8125 59.421875 
L 7.8125 69.390625 
Q 13.765625 71.78125 18.9375 73 
Q 24.125 74.21875 28.421875 74.21875 
Q 39.75 74.21875 46.484375 68.546875 
Q 53.21875 62.890625 53.21875 53.421875 
Q 53.21875 48.921875 51.53125 44.890625 
Q 49.859375 40.875 45.40625 35.40625 
Q 44.1875 33.984375 37.640625 27.21875 
Q 31.109375 20.453125 19.1875 8.296875 
z
" id="DejaVuSans-32"/>
       <path d="M 31.78125 66.40625 
Q 24.171875 66.40625 20.328125 58.90625 
Q 16.5 51.421875 16.5 36.375 
Q 16.5 21.390625 20.328125 13.890625 
Q 24.171875 6.390625 31.78125 6.390625 
Q 39.453125 6.390625 43.28125 13.890625 
Q 47.125 21.390625 47.125 36.375 
Q 47.125 51.421875 43.28125 58.90625 
Q 39.453125 66.40625 31.78125 66.40625 
z
M 31.78125 74.21875 
Q 44.046875 74.21875 50.515625 64.515625 
Q 56.984375 54.828125 56.984375 36.375 
Q 56.984375 17.96875 50.515625 8.265625 
Q 44.046875 -1.421875 31.78125 -1.421875 
Q 19.53125 -1.421875 13.0625 8.265625 
Q 6.59375 17.96875 6.59375 36.375 
Q 6.59375 54.828125 13.0625 64.515625 
Q 19.53125 74.21875 31.78125 74.21875 
z
" id="DejaVuSans-30"/>
       <path d="M 12.40625 8.296875 
L 28.515625 8.296875 
L 28.515625 63.921875 
L 10.984375 60.40625 
L 10.984375 69.390625 
L 28.421875 72.90625 
L 38.28125 72.90625 
L 38.28125 8.296875 
L 54.390625 8.296875 
L 54.390625 0 
L 12.40625 0 
z
" id="DejaVuSans-31"/>
       <path d="M 8.203125 72.90625 
L 55.078125 72.90625 
L 55.078125 68.703125 
L 28.609375 0 
L 18.3125 0 
L 43.21875 64.59375 
L 8.203125 64.59375 
z
" id="DejaVuSans-37"/>
       <path d="M 4.890625 31.390625 
L 31.203125 31.390625 
L 31.203125 23.390625 
L 4.890625 23.390625 
z
" id="DejaVuSans-2d"/>
      </defs>
      <g style="fill:#262626;" transform="translate(94.291407 439.615625)rotate(-90)scale(0.1 -0.1)">
       <use xlink:href="#DejaVuSans-32"/>
       <use x="63.623047" xlink:href="#DejaVuSans-30"/>
       <use x="127.246094" xlink:href="#DejaVuSans-31"/>
       <use x="190.869141" xlink:href="#DejaVuSans-37"/>
       <use x="254.492188" xlink:href="#DejaVuSans-2d"/>
       <use x="290.576172" xlink:href="#DejaVuSans-30"/>
       <use x="354.199219" xlink:href="#DejaVuSans-37"/>
       <use x="417.822266" xlink:href="#DejaVuSans-2d"/>
       <use x="453.90625" xlink:href="#DejaVuSans-32"/>
       <use x="517.529297" xlink:href="#DejaVuSans-31"/>
      </g>
     </g>
    </g>
    <g id="xtick_2">
     <g id="line2d_3">
      <path clip-path="url(#pfd772243cf)" d="M 173.24039 378 
L 173.24039 51.84 
" style="fill:none;stroke:#cccccc;stroke-linecap:round;stroke-width:0.8;"/>
     </g>
     <g id="line2d_4"/>
     <g id="text_2">
      <!-- 2017-07-23 -->
      <defs>
       <path d="M 40.578125 39.3125 
Q 47.65625 37.796875 51.625 33 
Q 55.609375 28.21875 55.609375 21.1875 
Q 55.609375 10.40625 48.1875 4.484375 
Q 40.765625 -1.421875 27.09375 -1.421875 
Q 22.515625 -1.421875 17.65625 -0.515625 
Q 12.796875 0.390625 7.625 2.203125 
L 7.625 11.71875 
Q 11.71875 9.328125 16.59375 8.109375 
Q 21.484375 6.890625 26.8125 6.890625 
Q 36.078125 6.890625 40.9375 10.546875 
Q 45.796875 14.203125 45.796875 21.1875 
Q 45.796875 27.640625 41.28125 31.265625 
Q 36.765625 34.90625 28.71875 34.90625 
L 20.21875 34.90625 
L 20.21875 43.015625 
L 29.109375 43.015625 
Q 36.375 43.015625 40.234375 45.921875 
Q 44.09375 48.828125 44.09375 54.296875 
Q 44.09375 59.90625 40.109375 62.90625 
Q 36.140625 65.921875 28.71875 65.921875 
Q 24.65625 65.921875 20.015625 65.03125 
Q 15.375 64.15625 9.8125 62.3125 
L 9.8125 71.09375 
Q 15.4375 72.65625 20.34375 73.4375 
Q 25.25 74.21875 29.59375 74.21875 
Q 40.828125 74.21875 47.359375 69.109375 
Q 53.90625 64.015625 53.90625 55.328125 
Q 53.90625 49.265625 50.4375 45.09375 
Q 46.96875 40.921875 40.578125 39.3125 
z
" id="DejaVuSans-33"/>
      </defs>
      <g style="fill:#262626;" transform="translate(175.999765 439.615625)rotate(-90)scale(0.1 -0.1)">
       <use xlink:href="#DejaVuSans-32"/>
       <use x="63.623047" xlink:href="#DejaVuSans-30"/>
       <use x="127.246094" xlink:href="#DejaVuSans-31"/>
       <use x="190.869141" xlink:href="#DejaVuSans-37"/>
       <use x="254.492188" xlink:href="#DejaVuSans-2d"/>
       <use x="290.576172" xlink:href="#DejaVuSans-30"/>
       <use x="354.199219" xlink:href="#DejaVuSans-37"/>
       <use x="417.822266" xlink:href="#DejaVuSans-2d"/>
       <use x="453.90625" xlink:href="#DejaVuSans-32"/>
       <use x="517.529297" xlink:href="#DejaVuSans-33"/>
      </g>
     </g>
    </g>
    <g id="xtick_3">
     <g id="line2d_5">
      <path clip-path="url(#pfd772243cf)" d="M 254.948749 378 
L 254.948749 51.84 
" style="fill:none;stroke:#cccccc;stroke-linecap:round;stroke-width:0.8;"/>
     </g>
     <g id="line2d_6"/>
     <g id="text_3">
      <!-- 2017-07-25 -->
      <defs>
       <path d="M 10.796875 72.90625 
L 49.515625 72.90625 
L 49.515625 64.59375 
L 19.828125 64.59375 
L 19.828125 46.734375 
Q 21.96875 47.46875 24.109375 47.828125 
Q 26.265625 48.1875 28.421875 48.1875 
Q 40.625 48.1875 47.75 41.5 
Q 54.890625 34.8125 54.890625 23.390625 
Q 54.890625 11.625 47.5625 5.09375 
Q 40.234375 -1.421875 26.90625 -1.421875 
Q 22.3125 -1.421875 17.546875 -0.640625 
Q 12.796875 0.140625 7.71875 1.703125 
L 7.71875 11.625 
Q 12.109375 9.234375 16.796875 8.0625 
Q 21.484375 6.890625 26.703125 6.890625 
Q 35.15625 6.890625 40.078125 11.328125 
Q 45.015625 15.765625 45.015625 23.390625 
Q 45.015625 31 40.078125 35.4375 
Q 35.15625 39.890625 26.703125 39.890625 
Q 22.75 39.890625 18.8125 39.015625 
Q 14.890625 38.140625 10.796875 36.28125 
z
" id="DejaVuSans-35"/>
      </defs>
      <g style="fill:#262626;" transform="translate(257.708124 439.615625)rotate(-90)scale(0.1 -0.1)">
       <use xlink:href="#DejaVuSans-32"/>
       <use x="63.623047" xlink:href="#DejaVuSans-30"/>
       <use x="127.246094" xlink:href="#DejaVuSans-31"/>
       <use x="190.869141" xlink:href="#DejaVuSans-37"/>
       <use x="254.492188" xlink:href="#DejaVuSans-2d"/>
       <use x="290.576172" xlink:href="#DejaVuSans-30"/>
       <use x="354.199219" xlink:href="#DejaVuSans-37"/>
       <use x="417.822266" xlink:href="#DejaVuSans-2d"/>
       <use x="453.90625" xlink:href="#DejaVuSans-32"/>
       <use x="517.529297" xlink:href="#DejaVuSans-35"/>
      </g>
     </g>
    </g>
    <g id="xtick_4">
     <g id="line2d_7">
      <path clip-path="url(#pfd772243cf)" d="M 336.657108 378 
L 336.657108 51.84 
" style="fill:none;stroke:#cccccc;stroke-linecap:round;stroke-width:0.8;"/>
     </g>
     <g id="line2d_8"/>
     <g id="text_4">
      <!-- 2017-07-27 -->
      <g style="fill:#262626;" transform="translate(339.416483 439.615625)rotate(-90)scale(0.1 -0.1)">
       <use xlink:href="#DejaVuSans-32"/>
       <use x="63.623047" xlink:href="#DejaVuSans-30"/>
       <use x="127.246094" xlink:href="#DejaVuSans-31"/>
       <use x="190.869141" xlink:href="#DejaVuSans-37"/>
       <use x="254.492188" xlink:href="#DejaVuSans-2d"/>
       <use x="290.576172" xlink:href="#DejaVuSans-30"/>
       <use x="354.199219" xlink:href="#DejaVuSans-37"/>
       <use x="417.822266" xlink:href="#DejaVuSans-2d"/>
       <use x="453.90625" xlink:href="#DejaVuSans-32"/>
       <use x="517.529297" xlink:href="#DejaVuSans-37"/>
      </g>
     </g>
    </g>
    <g id="xtick_5">
     <g id="line2d_9">
      <path clip-path="url(#pfd772243cf)" d="M 418.365467 378 
L 418.365467 51.84 
" style="fill:none;stroke:#cccccc;stroke-linecap:round;stroke-width:0.8;"/>
     </g>
     <g id="line2d_10"/>
     <g id="text_5">
      <!-- 2017-07-29 -->
      <defs>
       <path d="M 10.984375 1.515625 
L 10.984375 10.5 
Q 14.703125 8.734375 18.5 7.8125 
Q 22.3125 6.890625 25.984375 6.890625 
Q 35.75 6.890625 40.890625 13.453125 
Q 46.046875 20.015625 46.78125 33.40625 
Q 43.953125 29.203125 39.59375 26.953125 
Q 35.25 24.703125 29.984375 24.703125 
Q 19.046875 24.703125 12.671875 31.3125 
Q 6.296875 37.9375 6.296875 49.421875 
Q 6.296875 60.640625 12.9375 67.421875 
Q 19.578125 74.21875 30.609375 74.21875 
Q 43.265625 74.21875 49.921875 64.515625 
Q 56.59375 54.828125 56.59375 36.375 
Q 56.59375 19.140625 48.40625 8.859375 
Q 40.234375 -1.421875 26.421875 -1.421875 
Q 22.703125 -1.421875 18.890625 -0.6875 
Q 15.09375 0.046875 10.984375 1.515625 
z
M 30.609375 32.421875 
Q 37.25 32.421875 41.125 36.953125 
Q 45.015625 41.5 45.015625 49.421875 
Q 45.015625 57.28125 41.125 61.84375 
Q 37.25 66.40625 30.609375 66.40625 
Q 23.96875 66.40625 20.09375 61.84375 
Q 16.21875 57.28125 16.21875 49.421875 
Q 16.21875 41.5 20.09375 36.953125 
Q 23.96875 32.421875 30.609375 32.421875 
z
" id="DejaVuSans-39"/>
      </defs>
      <g style="fill:#262626;" transform="translate(421.124842 439.615625)rotate(-90)scale(0.1 -0.1)">
       <use xlink:href="#DejaVuSans-32"/>
       <use x="63.623047" xlink:href="#DejaVuSans-30"/>
       <use x="127.246094" xlink:href="#DejaVuSans-31"/>
       <use x="190.869141" xlink:href="#DejaVuSans-37"/>
       <use x="254.492188" xlink:href="#DejaVuSans-2d"/>
       <use x="290.576172" xlink:href="#DejaVuSans-30"/>
       <use x="354.199219" xlink:href="#DejaVuSans-37"/>
       <use x="417.822266" xlink:href="#DejaVuSans-2d"/>
       <use x="453.90625" xlink:href="#DejaVuSans-32"/>
       <use x="517.529297" xlink:href="#DejaVuSans-39"/>
      </g>
     </g>
    </g>
    <g id="xtick_6">
     <g id="line2d_11">
      <path clip-path="url(#pfd772243cf)" d="M 500.073826 378 
L 500.073826 51.84 
" style="fill:none;stroke:#cccccc;stroke-linecap:round;stroke-width:0.8;"/>
     </g>
     <g id="line2d_12"/>
     <g id="text_6">
      <!-- 2017-07-31 -->
      <g style="fill:#262626;" transform="translate(502.833201 439.615625)rotate(-90)scale(0.1 -0.1)">
       <use xlink:href="#DejaVuSans-32"/>
       <use x="63.623047" xlink:href="#DejaVuSans-30"/>
       <use x="127.246094" xlink:href="#DejaVuSans-31"/>
       <use x="190.869141" xlink:href="#DejaVuSans-37"/>
       <use x="254.492188" xlink:href="#DejaVuSans-2d"/>
       <use x="290.576172" xlink:href="#DejaVuSans-30"/>
       <use x="354.199219" xlink:href="#DejaVuSans-37"/>
       <use x="417.822266" xlink:href="#DejaVuSans-2d"/>
       <use x="453.90625" xlink:href="#DejaVuSans-33"/>
       <use x="517.529297" xlink:href="#DejaVuSans-31"/>
      </g>
     </g>
    </g>
    <g id="xtick_7">
     <g id="line2d_13">
      <path clip-path="url(#pfd772243cf)" d="M 581.782184 378 
L 581.782184 51.84 
" style="fill:none;stroke:#cccccc;stroke-linecap:round;stroke-width:0.8;"/>
     </g>
     <g id="line2d_14"/>
     <g id="text_7">
      <!-- 2017-08-02 -->
      <defs>
       <path d="M 31.78125 34.625 
Q 24.75 34.625 20.71875 30.859375 
Q 16.703125 27.09375 16.703125 20.515625 
Q 16.703125 13.921875 20.71875 10.15625 
Q 24.75 6.390625 31.78125 6.390625 
Q 38.8125 6.390625 42.859375 10.171875 
Q 46.921875 13.96875 46.921875 20.515625 
Q 46.921875 27.09375 42.890625 30.859375 
Q 38.875 34.625 31.78125 34.625 
z
M 21.921875 38.8125 
Q 15.578125 40.375 12.03125 44.71875 
Q 8.5 49.078125 8.5 55.328125 
Q 8.5 64.0625 14.71875 69.140625 
Q 20.953125 74.21875 31.78125 74.21875 
Q 42.671875 74.21875 48.875 69.140625 
Q 55.078125 64.0625 55.078125 55.328125 
Q 55.078125 49.078125 51.53125 44.71875 
Q 48 40.375 41.703125 38.8125 
Q 48.828125 37.15625 52.796875 32.3125 
Q 56.78125 27.484375 56.78125 20.515625 
Q 56.78125 9.90625 50.3125 4.234375 
Q 43.84375 -1.421875 31.78125 -1.421875 
Q 19.734375 -1.421875 13.25 4.234375 
Q 6.78125 9.90625 6.78125 20.515625 
Q 6.78125 27.484375 10.78125 32.3125 
Q 14.796875 37.15625 21.921875 38.8125 
z
M 18.3125 54.390625 
Q 18.3125 48.734375 21.84375 45.5625 
Q 25.390625 42.390625 31.78125 42.390625 
Q 38.140625 42.390625 41.71875 45.5625 
Q 45.3125 48.734375 45.3125 54.390625 
Q 45.3125 60.0625 41.71875 63.234375 
Q 38.140625 66.40625 31.78125 66.40625 
Q 25.390625 66.40625 21.84375 63.234375 
Q 18.3125 60.0625 18.3125 54.390625 
z
" id="DejaVuSans-38"/>
      </defs>
      <g style="fill:#262626;" transform="translate(584.541559 439.615625)rotate(-90)scale(0.1 -0.1)">
       <use xlink:href="#DejaVuSans-32"/>
       <use x="63.623047" xlink:href="#DejaVuSans-30"/>
       <use x="127.246094" xlink:href="#DejaVuSans-31"/>
       <use x="190.869141" xlink:href="#DejaVuSans-37"/>
       <use x="254.492188" xlink:href="#DejaVuSans-2d"/>
       <use x="290.576172" xlink:href="#DejaVuSans-30"/>
       <use x="354.199219" xlink:href="#DejaVuSans-38"/>
       <use x="417.822266" xlink:href="#DejaVuSans-2d"/>
       <use x="453.90625" xlink:href="#DejaVuSans-30"/>
       <use x="517.529297" xlink:href="#DejaVuSans-32"/>
      </g>
     </g>
    </g>
   </g>
   <g id="matplotlib.axis_2">
    <g id="ytick_1">
     <g id="line2d_15">
      <path clip-path="url(#pfd772243cf)" d="M 90 361.319915 
L 648 361.319915 
" style="fill:none;stroke:#cccccc;stroke-linecap:round;stroke-width:0.8;"/>
     </g>
     <g id="line2d_16"/>
     <g id="text_8">
      <!-- 1800 -->
      <g style="fill:#262626;" transform="translate(61.05 365.119133)scale(0.1 -0.1)">
       <use xlink:href="#DejaVuSans-31"/>
       <use x="63.623047" xlink:href="#DejaVuSans-38"/>
       <use x="127.246094" xlink:href="#DejaVuSans-30"/>
       <use x="190.869141" xlink:href="#DejaVuSans-30"/>
      </g>
     </g>
    </g>
    <g id="ytick_2">
     <g id="line2d_17">
      <path clip-path="url(#pfd772243cf)" d="M 90 314.954146 
L 648 314.954146 
" style="fill:none;stroke:#cccccc;stroke-linecap:round;stroke-width:0.8;"/>
     </g>
     <g id="line2d_18"/>
     <g id="text_9">
      <!-- 2000 -->
      <g style="fill:#262626;" transform="translate(61.05 318.753365)scale(0.1 -0.1)">
       <use xlink:href="#DejaVuSans-32"/>
       <use x="63.623047" xlink:href="#DejaVuSans-30"/>
       <use x="127.246094" xlink:href="#DejaVuSans-30"/>
       <use x="190.869141" xlink:href="#DejaVuSans-30"/>
      </g>
     </g>
    </g>
    <g id="ytick_3">
     <g id="line2d_19">
      <path clip-path="url(#pfd772243cf)" d="M 90 268.588377 
L 648 268.588377 
" style="fill:none;stroke:#cccccc;stroke-linecap:round;stroke-width:0.8;"/>
     </g>
     <g id="line2d_20"/>
     <g id="text_10">
      <!-- 2200 -->
      <g style="fill:#262626;" transform="translate(61.05 272.387596)scale(0.1 -0.1)">
       <use xlink:href="#DejaVuSans-32"/>
       <use x="63.623047" xlink:href="#DejaVuSans-32"/>
       <use x="127.246094" xlink:href="#DejaVuSans-30"/>
       <use x="190.869141" xlink:href="#DejaVuSans-30"/>
      </g>
     </g>
    </g>
    <g id="ytick_4">
     <g id="line2d_21">
      <path clip-path="url(#pfd772243cf)" d="M 90 222.222609 
L 648 222.222609 
" style="fill:none;stroke:#cccccc;stroke-linecap:round;stroke-width:0.8;"/>
     </g>
     <g id="line2d_22"/>
     <g id="text_11">
      <!-- 2400 -->
      <defs>
       <path d="M 37.796875 64.3125 
L 12.890625 25.390625 
L 37.796875 25.390625 
z
M 35.203125 72.90625 
L 47.609375 72.90625 
L 47.609375 25.390625 
L 58.015625 25.390625 
L 58.015625 17.1875 
L 47.609375 17.1875 
L 47.609375 0 
L 37.796875 0 
L 37.796875 17.1875 
L 4.890625 17.1875 
L 4.890625 26.703125 
z
" id="DejaVuSans-34"/>
      </defs>
      <g style="fill:#262626;" transform="translate(61.05 226.021827)scale(0.1 -0.1)">
       <use xlink:href="#DejaVuSans-32"/>
       <use x="63.623047" xlink:href="#DejaVuSans-34"/>
       <use x="127.246094" xlink:href="#DejaVuSans-30"/>
       <use x="190.869141" xlink:href="#DejaVuSans-30"/>
      </g>
     </g>
    </g>
    <g id="ytick_5">
     <g id="line2d_23">
      <path clip-path="url(#pfd772243cf)" d="M 90 175.85684 
L 648 175.85684 
" style="fill:none;stroke:#cccccc;stroke-linecap:round;stroke-width:0.8;"/>
     </g>
     <g id="line2d_24"/>
     <g id="text_12">
      <!-- 2600 -->
      <defs>
       <path d="M 33.015625 40.375 
Q 26.375 40.375 22.484375 35.828125 
Q 18.609375 31.296875 18.609375 23.390625 
Q 18.609375 15.53125 22.484375 10.953125 
Q 26.375 6.390625 33.015625 6.390625 
Q 39.65625 6.390625 43.53125 10.953125 
Q 47.40625 15.53125 47.40625 23.390625 
Q 47.40625 31.296875 43.53125 35.828125 
Q 39.65625 40.375 33.015625 40.375 
z
M 52.59375 71.296875 
L 52.59375 62.3125 
Q 48.875 64.0625 45.09375 64.984375 
Q 41.3125 65.921875 37.59375 65.921875 
Q 27.828125 65.921875 22.671875 59.328125 
Q 17.53125 52.734375 16.796875 39.40625 
Q 19.671875 43.65625 24.015625 45.921875 
Q 28.375 48.1875 33.59375 48.1875 
Q 44.578125 48.1875 50.953125 41.515625 
Q 57.328125 34.859375 57.328125 23.390625 
Q 57.328125 12.15625 50.6875 5.359375 
Q 44.046875 -1.421875 33.015625 -1.421875 
Q 20.359375 -1.421875 13.671875 8.265625 
Q 6.984375 17.96875 6.984375 36.375 
Q 6.984375 53.65625 15.1875 63.9375 
Q 23.390625 74.21875 37.203125 74.21875 
Q 40.921875 74.21875 44.703125 73.484375 
Q 48.484375 72.75 52.59375 71.296875 
z
" id="DejaVuSans-36"/>
      </defs>
      <g style="fill:#262626;" transform="translate(61.05 179.656059)scale(0.1 -0.1)">
       <use xlink:href="#DejaVuSans-32"/>
       <use x="63.623047" xlink:href="#DejaVuSans-36"/>
       <use x="127.246094" xlink:href="#DejaVuSans-30"/>
       <use x="190.869141" xlink:href="#DejaVuSans-30"/>
      </g>
     </g>
    </g>
    <g id="ytick_6">
     <g id="line2d_25">
      <path clip-path="url(#pfd772243cf)" d="M 90 129.491071 
L 648 129.491071 
" style="fill:none;stroke:#cccccc;stroke-linecap:round;stroke-width:0.8;"/>
     </g>
     <g id="line2d_26"/>
     <g id="text_13">
      <!-- 2800 -->
      <g style="fill:#262626;" transform="translate(61.05 133.29029)scale(0.1 -0.1)">
       <use xlink:href="#DejaVuSans-32"/>
       <use x="63.623047" xlink:href="#DejaVuSans-38"/>
       <use x="127.246094" xlink:href="#DejaVuSans-30"/>
       <use x="190.869141" xlink:href="#DejaVuSans-30"/>
      </g>
     </g>
    </g>
    <g id="ytick_7">
     <g id="line2d_27">
      <path clip-path="url(#pfd772243cf)" d="M 90 83.125302 
L 648 83.125302 
" style="fill:none;stroke:#cccccc;stroke-linecap:round;stroke-width:0.8;"/>
     </g>
     <g id="line2d_28"/>
     <g id="text_14">
      <!-- 3000 -->
      <g style="fill:#262626;" transform="translate(61.05 86.924521)scale(0.1 -0.1)">
       <use xlink:href="#DejaVuSans-33"/>
       <use x="63.623047" xlink:href="#DejaVuSans-30"/>
       <use x="127.246094" xlink:href="#DejaVuSans-30"/>
       <use x="190.869141" xlink:href="#DejaVuSans-30"/>
      </g>
     </g>
    </g>
   </g>
   <g id="line2d_29">
    <path clip-path="url(#pfd772243cf)" d="M 115.363636 115.117683 
L 117.065894 139.923369 
L 120.470409 166.120028 
L 122.172666 161.947109 
L 123.874924 155.455902 
L 125.577181 167.047344 
L 127.279439 196.721436 
L 128.981696 164.265398 
L 130.683954 93.093943 
L 132.386211 128.331927 
L 134.088469 208.081049 
L 135.790726 228.481987 
L 137.492984 269.515693 
L 139.195241 287.134685 
L 140.897498 294.553208 
L 142.599756 286.207369 
L 144.302013 288.525658 
L 146.004271 262.560827 
L 147.706528 231.032105 
L 149.408786 204.603616 
L 151.111043 192.084859 
L 152.813301 182.116219 
L 154.515558 166.815515 
L 156.217816 203.444472 
L 157.920073 222.222609 
L 159.622331 236.364168 
L 161.324588 239.841601 
L 163.026846 245.869151 
L 164.729103 212.022139 
L 166.431361 221.758951 
L 168.133618 239.841601 
L 169.835876 197.185093 
L 171.538133 127.868269 
L 173.24039 154.992244 
L 174.942648 227.554672 
L 176.644905 248.187439 
L 178.347163 292.466748 
L 180.04942 320.749867 
L 181.751678 328.632048 
L 183.453935 330.718507 
L 185.156193 339.759832 
L 186.85845 318.431579 
L 190.262965 259.778881 
L 191.965223 238.218799 
L 193.66748 207.153734 
L 195.369738 188.143769 
L 197.071995 237.523312 
L 198.774253 271.370323 
L 200.47651 288.757487 
L 202.178768 280.411648 
L 203.881025 266.270089 
L 205.583282 235.90051 
L 207.28554 224.772726 
L 208.987797 231.95942 
L 210.690055 196.257778 
L 212.392312 120.449746 
L 214.09457 152.905784 
L 215.796827 222.686266 
L 217.499085 239.146114 
L 219.201342 275.775071 
L 220.9036 292.00309 
L 222.605857 279.716162 
L 224.308115 241.464403 
L 226.010372 215.731401 
L 229.414887 122.768035 
L 231.117145 100.512466 
L 232.819402 88.457366 
L 234.52166 77.329581 
L 236.223917 75.243122 
L 237.926174 98.194177 
L 239.628432 118.363287 
L 241.330689 134.591306 
L 243.032947 142.241658 
L 244.735204 144.328117 
L 246.437462 119.75426 
L 248.139719 127.404612 
L 249.841977 168.901975 
L 251.544234 140.387027 
L 253.246492 69.447401 
L 254.948749 107.467331 
L 256.651007 185.129994 
L 258.353264 204.371788 
L 260.055522 244.478178 
L 261.757779 263.719972 
L 263.460037 261.401683 
L 265.162294 219.90432 
L 266.864552 200.662526 
L 268.566809 152.442127 
L 270.269067 110.249277 
L 271.971324 93.093943 
L 273.673581 84.284447 
L 275.375839 72.461176 
L 277.078096 72.461176 
L 278.780354 97.035033 
L 280.482611 115.581341 
L 282.184869 135.518621 
L 283.887126 153.137613 
L 285.589384 154.064929 
L 287.291641 132.504846 
L 288.993899 145.487261 
L 290.696156 177.711471 
L 292.398414 150.819325 
L 294.100671 78.256897 
L 295.802929 113.031223 
L 297.505186 186.984624 
L 299.207444 201.589841 
L 300.909701 244.710006 
L 302.611959 260.938025 
L 304.314216 259.315224 
L 306.016473 229.177474 
L 307.718731 203.676301 
L 309.420988 159.165163 
L 311.123246 118.363287 
L 312.825503 93.789429 
L 314.527761 84.516275 
L 316.230018 66.665455 
L 317.932276 67.360941 
L 319.634533 94.021258 
L 321.336791 115.349512 
L 323.039048 131.113873 
L 324.741306 136.445936 
L 326.443563 136.909594 
L 328.145821 122.304377 
L 329.848078 132.968504 
L 331.550336 164.497227 
L 333.252593 129.954729 
L 334.954851 69.911058 
L 336.657108 103.062583 
L 338.359365 183.275363 
L 340.061623 209.93568 
L 341.76388 248.651097 
L 343.466138 261.633512 
L 345.168395 259.315224 
L 346.870653 223.149924 
L 348.57291 198.576067 
L 350.275168 151.978469 
L 351.977425 117.435971 
L 353.679683 104.685385 
L 355.38194 96.107718 
L 357.084198 76.170437 
L 358.786455 76.402266 
L 360.488713 104.453556 
L 363.893228 147.573721 
L 365.595485 161.483452 
L 367.297743 160.324307 
L 369 145.255433 
L 370.702257 154.296757 
L 372.404515 189.302913 
L 374.106772 152.442127 
L 375.80903 80.111527 
L 377.511287 114.422196 
L 379.213545 188.375597 
L 380.915802 207.153734 
L 382.61806 253.751331 
L 384.320317 267.661062 
L 386.022575 269.97935 
L 387.724832 233.814051 
L 389.42709 212.253968 
L 391.129347 170.292948 
L 392.831605 135.054963 
L 394.533862 118.131458 
L 396.23612 108.858304 
L 397.938377 98.426006 
L 399.640635 96.339547 
L 401.342892 132.041188 
L 403.045149 151.282982 
L 404.747407 172.147578 
L 406.449664 181.188903 
L 408.151922 183.739021 
L 409.854179 166.583686 
L 411.556437 189.76657 
L 413.258694 217.354203 
L 414.960952 181.188903 
L 416.663209 116.276827 
L 418.365467 146.646406 
L 420.067724 220.831636 
L 421.769982 243.782691 
L 423.472239 286.671027 
L 425.174497 307.071965 
L 426.876754 316.345119 
L 428.579012 310.549398 
L 430.281269 316.576948 
L 431.983527 293.162235 
L 433.685784 257.460593 
L 435.388041 229.409303 
L 437.090299 215.499572 
L 438.792556 197.185093 
L 440.494814 177.479642 
L 442.197071 222.686266 
L 445.601586 260.01071 
L 447.303844 270.906666 
L 449.006101 261.401683 
L 450.708359 237.523312 
L 452.410616 241.696231 
L 454.112874 267.892891 
L 455.815131 224.077239 
L 457.517389 152.210298 
L 459.219646 183.043534 
L 460.921904 257.92425 
L 462.624161 274.847756 
L 464.326419 319.358894 
L 466.028676 342.078121 
L 467.730933 351.583103 
L 469.433191 346.946526 
L 471.135448 363.174545 
L 472.837706 345.555553 
L 474.539963 318.663407 
L 476.242221 283.657252 
L 477.944478 262.328999 
L 481.348993 210.399338 
L 483.051251 261.401683 
L 484.753508 292.234919 
L 486.455766 308.462938 
L 488.158023 307.535623 
L 489.860281 297.335154 
L 491.562538 269.052035 
L 493.264796 254.214989 
L 494.967053 264.647287 
L 496.669311 217.586032 
L 498.371568 147.110063 
L 500.073826 183.043534 
L 501.776083 253.287674 
L 503.47834 265.806431 
L 505.180598 304.290019 
L 506.882855 321.909011 
L 508.585113 319.358894 
L 510.28737 287.598342 
L 511.989628 267.197404 
L 515.394143 182.811705 
L 517.0964 163.569911 
L 518.798658 154.528586 
L 520.500915 138.300567 
L 522.203173 126.477296 
L 523.90543 152.442127 
L 527.309945 181.188903 
L 529.012203 194.634976 
L 530.71446 196.721436 
L 532.416718 178.638786 
L 534.118975 190.462057 
L 535.821232 219.672491 
L 537.52349 184.434507 
L 539.225747 114.422196 
L 539.225747 114.422196 
" style="fill:none;stroke:#1f77b4;stroke-linecap:round;stroke-width:1.5;"/>
   </g>
   <g id="line2d_30">
    <path clip-path="url(#pfd772243cf)" d="M 115.363636 110.72962 
L 117.065894 131.848065 
L 118.768151 151.534548 
L 120.470409 159.268613 
L 122.172666 164.277103 
L 123.874924 151.210137 
L 125.577181 166.043916 
L 127.279439 195.666595 
L 128.981696 176.720252 
L 130.683954 97.423836 
L 132.386211 125.698132 
L 134.088469 196.096713 
L 135.790726 219.350157 
L 137.492984 257.447628 
L 139.195241 278.958528 
L 140.897498 282.878107 
L 142.599756 268.328797 
L 144.302013 255.350944 
L 146.004271 247.604921 
L 147.706528 223.389892 
L 149.408786 210.318106 
L 151.111043 189.300364 
L 152.813301 173.338492 
L 154.515558 176.383122 
L 156.217816 181.320031 
L 157.920073 218.080392 
L 159.622331 227.282263 
L 161.324588 240.601969 
L 163.026846 230.127562 
L 164.729103 233.312069 
L 166.431361 217.544212 
L 168.133618 242.915287 
L 169.835876 208.019855 
L 171.538133 133.219842 
L 173.24039 156.45404 
L 174.942648 222.292408 
L 176.644905 243.295108 
L 178.347163 281.476026 
L 180.04942 304.767579 
L 181.751678 323.102109 
L 183.453935 317.245831 
L 185.156193 327.7265 
L 186.85845 311.735845 
L 190.262965 260.029697 
L 191.965223 244.021083 
L 193.66748 225.602305 
L 195.369738 191.897058 
L 197.071995 218.224725 
L 198.774253 250.641675 
L 200.47651 278.944548 
L 202.178768 286.672786 
L 203.881025 281.520272 
L 205.583282 234.645987 
L 207.28554 242.002588 
L 208.987797 239.786981 
L 210.690055 195.274123 
L 212.392312 136.458563 
L 214.09457 145.302953 
L 215.796827 216.195674 
L 217.499085 240.521689 
L 219.201342 277.513676 
L 220.9036 300.472794 
L 222.605857 299.804482 
L 224.308115 284.182764 
L 226.010372 255.43579 
L 231.117145 111.490419 
L 232.819402 95.032575 
L 234.52166 74.198726 
L 236.223917 72.106677 
L 237.926174 127.808545 
L 239.628432 139.070329 
L 241.330689 145.820789 
L 243.032947 139.727199 
L 244.735204 141.075762 
L 246.437462 127.903268 
L 248.139719 119.797065 
L 249.841977 141.74994 
L 251.544234 143.137347 
L 253.246492 79.797192 
L 254.948749 102.801672 
L 256.651007 172.169531 
L 258.353264 202.278087 
L 260.055522 238.491964 
L 261.757779 260.244741 
L 263.460037 254.412417 
L 265.162294 228.954351 
L 266.864552 199.00508 
L 268.566809 162.691925 
L 270.269067 113.073567 
L 271.971324 92.98007 
L 275.375839 76.302315 
L 277.078096 72.478119 
L 280.482611 115.691612 
L 282.184869 130.736446 
L 285.589384 154.60361 
L 287.291641 132.591585 
L 288.993899 138.88071 
L 290.696156 180.525648 
L 292.398414 152.623238 
L 294.100671 89.304942 
L 295.802929 111.796202 
L 297.505186 180.623306 
L 299.207444 203.538523 
L 300.909701 236.331382 
L 302.611959 260.696637 
L 304.314216 258.345445 
L 306.016473 222.866453 
L 307.718731 211.4448 
L 309.420988 161.703521 
L 311.123246 122.64789 
L 312.825503 103.843333 
L 314.527761 87.327761 
L 316.230018 75.598612 
L 317.932276 68.622845 
L 323.039048 133.51716 
L 324.741306 147.406659 
L 326.443563 139.192258 
L 328.145821 120.272099 
L 329.848078 135.136991 
L 331.550336 162.45997 
L 333.252593 142.629597 
L 334.954851 69.650131 
L 336.657108 102.04259 
L 338.359365 168.743564 
L 340.061623 196.290659 
L 341.76388 246.339654 
L 343.466138 261.708986 
L 345.168395 259.370649 
L 346.870653 232.515721 
L 348.57291 201.240063 
L 351.977425 117.797416 
L 353.679683 97.204919 
L 355.38194 96.923599 
L 357.084198 80.990884 
L 358.786455 77.460185 
L 362.19097 123.14757 
L 363.893228 140.263975 
L 365.595485 151.488297 
L 367.297743 160.381749 
L 369 146.350013 
L 370.702257 153.31107 
L 372.404515 180.379117 
L 374.106772 157.665667 
L 375.80903 99.405184 
L 377.511287 109.320849 
L 379.213545 183.761858 
L 380.915802 211.07236 
L 382.61806 240.627976 
L 384.320317 263.858907 
L 386.022575 264.32345 
L 389.42709 211.317881 
L 391.129347 170.775016 
L 392.831605 139.372618 
L 394.533862 123.420991 
L 396.23612 110.617011 
L 397.938377 91.700433 
L 399.640635 98.087495 
L 401.342892 120.217292 
L 403.045149 149.911703 
L 404.747407 167.950171 
L 406.449664 182.561372 
L 408.151922 178.85312 
L 409.854179 169.08469 
L 411.556437 173.105978 
L 413.258694 217.360156 
L 414.960952 183.135537 
L 416.663209 116.728954 
L 418.365467 144.095595 
L 420.067724 208.623057 
L 421.769982 234.271879 
L 423.472239 280.650256 
L 425.174497 295.086754 
L 426.876754 304.74732 
L 428.579012 280.162217 
L 430.281269 284.752877 
L 431.983527 271.014805 
L 435.388041 232.855156 
L 437.090299 212.583165 
L 438.792556 198.188791 
L 440.494814 187.892794 
L 442.197071 202.374478 
L 443.899329 232.114079 
L 445.601586 251.469091 
L 447.303844 260.396454 
L 449.006101 265.418458 
L 450.708359 239.925017 
L 452.410616 251.663011 
L 454.112874 261.02303 
L 455.815131 231.974045 
L 457.517389 164.442202 
L 459.219646 176.214894 
L 460.921904 244.470582 
L 462.624161 274.173921 
L 464.326419 308.561776 
L 466.028676 333.00538 
L 467.730933 345.671669 
L 469.433191 342.036706 
L 471.135448 347.575039 
L 472.837706 337.422143 
L 474.539963 308.969115 
L 477.944478 266.483299 
L 481.348993 216.311991 
L 483.051251 246.744828 
L 484.753508 273.284488 
L 486.455766 303.787935 
L 488.158023 312.844536 
L 489.860281 295.208373 
L 491.562538 272.773781 
L 493.264796 269.377488 
L 494.967053 275.165066 
L 496.669311 226.220902 
L 498.371568 155.750292 
L 500.073826 174.671992 
L 501.776083 247.817269 
L 503.47834 267.537786 
L 505.180598 304.055587 
L 506.882855 323.721313 
L 508.585113 330.106827 
L 510.28737 316.288434 
L 511.989628 304.966256 
L 517.0964 162.973846 
L 518.798658 154.580552 
L 520.500915 141.117706 
L 522.203173 123.583347 
L 523.90543 177.644995 
L 525.607688 187.776858 
L 527.309945 191.034978 
L 529.012203 190.143318 
L 530.71446 194.338749 
L 532.416718 179.862529 
L 534.118975 172.834206 
L 535.821232 204.319507 
L 537.52349 182.130157 
L 539.225747 126.207292 
L 539.225747 126.207292 
" style="fill:none;opacity:0.4;stroke:#ff7f0e;stroke-linecap:round;stroke-width:1.5;"/>
   </g>
   <g id="line2d_31">
    <path clip-path="url(#pfd772243cf)" d="M 539.225747 148.859267 
L 540.928005 212.618018 
L 542.630262 226.270269 
L 544.33252 262.089187 
L 546.034777 279.668888 
L 547.737035 279.629614 
L 549.439292 254.184133 
L 551.14155 238.372887 
L 552.843807 203.791535 
L 554.546065 168.666276 
L 556.248322 153.423606 
L 557.95058 146.867328 
L 559.652837 133.997643 
L 561.355095 124.830927 
L 563.057352 148.195576 
L 564.75961 161.870689 
L 566.461867 174.669534 
L 568.164124 186.999002 
L 569.866382 189.458709 
L 571.568639 174.44897 
L 573.270897 185.204344 
L 574.973154 210.922041 
L 576.675412 180.957991 
L 578.377669 120.933516 
L 580.079927 151.043252 
L 581.782184 206.433005 
L 583.484442 218.535723 
L 585.186699 249.747127 
L 586.888957 265.187435 
L 588.591214 265.394309 
L 590.293472 243.647084 
L 591.995729 230.197841 
L 593.697987 200.526932 
L 595.400244 170.370475 
L 597.102502 157.363964 
L 598.804759 151.843051 
L 600.507016 140.859648 
L 602.209274 133.061907 
L 603.911531 153.338209 
L 605.613789 165.240343 
L 607.316046 176.377567 
L 609.018304 187.101885 
L 610.720561 189.298663 
L 612.422819 176.407745 
L 614.125076 185.753876 
L 615.827334 208.011569 
L 617.529591 182.194611 
L 619.231849 130.422189 
L 620.934106 156.458135 
L 622.636364 204.314495 
" style="fill:none;stroke:#2ca02c;stroke-linecap:round;stroke-width:1.5;"/>
   </g>
   <g id="legend_1">
    <g id="line2d_32">
     <path d="M 528.607813 64.938437 
L 548.607813 64.938437 
" style="fill:none;stroke:#1f77b4;stroke-linecap:round;stroke-width:1.5;"/>
    </g>
    <g id="line2d_33"/>
    <g id="text_15">
     <!-- Observed -->
     <defs>
      <path d="M 39.40625 66.21875 
Q 28.65625 66.21875 22.328125 58.203125 
Q 16.015625 50.203125 16.015625 36.375 
Q 16.015625 22.609375 22.328125 14.59375 
Q 28.65625 6.59375 39.40625 6.59375 
Q 50.140625 6.59375 56.421875 14.59375 
Q 62.703125 22.609375 62.703125 36.375 
Q 62.703125 50.203125 56.421875 58.203125 
Q 50.140625 66.21875 39.40625 66.21875 
z
M 39.40625 74.21875 
Q 54.734375 74.21875 63.90625 63.9375 
Q 73.09375 53.65625 73.09375 36.375 
Q 73.09375 19.140625 63.90625 8.859375 
Q 54.734375 -1.421875 39.40625 -1.421875 
Q 24.03125 -1.421875 14.8125 8.828125 
Q 5.609375 19.09375 5.609375 36.375 
Q 5.609375 53.65625 14.8125 63.9375 
Q 24.03125 74.21875 39.40625 74.21875 
z
" id="DejaVuSans-4f"/>
      <path d="M 48.6875 27.296875 
Q 48.6875 37.203125 44.609375 42.84375 
Q 40.53125 48.484375 33.40625 48.484375 
Q 26.265625 48.484375 22.1875 42.84375 
Q 18.109375 37.203125 18.109375 27.296875 
Q 18.109375 17.390625 22.1875 11.75 
Q 26.265625 6.109375 33.40625 6.109375 
Q 40.53125 6.109375 44.609375 11.75 
Q 48.6875 17.390625 48.6875 27.296875 
z
M 18.109375 46.390625 
Q 20.953125 51.265625 25.265625 53.625 
Q 29.59375 56 35.59375 56 
Q 45.5625 56 51.78125 48.09375 
Q 58.015625 40.1875 58.015625 27.296875 
Q 58.015625 14.40625 51.78125 6.484375 
Q 45.5625 -1.421875 35.59375 -1.421875 
Q 29.59375 -1.421875 25.265625 0.953125 
Q 20.953125 3.328125 18.109375 8.203125 
L 18.109375 0 
L 9.078125 0 
L 9.078125 75.984375 
L 18.109375 75.984375 
z
" id="DejaVuSans-62"/>
      <path d="M 44.28125 53.078125 
L 44.28125 44.578125 
Q 40.484375 46.53125 36.375 47.5 
Q 32.28125 48.484375 27.875 48.484375 
Q 21.1875 48.484375 17.84375 46.4375 
Q 14.5 44.390625 14.5 40.28125 
Q 14.5 37.15625 16.890625 35.375 
Q 19.28125 33.59375 26.515625 31.984375 
L 29.59375 31.296875 
Q 39.15625 29.25 43.1875 25.515625 
Q 47.21875 21.78125 47.21875 15.09375 
Q 47.21875 7.46875 41.1875 3.015625 
Q 35.15625 -1.421875 24.609375 -1.421875 
Q 20.21875 -1.421875 15.453125 -0.5625 
Q 10.6875 0.296875 5.421875 2 
L 5.421875 11.28125 
Q 10.40625 8.6875 15.234375 7.390625 
Q 20.0625 6.109375 24.8125 6.109375 
Q 31.15625 6.109375 34.5625 8.28125 
Q 37.984375 10.453125 37.984375 14.40625 
Q 37.984375 18.0625 35.515625 20.015625 
Q 33.0625 21.96875 24.703125 23.78125 
L 21.578125 24.515625 
Q 13.234375 26.265625 9.515625 29.90625 
Q 5.8125 33.546875 5.8125 39.890625 
Q 5.8125 47.609375 11.28125 51.796875 
Q 16.75 56 26.8125 56 
Q 31.78125 56 36.171875 55.265625 
Q 40.578125 54.546875 44.28125 53.078125 
z
" id="DejaVuSans-73"/>
      <path d="M 56.203125 29.59375 
L 56.203125 25.203125 
L 14.890625 25.203125 
Q 15.484375 15.921875 20.484375 11.0625 
Q 25.484375 6.203125 34.421875 6.203125 
Q 39.59375 6.203125 44.453125 7.46875 
Q 49.3125 8.734375 54.109375 11.28125 
L 54.109375 2.78125 
Q 49.265625 0.734375 44.1875 -0.34375 
Q 39.109375 -1.421875 33.890625 -1.421875 
Q 20.796875 -1.421875 13.15625 6.1875 
Q 5.515625 13.8125 5.515625 26.8125 
Q 5.515625 40.234375 12.765625 48.109375 
Q 20.015625 56 32.328125 56 
Q 43.359375 56 49.78125 48.890625 
Q 56.203125 41.796875 56.203125 29.59375 
z
M 47.21875 32.234375 
Q 47.125 39.59375 43.09375 43.984375 
Q 39.0625 48.390625 32.421875 48.390625 
Q 24.90625 48.390625 20.390625 44.140625 
Q 15.875 39.890625 15.1875 32.171875 
z
" id="DejaVuSans-65"/>
      <path d="M 41.109375 46.296875 
Q 39.59375 47.171875 37.8125 47.578125 
Q 36.03125 48 33.890625 48 
Q 26.265625 48 22.1875 43.046875 
Q 18.109375 38.09375 18.109375 28.8125 
L 18.109375 0 
L 9.078125 0 
L 9.078125 54.6875 
L 18.109375 54.6875 
L 18.109375 46.1875 
Q 20.953125 51.171875 25.484375 53.578125 
Q 30.03125 56 36.53125 56 
Q 37.453125 56 38.578125 55.875 
Q 39.703125 55.765625 41.0625 55.515625 
z
" id="DejaVuSans-72"/>
      <path d="M 2.984375 54.6875 
L 12.5 54.6875 
L 29.59375 8.796875 
L 46.6875 54.6875 
L 56.203125 54.6875 
L 35.6875 0 
L 23.484375 0 
z
" id="DejaVuSans-76"/>
      <path d="M 45.40625 46.390625 
L 45.40625 75.984375 
L 54.390625 75.984375 
L 54.390625 0 
L 45.40625 0 
L 45.40625 8.203125 
Q 42.578125 3.328125 38.25 0.953125 
Q 33.9375 -1.421875 27.875 -1.421875 
Q 17.96875 -1.421875 11.734375 6.484375 
Q 5.515625 14.40625 5.515625 27.296875 
Q 5.515625 40.1875 11.734375 48.09375 
Q 17.96875 56 27.875 56 
Q 33.9375 56 38.25 53.625 
Q 42.578125 51.265625 45.40625 46.390625 
z
M 14.796875 27.296875 
Q 14.796875 17.390625 18.875 11.75 
Q 22.953125 6.109375 30.078125 6.109375 
Q 37.203125 6.109375 41.296875 11.75 
Q 45.40625 17.390625 45.40625 27.296875 
Q 45.40625 37.203125 41.296875 42.84375 
Q 37.203125 48.484375 30.078125 48.484375 
Q 22.953125 48.484375 18.875 42.84375 
Q 14.796875 37.203125 14.796875 27.296875 
z
" id="DejaVuSans-64"/>
     </defs>
     <g style="fill:#262626;" transform="translate(556.607813 68.438437)scale(0.1 -0.1)">
      <use xlink:href="#DejaVuSans-4f"/>
      <use x="78.710938" xlink:href="#DejaVuSans-62"/>
      <use x="142.1875" xlink:href="#DejaVuSans-73"/>
      <use x="194.287109" xlink:href="#DejaVuSans-65"/>
      <use x="255.810547" xlink:href="#DejaVuSans-72"/>
      <use x="296.923828" xlink:href="#DejaVuSans-76"/>
      <use x="356.103516" xlink:href="#DejaVuSans-65"/>
      <use x="417.626953" xlink:href="#DejaVuSans-64"/>
     </g>
    </g>
    <g id="line2d_34">
     <path d="M 528.607813 79.616562 
L 548.607813 79.616562 
" style="fill:none;opacity:0.4;stroke:#ff7f0e;stroke-linecap:round;stroke-width:1.5;"/>
    </g>
    <g id="line2d_35"/>
    <g id="text_16">
     <!-- SARIMA fit -->
     <defs>
      <path d="M 53.515625 70.515625 
L 53.515625 60.890625 
Q 47.90625 63.578125 42.921875 64.890625 
Q 37.9375 66.21875 33.296875 66.21875 
Q 25.25 66.21875 20.875 63.09375 
Q 16.5 59.96875 16.5 54.203125 
Q 16.5 49.359375 19.40625 46.890625 
Q 22.3125 44.4375 30.421875 42.921875 
L 36.375 41.703125 
Q 47.40625 39.59375 52.65625 34.296875 
Q 57.90625 29 57.90625 20.125 
Q 57.90625 9.515625 50.796875 4.046875 
Q 43.703125 -1.421875 29.984375 -1.421875 
Q 24.8125 -1.421875 18.96875 -0.25 
Q 13.140625 0.921875 6.890625 3.21875 
L 6.890625 13.375 
Q 12.890625 10.015625 18.65625 8.296875 
Q 24.421875 6.59375 29.984375 6.59375 
Q 38.421875 6.59375 43.015625 9.90625 
Q 47.609375 13.234375 47.609375 19.390625 
Q 47.609375 24.75 44.3125 27.78125 
Q 41.015625 30.8125 33.5 32.328125 
L 27.484375 33.5 
Q 16.453125 35.6875 11.515625 40.375 
Q 6.59375 45.0625 6.59375 53.421875 
Q 6.59375 63.09375 13.40625 68.65625 
Q 20.21875 74.21875 32.171875 74.21875 
Q 37.3125 74.21875 42.625 73.28125 
Q 47.953125 72.359375 53.515625 70.515625 
z
" id="DejaVuSans-53"/>
      <path d="M 34.1875 63.1875 
L 20.796875 26.90625 
L 47.609375 26.90625 
z
M 28.609375 72.90625 
L 39.796875 72.90625 
L 67.578125 0 
L 57.328125 0 
L 50.6875 18.703125 
L 17.828125 18.703125 
L 11.1875 0 
L 0.78125 0 
z
" id="DejaVuSans-41"/>
      <path d="M 44.390625 34.1875 
Q 47.5625 33.109375 50.5625 29.59375 
Q 53.5625 26.078125 56.59375 19.921875 
L 66.609375 0 
L 56 0 
L 46.6875 18.703125 
Q 43.0625 26.03125 39.671875 28.421875 
Q 36.28125 30.8125 30.421875 30.8125 
L 19.671875 30.8125 
L 19.671875 0 
L 9.8125 0 
L 9.8125 72.90625 
L 32.078125 72.90625 
Q 44.578125 72.90625 50.734375 67.671875 
Q 56.890625 62.453125 56.890625 51.90625 
Q 56.890625 45.015625 53.6875 40.46875 
Q 50.484375 35.9375 44.390625 34.1875 
z
M 19.671875 64.796875 
L 19.671875 38.921875 
L 32.078125 38.921875 
Q 39.203125 38.921875 42.84375 42.21875 
Q 46.484375 45.515625 46.484375 51.90625 
Q 46.484375 58.296875 42.84375 61.546875 
Q 39.203125 64.796875 32.078125 64.796875 
z
" id="DejaVuSans-52"/>
      <path d="M 9.8125 72.90625 
L 19.671875 72.90625 
L 19.671875 0 
L 9.8125 0 
z
" id="DejaVuSans-49"/>
      <path d="M 9.8125 72.90625 
L 24.515625 72.90625 
L 43.109375 23.296875 
L 61.8125 72.90625 
L 76.515625 72.90625 
L 76.515625 0 
L 66.890625 0 
L 66.890625 64.015625 
L 48.09375 14.015625 
L 38.1875 14.015625 
L 19.390625 64.015625 
L 19.390625 0 
L 9.8125 0 
z
" id="DejaVuSans-4d"/>
      <path id="DejaVuSans-20"/>
      <path d="M 37.109375 75.984375 
L 37.109375 68.5 
L 28.515625 68.5 
Q 23.6875 68.5 21.796875 66.546875 
Q 19.921875 64.59375 19.921875 59.515625 
L 19.921875 54.6875 
L 34.71875 54.6875 
L 34.71875 47.703125 
L 19.921875 47.703125 
L 19.921875 0 
L 10.890625 0 
L 10.890625 47.703125 
L 2.296875 47.703125 
L 2.296875 54.6875 
L 10.890625 54.6875 
L 10.890625 58.5 
Q 10.890625 67.625 15.140625 71.796875 
Q 19.390625 75.984375 28.609375 75.984375 
z
" id="DejaVuSans-66"/>
      <path d="M 9.421875 54.6875 
L 18.40625 54.6875 
L 18.40625 0 
L 9.421875 0 
z
M 9.421875 75.984375 
L 18.40625 75.984375 
L 18.40625 64.59375 
L 9.421875 64.59375 
z
" id="DejaVuSans-69"/>
      <path d="M 18.3125 70.21875 
L 18.3125 54.6875 
L 36.8125 54.6875 
L 36.8125 47.703125 
L 18.3125 47.703125 
L 18.3125 18.015625 
Q 18.3125 11.328125 20.140625 9.421875 
Q 21.96875 7.515625 27.59375 7.515625 
L 36.8125 7.515625 
L 36.8125 0 
L 27.59375 0 
Q 17.1875 0 13.234375 3.875 
Q 9.28125 7.765625 9.28125 18.015625 
L 9.28125 47.703125 
L 2.6875 47.703125 
L 2.6875 54.6875 
L 9.28125 54.6875 
L 9.28125 70.21875 
z
" id="DejaVuSans-74"/>
     </defs>
     <g style="fill:#262626;" transform="translate(556.607813 83.116562)scale(0.1 -0.1)">
      <use xlink:href="#DejaVuSans-53"/>
      <use x="63.492188" xlink:href="#DejaVuSans-41"/>
      <use x="131.900391" xlink:href="#DejaVuSans-52"/>
      <use x="201.382812" xlink:href="#DejaVuSans-49"/>
      <use x="230.875" xlink:href="#DejaVuSans-4d"/>
      <use x="317.154297" xlink:href="#DejaVuSans-41"/>
      <use x="385.5625" xlink:href="#DejaVuSans-20"/>
      <use x="417.349609" xlink:href="#DejaVuSans-66"/>
      <use x="452.554688" xlink:href="#DejaVuSans-69"/>
      <use x="480.337891" xlink:href="#DejaVuSans-74"/>
     </g>
    </g>
    <g id="line2d_36">
     <path d="M 528.607813 94.294687 
L 548.607813 94.294687 
" style="fill:none;stroke:#2ca02c;stroke-linecap:round;stroke-width:1.5;"/>
    </g>
    <g id="line2d_37"/>
    <g id="text_17">
     <!-- SARIMA forecast -->
     <defs>
      <path d="M 30.609375 48.390625 
Q 23.390625 48.390625 19.1875 42.75 
Q 14.984375 37.109375 14.984375 27.296875 
Q 14.984375 17.484375 19.15625 11.84375 
Q 23.34375 6.203125 30.609375 6.203125 
Q 37.796875 6.203125 41.984375 11.859375 
Q 46.1875 17.53125 46.1875 27.296875 
Q 46.1875 37.015625 41.984375 42.703125 
Q 37.796875 48.390625 30.609375 48.390625 
z
M 30.609375 56 
Q 42.328125 56 49.015625 48.375 
Q 55.71875 40.765625 55.71875 27.296875 
Q 55.71875 13.875 49.015625 6.21875 
Q 42.328125 -1.421875 30.609375 -1.421875 
Q 18.84375 -1.421875 12.171875 6.21875 
Q 5.515625 13.875 5.515625 27.296875 
Q 5.515625 40.765625 12.171875 48.375 
Q 18.84375 56 30.609375 56 
z
" id="DejaVuSans-6f"/>
      <path d="M 48.78125 52.59375 
L 48.78125 44.1875 
Q 44.96875 46.296875 41.140625 47.34375 
Q 37.3125 48.390625 33.40625 48.390625 
Q 24.65625 48.390625 19.8125 42.84375 
Q 14.984375 37.3125 14.984375 27.296875 
Q 14.984375 17.28125 19.8125 11.734375 
Q 24.65625 6.203125 33.40625 6.203125 
Q 37.3125 6.203125 41.140625 7.25 
Q 44.96875 8.296875 48.78125 10.40625 
L 48.78125 2.09375 
Q 45.015625 0.34375 40.984375 -0.53125 
Q 36.96875 -1.421875 32.421875 -1.421875 
Q 20.0625 -1.421875 12.78125 6.34375 
Q 5.515625 14.109375 5.515625 27.296875 
Q 5.515625 40.671875 12.859375 48.328125 
Q 20.21875 56 33.015625 56 
Q 37.15625 56 41.109375 55.140625 
Q 45.0625 54.296875 48.78125 52.59375 
z
" id="DejaVuSans-63"/>
      <path d="M 34.28125 27.484375 
Q 23.390625 27.484375 19.1875 25 
Q 14.984375 22.515625 14.984375 16.5 
Q 14.984375 11.71875 18.140625 8.90625 
Q 21.296875 6.109375 26.703125 6.109375 
Q 34.1875 6.109375 38.703125 11.40625 
Q 43.21875 16.703125 43.21875 25.484375 
L 43.21875 27.484375 
z
M 52.203125 31.203125 
L 52.203125 0 
L 43.21875 0 
L 43.21875 8.296875 
Q 40.140625 3.328125 35.546875 0.953125 
Q 30.953125 -1.421875 24.3125 -1.421875 
Q 15.921875 -1.421875 10.953125 3.296875 
Q 6 8.015625 6 15.921875 
Q 6 25.140625 12.171875 29.828125 
Q 18.359375 34.515625 30.609375 34.515625 
L 43.21875 34.515625 
L 43.21875 35.40625 
Q 43.21875 41.609375 39.140625 45 
Q 35.0625 48.390625 27.6875 48.390625 
Q 23 48.390625 18.546875 47.265625 
Q 14.109375 46.140625 10.015625 43.890625 
L 10.015625 52.203125 
Q 14.9375 54.109375 19.578125 55.046875 
Q 24.21875 56 28.609375 56 
Q 40.484375 56 46.34375 49.84375 
Q 52.203125 43.703125 52.203125 31.203125 
z
" id="DejaVuSans-61"/>
     </defs>
     <g style="fill:#262626;" transform="translate(556.607813 97.794687)scale(0.1 -0.1)">
      <use xlink:href="#DejaVuSans-53"/>
      <use x="63.492188" xlink:href="#DejaVuSans-41"/>
      <use x="131.900391" xlink:href="#DejaVuSans-52"/>
      <use x="201.382812" xlink:href="#DejaVuSans-49"/>
      <use x="230.875" xlink:href="#DejaVuSans-4d"/>
      <use x="317.154297" xlink:href="#DejaVuSans-41"/>
      <use x="385.5625" xlink:href="#DejaVuSans-20"/>
      <use x="417.349609" xlink:href="#DejaVuSans-66"/>
      <use x="452.554688" xlink:href="#DejaVuSans-6f"/>
      <use x="513.736328" xlink:href="#DejaVuSans-72"/>
      <use x="554.818359" xlink:href="#DejaVuSans-65"/>
      <use x="616.341797" xlink:href="#DejaVuSans-63"/>
      <use x="671.322266" xlink:href="#DejaVuSans-61"/>
      <use x="732.601562" xlink:href="#DejaVuSans-73"/>
      <use x="784.701172" xlink:href="#DejaVuSans-74"/>
     </g>
    </g>
   </g>
  </g>
 </g>
 <defs>
  <clipPath id="pfd772243cf">
   <rect height="326.16" width="558" x="90" y="51.84"/>
  </clipPath>
 </defs>
</svg>
