<?xml version="1.0" encoding="utf-8" standalone="no"?>
<!DOCTYPE svg PUBLIC "-//W3C//DTD SVG 1.1//EN"
  "http://www.w3.org/Graphics/SVG/1.1/DTD/svg11.dtd">
<!-- Created with matplotlib (http://matplotlib.org/) -->
<svg height="432pt" version="1.1" viewBox="0 0 432 432" width="432pt" xmlns="http://www.w3.org/2000/svg" xmlns:xlink="http://www.w3.org/1999/xlink">
 <defs>
  <style type="text/css">
*{stroke-linecap:butt;stroke-linejoin:round;}
  </style>
 </defs>
 <g id="figure_1">
  <g id="patch_1">
   <path d="M 0 432 
L 432 432 
L 432 0 
L 0 0 
z
" style="fill:#ffffff;"/>
  </g>
  <g id="axes_1">
   <g id="patch_2">
    <path d="M 54 108.074483 
L 388.8 108.074483 
L 388.8 51.84 
L 54 51.84 
z
" style="fill:#ffffff;"/>
   </g>
   <g id="matplotlib.axis_1">
    <g id="xtick_1">
     <g id="line2d_1">
      <path clip-path="url(#pcdf3606e7d)" d="M 54 108.074483 
L 54 51.84 
" style="fill:none;stroke:#cccccc;stroke-linecap:round;stroke-width:0.8;"/>
     </g>
     <g id="line2d_2"/>
    </g>
    <g id="xtick_2">
     <g id="line2d_3">
      <path clip-path="url(#pcdf3606e7d)" d="M 114.872727 108.074483 
L 114.872727 51.84 
" style="fill:none;stroke:#cccccc;stroke-linecap:round;stroke-width:0.8;"/>
     </g>
     <g id="line2d_4"/>
    </g>
    <g id="xtick_3">
     <g id="line2d_5">
      <path clip-path="url(#pcdf3606e7d)" d="M 175.745455 108.074483 
L 175.745455 51.84 
" style="fill:none;stroke:#cccccc;stroke-linecap:round;stroke-width:0.8;"/>
     </g>
     <g id="line2d_6"/>
    </g>
    <g id="xtick_4">
     <g id="line2d_7">
      <path clip-path="url(#pcdf3606e7d)" d="M 236.618182 108.074483 
L 236.618182 51.84 
" style="fill:none;stroke:#cccccc;stroke-linecap:round;stroke-width:0.8;"/>
     </g>
     <g id="line2d_8"/>
    </g>
    <g id="xtick_5">
     <g id="line2d_9">
      <path clip-path="url(#pcdf3606e7d)" d="M 297.490909 108.074483 
L 297.490909 51.84 
" style="fill:none;stroke:#cccccc;stroke-linecap:round;stroke-width:0.8;"/>
     </g>
     <g id="line2d_10"/>
    </g>
    <g id="xtick_6">
     <g id="line2d_11">
      <path clip-path="url(#pcdf3606e7d)" d="M 358.363636 108.074483 
L 358.363636 51.84 
" style="fill:none;stroke:#cccccc;stroke-linecap:round;stroke-width:0.8;"/>
     </g>
     <g id="line2d_12"/>
    </g>
   </g>
   <g id="matplotlib.axis_2">
    <g id="ytick_1">
     <g id="line2d_13">
      <path clip-path="url(#pcdf3606e7d)" d="M 54 108.074483 
L 388.8 108.074483 
" style="fill:none;stroke:#cccccc;stroke-linecap:round;stroke-width:0.8;"/>
     </g>
     <g id="line2d_14"/>
     <g id="text_1">
      <!-- 0 -->
      <defs>
       <path d="M 31.78125 66.40625 
Q 24.171875 66.40625 20.328125 58.90625 
Q 16.5 51.421875 16.5 36.375 
Q 16.5 21.390625 20.328125 13.890625 
Q 24.171875 6.390625 31.78125 6.390625 
Q 39.453125 6.390625 43.28125 13.890625 
Q 47.125 21.390625 47.125 36.375 
Q 47.125 51.421875 43.28125 58.90625 
Q 39.453125 66.40625 31.78125 66.40625 
z
M 31.78125 74.21875 
Q 44.046875 74.21875 50.515625 64.515625 
Q 56.984375 54.828125 56.984375 36.375 
Q 56.984375 17.96875 50.515625 8.265625 
Q 44.046875 -1.421875 31.78125 -1.421875 
Q 19.53125 -1.421875 13.0625 8.265625 
Q 6.59375 17.96875 6.59375 36.375 
Q 6.59375 54.828125 13.0625 64.515625 
Q 19.53125 74.21875 31.78125 74.21875 
z
" id="DejaVuSans-30"/>
      </defs>
      <g style="fill:#262626;" transform="translate(44.1375 111.873702)scale(0.1 -0.1)">
       <use xlink:href="#DejaVuSans-30"/>
      </g>
     </g>
    </g>
    <g id="ytick_2">
     <g id="line2d_15">
      <path clip-path="url(#pcdf3606e7d)" d="M 54 58.964302 
L 388.8 58.964302 
" style="fill:none;stroke:#cccccc;stroke-linecap:round;stroke-width:0.8;"/>
     </g>
     <g id="line2d_16"/>
     <g id="text_2">
      <!-- 5 -->
      <defs>
       <path d="M 10.796875 72.90625 
L 49.515625 72.90625 
L 49.515625 64.59375 
L 19.828125 64.59375 
L 19.828125 46.734375 
Q 21.96875 47.46875 24.109375 47.828125 
Q 26.265625 48.1875 28.421875 48.1875 
Q 40.625 48.1875 47.75 41.5 
Q 54.890625 34.8125 54.890625 23.390625 
Q 54.890625 11.625 47.5625 5.09375 
Q 40.234375 -1.421875 26.90625 -1.421875 
Q 22.3125 -1.421875 17.546875 -0.640625 
Q 12.796875 0.140625 7.71875 1.703125 
L 7.71875 11.625 
Q 12.109375 9.234375 16.796875 8.0625 
Q 21.484375 6.890625 26.703125 6.890625 
Q 35.15625 6.890625 40.078125 11.328125 
Q 45.015625 15.765625 45.015625 23.390625 
Q 45.015625 31 40.078125 35.4375 
Q 35.15625 39.890625 26.703125 39.890625 
Q 22.75 39.890625 18.8125 39.015625 
Q 14.890625 38.140625 10.796875 36.28125 
z
" id="DejaVuSans-35"/>
      </defs>
      <g style="fill:#262626;" transform="translate(44.1375 62.76352)scale(0.1 -0.1)">
       <use xlink:href="#DejaVuSans-35"/>
      </g>
     </g>
    </g>
    <g id="text_3">
     <!-- # of coeffs -->
     <defs>
      <path d="M 51.125 44 
L 36.921875 44 
L 32.8125 27.6875 
L 47.125 27.6875 
z
M 43.796875 71.78125 
L 38.71875 51.515625 
L 52.984375 51.515625 
L 58.109375 71.78125 
L 65.921875 71.78125 
L 60.890625 51.515625 
L 76.125 51.515625 
L 76.125 44 
L 58.984375 44 
L 54.984375 27.6875 
L 70.515625 27.6875 
L 70.515625 20.21875 
L 53.078125 20.21875 
L 48 0 
L 40.1875 0 
L 45.21875 20.21875 
L 30.90625 20.21875 
L 25.875 0 
L 18.015625 0 
L 23.09375 20.21875 
L 7.71875 20.21875 
L 7.71875 27.6875 
L 24.90625 27.6875 
L 29 44 
L 13.28125 44 
L 13.28125 51.515625 
L 30.90625 51.515625 
L 35.890625 71.78125 
z
" id="DejaVuSans-23"/>
      <path id="DejaVuSans-20"/>
      <path d="M 30.609375 48.390625 
Q 23.390625 48.390625 19.1875 42.75 
Q 14.984375 37.109375 14.984375 27.296875 
Q 14.984375 17.484375 19.15625 11.84375 
Q 23.34375 6.203125 30.609375 6.203125 
Q 37.796875 6.203125 41.984375 11.859375 
Q 46.1875 17.53125 46.1875 27.296875 
Q 46.1875 37.015625 41.984375 42.703125 
Q 37.796875 48.390625 30.609375 48.390625 
z
M 30.609375 56 
Q 42.328125 56 49.015625 48.375 
Q 55.71875 40.765625 55.71875 27.296875 
Q 55.71875 13.875 49.015625 6.21875 
Q 42.328125 -1.421875 30.609375 -1.421875 
Q 18.84375 -1.421875 12.171875 6.21875 
Q 5.515625 13.875 5.515625 27.296875 
Q 5.515625 40.765625 12.171875 48.375 
Q 18.84375 56 30.609375 56 
z
" id="DejaVuSans-6f"/>
      <path d="M 37.109375 75.984375 
L 37.109375 68.5 
L 28.515625 68.5 
Q 23.6875 68.5 21.796875 66.546875 
Q 19.921875 64.59375 19.921875 59.515625 
L 19.921875 54.6875 
L 34.71875 54.6875 
L 34.71875 47.703125 
L 19.921875 47.703125 
L 19.921875 0 
L 10.890625 0 
L 10.890625 47.703125 
L 2.296875 47.703125 
L 2.296875 54.6875 
L 10.890625 54.6875 
L 10.890625 58.5 
Q 10.890625 67.625 15.140625 71.796875 
Q 19.390625 75.984375 28.609375 75.984375 
z
" id="DejaVuSans-66"/>
      <path d="M 48.78125 52.59375 
L 48.78125 44.1875 
Q 44.96875 46.296875 41.140625 47.34375 
Q 37.3125 48.390625 33.40625 48.390625 
Q 24.65625 48.390625 19.8125 42.84375 
Q 14.984375 37.3125 14.984375 27.296875 
Q 14.984375 17.28125 19.8125 11.734375 
Q 24.65625 6.203125 33.40625 6.203125 
Q 37.3125 6.203125 41.140625 7.25 
Q 44.96875 8.296875 48.78125 10.40625 
L 48.78125 2.09375 
Q 45.015625 0.34375 40.984375 -0.53125 
Q 36.96875 -1.421875 32.421875 -1.421875 
Q 20.0625 -1.421875 12.78125 6.34375 
Q 5.515625 14.109375 5.515625 27.296875 
Q 5.515625 40.671875 12.859375 48.328125 
Q 20.21875 56 33.015625 56 
Q 37.15625 56 41.109375 55.140625 
Q 45.0625 54.296875 48.78125 52.59375 
z
" id="DejaVuSans-63"/>
      <path d="M 56.203125 29.59375 
L 56.203125 25.203125 
L 14.890625 25.203125 
Q 15.484375 15.921875 20.484375 11.0625 
Q 25.484375 6.203125 34.421875 6.203125 
Q 39.59375 6.203125 44.453125 7.46875 
Q 49.3125 8.734375 54.109375 11.28125 
L 54.109375 2.78125 
Q 49.265625 0.734375 44.1875 -0.34375 
Q 39.109375 -1.421875 33.890625 -1.421875 
Q 20.796875 -1.421875 13.15625 6.1875 
Q 5.515625 13.8125 5.515625 26.8125 
Q 5.515625 40.234375 12.765625 48.109375 
Q 20.015625 56 32.328125 56 
Q 43.359375 56 49.78125 48.890625 
Q 56.203125 41.796875 56.203125 29.59375 
z
M 47.21875 32.234375 
Q 47.125 39.59375 43.09375 43.984375 
Q 39.0625 48.390625 32.421875 48.390625 
Q 24.90625 48.390625 20.390625 44.140625 
Q 15.875 39.890625 15.1875 32.171875 
z
" id="DejaVuSans-65"/>
      <path d="M 44.28125 53.078125 
L 44.28125 44.578125 
Q 40.484375 46.53125 36.375 47.5 
Q 32.28125 48.484375 27.875 48.484375 
Q 21.1875 48.484375 17.84375 46.4375 
Q 14.5 44.390625 14.5 40.28125 
Q 14.5 37.15625 16.890625 35.375 
Q 19.28125 33.59375 26.515625 31.984375 
L 29.59375 31.296875 
Q 39.15625 29.25 43.1875 25.515625 
Q 47.21875 21.78125 47.21875 15.09375 
Q 47.21875 7.46875 41.1875 3.015625 
Q 35.15625 -1.421875 24.609375 -1.421875 
Q 20.21875 -1.421875 15.453125 -0.5625 
Q 10.6875 0.296875 5.421875 2 
L 5.421875 11.28125 
Q 10.40625 8.6875 15.234375 7.390625 
Q 20.0625 6.109375 24.8125 6.109375 
Q 31.15625 6.109375 34.5625 8.28125 
Q 37.984375 10.453125 37.984375 14.40625 
Q 37.984375 18.0625 35.515625 20.015625 
Q 33.0625 21.96875 24.703125 23.78125 
L 21.578125 24.515625 
Q 13.234375 26.265625 9.515625 29.90625 
Q 5.8125 33.546875 5.8125 39.890625 
Q 5.8125 47.609375 11.28125 51.796875 
Q 16.75 56 26.8125 56 
Q 31.78125 56 36.171875 55.265625 
Q 40.578125 54.546875 44.28125 53.078125 
z
" id="DejaVuSans-73"/>
     </defs>
     <g style="fill:#262626;" transform="translate(38.057812 107.154898)rotate(-90)scale(0.1 -0.1)">
      <use xlink:href="#DejaVuSans-23"/>
      <use x="83.789062" xlink:href="#DejaVuSans-20"/>
      <use x="115.576172" xlink:href="#DejaVuSans-6f"/>
      <use x="176.757812" xlink:href="#DejaVuSans-66"/>
      <use x="211.962891" xlink:href="#DejaVuSans-20"/>
      <use x="243.75" xlink:href="#DejaVuSans-63"/>
      <use x="298.730469" xlink:href="#DejaVuSans-6f"/>
      <use x="359.912109" xlink:href="#DejaVuSans-65"/>
      <use x="421.435547" xlink:href="#DejaVuSans-66"/>
      <use x="456.640625" xlink:href="#DejaVuSans-66"/>
      <use x="491.845703" xlink:href="#DejaVuSans-73"/>
     </g>
    </g>
   </g>
   <g id="patch_3">
    <path clip-path="url(#pcdf3606e7d)" d="M 93.924575 108.074483 
L 100.535551 108.074483 
L 100.535551 107.760674 
L 93.924575 107.760674 
z
" style="fill:#1f77b4;opacity:0.4;"/>
   </g>
   <g id="patch_4">
    <path clip-path="url(#pcdf3606e7d)" d="M 100.535551 108.074483 
L 107.146528 108.074483 
L 107.146528 106.819249 
L 100.535551 106.819249 
z
" style="fill:#1f77b4;opacity:0.4;"/>
   </g>
   <g id="patch_5">
    <path clip-path="url(#pcdf3606e7d)" d="M 107.146528 108.074483 
L 113.757504 108.074483 
L 113.757504 108.074483 
L 107.146528 108.074483 
z
" style="fill:#1f77b4;opacity:0.4;"/>
   </g>
   <g id="patch_6">
    <path clip-path="url(#pcdf3606e7d)" d="M 113.757504 108.074483 
L 120.368481 108.074483 
L 120.368481 108.022181 
L 113.757504 108.022181 
z
" style="fill:#1f77b4;opacity:0.4;"/>
   </g>
   <g id="patch_7">
    <path clip-path="url(#pcdf3606e7d)" d="M 120.368481 108.074483 
L 126.979457 108.074483 
L 126.979457 107.185359 
L 120.368481 107.185359 
z
" style="fill:#1f77b4;opacity:0.4;"/>
   </g>
   <g id="patch_8">
    <path clip-path="url(#pcdf3606e7d)" d="M 126.979457 108.074483 
L 133.590434 108.074483 
L 133.590434 105.982426 
L 126.979457 105.982426 
z
" style="fill:#1f77b4;opacity:0.4;"/>
   </g>
   <g id="patch_9">
    <path clip-path="url(#pcdf3606e7d)" d="M 133.590434 108.074483 
L 140.20141 108.074483 
L 140.20141 107.394564 
L 133.590434 107.394564 
z
" style="fill:#1f77b4;opacity:0.4;"/>
   </g>
   <g id="patch_10">
    <path clip-path="url(#pcdf3606e7d)" d="M 140.20141 108.074483 
L 146.812387 108.074483 
L 146.812387 104.047274 
L 140.20141 104.047274 
z
" style="fill:#1f77b4;opacity:0.4;"/>
   </g>
   <g id="patch_11">
    <path clip-path="url(#pcdf3606e7d)" d="M 146.812387 108.074483 
L 153.423364 108.074483 
L 153.423364 108.074483 
L 146.812387 108.074483 
z
" style="fill:#1f77b4;opacity:0.4;"/>
   </g>
   <g id="patch_12">
    <path clip-path="url(#pcdf3606e7d)" d="M 153.423364 108.074483 
L 160.03434 108.074483 
L 160.03434 102.05982 
L 153.423364 102.05982 
z
" style="fill:#1f77b4;opacity:0.4;"/>
   </g>
   <g id="patch_13">
    <path clip-path="url(#pcdf3606e7d)" d="M 160.03434 108.074483 
L 166.645317 108.074483 
L 166.645317 108.074483 
L 160.03434 108.074483 
z
" style="fill:#1f77b4;opacity:0.4;"/>
   </g>
   <g id="patch_14">
    <path clip-path="url(#pcdf3606e7d)" d="M 166.645317 108.074483 
L 173.256293 108.074483 
L 173.256293 107.342263 
L 166.645317 107.342263 
z
" style="fill:#1f77b4;opacity:0.4;"/>
   </g>
   <g id="patch_15">
    <path clip-path="url(#pcdf3606e7d)" d="M 173.256293 108.074483 
L 179.86727 108.074483 
L 179.86727 105.877823 
L 173.256293 105.877823 
z
" style="fill:#1f77b4;opacity:0.4;"/>
   </g>
   <g id="patch_16">
    <path clip-path="url(#pcdf3606e7d)" d="M 179.86727 108.074483 
L 186.478246 108.074483 
L 186.478246 99.86316 
L 179.86727 99.86316 
z
" style="fill:#1f77b4;opacity:0.4;"/>
   </g>
   <g id="patch_17">
    <path clip-path="url(#pcdf3606e7d)" d="M 186.478246 108.074483 
L 193.089223 108.074483 
L 193.089223 107.185359 
L 186.478246 107.185359 
z
" style="fill:#1f77b4;opacity:0.4;"/>
   </g>
   <g id="patch_18">
    <path clip-path="url(#pcdf3606e7d)" d="M 193.089223 108.074483 
L 199.700199 108.074483 
L 199.700199 86.735505 
L 193.089223 86.735505 
z
" style="fill:#1f77b4;opacity:0.4;"/>
   </g>
   <g id="patch_19">
    <path clip-path="url(#pcdf3606e7d)" d="M 199.700199 108.074483 
L 206.311176 108.074483 
L 206.311176 105.459412 
L 199.700199 105.459412 
z
" style="fill:#1f77b4;opacity:0.4;"/>
   </g>
   <g id="patch_20">
    <path clip-path="url(#pcdf3606e7d)" d="M 206.311176 108.074483 
L 212.922152 108.074483 
L 212.922152 103.419657 
L 206.311176 103.419657 
z
" style="fill:#1f77b4;opacity:0.4;"/>
   </g>
   <g id="patch_21">
    <path clip-path="url(#pcdf3606e7d)" d="M 212.922152 108.074483 
L 219.533129 108.074483 
L 219.533129 105.825522 
L 212.922152 105.825522 
z
" style="fill:#1f77b4;opacity:0.4;"/>
   </g>
   <g id="patch_22">
    <path clip-path="url(#pcdf3606e7d)" d="M 219.533129 108.074483 
L 226.144106 108.074483 
L 226.144106 86.683204 
L 219.533129 86.683204 
z
" style="fill:#1f77b4;opacity:0.4;"/>
   </g>
   <g id="patch_23">
    <path clip-path="url(#pcdf3606e7d)" d="M 226.144106 108.074483 
L 232.755082 108.074483 
L 232.755082 104.622589 
L 226.144106 104.622589 
z
" style="fill:#1f77b4;opacity:0.4;"/>
   </g>
   <g id="patch_24">
    <path clip-path="url(#pcdf3606e7d)" d="M 232.755082 108.074483 
L 239.366059 108.074483 
L 239.366059 100.647682 
L 232.755082 100.647682 
z
" style="fill:#1f77b4;opacity:0.4;"/>
   </g>
   <g id="patch_25">
    <path clip-path="url(#pcdf3606e7d)" d="M 239.366059 108.074483 
L 245.977035 108.074483 
L 245.977035 89.925891 
L 239.366059 89.925891 
z
" style="fill:#1f77b4;opacity:0.4;"/>
   </g>
   <g id="patch_26">
    <path clip-path="url(#pcdf3606e7d)" d="M 245.977035 108.074483 
L 252.588012 108.074483 
L 252.588012 80.197828 
L 245.977035 80.197828 
z
" style="fill:#1f77b4;opacity:0.4;"/>
   </g>
   <g id="patch_27">
    <path clip-path="url(#pcdf3606e7d)" d="M 252.588012 108.074483 
L 259.198988 108.074483 
L 259.198988 93.220881 
L 252.588012 93.220881 
z
" style="fill:#1f77b4;opacity:0.4;"/>
   </g>
   <g id="patch_28">
    <path clip-path="url(#pcdf3606e7d)" d="M 259.198988 108.074483 
L 265.809965 108.074483 
L 265.809965 95.208334 
L 259.198988 95.208334 
z
" style="fill:#1f77b4;opacity:0.4;"/>
   </g>
   <g id="patch_29">
    <path clip-path="url(#pcdf3606e7d)" d="M 265.809965 108.074483 
L 272.420941 108.074483 
L 272.420941 83.074406 
L 265.809965 83.074406 
z
" style="fill:#1f77b4;opacity:0.4;"/>
   </g>
   <g id="patch_30">
    <path clip-path="url(#pcdf3606e7d)" d="M 272.420941 108.074483 
L 279.031918 108.074483 
L 279.031918 101.222997 
L 272.420941 101.222997 
z
" style="fill:#1f77b4;opacity:0.4;"/>
   </g>
   <g id="patch_31">
    <path clip-path="url(#pcdf3606e7d)" d="M 279.031918 108.074483 
L 285.642894 108.074483 
L 285.642894 81.453062 
L 279.031918 81.453062 
z
" style="fill:#1f77b4;opacity:0.4;"/>
   </g>
   <g id="patch_32">
    <path clip-path="url(#pcdf3606e7d)" d="M 285.642894 108.074483 
L 292.253871 108.074483 
L 292.253871 95.365239 
L 285.642894 95.365239 
z
" style="fill:#1f77b4;opacity:0.4;"/>
   </g>
   <g id="patch_33">
    <path clip-path="url(#pcdf3606e7d)" d="M 292.253871 108.074483 
L 298.864847 108.074483 
L 298.864847 54.517833 
L 292.253871 54.517833 
z
" style="fill:#1f77b4;opacity:0.4;"/>
   </g>
   <g id="patch_34">
    <path clip-path="url(#pcdf3606e7d)" d="M 298.864847 108.074483 
L 305.475824 108.074483 
L 305.475824 91.651838 
L 298.864847 91.651838 
z
" style="fill:#1f77b4;opacity:0.4;"/>
   </g>
   <g id="patch_35">
    <path clip-path="url(#pcdf3606e7d)" d="M 305.475824 108.074483 
L 312.086801 108.074483 
L 312.086801 91.599537 
L 305.475824 91.599537 
z
" style="fill:#1f77b4;opacity:0.4;"/>
   </g>
   <g id="patch_36">
    <path clip-path="url(#pcdf3606e7d)" d="M 312.086801 108.074483 
L 318.697777 108.074483 
L 318.697777 61.683127 
L 312.086801 61.683127 
z
" style="fill:#1f77b4;opacity:0.4;"/>
   </g>
   <g id="patch_37">
    <path clip-path="url(#pcdf3606e7d)" d="M 318.697777 108.074483 
L 325.308754 108.074483 
L 325.308754 88.252246 
L 318.697777 88.252246 
z
" style="fill:#1f77b4;opacity:0.4;"/>
   </g>
   <g id="patch_38">
    <path clip-path="url(#pcdf3606e7d)" d="M 325.308754 108.074483 
L 331.91973 108.074483 
L 331.91973 106.243933 
L 325.308754 106.243933 
z
" style="fill:#1f77b4;opacity:0.4;"/>
   </g>
   <g id="patch_39">
    <path clip-path="url(#pcdf3606e7d)" d="M 331.91973 108.074483 
L 338.530707 108.074483 
L 338.530707 102.321327 
L 331.91973 102.321327 
z
" style="fill:#1f77b4;opacity:0.4;"/>
   </g>
   <g id="patch_40">
    <path clip-path="url(#pcdf3606e7d)" d="M 338.530707 108.074483 
L 345.141683 108.074483 
L 345.141683 91.599537 
L 338.530707 91.599537 
z
" style="fill:#1f77b4;opacity:0.4;"/>
   </g>
   <g id="patch_41">
    <path clip-path="url(#pcdf3606e7d)" d="M 345.141683 108.074483 
L 351.75266 108.074483 
L 351.75266 106.034728 
L 345.141683 106.034728 
z
" style="fill:#1f77b4;opacity:0.4;"/>
   </g>
   <g id="patch_42">
    <path clip-path="url(#pcdf3606e7d)" d="M 351.75266 108.074483 
L 358.363636 108.074483 
L 358.363636 70.051353 
L 351.75266 70.051353 
z
" style="fill:#1f77b4;opacity:0.4;"/>
   </g>
   <g id="line2d_17">
    <path clip-path="url(#pcdf3606e7d)" d="M 67.240927 108.018878 
L 77.250576 108.054793 
L 87.260225 107.922604 
L 102.274698 107.614867 
L 114.78676 107.650351 
L 119.791584 107.433832 
L 149.820531 105.526484 
L 154.825356 105.536561 
L 164.835005 106.015689 
L 167.337417 105.947706 
L 169.83983 105.716193 
L 172.342242 105.31838 
L 177.347066 104.125138 
L 184.854303 101.842439 
L 189.859128 100.433956 
L 192.36154 99.971009 
L 194.863952 99.775705 
L 197.366364 99.875683 
L 199.868777 100.221947 
L 204.873601 101.116864 
L 207.376014 101.345679 
L 209.878426 101.281292 
L 212.380838 100.913814 
L 217.385663 99.614008 
L 222.390487 98.355863 
L 229.897724 96.855719 
L 232.400136 96.091148 
L 234.902548 95.102428 
L 239.907373 92.849595 
L 242.409785 91.91966 
L 244.912198 91.304393 
L 247.41461 91.030791 
L 249.917022 91.024355 
L 254.921847 91.262036 
L 257.424259 91.277893 
L 262.429083 91.00737 
L 272.438732 90.226333 
L 274.941145 89.796915 
L 277.443557 89.100018 
L 279.945969 88.089308 
L 282.448381 86.782993 
L 289.955618 82.304982 
L 292.458031 81.242776 
L 294.960443 80.653406 
L 297.462855 80.544102 
L 299.965267 80.78945 
L 304.970092 81.505077 
L 312.477329 81.973678 
L 314.979741 82.603086 
L 317.482153 83.867964 
L 319.984565 85.827673 
L 322.486978 88.341052 
L 327.491802 93.757959 
L 329.994214 95.97805 
L 332.496627 97.575508 
L 334.999039 98.50957 
L 337.501451 98.857818 
L 340.003864 98.75362 
L 342.506276 98.327397 
L 345.008688 97.680127 
L 352.515925 95.416391 
L 355.018337 95.08413 
L 357.520749 95.284104 
L 360.023162 96.119834 
L 362.525574 97.553151 
L 365.027986 99.405107 
L 370.032811 103.312986 
L 372.535223 104.914228 
L 375.037635 106.128892 
L 377.540048 106.964204 
L 380.04246 107.487415 
L 382.544872 107.786872 
L 385.047284 107.943763 
L 385.047284 107.943763 
" style="fill:none;stroke:#1f77b4;stroke-linecap:round;stroke-width:1.5;"/>
   </g>
   <g id="patch_43">
    <path d="M 54 108.074483 
L 54 51.84 
" style="fill:none;stroke:#cccccc;stroke-linecap:square;stroke-linejoin:miter;"/>
   </g>
   <g id="patch_44">
    <path d="M 388.8 108.074483 
L 388.8 51.84 
" style="fill:none;stroke:#cccccc;stroke-linecap:square;stroke-linejoin:miter;"/>
   </g>
   <g id="patch_45">
    <path d="M 54 108.074483 
L 388.8 108.074483 
" style="fill:none;stroke:#cccccc;stroke-linecap:square;stroke-linejoin:miter;"/>
   </g>
   <g id="patch_46">
    <path d="M 54 51.84 
L 388.8 51.84 
" style="fill:none;stroke:#cccccc;stroke-linecap:square;stroke-linejoin:miter;"/>
   </g>
   <g id="text_4">
    <g id="patch_47">
     <path d="M 56.696 67.767504 
L 160.503813 67.767504 
L 160.503813 50.089379 
L 56.696 50.089379 
z
" style="fill:#ffffff;stroke:#ffffff;stroke-linejoin:miter;"/>
    </g>
    <!-- WECC, 132 profiles -->
    <defs>
     <path d="M 3.328125 72.90625 
L 13.28125 72.90625 
L 28.609375 11.28125 
L 43.890625 72.90625 
L 54.984375 72.90625 
L 70.3125 11.28125 
L 85.59375 72.90625 
L 95.609375 72.90625 
L 77.296875 0 
L 64.890625 0 
L 49.515625 63.28125 
L 33.984375 0 
L 21.578125 0 
z
" id="DejaVuSans-57"/>
     <path d="M 9.8125 72.90625 
L 55.90625 72.90625 
L 55.90625 64.59375 
L 19.671875 64.59375 
L 19.671875 43.015625 
L 54.390625 43.015625 
L 54.390625 34.71875 
L 19.671875 34.71875 
L 19.671875 8.296875 
L 56.78125 8.296875 
L 56.78125 0 
L 9.8125 0 
z
" id="DejaVuSans-45"/>
     <path d="M 64.40625 67.28125 
L 64.40625 56.890625 
Q 59.421875 61.53125 53.78125 63.8125 
Q 48.140625 66.109375 41.796875 66.109375 
Q 29.296875 66.109375 22.65625 58.46875 
Q 16.015625 50.828125 16.015625 36.375 
Q 16.015625 21.96875 22.65625 14.328125 
Q 29.296875 6.6875 41.796875 6.6875 
Q 48.140625 6.6875 53.78125 8.984375 
Q 59.421875 11.28125 64.40625 15.921875 
L 64.40625 5.609375 
Q 59.234375 2.09375 53.4375 0.328125 
Q 47.65625 -1.421875 41.21875 -1.421875 
Q 24.65625 -1.421875 15.125 8.703125 
Q 5.609375 18.84375 5.609375 36.375 
Q 5.609375 53.953125 15.125 64.078125 
Q 24.65625 74.21875 41.21875 74.21875 
Q 47.75 74.21875 53.53125 72.484375 
Q 59.328125 70.75 64.40625 67.28125 
z
" id="DejaVuSans-43"/>
     <path d="M 11.71875 12.40625 
L 22.015625 12.40625 
L 22.015625 4 
L 14.015625 -11.625 
L 7.71875 -11.625 
L 11.71875 4 
z
" id="DejaVuSans-2c"/>
     <path d="M 12.40625 8.296875 
L 28.515625 8.296875 
L 28.515625 63.921875 
L 10.984375 60.40625 
L 10.984375 69.390625 
L 28.421875 72.90625 
L 38.28125 72.90625 
L 38.28125 8.296875 
L 54.390625 8.296875 
L 54.390625 0 
L 12.40625 0 
z
" id="DejaVuSans-31"/>
     <path d="M 40.578125 39.3125 
Q 47.65625 37.796875 51.625 33 
Q 55.609375 28.21875 55.609375 21.1875 
Q 55.609375 10.40625 48.1875 4.484375 
Q 40.765625 -1.421875 27.09375 -1.421875 
Q 22.515625 -1.421875 17.65625 -0.515625 
Q 12.796875 0.390625 7.625 2.203125 
L 7.625 11.71875 
Q 11.71875 9.328125 16.59375 8.109375 
Q 21.484375 6.890625 26.8125 6.890625 
Q 36.078125 6.890625 40.9375 10.546875 
Q 45.796875 14.203125 45.796875 21.1875 
Q 45.796875 27.640625 41.28125 31.265625 
Q 36.765625 34.90625 28.71875 34.90625 
L 20.21875 34.90625 
L 20.21875 43.015625 
L 29.109375 43.015625 
Q 36.375 43.015625 40.234375 45.921875 
Q 44.09375 48.828125 44.09375 54.296875 
Q 44.09375 59.90625 40.109375 62.90625 
Q 36.140625 65.921875 28.71875 65.921875 
Q 24.65625 65.921875 20.015625 65.03125 
Q 15.375 64.15625 9.8125 62.3125 
L 9.8125 71.09375 
Q 15.4375 72.65625 20.34375 73.4375 
Q 25.25 74.21875 29.59375 74.21875 
Q 40.828125 74.21875 47.359375 69.109375 
Q 53.90625 64.015625 53.90625 55.328125 
Q 53.90625 49.265625 50.4375 45.09375 
Q 46.96875 40.921875 40.578125 39.3125 
z
" id="DejaVuSans-33"/>
     <path d="M 19.1875 8.296875 
L 53.609375 8.296875 
L 53.609375 0 
L 7.328125 0 
L 7.328125 8.296875 
Q 12.9375 14.109375 22.625 23.890625 
Q 32.328125 33.6875 34.8125 36.53125 
Q 39.546875 41.84375 41.421875 45.53125 
Q 43.3125 49.21875 43.3125 52.78125 
Q 43.3125 58.59375 39.234375 62.25 
Q 35.15625 65.921875 28.609375 65.921875 
Q 23.96875 65.921875 18.8125 64.3125 
Q 13.671875 62.703125 7.8125 59.421875 
L 7.8125 69.390625 
Q 13.765625 71.78125 18.9375 73 
Q 24.125 74.21875 28.421875 74.21875 
Q 39.75 74.21875 46.484375 68.546875 
Q 53.21875 62.890625 53.21875 53.421875 
Q 53.21875 48.921875 51.53125 44.890625 
Q 49.859375 40.875 45.40625 35.40625 
Q 44.1875 33.984375 37.640625 27.21875 
Q 31.109375 20.453125 19.1875 8.296875 
z
" id="DejaVuSans-32"/>
     <path d="M 18.109375 8.203125 
L 18.109375 -20.796875 
L 9.078125 -20.796875 
L 9.078125 54.6875 
L 18.109375 54.6875 
L 18.109375 46.390625 
Q 20.953125 51.265625 25.265625 53.625 
Q 29.59375 56 35.59375 56 
Q 45.5625 56 51.78125 48.09375 
Q 58.015625 40.1875 58.015625 27.296875 
Q 58.015625 14.40625 51.78125 6.484375 
Q 45.5625 -1.421875 35.59375 -1.421875 
Q 29.59375 -1.421875 25.265625 0.953125 
Q 20.953125 3.328125 18.109375 8.203125 
z
M 48.6875 27.296875 
Q 48.6875 37.203125 44.609375 42.84375 
Q 40.53125 48.484375 33.40625 48.484375 
Q 26.265625 48.484375 22.1875 42.84375 
Q 18.109375 37.203125 18.109375 27.296875 
Q 18.109375 17.390625 22.1875 11.75 
Q 26.265625 6.109375 33.40625 6.109375 
Q 40.53125 6.109375 44.609375 11.75 
Q 48.6875 17.390625 48.6875 27.296875 
z
" id="DejaVuSans-70"/>
     <path d="M 41.109375 46.296875 
Q 39.59375 47.171875 37.8125 47.578125 
Q 36.03125 48 33.890625 48 
Q 26.265625 48 22.1875 43.046875 
Q 18.109375 38.09375 18.109375 28.8125 
L 18.109375 0 
L 9.078125 0 
L 9.078125 54.6875 
L 18.109375 54.6875 
L 18.109375 46.1875 
Q 20.953125 51.171875 25.484375 53.578125 
Q 30.03125 56 36.53125 56 
Q 37.453125 56 38.578125 55.875 
Q 39.703125 55.765625 41.0625 55.515625 
z
" id="DejaVuSans-72"/>
     <path d="M 9.421875 54.6875 
L 18.40625 54.6875 
L 18.40625 0 
L 9.421875 0 
z
M 9.421875 75.984375 
L 18.40625 75.984375 
L 18.40625 64.59375 
L 9.421875 64.59375 
z
" id="DejaVuSans-69"/>
     <path d="M 9.421875 75.984375 
L 18.40625 75.984375 
L 18.40625 0 
L 9.421875 0 
z
" id="DejaVuSans-6c"/>
    </defs>
    <g style="fill:#262626;" transform="translate(60.696 61.687817)scale(0.1 -0.1)">
     <use xlink:href="#DejaVuSans-57"/>
     <use x="98.876953" xlink:href="#DejaVuSans-45"/>
     <use x="162.060547" xlink:href="#DejaVuSans-43"/>
     <use x="231.884766" xlink:href="#DejaVuSans-43"/>
     <use x="301.708984" xlink:href="#DejaVuSans-2c"/>
     <use x="333.496094" xlink:href="#DejaVuSans-20"/>
     <use x="365.283203" xlink:href="#DejaVuSans-31"/>
     <use x="428.90625" xlink:href="#DejaVuSans-33"/>
     <use x="492.529297" xlink:href="#DejaVuSans-32"/>
     <use x="556.152344" xlink:href="#DejaVuSans-20"/>
     <use x="587.939453" xlink:href="#DejaVuSans-70"/>
     <use x="651.416016" xlink:href="#DejaVuSans-72"/>
     <use x="692.498047" xlink:href="#DejaVuSans-6f"/>
     <use x="753.679688" xlink:href="#DejaVuSans-66"/>
     <use x="788.884766" xlink:href="#DejaVuSans-69"/>
     <use x="816.667969" xlink:href="#DejaVuSans-6c"/>
     <use x="844.451172" xlink:href="#DejaVuSans-65"/>
     <use x="905.974609" xlink:href="#DejaVuSans-73"/>
    </g>
   </g>
  </g>
  <g id="axes_2">
   <g id="patch_48">
    <path d="M 54 175.555862 
L 388.8 175.555862 
L 388.8 119.321379 
L 54 119.321379 
z
" style="fill:#ffffff;"/>
   </g>
   <g id="matplotlib.axis_3">
    <g id="xtick_7">
     <g id="line2d_18">
      <path clip-path="url(#p13834cb49e)" d="M 54 175.555862 
L 54 119.321379 
" style="fill:none;stroke:#cccccc;stroke-linecap:round;stroke-width:0.8;"/>
     </g>
     <g id="line2d_19"/>
    </g>
    <g id="xtick_8">
     <g id="line2d_20">
      <path clip-path="url(#p13834cb49e)" d="M 114.872727 175.555862 
L 114.872727 119.321379 
" style="fill:none;stroke:#cccccc;stroke-linecap:round;stroke-width:0.8;"/>
     </g>
     <g id="line2d_21"/>
    </g>
    <g id="xtick_9">
     <g id="line2d_22">
      <path clip-path="url(#p13834cb49e)" d="M 175.745455 175.555862 
L 175.745455 119.321379 
" style="fill:none;stroke:#cccccc;stroke-linecap:round;stroke-width:0.8;"/>
     </g>
     <g id="line2d_23"/>
    </g>
    <g id="xtick_10">
     <g id="line2d_24">
      <path clip-path="url(#p13834cb49e)" d="M 236.618182 175.555862 
L 236.618182 119.321379 
" style="fill:none;stroke:#cccccc;stroke-linecap:round;stroke-width:0.8;"/>
     </g>
     <g id="line2d_25"/>
    </g>
    <g id="xtick_11">
     <g id="line2d_26">
      <path clip-path="url(#p13834cb49e)" d="M 297.490909 175.555862 
L 297.490909 119.321379 
" style="fill:none;stroke:#cccccc;stroke-linecap:round;stroke-width:0.8;"/>
     </g>
     <g id="line2d_27"/>
    </g>
    <g id="xtick_12">
     <g id="line2d_28">
      <path clip-path="url(#p13834cb49e)" d="M 358.363636 175.555862 
L 358.363636 119.321379 
" style="fill:none;stroke:#cccccc;stroke-linecap:round;stroke-width:0.8;"/>
     </g>
     <g id="line2d_29"/>
    </g>
   </g>
   <g id="matplotlib.axis_4">
    <g id="ytick_3">
     <g id="line2d_30">
      <path clip-path="url(#p13834cb49e)" d="M 54 175.555862 
L 388.8 175.555862 
" style="fill:none;stroke:#cccccc;stroke-linecap:round;stroke-width:0.8;"/>
     </g>
     <g id="line2d_31"/>
     <g id="text_5">
      <!-- 0 -->
      <g style="fill:#262626;" transform="translate(44.1375 179.355081)scale(0.1 -0.1)">
       <use xlink:href="#DejaVuSans-30"/>
      </g>
     </g>
    </g>
    <g id="ytick_4">
     <g id="line2d_32">
      <path clip-path="url(#p13834cb49e)" d="M 54 142.957542 
L 388.8 142.957542 
" style="fill:none;stroke:#cccccc;stroke-linecap:round;stroke-width:0.8;"/>
     </g>
     <g id="line2d_33"/>
     <g id="text_6">
      <!-- 2000 -->
      <g style="fill:#262626;" transform="translate(25.05 146.756761)scale(0.1 -0.1)">
       <use xlink:href="#DejaVuSans-32"/>
       <use x="63.623047" xlink:href="#DejaVuSans-30"/>
       <use x="127.246094" xlink:href="#DejaVuSans-30"/>
       <use x="190.869141" xlink:href="#DejaVuSans-30"/>
      </g>
     </g>
    </g>
    <g id="text_7">
     <!-- # of coeffs -->
     <g style="fill:#262626;" transform="translate(18.970312 174.636277)rotate(-90)scale(0.1 -0.1)">
      <use xlink:href="#DejaVuSans-23"/>
      <use x="83.789062" xlink:href="#DejaVuSans-20"/>
      <use x="115.576172" xlink:href="#DejaVuSans-6f"/>
      <use x="176.757812" xlink:href="#DejaVuSans-66"/>
      <use x="211.962891" xlink:href="#DejaVuSans-20"/>
      <use x="243.75" xlink:href="#DejaVuSans-63"/>
      <use x="298.730469" xlink:href="#DejaVuSans-6f"/>
      <use x="359.912109" xlink:href="#DejaVuSans-65"/>
      <use x="421.435547" xlink:href="#DejaVuSans-66"/>
      <use x="456.640625" xlink:href="#DejaVuSans-66"/>
      <use x="491.845703" xlink:href="#DejaVuSans-73"/>
     </g>
    </g>
   </g>
   <g id="patch_49">
    <path clip-path="url(#p13834cb49e)" d="M 358.102751 175.555862 
L 358.115174 175.555862 
L 358.115174 172.737091 
L 358.102751 172.737091 
z
" style="fill:#1f77b4;opacity:0.4;"/>
   </g>
   <g id="patch_50">
    <path clip-path="url(#p13834cb49e)" d="M 358.115174 175.555862 
L 358.127597 175.555862 
L 358.127597 175.555862 
L 358.115174 175.555862 
z
" style="fill:#1f77b4;opacity:0.4;"/>
   </g>
   <g id="patch_51">
    <path clip-path="url(#p13834cb49e)" d="M 358.127597 175.555862 
L 358.14002 175.555862 
L 358.14002 175.555862 
L 358.127597 175.555862 
z
" style="fill:#1f77b4;opacity:0.4;"/>
   </g>
   <g id="patch_52">
    <path clip-path="url(#p13834cb49e)" d="M 358.14002 175.555862 
L 358.152443 175.555862 
L 358.152443 175.555862 
L 358.14002 175.555862 
z
" style="fill:#1f77b4;opacity:0.4;"/>
   </g>
   <g id="patch_53">
    <path clip-path="url(#p13834cb49e)" d="M 358.152443 175.555862 
L 358.164867 175.555862 
L 358.164867 175.555862 
L 358.152443 175.555862 
z
" style="fill:#1f77b4;opacity:0.4;"/>
   </g>
   <g id="patch_54">
    <path clip-path="url(#p13834cb49e)" d="M 358.164867 175.555862 
L 358.17729 175.555862 
L 358.17729 169.91832 
L 358.164867 169.91832 
z
" style="fill:#1f77b4;opacity:0.4;"/>
   </g>
   <g id="patch_55">
    <path clip-path="url(#p13834cb49e)" d="M 358.17729 175.555862 
L 358.189713 175.555862 
L 358.189713 167.099549 
L 358.17729 167.099549 
z
" style="fill:#1f77b4;opacity:0.4;"/>
   </g>
   <g id="patch_56">
    <path clip-path="url(#p13834cb49e)" d="M 358.189713 175.555862 
L 358.202136 175.555862 
L 358.202136 164.280778 
L 358.189713 164.280778 
z
" style="fill:#1f77b4;opacity:0.4;"/>
   </g>
   <g id="patch_57">
    <path clip-path="url(#p13834cb49e)" d="M 358.202136 175.555862 
L 358.214559 175.555862 
L 358.214559 167.099549 
L 358.202136 167.099549 
z
" style="fill:#1f77b4;opacity:0.4;"/>
   </g>
   <g id="patch_58">
    <path clip-path="url(#p13834cb49e)" d="M 358.214559 175.555862 
L 358.226982 175.555862 
L 358.226982 150.186922 
L 358.214559 150.186922 
z
" style="fill:#1f77b4;opacity:0.4;"/>
   </g>
   <g id="patch_59">
    <path clip-path="url(#p13834cb49e)" d="M 358.226982 175.555862 
L 358.239405 175.555862 
L 358.239405 153.005694 
L 358.226982 153.005694 
z
" style="fill:#1f77b4;opacity:0.4;"/>
   </g>
   <g id="patch_60">
    <path clip-path="url(#p13834cb49e)" d="M 358.239405 175.555862 
L 358.251828 175.555862 
L 358.251828 164.280778 
L 358.239405 164.280778 
z
" style="fill:#1f77b4;opacity:0.4;"/>
   </g>
   <g id="patch_61">
    <path clip-path="url(#p13834cb49e)" d="M 358.251828 175.555862 
L 358.264251 175.555862 
L 358.264251 158.643236 
L 358.251828 158.643236 
z
" style="fill:#1f77b4;opacity:0.4;"/>
   </g>
   <g id="patch_62">
    <path clip-path="url(#p13834cb49e)" d="M 358.264251 175.555862 
L 358.276675 175.555862 
L 358.276675 150.186922 
L 358.264251 150.186922 
z
" style="fill:#1f77b4;opacity:0.4;"/>
   </g>
   <g id="patch_63">
    <path clip-path="url(#p13834cb49e)" d="M 358.276675 175.555862 
L 358.289098 175.555862 
L 358.289098 144.54938 
L 358.276675 144.54938 
z
" style="fill:#1f77b4;opacity:0.4;"/>
   </g>
   <g id="patch_64">
    <path clip-path="url(#p13834cb49e)" d="M 358.289098 175.555862 
L 358.301521 175.555862 
L 358.301521 133.274296 
L 358.289098 133.274296 
z
" style="fill:#1f77b4;opacity:0.4;"/>
   </g>
   <g id="patch_65">
    <path clip-path="url(#p13834cb49e)" d="M 358.301521 175.555862 
L 358.313944 175.555862 
L 358.313944 127.636754 
L 358.301521 127.636754 
z
" style="fill:#1f77b4;opacity:0.4;"/>
   </g>
   <g id="patch_66">
    <path clip-path="url(#p13834cb49e)" d="M 358.313944 175.555862 
L 358.326367 175.555862 
L 358.326367 121.999212 
L 358.313944 121.999212 
z
" style="fill:#1f77b4;opacity:0.4;"/>
   </g>
   <g id="patch_67">
    <path clip-path="url(#p13834cb49e)" d="M 358.326367 175.555862 
L 358.33879 175.555862 
L 358.33879 124.817983 
L 358.326367 124.817983 
z
" style="fill:#1f77b4;opacity:0.4;"/>
   </g>
   <g id="patch_68">
    <path clip-path="url(#p13834cb49e)" d="M 358.33879 175.555862 
L 358.351213 175.555862 
L 358.351213 158.643236 
L 358.33879 158.643236 
z
" style="fill:#1f77b4;opacity:0.4;"/>
   </g>
   <g id="patch_69">
    <path clip-path="url(#p13834cb49e)" d="M 358.351213 175.555862 
L 358.363636 175.555862 
L 358.363636 156.764055 
L 358.351213 156.764055 
z
" style="fill:#1f77b4;opacity:0.4;"/>
   </g>
   <g id="line2d_34">
    <path clip-path="url(#p13834cb49e)" d="M 358.064667 175.503061 
L 358.067321 175.512033 
L 358.083244 175.213558 
L 358.13367 175.465479 
L 358.192057 165.901309 
L 358.316794 129.178512 
L 358.348641 152.583683 
L 358.401721 175.473644 
L 358.401721 175.473644 
" style="fill:none;stroke:#1f77b4;stroke-linecap:round;stroke-width:1.5;"/>
   </g>
   <g id="patch_70">
    <path d="M 54 175.555862 
L 54 119.321379 
" style="fill:none;stroke:#cccccc;stroke-linecap:square;stroke-linejoin:miter;"/>
   </g>
   <g id="patch_71">
    <path d="M 388.8 175.555862 
L 388.8 119.321379 
" style="fill:none;stroke:#cccccc;stroke-linecap:square;stroke-linejoin:miter;"/>
   </g>
   <g id="patch_72">
    <path d="M 54 175.555862 
L 388.8 175.555862 
" style="fill:none;stroke:#cccccc;stroke-linecap:square;stroke-linejoin:miter;"/>
   </g>
   <g id="patch_73">
    <path d="M 54 119.321379 
L 388.8 119.321379 
" style="fill:none;stroke:#cccccc;stroke-linecap:square;stroke-linejoin:miter;"/>
   </g>
   <g id="text_8">
    <g id="patch_74">
     <path d="M 56.696 135.248884 
L 159.266312 135.248884 
L 159.266312 117.570759 
L 56.696 117.570759 
z
" style="fill:#ffffff;stroke:#ffffff;stroke-linejoin:miter;"/>
    </g>
    <!-- RTS 96, 51 profiles -->
    <defs>
     <path d="M 44.390625 34.1875 
Q 47.5625 33.109375 50.5625 29.59375 
Q 53.5625 26.078125 56.59375 19.921875 
L 66.609375 0 
L 56 0 
L 46.6875 18.703125 
Q 43.0625 26.03125 39.671875 28.421875 
Q 36.28125 30.8125 30.421875 30.8125 
L 19.671875 30.8125 
L 19.671875 0 
L 9.8125 0 
L 9.8125 72.90625 
L 32.078125 72.90625 
Q 44.578125 72.90625 50.734375 67.671875 
Q 56.890625 62.453125 56.890625 51.90625 
Q 56.890625 45.015625 53.6875 40.46875 
Q 50.484375 35.9375 44.390625 34.1875 
z
M 19.671875 64.796875 
L 19.671875 38.921875 
L 32.078125 38.921875 
Q 39.203125 38.921875 42.84375 42.21875 
Q 46.484375 45.515625 46.484375 51.90625 
Q 46.484375 58.296875 42.84375 61.546875 
Q 39.203125 64.796875 32.078125 64.796875 
z
" id="DejaVuSans-52"/>
     <path d="M -0.296875 72.90625 
L 61.375 72.90625 
L 61.375 64.59375 
L 35.5 64.59375 
L 35.5 0 
L 25.59375 0 
L 25.59375 64.59375 
L -0.296875 64.59375 
z
" id="DejaVuSans-54"/>
     <path d="M 53.515625 70.515625 
L 53.515625 60.890625 
Q 47.90625 63.578125 42.921875 64.890625 
Q 37.9375 66.21875 33.296875 66.21875 
Q 25.25 66.21875 20.875 63.09375 
Q 16.5 59.96875 16.5 54.203125 
Q 16.5 49.359375 19.40625 46.890625 
Q 22.3125 44.4375 30.421875 42.921875 
L 36.375 41.703125 
Q 47.40625 39.59375 52.65625 34.296875 
Q 57.90625 29 57.90625 20.125 
Q 57.90625 9.515625 50.796875 4.046875 
Q 43.703125 -1.421875 29.984375 -1.421875 
Q 24.8125 -1.421875 18.96875 -0.25 
Q 13.140625 0.921875 6.890625 3.21875 
L 6.890625 13.375 
Q 12.890625 10.015625 18.65625 8.296875 
Q 24.421875 6.59375 29.984375 6.59375 
Q 38.421875 6.59375 43.015625 9.90625 
Q 47.609375 13.234375 47.609375 19.390625 
Q 47.609375 24.75 44.3125 27.78125 
Q 41.015625 30.8125 33.5 32.328125 
L 27.484375 33.5 
Q 16.453125 35.6875 11.515625 40.375 
Q 6.59375 45.0625 6.59375 53.421875 
Q 6.59375 63.09375 13.40625 68.65625 
Q 20.21875 74.21875 32.171875 74.21875 
Q 37.3125 74.21875 42.625 73.28125 
Q 47.953125 72.359375 53.515625 70.515625 
z
" id="DejaVuSans-53"/>
     <path d="M 10.984375 1.515625 
L 10.984375 10.5 
Q 14.703125 8.734375 18.5 7.8125 
Q 22.3125 6.890625 25.984375 6.890625 
Q 35.75 6.890625 40.890625 13.453125 
Q 46.046875 20.015625 46.78125 33.40625 
Q 43.953125 29.203125 39.59375 26.953125 
Q 35.25 24.703125 29.984375 24.703125 
Q 19.046875 24.703125 12.671875 31.3125 
Q 6.296875 37.9375 6.296875 49.421875 
Q 6.296875 60.640625 12.9375 67.421875 
Q 19.578125 74.21875 30.609375 74.21875 
Q 43.265625 74.21875 49.921875 64.515625 
Q 56.59375 54.828125 56.59375 36.375 
Q 56.59375 19.140625 48.40625 8.859375 
Q 40.234375 -1.421875 26.421875 -1.421875 
Q 22.703125 -1.421875 18.890625 -0.6875 
Q 15.09375 0.046875 10.984375 1.515625 
z
M 30.609375 32.421875 
Q 37.25 32.421875 41.125 36.953125 
Q 45.015625 41.5 45.015625 49.421875 
Q 45.015625 57.28125 41.125 61.84375 
Q 37.25 66.40625 30.609375 66.40625 
Q 23.96875 66.40625 20.09375 61.84375 
Q 16.21875 57.28125 16.21875 49.421875 
Q 16.21875 41.5 20.09375 36.953125 
Q 23.96875 32.421875 30.609375 32.421875 
z
" id="DejaVuSans-39"/>
     <path d="M 33.015625 40.375 
Q 26.375 40.375 22.484375 35.828125 
Q 18.609375 31.296875 18.609375 23.390625 
Q 18.609375 15.53125 22.484375 10.953125 
Q 26.375 6.390625 33.015625 6.390625 
Q 39.65625 6.390625 43.53125 10.953125 
Q 47.40625 15.53125 47.40625 23.390625 
Q 47.40625 31.296875 43.53125 35.828125 
Q 39.65625 40.375 33.015625 40.375 
z
M 52.59375 71.296875 
L 52.59375 62.3125 
Q 48.875 64.0625 45.09375 64.984375 
Q 41.3125 65.921875 37.59375 65.921875 
Q 27.828125 65.921875 22.671875 59.328125 
Q 17.53125 52.734375 16.796875 39.40625 
Q 19.671875 43.65625 24.015625 45.921875 
Q 28.375 48.1875 33.59375 48.1875 
Q 44.578125 48.1875 50.953125 41.515625 
Q 57.328125 34.859375 57.328125 23.390625 
Q 57.328125 12.15625 50.6875 5.359375 
Q 44.046875 -1.421875 33.015625 -1.421875 
Q 20.359375 -1.421875 13.671875 8.265625 
Q 6.984375 17.96875 6.984375 36.375 
Q 6.984375 53.65625 15.1875 63.9375 
Q 23.390625 74.21875 37.203125 74.21875 
Q 40.921875 74.21875 44.703125 73.484375 
Q 48.484375 72.75 52.59375 71.296875 
z
" id="DejaVuSans-36"/>
    </defs>
    <g style="fill:#262626;" transform="translate(60.696 129.169196)scale(0.1 -0.1)">
     <use xlink:href="#DejaVuSans-52"/>
     <use x="69.373047" xlink:href="#DejaVuSans-54"/>
     <use x="130.457031" xlink:href="#DejaVuSans-53"/>
     <use x="193.933594" xlink:href="#DejaVuSans-20"/>
     <use x="225.720703" xlink:href="#DejaVuSans-39"/>
     <use x="289.34375" xlink:href="#DejaVuSans-36"/>
     <use x="352.966797" xlink:href="#DejaVuSans-2c"/>
     <use x="384.753906" xlink:href="#DejaVuSans-20"/>
     <use x="416.541016" xlink:href="#DejaVuSans-35"/>
     <use x="480.164062" xlink:href="#DejaVuSans-31"/>
     <use x="543.787109" xlink:href="#DejaVuSans-20"/>
     <use x="575.574219" xlink:href="#DejaVuSans-70"/>
     <use x="639.050781" xlink:href="#DejaVuSans-72"/>
     <use x="680.132812" xlink:href="#DejaVuSans-6f"/>
     <use x="741.314453" xlink:href="#DejaVuSans-66"/>
     <use x="776.519531" xlink:href="#DejaVuSans-69"/>
     <use x="804.302734" xlink:href="#DejaVuSans-6c"/>
     <use x="832.085938" xlink:href="#DejaVuSans-65"/>
     <use x="893.609375" xlink:href="#DejaVuSans-73"/>
    </g>
   </g>
  </g>
  <g id="axes_3">
   <g id="patch_75">
    <path d="M 54 243.037241 
L 388.8 243.037241 
L 388.8 186.802759 
L 54 186.802759 
z
" style="fill:#ffffff;"/>
   </g>
   <g id="matplotlib.axis_5">
    <g id="xtick_13">
     <g id="line2d_35">
      <path clip-path="url(#p04e0cdef23)" d="M 54 243.037241 
L 54 186.802759 
" style="fill:none;stroke:#cccccc;stroke-linecap:round;stroke-width:0.8;"/>
     </g>
     <g id="line2d_36"/>
    </g>
    <g id="xtick_14">
     <g id="line2d_37">
      <path clip-path="url(#p04e0cdef23)" d="M 114.872727 243.037241 
L 114.872727 186.802759 
" style="fill:none;stroke:#cccccc;stroke-linecap:round;stroke-width:0.8;"/>
     </g>
     <g id="line2d_38"/>
    </g>
    <g id="xtick_15">
     <g id="line2d_39">
      <path clip-path="url(#p04e0cdef23)" d="M 175.745455 243.037241 
L 175.745455 186.802759 
" style="fill:none;stroke:#cccccc;stroke-linecap:round;stroke-width:0.8;"/>
     </g>
     <g id="line2d_40"/>
    </g>
    <g id="xtick_16">
     <g id="line2d_41">
      <path clip-path="url(#p04e0cdef23)" d="M 236.618182 243.037241 
L 236.618182 186.802759 
" style="fill:none;stroke:#cccccc;stroke-linecap:round;stroke-width:0.8;"/>
     </g>
     <g id="line2d_42"/>
    </g>
    <g id="xtick_17">
     <g id="line2d_43">
      <path clip-path="url(#p04e0cdef23)" d="M 297.490909 243.037241 
L 297.490909 186.802759 
" style="fill:none;stroke:#cccccc;stroke-linecap:round;stroke-width:0.8;"/>
     </g>
     <g id="line2d_44"/>
    </g>
    <g id="xtick_18">
     <g id="line2d_45">
      <path clip-path="url(#p04e0cdef23)" d="M 358.363636 243.037241 
L 358.363636 186.802759 
" style="fill:none;stroke:#cccccc;stroke-linecap:round;stroke-width:0.8;"/>
     </g>
     <g id="line2d_46"/>
    </g>
   </g>
   <g id="matplotlib.axis_6">
    <g id="ytick_5">
     <g id="line2d_47">
      <path clip-path="url(#p04e0cdef23)" d="M 54 243.037241 
L 388.8 243.037241 
" style="fill:none;stroke:#cccccc;stroke-linecap:round;stroke-width:0.8;"/>
     </g>
     <g id="line2d_48"/>
     <g id="text_9">
      <!-- 0 -->
      <g style="fill:#262626;" transform="translate(44.1375 246.83646)scale(0.1 -0.1)">
       <use xlink:href="#DejaVuSans-30"/>
      </g>
     </g>
    </g>
    <g id="ytick_6">
     <g id="line2d_49">
      <path clip-path="url(#p04e0cdef23)" d="M 54 204.114097 
L 388.8 204.114097 
" style="fill:none;stroke:#cccccc;stroke-linecap:round;stroke-width:0.8;"/>
     </g>
     <g id="line2d_50"/>
     <g id="text_10">
      <!-- 2 -->
      <g style="fill:#262626;" transform="translate(44.1375 207.913316)scale(0.1 -0.1)">
       <use xlink:href="#DejaVuSans-32"/>
      </g>
     </g>
    </g>
    <g id="text_11">
     <!-- # of coeffs -->
     <g style="fill:#262626;" transform="translate(38.057812 242.117656)rotate(-90)scale(0.1 -0.1)">
      <use xlink:href="#DejaVuSans-23"/>
      <use x="83.789062" xlink:href="#DejaVuSans-20"/>
      <use x="115.576172" xlink:href="#DejaVuSans-6f"/>
      <use x="176.757812" xlink:href="#DejaVuSans-66"/>
      <use x="211.962891" xlink:href="#DejaVuSans-20"/>
      <use x="243.75" xlink:href="#DejaVuSans-63"/>
      <use x="298.730469" xlink:href="#DejaVuSans-6f"/>
      <use x="359.912109" xlink:href="#DejaVuSans-65"/>
      <use x="421.435547" xlink:href="#DejaVuSans-66"/>
      <use x="456.640625" xlink:href="#DejaVuSans-66"/>
      <use x="491.845703" xlink:href="#DejaVuSans-73"/>
     </g>
    </g>
   </g>
   <g id="patch_76">
    <path clip-path="url(#p04e0cdef23)" d="M 93.928058 243.037241 
L 114.994829 243.037241 
L 114.994829 237.681576 
L 93.928058 237.681576 
z
" style="fill:#1f77b4;opacity:0.4;"/>
   </g>
   <g id="patch_77">
    <path clip-path="url(#p04e0cdef23)" d="M 114.994829 243.037241 
L 136.0616 243.037241 
L 136.0616 233.664828 
L 114.994829 233.664828 
z
" style="fill:#1f77b4;opacity:0.4;"/>
   </g>
   <g id="patch_78">
    <path clip-path="url(#p04e0cdef23)" d="M 136.0616 243.037241 
L 157.128371 243.037241 
L 157.128371 235.003744 
L 136.0616 235.003744 
z
" style="fill:#1f77b4;opacity:0.4;"/>
   </g>
   <g id="patch_79">
    <path clip-path="url(#p04e0cdef23)" d="M 157.128371 243.037241 
L 178.195142 243.037241 
L 178.195142 239.020493 
L 157.128371 239.020493 
z
" style="fill:#1f77b4;opacity:0.4;"/>
   </g>
   <g id="patch_80">
    <path clip-path="url(#p04e0cdef23)" d="M 178.195142 243.037241 
L 199.261913 243.037241 
L 199.261913 229.648079 
L 178.195142 229.648079 
z
" style="fill:#1f77b4;opacity:0.4;"/>
   </g>
   <g id="patch_81">
    <path clip-path="url(#p04e0cdef23)" d="M 199.261913 243.037241 
L 220.328684 243.037241 
L 220.328684 235.003744 
L 199.261913 235.003744 
z
" style="fill:#1f77b4;opacity:0.4;"/>
   </g>
   <g id="patch_82">
    <path clip-path="url(#p04e0cdef23)" d="M 220.328684 243.037241 
L 241.395455 243.037241 
L 241.395455 216.258916 
L 220.328684 216.258916 
z
" style="fill:#1f77b4;opacity:0.4;"/>
   </g>
   <g id="patch_83">
    <path clip-path="url(#p04e0cdef23)" d="M 241.395455 243.037241 
L 262.462226 243.037241 
L 262.462226 210.903251 
L 241.395455 210.903251 
z
" style="fill:#1f77b4;opacity:0.4;"/>
   </g>
   <g id="patch_84">
    <path clip-path="url(#p04e0cdef23)" d="M 262.462226 243.037241 
L 283.528996 243.037241 
L 283.528996 190.819507 
L 262.462226 190.819507 
z
" style="fill:#1f77b4;opacity:0.4;"/>
   </g>
   <g id="patch_85">
    <path clip-path="url(#p04e0cdef23)" d="M 283.528996 243.037241 
L 304.595767 243.037241 
L 304.595767 189.480591 
L 283.528996 189.480591 
z
" style="fill:#1f77b4;opacity:0.4;"/>
   </g>
   <g id="patch_86">
    <path clip-path="url(#p04e0cdef23)" d="M 304.595767 243.037241 
L 325.662538 243.037241 
L 325.662538 194.836256 
L 304.595767 194.836256 
z
" style="fill:#1f77b4;opacity:0.4;"/>
   </g>
   <g id="patch_87">
    <path clip-path="url(#p04e0cdef23)" d="M 325.662538 243.037241 
L 346.729309 243.037241 
L 346.729309 222.953498 
L 325.662538 222.953498 
z
" style="fill:#1f77b4;opacity:0.4;"/>
   </g>
   <g id="line2d_51">
    <path clip-path="url(#p04e0cdef23)" d="M 41.053149 243.003989 
L 55.169333 242.909635 
L 63.639043 242.675778 
L 72.108754 242.1972 
L 80.578464 241.428769 
L 91.871411 240.099915 
L 120.103779 236.705317 
L 128.573489 235.888135 
L 134.219962 235.594041 
L 139.866436 235.564066 
L 145.512909 235.767221 
L 156.805857 236.3565 
L 162.45233 236.399807 
L 168.098804 236.094856 
L 173.745277 235.405285 
L 179.391751 234.389638 
L 187.861461 232.536853 
L 210.447355 227.362018 
L 216.093829 225.70621 
L 221.740302 223.73382 
L 227.386776 221.434374 
L 233.033249 218.820091 
L 238.679723 215.898708 
L 244.326196 212.679392 
L 249.97267 209.207876 
L 264.088853 200.342455 
L 269.735327 197.262645 
L 272.558564 195.926636 
L 275.381801 194.754873 
L 278.205037 193.765148 
L 281.028274 192.972733 
L 283.851511 192.390662 
L 286.674748 192.029967 
L 289.497984 191.899819 
L 292.321221 192.007589 
L 295.144458 192.358826 
L 297.967695 192.957182 
L 300.790931 193.804261 
L 303.614168 194.899372 
L 306.437405 196.239129 
L 309.260642 197.816915 
L 312.083878 199.622227 
L 314.907115 201.640012 
L 317.730352 203.850149 
L 323.376825 208.740682 
L 331.846536 216.734898 
L 337.493009 222.046997 
L 343.139483 226.995578 
L 345.96272 229.257427 
L 348.785956 231.347383 
L 351.609193 233.249972 
L 354.43243 234.955645 
L 357.255667 236.460664 
L 360.078903 237.766815 
L 362.90214 238.880924 
L 365.725377 239.814191 
L 368.548614 240.581353 
L 371.37185 241.19971 
L 377.018324 242.065734 
L 382.664797 242.562977 
L 388.311271 242.82374 
L 396.780981 242.978212 
L 399.604218 242.996137 
L 399.604218 242.996137 
" style="fill:none;stroke:#1f77b4;stroke-linecap:round;stroke-width:1.5;"/>
   </g>
   <g id="patch_88">
    <path d="M 54 243.037241 
L 54 186.802759 
" style="fill:none;stroke:#cccccc;stroke-linecap:square;stroke-linejoin:miter;"/>
   </g>
   <g id="patch_89">
    <path d="M 388.8 243.037241 
L 388.8 186.802759 
" style="fill:none;stroke:#cccccc;stroke-linecap:square;stroke-linejoin:miter;"/>
   </g>
   <g id="patch_90">
    <path d="M 54 243.037241 
L 388.8 243.037241 
" style="fill:none;stroke:#cccccc;stroke-linecap:square;stroke-linejoin:miter;"/>
   </g>
   <g id="patch_91">
    <path d="M 54 186.802759 
L 388.8 186.802759 
" style="fill:none;stroke:#cccccc;stroke-linecap:square;stroke-linejoin:miter;"/>
   </g>
   <g id="text_12">
    <g id="patch_92">
     <path d="M 56.696 202.730263 
L 180.035063 202.730263 
L 180.035063 185.052138 
L 56.696 185.052138 
z
" style="fill:#ffffff;stroke:#ffffff;stroke-linejoin:miter;"/>
    </g>
    <!-- WECC Agg., 21 profiles -->
    <defs>
     <path d="M 34.1875 63.1875 
L 20.796875 26.90625 
L 47.609375 26.90625 
z
M 28.609375 72.90625 
L 39.796875 72.90625 
L 67.578125 0 
L 57.328125 0 
L 50.6875 18.703125 
L 17.828125 18.703125 
L 11.1875 0 
L 0.78125 0 
z
" id="DejaVuSans-41"/>
     <path d="M 45.40625 27.984375 
Q 45.40625 37.75 41.375 43.109375 
Q 37.359375 48.484375 30.078125 48.484375 
Q 22.859375 48.484375 18.828125 43.109375 
Q 14.796875 37.75 14.796875 27.984375 
Q 14.796875 18.265625 18.828125 12.890625 
Q 22.859375 7.515625 30.078125 7.515625 
Q 37.359375 7.515625 41.375 12.890625 
Q 45.40625 18.265625 45.40625 27.984375 
z
M 54.390625 6.78125 
Q 54.390625 -7.171875 48.1875 -13.984375 
Q 42 -20.796875 29.203125 -20.796875 
Q 24.46875 -20.796875 20.265625 -20.09375 
Q 16.0625 -19.390625 12.109375 -17.921875 
L 12.109375 -9.1875 
Q 16.0625 -11.328125 19.921875 -12.34375 
Q 23.78125 -13.375 27.78125 -13.375 
Q 36.625 -13.375 41.015625 -8.765625 
Q 45.40625 -4.15625 45.40625 5.171875 
L 45.40625 9.625 
Q 42.625 4.78125 38.28125 2.390625 
Q 33.9375 0 27.875 0 
Q 17.828125 0 11.671875 7.65625 
Q 5.515625 15.328125 5.515625 27.984375 
Q 5.515625 40.671875 11.671875 48.328125 
Q 17.828125 56 27.875 56 
Q 33.9375 56 38.28125 53.609375 
Q 42.625 51.21875 45.40625 46.390625 
L 45.40625 54.6875 
L 54.390625 54.6875 
z
" id="DejaVuSans-67"/>
     <path d="M 10.6875 12.40625 
L 21 12.40625 
L 21 0 
L 10.6875 0 
z
" id="DejaVuSans-2e"/>
    </defs>
    <g style="fill:#262626;" transform="translate(60.696 196.650575)scale(0.1 -0.1)">
     <use xlink:href="#DejaVuSans-57"/>
     <use x="98.876953" xlink:href="#DejaVuSans-45"/>
     <use x="162.060547" xlink:href="#DejaVuSans-43"/>
     <use x="231.884766" xlink:href="#DejaVuSans-43"/>
     <use x="301.708984" xlink:href="#DejaVuSans-20"/>
     <use x="333.496094" xlink:href="#DejaVuSans-41"/>
     <use x="401.904297" xlink:href="#DejaVuSans-67"/>
     <use x="465.380859" xlink:href="#DejaVuSans-67"/>
     <use x="528.857422" xlink:href="#DejaVuSans-2e"/>
     <use x="560.644531" xlink:href="#DejaVuSans-2c"/>
     <use x="592.431641" xlink:href="#DejaVuSans-20"/>
     <use x="624.21875" xlink:href="#DejaVuSans-32"/>
     <use x="687.841797" xlink:href="#DejaVuSans-31"/>
     <use x="751.464844" xlink:href="#DejaVuSans-20"/>
     <use x="783.251953" xlink:href="#DejaVuSans-70"/>
     <use x="846.728516" xlink:href="#DejaVuSans-72"/>
     <use x="887.810547" xlink:href="#DejaVuSans-6f"/>
     <use x="948.992188" xlink:href="#DejaVuSans-66"/>
     <use x="984.197266" xlink:href="#DejaVuSans-69"/>
     <use x="1011.980469" xlink:href="#DejaVuSans-6c"/>
     <use x="1039.763672" xlink:href="#DejaVuSans-65"/>
     <use x="1101.287109" xlink:href="#DejaVuSans-73"/>
    </g>
   </g>
  </g>
  <g id="axes_4">
   <g id="patch_93">
    <path d="M 54 310.518621 
L 388.8 310.518621 
L 388.8 254.284138 
L 54 254.284138 
z
" style="fill:#ffffff;"/>
   </g>
   <g id="matplotlib.axis_7">
    <g id="xtick_19">
     <g id="line2d_52">
      <path clip-path="url(#pa479845c84)" d="M 54 310.518621 
L 54 254.284138 
" style="fill:none;stroke:#cccccc;stroke-linecap:round;stroke-width:0.8;"/>
     </g>
     <g id="line2d_53"/>
    </g>
    <g id="xtick_20">
     <g id="line2d_54">
      <path clip-path="url(#pa479845c84)" d="M 114.872727 310.518621 
L 114.872727 254.284138 
" style="fill:none;stroke:#cccccc;stroke-linecap:round;stroke-width:0.8;"/>
     </g>
     <g id="line2d_55"/>
    </g>
    <g id="xtick_21">
     <g id="line2d_56">
      <path clip-path="url(#pa479845c84)" d="M 175.745455 310.518621 
L 175.745455 254.284138 
" style="fill:none;stroke:#cccccc;stroke-linecap:round;stroke-width:0.8;"/>
     </g>
     <g id="line2d_57"/>
    </g>
    <g id="xtick_22">
     <g id="line2d_58">
      <path clip-path="url(#pa479845c84)" d="M 236.618182 310.518621 
L 236.618182 254.284138 
" style="fill:none;stroke:#cccccc;stroke-linecap:round;stroke-width:0.8;"/>
     </g>
     <g id="line2d_59"/>
    </g>
    <g id="xtick_23">
     <g id="line2d_60">
      <path clip-path="url(#pa479845c84)" d="M 297.490909 310.518621 
L 297.490909 254.284138 
" style="fill:none;stroke:#cccccc;stroke-linecap:round;stroke-width:0.8;"/>
     </g>
     <g id="line2d_61"/>
    </g>
    <g id="xtick_24">
     <g id="line2d_62">
      <path clip-path="url(#pa479845c84)" d="M 358.363636 310.518621 
L 358.363636 254.284138 
" style="fill:none;stroke:#cccccc;stroke-linecap:round;stroke-width:0.8;"/>
     </g>
     <g id="line2d_63"/>
    </g>
   </g>
   <g id="matplotlib.axis_8">
    <g id="ytick_7">
     <g id="line2d_64">
      <path clip-path="url(#pa479845c84)" d="M 54 310.518621 
L 388.8 310.518621 
" style="fill:none;stroke:#cccccc;stroke-linecap:round;stroke-width:0.8;"/>
     </g>
     <g id="line2d_65"/>
     <g id="text_13">
      <!-- 0 -->
      <g style="fill:#262626;" transform="translate(44.1375 314.317839)scale(0.1 -0.1)">
       <use xlink:href="#DejaVuSans-30"/>
      </g>
     </g>
    </g>
    <g id="ytick_8">
     <g id="line2d_66">
      <path clip-path="url(#pa479845c84)" d="M 54 281.752556 
L 388.8 281.752556 
" style="fill:none;stroke:#cccccc;stroke-linecap:round;stroke-width:0.8;"/>
     </g>
     <g id="line2d_67"/>
     <g id="text_14">
      <!-- 10 -->
      <g style="fill:#262626;" transform="translate(37.775 285.551775)scale(0.1 -0.1)">
       <use xlink:href="#DejaVuSans-31"/>
       <use x="63.623047" xlink:href="#DejaVuSans-30"/>
      </g>
     </g>
    </g>
    <g id="text_15">
     <!-- # of coeffs -->
     <g style="fill:#262626;" transform="translate(31.695312 309.599036)rotate(-90)scale(0.1 -0.1)">
      <use xlink:href="#DejaVuSans-23"/>
      <use x="83.789062" xlink:href="#DejaVuSans-20"/>
      <use x="115.576172" xlink:href="#DejaVuSans-6f"/>
      <use x="176.757812" xlink:href="#DejaVuSans-66"/>
      <use x="211.962891" xlink:href="#DejaVuSans-20"/>
      <use x="243.75" xlink:href="#DejaVuSans-63"/>
      <use x="298.730469" xlink:href="#DejaVuSans-6f"/>
      <use x="359.912109" xlink:href="#DejaVuSans-65"/>
      <use x="421.435547" xlink:href="#DejaVuSans-66"/>
      <use x="456.640625" xlink:href="#DejaVuSans-66"/>
      <use x="491.845703" xlink:href="#DejaVuSans-73"/>
     </g>
    </g>
   </g>
   <g id="patch_94">
    <path clip-path="url(#pa479845c84)" d="M 320.757412 310.518621 
L 325.463602 310.518621 
L 325.463602 293.605994 
L 320.757412 293.605994 
z
" style="fill:#1f77b4;opacity:0.4;"/>
   </g>
   <g id="patch_95">
    <path clip-path="url(#pa479845c84)" d="M 325.463602 310.518621 
L 330.169792 310.518621 
L 330.169792 299.243536 
L 325.463602 299.243536 
z
" style="fill:#1f77b4;opacity:0.4;"/>
   </g>
   <g id="patch_96">
    <path clip-path="url(#pa479845c84)" d="M 330.169792 310.518621 
L 334.875982 310.518621 
L 334.875982 299.243536 
L 330.169792 299.243536 
z
" style="fill:#1f77b4;opacity:0.4;"/>
   </g>
   <g id="patch_97">
    <path clip-path="url(#pa479845c84)" d="M 334.875982 310.518621 
L 339.582173 310.518621 
L 339.582173 285.149681 
L 334.875982 285.149681 
z
" style="fill:#1f77b4;opacity:0.4;"/>
   </g>
   <g id="patch_98">
    <path clip-path="url(#pa479845c84)" d="M 339.582173 310.518621 
L 344.288363 310.518621 
L 344.288363 268.237055 
L 339.582173 268.237055 
z
" style="fill:#1f77b4;opacity:0.4;"/>
   </g>
   <g id="patch_99">
    <path clip-path="url(#pa479845c84)" d="M 344.288363 310.518621 
L 348.994553 310.518621 
L 348.994553 256.96197 
L 344.288363 256.96197 
z
" style="fill:#1f77b4;opacity:0.4;"/>
   </g>
   <g id="patch_100">
    <path clip-path="url(#pa479845c84)" d="M 348.994553 310.518621 
L 353.700743 310.518621 
L 353.700743 285.149681 
L 348.994553 285.149681 
z
" style="fill:#1f77b4;opacity:0.4;"/>
   </g>
   <g id="line2d_68">
    <path clip-path="url(#pa479845c84)" d="M 309.491515 310.423918 
L 311.238763 310.318435 
L 312.549199 310.062794 
L 313.859635 309.559241 
L 314.733259 309.035308 
L 316.043695 307.918353 
L 317.354131 306.427904 
L 320.848627 302.057996 
L 322.159063 300.951335 
L 323.032687 300.465616 
L 324.343123 300.04914 
L 326.527183 299.761289 
L 327.837619 299.539402 
L 329.148055 299.073511 
L 330.021679 298.542819 
L 330.895303 297.779883 
L 331.768927 296.747175 
L 332.642551 295.423938 
L 333.952987 292.898404 
L 335.263423 289.795517 
L 337.010671 284.988584 
L 341.378792 272.357815 
L 342.252416 270.393064 
L 343.12604 268.875336 
L 343.999664 267.913096 
L 344.436476 267.668118 
L 344.873288 267.591468 
L 345.3101 267.68836 
L 345.746912 267.961412 
L 346.183724 268.410558 
L 347.057348 269.823464 
L 347.930972 271.874636 
L 348.804596 274.476519 
L 350.115032 279.160909 
L 355.356776 299.428243 
L 356.667212 303.18434 
L 357.540836 305.187672 
L 358.41446 306.787151 
L 359.288084 308.009174 
L 360.161708 308.900399 
L 361.035332 309.519461 
L 361.908956 309.927939 
L 363.219392 310.267252 
L 364.96664 310.419788 
L 364.96664 310.419788 
" style="fill:none;stroke:#1f77b4;stroke-linecap:round;stroke-width:1.5;"/>
   </g>
   <g id="patch_101">
    <path d="M 54 310.518621 
L 54 254.284138 
" style="fill:none;stroke:#cccccc;stroke-linecap:square;stroke-linejoin:miter;"/>
   </g>
   <g id="patch_102">
    <path d="M 388.8 310.518621 
L 388.8 254.284138 
" style="fill:none;stroke:#cccccc;stroke-linecap:square;stroke-linejoin:miter;"/>
   </g>
   <g id="patch_103">
    <path d="M 54 310.518621 
L 388.8 310.518621 
" style="fill:none;stroke:#cccccc;stroke-linecap:square;stroke-linejoin:miter;"/>
   </g>
   <g id="patch_104">
    <path d="M 54 254.284138 
L 388.8 254.284138 
" style="fill:none;stroke:#cccccc;stroke-linecap:square;stroke-linejoin:miter;"/>
   </g>
   <g id="text_16">
    <g id="patch_105">
     <path d="M 56.696 270.211642 
L 163.322563 270.211642 
L 163.322563 252.533517 
L 56.696 252.533517 
z
" style="fill:#ffffff;stroke:#ffffff;stroke-linejoin:miter;"/>
    </g>
    <!-- RTE 1hr, 12 profiles -->
    <defs>
     <path d="M 54.890625 33.015625 
L 54.890625 0 
L 45.90625 0 
L 45.90625 32.71875 
Q 45.90625 40.484375 42.875 44.328125 
Q 39.84375 48.1875 33.796875 48.1875 
Q 26.515625 48.1875 22.3125 43.546875 
Q 18.109375 38.921875 18.109375 30.90625 
L 18.109375 0 
L 9.078125 0 
L 9.078125 75.984375 
L 18.109375 75.984375 
L 18.109375 46.1875 
Q 21.34375 51.125 25.703125 53.5625 
Q 30.078125 56 35.796875 56 
Q 45.21875 56 50.046875 50.171875 
Q 54.890625 44.34375 54.890625 33.015625 
z
" id="DejaVuSans-68"/>
    </defs>
    <g style="fill:#262626;" transform="translate(60.696 264.131955)scale(0.1 -0.1)">
     <use xlink:href="#DejaVuSans-52"/>
     <use x="69.373047" xlink:href="#DejaVuSans-54"/>
     <use x="130.457031" xlink:href="#DejaVuSans-45"/>
     <use x="193.640625" xlink:href="#DejaVuSans-20"/>
     <use x="225.427734" xlink:href="#DejaVuSans-31"/>
     <use x="289.050781" xlink:href="#DejaVuSans-68"/>
     <use x="352.429688" xlink:href="#DejaVuSans-72"/>
     <use x="393.542969" xlink:href="#DejaVuSans-2c"/>
     <use x="425.330078" xlink:href="#DejaVuSans-20"/>
     <use x="457.117188" xlink:href="#DejaVuSans-31"/>
     <use x="520.740234" xlink:href="#DejaVuSans-32"/>
     <use x="584.363281" xlink:href="#DejaVuSans-20"/>
     <use x="616.150391" xlink:href="#DejaVuSans-70"/>
     <use x="679.626953" xlink:href="#DejaVuSans-72"/>
     <use x="720.708984" xlink:href="#DejaVuSans-6f"/>
     <use x="781.890625" xlink:href="#DejaVuSans-66"/>
     <use x="817.095703" xlink:href="#DejaVuSans-69"/>
     <use x="844.878906" xlink:href="#DejaVuSans-6c"/>
     <use x="872.662109" xlink:href="#DejaVuSans-65"/>
     <use x="934.185547" xlink:href="#DejaVuSans-73"/>
    </g>
   </g>
  </g>
  <g id="axes_5">
   <g id="patch_106">
    <path d="M 54 378 
L 388.8 378 
L 388.8 321.765517 
L 54 321.765517 
z
" style="fill:#ffffff;"/>
   </g>
   <g id="matplotlib.axis_9">
    <g id="xtick_25">
     <g id="line2d_69">
      <path clip-path="url(#p7d9096c28f)" d="M 54 378 
L 54 321.765517 
" style="fill:none;stroke:#cccccc;stroke-linecap:round;stroke-width:0.8;"/>
     </g>
     <g id="line2d_70"/>
     <g id="text_17">
      <!-- 0.0 -->
      <g style="fill:#262626;" transform="translate(46.048437 389.098438)scale(0.1 -0.1)">
       <use xlink:href="#DejaVuSans-30"/>
       <use x="63.623047" xlink:href="#DejaVuSans-2e"/>
       <use x="95.410156" xlink:href="#DejaVuSans-30"/>
      </g>
     </g>
    </g>
    <g id="xtick_26">
     <g id="line2d_71">
      <path clip-path="url(#p7d9096c28f)" d="M 114.872727 378 
L 114.872727 321.765517 
" style="fill:none;stroke:#cccccc;stroke-linecap:round;stroke-width:0.8;"/>
     </g>
     <g id="line2d_72"/>
     <g id="text_18">
      <!-- 0.2 -->
      <g style="fill:#262626;" transform="translate(106.921165 389.098438)scale(0.1 -0.1)">
       <use xlink:href="#DejaVuSans-30"/>
       <use x="63.623047" xlink:href="#DejaVuSans-2e"/>
       <use x="95.410156" xlink:href="#DejaVuSans-32"/>
      </g>
     </g>
    </g>
    <g id="xtick_27">
     <g id="line2d_73">
      <path clip-path="url(#p7d9096c28f)" d="M 175.745455 378 
L 175.745455 321.765517 
" style="fill:none;stroke:#cccccc;stroke-linecap:round;stroke-width:0.8;"/>
     </g>
     <g id="line2d_74"/>
     <g id="text_19">
      <!-- 0.4 -->
      <defs>
       <path d="M 37.796875 64.3125 
L 12.890625 25.390625 
L 37.796875 25.390625 
z
M 35.203125 72.90625 
L 47.609375 72.90625 
L 47.609375 25.390625 
L 58.015625 25.390625 
L 58.015625 17.1875 
L 47.609375 17.1875 
L 47.609375 0 
L 37.796875 0 
L 37.796875 17.1875 
L 4.890625 17.1875 
L 4.890625 26.703125 
z
" id="DejaVuSans-34"/>
      </defs>
      <g style="fill:#262626;" transform="translate(167.793892 389.098438)scale(0.1 -0.1)">
       <use xlink:href="#DejaVuSans-30"/>
       <use x="63.623047" xlink:href="#DejaVuSans-2e"/>
       <use x="95.410156" xlink:href="#DejaVuSans-34"/>
      </g>
     </g>
    </g>
    <g id="xtick_28">
     <g id="line2d_75">
      <path clip-path="url(#p7d9096c28f)" d="M 236.618182 378 
L 236.618182 321.765517 
" style="fill:none;stroke:#cccccc;stroke-linecap:round;stroke-width:0.8;"/>
     </g>
     <g id="line2d_76"/>
     <g id="text_20">
      <!-- 0.6 -->
      <g style="fill:#262626;" transform="translate(228.666619 389.098438)scale(0.1 -0.1)">
       <use xlink:href="#DejaVuSans-30"/>
       <use x="63.623047" xlink:href="#DejaVuSans-2e"/>
       <use x="95.410156" xlink:href="#DejaVuSans-36"/>
      </g>
     </g>
    </g>
    <g id="xtick_29">
     <g id="line2d_77">
      <path clip-path="url(#p7d9096c28f)" d="M 297.490909 378 
L 297.490909 321.765517 
" style="fill:none;stroke:#cccccc;stroke-linecap:round;stroke-width:0.8;"/>
     </g>
     <g id="line2d_78"/>
     <g id="text_21">
      <!-- 0.8 -->
      <defs>
       <path d="M 31.78125 34.625 
Q 24.75 34.625 20.71875 30.859375 
Q 16.703125 27.09375 16.703125 20.515625 
Q 16.703125 13.921875 20.71875 10.15625 
Q 24.75 6.390625 31.78125 6.390625 
Q 38.8125 6.390625 42.859375 10.171875 
Q 46.921875 13.96875 46.921875 20.515625 
Q 46.921875 27.09375 42.890625 30.859375 
Q 38.875 34.625 31.78125 34.625 
z
M 21.921875 38.8125 
Q 15.578125 40.375 12.03125 44.71875 
Q 8.5 49.078125 8.5 55.328125 
Q 8.5 64.0625 14.71875 69.140625 
Q 20.953125 74.21875 31.78125 74.21875 
Q 42.671875 74.21875 48.875 69.140625 
Q 55.078125 64.0625 55.078125 55.328125 
Q 55.078125 49.078125 51.53125 44.71875 
Q 48 40.375 41.703125 38.8125 
Q 48.828125 37.15625 52.796875 32.3125 
Q 56.78125 27.484375 56.78125 20.515625 
Q 56.78125 9.90625 50.3125 4.234375 
Q 43.84375 -1.421875 31.78125 -1.421875 
Q 19.734375 -1.421875 13.25 4.234375 
Q 6.78125 9.90625 6.78125 20.515625 
Q 6.78125 27.484375 10.78125 32.3125 
Q 14.796875 37.15625 21.921875 38.8125 
z
M 18.3125 54.390625 
Q 18.3125 48.734375 21.84375 45.5625 
Q 25.390625 42.390625 31.78125 42.390625 
Q 38.140625 42.390625 41.71875 45.5625 
Q 45.3125 48.734375 45.3125 54.390625 
Q 45.3125 60.0625 41.71875 63.234375 
Q 38.140625 66.40625 31.78125 66.40625 
Q 25.390625 66.40625 21.84375 63.234375 
Q 18.3125 60.0625 18.3125 54.390625 
z
" id="DejaVuSans-38"/>
      </defs>
      <g style="fill:#262626;" transform="translate(289.539347 389.098438)scale(0.1 -0.1)">
       <use xlink:href="#DejaVuSans-30"/>
       <use x="63.623047" xlink:href="#DejaVuSans-2e"/>
       <use x="95.410156" xlink:href="#DejaVuSans-38"/>
      </g>
     </g>
    </g>
    <g id="xtick_30">
     <g id="line2d_79">
      <path clip-path="url(#p7d9096c28f)" d="M 358.363636 378 
L 358.363636 321.765517 
" style="fill:none;stroke:#cccccc;stroke-linecap:round;stroke-width:0.8;"/>
     </g>
     <g id="line2d_80"/>
     <g id="text_22">
      <!-- 1.0 -->
      <g style="fill:#262626;" transform="translate(350.412074 389.098438)scale(0.1 -0.1)">
       <use xlink:href="#DejaVuSans-31"/>
       <use x="63.623047" xlink:href="#DejaVuSans-2e"/>
       <use x="95.410156" xlink:href="#DejaVuSans-30"/>
      </g>
     </g>
    </g>
    <g id="text_23">
     <!-- Correlation coefficient value -->
     <defs>
      <path d="M 34.28125 27.484375 
Q 23.390625 27.484375 19.1875 25 
Q 14.984375 22.515625 14.984375 16.5 
Q 14.984375 11.71875 18.140625 8.90625 
Q 21.296875 6.109375 26.703125 6.109375 
Q 34.1875 6.109375 38.703125 11.40625 
Q 43.21875 16.703125 43.21875 25.484375 
L 43.21875 27.484375 
z
M 52.203125 31.203125 
L 52.203125 0 
L 43.21875 0 
L 43.21875 8.296875 
Q 40.140625 3.328125 35.546875 0.953125 
Q 30.953125 -1.421875 24.3125 -1.421875 
Q 15.921875 -1.421875 10.953125 3.296875 
Q 6 8.015625 6 15.921875 
Q 6 25.140625 12.171875 29.828125 
Q 18.359375 34.515625 30.609375 34.515625 
L 43.21875 34.515625 
L 43.21875 35.40625 
Q 43.21875 41.609375 39.140625 45 
Q 35.0625 48.390625 27.6875 48.390625 
Q 23 48.390625 18.546875 47.265625 
Q 14.109375 46.140625 10.015625 43.890625 
L 10.015625 52.203125 
Q 14.9375 54.109375 19.578125 55.046875 
Q 24.21875 56 28.609375 56 
Q 40.484375 56 46.34375 49.84375 
Q 52.203125 43.703125 52.203125 31.203125 
z
" id="DejaVuSans-61"/>
      <path d="M 18.3125 70.21875 
L 18.3125 54.6875 
L 36.8125 54.6875 
L 36.8125 47.703125 
L 18.3125 47.703125 
L 18.3125 18.015625 
Q 18.3125 11.328125 20.140625 9.421875 
Q 21.96875 7.515625 27.59375 7.515625 
L 36.8125 7.515625 
L 36.8125 0 
L 27.59375 0 
Q 17.1875 0 13.234375 3.875 
Q 9.28125 7.765625 9.28125 18.015625 
L 9.28125 47.703125 
L 2.6875 47.703125 
L 2.6875 54.6875 
L 9.28125 54.6875 
L 9.28125 70.21875 
z
" id="DejaVuSans-74"/>
      <path d="M 54.890625 33.015625 
L 54.890625 0 
L 45.90625 0 
L 45.90625 32.71875 
Q 45.90625 40.484375 42.875 44.328125 
Q 39.84375 48.1875 33.796875 48.1875 
Q 26.515625 48.1875 22.3125 43.546875 
Q 18.109375 38.921875 18.109375 30.90625 
L 18.109375 0 
L 9.078125 0 
L 9.078125 54.6875 
L 18.109375 54.6875 
L 18.109375 46.1875 
Q 21.34375 51.125 25.703125 53.5625 
Q 30.078125 56 35.796875 56 
Q 45.21875 56 50.046875 50.171875 
Q 54.890625 44.34375 54.890625 33.015625 
z
" id="DejaVuSans-6e"/>
      <path d="M 2.984375 54.6875 
L 12.5 54.6875 
L 29.59375 8.796875 
L 46.6875 54.6875 
L 56.203125 54.6875 
L 35.6875 0 
L 23.484375 0 
z
" id="DejaVuSans-76"/>
      <path d="M 8.5 21.578125 
L 8.5 54.6875 
L 17.484375 54.6875 
L 17.484375 21.921875 
Q 17.484375 14.15625 20.5 10.265625 
Q 23.53125 6.390625 29.59375 6.390625 
Q 36.859375 6.390625 41.078125 11.03125 
Q 45.3125 15.671875 45.3125 23.6875 
L 45.3125 54.6875 
L 54.296875 54.6875 
L 54.296875 0 
L 45.3125 0 
L 45.3125 8.40625 
Q 42.046875 3.421875 37.71875 1 
Q 33.40625 -1.421875 27.6875 -1.421875 
Q 18.265625 -1.421875 13.375 4.4375 
Q 8.5 10.296875 8.5 21.578125 
z
M 31.109375 56 
z
" id="DejaVuSans-75"/>
     </defs>
     <g style="fill:#262626;" transform="translate(150.659375 402.776563)scale(0.1 -0.1)">
      <use xlink:href="#DejaVuSans-43"/>
      <use x="69.824219" xlink:href="#DejaVuSans-6f"/>
      <use x="131.005859" xlink:href="#DejaVuSans-72"/>
      <use x="172.103516" xlink:href="#DejaVuSans-72"/>
      <use x="213.185547" xlink:href="#DejaVuSans-65"/>
      <use x="274.708984" xlink:href="#DejaVuSans-6c"/>
      <use x="302.492188" xlink:href="#DejaVuSans-61"/>
      <use x="363.771484" xlink:href="#DejaVuSans-74"/>
      <use x="402.980469" xlink:href="#DejaVuSans-69"/>
      <use x="430.763672" xlink:href="#DejaVuSans-6f"/>
      <use x="491.945312" xlink:href="#DejaVuSans-6e"/>
      <use x="555.324219" xlink:href="#DejaVuSans-20"/>
      <use x="587.111328" xlink:href="#DejaVuSans-63"/>
      <use x="642.091797" xlink:href="#DejaVuSans-6f"/>
      <use x="703.273438" xlink:href="#DejaVuSans-65"/>
      <use x="764.796875" xlink:href="#DejaVuSans-66"/>
      <use x="800.001953" xlink:href="#DejaVuSans-66"/>
      <use x="835.207031" xlink:href="#DejaVuSans-69"/>
      <use x="862.990234" xlink:href="#DejaVuSans-63"/>
      <use x="917.970703" xlink:href="#DejaVuSans-69"/>
      <use x="945.753906" xlink:href="#DejaVuSans-65"/>
      <use x="1007.277344" xlink:href="#DejaVuSans-6e"/>
      <use x="1070.65625" xlink:href="#DejaVuSans-74"/>
      <use x="1109.865234" xlink:href="#DejaVuSans-20"/>
      <use x="1141.652344" xlink:href="#DejaVuSans-76"/>
      <use x="1200.832031" xlink:href="#DejaVuSans-61"/>
      <use x="1262.111328" xlink:href="#DejaVuSans-6c"/>
      <use x="1289.894531" xlink:href="#DejaVuSans-75"/>
      <use x="1353.273438" xlink:href="#DejaVuSans-65"/>
     </g>
    </g>
   </g>
   <g id="matplotlib.axis_10">
    <g id="ytick_9">
     <g id="line2d_81">
      <path clip-path="url(#p7d9096c28f)" d="M 54 378 
L 388.8 378 
" style="fill:none;stroke:#cccccc;stroke-linecap:round;stroke-width:0.8;"/>
     </g>
     <g id="line2d_82"/>
     <g id="text_24">
      <!-- 0 -->
      <g style="fill:#262626;" transform="translate(44.1375 381.799219)scale(0.1 -0.1)">
       <use xlink:href="#DejaVuSans-30"/>
      </g>
     </g>
    </g>
    <g id="ytick_10">
     <g id="line2d_83">
      <path clip-path="url(#p7d9096c28f)" d="M 54 333.00515 
L 388.8 333.00515 
" style="fill:none;stroke:#cccccc;stroke-linecap:round;stroke-width:0.8;"/>
     </g>
     <g id="line2d_84"/>
     <g id="text_25">
      <!-- 5 -->
      <g style="fill:#262626;" transform="translate(44.1375 336.804368)scale(0.1 -0.1)">
       <use xlink:href="#DejaVuSans-35"/>
      </g>
     </g>
    </g>
    <g id="text_26">
     <!-- # of coeffs -->
     <g style="fill:#262626;" transform="translate(38.057812 377.080415)rotate(-90)scale(0.1 -0.1)">
      <use xlink:href="#DejaVuSans-23"/>
      <use x="83.789062" xlink:href="#DejaVuSans-20"/>
      <use x="115.576172" xlink:href="#DejaVuSans-6f"/>
      <use x="176.757812" xlink:href="#DejaVuSans-66"/>
      <use x="211.962891" xlink:href="#DejaVuSans-20"/>
      <use x="243.75" xlink:href="#DejaVuSans-63"/>
      <use x="298.730469" xlink:href="#DejaVuSans-6f"/>
      <use x="359.912109" xlink:href="#DejaVuSans-65"/>
      <use x="421.435547" xlink:href="#DejaVuSans-66"/>
      <use x="456.640625" xlink:href="#DejaVuSans-66"/>
      <use x="491.845703" xlink:href="#DejaVuSans-73"/>
     </g>
    </g>
   </g>
   <g id="patch_107">
    <path clip-path="url(#p7d9096c28f)" d="M 244.740864 378 
L 271.732131 378 
L 271.732131 372.362458 
L 244.740864 372.362458 
z
" style="fill:#1f77b4;opacity:0.4;"/>
   </g>
   <g id="patch_108">
    <path clip-path="url(#p7d9096c28f)" d="M 271.732131 378 
L 298.723397 378 
L 298.723397 352.63106 
L 271.732131 352.63106 
z
" style="fill:#1f77b4;opacity:0.4;"/>
   </g>
   <g id="patch_109">
    <path clip-path="url(#p7d9096c28f)" d="M 298.723397 378 
L 325.714664 378 
L 325.714664 361.087374 
L 298.723397 361.087374 
z
" style="fill:#1f77b4;opacity:0.4;"/>
   </g>
   <g id="patch_110">
    <path clip-path="url(#p7d9096c28f)" d="M 325.714664 378 
L 352.705931 378 
L 352.705931 324.44335 
L 325.714664 324.44335 
z
" style="fill:#1f77b4;opacity:0.4;"/>
   </g>
   <g id="line2d_85">
    <path clip-path="url(#p7d9096c28f)" d="M 201.597172 377.92409 
L 210.774454 377.855279 
L 218.422188 377.56783 
L 224.540375 377.113493 
L 230.658563 376.436043 
L 239.835844 375.129008 
L 249.013125 373.637285 
L 253.601765 372.712025 
L 256.660859 371.941079 
L 259.719953 370.992565 
L 262.779046 369.830045 
L 265.83814 368.439269 
L 268.897234 366.838713 
L 275.015421 363.272298 
L 279.604062 360.702295 
L 282.663155 359.263905 
L 285.722249 358.151602 
L 288.781343 357.400558 
L 291.840436 356.982848 
L 294.89953 356.808299 
L 301.017718 356.603164 
L 304.076811 356.23695 
L 307.135905 355.493904 
L 308.665452 354.947715 
L 310.194999 354.274518 
L 311.724545 353.471654 
L 314.783639 351.489374 
L 317.842733 349.07397 
L 322.431373 344.984821 
L 325.490467 342.285216 
L 328.549561 339.930739 
L 330.079108 338.972587 
L 331.608654 338.205087 
L 333.138201 337.65743 
L 334.667748 337.353965 
L 336.197295 337.313183 
L 337.726842 337.546913 
L 339.256389 338.059797 
L 340.785936 338.849063 
L 342.315482 339.904621 
L 343.845029 341.209469 
L 345.374576 342.74039 
L 348.43367 346.362336 
L 351.492763 350.500417 
L 359.140498 361.21028 
L 362.199591 365.00152 
L 365.258685 368.275577 
L 368.317779 370.973838 
L 369.847326 372.10615 
L 372.906419 373.962528 
L 375.965513 375.332689 
L 379.024607 376.301537 
L 382.0837 376.957917 
L 385.142794 377.383732 
L 389.731435 377.736073 
L 395.849622 377.910113 
L 395.849622 377.910113 
" style="fill:none;stroke:#1f77b4;stroke-linecap:round;stroke-width:1.5;"/>
   </g>
   <g id="patch_111">
    <path d="M 54 378 
L 54 321.765517 
" style="fill:none;stroke:#cccccc;stroke-linecap:square;stroke-linejoin:miter;"/>
   </g>
   <g id="patch_112">
    <path d="M 388.8 378 
L 388.8 321.765517 
" style="fill:none;stroke:#cccccc;stroke-linecap:square;stroke-linejoin:miter;"/>
   </g>
   <g id="patch_113">
    <path d="M 54 378 
L 388.8 378 
" style="fill:none;stroke:#cccccc;stroke-linecap:square;stroke-linejoin:miter;"/>
   </g>
   <g id="patch_114">
    <path d="M 54 321.765517 
L 388.8 321.765517 
" style="fill:none;stroke:#cccccc;stroke-linecap:square;stroke-linejoin:miter;"/>
   </g>
   <g id="text_27">
    <g id="patch_115">
     <path d="M 56.696 337.693022 
L 151.828812 337.693022 
L 151.828812 320.014897 
L 56.696 320.014897 
z
" style="fill:#ffffff;stroke:#ffffff;stroke-linejoin:miter;"/>
    </g>
    <!-- ERCOT, 9 profiles -->
    <defs>
     <path d="M 39.40625 66.21875 
Q 28.65625 66.21875 22.328125 58.203125 
Q 16.015625 50.203125 16.015625 36.375 
Q 16.015625 22.609375 22.328125 14.59375 
Q 28.65625 6.59375 39.40625 6.59375 
Q 50.140625 6.59375 56.421875 14.59375 
Q 62.703125 22.609375 62.703125 36.375 
Q 62.703125 50.203125 56.421875 58.203125 
Q 50.140625 66.21875 39.40625 66.21875 
z
M 39.40625 74.21875 
Q 54.734375 74.21875 63.90625 63.9375 
Q 73.09375 53.65625 73.09375 36.375 
Q 73.09375 19.140625 63.90625 8.859375 
Q 54.734375 -1.421875 39.40625 -1.421875 
Q 24.03125 -1.421875 14.8125 8.828125 
Q 5.609375 19.09375 5.609375 36.375 
Q 5.609375 53.65625 14.8125 63.9375 
Q 24.03125 74.21875 39.40625 74.21875 
z
" id="DejaVuSans-4f"/>
    </defs>
    <g style="fill:#262626;" transform="translate(60.696 331.613334)scale(0.1 -0.1)">
     <use xlink:href="#DejaVuSans-45"/>
     <use x="63.183594" xlink:href="#DejaVuSans-52"/>
     <use x="132.587891" xlink:href="#DejaVuSans-43"/>
     <use x="202.412109" xlink:href="#DejaVuSans-4f"/>
     <use x="281.123047" xlink:href="#DejaVuSans-54"/>
     <use x="342.207031" xlink:href="#DejaVuSans-2c"/>
     <use x="373.994141" xlink:href="#DejaVuSans-20"/>
     <use x="405.78125" xlink:href="#DejaVuSans-39"/>
     <use x="469.404297" xlink:href="#DejaVuSans-20"/>
     <use x="501.191406" xlink:href="#DejaVuSans-70"/>
     <use x="564.667969" xlink:href="#DejaVuSans-72"/>
     <use x="605.75" xlink:href="#DejaVuSans-6f"/>
     <use x="666.931641" xlink:href="#DejaVuSans-66"/>
     <use x="702.136719" xlink:href="#DejaVuSans-69"/>
     <use x="729.919922" xlink:href="#DejaVuSans-6c"/>
     <use x="757.703125" xlink:href="#DejaVuSans-65"/>
     <use x="819.226562" xlink:href="#DejaVuSans-73"/>
    </g>
   </g>
  </g>
 </g>
 <defs>
  <clipPath id="pcdf3606e7d">
   <rect height="56.234483" width="334.8" x="54" y="51.84"/>
  </clipPath>
  <clipPath id="p13834cb49e">
   <rect height="56.234483" width="334.8" x="54" y="119.321379"/>
  </clipPath>
  <clipPath id="p04e0cdef23">
   <rect height="56.234483" width="334.8" x="54" y="186.802759"/>
  </clipPath>
  <clipPath id="pa479845c84">
   <rect height="56.234483" width="334.8" x="54" y="254.284138"/>
  </clipPath>
  <clipPath id="p7d9096c28f">
   <rect height="56.234483" width="334.8" x="54" y="321.765517"/>
  </clipPath>
 </defs>
</svg>
