<?xml version="1.0" encoding="utf-8" standalone="no"?>
<!DOCTYPE svg PUBLIC "-//W3C//DTD SVG 1.1//EN"
  "http://www.w3.org/Graphics/SVG/1.1/DTD/svg11.dtd">
<!-- Created with matplotlib (http://matplotlib.org/) -->
<svg height="360pt" version="1.1" viewBox="0 0 360 360" width="360pt" xmlns="http://www.w3.org/2000/svg" xmlns:xlink="http://www.w3.org/1999/xlink">
 <defs>
  <style type="text/css">
*{stroke-linecap:butt;stroke-linejoin:round;}
  </style>
 </defs>
 <g id="figure_1">
  <g id="patch_1">
   <path d="M 0 360 
L 360 360 
L 360 0 
L 0 0 
z
" style="fill:#ffffff;"/>
  </g>
  <g id="axes_1">
   <g id="patch_2">
    <path d="M 82.675 265.998125 
L 309.22125 265.998125 
L 309.22125 39.451875 
L 82.675 39.451875 
z
" style="fill:#ffffff;"/>
   </g>
   <g id="matplotlib.axis_1">
    <g id="xtick_1">
     <g id="line2d_1"/>
     <g id="text_1">
      <!-- Coast -->
      <defs>
       <path d="M 64.40625 67.28125 
L 64.40625 56.890625 
Q 59.421875 61.53125 53.78125 63.8125 
Q 48.140625 66.109375 41.796875 66.109375 
Q 29.296875 66.109375 22.65625 58.46875 
Q 16.015625 50.828125 16.015625 36.375 
Q 16.015625 21.96875 22.65625 14.328125 
Q 29.296875 6.6875 41.796875 6.6875 
Q 48.140625 6.6875 53.78125 8.984375 
Q 59.421875 11.28125 64.40625 15.921875 
L 64.40625 5.609375 
Q 59.234375 2.09375 53.4375 0.328125 
Q 47.65625 -1.421875 41.21875 -1.421875 
Q 24.65625 -1.421875 15.125 8.703125 
Q 5.609375 18.84375 5.609375 36.375 
Q 5.609375 53.953125 15.125 64.078125 
Q 24.65625 74.21875 41.21875 74.21875 
Q 47.75 74.21875 53.53125 72.484375 
Q 59.328125 70.75 64.40625 67.28125 
z
" id="DejaVuSans-43"/>
       <path d="M 30.609375 48.390625 
Q 23.390625 48.390625 19.1875 42.75 
Q 14.984375 37.109375 14.984375 27.296875 
Q 14.984375 17.484375 19.15625 11.84375 
Q 23.34375 6.203125 30.609375 6.203125 
Q 37.796875 6.203125 41.984375 11.859375 
Q 46.1875 17.53125 46.1875 27.296875 
Q 46.1875 37.015625 41.984375 42.703125 
Q 37.796875 48.390625 30.609375 48.390625 
z
M 30.609375 56 
Q 42.328125 56 49.015625 48.375 
Q 55.71875 40.765625 55.71875 27.296875 
Q 55.71875 13.875 49.015625 6.21875 
Q 42.328125 -1.421875 30.609375 -1.421875 
Q 18.84375 -1.421875 12.171875 6.21875 
Q 5.515625 13.875 5.515625 27.296875 
Q 5.515625 40.765625 12.171875 48.375 
Q 18.84375 56 30.609375 56 
z
" id="DejaVuSans-6f"/>
       <path d="M 34.28125 27.484375 
Q 23.390625 27.484375 19.1875 25 
Q 14.984375 22.515625 14.984375 16.5 
Q 14.984375 11.71875 18.140625 8.90625 
Q 21.296875 6.109375 26.703125 6.109375 
Q 34.1875 6.109375 38.703125 11.40625 
Q 43.21875 16.703125 43.21875 25.484375 
L 43.21875 27.484375 
z
M 52.203125 31.203125 
L 52.203125 0 
L 43.21875 0 
L 43.21875 8.296875 
Q 40.140625 3.328125 35.546875 0.953125 
Q 30.953125 -1.421875 24.3125 -1.421875 
Q 15.921875 -1.421875 10.953125 3.296875 
Q 6 8.015625 6 15.921875 
Q 6 25.140625 12.171875 29.828125 
Q 18.359375 34.515625 30.609375 34.515625 
L 43.21875 34.515625 
L 43.21875 35.40625 
Q 43.21875 41.609375 39.140625 45 
Q 35.0625 48.390625 27.6875 48.390625 
Q 23 48.390625 18.546875 47.265625 
Q 14.109375 46.140625 10.015625 43.890625 
L 10.015625 52.203125 
Q 14.9375 54.109375 19.578125 55.046875 
Q 24.21875 56 28.609375 56 
Q 40.484375 56 46.34375 49.84375 
Q 52.203125 43.703125 52.203125 31.203125 
z
" id="DejaVuSans-61"/>
       <path d="M 44.28125 53.078125 
L 44.28125 44.578125 
Q 40.484375 46.53125 36.375 47.5 
Q 32.28125 48.484375 27.875 48.484375 
Q 21.1875 48.484375 17.84375 46.4375 
Q 14.5 44.390625 14.5 40.28125 
Q 14.5 37.15625 16.890625 35.375 
Q 19.28125 33.59375 26.515625 31.984375 
L 29.59375 31.296875 
Q 39.15625 29.25 43.1875 25.515625 
Q 47.21875 21.78125 47.21875 15.09375 
Q 47.21875 7.46875 41.1875 3.015625 
Q 35.15625 -1.421875 24.609375 -1.421875 
Q 20.21875 -1.421875 15.453125 -0.5625 
Q 10.6875 0.296875 5.421875 2 
L 5.421875 11.28125 
Q 10.40625 8.6875 15.234375 7.390625 
Q 20.0625 6.109375 24.8125 6.109375 
Q 31.15625 6.109375 34.5625 8.28125 
Q 37.984375 10.453125 37.984375 14.40625 
Q 37.984375 18.0625 35.515625 20.015625 
Q 33.0625 21.96875 24.703125 23.78125 
L 21.578125 24.515625 
Q 13.234375 26.265625 9.515625 29.90625 
Q 5.8125 33.546875 5.8125 39.890625 
Q 5.8125 47.609375 11.28125 51.796875 
Q 16.75 56 26.8125 56 
Q 31.78125 56 36.171875 55.265625 
Q 40.578125 54.546875 44.28125 53.078125 
z
" id="DejaVuSans-73"/>
       <path d="M 18.3125 70.21875 
L 18.3125 54.6875 
L 36.8125 54.6875 
L 36.8125 47.703125 
L 18.3125 47.703125 
L 18.3125 18.015625 
Q 18.3125 11.328125 20.140625 9.421875 
Q 21.96875 7.515625 27.59375 7.515625 
L 36.8125 7.515625 
L 36.8125 0 
L 27.59375 0 
Q 17.1875 0 13.234375 3.875 
Q 9.28125 7.765625 9.28125 18.015625 
L 9.28125 47.703125 
L 2.6875 47.703125 
L 2.6875 54.6875 
L 9.28125 54.6875 
L 9.28125 70.21875 
z
" id="DejaVuSans-74"/>
      </defs>
      <g style="fill:#262626;" transform="translate(99.593516 297.8575)rotate(-90)scale(0.1 -0.1)">
       <use xlink:href="#DejaVuSans-43"/>
       <use x="69.824219" xlink:href="#DejaVuSans-6f"/>
       <use x="131.005859" xlink:href="#DejaVuSans-61"/>
       <use x="192.285156" xlink:href="#DejaVuSans-73"/>
       <use x="244.384766" xlink:href="#DejaVuSans-74"/>
      </g>
     </g>
    </g>
    <g id="xtick_2">
     <g id="line2d_2"/>
     <g id="text_2">
      <!-- East -->
      <defs>
       <path d="M 9.8125 72.90625 
L 55.90625 72.90625 
L 55.90625 64.59375 
L 19.671875 64.59375 
L 19.671875 43.015625 
L 54.390625 43.015625 
L 54.390625 34.71875 
L 19.671875 34.71875 
L 19.671875 8.296875 
L 56.78125 8.296875 
L 56.78125 0 
L 9.8125 0 
z
" id="DejaVuSans-45"/>
      </defs>
      <g style="fill:#262626;" transform="translate(127.911797 291.074687)rotate(-90)scale(0.1 -0.1)">
       <use xlink:href="#DejaVuSans-45"/>
       <use x="63.183594" xlink:href="#DejaVuSans-61"/>
       <use x="124.462891" xlink:href="#DejaVuSans-73"/>
       <use x="176.5625" xlink:href="#DejaVuSans-74"/>
      </g>
     </g>
    </g>
    <g id="xtick_3">
     <g id="line2d_3"/>
     <g id="text_3">
      <!-- Far West -->
      <defs>
       <path d="M 9.8125 72.90625 
L 51.703125 72.90625 
L 51.703125 64.59375 
L 19.671875 64.59375 
L 19.671875 43.109375 
L 48.578125 43.109375 
L 48.578125 34.8125 
L 19.671875 34.8125 
L 19.671875 0 
L 9.8125 0 
z
" id="DejaVuSans-46"/>
       <path d="M 41.109375 46.296875 
Q 39.59375 47.171875 37.8125 47.578125 
Q 36.03125 48 33.890625 48 
Q 26.265625 48 22.1875 43.046875 
Q 18.109375 38.09375 18.109375 28.8125 
L 18.109375 0 
L 9.078125 0 
L 9.078125 54.6875 
L 18.109375 54.6875 
L 18.109375 46.1875 
Q 20.953125 51.171875 25.484375 53.578125 
Q 30.03125 56 36.53125 56 
Q 37.453125 56 38.578125 55.875 
Q 39.703125 55.765625 41.0625 55.515625 
z
" id="DejaVuSans-72"/>
       <path id="DejaVuSans-20"/>
       <path d="M 3.328125 72.90625 
L 13.28125 72.90625 
L 28.609375 11.28125 
L 43.890625 72.90625 
L 54.984375 72.90625 
L 70.3125 11.28125 
L 85.59375 72.90625 
L 95.609375 72.90625 
L 77.296875 0 
L 64.890625 0 
L 49.515625 63.28125 
L 33.984375 0 
L 21.578125 0 
z
" id="DejaVuSans-57"/>
       <path d="M 56.203125 29.59375 
L 56.203125 25.203125 
L 14.890625 25.203125 
Q 15.484375 15.921875 20.484375 11.0625 
Q 25.484375 6.203125 34.421875 6.203125 
Q 39.59375 6.203125 44.453125 7.46875 
Q 49.3125 8.734375 54.109375 11.28125 
L 54.109375 2.78125 
Q 49.265625 0.734375 44.1875 -0.34375 
Q 39.109375 -1.421875 33.890625 -1.421875 
Q 20.796875 -1.421875 13.15625 6.1875 
Q 5.515625 13.8125 5.515625 26.8125 
Q 5.515625 40.234375 12.765625 48.109375 
Q 20.015625 56 32.328125 56 
Q 43.359375 56 49.78125 48.890625 
Q 56.203125 41.796875 56.203125 29.59375 
z
M 47.21875 32.234375 
Q 47.125 39.59375 43.09375 43.984375 
Q 39.0625 48.390625 32.421875 48.390625 
Q 24.90625 48.390625 20.390625 44.140625 
Q 15.875 39.890625 15.1875 32.171875 
z
" id="DejaVuSans-65"/>
      </defs>
      <g style="fill:#262626;" transform="translate(156.230078 313.815313)rotate(-90)scale(0.1 -0.1)">
       <use xlink:href="#DejaVuSans-46"/>
       <use x="57.378906" xlink:href="#DejaVuSans-61"/>
       <use x="118.658203" xlink:href="#DejaVuSans-72"/>
       <use x="159.771484" xlink:href="#DejaVuSans-20"/>
       <use x="191.558594" xlink:href="#DejaVuSans-57"/>
       <use x="290.357422" xlink:href="#DejaVuSans-65"/>
       <use x="351.880859" xlink:href="#DejaVuSans-73"/>
       <use x="403.980469" xlink:href="#DejaVuSans-74"/>
      </g>
     </g>
    </g>
    <g id="xtick_4">
     <g id="line2d_4"/>
     <g id="text_4">
      <!-- North -->
      <defs>
       <path d="M 9.8125 72.90625 
L 23.09375 72.90625 
L 55.421875 11.921875 
L 55.421875 72.90625 
L 64.984375 72.90625 
L 64.984375 0 
L 51.703125 0 
L 19.390625 60.984375 
L 19.390625 0 
L 9.8125 0 
z
" id="DejaVuSans-4e"/>
       <path d="M 54.890625 33.015625 
L 54.890625 0 
L 45.90625 0 
L 45.90625 32.71875 
Q 45.90625 40.484375 42.875 44.328125 
Q 39.84375 48.1875 33.796875 48.1875 
Q 26.515625 48.1875 22.3125 43.546875 
Q 18.109375 38.921875 18.109375 30.90625 
L 18.109375 0 
L 9.078125 0 
L 9.078125 75.984375 
L 18.109375 75.984375 
L 18.109375 46.1875 
Q 21.34375 51.125 25.703125 53.5625 
Q 30.078125 56 35.796875 56 
Q 45.21875 56 50.046875 50.171875 
Q 54.890625 44.34375 54.890625 33.015625 
z
" id="DejaVuSans-68"/>
      </defs>
      <g style="fill:#262626;" transform="translate(184.548359 297.466875)rotate(-90)scale(0.1 -0.1)">
       <use xlink:href="#DejaVuSans-4e"/>
       <use x="74.804688" xlink:href="#DejaVuSans-6f"/>
       <use x="135.986328" xlink:href="#DejaVuSans-72"/>
       <use x="177.099609" xlink:href="#DejaVuSans-74"/>
       <use x="216.308594" xlink:href="#DejaVuSans-68"/>
      </g>
     </g>
    </g>
    <g id="xtick_5">
     <g id="line2d_5"/>
     <g id="text_5">
      <!-- North Central -->
      <defs>
       <path d="M 54.890625 33.015625 
L 54.890625 0 
L 45.90625 0 
L 45.90625 32.71875 
Q 45.90625 40.484375 42.875 44.328125 
Q 39.84375 48.1875 33.796875 48.1875 
Q 26.515625 48.1875 22.3125 43.546875 
Q 18.109375 38.921875 18.109375 30.90625 
L 18.109375 0 
L 9.078125 0 
L 9.078125 54.6875 
L 18.109375 54.6875 
L 18.109375 46.1875 
Q 21.34375 51.125 25.703125 53.5625 
Q 30.078125 56 35.796875 56 
Q 45.21875 56 50.046875 50.171875 
Q 54.890625 44.34375 54.890625 33.015625 
z
" id="DejaVuSans-6e"/>
       <path d="M 9.421875 75.984375 
L 18.40625 75.984375 
L 18.40625 0 
L 9.421875 0 
z
" id="DejaVuSans-6c"/>
      </defs>
      <g style="fill:#262626;" transform="translate(212.866641 337.055937)rotate(-90)scale(0.1 -0.1)">
       <use xlink:href="#DejaVuSans-4e"/>
       <use x="74.804688" xlink:href="#DejaVuSans-6f"/>
       <use x="135.986328" xlink:href="#DejaVuSans-72"/>
       <use x="177.099609" xlink:href="#DejaVuSans-74"/>
       <use x="216.308594" xlink:href="#DejaVuSans-68"/>
       <use x="279.6875" xlink:href="#DejaVuSans-20"/>
       <use x="311.474609" xlink:href="#DejaVuSans-43"/>
       <use x="381.298828" xlink:href="#DejaVuSans-65"/>
       <use x="442.822266" xlink:href="#DejaVuSans-6e"/>
       <use x="506.201172" xlink:href="#DejaVuSans-74"/>
       <use x="545.410156" xlink:href="#DejaVuSans-72"/>
       <use x="586.523438" xlink:href="#DejaVuSans-61"/>
       <use x="647.802734" xlink:href="#DejaVuSans-6c"/>
      </g>
     </g>
    </g>
    <g id="xtick_6">
     <g id="line2d_6"/>
     <g id="text_6">
      <!-- South -->
      <defs>
       <path d="M 53.515625 70.515625 
L 53.515625 60.890625 
Q 47.90625 63.578125 42.921875 64.890625 
Q 37.9375 66.21875 33.296875 66.21875 
Q 25.25 66.21875 20.875 63.09375 
Q 16.5 59.96875 16.5 54.203125 
Q 16.5 49.359375 19.40625 46.890625 
Q 22.3125 44.4375 30.421875 42.921875 
L 36.375 41.703125 
Q 47.40625 39.59375 52.65625 34.296875 
Q 57.90625 29 57.90625 20.125 
Q 57.90625 9.515625 50.796875 4.046875 
Q 43.703125 -1.421875 29.984375 -1.421875 
Q 24.8125 -1.421875 18.96875 -0.25 
Q 13.140625 0.921875 6.890625 3.21875 
L 6.890625 13.375 
Q 12.890625 10.015625 18.65625 8.296875 
Q 24.421875 6.59375 29.984375 6.59375 
Q 38.421875 6.59375 43.015625 9.90625 
Q 47.609375 13.234375 47.609375 19.390625 
Q 47.609375 24.75 44.3125 27.78125 
Q 41.015625 30.8125 33.5 32.328125 
L 27.484375 33.5 
Q 16.453125 35.6875 11.515625 40.375 
Q 6.59375 45.0625 6.59375 53.421875 
Q 6.59375 63.09375 13.40625 68.65625 
Q 20.21875 74.21875 32.171875 74.21875 
Q 37.3125 74.21875 42.625 73.28125 
Q 47.953125 72.359375 53.515625 70.515625 
z
" id="DejaVuSans-53"/>
       <path d="M 8.5 21.578125 
L 8.5 54.6875 
L 17.484375 54.6875 
L 17.484375 21.921875 
Q 17.484375 14.15625 20.5 10.265625 
Q 23.53125 6.390625 29.59375 6.390625 
Q 36.859375 6.390625 41.078125 11.03125 
Q 45.3125 15.671875 45.3125 23.6875 
L 45.3125 54.6875 
L 54.296875 54.6875 
L 54.296875 0 
L 45.3125 0 
L 45.3125 8.40625 
Q 42.046875 3.421875 37.71875 1 
Q 33.40625 -1.421875 27.6875 -1.421875 
Q 18.265625 -1.421875 13.375 4.4375 
Q 8.5 10.296875 8.5 21.578125 
z
M 31.109375 56 
z
" id="DejaVuSans-75"/>
      </defs>
      <g style="fill:#262626;" transform="translate(241.184922 298.560625)rotate(-90)scale(0.1 -0.1)">
       <use xlink:href="#DejaVuSans-53"/>
       <use x="63.476562" xlink:href="#DejaVuSans-6f"/>
       <use x="124.658203" xlink:href="#DejaVuSans-75"/>
       <use x="188.037109" xlink:href="#DejaVuSans-74"/>
       <use x="227.246094" xlink:href="#DejaVuSans-68"/>
      </g>
     </g>
    </g>
    <g id="xtick_7">
     <g id="line2d_7"/>
     <g id="text_7">
      <!-- South Central -->
      <g style="fill:#262626;" transform="translate(269.503203 338.149687)rotate(-90)scale(0.1 -0.1)">
       <use xlink:href="#DejaVuSans-53"/>
       <use x="63.476562" xlink:href="#DejaVuSans-6f"/>
       <use x="124.658203" xlink:href="#DejaVuSans-75"/>
       <use x="188.037109" xlink:href="#DejaVuSans-74"/>
       <use x="227.246094" xlink:href="#DejaVuSans-68"/>
       <use x="290.625" xlink:href="#DejaVuSans-20"/>
       <use x="322.412109" xlink:href="#DejaVuSans-43"/>
       <use x="392.236328" xlink:href="#DejaVuSans-65"/>
       <use x="453.759766" xlink:href="#DejaVuSans-6e"/>
       <use x="517.138672" xlink:href="#DejaVuSans-74"/>
       <use x="556.347656" xlink:href="#DejaVuSans-72"/>
       <use x="597.460938" xlink:href="#DejaVuSans-61"/>
       <use x="658.740234" xlink:href="#DejaVuSans-6c"/>
      </g>
     </g>
    </g>
   </g>
   <g id="matplotlib.axis_2">
    <g id="ytick_1">
     <g id="line2d_8"/>
     <g id="text_8">
      <!-- East -->
      <g style="fill:#262626;" transform="translate(57.598437 85.728516)scale(0.1 -0.1)">
       <use xlink:href="#DejaVuSans-45"/>
       <use x="63.183594" xlink:href="#DejaVuSans-61"/>
       <use x="124.462891" xlink:href="#DejaVuSans-73"/>
       <use x="176.5625" xlink:href="#DejaVuSans-74"/>
      </g>
     </g>
    </g>
    <g id="ytick_2">
     <g id="line2d_9"/>
     <g id="text_9">
      <!-- Far West -->
      <g style="fill:#262626;" transform="translate(34.857812 114.046797)scale(0.1 -0.1)">
       <use xlink:href="#DejaVuSans-46"/>
       <use x="57.378906" xlink:href="#DejaVuSans-61"/>
       <use x="118.658203" xlink:href="#DejaVuSans-72"/>
       <use x="159.771484" xlink:href="#DejaVuSans-20"/>
       <use x="191.558594" xlink:href="#DejaVuSans-57"/>
       <use x="290.357422" xlink:href="#DejaVuSans-65"/>
       <use x="351.880859" xlink:href="#DejaVuSans-73"/>
       <use x="403.980469" xlink:href="#DejaVuSans-74"/>
      </g>
     </g>
    </g>
    <g id="ytick_3">
     <g id="line2d_10"/>
     <g id="text_10">
      <!-- North -->
      <g style="fill:#262626;" transform="translate(51.20625 142.365078)scale(0.1 -0.1)">
       <use xlink:href="#DejaVuSans-4e"/>
       <use x="74.804688" xlink:href="#DejaVuSans-6f"/>
       <use x="135.986328" xlink:href="#DejaVuSans-72"/>
       <use x="177.099609" xlink:href="#DejaVuSans-74"/>
       <use x="216.308594" xlink:href="#DejaVuSans-68"/>
      </g>
     </g>
    </g>
    <g id="ytick_4">
     <g id="line2d_11"/>
     <g id="text_11">
      <!-- North Central -->
      <g style="fill:#262626;" transform="translate(11.617188 170.683359)scale(0.1 -0.1)">
       <use xlink:href="#DejaVuSans-4e"/>
       <use x="74.804688" xlink:href="#DejaVuSans-6f"/>
       <use x="135.986328" xlink:href="#DejaVuSans-72"/>
       <use x="177.099609" xlink:href="#DejaVuSans-74"/>
       <use x="216.308594" xlink:href="#DejaVuSans-68"/>
       <use x="279.6875" xlink:href="#DejaVuSans-20"/>
       <use x="311.474609" xlink:href="#DejaVuSans-43"/>
       <use x="381.298828" xlink:href="#DejaVuSans-65"/>
       <use x="442.822266" xlink:href="#DejaVuSans-6e"/>
       <use x="506.201172" xlink:href="#DejaVuSans-74"/>
       <use x="545.410156" xlink:href="#DejaVuSans-72"/>
       <use x="586.523438" xlink:href="#DejaVuSans-61"/>
       <use x="647.802734" xlink:href="#DejaVuSans-6c"/>
      </g>
     </g>
    </g>
    <g id="ytick_5">
     <g id="line2d_12"/>
     <g id="text_12">
      <!-- South -->
      <g style="fill:#262626;" transform="translate(50.1125 199.001641)scale(0.1 -0.1)">
       <use xlink:href="#DejaVuSans-53"/>
       <use x="63.476562" xlink:href="#DejaVuSans-6f"/>
       <use x="124.658203" xlink:href="#DejaVuSans-75"/>
       <use x="188.037109" xlink:href="#DejaVuSans-74"/>
       <use x="227.246094" xlink:href="#DejaVuSans-68"/>
      </g>
     </g>
    </g>
    <g id="ytick_6">
     <g id="line2d_13"/>
     <g id="text_13">
      <!-- South Central -->
      <g style="fill:#262626;" transform="translate(10.523438 227.319922)scale(0.1 -0.1)">
       <use xlink:href="#DejaVuSans-53"/>
       <use x="63.476562" xlink:href="#DejaVuSans-6f"/>
       <use x="124.658203" xlink:href="#DejaVuSans-75"/>
       <use x="188.037109" xlink:href="#DejaVuSans-74"/>
       <use x="227.246094" xlink:href="#DejaVuSans-68"/>
       <use x="290.625" xlink:href="#DejaVuSans-20"/>
       <use x="322.412109" xlink:href="#DejaVuSans-43"/>
       <use x="392.236328" xlink:href="#DejaVuSans-65"/>
       <use x="453.759766" xlink:href="#DejaVuSans-6e"/>
       <use x="517.138672" xlink:href="#DejaVuSans-74"/>
       <use x="556.347656" xlink:href="#DejaVuSans-72"/>
       <use x="597.460938" xlink:href="#DejaVuSans-61"/>
       <use x="658.740234" xlink:href="#DejaVuSans-6c"/>
      </g>
     </g>
    </g>
    <g id="ytick_7">
     <g id="line2d_14"/>
     <g id="text_14">
      <!-- West -->
      <g style="fill:#262626;" transform="translate(54.0125 255.638203)scale(0.1 -0.1)">
       <use xlink:href="#DejaVuSans-57"/>
       <use x="98.798828" xlink:href="#DejaVuSans-65"/>
       <use x="160.322266" xlink:href="#DejaVuSans-73"/>
       <use x="212.421875" xlink:href="#DejaVuSans-74"/>
      </g>
     </g>
    </g>
   </g>
   <g id="QuadMesh_1">
    <path clip-path="url(#p91afcee4b4)" d="M 82.675 39.451875 
L 110.993281 39.451875 
L 110.993281 67.770156 
L 82.675 67.770156 
L 82.675 39.451875 
" style="fill:none;"/>
    <path clip-path="url(#p91afcee4b4)" d="M 110.993281 39.451875 
L 139.311562 39.451875 
L 139.311562 67.770156 
L 110.993281 67.770156 
L 110.993281 39.451875 
" style="fill:none;"/>
    <path clip-path="url(#p91afcee4b4)" d="M 139.311562 39.451875 
L 167.629844 39.451875 
L 167.629844 67.770156 
L 139.311562 67.770156 
L 139.311562 39.451875 
" style="fill:none;"/>
    <path clip-path="url(#p91afcee4b4)" d="M 167.629844 39.451875 
L 195.948125 39.451875 
L 195.948125 67.770156 
L 167.629844 67.770156 
L 167.629844 39.451875 
" style="fill:none;"/>
    <path clip-path="url(#p91afcee4b4)" d="M 195.948125 39.451875 
L 224.266406 39.451875 
L 224.266406 67.770156 
L 195.948125 67.770156 
L 195.948125 39.451875 
" style="fill:none;"/>
    <path clip-path="url(#p91afcee4b4)" d="M 224.266406 39.451875 
L 252.584687 39.451875 
L 252.584687 67.770156 
L 224.266406 67.770156 
L 224.266406 39.451875 
" style="fill:none;"/>
    <path clip-path="url(#p91afcee4b4)" d="M 252.584687 39.451875 
L 280.902969 39.451875 
L 280.902969 67.770156 
L 252.584687 67.770156 
L 252.584687 39.451875 
" style="fill:none;"/>
    <path clip-path="url(#p91afcee4b4)" d="M 280.902969 39.451875 
L 309.22125 39.451875 
L 309.22125 67.770156 
L 280.902969 67.770156 
L 280.902969 39.451875 
" style="fill:none;"/>
    <path clip-path="url(#p91afcee4b4)" d="M 82.675 67.770156 
L 110.993281 67.770156 
L 110.993281 96.088437 
L 82.675 96.088437 
L 82.675 67.770156 
" style="fill:#0b559f;"/>
    <path clip-path="url(#p91afcee4b4)" d="M 110.993281 67.770156 
L 139.311562 67.770156 
L 139.311562 96.088437 
L 110.993281 96.088437 
L 110.993281 67.770156 
" style="fill:none;"/>
    <path clip-path="url(#p91afcee4b4)" d="M 139.311562 67.770156 
L 167.629844 67.770156 
L 167.629844 96.088437 
L 139.311562 96.088437 
L 139.311562 67.770156 
" style="fill:none;"/>
    <path clip-path="url(#p91afcee4b4)" d="M 167.629844 67.770156 
L 195.948125 67.770156 
L 195.948125 96.088437 
L 167.629844 96.088437 
L 167.629844 67.770156 
" style="fill:none;"/>
    <path clip-path="url(#p91afcee4b4)" d="M 195.948125 67.770156 
L 224.266406 67.770156 
L 224.266406 96.088437 
L 195.948125 96.088437 
L 195.948125 67.770156 
" style="fill:none;"/>
    <path clip-path="url(#p91afcee4b4)" d="M 224.266406 67.770156 
L 252.584687 67.770156 
L 252.584687 96.088437 
L 224.266406 96.088437 
L 224.266406 67.770156 
" style="fill:none;"/>
    <path clip-path="url(#p91afcee4b4)" d="M 252.584687 67.770156 
L 280.902969 67.770156 
L 280.902969 96.088437 
L 252.584687 96.088437 
L 252.584687 67.770156 
" style="fill:none;"/>
    <path clip-path="url(#p91afcee4b4)" d="M 280.902969 67.770156 
L 309.22125 67.770156 
L 309.22125 96.088437 
L 280.902969 96.088437 
L 280.902969 67.770156 
" style="fill:none;"/>
    <path clip-path="url(#p91afcee4b4)" d="M 82.675 96.088437 
L 110.993281 96.088437 
L 110.993281 124.406719 
L 82.675 124.406719 
L 82.675 96.088437 
" style="fill:#539ecd;"/>
    <path clip-path="url(#p91afcee4b4)" d="M 110.993281 96.088437 
L 139.311562 96.088437 
L 139.311562 124.406719 
L 110.993281 124.406719 
L 110.993281 96.088437 
" style="fill:#89bedc;"/>
    <path clip-path="url(#p91afcee4b4)" d="M 139.311562 96.088437 
L 167.629844 96.088437 
L 167.629844 124.406719 
L 139.311562 124.406719 
L 139.311562 96.088437 
" style="fill:none;"/>
    <path clip-path="url(#p91afcee4b4)" d="M 167.629844 96.088437 
L 195.948125 96.088437 
L 195.948125 124.406719 
L 167.629844 124.406719 
L 167.629844 96.088437 
" style="fill:none;"/>
    <path clip-path="url(#p91afcee4b4)" d="M 195.948125 96.088437 
L 224.266406 96.088437 
L 224.266406 124.406719 
L 195.948125 124.406719 
L 195.948125 96.088437 
" style="fill:none;"/>
    <path clip-path="url(#p91afcee4b4)" d="M 224.266406 96.088437 
L 252.584687 96.088437 
L 252.584687 124.406719 
L 224.266406 124.406719 
L 224.266406 96.088437 
" style="fill:none;"/>
    <path clip-path="url(#p91afcee4b4)" d="M 252.584687 96.088437 
L 280.902969 96.088437 
L 280.902969 124.406719 
L 252.584687 124.406719 
L 252.584687 96.088437 
" style="fill:none;"/>
    <path clip-path="url(#p91afcee4b4)" d="M 280.902969 96.088437 
L 309.22125 96.088437 
L 309.22125 124.406719 
L 280.902969 124.406719 
L 280.902969 96.088437 
" style="fill:none;"/>
    <path clip-path="url(#p91afcee4b4)" d="M 82.675 124.406719 
L 110.993281 124.406719 
L 110.993281 152.725 
L 82.675 152.725 
L 82.675 124.406719 
" style="fill:#539ecd;"/>
    <path clip-path="url(#p91afcee4b4)" d="M 110.993281 124.406719 
L 139.311562 124.406719 
L 139.311562 152.725 
L 110.993281 152.725 
L 110.993281 124.406719 
" style="fill:#2b7bba;"/>
    <path clip-path="url(#p91afcee4b4)" d="M 139.311562 124.406719 
L 167.629844 124.406719 
L 167.629844 152.725 
L 139.311562 152.725 
L 139.311562 124.406719 
" style="fill:#dbe9f6;"/>
    <path clip-path="url(#p91afcee4b4)" d="M 167.629844 124.406719 
L 195.948125 124.406719 
L 195.948125 152.725 
L 167.629844 152.725 
L 167.629844 124.406719 
" style="fill:none;"/>
    <path clip-path="url(#p91afcee4b4)" d="M 195.948125 124.406719 
L 224.266406 124.406719 
L 224.266406 152.725 
L 195.948125 152.725 
L 195.948125 124.406719 
" style="fill:none;"/>
    <path clip-path="url(#p91afcee4b4)" d="M 224.266406 124.406719 
L 252.584687 124.406719 
L 252.584687 152.725 
L 224.266406 152.725 
L 224.266406 124.406719 
" style="fill:none;"/>
    <path clip-path="url(#p91afcee4b4)" d="M 252.584687 124.406719 
L 280.902969 124.406719 
L 280.902969 152.725 
L 252.584687 152.725 
L 252.584687 124.406719 
" style="fill:none;"/>
    <path clip-path="url(#p91afcee4b4)" d="M 280.902969 124.406719 
L 309.22125 124.406719 
L 309.22125 152.725 
L 280.902969 152.725 
L 280.902969 124.406719 
" style="fill:none;"/>
    <path clip-path="url(#p91afcee4b4)" d="M 82.675 152.725 
L 110.993281 152.725 
L 110.993281 181.043281 
L 82.675 181.043281 
L 82.675 152.725 
" style="fill:#0b559f;"/>
    <path clip-path="url(#p91afcee4b4)" d="M 110.993281 152.725 
L 139.311562 152.725 
L 139.311562 181.043281 
L 110.993281 181.043281 
L 110.993281 152.725 
" style="fill:#0b559f;"/>
    <path clip-path="url(#p91afcee4b4)" d="M 139.311562 152.725 
L 167.629844 152.725 
L 167.629844 181.043281 
L 139.311562 181.043281 
L 139.311562 152.725 
" style="fill:#539ecd;"/>
    <path clip-path="url(#p91afcee4b4)" d="M 167.629844 152.725 
L 195.948125 152.725 
L 195.948125 181.043281 
L 167.629844 181.043281 
L 167.629844 152.725 
" style="fill:#2b7bba;"/>
    <path clip-path="url(#p91afcee4b4)" d="M 195.948125 152.725 
L 224.266406 152.725 
L 224.266406 181.043281 
L 195.948125 181.043281 
L 195.948125 152.725 
" style="fill:none;"/>
    <path clip-path="url(#p91afcee4b4)" d="M 224.266406 152.725 
L 252.584687 152.725 
L 252.584687 181.043281 
L 224.266406 181.043281 
L 224.266406 152.725 
" style="fill:none;"/>
    <path clip-path="url(#p91afcee4b4)" d="M 252.584687 152.725 
L 280.902969 152.725 
L 280.902969 181.043281 
L 252.584687 181.043281 
L 252.584687 152.725 
" style="fill:none;"/>
    <path clip-path="url(#p91afcee4b4)" d="M 280.902969 152.725 
L 309.22125 152.725 
L 309.22125 181.043281 
L 280.902969 181.043281 
L 280.902969 152.725 
" style="fill:none;"/>
    <path clip-path="url(#p91afcee4b4)" d="M 82.675 181.043281 
L 110.993281 181.043281 
L 110.993281 209.361562 
L 82.675 209.361562 
L 82.675 181.043281 
" style="fill:#0b559f;"/>
    <path clip-path="url(#p91afcee4b4)" d="M 110.993281 181.043281 
L 139.311562 181.043281 
L 139.311562 209.361562 
L 110.993281 209.361562 
L 110.993281 181.043281 
" style="fill:#2b7bba;"/>
    <path clip-path="url(#p91afcee4b4)" d="M 139.311562 181.043281 
L 167.629844 181.043281 
L 167.629844 209.361562 
L 139.311562 209.361562 
L 139.311562 181.043281 
" style="fill:#2b7bba;"/>
    <path clip-path="url(#p91afcee4b4)" d="M 167.629844 181.043281 
L 195.948125 181.043281 
L 195.948125 209.361562 
L 167.629844 209.361562 
L 167.629844 181.043281 
" style="fill:#89bedc;"/>
    <path clip-path="url(#p91afcee4b4)" d="M 195.948125 181.043281 
L 224.266406 181.043281 
L 224.266406 209.361562 
L 195.948125 209.361562 
L 195.948125 181.043281 
" style="fill:#0b559f;"/>
    <path clip-path="url(#p91afcee4b4)" d="M 224.266406 181.043281 
L 252.584687 181.043281 
L 252.584687 209.361562 
L 224.266406 209.361562 
L 224.266406 181.043281 
" style="fill:none;"/>
    <path clip-path="url(#p91afcee4b4)" d="M 252.584687 181.043281 
L 280.902969 181.043281 
L 280.902969 209.361562 
L 252.584687 209.361562 
L 252.584687 181.043281 
" style="fill:none;"/>
    <path clip-path="url(#p91afcee4b4)" d="M 280.902969 181.043281 
L 309.22125 181.043281 
L 309.22125 209.361562 
L 280.902969 209.361562 
L 280.902969 181.043281 
" style="fill:none;"/>
    <path clip-path="url(#p91afcee4b4)" d="M 82.675 209.361562 
L 110.993281 209.361562 
L 110.993281 237.679844 
L 82.675 237.679844 
L 82.675 209.361562 
" style="fill:#0b559f;"/>
    <path clip-path="url(#p91afcee4b4)" d="M 110.993281 209.361562 
L 139.311562 209.361562 
L 139.311562 237.679844 
L 110.993281 237.679844 
L 110.993281 209.361562 
" style="fill:#0b559f;"/>
    <path clip-path="url(#p91afcee4b4)" d="M 139.311562 209.361562 
L 167.629844 209.361562 
L 167.629844 237.679844 
L 139.311562 237.679844 
L 139.311562 209.361562 
" style="fill:#539ecd;"/>
    <path clip-path="url(#p91afcee4b4)" d="M 167.629844 209.361562 
L 195.948125 209.361562 
L 195.948125 237.679844 
L 167.629844 237.679844 
L 167.629844 209.361562 
" style="fill:#539ecd;"/>
    <path clip-path="url(#p91afcee4b4)" d="M 195.948125 209.361562 
L 224.266406 209.361562 
L 224.266406 237.679844 
L 195.948125 237.679844 
L 195.948125 209.361562 
" style="fill:#0b559f;"/>
    <path clip-path="url(#p91afcee4b4)" d="M 224.266406 209.361562 
L 252.584687 209.361562 
L 252.584687 237.679844 
L 224.266406 237.679844 
L 224.266406 209.361562 
" style="fill:#0b559f;"/>
    <path clip-path="url(#p91afcee4b4)" d="M 252.584687 209.361562 
L 280.902969 209.361562 
L 280.902969 237.679844 
L 252.584687 237.679844 
L 252.584687 209.361562 
" style="fill:none;"/>
    <path clip-path="url(#p91afcee4b4)" d="M 280.902969 209.361562 
L 309.22125 209.361562 
L 309.22125 237.679844 
L 280.902969 237.679844 
L 280.902969 209.361562 
" style="fill:none;"/>
    <path clip-path="url(#p91afcee4b4)" d="M 82.675 237.679844 
L 110.993281 237.679844 
L 110.993281 265.998125 
L 82.675 265.998125 
L 82.675 237.679844 
" style="fill:#0b559f;"/>
    <path clip-path="url(#p91afcee4b4)" d="M 110.993281 237.679844 
L 139.311562 237.679844 
L 139.311562 265.998125 
L 110.993281 265.998125 
L 110.993281 237.679844 
" style="fill:#0b559f;"/>
    <path clip-path="url(#p91afcee4b4)" d="M 139.311562 237.679844 
L 167.629844 237.679844 
L 167.629844 265.998125 
L 139.311562 265.998125 
L 139.311562 237.679844 
" style="fill:#2b7bba;"/>
    <path clip-path="url(#p91afcee4b4)" d="M 167.629844 237.679844 
L 195.948125 237.679844 
L 195.948125 265.998125 
L 167.629844 265.998125 
L 167.629844 237.679844 
" style="fill:#539ecd;"/>
    <path clip-path="url(#p91afcee4b4)" d="M 195.948125 237.679844 
L 224.266406 237.679844 
L 224.266406 265.998125 
L 195.948125 265.998125 
L 195.948125 237.679844 
" style="fill:#0b559f;"/>
    <path clip-path="url(#p91afcee4b4)" d="M 224.266406 237.679844 
L 252.584687 237.679844 
L 252.584687 265.998125 
L 224.266406 265.998125 
L 224.266406 237.679844 
" style="fill:#0b559f;"/>
    <path clip-path="url(#p91afcee4b4)" d="M 252.584687 237.679844 
L 280.902969 237.679844 
L 280.902969 265.998125 
L 252.584687 265.998125 
L 252.584687 237.679844 
" style="fill:#0b559f;"/>
    <path clip-path="url(#p91afcee4b4)" d="M 280.902969 237.679844 
L 309.22125 237.679844 
L 309.22125 265.998125 
L 280.902969 265.998125 
L 280.902969 237.679844 
" style="fill:none;"/>
   </g>
  </g>
  <g id="axes_2">
   <g id="patch_3">
    <path clip-path="url(#pcc941b5fc8)" d="M 322.5475 252.0725 
L 322.5475 218.956667 
L 322.5475 86.493333 
L 322.5475 53.3775 
L 327.514875 53.3775 
L 327.514875 86.493333 
L 327.514875 218.956667 
L 327.514875 252.0725 
z
" style="fill:#ffffff;stroke:#ffffff;stroke-linejoin:miter;stroke-width:0.01;"/>
   </g>
   <g id="matplotlib.axis_3"/>
   <g id="matplotlib.axis_4">
    <g id="ytick_8">
     <g id="line2d_15"/>
     <g id="text_15">
      <!-- 0.0 -->
      <defs>
       <path d="M 31.78125 66.40625 
Q 24.171875 66.40625 20.328125 58.90625 
Q 16.5 51.421875 16.5 36.375 
Q 16.5 21.390625 20.328125 13.890625 
Q 24.171875 6.390625 31.78125 6.390625 
Q 39.453125 6.390625 43.28125 13.890625 
Q 47.125 21.390625 47.125 36.375 
Q 47.125 51.421875 43.28125 58.90625 
Q 39.453125 66.40625 31.78125 66.40625 
z
M 31.78125 74.21875 
Q 44.046875 74.21875 50.515625 64.515625 
Q 56.984375 54.828125 56.984375 36.375 
Q 56.984375 17.96875 50.515625 8.265625 
Q 44.046875 -1.421875 31.78125 -1.421875 
Q 19.53125 -1.421875 13.0625 8.265625 
Q 6.59375 17.96875 6.59375 36.375 
Q 6.59375 54.828125 13.0625 64.515625 
Q 19.53125 74.21875 31.78125 74.21875 
z
" id="DejaVuSans-30"/>
       <path d="M 10.6875 12.40625 
L 21 12.40625 
L 21 0 
L 10.6875 0 
z
" id="DejaVuSans-2e"/>
      </defs>
      <g style="fill:#262626;" transform="translate(331.014875 250.883775)scale(0.1 -0.1)">
       <use xlink:href="#DejaVuSans-30"/>
       <use x="63.623047" xlink:href="#DejaVuSans-2e"/>
       <use x="95.410156" xlink:href="#DejaVuSans-30"/>
      </g>
     </g>
    </g>
    <g id="ytick_9">
     <g id="line2d_16"/>
     <g id="text_16">
      <!-- 0.2 -->
      <defs>
       <path d="M 19.1875 8.296875 
L 53.609375 8.296875 
L 53.609375 0 
L 7.328125 0 
L 7.328125 8.296875 
Q 12.9375 14.109375 22.625 23.890625 
Q 32.328125 33.6875 34.8125 36.53125 
Q 39.546875 41.84375 41.421875 45.53125 
Q 43.3125 49.21875 43.3125 52.78125 
Q 43.3125 58.59375 39.234375 62.25 
Q 35.15625 65.921875 28.609375 65.921875 
Q 23.96875 65.921875 18.8125 64.3125 
Q 13.671875 62.703125 7.8125 59.421875 
L 7.8125 69.390625 
Q 13.765625 71.78125 18.9375 73 
Q 24.125 74.21875 28.421875 74.21875 
Q 39.75 74.21875 46.484375 68.546875 
Q 53.21875 62.890625 53.21875 53.421875 
Q 53.21875 48.921875 51.53125 44.890625 
Q 49.859375 40.875 45.40625 35.40625 
Q 44.1875 33.984375 37.640625 27.21875 
Q 31.109375 20.453125 19.1875 8.296875 
z
" id="DejaVuSans-32"/>
      </defs>
      <g style="fill:#262626;" transform="translate(331.014875 212.142363)scale(0.1 -0.1)">
       <use xlink:href="#DejaVuSans-30"/>
       <use x="63.623047" xlink:href="#DejaVuSans-2e"/>
       <use x="95.410156" xlink:href="#DejaVuSans-32"/>
      </g>
     </g>
    </g>
    <g id="ytick_10">
     <g id="line2d_17"/>
     <g id="text_17">
      <!-- 0.4 -->
      <defs>
       <path d="M 37.796875 64.3125 
L 12.890625 25.390625 
L 37.796875 25.390625 
z
M 35.203125 72.90625 
L 47.609375 72.90625 
L 47.609375 25.390625 
L 58.015625 25.390625 
L 58.015625 17.1875 
L 47.609375 17.1875 
L 47.609375 0 
L 37.796875 0 
L 37.796875 17.1875 
L 4.890625 17.1875 
L 4.890625 26.703125 
z
" id="DejaVuSans-34"/>
      </defs>
      <g style="fill:#262626;" transform="translate(331.014875 173.400952)scale(0.1 -0.1)">
       <use xlink:href="#DejaVuSans-30"/>
       <use x="63.623047" xlink:href="#DejaVuSans-2e"/>
       <use x="95.410156" xlink:href="#DejaVuSans-34"/>
      </g>
     </g>
    </g>
    <g id="ytick_11">
     <g id="line2d_18"/>
     <g id="text_18">
      <!-- 0.6 -->
      <defs>
       <path d="M 33.015625 40.375 
Q 26.375 40.375 22.484375 35.828125 
Q 18.609375 31.296875 18.609375 23.390625 
Q 18.609375 15.53125 22.484375 10.953125 
Q 26.375 6.390625 33.015625 6.390625 
Q 39.65625 6.390625 43.53125 10.953125 
Q 47.40625 15.53125 47.40625 23.390625 
Q 47.40625 31.296875 43.53125 35.828125 
Q 39.65625 40.375 33.015625 40.375 
z
M 52.59375 71.296875 
L 52.59375 62.3125 
Q 48.875 64.0625 45.09375 64.984375 
Q 41.3125 65.921875 37.59375 65.921875 
Q 27.828125 65.921875 22.671875 59.328125 
Q 17.53125 52.734375 16.796875 39.40625 
Q 19.671875 43.65625 24.015625 45.921875 
Q 28.375 48.1875 33.59375 48.1875 
Q 44.578125 48.1875 50.953125 41.515625 
Q 57.328125 34.859375 57.328125 23.390625 
Q 57.328125 12.15625 50.6875 5.359375 
Q 44.046875 -1.421875 33.015625 -1.421875 
Q 20.359375 -1.421875 13.671875 8.265625 
Q 6.984375 17.96875 6.984375 36.375 
Q 6.984375 53.65625 15.1875 63.9375 
Q 23.390625 74.21875 37.203125 74.21875 
Q 40.921875 74.21875 44.703125 73.484375 
Q 48.484375 72.75 52.59375 71.296875 
z
" id="DejaVuSans-36"/>
      </defs>
      <g style="fill:#262626;" transform="translate(331.014875 134.659541)scale(0.1 -0.1)">
       <use xlink:href="#DejaVuSans-30"/>
       <use x="63.623047" xlink:href="#DejaVuSans-2e"/>
       <use x="95.410156" xlink:href="#DejaVuSans-36"/>
      </g>
     </g>
    </g>
    <g id="ytick_12">
     <g id="line2d_19"/>
     <g id="text_19">
      <!-- 0.8 -->
      <defs>
       <path d="M 31.78125 34.625 
Q 24.75 34.625 20.71875 30.859375 
Q 16.703125 27.09375 16.703125 20.515625 
Q 16.703125 13.921875 20.71875 10.15625 
Q 24.75 6.390625 31.78125 6.390625 
Q 38.8125 6.390625 42.859375 10.171875 
Q 46.921875 13.96875 46.921875 20.515625 
Q 46.921875 27.09375 42.890625 30.859375 
Q 38.875 34.625 31.78125 34.625 
z
M 21.921875 38.8125 
Q 15.578125 40.375 12.03125 44.71875 
Q 8.5 49.078125 8.5 55.328125 
Q 8.5 64.0625 14.71875 69.140625 
Q 20.953125 74.21875 31.78125 74.21875 
Q 42.671875 74.21875 48.875 69.140625 
Q 55.078125 64.0625 55.078125 55.328125 
Q 55.078125 49.078125 51.53125 44.71875 
Q 48 40.375 41.703125 38.8125 
Q 48.828125 37.15625 52.796875 32.3125 
Q 56.78125 27.484375 56.78125 20.515625 
Q 56.78125 9.90625 50.3125 4.234375 
Q 43.84375 -1.421875 31.78125 -1.421875 
Q 19.734375 -1.421875 13.25 4.234375 
Q 6.78125 9.90625 6.78125 20.515625 
Q 6.78125 27.484375 10.78125 32.3125 
Q 14.796875 37.15625 21.921875 38.8125 
z
M 18.3125 54.390625 
Q 18.3125 48.734375 21.84375 45.5625 
Q 25.390625 42.390625 31.78125 42.390625 
Q 38.140625 42.390625 41.71875 45.5625 
Q 45.3125 48.734375 45.3125 54.390625 
Q 45.3125 60.0625 41.71875 63.234375 
Q 38.140625 66.40625 31.78125 66.40625 
Q 25.390625 66.40625 21.84375 63.234375 
Q 18.3125 60.0625 18.3125 54.390625 
z
" id="DejaVuSans-38"/>
      </defs>
      <g style="fill:#262626;" transform="translate(331.014875 95.91813)scale(0.1 -0.1)">
       <use xlink:href="#DejaVuSans-30"/>
       <use x="63.623047" xlink:href="#DejaVuSans-2e"/>
       <use x="95.410156" xlink:href="#DejaVuSans-38"/>
      </g>
     </g>
    </g>
    <g id="ytick_13">
     <g id="line2d_20"/>
     <g id="text_20">
      <!-- 1.0 -->
      <defs>
       <path d="M 12.40625 8.296875 
L 28.515625 8.296875 
L 28.515625 63.921875 
L 10.984375 60.40625 
L 10.984375 69.390625 
L 28.421875 72.90625 
L 38.28125 72.90625 
L 38.28125 8.296875 
L 54.390625 8.296875 
L 54.390625 0 
L 12.40625 0 
z
" id="DejaVuSans-31"/>
      </defs>
      <g style="fill:#262626;" transform="translate(331.014875 57.176719)scale(0.1 -0.1)">
       <use xlink:href="#DejaVuSans-31"/>
       <use x="63.623047" xlink:href="#DejaVuSans-2e"/>
       <use x="95.410156" xlink:href="#DejaVuSans-30"/>
      </g>
     </g>
    </g>
   </g>
   <g id="QuadMesh_2">
    <path clip-path="url(#pcc941b5fc8)" d="M 322.5475 252.0725 
L 327.514875 252.0725 
L 327.514875 218.956667 
L 322.5475 218.956667 
L 322.5475 252.0725 
" style="fill:#dbe9f6;"/>
    <path clip-path="url(#pcc941b5fc8)" d="M 322.5475 218.956667 
L 327.514875 218.956667 
L 327.514875 185.840833 
L 322.5475 185.840833 
L 322.5475 218.956667 
" style="fill:#bad6eb;"/>
    <path clip-path="url(#pcc941b5fc8)" d="M 322.5475 185.840833 
L 327.514875 185.840833 
L 327.514875 152.725 
L 322.5475 152.725 
L 322.5475 185.840833 
" style="fill:#89bedc;"/>
    <path clip-path="url(#pcc941b5fc8)" d="M 322.5475 152.725 
L 327.514875 152.725 
L 327.514875 119.609167 
L 322.5475 119.609167 
L 322.5475 152.725 
" style="fill:#539ecd;"/>
    <path clip-path="url(#pcc941b5fc8)" d="M 322.5475 119.609167 
L 327.514875 119.609167 
L 327.514875 86.493333 
L 322.5475 86.493333 
L 322.5475 119.609167 
" style="fill:#2b7bba;"/>
    <path clip-path="url(#pcc941b5fc8)" d="M 322.5475 86.493333 
L 327.514875 86.493333 
L 327.514875 53.3775 
L 322.5475 53.3775 
L 322.5475 86.493333 
" style="fill:#0b559f;"/>
   </g>
   <g id="patch_4">
    <path d="M 322.5475 252.0725 
L 322.5475 218.956667 
L 322.5475 86.493333 
L 322.5475 53.3775 
L 327.514875 53.3775 
L 327.514875 86.493333 
L 327.514875 218.956667 
L 327.514875 252.0725 
z
" style="fill:none;"/>
   </g>
  </g>
 </g>
 <defs>
  <clipPath id="p91afcee4b4">
   <rect height="226.54625" width="226.54625" x="82.675" y="39.451875"/>
  </clipPath>
  <clipPath id="pcc941b5fc8">
   <rect height="198.695" width="4.967375" x="322.5475" y="53.3775"/>
  </clipPath>
 </defs>
</svg>
