<?xml version="1.0" encoding="utf-8" standalone="no"?>
<!DOCTYPE svg PUBLIC "-//W3C//DTD SVG 1.1//EN"
  "http://www.w3.org/Graphics/SVG/1.1/DTD/svg11.dtd">
<!-- Created with matplotlib (http://matplotlib.org/) -->
<svg height="360pt" version="1.1" viewBox="0 0 432 360" width="432pt" xmlns="http://www.w3.org/2000/svg" xmlns:xlink="http://www.w3.org/1999/xlink">
 <defs>
  <style type="text/css">
*{stroke-linecap:butt;stroke-linejoin:round;}
  </style>
 </defs>
 <g id="figure_1">
  <g id="patch_1">
   <path d="M 0 360 
L 432 360 
L 432 0 
L 0 0 
z
" style="fill:#ffffff;"/>
  </g>
  <g id="axes_1">
   <g id="patch_2">
    <path d="M 54 315 
L 388.8 315 
L 388.8 43.2 
L 54 43.2 
z
" style="fill:#ffffff;"/>
   </g>
   <g id="matplotlib.axis_1">
    <g id="xtick_1">
     <g id="line2d_1">
      <path clip-path="url(#p434a69cdda)" d="M 69.218182 315 
L 69.218182 43.2 
" style="fill:none;stroke:#cccccc;stroke-linecap:round;stroke-width:0.8;"/>
     </g>
     <g id="line2d_2"/>
     <g id="text_1">
      <!-- 0.95 -->
      <defs>
       <path d="M 31.78125 66.40625 
Q 24.171875 66.40625 20.328125 58.90625 
Q 16.5 51.421875 16.5 36.375 
Q 16.5 21.390625 20.328125 13.890625 
Q 24.171875 6.390625 31.78125 6.390625 
Q 39.453125 6.390625 43.28125 13.890625 
Q 47.125 21.390625 47.125 36.375 
Q 47.125 51.421875 43.28125 58.90625 
Q 39.453125 66.40625 31.78125 66.40625 
z
M 31.78125 74.21875 
Q 44.046875 74.21875 50.515625 64.515625 
Q 56.984375 54.828125 56.984375 36.375 
Q 56.984375 17.96875 50.515625 8.265625 
Q 44.046875 -1.421875 31.78125 -1.421875 
Q 19.53125 -1.421875 13.0625 8.265625 
Q 6.59375 17.96875 6.59375 36.375 
Q 6.59375 54.828125 13.0625 64.515625 
Q 19.53125 74.21875 31.78125 74.21875 
z
" id="DejaVuSans-30"/>
       <path d="M 10.6875 12.40625 
L 21 12.40625 
L 21 0 
L 10.6875 0 
z
" id="DejaVuSans-2e"/>
       <path d="M 10.984375 1.515625 
L 10.984375 10.5 
Q 14.703125 8.734375 18.5 7.8125 
Q 22.3125 6.890625 25.984375 6.890625 
Q 35.75 6.890625 40.890625 13.453125 
Q 46.046875 20.015625 46.78125 33.40625 
Q 43.953125 29.203125 39.59375 26.953125 
Q 35.25 24.703125 29.984375 24.703125 
Q 19.046875 24.703125 12.671875 31.3125 
Q 6.296875 37.9375 6.296875 49.421875 
Q 6.296875 60.640625 12.9375 67.421875 
Q 19.578125 74.21875 30.609375 74.21875 
Q 43.265625 74.21875 49.921875 64.515625 
Q 56.59375 54.828125 56.59375 36.375 
Q 56.59375 19.140625 48.40625 8.859375 
Q 40.234375 -1.421875 26.421875 -1.421875 
Q 22.703125 -1.421875 18.890625 -0.6875 
Q 15.09375 0.046875 10.984375 1.515625 
z
M 30.609375 32.421875 
Q 37.25 32.421875 41.125 36.953125 
Q 45.015625 41.5 45.015625 49.421875 
Q 45.015625 57.28125 41.125 61.84375 
Q 37.25 66.40625 30.609375 66.40625 
Q 23.96875 66.40625 20.09375 61.84375 
Q 16.21875 57.28125 16.21875 49.421875 
Q 16.21875 41.5 20.09375 36.953125 
Q 23.96875 32.421875 30.609375 32.421875 
z
" id="DejaVuSans-39"/>
       <path d="M 10.796875 72.90625 
L 49.515625 72.90625 
L 49.515625 64.59375 
L 19.828125 64.59375 
L 19.828125 46.734375 
Q 21.96875 47.46875 24.109375 47.828125 
Q 26.265625 48.1875 28.421875 48.1875 
Q 40.625 48.1875 47.75 41.5 
Q 54.890625 34.8125 54.890625 23.390625 
Q 54.890625 11.625 47.5625 5.09375 
Q 40.234375 -1.421875 26.90625 -1.421875 
Q 22.3125 -1.421875 17.546875 -0.640625 
Q 12.796875 0.140625 7.71875 1.703125 
L 7.71875 11.625 
Q 12.109375 9.234375 16.796875 8.0625 
Q 21.484375 6.890625 26.703125 6.890625 
Q 35.15625 6.890625 40.078125 11.328125 
Q 45.015625 15.765625 45.015625 23.390625 
Q 45.015625 31 40.078125 35.4375 
Q 35.15625 39.890625 26.703125 39.890625 
Q 22.75 39.890625 18.8125 39.015625 
Q 14.890625 38.140625 10.796875 36.28125 
z
" id="DejaVuSans-35"/>
      </defs>
      <g style="fill:#262626;" transform="translate(58.085369 326.098437)scale(0.1 -0.1)">
       <use xlink:href="#DejaVuSans-30"/>
       <use x="63.623047" xlink:href="#DejaVuSans-2e"/>
       <use x="95.410156" xlink:href="#DejaVuSans-39"/>
       <use x="159.033203" xlink:href="#DejaVuSans-35"/>
      </g>
     </g>
    </g>
    <g id="xtick_2">
     <g id="line2d_3">
      <path clip-path="url(#p434a69cdda)" d="M 130.090909 315 
L 130.090909 43.2 
" style="fill:none;stroke:#cccccc;stroke-linecap:round;stroke-width:0.8;"/>
     </g>
     <g id="line2d_4"/>
     <g id="text_2">
      <!-- 0.96 -->
      <defs>
       <path d="M 33.015625 40.375 
Q 26.375 40.375 22.484375 35.828125 
Q 18.609375 31.296875 18.609375 23.390625 
Q 18.609375 15.53125 22.484375 10.953125 
Q 26.375 6.390625 33.015625 6.390625 
Q 39.65625 6.390625 43.53125 10.953125 
Q 47.40625 15.53125 47.40625 23.390625 
Q 47.40625 31.296875 43.53125 35.828125 
Q 39.65625 40.375 33.015625 40.375 
z
M 52.59375 71.296875 
L 52.59375 62.3125 
Q 48.875 64.0625 45.09375 64.984375 
Q 41.3125 65.921875 37.59375 65.921875 
Q 27.828125 65.921875 22.671875 59.328125 
Q 17.53125 52.734375 16.796875 39.40625 
Q 19.671875 43.65625 24.015625 45.921875 
Q 28.375 48.1875 33.59375 48.1875 
Q 44.578125 48.1875 50.953125 41.515625 
Q 57.328125 34.859375 57.328125 23.390625 
Q 57.328125 12.15625 50.6875 5.359375 
Q 44.046875 -1.421875 33.015625 -1.421875 
Q 20.359375 -1.421875 13.671875 8.265625 
Q 6.984375 17.96875 6.984375 36.375 
Q 6.984375 53.65625 15.1875 63.9375 
Q 23.390625 74.21875 37.203125 74.21875 
Q 40.921875 74.21875 44.703125 73.484375 
Q 48.484375 72.75 52.59375 71.296875 
z
" id="DejaVuSans-36"/>
      </defs>
      <g style="fill:#262626;" transform="translate(118.958097 326.098437)scale(0.1 -0.1)">
       <use xlink:href="#DejaVuSans-30"/>
       <use x="63.623047" xlink:href="#DejaVuSans-2e"/>
       <use x="95.410156" xlink:href="#DejaVuSans-39"/>
       <use x="159.033203" xlink:href="#DejaVuSans-36"/>
      </g>
     </g>
    </g>
    <g id="xtick_3">
     <g id="line2d_5">
      <path clip-path="url(#p434a69cdda)" d="M 190.963636 315 
L 190.963636 43.2 
" style="fill:none;stroke:#cccccc;stroke-linecap:round;stroke-width:0.8;"/>
     </g>
     <g id="line2d_6"/>
     <g id="text_3">
      <!-- 0.97 -->
      <defs>
       <path d="M 8.203125 72.90625 
L 55.078125 72.90625 
L 55.078125 68.703125 
L 28.609375 0 
L 18.3125 0 
L 43.21875 64.59375 
L 8.203125 64.59375 
z
" id="DejaVuSans-37"/>
      </defs>
      <g style="fill:#262626;" transform="translate(179.830824 326.098437)scale(0.1 -0.1)">
       <use xlink:href="#DejaVuSans-30"/>
       <use x="63.623047" xlink:href="#DejaVuSans-2e"/>
       <use x="95.410156" xlink:href="#DejaVuSans-39"/>
       <use x="159.033203" xlink:href="#DejaVuSans-37"/>
      </g>
     </g>
    </g>
    <g id="xtick_4">
     <g id="line2d_7">
      <path clip-path="url(#p434a69cdda)" d="M 251.836364 315 
L 251.836364 43.2 
" style="fill:none;stroke:#cccccc;stroke-linecap:round;stroke-width:0.8;"/>
     </g>
     <g id="line2d_8"/>
     <g id="text_4">
      <!-- 0.98 -->
      <defs>
       <path d="M 31.78125 34.625 
Q 24.75 34.625 20.71875 30.859375 
Q 16.703125 27.09375 16.703125 20.515625 
Q 16.703125 13.921875 20.71875 10.15625 
Q 24.75 6.390625 31.78125 6.390625 
Q 38.8125 6.390625 42.859375 10.171875 
Q 46.921875 13.96875 46.921875 20.515625 
Q 46.921875 27.09375 42.890625 30.859375 
Q 38.875 34.625 31.78125 34.625 
z
M 21.921875 38.8125 
Q 15.578125 40.375 12.03125 44.71875 
Q 8.5 49.078125 8.5 55.328125 
Q 8.5 64.0625 14.71875 69.140625 
Q 20.953125 74.21875 31.78125 74.21875 
Q 42.671875 74.21875 48.875 69.140625 
Q 55.078125 64.0625 55.078125 55.328125 
Q 55.078125 49.078125 51.53125 44.71875 
Q 48 40.375 41.703125 38.8125 
Q 48.828125 37.15625 52.796875 32.3125 
Q 56.78125 27.484375 56.78125 20.515625 
Q 56.78125 9.90625 50.3125 4.234375 
Q 43.84375 -1.421875 31.78125 -1.421875 
Q 19.734375 -1.421875 13.25 4.234375 
Q 6.78125 9.90625 6.78125 20.515625 
Q 6.78125 27.484375 10.78125 32.3125 
Q 14.796875 37.15625 21.921875 38.8125 
z
M 18.3125 54.390625 
Q 18.3125 48.734375 21.84375 45.5625 
Q 25.390625 42.390625 31.78125 42.390625 
Q 38.140625 42.390625 41.71875 45.5625 
Q 45.3125 48.734375 45.3125 54.390625 
Q 45.3125 60.0625 41.71875 63.234375 
Q 38.140625 66.40625 31.78125 66.40625 
Q 25.390625 66.40625 21.84375 63.234375 
Q 18.3125 60.0625 18.3125 54.390625 
z
" id="DejaVuSans-38"/>
      </defs>
      <g style="fill:#262626;" transform="translate(240.703551 326.098437)scale(0.1 -0.1)">
       <use xlink:href="#DejaVuSans-30"/>
       <use x="63.623047" xlink:href="#DejaVuSans-2e"/>
       <use x="95.410156" xlink:href="#DejaVuSans-39"/>
       <use x="159.033203" xlink:href="#DejaVuSans-38"/>
      </g>
     </g>
    </g>
    <g id="xtick_5">
     <g id="line2d_9">
      <path clip-path="url(#p434a69cdda)" d="M 312.709091 315 
L 312.709091 43.2 
" style="fill:none;stroke:#cccccc;stroke-linecap:round;stroke-width:0.8;"/>
     </g>
     <g id="line2d_10"/>
     <g id="text_5">
      <!-- 0.99 -->
      <g style="fill:#262626;" transform="translate(301.576278 326.098437)scale(0.1 -0.1)">
       <use xlink:href="#DejaVuSans-30"/>
       <use x="63.623047" xlink:href="#DejaVuSans-2e"/>
       <use x="95.410156" xlink:href="#DejaVuSans-39"/>
       <use x="159.033203" xlink:href="#DejaVuSans-39"/>
      </g>
     </g>
    </g>
    <g id="xtick_6">
     <g id="line2d_11">
      <path clip-path="url(#p434a69cdda)" d="M 373.581818 315 
L 373.581818 43.2 
" style="fill:none;stroke:#cccccc;stroke-linecap:round;stroke-width:0.8;"/>
     </g>
     <g id="line2d_12"/>
     <g id="text_6">
      <!-- 1.00 -->
      <defs>
       <path d="M 12.40625 8.296875 
L 28.515625 8.296875 
L 28.515625 63.921875 
L 10.984375 60.40625 
L 10.984375 69.390625 
L 28.421875 72.90625 
L 38.28125 72.90625 
L 38.28125 8.296875 
L 54.390625 8.296875 
L 54.390625 0 
L 12.40625 0 
z
" id="DejaVuSans-31"/>
      </defs>
      <g style="fill:#262626;" transform="translate(362.449006 326.098437)scale(0.1 -0.1)">
       <use xlink:href="#DejaVuSans-31"/>
       <use x="63.623047" xlink:href="#DejaVuSans-2e"/>
       <use x="95.410156" xlink:href="#DejaVuSans-30"/>
       <use x="159.033203" xlink:href="#DejaVuSans-30"/>
      </g>
     </g>
    </g>
    <g id="text_7">
     <!-- Correlation coefficient threshold -->
     <defs>
      <path d="M 64.40625 67.28125 
L 64.40625 56.890625 
Q 59.421875 61.53125 53.78125 63.8125 
Q 48.140625 66.109375 41.796875 66.109375 
Q 29.296875 66.109375 22.65625 58.46875 
Q 16.015625 50.828125 16.015625 36.375 
Q 16.015625 21.96875 22.65625 14.328125 
Q 29.296875 6.6875 41.796875 6.6875 
Q 48.140625 6.6875 53.78125 8.984375 
Q 59.421875 11.28125 64.40625 15.921875 
L 64.40625 5.609375 
Q 59.234375 2.09375 53.4375 0.328125 
Q 47.65625 -1.421875 41.21875 -1.421875 
Q 24.65625 -1.421875 15.125 8.703125 
Q 5.609375 18.84375 5.609375 36.375 
Q 5.609375 53.953125 15.125 64.078125 
Q 24.65625 74.21875 41.21875 74.21875 
Q 47.75 74.21875 53.53125 72.484375 
Q 59.328125 70.75 64.40625 67.28125 
z
" id="DejaVuSans-43"/>
      <path d="M 30.609375 48.390625 
Q 23.390625 48.390625 19.1875 42.75 
Q 14.984375 37.109375 14.984375 27.296875 
Q 14.984375 17.484375 19.15625 11.84375 
Q 23.34375 6.203125 30.609375 6.203125 
Q 37.796875 6.203125 41.984375 11.859375 
Q 46.1875 17.53125 46.1875 27.296875 
Q 46.1875 37.015625 41.984375 42.703125 
Q 37.796875 48.390625 30.609375 48.390625 
z
M 30.609375 56 
Q 42.328125 56 49.015625 48.375 
Q 55.71875 40.765625 55.71875 27.296875 
Q 55.71875 13.875 49.015625 6.21875 
Q 42.328125 -1.421875 30.609375 -1.421875 
Q 18.84375 -1.421875 12.171875 6.21875 
Q 5.515625 13.875 5.515625 27.296875 
Q 5.515625 40.765625 12.171875 48.375 
Q 18.84375 56 30.609375 56 
z
" id="DejaVuSans-6f"/>
      <path d="M 41.109375 46.296875 
Q 39.59375 47.171875 37.8125 47.578125 
Q 36.03125 48 33.890625 48 
Q 26.265625 48 22.1875 43.046875 
Q 18.109375 38.09375 18.109375 28.8125 
L 18.109375 0 
L 9.078125 0 
L 9.078125 54.6875 
L 18.109375 54.6875 
L 18.109375 46.1875 
Q 20.953125 51.171875 25.484375 53.578125 
Q 30.03125 56 36.53125 56 
Q 37.453125 56 38.578125 55.875 
Q 39.703125 55.765625 41.0625 55.515625 
z
" id="DejaVuSans-72"/>
      <path d="M 56.203125 29.59375 
L 56.203125 25.203125 
L 14.890625 25.203125 
Q 15.484375 15.921875 20.484375 11.0625 
Q 25.484375 6.203125 34.421875 6.203125 
Q 39.59375 6.203125 44.453125 7.46875 
Q 49.3125 8.734375 54.109375 11.28125 
L 54.109375 2.78125 
Q 49.265625 0.734375 44.1875 -0.34375 
Q 39.109375 -1.421875 33.890625 -1.421875 
Q 20.796875 -1.421875 13.15625 6.1875 
Q 5.515625 13.8125 5.515625 26.8125 
Q 5.515625 40.234375 12.765625 48.109375 
Q 20.015625 56 32.328125 56 
Q 43.359375 56 49.78125 48.890625 
Q 56.203125 41.796875 56.203125 29.59375 
z
M 47.21875 32.234375 
Q 47.125 39.59375 43.09375 43.984375 
Q 39.0625 48.390625 32.421875 48.390625 
Q 24.90625 48.390625 20.390625 44.140625 
Q 15.875 39.890625 15.1875 32.171875 
z
" id="DejaVuSans-65"/>
      <path d="M 9.421875 75.984375 
L 18.40625 75.984375 
L 18.40625 0 
L 9.421875 0 
z
" id="DejaVuSans-6c"/>
      <path d="M 34.28125 27.484375 
Q 23.390625 27.484375 19.1875 25 
Q 14.984375 22.515625 14.984375 16.5 
Q 14.984375 11.71875 18.140625 8.90625 
Q 21.296875 6.109375 26.703125 6.109375 
Q 34.1875 6.109375 38.703125 11.40625 
Q 43.21875 16.703125 43.21875 25.484375 
L 43.21875 27.484375 
z
M 52.203125 31.203125 
L 52.203125 0 
L 43.21875 0 
L 43.21875 8.296875 
Q 40.140625 3.328125 35.546875 0.953125 
Q 30.953125 -1.421875 24.3125 -1.421875 
Q 15.921875 -1.421875 10.953125 3.296875 
Q 6 8.015625 6 15.921875 
Q 6 25.140625 12.171875 29.828125 
Q 18.359375 34.515625 30.609375 34.515625 
L 43.21875 34.515625 
L 43.21875 35.40625 
Q 43.21875 41.609375 39.140625 45 
Q 35.0625 48.390625 27.6875 48.390625 
Q 23 48.390625 18.546875 47.265625 
Q 14.109375 46.140625 10.015625 43.890625 
L 10.015625 52.203125 
Q 14.9375 54.109375 19.578125 55.046875 
Q 24.21875 56 28.609375 56 
Q 40.484375 56 46.34375 49.84375 
Q 52.203125 43.703125 52.203125 31.203125 
z
" id="DejaVuSans-61"/>
      <path d="M 18.3125 70.21875 
L 18.3125 54.6875 
L 36.8125 54.6875 
L 36.8125 47.703125 
L 18.3125 47.703125 
L 18.3125 18.015625 
Q 18.3125 11.328125 20.140625 9.421875 
Q 21.96875 7.515625 27.59375 7.515625 
L 36.8125 7.515625 
L 36.8125 0 
L 27.59375 0 
Q 17.1875 0 13.234375 3.875 
Q 9.28125 7.765625 9.28125 18.015625 
L 9.28125 47.703125 
L 2.6875 47.703125 
L 2.6875 54.6875 
L 9.28125 54.6875 
L 9.28125 70.21875 
z
" id="DejaVuSans-74"/>
      <path d="M 9.421875 54.6875 
L 18.40625 54.6875 
L 18.40625 0 
L 9.421875 0 
z
M 9.421875 75.984375 
L 18.40625 75.984375 
L 18.40625 64.59375 
L 9.421875 64.59375 
z
" id="DejaVuSans-69"/>
      <path d="M 54.890625 33.015625 
L 54.890625 0 
L 45.90625 0 
L 45.90625 32.71875 
Q 45.90625 40.484375 42.875 44.328125 
Q 39.84375 48.1875 33.796875 48.1875 
Q 26.515625 48.1875 22.3125 43.546875 
Q 18.109375 38.921875 18.109375 30.90625 
L 18.109375 0 
L 9.078125 0 
L 9.078125 54.6875 
L 18.109375 54.6875 
L 18.109375 46.1875 
Q 21.34375 51.125 25.703125 53.5625 
Q 30.078125 56 35.796875 56 
Q 45.21875 56 50.046875 50.171875 
Q 54.890625 44.34375 54.890625 33.015625 
z
" id="DejaVuSans-6e"/>
      <path id="DejaVuSans-20"/>
      <path d="M 48.78125 52.59375 
L 48.78125 44.1875 
Q 44.96875 46.296875 41.140625 47.34375 
Q 37.3125 48.390625 33.40625 48.390625 
Q 24.65625 48.390625 19.8125 42.84375 
Q 14.984375 37.3125 14.984375 27.296875 
Q 14.984375 17.28125 19.8125 11.734375 
Q 24.65625 6.203125 33.40625 6.203125 
Q 37.3125 6.203125 41.140625 7.25 
Q 44.96875 8.296875 48.78125 10.40625 
L 48.78125 2.09375 
Q 45.015625 0.34375 40.984375 -0.53125 
Q 36.96875 -1.421875 32.421875 -1.421875 
Q 20.0625 -1.421875 12.78125 6.34375 
Q 5.515625 14.109375 5.515625 27.296875 
Q 5.515625 40.671875 12.859375 48.328125 
Q 20.21875 56 33.015625 56 
Q 37.15625 56 41.109375 55.140625 
Q 45.0625 54.296875 48.78125 52.59375 
z
" id="DejaVuSans-63"/>
      <path d="M 37.109375 75.984375 
L 37.109375 68.5 
L 28.515625 68.5 
Q 23.6875 68.5 21.796875 66.546875 
Q 19.921875 64.59375 19.921875 59.515625 
L 19.921875 54.6875 
L 34.71875 54.6875 
L 34.71875 47.703125 
L 19.921875 47.703125 
L 19.921875 0 
L 10.890625 0 
L 10.890625 47.703125 
L 2.296875 47.703125 
L 2.296875 54.6875 
L 10.890625 54.6875 
L 10.890625 58.5 
Q 10.890625 67.625 15.140625 71.796875 
Q 19.390625 75.984375 28.609375 75.984375 
z
" id="DejaVuSans-66"/>
      <path d="M 54.890625 33.015625 
L 54.890625 0 
L 45.90625 0 
L 45.90625 32.71875 
Q 45.90625 40.484375 42.875 44.328125 
Q 39.84375 48.1875 33.796875 48.1875 
Q 26.515625 48.1875 22.3125 43.546875 
Q 18.109375 38.921875 18.109375 30.90625 
L 18.109375 0 
L 9.078125 0 
L 9.078125 75.984375 
L 18.109375 75.984375 
L 18.109375 46.1875 
Q 21.34375 51.125 25.703125 53.5625 
Q 30.078125 56 35.796875 56 
Q 45.21875 56 50.046875 50.171875 
Q 54.890625 44.34375 54.890625 33.015625 
z
" id="DejaVuSans-68"/>
      <path d="M 44.28125 53.078125 
L 44.28125 44.578125 
Q 40.484375 46.53125 36.375 47.5 
Q 32.28125 48.484375 27.875 48.484375 
Q 21.1875 48.484375 17.84375 46.4375 
Q 14.5 44.390625 14.5 40.28125 
Q 14.5 37.15625 16.890625 35.375 
Q 19.28125 33.59375 26.515625 31.984375 
L 29.59375 31.296875 
Q 39.15625 29.25 43.1875 25.515625 
Q 47.21875 21.78125 47.21875 15.09375 
Q 47.21875 7.46875 41.1875 3.015625 
Q 35.15625 -1.421875 24.609375 -1.421875 
Q 20.21875 -1.421875 15.453125 -0.5625 
Q 10.6875 0.296875 5.421875 2 
L 5.421875 11.28125 
Q 10.40625 8.6875 15.234375 7.390625 
Q 20.0625 6.109375 24.8125 6.109375 
Q 31.15625 6.109375 34.5625 8.28125 
Q 37.984375 10.453125 37.984375 14.40625 
Q 37.984375 18.0625 35.515625 20.015625 
Q 33.0625 21.96875 24.703125 23.78125 
L 21.578125 24.515625 
Q 13.234375 26.265625 9.515625 29.90625 
Q 5.8125 33.546875 5.8125 39.890625 
Q 5.8125 47.609375 11.28125 51.796875 
Q 16.75 56 26.8125 56 
Q 31.78125 56 36.171875 55.265625 
Q 40.578125 54.546875 44.28125 53.078125 
z
" id="DejaVuSans-73"/>
      <path d="M 45.40625 46.390625 
L 45.40625 75.984375 
L 54.390625 75.984375 
L 54.390625 0 
L 45.40625 0 
L 45.40625 8.203125 
Q 42.578125 3.328125 38.25 0.953125 
Q 33.9375 -1.421875 27.875 -1.421875 
Q 17.96875 -1.421875 11.734375 6.484375 
Q 5.515625 14.40625 5.515625 27.296875 
Q 5.515625 40.1875 11.734375 48.09375 
Q 17.96875 56 27.875 56 
Q 33.9375 56 38.25 53.625 
Q 42.578125 51.265625 45.40625 46.390625 
z
M 14.796875 27.296875 
Q 14.796875 17.390625 18.875 11.75 
Q 22.953125 6.109375 30.078125 6.109375 
Q 37.203125 6.109375 41.296875 11.75 
Q 45.40625 17.390625 45.40625 27.296875 
Q 45.40625 37.203125 41.296875 42.84375 
Q 37.203125 48.484375 30.078125 48.484375 
Q 22.953125 48.484375 18.875 42.84375 
Q 14.796875 37.203125 14.796875 27.296875 
z
" id="DejaVuSans-64"/>
     </defs>
     <g style="fill:#262626;" transform="translate(140.661719 339.776563)scale(0.1 -0.1)">
      <use xlink:href="#DejaVuSans-43"/>
      <use x="69.824219" xlink:href="#DejaVuSans-6f"/>
      <use x="131.005859" xlink:href="#DejaVuSans-72"/>
      <use x="172.103516" xlink:href="#DejaVuSans-72"/>
      <use x="213.185547" xlink:href="#DejaVuSans-65"/>
      <use x="274.708984" xlink:href="#DejaVuSans-6c"/>
      <use x="302.492188" xlink:href="#DejaVuSans-61"/>
      <use x="363.771484" xlink:href="#DejaVuSans-74"/>
      <use x="402.980469" xlink:href="#DejaVuSans-69"/>
      <use x="430.763672" xlink:href="#DejaVuSans-6f"/>
      <use x="491.945312" xlink:href="#DejaVuSans-6e"/>
      <use x="555.324219" xlink:href="#DejaVuSans-20"/>
      <use x="587.111328" xlink:href="#DejaVuSans-63"/>
      <use x="642.091797" xlink:href="#DejaVuSans-6f"/>
      <use x="703.273438" xlink:href="#DejaVuSans-65"/>
      <use x="764.796875" xlink:href="#DejaVuSans-66"/>
      <use x="800.001953" xlink:href="#DejaVuSans-66"/>
      <use x="835.207031" xlink:href="#DejaVuSans-69"/>
      <use x="862.990234" xlink:href="#DejaVuSans-63"/>
      <use x="917.970703" xlink:href="#DejaVuSans-69"/>
      <use x="945.753906" xlink:href="#DejaVuSans-65"/>
      <use x="1007.277344" xlink:href="#DejaVuSans-6e"/>
      <use x="1070.65625" xlink:href="#DejaVuSans-74"/>
      <use x="1109.865234" xlink:href="#DejaVuSans-20"/>
      <use x="1141.652344" xlink:href="#DejaVuSans-74"/>
      <use x="1180.861328" xlink:href="#DejaVuSans-68"/>
      <use x="1244.240234" xlink:href="#DejaVuSans-72"/>
      <use x="1285.322266" xlink:href="#DejaVuSans-65"/>
      <use x="1346.845703" xlink:href="#DejaVuSans-73"/>
      <use x="1398.945312" xlink:href="#DejaVuSans-68"/>
      <use x="1462.324219" xlink:href="#DejaVuSans-6f"/>
      <use x="1523.505859" xlink:href="#DejaVuSans-6c"/>
      <use x="1551.289062" xlink:href="#DejaVuSans-64"/>
     </g>
    </g>
   </g>
   <g id="matplotlib.axis_2">
    <g id="ytick_1">
     <g id="line2d_13">
      <path clip-path="url(#p434a69cdda)" d="M 54 302.645455 
L 388.8 302.645455 
" style="fill:none;stroke:#cccccc;stroke-linecap:round;stroke-width:0.8;"/>
     </g>
     <g id="line2d_14"/>
     <g id="text_8">
      <!--   0% -->
      <defs>
       <path d="M 72.703125 32.078125 
Q 68.453125 32.078125 66.03125 28.46875 
Q 63.625 24.859375 63.625 18.40625 
Q 63.625 12.0625 66.03125 8.421875 
Q 68.453125 4.78125 72.703125 4.78125 
Q 76.859375 4.78125 79.265625 8.421875 
Q 81.6875 12.0625 81.6875 18.40625 
Q 81.6875 24.8125 79.265625 28.4375 
Q 76.859375 32.078125 72.703125 32.078125 
z
M 72.703125 38.28125 
Q 80.421875 38.28125 84.953125 32.90625 
Q 89.5 27.546875 89.5 18.40625 
Q 89.5 9.28125 84.9375 3.921875 
Q 80.375 -1.421875 72.703125 -1.421875 
Q 64.890625 -1.421875 60.34375 3.921875 
Q 55.8125 9.28125 55.8125 18.40625 
Q 55.8125 27.59375 60.375 32.9375 
Q 64.9375 38.28125 72.703125 38.28125 
z
M 22.3125 68.015625 
Q 18.109375 68.015625 15.6875 64.375 
Q 13.28125 60.75 13.28125 54.390625 
Q 13.28125 47.953125 15.671875 44.328125 
Q 18.0625 40.71875 22.3125 40.71875 
Q 26.5625 40.71875 28.96875 44.328125 
Q 31.390625 47.953125 31.390625 54.390625 
Q 31.390625 60.6875 28.953125 64.34375 
Q 26.515625 68.015625 22.3125 68.015625 
z
M 66.40625 74.21875 
L 74.21875 74.21875 
L 28.609375 -1.421875 
L 20.796875 -1.421875 
z
M 22.3125 74.21875 
Q 30.03125 74.21875 34.609375 68.875 
Q 39.203125 63.53125 39.203125 54.390625 
Q 39.203125 45.171875 34.640625 39.84375 
Q 30.078125 34.515625 22.3125 34.515625 
Q 14.546875 34.515625 10.03125 39.859375 
Q 5.515625 45.21875 5.515625 54.390625 
Q 5.515625 63.484375 10.046875 68.84375 
Q 14.59375 74.21875 22.3125 74.21875 
z
" id="DejaVuSans-25"/>
      </defs>
      <g style="fill:#262626;" transform="translate(28.279687 306.444673)scale(0.1 -0.1)">
       <use xlink:href="#DejaVuSans-20"/>
       <use x="31.787109" xlink:href="#DejaVuSans-20"/>
       <use x="63.574219" xlink:href="#DejaVuSans-30"/>
       <use x="127.197266" xlink:href="#DejaVuSans-25"/>
      </g>
     </g>
    </g>
    <g id="ytick_2">
     <g id="line2d_15">
      <path clip-path="url(#p434a69cdda)" d="M 54 253.227273 
L 388.8 253.227273 
" style="fill:none;stroke:#cccccc;stroke-linecap:round;stroke-width:0.8;"/>
     </g>
     <g id="line2d_16"/>
     <g id="text_9">
      <!--  20% -->
      <defs>
       <path d="M 19.1875 8.296875 
L 53.609375 8.296875 
L 53.609375 0 
L 7.328125 0 
L 7.328125 8.296875 
Q 12.9375 14.109375 22.625 23.890625 
Q 32.328125 33.6875 34.8125 36.53125 
Q 39.546875 41.84375 41.421875 45.53125 
Q 43.3125 49.21875 43.3125 52.78125 
Q 43.3125 58.59375 39.234375 62.25 
Q 35.15625 65.921875 28.609375 65.921875 
Q 23.96875 65.921875 18.8125 64.3125 
Q 13.671875 62.703125 7.8125 59.421875 
L 7.8125 69.390625 
Q 13.765625 71.78125 18.9375 73 
Q 24.125 74.21875 28.421875 74.21875 
Q 39.75 74.21875 46.484375 68.546875 
Q 53.21875 62.890625 53.21875 53.421875 
Q 53.21875 48.921875 51.53125 44.890625 
Q 49.859375 40.875 45.40625 35.40625 
Q 44.1875 33.984375 37.640625 27.21875 
Q 31.109375 20.453125 19.1875 8.296875 
z
" id="DejaVuSans-32"/>
      </defs>
      <g style="fill:#262626;" transform="translate(25.095312 257.026491)scale(0.1 -0.1)">
       <use xlink:href="#DejaVuSans-20"/>
       <use x="31.787109" xlink:href="#DejaVuSans-32"/>
       <use x="95.410156" xlink:href="#DejaVuSans-30"/>
       <use x="159.033203" xlink:href="#DejaVuSans-25"/>
      </g>
     </g>
    </g>
    <g id="ytick_3">
     <g id="line2d_17">
      <path clip-path="url(#p434a69cdda)" d="M 54 203.809091 
L 388.8 203.809091 
" style="fill:none;stroke:#cccccc;stroke-linecap:round;stroke-width:0.8;"/>
     </g>
     <g id="line2d_18"/>
     <g id="text_10">
      <!--  40% -->
      <defs>
       <path d="M 37.796875 64.3125 
L 12.890625 25.390625 
L 37.796875 25.390625 
z
M 35.203125 72.90625 
L 47.609375 72.90625 
L 47.609375 25.390625 
L 58.015625 25.390625 
L 58.015625 17.1875 
L 47.609375 17.1875 
L 47.609375 0 
L 37.796875 0 
L 37.796875 17.1875 
L 4.890625 17.1875 
L 4.890625 26.703125 
z
" id="DejaVuSans-34"/>
      </defs>
      <g style="fill:#262626;" transform="translate(25.095312 207.60831)scale(0.1 -0.1)">
       <use xlink:href="#DejaVuSans-20"/>
       <use x="31.787109" xlink:href="#DejaVuSans-34"/>
       <use x="95.410156" xlink:href="#DejaVuSans-30"/>
       <use x="159.033203" xlink:href="#DejaVuSans-25"/>
      </g>
     </g>
    </g>
    <g id="ytick_4">
     <g id="line2d_19">
      <path clip-path="url(#p434a69cdda)" d="M 54 154.390909 
L 388.8 154.390909 
" style="fill:none;stroke:#cccccc;stroke-linecap:round;stroke-width:0.8;"/>
     </g>
     <g id="line2d_20"/>
     <g id="text_11">
      <!--  60% -->
      <g style="fill:#262626;" transform="translate(25.095312 158.190128)scale(0.1 -0.1)">
       <use xlink:href="#DejaVuSans-20"/>
       <use x="31.787109" xlink:href="#DejaVuSans-36"/>
       <use x="95.410156" xlink:href="#DejaVuSans-30"/>
       <use x="159.033203" xlink:href="#DejaVuSans-25"/>
      </g>
     </g>
    </g>
    <g id="ytick_5">
     <g id="line2d_21">
      <path clip-path="url(#p434a69cdda)" d="M 54 104.972727 
L 388.8 104.972727 
" style="fill:none;stroke:#cccccc;stroke-linecap:round;stroke-width:0.8;"/>
     </g>
     <g id="line2d_22"/>
     <g id="text_12">
      <!--  80% -->
      <g style="fill:#262626;" transform="translate(25.095312 108.771946)scale(0.1 -0.1)">
       <use xlink:href="#DejaVuSans-20"/>
       <use x="31.787109" xlink:href="#DejaVuSans-38"/>
       <use x="95.410156" xlink:href="#DejaVuSans-30"/>
       <use x="159.033203" xlink:href="#DejaVuSans-25"/>
      </g>
     </g>
    </g>
    <g id="ytick_6">
     <g id="line2d_23">
      <path clip-path="url(#p434a69cdda)" d="M 54 55.554545 
L 388.8 55.554545 
" style="fill:none;stroke:#cccccc;stroke-linecap:round;stroke-width:0.8;"/>
     </g>
     <g id="line2d_24"/>
     <g id="text_13">
      <!-- 100% -->
      <g style="fill:#262626;" transform="translate(21.910937 59.353764)scale(0.1 -0.1)">
       <use xlink:href="#DejaVuSans-31"/>
       <use x="63.623047" xlink:href="#DejaVuSans-30"/>
       <use x="127.246094" xlink:href="#DejaVuSans-30"/>
       <use x="190.869141" xlink:href="#DejaVuSans-25"/>
      </g>
     </g>
    </g>
    <g id="text_14">
     <!-- Elements below threshold -->
     <defs>
      <path d="M 9.8125 72.90625 
L 55.90625 72.90625 
L 55.90625 64.59375 
L 19.671875 64.59375 
L 19.671875 43.015625 
L 54.390625 43.015625 
L 54.390625 34.71875 
L 19.671875 34.71875 
L 19.671875 8.296875 
L 56.78125 8.296875 
L 56.78125 0 
L 9.8125 0 
z
" id="DejaVuSans-45"/>
      <path d="M 52 44.1875 
Q 55.375 50.25 60.0625 53.125 
Q 64.75 56 71.09375 56 
Q 79.640625 56 84.28125 50.015625 
Q 88.921875 44.046875 88.921875 33.015625 
L 88.921875 0 
L 79.890625 0 
L 79.890625 32.71875 
Q 79.890625 40.578125 77.09375 44.375 
Q 74.3125 48.1875 68.609375 48.1875 
Q 61.625 48.1875 57.5625 43.546875 
Q 53.515625 38.921875 53.515625 30.90625 
L 53.515625 0 
L 44.484375 0 
L 44.484375 32.71875 
Q 44.484375 40.625 41.703125 44.40625 
Q 38.921875 48.1875 33.109375 48.1875 
Q 26.21875 48.1875 22.15625 43.53125 
Q 18.109375 38.875 18.109375 30.90625 
L 18.109375 0 
L 9.078125 0 
L 9.078125 54.6875 
L 18.109375 54.6875 
L 18.109375 46.1875 
Q 21.1875 51.21875 25.484375 53.609375 
Q 29.78125 56 35.6875 56 
Q 41.65625 56 45.828125 52.96875 
Q 50 49.953125 52 44.1875 
z
" id="DejaVuSans-6d"/>
      <path d="M 48.6875 27.296875 
Q 48.6875 37.203125 44.609375 42.84375 
Q 40.53125 48.484375 33.40625 48.484375 
Q 26.265625 48.484375 22.1875 42.84375 
Q 18.109375 37.203125 18.109375 27.296875 
Q 18.109375 17.390625 22.1875 11.75 
Q 26.265625 6.109375 33.40625 6.109375 
Q 40.53125 6.109375 44.609375 11.75 
Q 48.6875 17.390625 48.6875 27.296875 
z
M 18.109375 46.390625 
Q 20.953125 51.265625 25.265625 53.625 
Q 29.59375 56 35.59375 56 
Q 45.5625 56 51.78125 48.09375 
Q 58.015625 40.1875 58.015625 27.296875 
Q 58.015625 14.40625 51.78125 6.484375 
Q 45.5625 -1.421875 35.59375 -1.421875 
Q 29.59375 -1.421875 25.265625 0.953125 
Q 20.953125 3.328125 18.109375 8.203125 
L 18.109375 0 
L 9.078125 0 
L 9.078125 75.984375 
L 18.109375 75.984375 
z
" id="DejaVuSans-62"/>
      <path d="M 4.203125 54.6875 
L 13.1875 54.6875 
L 24.421875 12.015625 
L 35.59375 54.6875 
L 46.1875 54.6875 
L 57.421875 12.015625 
L 68.609375 54.6875 
L 77.59375 54.6875 
L 63.28125 0 
L 52.6875 0 
L 40.921875 44.828125 
L 29.109375 0 
L 18.5 0 
z
" id="DejaVuSans-77"/>
     </defs>
     <g style="fill:#262626;" transform="translate(15.83125 244.027344)rotate(-90)scale(0.1 -0.1)">
      <use xlink:href="#DejaVuSans-45"/>
      <use x="63.183594" xlink:href="#DejaVuSans-6c"/>
      <use x="90.966797" xlink:href="#DejaVuSans-65"/>
      <use x="152.490234" xlink:href="#DejaVuSans-6d"/>
      <use x="249.902344" xlink:href="#DejaVuSans-65"/>
      <use x="311.425781" xlink:href="#DejaVuSans-6e"/>
      <use x="374.804688" xlink:href="#DejaVuSans-74"/>
      <use x="414.013672" xlink:href="#DejaVuSans-73"/>
      <use x="466.113281" xlink:href="#DejaVuSans-20"/>
      <use x="497.900391" xlink:href="#DejaVuSans-62"/>
      <use x="561.376953" xlink:href="#DejaVuSans-65"/>
      <use x="622.900391" xlink:href="#DejaVuSans-6c"/>
      <use x="650.683594" xlink:href="#DejaVuSans-6f"/>
      <use x="711.865234" xlink:href="#DejaVuSans-77"/>
      <use x="793.652344" xlink:href="#DejaVuSans-20"/>
      <use x="825.439453" xlink:href="#DejaVuSans-74"/>
      <use x="864.648438" xlink:href="#DejaVuSans-68"/>
      <use x="928.027344" xlink:href="#DejaVuSans-72"/>
      <use x="969.109375" xlink:href="#DejaVuSans-65"/>
      <use x="1030.632812" xlink:href="#DejaVuSans-73"/>
      <use x="1082.732422" xlink:href="#DejaVuSans-68"/>
      <use x="1146.111328" xlink:href="#DejaVuSans-6f"/>
      <use x="1207.292969" xlink:href="#DejaVuSans-6c"/>
      <use x="1235.076172" xlink:href="#DejaVuSans-64"/>
     </g>
    </g>
   </g>
   <g id="line2d_25">
    <path clip-path="url(#p434a69cdda)" d="M 69.218182 81.846893 
L 72.292562 81.846893 
L 75.366942 81.846893 
L 78.441322 81.846893 
L 81.515702 81.846893 
L 84.590083 81.846893 
L 87.664463 81.846893 
L 90.738843 81.846893 
L 93.813223 81.846893 
L 96.887603 81.846893 
L 99.961983 77.445783 
L 103.036364 77.445783 
L 106.110744 77.445783 
L 109.185124 77.445783 
L 112.259504 77.445783 
L 115.333884 77.131418 
L 118.408264 77.131418 
L 121.482645 77.131418 
L 124.557025 77.131418 
L 127.631405 77.131418 
L 130.705785 77.131418 
L 133.780165 77.131418 
L 136.854545 77.131418 
L 139.928926 77.131418 
L 143.003306 76.331216 
L 146.077686 76.331216 
L 149.152066 76.331216 
L 152.226446 76.331216 
L 155.300826 76.331216 
L 158.375207 76.331216 
L 161.449587 76.331216 
L 164.523967 76.331216 
L 167.598347 76.331216 
L 170.672727 76.331216 
L 173.747107 76.331216 
L 176.821488 76.331216 
L 179.895868 76.331216 
L 182.970248 76.331216 
L 186.044628 76.331216 
L 189.119008 76.331216 
L 192.193388 76.331216 
L 195.267769 76.331216 
L 198.342149 76.331216 
L 201.416529 76.331216 
L 204.490909 76.331216 
L 207.565289 76.331216 
L 210.639669 76.331216 
L 213.71405 76.331216 
L 216.78843 76.331216 
L 219.86281 76.331216 
L 222.93719 76.331216 
L 226.01157 76.331216 
L 229.08595 76.331216 
L 232.160331 76.331216 
L 235.234711 76.331216 
L 238.309091 76.331216 
L 241.383471 76.331216 
L 244.457851 76.331216 
L 247.532231 76.331216 
L 250.606612 76.331216 
L 253.680992 76.331216 
L 256.755372 76.331216 
L 259.829752 76.331216 
L 262.904132 76.331216 
L 265.978512 76.331216 
L 269.052893 76.331216 
L 272.127273 76.331216 
L 275.201653 76.331216 
L 278.276033 76.331216 
L 281.350413 76.331216 
L 284.424793 76.331216 
L 287.499174 75.988272 
L 290.573554 75.988272 
L 293.647934 75.988272 
L 296.722314 75.988272 
L 299.796694 75.988272 
L 302.871074 75.988272 
L 305.945455 75.988272 
L 309.019835 75.673907 
L 312.094215 75.673907 
L 315.168595 75.673907 
L 318.242975 75.673907 
L 321.317355 75.61675 
L 324.391736 75.61675 
L 327.466116 75.61675 
L 330.540496 75.61675 
L 333.614876 75.61675 
L 336.689256 75.61675 
L 339.763636 75.61675 
L 342.838017 75.61675 
L 345.912397 75.61675 
L 348.986777 75.61675 
L 352.061157 75.588171 
L 355.135537 75.559592 
L 358.209917 75.130913 
L 361.284298 75.130913 
L 364.358678 75.102334 
L 367.433058 74.673655 
L 370.507438 74.244975 
L 373.581818 55.754596 
" style="fill:none;opacity:0.8;stroke:#1f77b4;stroke-linecap:round;stroke-width:1.5;"/>
   </g>
   <g id="line2d_26">
    <path clip-path="url(#p434a69cdda)" d="M 69.218182 302.645455 
L 72.292562 302.645455 
L 75.366942 302.645455 
L 78.441322 302.645455 
L 81.515702 302.645455 
L 84.590083 302.645455 
L 87.664463 302.645455 
L 90.738843 302.645455 
L 93.813223 302.645455 
L 96.887603 302.645455 
L 99.961983 302.645455 
L 103.036364 302.645455 
L 106.110744 302.645455 
L 109.185124 302.645455 
L 112.259504 302.645455 
L 115.333884 302.645455 
L 118.408264 302.645455 
L 121.482645 302.645455 
L 124.557025 302.645455 
L 127.631405 302.645455 
L 130.705785 302.645455 
L 133.780165 302.645455 
L 136.854545 302.645455 
L 139.928926 302.645455 
L 143.003306 302.645455 
L 146.077686 302.645455 
L 149.152066 302.645455 
L 152.226446 302.645455 
L 155.300826 302.645455 
L 158.375207 302.645455 
L 161.449587 302.645455 
L 164.523967 302.645455 
L 167.598347 302.645455 
L 170.672727 302.645455 
L 173.747107 302.645455 
L 176.821488 302.645455 
L 179.895868 302.645455 
L 182.970248 302.645455 
L 186.044628 302.645455 
L 189.119008 302.645455 
L 192.193388 302.645455 
L 195.267769 302.645455 
L 198.342149 302.645455 
L 201.416529 302.645455 
L 204.490909 302.645455 
L 207.565289 302.645455 
L 210.639669 302.645455 
L 213.71405 302.645455 
L 216.78843 302.645455 
L 219.86281 302.645455 
L 222.93719 302.645455 
L 226.01157 302.645455 
L 229.08595 302.645455 
L 232.160331 302.645455 
L 235.234711 302.645455 
L 238.309091 302.645455 
L 241.383471 302.645455 
L 244.457851 302.645455 
L 247.532231 302.645455 
L 250.606612 302.645455 
L 253.680992 302.645455 
L 256.755372 302.645455 
L 259.829752 302.645455 
L 262.904132 302.645455 
L 265.978512 302.645455 
L 269.052893 302.645455 
L 272.127273 302.645455 
L 275.201653 302.645455 
L 278.276033 302.645455 
L 281.350413 302.645455 
L 284.424793 302.645455 
L 287.499174 302.645455 
L 290.573554 302.645455 
L 293.647934 302.645455 
L 296.722314 302.645455 
L 299.796694 302.645455 
L 302.871074 302.645455 
L 305.945455 302.645455 
L 309.019835 302.645455 
L 312.094215 302.645455 
L 315.168595 302.645455 
L 318.242975 302.645455 
L 321.317355 302.645455 
L 324.391736 302.645455 
L 327.466116 302.645455 
L 330.540496 302.645455 
L 333.614876 302.645455 
L 336.689256 302.645455 
L 339.763636 302.645455 
L 342.838017 302.645455 
L 345.912397 302.645455 
L 348.986777 302.645455 
L 352.061157 302.645455 
L 355.135537 302.645455 
L 358.209917 302.645455 
L 361.284298 302.645455 
L 364.358678 302.645455 
L 367.433058 302.645455 
L 370.507438 283.459572 
L 373.581818 65.438182 
" style="fill:none;opacity:0.8;stroke:#ff7f0e;stroke-linecap:round;stroke-width:1.5;"/>
   </g>
   <g id="line2d_27">
    <path clip-path="url(#p434a69cdda)" d="M 69.218182 59.084416 
L 72.292562 59.084416 
L 75.366942 59.084416 
L 78.441322 59.084416 
L 81.515702 59.084416 
L 84.590083 59.084416 
L 87.664463 59.084416 
L 90.738843 59.084416 
L 93.813223 59.084416 
L 96.887603 59.084416 
L 99.961983 57.907792 
L 103.036364 57.907792 
L 106.110744 57.907792 
L 109.185124 57.907792 
L 112.259504 57.907792 
L 115.333884 56.731169 
L 118.408264 56.731169 
L 121.482645 56.731169 
L 124.557025 56.731169 
L 127.631405 56.731169 
L 130.705785 56.731169 
L 133.780165 56.731169 
L 136.854545 56.731169 
L 139.928926 56.731169 
L 143.003306 55.554545 
L 146.077686 55.554545 
L 149.152066 55.554545 
L 152.226446 55.554545 
L 155.300826 55.554545 
L 158.375207 55.554545 
L 161.449587 55.554545 
L 164.523967 55.554545 
L 167.598347 55.554545 
L 170.672727 55.554545 
L 173.747107 55.554545 
L 176.821488 55.554545 
L 179.895868 55.554545 
L 182.970248 55.554545 
L 186.044628 55.554545 
L 189.119008 55.554545 
L 192.193388 55.554545 
L 195.267769 55.554545 
L 198.342149 55.554545 
L 201.416529 55.554545 
L 204.490909 55.554545 
L 207.565289 55.554545 
L 210.639669 55.554545 
L 213.71405 55.554545 
L 216.78843 55.554545 
L 219.86281 55.554545 
L 222.93719 55.554545 
L 226.01157 55.554545 
L 229.08595 55.554545 
L 232.160331 55.554545 
L 235.234711 55.554545 
L 238.309091 55.554545 
L 241.383471 55.554545 
L 244.457851 55.554545 
L 247.532231 55.554545 
L 250.606612 55.554545 
L 253.680992 55.554545 
L 256.755372 55.554545 
L 259.829752 55.554545 
L 262.904132 55.554545 
L 265.978512 55.554545 
L 269.052893 55.554545 
L 272.127273 55.554545 
L 275.201653 55.554545 
L 278.276033 55.554545 
L 281.350413 55.554545 
L 284.424793 55.554545 
L 287.499174 55.554545 
L 290.573554 55.554545 
L 293.647934 55.554545 
L 296.722314 55.554545 
L 299.796694 55.554545 
L 302.871074 55.554545 
L 305.945455 55.554545 
L 309.019835 55.554545 
L 312.094215 55.554545 
L 315.168595 55.554545 
L 318.242975 55.554545 
L 321.317355 55.554545 
L 324.391736 55.554545 
L 327.466116 55.554545 
L 330.540496 55.554545 
L 333.614876 55.554545 
L 336.689256 55.554545 
L 339.763636 55.554545 
L 342.838017 55.554545 
L 345.912397 55.554545 
L 348.986777 55.554545 
L 352.061157 55.554545 
L 355.135537 55.554545 
L 358.209917 55.554545 
L 361.284298 55.554545 
L 364.358678 55.554545 
L 367.433058 55.554545 
L 370.507438 55.554545 
L 373.581818 55.554545 
" style="fill:none;opacity:0.8;stroke:#2ca02c;stroke-linecap:round;stroke-width:1.5;"/>
   </g>
   <g id="line2d_28">
    <path clip-path="url(#p434a69cdda)" d="M 69.218182 145.405785 
L 72.292562 141.661983 
L 75.366942 141.661983 
L 78.441322 141.661983 
L 81.515702 141.661983 
L 84.590083 137.918182 
L 87.664463 134.17438 
L 90.738843 130.430579 
L 93.813223 126.686777 
L 96.887603 126.686777 
L 99.961983 122.942975 
L 103.036364 122.942975 
L 106.110744 122.942975 
L 109.185124 122.942975 
L 112.259504 122.942975 
L 115.333884 122.942975 
L 118.408264 122.942975 
L 121.482645 119.199174 
L 124.557025 119.199174 
L 127.631405 115.455372 
L 130.705785 111.71157 
L 133.780165 107.967769 
L 136.854545 100.480165 
L 139.928926 100.480165 
L 143.003306 100.480165 
L 146.077686 92.992562 
L 149.152066 92.992562 
L 152.226446 89.24876 
L 155.300826 89.24876 
L 158.375207 89.24876 
L 161.449587 89.24876 
L 164.523967 89.24876 
L 167.598347 81.761157 
L 170.672727 81.761157 
L 173.747107 78.017355 
L 176.821488 78.017355 
L 179.895868 74.273554 
L 182.970248 74.273554 
L 186.044628 70.529752 
L 189.119008 70.529752 
L 192.193388 70.529752 
L 195.267769 70.529752 
L 198.342149 70.529752 
L 201.416529 70.529752 
L 204.490909 70.529752 
L 207.565289 70.529752 
L 210.639669 70.529752 
L 213.71405 70.529752 
L 216.78843 70.529752 
L 219.86281 70.529752 
L 222.93719 66.78595 
L 226.01157 66.78595 
L 229.08595 63.042149 
L 232.160331 63.042149 
L 235.234711 63.042149 
L 238.309091 59.298347 
L 241.383471 59.298347 
L 244.457851 59.298347 
L 247.532231 59.298347 
L 250.606612 59.298347 
L 253.680992 59.298347 
L 256.755372 59.298347 
L 259.829752 59.298347 
L 262.904132 55.554545 
L 265.978512 55.554545 
L 269.052893 55.554545 
L 272.127273 55.554545 
L 275.201653 55.554545 
L 278.276033 55.554545 
L 281.350413 55.554545 
L 284.424793 55.554545 
L 287.499174 55.554545 
L 290.573554 55.554545 
L 293.647934 55.554545 
L 296.722314 55.554545 
L 299.796694 55.554545 
L 302.871074 55.554545 
L 305.945455 55.554545 
L 309.019835 55.554545 
L 312.094215 55.554545 
L 315.168595 55.554545 
L 318.242975 55.554545 
L 321.317355 55.554545 
L 324.391736 55.554545 
L 327.466116 55.554545 
L 330.540496 55.554545 
L 333.614876 55.554545 
L 336.689256 55.554545 
L 339.763636 55.554545 
L 342.838017 55.554545 
L 345.912397 55.554545 
L 348.986777 55.554545 
L 352.061157 55.554545 
L 355.135537 55.554545 
L 358.209917 55.554545 
L 361.284298 55.554545 
L 364.358678 55.554545 
L 367.433058 55.554545 
L 370.507438 55.554545 
L 373.581818 55.554545 
" style="fill:none;opacity:0.8;stroke:#d62728;stroke-linecap:round;stroke-width:1.5;"/>
   </g>
   <g id="line2d_29">
    <path clip-path="url(#p434a69cdda)" d="M 69.218182 89.872727 
L 72.292562 89.872727 
L 75.366942 89.872727 
L 78.441322 83.009091 
L 81.515702 83.009091 
L 84.590083 83.009091 
L 87.664463 83.009091 
L 90.738843 83.009091 
L 93.813223 83.009091 
L 96.887603 83.009091 
L 99.961983 83.009091 
L 103.036364 83.009091 
L 106.110744 83.009091 
L 109.185124 83.009091 
L 112.259504 83.009091 
L 115.333884 76.145455 
L 118.408264 76.145455 
L 121.482645 69.281818 
L 124.557025 69.281818 
L 127.631405 69.281818 
L 130.705785 69.281818 
L 133.780165 69.281818 
L 136.854545 69.281818 
L 139.928926 69.281818 
L 143.003306 69.281818 
L 146.077686 69.281818 
L 149.152066 69.281818 
L 152.226446 69.281818 
L 155.300826 69.281818 
L 158.375207 69.281818 
L 161.449587 69.281818 
L 164.523967 69.281818 
L 167.598347 69.281818 
L 170.672727 69.281818 
L 173.747107 69.281818 
L 176.821488 69.281818 
L 179.895868 69.281818 
L 182.970248 69.281818 
L 186.044628 69.281818 
L 189.119008 69.281818 
L 192.193388 69.281818 
L 195.267769 69.281818 
L 198.342149 62.418182 
L 201.416529 62.418182 
L 204.490909 62.418182 
L 207.565289 62.418182 
L 210.639669 62.418182 
L 213.71405 62.418182 
L 216.78843 62.418182 
L 219.86281 62.418182 
L 222.93719 62.418182 
L 226.01157 62.418182 
L 229.08595 62.418182 
L 232.160331 62.418182 
L 235.234711 62.418182 
L 238.309091 62.418182 
L 241.383471 62.418182 
L 244.457851 62.418182 
L 247.532231 62.418182 
L 250.606612 62.418182 
L 253.680992 55.554545 
L 256.755372 55.554545 
L 259.829752 55.554545 
L 262.904132 55.554545 
L 265.978512 55.554545 
L 269.052893 55.554545 
L 272.127273 55.554545 
L 275.201653 55.554545 
L 278.276033 55.554545 
L 281.350413 55.554545 
L 284.424793 55.554545 
L 287.499174 55.554545 
L 290.573554 55.554545 
L 293.647934 55.554545 
L 296.722314 55.554545 
L 299.796694 55.554545 
L 302.871074 55.554545 
L 305.945455 55.554545 
L 309.019835 55.554545 
L 312.094215 55.554545 
L 315.168595 55.554545 
L 318.242975 55.554545 
L 321.317355 55.554545 
L 324.391736 55.554545 
L 327.466116 55.554545 
L 330.540496 55.554545 
L 333.614876 55.554545 
L 336.689256 55.554545 
L 339.763636 55.554545 
L 342.838017 55.554545 
L 345.912397 55.554545 
L 348.986777 55.554545 
L 352.061157 55.554545 
L 355.135537 55.554545 
L 358.209917 55.554545 
L 361.284298 55.554545 
L 364.358678 55.554545 
L 367.433058 55.554545 
L 370.507438 55.554545 
L 373.581818 55.554545 
" style="fill:none;opacity:0.8;stroke:#9467bd;stroke-linecap:round;stroke-width:1.5;"/>
   </g>
   <g id="line2d_30">
    <path clip-path="url(#p434a69cdda)" d="M 69.218182 55.554545 
L 72.292562 55.554545 
L 75.366942 55.554545 
L 78.441322 55.554545 
L 81.515702 55.554545 
L 84.590083 55.554545 
L 87.664463 55.554545 
L 90.738843 55.554545 
L 93.813223 55.554545 
L 96.887603 55.554545 
L 99.961983 55.554545 
L 103.036364 55.554545 
L 106.110744 55.554545 
L 109.185124 55.554545 
L 112.259504 55.554545 
L 115.333884 55.554545 
L 118.408264 55.554545 
L 121.482645 55.554545 
L 124.557025 55.554545 
L 127.631405 55.554545 
L 130.705785 55.554545 
L 133.780165 55.554545 
L 136.854545 55.554545 
L 139.928926 55.554545 
L 143.003306 55.554545 
L 146.077686 55.554545 
L 149.152066 55.554545 
L 152.226446 55.554545 
L 155.300826 55.554545 
L 158.375207 55.554545 
L 161.449587 55.554545 
L 164.523967 55.554545 
L 167.598347 55.554545 
L 170.672727 55.554545 
L 173.747107 55.554545 
L 176.821488 55.554545 
L 179.895868 55.554545 
L 182.970248 55.554545 
L 186.044628 55.554545 
L 189.119008 55.554545 
L 192.193388 55.554545 
L 195.267769 55.554545 
L 198.342149 55.554545 
L 201.416529 55.554545 
L 204.490909 55.554545 
L 207.565289 55.554545 
L 210.639669 55.554545 
L 213.71405 55.554545 
L 216.78843 55.554545 
L 219.86281 55.554545 
L 222.93719 55.554545 
L 226.01157 55.554545 
L 229.08595 55.554545 
L 232.160331 55.554545 
L 235.234711 55.554545 
L 238.309091 55.554545 
L 241.383471 55.554545 
L 244.457851 55.554545 
L 247.532231 55.554545 
L 250.606612 55.554545 
L 253.680992 55.554545 
L 256.755372 55.554545 
L 259.829752 55.554545 
L 262.904132 55.554545 
L 265.978512 55.554545 
L 269.052893 55.554545 
L 272.127273 55.554545 
L 275.201653 55.554545 
L 278.276033 55.554545 
L 281.350413 55.554545 
L 284.424793 55.554545 
L 287.499174 55.554545 
L 290.573554 55.554545 
L 293.647934 55.554545 
L 296.722314 55.554545 
L 299.796694 55.554545 
L 302.871074 55.554545 
L 305.945455 55.554545 
L 309.019835 55.554545 
L 312.094215 55.554545 
L 315.168595 55.554545 
L 318.242975 55.554545 
L 321.317355 55.554545 
L 324.391736 55.554545 
L 327.466116 55.554545 
L 330.540496 55.554545 
L 333.614876 55.554545 
L 336.689256 55.554545 
L 339.763636 55.554545 
L 342.838017 55.554545 
L 345.912397 55.554545 
L 348.986777 55.554545 
L 352.061157 55.554545 
L 355.135537 55.554545 
L 358.209917 55.554545 
L 361.284298 55.554545 
L 364.358678 55.554545 
L 367.433058 55.554545 
L 370.507438 55.554545 
L 373.581818 55.554545 
" style="fill:none;opacity:0.8;stroke:#8c564b;stroke-linecap:round;stroke-width:1.5;"/>
   </g>
   <g id="legend_1">
    <g id="line2d_31">
     <path d="M 171.653906 141.664062 
L 191.653906 141.664062 
" style="fill:none;opacity:0.8;stroke:#1f77b4;stroke-linecap:round;stroke-width:1.5;"/>
    </g>
    <g id="line2d_32"/>
    <g id="text_15">
     <!-- WECC -->
     <defs>
      <path d="M 3.328125 72.90625 
L 13.28125 72.90625 
L 28.609375 11.28125 
L 43.890625 72.90625 
L 54.984375 72.90625 
L 70.3125 11.28125 
L 85.59375 72.90625 
L 95.609375 72.90625 
L 77.296875 0 
L 64.890625 0 
L 49.515625 63.28125 
L 33.984375 0 
L 21.578125 0 
z
" id="DejaVuSans-57"/>
     </defs>
     <g style="fill:#262626;" transform="translate(199.653906 145.164062)scale(0.1 -0.1)">
      <use xlink:href="#DejaVuSans-57"/>
      <use x="98.876953" xlink:href="#DejaVuSans-45"/>
      <use x="162.060547" xlink:href="#DejaVuSans-43"/>
      <use x="231.884766" xlink:href="#DejaVuSans-43"/>
     </g>
    </g>
    <g id="line2d_33">
     <path d="M 171.653906 156.342187 
L 191.653906 156.342187 
" style="fill:none;opacity:0.8;stroke:#ff7f0e;stroke-linecap:round;stroke-width:1.5;"/>
    </g>
    <g id="line2d_34"/>
    <g id="text_16">
     <!-- RTS 96 -->
     <defs>
      <path d="M 44.390625 34.1875 
Q 47.5625 33.109375 50.5625 29.59375 
Q 53.5625 26.078125 56.59375 19.921875 
L 66.609375 0 
L 56 0 
L 46.6875 18.703125 
Q 43.0625 26.03125 39.671875 28.421875 
Q 36.28125 30.8125 30.421875 30.8125 
L 19.671875 30.8125 
L 19.671875 0 
L 9.8125 0 
L 9.8125 72.90625 
L 32.078125 72.90625 
Q 44.578125 72.90625 50.734375 67.671875 
Q 56.890625 62.453125 56.890625 51.90625 
Q 56.890625 45.015625 53.6875 40.46875 
Q 50.484375 35.9375 44.390625 34.1875 
z
M 19.671875 64.796875 
L 19.671875 38.921875 
L 32.078125 38.921875 
Q 39.203125 38.921875 42.84375 42.21875 
Q 46.484375 45.515625 46.484375 51.90625 
Q 46.484375 58.296875 42.84375 61.546875 
Q 39.203125 64.796875 32.078125 64.796875 
z
" id="DejaVuSans-52"/>
      <path d="M -0.296875 72.90625 
L 61.375 72.90625 
L 61.375 64.59375 
L 35.5 64.59375 
L 35.5 0 
L 25.59375 0 
L 25.59375 64.59375 
L -0.296875 64.59375 
z
" id="DejaVuSans-54"/>
      <path d="M 53.515625 70.515625 
L 53.515625 60.890625 
Q 47.90625 63.578125 42.921875 64.890625 
Q 37.9375 66.21875 33.296875 66.21875 
Q 25.25 66.21875 20.875 63.09375 
Q 16.5 59.96875 16.5 54.203125 
Q 16.5 49.359375 19.40625 46.890625 
Q 22.3125 44.4375 30.421875 42.921875 
L 36.375 41.703125 
Q 47.40625 39.59375 52.65625 34.296875 
Q 57.90625 29 57.90625 20.125 
Q 57.90625 9.515625 50.796875 4.046875 
Q 43.703125 -1.421875 29.984375 -1.421875 
Q 24.8125 -1.421875 18.96875 -0.25 
Q 13.140625 0.921875 6.890625 3.21875 
L 6.890625 13.375 
Q 12.890625 10.015625 18.65625 8.296875 
Q 24.421875 6.59375 29.984375 6.59375 
Q 38.421875 6.59375 43.015625 9.90625 
Q 47.609375 13.234375 47.609375 19.390625 
Q 47.609375 24.75 44.3125 27.78125 
Q 41.015625 30.8125 33.5 32.328125 
L 27.484375 33.5 
Q 16.453125 35.6875 11.515625 40.375 
Q 6.59375 45.0625 6.59375 53.421875 
Q 6.59375 63.09375 13.40625 68.65625 
Q 20.21875 74.21875 32.171875 74.21875 
Q 37.3125 74.21875 42.625 73.28125 
Q 47.953125 72.359375 53.515625 70.515625 
z
" id="DejaVuSans-53"/>
     </defs>
     <g style="fill:#262626;" transform="translate(199.653906 159.842187)scale(0.1 -0.1)">
      <use xlink:href="#DejaVuSans-52"/>
      <use x="69.373047" xlink:href="#DejaVuSans-54"/>
      <use x="130.457031" xlink:href="#DejaVuSans-53"/>
      <use x="193.933594" xlink:href="#DejaVuSans-20"/>
      <use x="225.720703" xlink:href="#DejaVuSans-39"/>
      <use x="289.34375" xlink:href="#DejaVuSans-36"/>
     </g>
    </g>
    <g id="line2d_35">
     <path d="M 171.653906 171.020312 
L 191.653906 171.020312 
" style="fill:none;opacity:0.8;stroke:#2ca02c;stroke-linecap:round;stroke-width:1.5;"/>
    </g>
    <g id="line2d_36"/>
    <g id="text_17">
     <!-- WECC Agg. -->
     <defs>
      <path d="M 34.1875 63.1875 
L 20.796875 26.90625 
L 47.609375 26.90625 
z
M 28.609375 72.90625 
L 39.796875 72.90625 
L 67.578125 0 
L 57.328125 0 
L 50.6875 18.703125 
L 17.828125 18.703125 
L 11.1875 0 
L 0.78125 0 
z
" id="DejaVuSans-41"/>
      <path d="M 45.40625 27.984375 
Q 45.40625 37.75 41.375 43.109375 
Q 37.359375 48.484375 30.078125 48.484375 
Q 22.859375 48.484375 18.828125 43.109375 
Q 14.796875 37.75 14.796875 27.984375 
Q 14.796875 18.265625 18.828125 12.890625 
Q 22.859375 7.515625 30.078125 7.515625 
Q 37.359375 7.515625 41.375 12.890625 
Q 45.40625 18.265625 45.40625 27.984375 
z
M 54.390625 6.78125 
Q 54.390625 -7.171875 48.1875 -13.984375 
Q 42 -20.796875 29.203125 -20.796875 
Q 24.46875 -20.796875 20.265625 -20.09375 
Q 16.0625 -19.390625 12.109375 -17.921875 
L 12.109375 -9.1875 
Q 16.0625 -11.328125 19.921875 -12.34375 
Q 23.78125 -13.375 27.78125 -13.375 
Q 36.625 -13.375 41.015625 -8.765625 
Q 45.40625 -4.15625 45.40625 5.171875 
L 45.40625 9.625 
Q 42.625 4.78125 38.28125 2.390625 
Q 33.9375 0 27.875 0 
Q 17.828125 0 11.671875 7.65625 
Q 5.515625 15.328125 5.515625 27.984375 
Q 5.515625 40.671875 11.671875 48.328125 
Q 17.828125 56 27.875 56 
Q 33.9375 56 38.28125 53.609375 
Q 42.625 51.21875 45.40625 46.390625 
L 45.40625 54.6875 
L 54.390625 54.6875 
z
" id="DejaVuSans-67"/>
     </defs>
     <g style="fill:#262626;" transform="translate(199.653906 174.520312)scale(0.1 -0.1)">
      <use xlink:href="#DejaVuSans-57"/>
      <use x="98.876953" xlink:href="#DejaVuSans-45"/>
      <use x="162.060547" xlink:href="#DejaVuSans-43"/>
      <use x="231.884766" xlink:href="#DejaVuSans-43"/>
      <use x="301.708984" xlink:href="#DejaVuSans-20"/>
      <use x="333.496094" xlink:href="#DejaVuSans-41"/>
      <use x="401.904297" xlink:href="#DejaVuSans-67"/>
      <use x="465.380859" xlink:href="#DejaVuSans-67"/>
      <use x="528.857422" xlink:href="#DejaVuSans-2e"/>
     </g>
    </g>
    <g id="line2d_37">
     <path d="M 171.653906 185.698438 
L 191.653906 185.698438 
" style="fill:none;opacity:0.8;stroke:#d62728;stroke-linecap:round;stroke-width:1.5;"/>
    </g>
    <g id="line2d_38"/>
    <g id="text_18">
     <!-- RTE 1hr -->
     <g style="fill:#262626;" transform="translate(199.653906 189.198438)scale(0.1 -0.1)">
      <use xlink:href="#DejaVuSans-52"/>
      <use x="69.373047" xlink:href="#DejaVuSans-54"/>
      <use x="130.457031" xlink:href="#DejaVuSans-45"/>
      <use x="193.640625" xlink:href="#DejaVuSans-20"/>
      <use x="225.427734" xlink:href="#DejaVuSans-31"/>
      <use x="289.050781" xlink:href="#DejaVuSans-68"/>
      <use x="352.429688" xlink:href="#DejaVuSans-72"/>
     </g>
    </g>
    <g id="line2d_39">
     <path d="M 171.653906 200.376563 
L 191.653906 200.376563 
" style="fill:none;opacity:0.8;stroke:#9467bd;stroke-linecap:round;stroke-width:1.5;"/>
    </g>
    <g id="line2d_40"/>
    <g id="text_19">
     <!-- ERCOT -->
     <defs>
      <path d="M 39.40625 66.21875 
Q 28.65625 66.21875 22.328125 58.203125 
Q 16.015625 50.203125 16.015625 36.375 
Q 16.015625 22.609375 22.328125 14.59375 
Q 28.65625 6.59375 39.40625 6.59375 
Q 50.140625 6.59375 56.421875 14.59375 
Q 62.703125 22.609375 62.703125 36.375 
Q 62.703125 50.203125 56.421875 58.203125 
Q 50.140625 66.21875 39.40625 66.21875 
z
M 39.40625 74.21875 
Q 54.734375 74.21875 63.90625 63.9375 
Q 73.09375 53.65625 73.09375 36.375 
Q 73.09375 19.140625 63.90625 8.859375 
Q 54.734375 -1.421875 39.40625 -1.421875 
Q 24.03125 -1.421875 14.8125 8.828125 
Q 5.609375 19.09375 5.609375 36.375 
Q 5.609375 53.65625 14.8125 63.9375 
Q 24.03125 74.21875 39.40625 74.21875 
z
" id="DejaVuSans-4f"/>
     </defs>
     <g style="fill:#262626;" transform="translate(199.653906 203.876563)scale(0.1 -0.1)">
      <use xlink:href="#DejaVuSans-45"/>
      <use x="63.183594" xlink:href="#DejaVuSans-52"/>
      <use x="132.587891" xlink:href="#DejaVuSans-43"/>
      <use x="202.412109" xlink:href="#DejaVuSans-4f"/>
      <use x="281.123047" xlink:href="#DejaVuSans-54"/>
     </g>
    </g>
    <g id="line2d_41">
     <path d="M 171.653906 215.054688 
L 191.653906 215.054688 
" style="fill:none;opacity:0.8;stroke:#8c564b;stroke-linecap:round;stroke-width:1.5;"/>
    </g>
    <g id="line2d_42"/>
    <g id="text_20">
     <!-- RTS GMLC 1hr -->
     <defs>
      <path d="M 59.515625 10.40625 
L 59.515625 29.984375 
L 43.40625 29.984375 
L 43.40625 38.09375 
L 69.28125 38.09375 
L 69.28125 6.78125 
Q 63.578125 2.734375 56.6875 0.65625 
Q 49.8125 -1.421875 42 -1.421875 
Q 24.90625 -1.421875 15.25 8.5625 
Q 5.609375 18.5625 5.609375 36.375 
Q 5.609375 54.25 15.25 64.234375 
Q 24.90625 74.21875 42 74.21875 
Q 49.125 74.21875 55.546875 72.453125 
Q 61.96875 70.703125 67.390625 67.28125 
L 67.390625 56.78125 
Q 61.921875 61.421875 55.765625 63.765625 
Q 49.609375 66.109375 42.828125 66.109375 
Q 29.4375 66.109375 22.71875 58.640625 
Q 16.015625 51.171875 16.015625 36.375 
Q 16.015625 21.625 22.71875 14.15625 
Q 29.4375 6.6875 42.828125 6.6875 
Q 48.046875 6.6875 52.140625 7.59375 
Q 56.25 8.5 59.515625 10.40625 
z
" id="DejaVuSans-47"/>
      <path d="M 9.8125 72.90625 
L 24.515625 72.90625 
L 43.109375 23.296875 
L 61.8125 72.90625 
L 76.515625 72.90625 
L 76.515625 0 
L 66.890625 0 
L 66.890625 64.015625 
L 48.09375 14.015625 
L 38.1875 14.015625 
L 19.390625 64.015625 
L 19.390625 0 
L 9.8125 0 
z
" id="DejaVuSans-4d"/>
      <path d="M 9.8125 72.90625 
L 19.671875 72.90625 
L 19.671875 8.296875 
L 55.171875 8.296875 
L 55.171875 0 
L 9.8125 0 
z
" id="DejaVuSans-4c"/>
     </defs>
     <g style="fill:#262626;" transform="translate(199.653906 218.554688)scale(0.1 -0.1)">
      <use xlink:href="#DejaVuSans-52"/>
      <use x="69.373047" xlink:href="#DejaVuSans-54"/>
      <use x="130.457031" xlink:href="#DejaVuSans-53"/>
      <use x="193.933594" xlink:href="#DejaVuSans-20"/>
      <use x="225.720703" xlink:href="#DejaVuSans-47"/>
      <use x="303.210938" xlink:href="#DejaVuSans-4d"/>
      <use x="389.490234" xlink:href="#DejaVuSans-4c"/>
      <use x="445.203125" xlink:href="#DejaVuSans-43"/>
      <use x="515.027344" xlink:href="#DejaVuSans-20"/>
      <use x="546.814453" xlink:href="#DejaVuSans-31"/>
      <use x="610.4375" xlink:href="#DejaVuSans-68"/>
      <use x="673.816406" xlink:href="#DejaVuSans-72"/>
     </g>
    </g>
   </g>
  </g>
 </g>
 <defs>
  <clipPath id="p434a69cdda">
   <rect height="271.8" width="334.8" x="54" y="43.2"/>
  </clipPath>
 </defs>
</svg>
