<?xml version="1.0" encoding="utf-8" standalone="no"?>
<!DOCTYPE svg PUBLIC "-//W3C//DTD SVG 1.1//EN"
  "http://www.w3.org/Graphics/SVG/1.1/DTD/svg11.dtd">
<!-- Created with matplotlib (http://matplotlib.org/) -->
<svg height="360pt" version="1.1" viewBox="0 0 360 360" width="360pt" xmlns="http://www.w3.org/2000/svg" xmlns:xlink="http://www.w3.org/1999/xlink">
 <defs>
  <style type="text/css">
*{stroke-linecap:butt;stroke-linejoin:round;}
  </style>
 </defs>
 <g id="figure_1">
  <g id="patch_1">
   <path d="M 0 360 
L 360 360 
L 360 0 
L 0 0 
z
" style="fill:#ffffff;"/>
  </g>
  <g id="axes_1">
   <g id="patch_2">
    <path d="M 149.05 200.784112 
L 311.543225 200.784112 
L 311.543225 38.290887 
L 149.05 38.290887 
z
" style="fill:#ffffff;"/>
   </g>
   <g id="matplotlib.axis_1">
    <g id="xtick_1">
     <g id="line2d_1"/>
     <g id="text_1">
      <!-- Auvergne-Rhône-Alpes -->
      <defs>
       <path d="M 34.1875 63.1875 
L 20.796875 26.90625 
L 47.609375 26.90625 
z
M 28.609375 72.90625 
L 39.796875 72.90625 
L 67.578125 0 
L 57.328125 0 
L 50.6875 18.703125 
L 17.828125 18.703125 
L 11.1875 0 
L 0.78125 0 
z
" id="DejaVuSans-41"/>
       <path d="M 8.5 21.578125 
L 8.5 54.6875 
L 17.484375 54.6875 
L 17.484375 21.921875 
Q 17.484375 14.15625 20.5 10.265625 
Q 23.53125 6.390625 29.59375 6.390625 
Q 36.859375 6.390625 41.078125 11.03125 
Q 45.3125 15.671875 45.3125 23.6875 
L 45.3125 54.6875 
L 54.296875 54.6875 
L 54.296875 0 
L 45.3125 0 
L 45.3125 8.40625 
Q 42.046875 3.421875 37.71875 1 
Q 33.40625 -1.421875 27.6875 -1.421875 
Q 18.265625 -1.421875 13.375 4.4375 
Q 8.5 10.296875 8.5 21.578125 
z
M 31.109375 56 
z
" id="DejaVuSans-75"/>
       <path d="M 2.984375 54.6875 
L 12.5 54.6875 
L 29.59375 8.796875 
L 46.6875 54.6875 
L 56.203125 54.6875 
L 35.6875 0 
L 23.484375 0 
z
" id="DejaVuSans-76"/>
       <path d="M 56.203125 29.59375 
L 56.203125 25.203125 
L 14.890625 25.203125 
Q 15.484375 15.921875 20.484375 11.0625 
Q 25.484375 6.203125 34.421875 6.203125 
Q 39.59375 6.203125 44.453125 7.46875 
Q 49.3125 8.734375 54.109375 11.28125 
L 54.109375 2.78125 
Q 49.265625 0.734375 44.1875 -0.34375 
Q 39.109375 -1.421875 33.890625 -1.421875 
Q 20.796875 -1.421875 13.15625 6.1875 
Q 5.515625 13.8125 5.515625 26.8125 
Q 5.515625 40.234375 12.765625 48.109375 
Q 20.015625 56 32.328125 56 
Q 43.359375 56 49.78125 48.890625 
Q 56.203125 41.796875 56.203125 29.59375 
z
M 47.21875 32.234375 
Q 47.125 39.59375 43.09375 43.984375 
Q 39.0625 48.390625 32.421875 48.390625 
Q 24.90625 48.390625 20.390625 44.140625 
Q 15.875 39.890625 15.1875 32.171875 
z
" id="DejaVuSans-65"/>
       <path d="M 41.109375 46.296875 
Q 39.59375 47.171875 37.8125 47.578125 
Q 36.03125 48 33.890625 48 
Q 26.265625 48 22.1875 43.046875 
Q 18.109375 38.09375 18.109375 28.8125 
L 18.109375 0 
L 9.078125 0 
L 9.078125 54.6875 
L 18.109375 54.6875 
L 18.109375 46.1875 
Q 20.953125 51.171875 25.484375 53.578125 
Q 30.03125 56 36.53125 56 
Q 37.453125 56 38.578125 55.875 
Q 39.703125 55.765625 41.0625 55.515625 
z
" id="DejaVuSans-72"/>
       <path d="M 45.40625 27.984375 
Q 45.40625 37.75 41.375 43.109375 
Q 37.359375 48.484375 30.078125 48.484375 
Q 22.859375 48.484375 18.828125 43.109375 
Q 14.796875 37.75 14.796875 27.984375 
Q 14.796875 18.265625 18.828125 12.890625 
Q 22.859375 7.515625 30.078125 7.515625 
Q 37.359375 7.515625 41.375 12.890625 
Q 45.40625 18.265625 45.40625 27.984375 
z
M 54.390625 6.78125 
Q 54.390625 -7.171875 48.1875 -13.984375 
Q 42 -20.796875 29.203125 -20.796875 
Q 24.46875 -20.796875 20.265625 -20.09375 
Q 16.0625 -19.390625 12.109375 -17.921875 
L 12.109375 -9.1875 
Q 16.0625 -11.328125 19.921875 -12.34375 
Q 23.78125 -13.375 27.78125 -13.375 
Q 36.625 -13.375 41.015625 -8.765625 
Q 45.40625 -4.15625 45.40625 5.171875 
L 45.40625 9.625 
Q 42.625 4.78125 38.28125 2.390625 
Q 33.9375 0 27.875 0 
Q 17.828125 0 11.671875 7.65625 
Q 5.515625 15.328125 5.515625 27.984375 
Q 5.515625 40.671875 11.671875 48.328125 
Q 17.828125 56 27.875 56 
Q 33.9375 56 38.28125 53.609375 
Q 42.625 51.21875 45.40625 46.390625 
L 45.40625 54.6875 
L 54.390625 54.6875 
z
" id="DejaVuSans-67"/>
       <path d="M 54.890625 33.015625 
L 54.890625 0 
L 45.90625 0 
L 45.90625 32.71875 
Q 45.90625 40.484375 42.875 44.328125 
Q 39.84375 48.1875 33.796875 48.1875 
Q 26.515625 48.1875 22.3125 43.546875 
Q 18.109375 38.921875 18.109375 30.90625 
L 18.109375 0 
L 9.078125 0 
L 9.078125 54.6875 
L 18.109375 54.6875 
L 18.109375 46.1875 
Q 21.34375 51.125 25.703125 53.5625 
Q 30.078125 56 35.796875 56 
Q 45.21875 56 50.046875 50.171875 
Q 54.890625 44.34375 54.890625 33.015625 
z
" id="DejaVuSans-6e"/>
       <path d="M 4.890625 31.390625 
L 31.203125 31.390625 
L 31.203125 23.390625 
L 4.890625 23.390625 
z
" id="DejaVuSans-2d"/>
       <path d="M 44.390625 34.1875 
Q 47.5625 33.109375 50.5625 29.59375 
Q 53.5625 26.078125 56.59375 19.921875 
L 66.609375 0 
L 56 0 
L 46.6875 18.703125 
Q 43.0625 26.03125 39.671875 28.421875 
Q 36.28125 30.8125 30.421875 30.8125 
L 19.671875 30.8125 
L 19.671875 0 
L 9.8125 0 
L 9.8125 72.90625 
L 32.078125 72.90625 
Q 44.578125 72.90625 50.734375 67.671875 
Q 56.890625 62.453125 56.890625 51.90625 
Q 56.890625 45.015625 53.6875 40.46875 
Q 50.484375 35.9375 44.390625 34.1875 
z
M 19.671875 64.796875 
L 19.671875 38.921875 
L 32.078125 38.921875 
Q 39.203125 38.921875 42.84375 42.21875 
Q 46.484375 45.515625 46.484375 51.90625 
Q 46.484375 58.296875 42.84375 61.546875 
Q 39.203125 64.796875 32.078125 64.796875 
z
" id="DejaVuSans-52"/>
       <path d="M 54.890625 33.015625 
L 54.890625 0 
L 45.90625 0 
L 45.90625 32.71875 
Q 45.90625 40.484375 42.875 44.328125 
Q 39.84375 48.1875 33.796875 48.1875 
Q 26.515625 48.1875 22.3125 43.546875 
Q 18.109375 38.921875 18.109375 30.90625 
L 18.109375 0 
L 9.078125 0 
L 9.078125 75.984375 
L 18.109375 75.984375 
L 18.109375 46.1875 
Q 21.34375 51.125 25.703125 53.5625 
Q 30.078125 56 35.796875 56 
Q 45.21875 56 50.046875 50.171875 
Q 54.890625 44.34375 54.890625 33.015625 
z
" id="DejaVuSans-68"/>
       <path d="M 30.609375 48.390625 
Q 23.390625 48.390625 19.1875 42.75 
Q 14.984375 37.109375 14.984375 27.296875 
Q 14.984375 17.484375 19.15625 11.84375 
Q 23.34375 6.203125 30.609375 6.203125 
Q 37.796875 6.203125 41.984375 11.859375 
Q 46.1875 17.53125 46.1875 27.296875 
Q 46.1875 37.015625 41.984375 42.703125 
Q 37.796875 48.390625 30.609375 48.390625 
z
M 30.609375 56 
Q 42.328125 56 49.015625 48.375 
Q 55.71875 40.765625 55.71875 27.296875 
Q 55.71875 13.875 49.015625 6.21875 
Q 42.328125 -1.421875 30.609375 -1.421875 
Q 18.84375 -1.421875 12.171875 6.21875 
Q 5.515625 13.875 5.515625 27.296875 
Q 5.515625 40.765625 12.171875 48.375 
Q 18.84375 56 30.609375 56 
z
M 27.015625 79.984375 
L 34.234375 79.984375 
L 46.203125 61.625 
L 39.421875 61.625 
L 30.625 73.578125 
L 21.84375 61.625 
L 15.046875 61.625 
z
" id="DejaVuSans-f4"/>
       <path d="M 9.421875 75.984375 
L 18.40625 75.984375 
L 18.40625 0 
L 9.421875 0 
z
" id="DejaVuSans-6c"/>
       <path d="M 18.109375 8.203125 
L 18.109375 -20.796875 
L 9.078125 -20.796875 
L 9.078125 54.6875 
L 18.109375 54.6875 
L 18.109375 46.390625 
Q 20.953125 51.265625 25.265625 53.625 
Q 29.59375 56 35.59375 56 
Q 45.5625 56 51.78125 48.09375 
Q 58.015625 40.1875 58.015625 27.296875 
Q 58.015625 14.40625 51.78125 6.484375 
Q 45.5625 -1.421875 35.59375 -1.421875 
Q 29.59375 -1.421875 25.265625 0.953125 
Q 20.953125 3.328125 18.109375 8.203125 
z
M 48.6875 27.296875 
Q 48.6875 37.203125 44.609375 42.84375 
Q 40.53125 48.484375 33.40625 48.484375 
Q 26.265625 48.484375 22.1875 42.84375 
Q 18.109375 37.203125 18.109375 27.296875 
Q 18.109375 17.390625 22.1875 11.75 
Q 26.265625 6.109375 33.40625 6.109375 
Q 40.53125 6.109375 44.609375 11.75 
Q 48.6875 17.390625 48.6875 27.296875 
z
" id="DejaVuSans-70"/>
       <path d="M 44.28125 53.078125 
L 44.28125 44.578125 
Q 40.484375 46.53125 36.375 47.5 
Q 32.28125 48.484375 27.875 48.484375 
Q 21.1875 48.484375 17.84375 46.4375 
Q 14.5 44.390625 14.5 40.28125 
Q 14.5 37.15625 16.890625 35.375 
Q 19.28125 33.59375 26.515625 31.984375 
L 29.59375 31.296875 
Q 39.15625 29.25 43.1875 25.515625 
Q 47.21875 21.78125 47.21875 15.09375 
Q 47.21875 7.46875 41.1875 3.015625 
Q 35.15625 -1.421875 24.609375 -1.421875 
Q 20.21875 -1.421875 15.453125 -0.5625 
Q 10.6875 0.296875 5.421875 2 
L 5.421875 11.28125 
Q 10.40625 8.6875 15.234375 7.390625 
Q 20.0625 6.109375 24.8125 6.109375 
Q 31.15625 6.109375 34.5625 8.28125 
Q 37.984375 10.453125 37.984375 14.40625 
Q 37.984375 18.0625 35.515625 20.015625 
Q 33.0625 21.96875 24.703125 23.78125 
L 21.578125 24.515625 
Q 13.234375 26.265625 9.515625 29.90625 
Q 5.8125 33.546875 5.8125 39.890625 
Q 5.8125 47.609375 11.28125 51.796875 
Q 16.75 56 26.8125 56 
Q 31.78125 56 36.171875 55.265625 
Q 40.578125 54.546875 44.28125 53.078125 
z
" id="DejaVuSans-73"/>
      </defs>
      <g style="fill:#262626;" transform="translate(158.779926 318.92005)rotate(-90)scale(0.1 -0.1)">
       <use xlink:href="#DejaVuSans-41"/>
       <use x="68.408203" xlink:href="#DejaVuSans-75"/>
       <use x="131.787109" xlink:href="#DejaVuSans-76"/>
       <use x="190.966797" xlink:href="#DejaVuSans-65"/>
       <use x="252.490234" xlink:href="#DejaVuSans-72"/>
       <use x="293.587891" xlink:href="#DejaVuSans-67"/>
       <use x="357.064453" xlink:href="#DejaVuSans-6e"/>
       <use x="420.443359" xlink:href="#DejaVuSans-65"/>
       <use x="481.966797" xlink:href="#DejaVuSans-2d"/>
       <use x="518.050781" xlink:href="#DejaVuSans-52"/>
       <use x="587.533203" xlink:href="#DejaVuSans-68"/>
       <use x="650.912109" xlink:href="#DejaVuSans-f4"/>
       <use x="712.09375" xlink:href="#DejaVuSans-6e"/>
       <use x="775.472656" xlink:href="#DejaVuSans-65"/>
       <use x="836.996094" xlink:href="#DejaVuSans-2d"/>
       <use x="873.048828" xlink:href="#DejaVuSans-41"/>
       <use x="941.457031" xlink:href="#DejaVuSans-6c"/>
       <use x="969.240234" xlink:href="#DejaVuSans-70"/>
       <use x="1032.716797" xlink:href="#DejaVuSans-65"/>
       <use x="1094.240234" xlink:href="#DejaVuSans-73"/>
      </g>
     </g>
    </g>
    <g id="xtick_2">
     <g id="line2d_2"/>
     <g id="text_2">
      <!-- Bourgogne-Franche-Comté -->
      <defs>
       <path d="M 19.671875 34.8125 
L 19.671875 8.109375 
L 35.5 8.109375 
Q 43.453125 8.109375 47.28125 11.40625 
Q 51.125 14.703125 51.125 21.484375 
Q 51.125 28.328125 47.28125 31.5625 
Q 43.453125 34.8125 35.5 34.8125 
z
M 19.671875 64.796875 
L 19.671875 42.828125 
L 34.28125 42.828125 
Q 41.5 42.828125 45.03125 45.53125 
Q 48.578125 48.25 48.578125 53.8125 
Q 48.578125 59.328125 45.03125 62.0625 
Q 41.5 64.796875 34.28125 64.796875 
z
M 9.8125 72.90625 
L 35.015625 72.90625 
Q 46.296875 72.90625 52.390625 68.21875 
Q 58.5 63.53125 58.5 54.890625 
Q 58.5 48.1875 55.375 44.234375 
Q 52.25 40.28125 46.1875 39.3125 
Q 53.46875 37.75 57.5 32.78125 
Q 61.53125 27.828125 61.53125 20.40625 
Q 61.53125 10.640625 54.890625 5.3125 
Q 48.25 0 35.984375 0 
L 9.8125 0 
z
" id="DejaVuSans-42"/>
       <path d="M 30.609375 48.390625 
Q 23.390625 48.390625 19.1875 42.75 
Q 14.984375 37.109375 14.984375 27.296875 
Q 14.984375 17.484375 19.15625 11.84375 
Q 23.34375 6.203125 30.609375 6.203125 
Q 37.796875 6.203125 41.984375 11.859375 
Q 46.1875 17.53125 46.1875 27.296875 
Q 46.1875 37.015625 41.984375 42.703125 
Q 37.796875 48.390625 30.609375 48.390625 
z
M 30.609375 56 
Q 42.328125 56 49.015625 48.375 
Q 55.71875 40.765625 55.71875 27.296875 
Q 55.71875 13.875 49.015625 6.21875 
Q 42.328125 -1.421875 30.609375 -1.421875 
Q 18.84375 -1.421875 12.171875 6.21875 
Q 5.515625 13.875 5.515625 27.296875 
Q 5.515625 40.765625 12.171875 48.375 
Q 18.84375 56 30.609375 56 
z
" id="DejaVuSans-6f"/>
       <path d="M 9.8125 72.90625 
L 51.703125 72.90625 
L 51.703125 64.59375 
L 19.671875 64.59375 
L 19.671875 43.109375 
L 48.578125 43.109375 
L 48.578125 34.8125 
L 19.671875 34.8125 
L 19.671875 0 
L 9.8125 0 
z
" id="DejaVuSans-46"/>
       <path d="M 34.28125 27.484375 
Q 23.390625 27.484375 19.1875 25 
Q 14.984375 22.515625 14.984375 16.5 
Q 14.984375 11.71875 18.140625 8.90625 
Q 21.296875 6.109375 26.703125 6.109375 
Q 34.1875 6.109375 38.703125 11.40625 
Q 43.21875 16.703125 43.21875 25.484375 
L 43.21875 27.484375 
z
M 52.203125 31.203125 
L 52.203125 0 
L 43.21875 0 
L 43.21875 8.296875 
Q 40.140625 3.328125 35.546875 0.953125 
Q 30.953125 -1.421875 24.3125 -1.421875 
Q 15.921875 -1.421875 10.953125 3.296875 
Q 6 8.015625 6 15.921875 
Q 6 25.140625 12.171875 29.828125 
Q 18.359375 34.515625 30.609375 34.515625 
L 43.21875 34.515625 
L 43.21875 35.40625 
Q 43.21875 41.609375 39.140625 45 
Q 35.0625 48.390625 27.6875 48.390625 
Q 23 48.390625 18.546875 47.265625 
Q 14.109375 46.140625 10.015625 43.890625 
L 10.015625 52.203125 
Q 14.9375 54.109375 19.578125 55.046875 
Q 24.21875 56 28.609375 56 
Q 40.484375 56 46.34375 49.84375 
Q 52.203125 43.703125 52.203125 31.203125 
z
" id="DejaVuSans-61"/>
       <path d="M 48.78125 52.59375 
L 48.78125 44.1875 
Q 44.96875 46.296875 41.140625 47.34375 
Q 37.3125 48.390625 33.40625 48.390625 
Q 24.65625 48.390625 19.8125 42.84375 
Q 14.984375 37.3125 14.984375 27.296875 
Q 14.984375 17.28125 19.8125 11.734375 
Q 24.65625 6.203125 33.40625 6.203125 
Q 37.3125 6.203125 41.140625 7.25 
Q 44.96875 8.296875 48.78125 10.40625 
L 48.78125 2.09375 
Q 45.015625 0.34375 40.984375 -0.53125 
Q 36.96875 -1.421875 32.421875 -1.421875 
Q 20.0625 -1.421875 12.78125 6.34375 
Q 5.515625 14.109375 5.515625 27.296875 
Q 5.515625 40.671875 12.859375 48.328125 
Q 20.21875 56 33.015625 56 
Q 37.15625 56 41.109375 55.140625 
Q 45.0625 54.296875 48.78125 52.59375 
z
" id="DejaVuSans-63"/>
       <path d="M 64.40625 67.28125 
L 64.40625 56.890625 
Q 59.421875 61.53125 53.78125 63.8125 
Q 48.140625 66.109375 41.796875 66.109375 
Q 29.296875 66.109375 22.65625 58.46875 
Q 16.015625 50.828125 16.015625 36.375 
Q 16.015625 21.96875 22.65625 14.328125 
Q 29.296875 6.6875 41.796875 6.6875 
Q 48.140625 6.6875 53.78125 8.984375 
Q 59.421875 11.28125 64.40625 15.921875 
L 64.40625 5.609375 
Q 59.234375 2.09375 53.4375 0.328125 
Q 47.65625 -1.421875 41.21875 -1.421875 
Q 24.65625 -1.421875 15.125 8.703125 
Q 5.609375 18.84375 5.609375 36.375 
Q 5.609375 53.953125 15.125 64.078125 
Q 24.65625 74.21875 41.21875 74.21875 
Q 47.75 74.21875 53.53125 72.484375 
Q 59.328125 70.75 64.40625 67.28125 
z
" id="DejaVuSans-43"/>
       <path d="M 52 44.1875 
Q 55.375 50.25 60.0625 53.125 
Q 64.75 56 71.09375 56 
Q 79.640625 56 84.28125 50.015625 
Q 88.921875 44.046875 88.921875 33.015625 
L 88.921875 0 
L 79.890625 0 
L 79.890625 32.71875 
Q 79.890625 40.578125 77.09375 44.375 
Q 74.3125 48.1875 68.609375 48.1875 
Q 61.625 48.1875 57.5625 43.546875 
Q 53.515625 38.921875 53.515625 30.90625 
L 53.515625 0 
L 44.484375 0 
L 44.484375 32.71875 
Q 44.484375 40.625 41.703125 44.40625 
Q 38.921875 48.1875 33.109375 48.1875 
Q 26.21875 48.1875 22.15625 43.53125 
Q 18.109375 38.875 18.109375 30.90625 
L 18.109375 0 
L 9.078125 0 
L 9.078125 54.6875 
L 18.109375 54.6875 
L 18.109375 46.1875 
Q 21.1875 51.21875 25.484375 53.609375 
Q 29.78125 56 35.6875 56 
Q 41.65625 56 45.828125 52.96875 
Q 50 49.953125 52 44.1875 
z
" id="DejaVuSans-6d"/>
       <path d="M 18.3125 70.21875 
L 18.3125 54.6875 
L 36.8125 54.6875 
L 36.8125 47.703125 
L 18.3125 47.703125 
L 18.3125 18.015625 
Q 18.3125 11.328125 20.140625 9.421875 
Q 21.96875 7.515625 27.59375 7.515625 
L 36.8125 7.515625 
L 36.8125 0 
L 27.59375 0 
Q 17.1875 0 13.234375 3.875 
Q 9.28125 7.765625 9.28125 18.015625 
L 9.28125 47.703125 
L 2.6875 47.703125 
L 2.6875 54.6875 
L 9.28125 54.6875 
L 9.28125 70.21875 
z
" id="DejaVuSans-74"/>
       <path d="M 56.203125 29.59375 
L 56.203125 25.203125 
L 14.890625 25.203125 
Q 15.484375 15.921875 20.484375 11.0625 
Q 25.484375 6.203125 34.421875 6.203125 
Q 39.59375 6.203125 44.453125 7.46875 
Q 49.3125 8.734375 54.109375 11.28125 
L 54.109375 2.78125 
Q 49.265625 0.734375 44.1875 -0.34375 
Q 39.109375 -1.421875 33.890625 -1.421875 
Q 20.796875 -1.421875 13.15625 6.1875 
Q 5.515625 13.8125 5.515625 26.8125 
Q 5.515625 40.234375 12.765625 48.109375 
Q 20.015625 56 32.328125 56 
Q 43.359375 56 49.78125 48.890625 
Q 56.203125 41.796875 56.203125 29.59375 
z
M 47.21875 32.234375 
Q 47.125 39.59375 43.09375 43.984375 
Q 39.0625 48.390625 32.421875 48.390625 
Q 24.90625 48.390625 20.390625 44.140625 
Q 15.875 39.890625 15.1875 32.171875 
z
M 38.53125 79.984375 
L 48.25 79.984375 
L 32.34375 61.625 
L 24.859375 61.625 
z
" id="DejaVuSans-e9"/>
      </defs>
      <g style="fill:#262626;" transform="translate(172.321028 339.454425)rotate(-90)scale(0.1 -0.1)">
       <use xlink:href="#DejaVuSans-42"/>
       <use x="68.603516" xlink:href="#DejaVuSans-6f"/>
       <use x="129.785156" xlink:href="#DejaVuSans-75"/>
       <use x="193.164062" xlink:href="#DejaVuSans-72"/>
       <use x="234.261719" xlink:href="#DejaVuSans-67"/>
       <use x="297.738281" xlink:href="#DejaVuSans-6f"/>
       <use x="358.919922" xlink:href="#DejaVuSans-67"/>
       <use x="422.396484" xlink:href="#DejaVuSans-6e"/>
       <use x="485.775391" xlink:href="#DejaVuSans-65"/>
       <use x="547.298828" xlink:href="#DejaVuSans-2d"/>
       <use x="583.382812" xlink:href="#DejaVuSans-46"/>
       <use x="640.792969" xlink:href="#DejaVuSans-72"/>
       <use x="681.90625" xlink:href="#DejaVuSans-61"/>
       <use x="743.185547" xlink:href="#DejaVuSans-6e"/>
       <use x="806.564453" xlink:href="#DejaVuSans-63"/>
       <use x="861.544922" xlink:href="#DejaVuSans-68"/>
       <use x="924.923828" xlink:href="#DejaVuSans-65"/>
       <use x="986.447266" xlink:href="#DejaVuSans-2d"/>
       <use x="1022.53125" xlink:href="#DejaVuSans-43"/>
       <use x="1092.355469" xlink:href="#DejaVuSans-6f"/>
       <use x="1153.537109" xlink:href="#DejaVuSans-6d"/>
       <use x="1250.949219" xlink:href="#DejaVuSans-74"/>
       <use x="1290.158203" xlink:href="#DejaVuSans-e9"/>
      </g>
     </g>
    </g>
    <g id="xtick_3">
     <g id="line2d_3"/>
     <g id="text_3">
      <!-- Bretagne -->
      <g style="fill:#262626;" transform="translate(185.66213 250.293487)rotate(-90)scale(0.1 -0.1)">
       <use xlink:href="#DejaVuSans-42"/>
       <use x="68.603516" xlink:href="#DejaVuSans-72"/>
       <use x="109.685547" xlink:href="#DejaVuSans-65"/>
       <use x="171.208984" xlink:href="#DejaVuSans-74"/>
       <use x="210.417969" xlink:href="#DejaVuSans-61"/>
       <use x="271.697266" xlink:href="#DejaVuSans-67"/>
       <use x="335.173828" xlink:href="#DejaVuSans-6e"/>
       <use x="398.552734" xlink:href="#DejaVuSans-65"/>
      </g>
     </g>
    </g>
    <g id="xtick_4">
     <g id="line2d_4"/>
     <g id="text_4">
      <!-- Centre-Val-de-Loire -->
      <defs>
       <path d="M 28.609375 0 
L 0.78125 72.90625 
L 11.078125 72.90625 
L 34.1875 11.53125 
L 57.328125 72.90625 
L 67.578125 72.90625 
L 39.796875 0 
z
" id="DejaVuSans-56"/>
       <path d="M 45.40625 46.390625 
L 45.40625 75.984375 
L 54.390625 75.984375 
L 54.390625 0 
L 45.40625 0 
L 45.40625 8.203125 
Q 42.578125 3.328125 38.25 0.953125 
Q 33.9375 -1.421875 27.875 -1.421875 
Q 17.96875 -1.421875 11.734375 6.484375 
Q 5.515625 14.40625 5.515625 27.296875 
Q 5.515625 40.1875 11.734375 48.09375 
Q 17.96875 56 27.875 56 
Q 33.9375 56 38.25 53.625 
Q 42.578125 51.265625 45.40625 46.390625 
z
M 14.796875 27.296875 
Q 14.796875 17.390625 18.875 11.75 
Q 22.953125 6.109375 30.078125 6.109375 
Q 37.203125 6.109375 41.296875 11.75 
Q 45.40625 17.390625 45.40625 27.296875 
Q 45.40625 37.203125 41.296875 42.84375 
Q 37.203125 48.484375 30.078125 48.484375 
Q 22.953125 48.484375 18.875 42.84375 
Q 14.796875 37.203125 14.796875 27.296875 
z
" id="DejaVuSans-64"/>
       <path d="M 9.8125 72.90625 
L 19.671875 72.90625 
L 19.671875 8.296875 
L 55.171875 8.296875 
L 55.171875 0 
L 9.8125 0 
z
" id="DejaVuSans-4c"/>
       <path d="M 9.421875 54.6875 
L 18.40625 54.6875 
L 18.40625 0 
L 9.421875 0 
z
M 9.421875 75.984375 
L 18.40625 75.984375 
L 18.40625 64.59375 
L 9.421875 64.59375 
z
" id="DejaVuSans-69"/>
      </defs>
      <g style="fill:#262626;" transform="translate(199.203232 301.72005)rotate(-90)scale(0.1 -0.1)">
       <use xlink:href="#DejaVuSans-43"/>
       <use x="69.824219" xlink:href="#DejaVuSans-65"/>
       <use x="131.347656" xlink:href="#DejaVuSans-6e"/>
       <use x="194.726562" xlink:href="#DejaVuSans-74"/>
       <use x="233.935547" xlink:href="#DejaVuSans-72"/>
       <use x="275.017578" xlink:href="#DejaVuSans-65"/>
       <use x="336.541016" xlink:href="#DejaVuSans-2d"/>
       <use x="372.546875" xlink:href="#DejaVuSans-56"/>
       <use x="440.845703" xlink:href="#DejaVuSans-61"/>
       <use x="502.125" xlink:href="#DejaVuSans-6c"/>
       <use x="529.908203" xlink:href="#DejaVuSans-2d"/>
       <use x="565.992188" xlink:href="#DejaVuSans-64"/>
       <use x="629.46875" xlink:href="#DejaVuSans-65"/>
       <use x="690.992188" xlink:href="#DejaVuSans-2d"/>
       <use x="727.076172" xlink:href="#DejaVuSans-4c"/>
       <use x="782.773438" xlink:href="#DejaVuSans-6f"/>
       <use x="843.955078" xlink:href="#DejaVuSans-69"/>
       <use x="871.738281" xlink:href="#DejaVuSans-72"/>
       <use x="912.820312" xlink:href="#DejaVuSans-65"/>
      </g>
     </g>
    </g>
    <g id="xtick_5">
     <g id="line2d_5"/>
     <g id="text_5">
      <!-- Grand-Est -->
      <defs>
       <path d="M 59.515625 10.40625 
L 59.515625 29.984375 
L 43.40625 29.984375 
L 43.40625 38.09375 
L 69.28125 38.09375 
L 69.28125 6.78125 
Q 63.578125 2.734375 56.6875 0.65625 
Q 49.8125 -1.421875 42 -1.421875 
Q 24.90625 -1.421875 15.25 8.5625 
Q 5.609375 18.5625 5.609375 36.375 
Q 5.609375 54.25 15.25 64.234375 
Q 24.90625 74.21875 42 74.21875 
Q 49.125 74.21875 55.546875 72.453125 
Q 61.96875 70.703125 67.390625 67.28125 
L 67.390625 56.78125 
Q 61.921875 61.421875 55.765625 63.765625 
Q 49.609375 66.109375 42.828125 66.109375 
Q 29.4375 66.109375 22.71875 58.640625 
Q 16.015625 51.171875 16.015625 36.375 
Q 16.015625 21.625 22.71875 14.15625 
Q 29.4375 6.6875 42.828125 6.6875 
Q 48.046875 6.6875 52.140625 7.59375 
Q 56.25 8.5 59.515625 10.40625 
z
" id="DejaVuSans-47"/>
       <path d="M 9.8125 72.90625 
L 55.90625 72.90625 
L 55.90625 64.59375 
L 19.671875 64.59375 
L 19.671875 43.015625 
L 54.390625 43.015625 
L 54.390625 34.71875 
L 19.671875 34.71875 
L 19.671875 8.296875 
L 56.78125 8.296875 
L 56.78125 0 
L 9.8125 0 
z
" id="DejaVuSans-45"/>
      </defs>
      <g style="fill:#262626;" transform="translate(212.744334 254.0138)rotate(-90)scale(0.1 -0.1)">
       <use xlink:href="#DejaVuSans-47"/>
       <use x="77.490234" xlink:href="#DejaVuSans-72"/>
       <use x="118.603516" xlink:href="#DejaVuSans-61"/>
       <use x="179.882812" xlink:href="#DejaVuSans-6e"/>
       <use x="243.261719" xlink:href="#DejaVuSans-64"/>
       <use x="306.738281" xlink:href="#DejaVuSans-2d"/>
       <use x="342.822266" xlink:href="#DejaVuSans-45"/>
       <use x="406.005859" xlink:href="#DejaVuSans-73"/>
       <use x="458.105469" xlink:href="#DejaVuSans-74"/>
      </g>
     </g>
    </g>
    <g id="xtick_6">
     <g id="line2d_6"/>
     <g id="text_6">
      <!-- Hauts-de-France -->
      <defs>
       <path d="M 9.8125 72.90625 
L 19.671875 72.90625 
L 19.671875 43.015625 
L 55.515625 43.015625 
L 55.515625 72.90625 
L 65.375 72.90625 
L 65.375 0 
L 55.515625 0 
L 55.515625 34.71875 
L 19.671875 34.71875 
L 19.671875 0 
L 9.8125 0 
z
" id="DejaVuSans-48"/>
      </defs>
      <g style="fill:#262626;" transform="translate(226.285436 287.085675)rotate(-90)scale(0.1 -0.1)">
       <use xlink:href="#DejaVuSans-48"/>
       <use x="75.195312" xlink:href="#DejaVuSans-61"/>
       <use x="136.474609" xlink:href="#DejaVuSans-75"/>
       <use x="199.853516" xlink:href="#DejaVuSans-74"/>
       <use x="239.0625" xlink:href="#DejaVuSans-73"/>
       <use x="291.162109" xlink:href="#DejaVuSans-2d"/>
       <use x="327.246094" xlink:href="#DejaVuSans-64"/>
       <use x="390.722656" xlink:href="#DejaVuSans-65"/>
       <use x="452.246094" xlink:href="#DejaVuSans-2d"/>
       <use x="488.330078" xlink:href="#DejaVuSans-46"/>
       <use x="545.740234" xlink:href="#DejaVuSans-72"/>
       <use x="586.853516" xlink:href="#DejaVuSans-61"/>
       <use x="648.132812" xlink:href="#DejaVuSans-6e"/>
       <use x="711.511719" xlink:href="#DejaVuSans-63"/>
       <use x="766.492188" xlink:href="#DejaVuSans-65"/>
      </g>
     </g>
    </g>
    <g id="xtick_7">
     <g id="line2d_7"/>
     <g id="text_7">
      <!-- Ile-de-France -->
      <defs>
       <path d="M 9.8125 72.90625 
L 19.671875 72.90625 
L 19.671875 0 
L 9.8125 0 
z
" id="DejaVuSans-49"/>
      </defs>
      <g style="fill:#262626;" transform="translate(239.826539 269.8513)rotate(-90)scale(0.1 -0.1)">
       <use xlink:href="#DejaVuSans-49"/>
       <use x="29.492188" xlink:href="#DejaVuSans-6c"/>
       <use x="57.275391" xlink:href="#DejaVuSans-65"/>
       <use x="118.798828" xlink:href="#DejaVuSans-2d"/>
       <use x="154.882812" xlink:href="#DejaVuSans-64"/>
       <use x="218.359375" xlink:href="#DejaVuSans-65"/>
       <use x="279.882812" xlink:href="#DejaVuSans-2d"/>
       <use x="315.966797" xlink:href="#DejaVuSans-46"/>
       <use x="373.376953" xlink:href="#DejaVuSans-72"/>
       <use x="414.490234" xlink:href="#DejaVuSans-61"/>
       <use x="475.769531" xlink:href="#DejaVuSans-6e"/>
       <use x="539.148438" xlink:href="#DejaVuSans-63"/>
       <use x="594.128906" xlink:href="#DejaVuSans-65"/>
      </g>
     </g>
    </g>
    <g id="xtick_8">
     <g id="line2d_8"/>
     <g id="text_8">
      <!-- Normandie -->
      <defs>
       <path d="M 9.8125 72.90625 
L 23.09375 72.90625 
L 55.421875 11.921875 
L 55.421875 72.90625 
L 64.984375 72.90625 
L 64.984375 0 
L 51.703125 0 
L 19.390625 60.984375 
L 19.390625 0 
L 9.8125 0 
z
" id="DejaVuSans-4e"/>
      </defs>
      <g style="fill:#262626;" transform="translate(253.367641 259.479425)rotate(-90)scale(0.1 -0.1)">
       <use xlink:href="#DejaVuSans-4e"/>
       <use x="74.804688" xlink:href="#DejaVuSans-6f"/>
       <use x="135.986328" xlink:href="#DejaVuSans-72"/>
       <use x="177.083984" xlink:href="#DejaVuSans-6d"/>
       <use x="274.496094" xlink:href="#DejaVuSans-61"/>
       <use x="335.775391" xlink:href="#DejaVuSans-6e"/>
       <use x="399.154297" xlink:href="#DejaVuSans-64"/>
       <use x="462.630859" xlink:href="#DejaVuSans-69"/>
       <use x="490.414062" xlink:href="#DejaVuSans-65"/>
      </g>
     </g>
    </g>
    <g id="xtick_9">
     <g id="line2d_9"/>
     <g id="text_9">
      <!-- Nouvelle-Aquitaine -->
      <defs>
       <path d="M 14.796875 27.296875 
Q 14.796875 17.390625 18.875 11.75 
Q 22.953125 6.109375 30.078125 6.109375 
Q 37.203125 6.109375 41.296875 11.75 
Q 45.40625 17.390625 45.40625 27.296875 
Q 45.40625 37.203125 41.296875 42.84375 
Q 37.203125 48.484375 30.078125 48.484375 
Q 22.953125 48.484375 18.875 42.84375 
Q 14.796875 37.203125 14.796875 27.296875 
z
M 45.40625 8.203125 
Q 42.578125 3.328125 38.25 0.953125 
Q 33.9375 -1.421875 27.875 -1.421875 
Q 17.96875 -1.421875 11.734375 6.484375 
Q 5.515625 14.40625 5.515625 27.296875 
Q 5.515625 40.1875 11.734375 48.09375 
Q 17.96875 56 27.875 56 
Q 33.9375 56 38.25 53.625 
Q 42.578125 51.265625 45.40625 46.390625 
L 45.40625 54.6875 
L 54.390625 54.6875 
L 54.390625 -20.796875 
L 45.40625 -20.796875 
z
" id="DejaVuSans-71"/>
      </defs>
      <g style="fill:#262626;" transform="translate(266.908743 299.227863)rotate(-90)scale(0.1 -0.1)">
       <use xlink:href="#DejaVuSans-4e"/>
       <use x="74.804688" xlink:href="#DejaVuSans-6f"/>
       <use x="135.986328" xlink:href="#DejaVuSans-75"/>
       <use x="199.365234" xlink:href="#DejaVuSans-76"/>
       <use x="258.544922" xlink:href="#DejaVuSans-65"/>
       <use x="320.068359" xlink:href="#DejaVuSans-6c"/>
       <use x="347.851562" xlink:href="#DejaVuSans-6c"/>
       <use x="375.634766" xlink:href="#DejaVuSans-65"/>
       <use x="437.158203" xlink:href="#DejaVuSans-2d"/>
       <use x="473.210938" xlink:href="#DejaVuSans-41"/>
       <use x="541.603516" xlink:href="#DejaVuSans-71"/>
       <use x="605.080078" xlink:href="#DejaVuSans-75"/>
       <use x="668.458984" xlink:href="#DejaVuSans-69"/>
       <use x="696.242188" xlink:href="#DejaVuSans-74"/>
       <use x="735.451172" xlink:href="#DejaVuSans-61"/>
       <use x="796.730469" xlink:href="#DejaVuSans-69"/>
       <use x="824.513672" xlink:href="#DejaVuSans-6e"/>
       <use x="887.892578" xlink:href="#DejaVuSans-65"/>
      </g>
     </g>
    </g>
    <g id="xtick_10">
     <g id="line2d_10"/>
     <g id="text_10">
      <!-- Occitanie -->
      <defs>
       <path d="M 39.40625 66.21875 
Q 28.65625 66.21875 22.328125 58.203125 
Q 16.015625 50.203125 16.015625 36.375 
Q 16.015625 22.609375 22.328125 14.59375 
Q 28.65625 6.59375 39.40625 6.59375 
Q 50.140625 6.59375 56.421875 14.59375 
Q 62.703125 22.609375 62.703125 36.375 
Q 62.703125 50.203125 56.421875 58.203125 
Q 50.140625 66.21875 39.40625 66.21875 
z
M 39.40625 74.21875 
Q 54.734375 74.21875 63.90625 63.9375 
Q 73.09375 53.65625 73.09375 36.375 
Q 73.09375 19.140625 63.90625 8.859375 
Q 54.734375 -1.421875 39.40625 -1.421875 
Q 24.03125 -1.421875 14.8125 8.828125 
Q 5.609375 19.09375 5.609375 36.375 
Q 5.609375 53.65625 14.8125 63.9375 
Q 24.03125 74.21875 39.40625 74.21875 
z
" id="DejaVuSans-4f"/>
      </defs>
      <g style="fill:#262626;" transform="translate(280.449845 251.248175)rotate(-90)scale(0.1 -0.1)">
       <use xlink:href="#DejaVuSans-4f"/>
       <use x="78.710938" xlink:href="#DejaVuSans-63"/>
       <use x="133.691406" xlink:href="#DejaVuSans-63"/>
       <use x="188.671875" xlink:href="#DejaVuSans-69"/>
       <use x="216.455078" xlink:href="#DejaVuSans-74"/>
       <use x="255.664062" xlink:href="#DejaVuSans-61"/>
       <use x="316.943359" xlink:href="#DejaVuSans-6e"/>
       <use x="380.322266" xlink:href="#DejaVuSans-69"/>
       <use x="408.105469" xlink:href="#DejaVuSans-65"/>
      </g>
     </g>
    </g>
    <g id="xtick_11">
     <g id="line2d_11"/>
     <g id="text_11">
      <!-- PACA -->
      <defs>
       <path d="M 19.671875 64.796875 
L 19.671875 37.40625 
L 32.078125 37.40625 
Q 38.96875 37.40625 42.71875 40.96875 
Q 46.484375 44.53125 46.484375 51.125 
Q 46.484375 57.671875 42.71875 61.234375 
Q 38.96875 64.796875 32.078125 64.796875 
z
M 9.8125 72.90625 
L 32.078125 72.90625 
Q 44.34375 72.90625 50.609375 67.359375 
Q 56.890625 61.8125 56.890625 51.125 
Q 56.890625 40.328125 50.609375 34.8125 
Q 44.34375 29.296875 32.078125 29.296875 
L 19.671875 29.296875 
L 19.671875 0 
L 9.8125 0 
z
" id="DejaVuSans-50"/>
      </defs>
      <g style="fill:#262626;" transform="translate(293.990947 230.966925)rotate(-90)scale(0.1 -0.1)">
       <use xlink:href="#DejaVuSans-50"/>
       <use x="60.208984" xlink:href="#DejaVuSans-41"/>
       <use x="128.601562" xlink:href="#DejaVuSans-43"/>
       <use x="198.425781" xlink:href="#DejaVuSans-41"/>
      </g>
     </g>
    </g>
   </g>
   <g id="matplotlib.axis_2">
    <g id="ytick_1">
     <g id="line2d_12"/>
     <g id="text_12">
      <!-- Bourgogne-Franche-Comté -->
      <g style="fill:#262626;" transform="translate(10.379688 62.601759)scale(0.1 -0.1)">
       <use xlink:href="#DejaVuSans-42"/>
       <use x="68.603516" xlink:href="#DejaVuSans-6f"/>
       <use x="129.785156" xlink:href="#DejaVuSans-75"/>
       <use x="193.164062" xlink:href="#DejaVuSans-72"/>
       <use x="234.261719" xlink:href="#DejaVuSans-67"/>
       <use x="297.738281" xlink:href="#DejaVuSans-6f"/>
       <use x="358.919922" xlink:href="#DejaVuSans-67"/>
       <use x="422.396484" xlink:href="#DejaVuSans-6e"/>
       <use x="485.775391" xlink:href="#DejaVuSans-65"/>
       <use x="547.298828" xlink:href="#DejaVuSans-2d"/>
       <use x="583.382812" xlink:href="#DejaVuSans-46"/>
       <use x="640.792969" xlink:href="#DejaVuSans-72"/>
       <use x="681.90625" xlink:href="#DejaVuSans-61"/>
       <use x="743.185547" xlink:href="#DejaVuSans-6e"/>
       <use x="806.564453" xlink:href="#DejaVuSans-63"/>
       <use x="861.544922" xlink:href="#DejaVuSans-68"/>
       <use x="924.923828" xlink:href="#DejaVuSans-65"/>
       <use x="986.447266" xlink:href="#DejaVuSans-2d"/>
       <use x="1022.53125" xlink:href="#DejaVuSans-43"/>
       <use x="1092.355469" xlink:href="#DejaVuSans-6f"/>
       <use x="1153.537109" xlink:href="#DejaVuSans-6d"/>
       <use x="1250.949219" xlink:href="#DejaVuSans-74"/>
       <use x="1290.158203" xlink:href="#DejaVuSans-e9"/>
      </g>
     </g>
    </g>
    <g id="ytick_2">
     <g id="line2d_13"/>
     <g id="text_13">
      <!-- Bretagne -->
      <g style="fill:#262626;" transform="translate(99.540625 75.942861)scale(0.1 -0.1)">
       <use xlink:href="#DejaVuSans-42"/>
       <use x="68.603516" xlink:href="#DejaVuSans-72"/>
       <use x="109.685547" xlink:href="#DejaVuSans-65"/>
       <use x="171.208984" xlink:href="#DejaVuSans-74"/>
       <use x="210.417969" xlink:href="#DejaVuSans-61"/>
       <use x="271.697266" xlink:href="#DejaVuSans-67"/>
       <use x="335.173828" xlink:href="#DejaVuSans-6e"/>
       <use x="398.552734" xlink:href="#DejaVuSans-65"/>
      </g>
     </g>
    </g>
    <g id="ytick_3">
     <g id="line2d_14"/>
     <g id="text_14">
      <!-- Centre-Val-de-Loire -->
      <g style="fill:#262626;" transform="translate(48.114063 89.483964)scale(0.1 -0.1)">
       <use xlink:href="#DejaVuSans-43"/>
       <use x="69.824219" xlink:href="#DejaVuSans-65"/>
       <use x="131.347656" xlink:href="#DejaVuSans-6e"/>
       <use x="194.726562" xlink:href="#DejaVuSans-74"/>
       <use x="233.935547" xlink:href="#DejaVuSans-72"/>
       <use x="275.017578" xlink:href="#DejaVuSans-65"/>
       <use x="336.541016" xlink:href="#DejaVuSans-2d"/>
       <use x="372.546875" xlink:href="#DejaVuSans-56"/>
       <use x="440.845703" xlink:href="#DejaVuSans-61"/>
       <use x="502.125" xlink:href="#DejaVuSans-6c"/>
       <use x="529.908203" xlink:href="#DejaVuSans-2d"/>
       <use x="565.992188" xlink:href="#DejaVuSans-64"/>
       <use x="629.46875" xlink:href="#DejaVuSans-65"/>
       <use x="690.992188" xlink:href="#DejaVuSans-2d"/>
       <use x="727.076172" xlink:href="#DejaVuSans-4c"/>
       <use x="782.773438" xlink:href="#DejaVuSans-6f"/>
       <use x="843.955078" xlink:href="#DejaVuSans-69"/>
       <use x="871.738281" xlink:href="#DejaVuSans-72"/>
       <use x="912.820312" xlink:href="#DejaVuSans-65"/>
      </g>
     </g>
    </g>
    <g id="ytick_4">
     <g id="line2d_15"/>
     <g id="text_15">
      <!-- Grand-Est -->
      <g style="fill:#262626;" transform="translate(95.820312 103.025066)scale(0.1 -0.1)">
       <use xlink:href="#DejaVuSans-47"/>
       <use x="77.490234" xlink:href="#DejaVuSans-72"/>
       <use x="118.603516" xlink:href="#DejaVuSans-61"/>
       <use x="179.882812" xlink:href="#DejaVuSans-6e"/>
       <use x="243.261719" xlink:href="#DejaVuSans-64"/>
       <use x="306.738281" xlink:href="#DejaVuSans-2d"/>
       <use x="342.822266" xlink:href="#DejaVuSans-45"/>
       <use x="406.005859" xlink:href="#DejaVuSans-73"/>
       <use x="458.105469" xlink:href="#DejaVuSans-74"/>
      </g>
     </g>
    </g>
    <g id="ytick_5">
     <g id="line2d_16"/>
     <g id="text_16">
      <!-- Hauts-de-France -->
      <g style="fill:#262626;" transform="translate(62.748438 116.566168)scale(0.1 -0.1)">
       <use xlink:href="#DejaVuSans-48"/>
       <use x="75.195312" xlink:href="#DejaVuSans-61"/>
       <use x="136.474609" xlink:href="#DejaVuSans-75"/>
       <use x="199.853516" xlink:href="#DejaVuSans-74"/>
       <use x="239.0625" xlink:href="#DejaVuSans-73"/>
       <use x="291.162109" xlink:href="#DejaVuSans-2d"/>
       <use x="327.246094" xlink:href="#DejaVuSans-64"/>
       <use x="390.722656" xlink:href="#DejaVuSans-65"/>
       <use x="452.246094" xlink:href="#DejaVuSans-2d"/>
       <use x="488.330078" xlink:href="#DejaVuSans-46"/>
       <use x="545.740234" xlink:href="#DejaVuSans-72"/>
       <use x="586.853516" xlink:href="#DejaVuSans-61"/>
       <use x="648.132812" xlink:href="#DejaVuSans-6e"/>
       <use x="711.511719" xlink:href="#DejaVuSans-63"/>
       <use x="766.492188" xlink:href="#DejaVuSans-65"/>
      </g>
     </g>
    </g>
    <g id="ytick_6">
     <g id="line2d_17"/>
     <g id="text_17">
      <!-- Ile-de-France -->
      <g style="fill:#262626;" transform="translate(79.982813 130.10727)scale(0.1 -0.1)">
       <use xlink:href="#DejaVuSans-49"/>
       <use x="29.492188" xlink:href="#DejaVuSans-6c"/>
       <use x="57.275391" xlink:href="#DejaVuSans-65"/>
       <use x="118.798828" xlink:href="#DejaVuSans-2d"/>
       <use x="154.882812" xlink:href="#DejaVuSans-64"/>
       <use x="218.359375" xlink:href="#DejaVuSans-65"/>
       <use x="279.882812" xlink:href="#DejaVuSans-2d"/>
       <use x="315.966797" xlink:href="#DejaVuSans-46"/>
       <use x="373.376953" xlink:href="#DejaVuSans-72"/>
       <use x="414.490234" xlink:href="#DejaVuSans-61"/>
       <use x="475.769531" xlink:href="#DejaVuSans-6e"/>
       <use x="539.148438" xlink:href="#DejaVuSans-63"/>
       <use x="594.128906" xlink:href="#DejaVuSans-65"/>
      </g>
     </g>
    </g>
    <g id="ytick_7">
     <g id="line2d_18"/>
     <g id="text_18">
      <!-- Normandie -->
      <g style="fill:#262626;" transform="translate(90.354688 143.648372)scale(0.1 -0.1)">
       <use xlink:href="#DejaVuSans-4e"/>
       <use x="74.804688" xlink:href="#DejaVuSans-6f"/>
       <use x="135.986328" xlink:href="#DejaVuSans-72"/>
       <use x="177.083984" xlink:href="#DejaVuSans-6d"/>
       <use x="274.496094" xlink:href="#DejaVuSans-61"/>
       <use x="335.775391" xlink:href="#DejaVuSans-6e"/>
       <use x="399.154297" xlink:href="#DejaVuSans-64"/>
       <use x="462.630859" xlink:href="#DejaVuSans-69"/>
       <use x="490.414062" xlink:href="#DejaVuSans-65"/>
      </g>
     </g>
    </g>
    <g id="ytick_8">
     <g id="line2d_19"/>
     <g id="text_19">
      <!-- Nouvelle-Aquitaine -->
      <g style="fill:#262626;" transform="translate(50.60625 157.189474)scale(0.1 -0.1)">
       <use xlink:href="#DejaVuSans-4e"/>
       <use x="74.804688" xlink:href="#DejaVuSans-6f"/>
       <use x="135.986328" xlink:href="#DejaVuSans-75"/>
       <use x="199.365234" xlink:href="#DejaVuSans-76"/>
       <use x="258.544922" xlink:href="#DejaVuSans-65"/>
       <use x="320.068359" xlink:href="#DejaVuSans-6c"/>
       <use x="347.851562" xlink:href="#DejaVuSans-6c"/>
       <use x="375.634766" xlink:href="#DejaVuSans-65"/>
       <use x="437.158203" xlink:href="#DejaVuSans-2d"/>
       <use x="473.210938" xlink:href="#DejaVuSans-41"/>
       <use x="541.603516" xlink:href="#DejaVuSans-71"/>
       <use x="605.080078" xlink:href="#DejaVuSans-75"/>
       <use x="668.458984" xlink:href="#DejaVuSans-69"/>
       <use x="696.242188" xlink:href="#DejaVuSans-74"/>
       <use x="735.451172" xlink:href="#DejaVuSans-61"/>
       <use x="796.730469" xlink:href="#DejaVuSans-69"/>
       <use x="824.513672" xlink:href="#DejaVuSans-6e"/>
       <use x="887.892578" xlink:href="#DejaVuSans-65"/>
      </g>
     </g>
    </g>
    <g id="ytick_9">
     <g id="line2d_20"/>
     <g id="text_20">
      <!-- Occitanie -->
      <g style="fill:#262626;" transform="translate(98.585938 170.730576)scale(0.1 -0.1)">
       <use xlink:href="#DejaVuSans-4f"/>
       <use x="78.710938" xlink:href="#DejaVuSans-63"/>
       <use x="133.691406" xlink:href="#DejaVuSans-63"/>
       <use x="188.671875" xlink:href="#DejaVuSans-69"/>
       <use x="216.455078" xlink:href="#DejaVuSans-74"/>
       <use x="255.664062" xlink:href="#DejaVuSans-61"/>
       <use x="316.943359" xlink:href="#DejaVuSans-6e"/>
       <use x="380.322266" xlink:href="#DejaVuSans-69"/>
       <use x="408.105469" xlink:href="#DejaVuSans-65"/>
      </g>
     </g>
    </g>
    <g id="ytick_10">
     <g id="line2d_21"/>
     <g id="text_21">
      <!-- PACA -->
      <g style="fill:#262626;" transform="translate(118.867188 184.271678)scale(0.1 -0.1)">
       <use xlink:href="#DejaVuSans-50"/>
       <use x="60.208984" xlink:href="#DejaVuSans-41"/>
       <use x="128.601562" xlink:href="#DejaVuSans-43"/>
       <use x="198.425781" xlink:href="#DejaVuSans-41"/>
      </g>
     </g>
    </g>
    <g id="ytick_11">
     <g id="line2d_22"/>
     <g id="text_22">
      <!-- Pays-de-la-Loire -->
      <defs>
       <path d="M 32.171875 -5.078125 
Q 28.375 -14.84375 24.75 -17.8125 
Q 21.140625 -20.796875 15.09375 -20.796875 
L 7.90625 -20.796875 
L 7.90625 -13.28125 
L 13.1875 -13.28125 
Q 16.890625 -13.28125 18.9375 -11.515625 
Q 21 -9.765625 23.484375 -3.21875 
L 25.09375 0.875 
L 2.984375 54.6875 
L 12.5 54.6875 
L 29.59375 11.921875 
L 46.6875 54.6875 
L 56.203125 54.6875 
z
" id="DejaVuSans-79"/>
      </defs>
      <g style="fill:#262626;" transform="translate(65.310938 197.81278)scale(0.1 -0.1)">
       <use xlink:href="#DejaVuSans-50"/>
       <use x="60.240234" xlink:href="#DejaVuSans-61"/>
       <use x="121.519531" xlink:href="#DejaVuSans-79"/>
       <use x="180.699219" xlink:href="#DejaVuSans-73"/>
       <use x="232.798828" xlink:href="#DejaVuSans-2d"/>
       <use x="268.882812" xlink:href="#DejaVuSans-64"/>
       <use x="332.359375" xlink:href="#DejaVuSans-65"/>
       <use x="393.882812" xlink:href="#DejaVuSans-2d"/>
       <use x="429.966797" xlink:href="#DejaVuSans-6c"/>
       <use x="457.75" xlink:href="#DejaVuSans-61"/>
       <use x="519.029297" xlink:href="#DejaVuSans-2d"/>
       <use x="555.113281" xlink:href="#DejaVuSans-4c"/>
       <use x="610.810547" xlink:href="#DejaVuSans-6f"/>
       <use x="671.992188" xlink:href="#DejaVuSans-69"/>
       <use x="699.775391" xlink:href="#DejaVuSans-72"/>
       <use x="740.857422" xlink:href="#DejaVuSans-65"/>
      </g>
     </g>
    </g>
   </g>
   <g id="QuadMesh_1">
    <path clip-path="url(#pe3018973fc)" d="M 149.05 38.290887 
L 162.591102 38.290887 
L 162.591102 51.83199 
L 149.05 51.83199 
L 149.05 38.290887 
" style="fill:none;"/>
    <path clip-path="url(#pe3018973fc)" d="M 162.591102 38.290887 
L 176.132204 38.290887 
L 176.132204 51.83199 
L 162.591102 51.83199 
L 162.591102 38.290887 
" style="fill:none;"/>
    <path clip-path="url(#pe3018973fc)" d="M 176.132204 38.290887 
L 189.673306 38.290887 
L 189.673306 51.83199 
L 176.132204 51.83199 
L 176.132204 38.290887 
" style="fill:none;"/>
    <path clip-path="url(#pe3018973fc)" d="M 189.673306 38.290887 
L 203.214408 38.290887 
L 203.214408 51.83199 
L 189.673306 51.83199 
L 189.673306 38.290887 
" style="fill:none;"/>
    <path clip-path="url(#pe3018973fc)" d="M 203.214408 38.290887 
L 216.75551 38.290887 
L 216.75551 51.83199 
L 203.214408 51.83199 
L 203.214408 38.290887 
" style="fill:none;"/>
    <path clip-path="url(#pe3018973fc)" d="M 216.75551 38.290887 
L 230.296613 38.290887 
L 230.296613 51.83199 
L 216.75551 51.83199 
L 216.75551 38.290887 
" style="fill:none;"/>
    <path clip-path="url(#pe3018973fc)" d="M 230.296613 38.290887 
L 243.837715 38.290887 
L 243.837715 51.83199 
L 230.296613 51.83199 
L 230.296613 38.290887 
" style="fill:none;"/>
    <path clip-path="url(#pe3018973fc)" d="M 243.837715 38.290887 
L 257.378817 38.290887 
L 257.378817 51.83199 
L 243.837715 51.83199 
L 243.837715 38.290887 
" style="fill:none;"/>
    <path clip-path="url(#pe3018973fc)" d="M 257.378817 38.290887 
L 270.919919 38.290887 
L 270.919919 51.83199 
L 257.378817 51.83199 
L 257.378817 38.290887 
" style="fill:none;"/>
    <path clip-path="url(#pe3018973fc)" d="M 270.919919 38.290887 
L 284.461021 38.290887 
L 284.461021 51.83199 
L 270.919919 51.83199 
L 270.919919 38.290887 
" style="fill:none;"/>
    <path clip-path="url(#pe3018973fc)" d="M 284.461021 38.290887 
L 298.002123 38.290887 
L 298.002123 51.83199 
L 284.461021 51.83199 
L 284.461021 38.290887 
" style="fill:none;"/>
    <path clip-path="url(#pe3018973fc)" d="M 298.002123 38.290887 
L 311.543225 38.290887 
L 311.543225 51.83199 
L 298.002123 51.83199 
L 298.002123 38.290887 
" style="fill:none;"/>
    <path clip-path="url(#pe3018973fc)" d="M 149.05 51.83199 
L 162.591102 51.83199 
L 162.591102 65.373092 
L 149.05 65.373092 
L 149.05 51.83199 
" style="fill:#2b7bba;"/>
    <path clip-path="url(#pe3018973fc)" d="M 162.591102 51.83199 
L 176.132204 51.83199 
L 176.132204 65.373092 
L 162.591102 65.373092 
L 162.591102 51.83199 
" style="fill:none;"/>
    <path clip-path="url(#pe3018973fc)" d="M 176.132204 51.83199 
L 189.673306 51.83199 
L 189.673306 65.373092 
L 176.132204 65.373092 
L 176.132204 51.83199 
" style="fill:none;"/>
    <path clip-path="url(#pe3018973fc)" d="M 189.673306 51.83199 
L 203.214408 51.83199 
L 203.214408 65.373092 
L 189.673306 65.373092 
L 189.673306 51.83199 
" style="fill:none;"/>
    <path clip-path="url(#pe3018973fc)" d="M 203.214408 51.83199 
L 216.75551 51.83199 
L 216.75551 65.373092 
L 203.214408 65.373092 
L 203.214408 51.83199 
" style="fill:none;"/>
    <path clip-path="url(#pe3018973fc)" d="M 216.75551 51.83199 
L 230.296613 51.83199 
L 230.296613 65.373092 
L 216.75551 65.373092 
L 216.75551 51.83199 
" style="fill:none;"/>
    <path clip-path="url(#pe3018973fc)" d="M 230.296613 51.83199 
L 243.837715 51.83199 
L 243.837715 65.373092 
L 230.296613 65.373092 
L 230.296613 51.83199 
" style="fill:none;"/>
    <path clip-path="url(#pe3018973fc)" d="M 243.837715 51.83199 
L 257.378817 51.83199 
L 257.378817 65.373092 
L 243.837715 65.373092 
L 243.837715 51.83199 
" style="fill:none;"/>
    <path clip-path="url(#pe3018973fc)" d="M 257.378817 51.83199 
L 270.919919 51.83199 
L 270.919919 65.373092 
L 257.378817 65.373092 
L 257.378817 51.83199 
" style="fill:none;"/>
    <path clip-path="url(#pe3018973fc)" d="M 270.919919 51.83199 
L 284.461021 51.83199 
L 284.461021 65.373092 
L 270.919919 65.373092 
L 270.919919 51.83199 
" style="fill:none;"/>
    <path clip-path="url(#pe3018973fc)" d="M 284.461021 51.83199 
L 298.002123 51.83199 
L 298.002123 65.373092 
L 284.461021 65.373092 
L 284.461021 51.83199 
" style="fill:none;"/>
    <path clip-path="url(#pe3018973fc)" d="M 298.002123 51.83199 
L 311.543225 51.83199 
L 311.543225 65.373092 
L 298.002123 65.373092 
L 298.002123 51.83199 
" style="fill:none;"/>
    <path clip-path="url(#pe3018973fc)" d="M 149.05 65.373092 
L 162.591102 65.373092 
L 162.591102 78.914194 
L 149.05 78.914194 
L 149.05 65.373092 
" style="fill:#539ecd;"/>
    <path clip-path="url(#pe3018973fc)" d="M 162.591102 65.373092 
L 176.132204 65.373092 
L 176.132204 78.914194 
L 162.591102 78.914194 
L 162.591102 65.373092 
" style="fill:#89bedc;"/>
    <path clip-path="url(#pe3018973fc)" d="M 176.132204 65.373092 
L 189.673306 65.373092 
L 189.673306 78.914194 
L 176.132204 78.914194 
L 176.132204 65.373092 
" style="fill:none;"/>
    <path clip-path="url(#pe3018973fc)" d="M 189.673306 65.373092 
L 203.214408 65.373092 
L 203.214408 78.914194 
L 189.673306 78.914194 
L 189.673306 65.373092 
" style="fill:none;"/>
    <path clip-path="url(#pe3018973fc)" d="M 203.214408 65.373092 
L 216.75551 65.373092 
L 216.75551 78.914194 
L 203.214408 78.914194 
L 203.214408 65.373092 
" style="fill:none;"/>
    <path clip-path="url(#pe3018973fc)" d="M 216.75551 65.373092 
L 230.296613 65.373092 
L 230.296613 78.914194 
L 216.75551 78.914194 
L 216.75551 65.373092 
" style="fill:none;"/>
    <path clip-path="url(#pe3018973fc)" d="M 230.296613 65.373092 
L 243.837715 65.373092 
L 243.837715 78.914194 
L 230.296613 78.914194 
L 230.296613 65.373092 
" style="fill:none;"/>
    <path clip-path="url(#pe3018973fc)" d="M 243.837715 65.373092 
L 257.378817 65.373092 
L 257.378817 78.914194 
L 243.837715 78.914194 
L 243.837715 65.373092 
" style="fill:none;"/>
    <path clip-path="url(#pe3018973fc)" d="M 257.378817 65.373092 
L 270.919919 65.373092 
L 270.919919 78.914194 
L 257.378817 78.914194 
L 257.378817 65.373092 
" style="fill:none;"/>
    <path clip-path="url(#pe3018973fc)" d="M 270.919919 65.373092 
L 284.461021 65.373092 
L 284.461021 78.914194 
L 270.919919 78.914194 
L 270.919919 65.373092 
" style="fill:none;"/>
    <path clip-path="url(#pe3018973fc)" d="M 284.461021 65.373092 
L 298.002123 65.373092 
L 298.002123 78.914194 
L 284.461021 78.914194 
L 284.461021 65.373092 
" style="fill:none;"/>
    <path clip-path="url(#pe3018973fc)" d="M 298.002123 65.373092 
L 311.543225 65.373092 
L 311.543225 78.914194 
L 298.002123 78.914194 
L 298.002123 65.373092 
" style="fill:none;"/>
    <path clip-path="url(#pe3018973fc)" d="M 149.05 78.914194 
L 162.591102 78.914194 
L 162.591102 92.455296 
L 149.05 92.455296 
L 149.05 78.914194 
" style="fill:#2b7bba;"/>
    <path clip-path="url(#pe3018973fc)" d="M 162.591102 78.914194 
L 176.132204 78.914194 
L 176.132204 92.455296 
L 162.591102 92.455296 
L 162.591102 78.914194 
" style="fill:#539ecd;"/>
    <path clip-path="url(#pe3018973fc)" d="M 176.132204 78.914194 
L 189.673306 78.914194 
L 189.673306 92.455296 
L 176.132204 92.455296 
L 176.132204 78.914194 
" style="fill:#2b7bba;"/>
    <path clip-path="url(#pe3018973fc)" d="M 189.673306 78.914194 
L 203.214408 78.914194 
L 203.214408 92.455296 
L 189.673306 92.455296 
L 189.673306 78.914194 
" style="fill:none;"/>
    <path clip-path="url(#pe3018973fc)" d="M 203.214408 78.914194 
L 216.75551 78.914194 
L 216.75551 92.455296 
L 203.214408 92.455296 
L 203.214408 78.914194 
" style="fill:none;"/>
    <path clip-path="url(#pe3018973fc)" d="M 216.75551 78.914194 
L 230.296613 78.914194 
L 230.296613 92.455296 
L 216.75551 92.455296 
L 216.75551 78.914194 
" style="fill:none;"/>
    <path clip-path="url(#pe3018973fc)" d="M 230.296613 78.914194 
L 243.837715 78.914194 
L 243.837715 92.455296 
L 230.296613 92.455296 
L 230.296613 78.914194 
" style="fill:none;"/>
    <path clip-path="url(#pe3018973fc)" d="M 243.837715 78.914194 
L 257.378817 78.914194 
L 257.378817 92.455296 
L 243.837715 92.455296 
L 243.837715 78.914194 
" style="fill:none;"/>
    <path clip-path="url(#pe3018973fc)" d="M 257.378817 78.914194 
L 270.919919 78.914194 
L 270.919919 92.455296 
L 257.378817 92.455296 
L 257.378817 78.914194 
" style="fill:none;"/>
    <path clip-path="url(#pe3018973fc)" d="M 270.919919 78.914194 
L 284.461021 78.914194 
L 284.461021 92.455296 
L 270.919919 92.455296 
L 270.919919 78.914194 
" style="fill:none;"/>
    <path clip-path="url(#pe3018973fc)" d="M 284.461021 78.914194 
L 298.002123 78.914194 
L 298.002123 92.455296 
L 284.461021 92.455296 
L 284.461021 78.914194 
" style="fill:none;"/>
    <path clip-path="url(#pe3018973fc)" d="M 298.002123 78.914194 
L 311.543225 78.914194 
L 311.543225 92.455296 
L 298.002123 92.455296 
L 298.002123 78.914194 
" style="fill:none;"/>
    <path clip-path="url(#pe3018973fc)" d="M 149.05 92.455296 
L 162.591102 92.455296 
L 162.591102 105.996398 
L 149.05 105.996398 
L 149.05 92.455296 
" style="fill:#2b7bba;"/>
    <path clip-path="url(#pe3018973fc)" d="M 162.591102 92.455296 
L 176.132204 92.455296 
L 176.132204 105.996398 
L 162.591102 105.996398 
L 162.591102 92.455296 
" style="fill:#0b559f;"/>
    <path clip-path="url(#pe3018973fc)" d="M 176.132204 92.455296 
L 189.673306 92.455296 
L 189.673306 105.996398 
L 176.132204 105.996398 
L 176.132204 92.455296 
" style="fill:#539ecd;"/>
    <path clip-path="url(#pe3018973fc)" d="M 189.673306 92.455296 
L 203.214408 92.455296 
L 203.214408 105.996398 
L 189.673306 105.996398 
L 189.673306 92.455296 
" style="fill:#539ecd;"/>
    <path clip-path="url(#pe3018973fc)" d="M 203.214408 92.455296 
L 216.75551 92.455296 
L 216.75551 105.996398 
L 203.214408 105.996398 
L 203.214408 92.455296 
" style="fill:none;"/>
    <path clip-path="url(#pe3018973fc)" d="M 216.75551 92.455296 
L 230.296613 92.455296 
L 230.296613 105.996398 
L 216.75551 105.996398 
L 216.75551 92.455296 
" style="fill:none;"/>
    <path clip-path="url(#pe3018973fc)" d="M 230.296613 92.455296 
L 243.837715 92.455296 
L 243.837715 105.996398 
L 230.296613 105.996398 
L 230.296613 92.455296 
" style="fill:none;"/>
    <path clip-path="url(#pe3018973fc)" d="M 243.837715 92.455296 
L 257.378817 92.455296 
L 257.378817 105.996398 
L 243.837715 105.996398 
L 243.837715 92.455296 
" style="fill:none;"/>
    <path clip-path="url(#pe3018973fc)" d="M 257.378817 92.455296 
L 270.919919 92.455296 
L 270.919919 105.996398 
L 257.378817 105.996398 
L 257.378817 92.455296 
" style="fill:none;"/>
    <path clip-path="url(#pe3018973fc)" d="M 270.919919 92.455296 
L 284.461021 92.455296 
L 284.461021 105.996398 
L 270.919919 105.996398 
L 270.919919 92.455296 
" style="fill:none;"/>
    <path clip-path="url(#pe3018973fc)" d="M 284.461021 92.455296 
L 298.002123 92.455296 
L 298.002123 105.996398 
L 284.461021 105.996398 
L 284.461021 92.455296 
" style="fill:none;"/>
    <path clip-path="url(#pe3018973fc)" d="M 298.002123 92.455296 
L 311.543225 92.455296 
L 311.543225 105.996398 
L 298.002123 105.996398 
L 298.002123 92.455296 
" style="fill:none;"/>
    <path clip-path="url(#pe3018973fc)" d="M 149.05 105.996398 
L 162.591102 105.996398 
L 162.591102 119.5375 
L 149.05 119.5375 
L 149.05 105.996398 
" style="fill:#2b7bba;"/>
    <path clip-path="url(#pe3018973fc)" d="M 162.591102 105.996398 
L 176.132204 105.996398 
L 176.132204 119.5375 
L 162.591102 119.5375 
L 162.591102 105.996398 
" style="fill:#2b7bba;"/>
    <path clip-path="url(#pe3018973fc)" d="M 176.132204 105.996398 
L 189.673306 105.996398 
L 189.673306 119.5375 
L 176.132204 119.5375 
L 176.132204 105.996398 
" style="fill:#539ecd;"/>
    <path clip-path="url(#pe3018973fc)" d="M 189.673306 105.996398 
L 203.214408 105.996398 
L 203.214408 119.5375 
L 189.673306 119.5375 
L 189.673306 105.996398 
" style="fill:#2b7bba;"/>
    <path clip-path="url(#pe3018973fc)" d="M 203.214408 105.996398 
L 216.75551 105.996398 
L 216.75551 119.5375 
L 203.214408 119.5375 
L 203.214408 105.996398 
" style="fill:#2b7bba;"/>
    <path clip-path="url(#pe3018973fc)" d="M 216.75551 105.996398 
L 230.296613 105.996398 
L 230.296613 119.5375 
L 216.75551 119.5375 
L 216.75551 105.996398 
" style="fill:none;"/>
    <path clip-path="url(#pe3018973fc)" d="M 230.296613 105.996398 
L 243.837715 105.996398 
L 243.837715 119.5375 
L 230.296613 119.5375 
L 230.296613 105.996398 
" style="fill:none;"/>
    <path clip-path="url(#pe3018973fc)" d="M 243.837715 105.996398 
L 257.378817 105.996398 
L 257.378817 119.5375 
L 243.837715 119.5375 
L 243.837715 105.996398 
" style="fill:none;"/>
    <path clip-path="url(#pe3018973fc)" d="M 257.378817 105.996398 
L 270.919919 105.996398 
L 270.919919 119.5375 
L 257.378817 119.5375 
L 257.378817 105.996398 
" style="fill:none;"/>
    <path clip-path="url(#pe3018973fc)" d="M 270.919919 105.996398 
L 284.461021 105.996398 
L 284.461021 119.5375 
L 270.919919 119.5375 
L 270.919919 105.996398 
" style="fill:none;"/>
    <path clip-path="url(#pe3018973fc)" d="M 284.461021 105.996398 
L 298.002123 105.996398 
L 298.002123 119.5375 
L 284.461021 119.5375 
L 284.461021 105.996398 
" style="fill:none;"/>
    <path clip-path="url(#pe3018973fc)" d="M 298.002123 105.996398 
L 311.543225 105.996398 
L 311.543225 119.5375 
L 298.002123 119.5375 
L 298.002123 105.996398 
" style="fill:none;"/>
    <path clip-path="url(#pe3018973fc)" d="M 149.05 119.5375 
L 162.591102 119.5375 
L 162.591102 133.078602 
L 149.05 133.078602 
L 149.05 119.5375 
" style="fill:#539ecd;"/>
    <path clip-path="url(#pe3018973fc)" d="M 162.591102 119.5375 
L 176.132204 119.5375 
L 176.132204 133.078602 
L 162.591102 133.078602 
L 162.591102 119.5375 
" style="fill:#539ecd;"/>
    <path clip-path="url(#pe3018973fc)" d="M 176.132204 119.5375 
L 189.673306 119.5375 
L 189.673306 133.078602 
L 176.132204 133.078602 
L 176.132204 119.5375 
" style="fill:#539ecd;"/>
    <path clip-path="url(#pe3018973fc)" d="M 189.673306 119.5375 
L 203.214408 119.5375 
L 203.214408 133.078602 
L 189.673306 133.078602 
L 189.673306 119.5375 
" style="fill:#539ecd;"/>
    <path clip-path="url(#pe3018973fc)" d="M 203.214408 119.5375 
L 216.75551 119.5375 
L 216.75551 133.078602 
L 203.214408 133.078602 
L 203.214408 119.5375 
" style="fill:#539ecd;"/>
    <path clip-path="url(#pe3018973fc)" d="M 216.75551 119.5375 
L 230.296613 119.5375 
L 230.296613 133.078602 
L 216.75551 133.078602 
L 216.75551 119.5375 
" style="fill:#2b7bba;"/>
    <path clip-path="url(#pe3018973fc)" d="M 230.296613 119.5375 
L 243.837715 119.5375 
L 243.837715 133.078602 
L 230.296613 133.078602 
L 230.296613 119.5375 
" style="fill:none;"/>
    <path clip-path="url(#pe3018973fc)" d="M 243.837715 119.5375 
L 257.378817 119.5375 
L 257.378817 133.078602 
L 243.837715 133.078602 
L 243.837715 119.5375 
" style="fill:none;"/>
    <path clip-path="url(#pe3018973fc)" d="M 257.378817 119.5375 
L 270.919919 119.5375 
L 270.919919 133.078602 
L 257.378817 133.078602 
L 257.378817 119.5375 
" style="fill:none;"/>
    <path clip-path="url(#pe3018973fc)" d="M 270.919919 119.5375 
L 284.461021 119.5375 
L 284.461021 133.078602 
L 270.919919 133.078602 
L 270.919919 119.5375 
" style="fill:none;"/>
    <path clip-path="url(#pe3018973fc)" d="M 284.461021 119.5375 
L 298.002123 119.5375 
L 298.002123 133.078602 
L 284.461021 133.078602 
L 284.461021 119.5375 
" style="fill:none;"/>
    <path clip-path="url(#pe3018973fc)" d="M 298.002123 119.5375 
L 311.543225 119.5375 
L 311.543225 133.078602 
L 298.002123 133.078602 
L 298.002123 119.5375 
" style="fill:none;"/>
    <path clip-path="url(#pe3018973fc)" d="M 149.05 133.078602 
L 162.591102 133.078602 
L 162.591102 146.619704 
L 149.05 146.619704 
L 149.05 133.078602 
" style="fill:#539ecd;"/>
    <path clip-path="url(#pe3018973fc)" d="M 162.591102 133.078602 
L 176.132204 133.078602 
L 176.132204 146.619704 
L 162.591102 146.619704 
L 162.591102 133.078602 
" style="fill:#539ecd;"/>
    <path clip-path="url(#pe3018973fc)" d="M 176.132204 133.078602 
L 189.673306 133.078602 
L 189.673306 146.619704 
L 176.132204 146.619704 
L 176.132204 133.078602 
" style="fill:#2b7bba;"/>
    <path clip-path="url(#pe3018973fc)" d="M 189.673306 133.078602 
L 203.214408 133.078602 
L 203.214408 146.619704 
L 189.673306 146.619704 
L 189.673306 133.078602 
" style="fill:#2b7bba;"/>
    <path clip-path="url(#pe3018973fc)" d="M 203.214408 133.078602 
L 216.75551 133.078602 
L 216.75551 146.619704 
L 203.214408 146.619704 
L 203.214408 133.078602 
" style="fill:#539ecd;"/>
    <path clip-path="url(#pe3018973fc)" d="M 216.75551 133.078602 
L 230.296613 133.078602 
L 230.296613 146.619704 
L 216.75551 146.619704 
L 216.75551 133.078602 
" style="fill:#2b7bba;"/>
    <path clip-path="url(#pe3018973fc)" d="M 230.296613 133.078602 
L 243.837715 133.078602 
L 243.837715 146.619704 
L 230.296613 146.619704 
L 230.296613 133.078602 
" style="fill:#2b7bba;"/>
    <path clip-path="url(#pe3018973fc)" d="M 243.837715 133.078602 
L 257.378817 133.078602 
L 257.378817 146.619704 
L 243.837715 146.619704 
L 243.837715 133.078602 
" style="fill:none;"/>
    <path clip-path="url(#pe3018973fc)" d="M 257.378817 133.078602 
L 270.919919 133.078602 
L 270.919919 146.619704 
L 257.378817 146.619704 
L 257.378817 133.078602 
" style="fill:none;"/>
    <path clip-path="url(#pe3018973fc)" d="M 270.919919 133.078602 
L 284.461021 133.078602 
L 284.461021 146.619704 
L 270.919919 146.619704 
L 270.919919 133.078602 
" style="fill:none;"/>
    <path clip-path="url(#pe3018973fc)" d="M 284.461021 133.078602 
L 298.002123 133.078602 
L 298.002123 146.619704 
L 284.461021 146.619704 
L 284.461021 133.078602 
" style="fill:none;"/>
    <path clip-path="url(#pe3018973fc)" d="M 298.002123 133.078602 
L 311.543225 133.078602 
L 311.543225 146.619704 
L 298.002123 146.619704 
L 298.002123 133.078602 
" style="fill:none;"/>
    <path clip-path="url(#pe3018973fc)" d="M 149.05 146.619704 
L 162.591102 146.619704 
L 162.591102 160.160806 
L 149.05 160.160806 
L 149.05 146.619704 
" style="fill:#2b7bba;"/>
    <path clip-path="url(#pe3018973fc)" d="M 162.591102 146.619704 
L 176.132204 146.619704 
L 176.132204 160.160806 
L 162.591102 160.160806 
L 162.591102 146.619704 
" style="fill:#89bedc;"/>
    <path clip-path="url(#pe3018973fc)" d="M 176.132204 146.619704 
L 189.673306 146.619704 
L 189.673306 160.160806 
L 176.132204 160.160806 
L 176.132204 146.619704 
" style="fill:#539ecd;"/>
    <path clip-path="url(#pe3018973fc)" d="M 189.673306 146.619704 
L 203.214408 146.619704 
L 203.214408 160.160806 
L 189.673306 160.160806 
L 189.673306 146.619704 
" style="fill:#2b7bba;"/>
    <path clip-path="url(#pe3018973fc)" d="M 203.214408 146.619704 
L 216.75551 146.619704 
L 216.75551 160.160806 
L 203.214408 160.160806 
L 203.214408 146.619704 
" style="fill:#89bedc;"/>
    <path clip-path="url(#pe3018973fc)" d="M 216.75551 146.619704 
L 230.296613 146.619704 
L 230.296613 160.160806 
L 216.75551 160.160806 
L 216.75551 146.619704 
" style="fill:#89bedc;"/>
    <path clip-path="url(#pe3018973fc)" d="M 230.296613 146.619704 
L 243.837715 146.619704 
L 243.837715 160.160806 
L 230.296613 160.160806 
L 230.296613 146.619704 
" style="fill:#539ecd;"/>
    <path clip-path="url(#pe3018973fc)" d="M 243.837715 146.619704 
L 257.378817 146.619704 
L 257.378817 160.160806 
L 243.837715 160.160806 
L 243.837715 146.619704 
" style="fill:#539ecd;"/>
    <path clip-path="url(#pe3018973fc)" d="M 257.378817 146.619704 
L 270.919919 146.619704 
L 270.919919 160.160806 
L 257.378817 160.160806 
L 257.378817 146.619704 
" style="fill:none;"/>
    <path clip-path="url(#pe3018973fc)" d="M 270.919919 146.619704 
L 284.461021 146.619704 
L 284.461021 160.160806 
L 270.919919 160.160806 
L 270.919919 146.619704 
" style="fill:none;"/>
    <path clip-path="url(#pe3018973fc)" d="M 284.461021 146.619704 
L 298.002123 146.619704 
L 298.002123 160.160806 
L 284.461021 160.160806 
L 284.461021 146.619704 
" style="fill:none;"/>
    <path clip-path="url(#pe3018973fc)" d="M 298.002123 146.619704 
L 311.543225 146.619704 
L 311.543225 160.160806 
L 298.002123 160.160806 
L 298.002123 146.619704 
" style="fill:none;"/>
    <path clip-path="url(#pe3018973fc)" d="M 149.05 160.160806 
L 162.591102 160.160806 
L 162.591102 173.701908 
L 149.05 173.701908 
L 149.05 160.160806 
" style="fill:#539ecd;"/>
    <path clip-path="url(#pe3018973fc)" d="M 162.591102 160.160806 
L 176.132204 160.160806 
L 176.132204 173.701908 
L 162.591102 173.701908 
L 162.591102 160.160806 
" style="fill:#bad6eb;"/>
    <path clip-path="url(#pe3018973fc)" d="M 176.132204 160.160806 
L 189.673306 160.160806 
L 189.673306 173.701908 
L 176.132204 173.701908 
L 176.132204 160.160806 
" style="fill:#89bedc;"/>
    <path clip-path="url(#pe3018973fc)" d="M 189.673306 160.160806 
L 203.214408 160.160806 
L 203.214408 173.701908 
L 189.673306 173.701908 
L 189.673306 160.160806 
" style="fill:#539ecd;"/>
    <path clip-path="url(#pe3018973fc)" d="M 203.214408 160.160806 
L 216.75551 160.160806 
L 216.75551 173.701908 
L 203.214408 173.701908 
L 203.214408 160.160806 
" style="fill:#bad6eb;"/>
    <path clip-path="url(#pe3018973fc)" d="M 216.75551 160.160806 
L 230.296613 160.160806 
L 230.296613 173.701908 
L 216.75551 173.701908 
L 216.75551 160.160806 
" style="fill:#bad6eb;"/>
    <path clip-path="url(#pe3018973fc)" d="M 230.296613 160.160806 
L 243.837715 160.160806 
L 243.837715 173.701908 
L 230.296613 173.701908 
L 230.296613 160.160806 
" style="fill:#89bedc;"/>
    <path clip-path="url(#pe3018973fc)" d="M 243.837715 160.160806 
L 257.378817 160.160806 
L 257.378817 173.701908 
L 243.837715 173.701908 
L 243.837715 160.160806 
" style="fill:#89bedc;"/>
    <path clip-path="url(#pe3018973fc)" d="M 257.378817 160.160806 
L 270.919919 160.160806 
L 270.919919 173.701908 
L 257.378817 173.701908 
L 257.378817 160.160806 
" style="fill:#2b7bba;"/>
    <path clip-path="url(#pe3018973fc)" d="M 270.919919 160.160806 
L 284.461021 160.160806 
L 284.461021 173.701908 
L 270.919919 173.701908 
L 270.919919 160.160806 
" style="fill:none;"/>
    <path clip-path="url(#pe3018973fc)" d="M 284.461021 160.160806 
L 298.002123 160.160806 
L 298.002123 173.701908 
L 284.461021 173.701908 
L 284.461021 160.160806 
" style="fill:none;"/>
    <path clip-path="url(#pe3018973fc)" d="M 298.002123 160.160806 
L 311.543225 160.160806 
L 311.543225 173.701908 
L 298.002123 173.701908 
L 298.002123 160.160806 
" style="fill:none;"/>
    <path clip-path="url(#pe3018973fc)" d="M 149.05 173.701908 
L 162.591102 173.701908 
L 162.591102 187.24301 
L 149.05 187.24301 
L 149.05 173.701908 
" style="fill:#89bedc;"/>
    <path clip-path="url(#pe3018973fc)" d="M 162.591102 173.701908 
L 176.132204 173.701908 
L 176.132204 187.24301 
L 162.591102 187.24301 
L 162.591102 173.701908 
" style="fill:#dbe9f6;"/>
    <path clip-path="url(#pe3018973fc)" d="M 176.132204 173.701908 
L 189.673306 173.701908 
L 189.673306 187.24301 
L 176.132204 187.24301 
L 176.132204 173.701908 
" style="fill:#bad6eb;"/>
    <path clip-path="url(#pe3018973fc)" d="M 189.673306 173.701908 
L 203.214408 173.701908 
L 203.214408 187.24301 
L 189.673306 187.24301 
L 189.673306 173.701908 
" style="fill:#bad6eb;"/>
    <path clip-path="url(#pe3018973fc)" d="M 203.214408 173.701908 
L 216.75551 173.701908 
L 216.75551 187.24301 
L 203.214408 187.24301 
L 203.214408 173.701908 
" style="fill:#dbe9f6;"/>
    <path clip-path="url(#pe3018973fc)" d="M 216.75551 173.701908 
L 230.296613 173.701908 
L 230.296613 187.24301 
L 216.75551 187.24301 
L 216.75551 173.701908 
" style="fill:#dbe9f6;"/>
    <path clip-path="url(#pe3018973fc)" d="M 230.296613 173.701908 
L 243.837715 173.701908 
L 243.837715 187.24301 
L 230.296613 187.24301 
L 230.296613 173.701908 
" style="fill:#bad6eb;"/>
    <path clip-path="url(#pe3018973fc)" d="M 243.837715 173.701908 
L 257.378817 173.701908 
L 257.378817 187.24301 
L 243.837715 187.24301 
L 243.837715 173.701908 
" style="fill:#dbe9f6;"/>
    <path clip-path="url(#pe3018973fc)" d="M 257.378817 173.701908 
L 270.919919 173.701908 
L 270.919919 187.24301 
L 257.378817 187.24301 
L 257.378817 173.701908 
" style="fill:#539ecd;"/>
    <path clip-path="url(#pe3018973fc)" d="M 270.919919 173.701908 
L 284.461021 173.701908 
L 284.461021 187.24301 
L 270.919919 187.24301 
L 270.919919 173.701908 
" style="fill:#2b7bba;"/>
    <path clip-path="url(#pe3018973fc)" d="M 284.461021 173.701908 
L 298.002123 173.701908 
L 298.002123 187.24301 
L 284.461021 187.24301 
L 284.461021 173.701908 
" style="fill:none;"/>
    <path clip-path="url(#pe3018973fc)" d="M 298.002123 173.701908 
L 311.543225 173.701908 
L 311.543225 187.24301 
L 298.002123 187.24301 
L 298.002123 173.701908 
" style="fill:none;"/>
    <path clip-path="url(#pe3018973fc)" d="M 149.05 187.24301 
L 162.591102 187.24301 
L 162.591102 200.784112 
L 149.05 200.784112 
L 149.05 187.24301 
" style="fill:#2b7bba;"/>
    <path clip-path="url(#pe3018973fc)" d="M 162.591102 187.24301 
L 176.132204 187.24301 
L 176.132204 200.784112 
L 162.591102 200.784112 
L 162.591102 187.24301 
" style="fill:#539ecd;"/>
    <path clip-path="url(#pe3018973fc)" d="M 176.132204 187.24301 
L 189.673306 187.24301 
L 189.673306 200.784112 
L 176.132204 200.784112 
L 176.132204 187.24301 
" style="fill:#0b559f;"/>
    <path clip-path="url(#pe3018973fc)" d="M 189.673306 187.24301 
L 203.214408 187.24301 
L 203.214408 200.784112 
L 189.673306 200.784112 
L 189.673306 187.24301 
" style="fill:#2b7bba;"/>
    <path clip-path="url(#pe3018973fc)" d="M 203.214408 187.24301 
L 216.75551 187.24301 
L 216.75551 200.784112 
L 203.214408 200.784112 
L 203.214408 187.24301 
" style="fill:#539ecd;"/>
    <path clip-path="url(#pe3018973fc)" d="M 216.75551 187.24301 
L 230.296613 187.24301 
L 230.296613 200.784112 
L 216.75551 200.784112 
L 216.75551 187.24301 
" style="fill:#539ecd;"/>
    <path clip-path="url(#pe3018973fc)" d="M 230.296613 187.24301 
L 243.837715 187.24301 
L 243.837715 200.784112 
L 230.296613 200.784112 
L 230.296613 187.24301 
" style="fill:#539ecd;"/>
    <path clip-path="url(#pe3018973fc)" d="M 243.837715 187.24301 
L 257.378817 187.24301 
L 257.378817 200.784112 
L 243.837715 200.784112 
L 243.837715 187.24301 
" style="fill:#2b7bba;"/>
    <path clip-path="url(#pe3018973fc)" d="M 257.378817 187.24301 
L 270.919919 187.24301 
L 270.919919 200.784112 
L 257.378817 200.784112 
L 257.378817 187.24301 
" style="fill:#2b7bba;"/>
    <path clip-path="url(#pe3018973fc)" d="M 270.919919 187.24301 
L 284.461021 187.24301 
L 284.461021 200.784112 
L 270.919919 200.784112 
L 270.919919 187.24301 
" style="fill:#89bedc;"/>
    <path clip-path="url(#pe3018973fc)" d="M 284.461021 187.24301 
L 298.002123 187.24301 
L 298.002123 200.784112 
L 284.461021 200.784112 
L 284.461021 187.24301 
" style="fill:#dbe9f6;"/>
    <path clip-path="url(#pe3018973fc)" d="M 298.002123 187.24301 
L 311.543225 187.24301 
L 311.543225 200.784112 
L 298.002123 200.784112 
L 298.002123 187.24301 
" style="fill:none;"/>
   </g>
  </g>
  <g id="axes_2">
   <g id="patch_3">
    <path clip-path="url(#p259549ce93)" d="M 321.10165 195.65375 
L 321.10165 170.281667 
L 321.10165 68.793333 
L 321.10165 43.42125 
L 324.907463 43.42125 
L 324.907463 68.793333 
L 324.907463 170.281667 
L 324.907463 195.65375 
z
" style="fill:#ffffff;stroke:#ffffff;stroke-linejoin:miter;stroke-width:0.01;"/>
   </g>
   <g id="matplotlib.axis_3"/>
   <g id="matplotlib.axis_4">
    <g id="ytick_12">
     <g id="line2d_23"/>
     <g id="text_23">
      <!-- 0.875 -->
      <defs>
       <path d="M 31.78125 66.40625 
Q 24.171875 66.40625 20.328125 58.90625 
Q 16.5 51.421875 16.5 36.375 
Q 16.5 21.390625 20.328125 13.890625 
Q 24.171875 6.390625 31.78125 6.390625 
Q 39.453125 6.390625 43.28125 13.890625 
Q 47.125 21.390625 47.125 36.375 
Q 47.125 51.421875 43.28125 58.90625 
Q 39.453125 66.40625 31.78125 66.40625 
z
M 31.78125 74.21875 
Q 44.046875 74.21875 50.515625 64.515625 
Q 56.984375 54.828125 56.984375 36.375 
Q 56.984375 17.96875 50.515625 8.265625 
Q 44.046875 -1.421875 31.78125 -1.421875 
Q 19.53125 -1.421875 13.0625 8.265625 
Q 6.59375 17.96875 6.59375 36.375 
Q 6.59375 54.828125 13.0625 64.515625 
Q 19.53125 74.21875 31.78125 74.21875 
z
" id="DejaVuSans-30"/>
       <path d="M 10.6875 12.40625 
L 21 12.40625 
L 21 0 
L 10.6875 0 
z
" id="DejaVuSans-2e"/>
       <path d="M 31.78125 34.625 
Q 24.75 34.625 20.71875 30.859375 
Q 16.703125 27.09375 16.703125 20.515625 
Q 16.703125 13.921875 20.71875 10.15625 
Q 24.75 6.390625 31.78125 6.390625 
Q 38.8125 6.390625 42.859375 10.171875 
Q 46.921875 13.96875 46.921875 20.515625 
Q 46.921875 27.09375 42.890625 30.859375 
Q 38.875 34.625 31.78125 34.625 
z
M 21.921875 38.8125 
Q 15.578125 40.375 12.03125 44.71875 
Q 8.5 49.078125 8.5 55.328125 
Q 8.5 64.0625 14.71875 69.140625 
Q 20.953125 74.21875 31.78125 74.21875 
Q 42.671875 74.21875 48.875 69.140625 
Q 55.078125 64.0625 55.078125 55.328125 
Q 55.078125 49.078125 51.53125 44.71875 
Q 48 40.375 41.703125 38.8125 
Q 48.828125 37.15625 52.796875 32.3125 
Q 56.78125 27.484375 56.78125 20.515625 
Q 56.78125 9.90625 50.3125 4.234375 
Q 43.84375 -1.421875 31.78125 -1.421875 
Q 19.734375 -1.421875 13.25 4.234375 
Q 6.78125 9.90625 6.78125 20.515625 
Q 6.78125 27.484375 10.78125 32.3125 
Q 14.796875 37.15625 21.921875 38.8125 
z
M 18.3125 54.390625 
Q 18.3125 48.734375 21.84375 45.5625 
Q 25.390625 42.390625 31.78125 42.390625 
Q 38.140625 42.390625 41.71875 45.5625 
Q 45.3125 48.734375 45.3125 54.390625 
Q 45.3125 60.0625 41.71875 63.234375 
Q 38.140625 66.40625 31.78125 66.40625 
Q 25.390625 66.40625 21.84375 63.234375 
Q 18.3125 60.0625 18.3125 54.390625 
z
" id="DejaVuSans-38"/>
       <path d="M 8.203125 72.90625 
L 55.078125 72.90625 
L 55.078125 68.703125 
L 28.609375 0 
L 18.3125 0 
L 43.21875 64.59375 
L 8.203125 64.59375 
z
" id="DejaVuSans-37"/>
       <path d="M 10.796875 72.90625 
L 49.515625 72.90625 
L 49.515625 64.59375 
L 19.828125 64.59375 
L 19.828125 46.734375 
Q 21.96875 47.46875 24.109375 47.828125 
Q 26.265625 48.1875 28.421875 48.1875 
Q 40.625 48.1875 47.75 41.5 
Q 54.890625 34.8125 54.890625 23.390625 
Q 54.890625 11.625 47.5625 5.09375 
Q 40.234375 -1.421875 26.90625 -1.421875 
Q 22.3125 -1.421875 17.546875 -0.640625 
Q 12.796875 0.140625 7.71875 1.703125 
L 7.71875 11.625 
Q 12.109375 9.234375 16.796875 8.0625 
Q 21.484375 6.890625 26.703125 6.890625 
Q 35.15625 6.890625 40.078125 11.328125 
Q 45.015625 15.765625 45.015625 23.390625 
Q 45.015625 31 40.078125 35.4375 
Q 35.15625 39.890625 26.703125 39.890625 
Q 22.75 39.890625 18.8125 39.015625 
Q 14.890625 38.140625 10.796875 36.28125 
z
" id="DejaVuSans-35"/>
      </defs>
      <g style="fill:#262626;" transform="translate(328.407463 177.955093)scale(0.1 -0.1)">
       <use xlink:href="#DejaVuSans-30"/>
       <use x="63.623047" xlink:href="#DejaVuSans-2e"/>
       <use x="95.410156" xlink:href="#DejaVuSans-38"/>
       <use x="159.033203" xlink:href="#DejaVuSans-37"/>
       <use x="222.65625" xlink:href="#DejaVuSans-35"/>
      </g>
     </g>
    </g>
    <g id="ytick_13">
     <g id="line2d_24"/>
     <g id="text_24">
      <!-- 0.900 -->
      <defs>
       <path d="M 10.984375 1.515625 
L 10.984375 10.5 
Q 14.703125 8.734375 18.5 7.8125 
Q 22.3125 6.890625 25.984375 6.890625 
Q 35.75 6.890625 40.890625 13.453125 
Q 46.046875 20.015625 46.78125 33.40625 
Q 43.953125 29.203125 39.59375 26.953125 
Q 35.25 24.703125 29.984375 24.703125 
Q 19.046875 24.703125 12.671875 31.3125 
Q 6.296875 37.9375 6.296875 49.421875 
Q 6.296875 60.640625 12.9375 67.421875 
Q 19.578125 74.21875 30.609375 74.21875 
Q 43.265625 74.21875 49.921875 64.515625 
Q 56.59375 54.828125 56.59375 36.375 
Q 56.59375 19.140625 48.40625 8.859375 
Q 40.234375 -1.421875 26.421875 -1.421875 
Q 22.703125 -1.421875 18.890625 -0.6875 
Q 15.09375 0.046875 10.984375 1.515625 
z
M 30.609375 32.421875 
Q 37.25 32.421875 41.125 36.953125 
Q 45.015625 41.5 45.015625 49.421875 
Q 45.015625 57.28125 41.125 61.84375 
Q 37.25 66.40625 30.609375 66.40625 
Q 23.96875 66.40625 20.09375 61.84375 
Q 16.21875 57.28125 16.21875 49.421875 
Q 16.21875 41.5 20.09375 36.953125 
Q 23.96875 32.421875 30.609375 32.421875 
z
" id="DejaVuSans-39"/>
      </defs>
      <g style="fill:#262626;" transform="translate(328.407463 151.808168)scale(0.1 -0.1)">
       <use xlink:href="#DejaVuSans-30"/>
       <use x="63.623047" xlink:href="#DejaVuSans-2e"/>
       <use x="95.410156" xlink:href="#DejaVuSans-39"/>
       <use x="159.033203" xlink:href="#DejaVuSans-30"/>
       <use x="222.65625" xlink:href="#DejaVuSans-30"/>
      </g>
     </g>
    </g>
    <g id="ytick_14">
     <g id="line2d_25"/>
     <g id="text_25">
      <!-- 0.925 -->
      <defs>
       <path d="M 19.1875 8.296875 
L 53.609375 8.296875 
L 53.609375 0 
L 7.328125 0 
L 7.328125 8.296875 
Q 12.9375 14.109375 22.625 23.890625 
Q 32.328125 33.6875 34.8125 36.53125 
Q 39.546875 41.84375 41.421875 45.53125 
Q 43.3125 49.21875 43.3125 52.78125 
Q 43.3125 58.59375 39.234375 62.25 
Q 35.15625 65.921875 28.609375 65.921875 
Q 23.96875 65.921875 18.8125 64.3125 
Q 13.671875 62.703125 7.8125 59.421875 
L 7.8125 69.390625 
Q 13.765625 71.78125 18.9375 73 
Q 24.125 74.21875 28.421875 74.21875 
Q 39.75 74.21875 46.484375 68.546875 
Q 53.21875 62.890625 53.21875 53.421875 
Q 53.21875 48.921875 51.53125 44.890625 
Q 49.859375 40.875 45.40625 35.40625 
Q 44.1875 33.984375 37.640625 27.21875 
Q 31.109375 20.453125 19.1875 8.296875 
z
" id="DejaVuSans-32"/>
      </defs>
      <g style="fill:#262626;" transform="translate(328.407463 125.661244)scale(0.1 -0.1)">
       <use xlink:href="#DejaVuSans-30"/>
       <use x="63.623047" xlink:href="#DejaVuSans-2e"/>
       <use x="95.410156" xlink:href="#DejaVuSans-39"/>
       <use x="159.033203" xlink:href="#DejaVuSans-32"/>
       <use x="222.65625" xlink:href="#DejaVuSans-35"/>
      </g>
     </g>
    </g>
    <g id="ytick_15">
     <g id="line2d_26"/>
     <g id="text_26">
      <!-- 0.950 -->
      <g style="fill:#262626;" transform="translate(328.407463 99.514319)scale(0.1 -0.1)">
       <use xlink:href="#DejaVuSans-30"/>
       <use x="63.623047" xlink:href="#DejaVuSans-2e"/>
       <use x="95.410156" xlink:href="#DejaVuSans-39"/>
       <use x="159.033203" xlink:href="#DejaVuSans-35"/>
       <use x="222.65625" xlink:href="#DejaVuSans-30"/>
      </g>
     </g>
    </g>
    <g id="ytick_16">
     <g id="line2d_27"/>
     <g id="text_27">
      <!-- 0.975 -->
      <g style="fill:#262626;" transform="translate(328.407463 73.367394)scale(0.1 -0.1)">
       <use xlink:href="#DejaVuSans-30"/>
       <use x="63.623047" xlink:href="#DejaVuSans-2e"/>
       <use x="95.410156" xlink:href="#DejaVuSans-39"/>
       <use x="159.033203" xlink:href="#DejaVuSans-37"/>
       <use x="222.65625" xlink:href="#DejaVuSans-35"/>
      </g>
     </g>
    </g>
    <g id="ytick_17">
     <g id="line2d_28"/>
     <g id="text_28">
      <!-- 1.000 -->
      <defs>
       <path d="M 12.40625 8.296875 
L 28.515625 8.296875 
L 28.515625 63.921875 
L 10.984375 60.40625 
L 10.984375 69.390625 
L 28.421875 72.90625 
L 38.28125 72.90625 
L 38.28125 8.296875 
L 54.390625 8.296875 
L 54.390625 0 
L 12.40625 0 
z
" id="DejaVuSans-31"/>
      </defs>
      <g style="fill:#262626;" transform="translate(328.407463 47.220469)scale(0.1 -0.1)">
       <use xlink:href="#DejaVuSans-31"/>
       <use x="63.623047" xlink:href="#DejaVuSans-2e"/>
       <use x="95.410156" xlink:href="#DejaVuSans-30"/>
       <use x="159.033203" xlink:href="#DejaVuSans-30"/>
       <use x="222.65625" xlink:href="#DejaVuSans-30"/>
      </g>
     </g>
    </g>
   </g>
   <g id="QuadMesh_2">
    <path clip-path="url(#p259549ce93)" d="M 321.10165 195.65375 
L 324.907463 195.65375 
L 324.907463 170.281667 
L 321.10165 170.281667 
L 321.10165 195.65375 
" style="fill:#dbe9f6;"/>
    <path clip-path="url(#p259549ce93)" d="M 321.10165 170.281667 
L 324.907463 170.281667 
L 324.907463 144.909583 
L 321.10165 144.909583 
L 321.10165 170.281667 
" style="fill:#bad6eb;"/>
    <path clip-path="url(#p259549ce93)" d="M 321.10165 144.909583 
L 324.907463 144.909583 
L 324.907463 119.5375 
L 321.10165 119.5375 
L 321.10165 144.909583 
" style="fill:#89bedc;"/>
    <path clip-path="url(#p259549ce93)" d="M 321.10165 119.5375 
L 324.907463 119.5375 
L 324.907463 94.165417 
L 321.10165 94.165417 
L 321.10165 119.5375 
" style="fill:#539ecd;"/>
    <path clip-path="url(#p259549ce93)" d="M 321.10165 94.165417 
L 324.907463 94.165417 
L 324.907463 68.793333 
L 321.10165 68.793333 
L 321.10165 94.165417 
" style="fill:#2b7bba;"/>
    <path clip-path="url(#p259549ce93)" d="M 321.10165 68.793333 
L 324.907463 68.793333 
L 324.907463 43.42125 
L 321.10165 43.42125 
L 321.10165 68.793333 
" style="fill:#0b559f;"/>
   </g>
   <g id="patch_4">
    <path d="M 321.10165 195.65375 
L 321.10165 170.281667 
L 321.10165 68.793333 
L 321.10165 43.42125 
L 324.907463 43.42125 
L 324.907463 68.793333 
L 324.907463 170.281667 
L 324.907463 195.65375 
z
" style="fill:none;"/>
   </g>
  </g>
 </g>
 <defs>
  <clipPath id="pe3018973fc">
   <rect height="162.493225" width="162.493225" x="149.05" y="38.290887"/>
  </clipPath>
  <clipPath id="p259549ce93">
   <rect height="152.2325" width="3.805813" x="321.10165" y="43.42125"/>
  </clipPath>
 </defs>
</svg>
