<?xml version="1.0" encoding="utf-8" standalone="no"?>
<!DOCTYPE svg PUBLIC "-//W3C//DTD SVG 1.1//EN"
  "http://www.w3.org/Graphics/SVG/1.1/DTD/svg11.dtd">
<!-- Created with matplotlib (http://matplotlib.org/) -->
<svg height="288pt" version="1.1" viewBox="0 0 432 288" width="432pt" xmlns="http://www.w3.org/2000/svg" xmlns:xlink="http://www.w3.org/1999/xlink">
 <defs>
  <style type="text/css">
*{stroke-linecap:butt;stroke-linejoin:round;}
  </style>
 </defs>
 <g id="figure_1">
  <g id="patch_1">
   <path d="M 0 288 
L 432 288 
L 432 0 
L 0 0 
z
" style="fill:#ffffff;"/>
  </g>
  <g id="axes_1">
   <g id="patch_2">
    <path d="M 102.94483 254.575 
L 346.71983 254.575 
L 346.71983 10.8 
L 102.94483 10.8 
z
" style="fill:#ffffff;"/>
   </g>
   <g id="matplotlib.axis_1">
    <g id="xtick_1">
     <g id="line2d_1"/>
     <g id="text_1">
      <!-- 101 -->
      <defs>
       <path d="M 12.40625 8.296875 
L 28.515625 8.296875 
L 28.515625 63.921875 
L 10.984375 60.40625 
L 10.984375 69.390625 
L 28.421875 72.90625 
L 38.28125 72.90625 
L 38.28125 8.296875 
L 54.390625 8.296875 
L 54.390625 0 
L 12.40625 0 
z
" id="DejaVuSans-31"/>
       <path d="M 31.78125 66.40625 
Q 24.171875 66.40625 20.328125 58.90625 
Q 16.5 51.421875 16.5 36.375 
Q 16.5 21.390625 20.328125 13.890625 
Q 24.171875 6.390625 31.78125 6.390625 
Q 39.453125 6.390625 43.28125 13.890625 
Q 47.125 21.390625 47.125 36.375 
Q 47.125 51.421875 43.28125 58.90625 
Q 39.453125 66.40625 31.78125 66.40625 
z
M 31.78125 74.21875 
Q 44.046875 74.21875 50.515625 64.515625 
Q 56.984375 54.828125 56.984375 36.375 
Q 56.984375 17.96875 50.515625 8.265625 
Q 44.046875 -1.421875 31.78125 -1.421875 
Q 19.53125 -1.421875 13.0625 8.265625 
Q 6.59375 17.96875 6.59375 36.375 
Q 6.59375 54.828125 13.0625 64.515625 
Q 19.53125 74.21875 31.78125 74.21875 
z
" id="DejaVuSans-30"/>
      </defs>
      <g style="fill:#262626;" transform="translate(112.874058 277.1625)rotate(-90)scale(0.1 -0.1)">
       <use xlink:href="#DejaVuSans-31"/>
       <use x="63.623047" xlink:href="#DejaVuSans-30"/>
       <use x="127.246094" xlink:href="#DejaVuSans-31"/>
      </g>
     </g>
    </g>
    <g id="xtick_2">
     <g id="line2d_2"/>
     <g id="text_2">
      <!-- 102 -->
      <defs>
       <path d="M 19.1875 8.296875 
L 53.609375 8.296875 
L 53.609375 0 
L 7.328125 0 
L 7.328125 8.296875 
Q 12.9375 14.109375 22.625 23.890625 
Q 32.328125 33.6875 34.8125 36.53125 
Q 39.546875 41.84375 41.421875 45.53125 
Q 43.3125 49.21875 43.3125 52.78125 
Q 43.3125 58.59375 39.234375 62.25 
Q 35.15625 65.921875 28.609375 65.921875 
Q 23.96875 65.921875 18.8125 64.3125 
Q 13.671875 62.703125 7.8125 59.421875 
L 7.8125 69.390625 
Q 13.765625 71.78125 18.9375 73 
Q 24.125 74.21875 28.421875 74.21875 
Q 39.75 74.21875 46.484375 68.546875 
Q 53.21875 62.890625 53.21875 53.421875 
Q 53.21875 48.921875 51.53125 44.890625 
Q 49.859375 40.875 45.40625 35.40625 
Q 44.1875 33.984375 37.640625 27.21875 
Q 31.109375 20.453125 19.1875 8.296875 
z
" id="DejaVuSans-32"/>
      </defs>
      <g style="fill:#262626;" transform="translate(127.213764 277.1625)rotate(-90)scale(0.1 -0.1)">
       <use xlink:href="#DejaVuSans-31"/>
       <use x="63.623047" xlink:href="#DejaVuSans-30"/>
       <use x="127.246094" xlink:href="#DejaVuSans-32"/>
      </g>
     </g>
    </g>
    <g id="xtick_3">
     <g id="line2d_3"/>
     <g id="text_3">
      <!-- 103 -->
      <defs>
       <path d="M 40.578125 39.3125 
Q 47.65625 37.796875 51.625 33 
Q 55.609375 28.21875 55.609375 21.1875 
Q 55.609375 10.40625 48.1875 4.484375 
Q 40.765625 -1.421875 27.09375 -1.421875 
Q 22.515625 -1.421875 17.65625 -0.515625 
Q 12.796875 0.390625 7.625 2.203125 
L 7.625 11.71875 
Q 11.71875 9.328125 16.59375 8.109375 
Q 21.484375 6.890625 26.8125 6.890625 
Q 36.078125 6.890625 40.9375 10.546875 
Q 45.796875 14.203125 45.796875 21.1875 
Q 45.796875 27.640625 41.28125 31.265625 
Q 36.765625 34.90625 28.71875 34.90625 
L 20.21875 34.90625 
L 20.21875 43.015625 
L 29.109375 43.015625 
Q 36.375 43.015625 40.234375 45.921875 
Q 44.09375 48.828125 44.09375 54.296875 
Q 44.09375 59.90625 40.109375 62.90625 
Q 36.140625 65.921875 28.71875 65.921875 
Q 24.65625 65.921875 20.015625 65.03125 
Q 15.375 64.15625 9.8125 62.3125 
L 9.8125 71.09375 
Q 15.4375 72.65625 20.34375 73.4375 
Q 25.25 74.21875 29.59375 74.21875 
Q 40.828125 74.21875 47.359375 69.109375 
Q 53.90625 64.015625 53.90625 55.328125 
Q 53.90625 49.265625 50.4375 45.09375 
Q 46.96875 40.921875 40.578125 39.3125 
z
" id="DejaVuSans-33"/>
      </defs>
      <g style="fill:#262626;" transform="translate(141.55347 277.1625)rotate(-90)scale(0.1 -0.1)">
       <use xlink:href="#DejaVuSans-31"/>
       <use x="63.623047" xlink:href="#DejaVuSans-30"/>
       <use x="127.246094" xlink:href="#DejaVuSans-33"/>
      </g>
     </g>
    </g>
    <g id="xtick_4">
     <g id="line2d_4"/>
     <g id="text_4">
      <!-- 104 -->
      <defs>
       <path d="M 37.796875 64.3125 
L 12.890625 25.390625 
L 37.796875 25.390625 
z
M 35.203125 72.90625 
L 47.609375 72.90625 
L 47.609375 25.390625 
L 58.015625 25.390625 
L 58.015625 17.1875 
L 47.609375 17.1875 
L 47.609375 0 
L 37.796875 0 
L 37.796875 17.1875 
L 4.890625 17.1875 
L 4.890625 26.703125 
z
" id="DejaVuSans-34"/>
      </defs>
      <g style="fill:#262626;" transform="translate(155.893176 277.1625)rotate(-90)scale(0.1 -0.1)">
       <use xlink:href="#DejaVuSans-31"/>
       <use x="63.623047" xlink:href="#DejaVuSans-30"/>
       <use x="127.246094" xlink:href="#DejaVuSans-34"/>
      </g>
     </g>
    </g>
    <g id="xtick_5">
     <g id="line2d_5"/>
     <g id="text_5">
      <!-- 105 -->
      <defs>
       <path d="M 10.796875 72.90625 
L 49.515625 72.90625 
L 49.515625 64.59375 
L 19.828125 64.59375 
L 19.828125 46.734375 
Q 21.96875 47.46875 24.109375 47.828125 
Q 26.265625 48.1875 28.421875 48.1875 
Q 40.625 48.1875 47.75 41.5 
Q 54.890625 34.8125 54.890625 23.390625 
Q 54.890625 11.625 47.5625 5.09375 
Q 40.234375 -1.421875 26.90625 -1.421875 
Q 22.3125 -1.421875 17.546875 -0.640625 
Q 12.796875 0.140625 7.71875 1.703125 
L 7.71875 11.625 
Q 12.109375 9.234375 16.796875 8.0625 
Q 21.484375 6.890625 26.703125 6.890625 
Q 35.15625 6.890625 40.078125 11.328125 
Q 45.015625 15.765625 45.015625 23.390625 
Q 45.015625 31 40.078125 35.4375 
Q 35.15625 39.890625 26.703125 39.890625 
Q 22.75 39.890625 18.8125 39.015625 
Q 14.890625 38.140625 10.796875 36.28125 
z
" id="DejaVuSans-35"/>
      </defs>
      <g style="fill:#262626;" transform="translate(170.232881 277.1625)rotate(-90)scale(0.1 -0.1)">
       <use xlink:href="#DejaVuSans-31"/>
       <use x="63.623047" xlink:href="#DejaVuSans-30"/>
       <use x="127.246094" xlink:href="#DejaVuSans-35"/>
      </g>
     </g>
    </g>
    <g id="xtick_6">
     <g id="line2d_6"/>
     <g id="text_6">
      <!-- 106 -->
      <defs>
       <path d="M 33.015625 40.375 
Q 26.375 40.375 22.484375 35.828125 
Q 18.609375 31.296875 18.609375 23.390625 
Q 18.609375 15.53125 22.484375 10.953125 
Q 26.375 6.390625 33.015625 6.390625 
Q 39.65625 6.390625 43.53125 10.953125 
Q 47.40625 15.53125 47.40625 23.390625 
Q 47.40625 31.296875 43.53125 35.828125 
Q 39.65625 40.375 33.015625 40.375 
z
M 52.59375 71.296875 
L 52.59375 62.3125 
Q 48.875 64.0625 45.09375 64.984375 
Q 41.3125 65.921875 37.59375 65.921875 
Q 27.828125 65.921875 22.671875 59.328125 
Q 17.53125 52.734375 16.796875 39.40625 
Q 19.671875 43.65625 24.015625 45.921875 
Q 28.375 48.1875 33.59375 48.1875 
Q 44.578125 48.1875 50.953125 41.515625 
Q 57.328125 34.859375 57.328125 23.390625 
Q 57.328125 12.15625 50.6875 5.359375 
Q 44.046875 -1.421875 33.015625 -1.421875 
Q 20.359375 -1.421875 13.671875 8.265625 
Q 6.984375 17.96875 6.984375 36.375 
Q 6.984375 53.65625 15.1875 63.9375 
Q 23.390625 74.21875 37.203125 74.21875 
Q 40.921875 74.21875 44.703125 73.484375 
Q 48.484375 72.75 52.59375 71.296875 
z
" id="DejaVuSans-36"/>
      </defs>
      <g style="fill:#262626;" transform="translate(184.572587 277.1625)rotate(-90)scale(0.1 -0.1)">
       <use xlink:href="#DejaVuSans-31"/>
       <use x="63.623047" xlink:href="#DejaVuSans-30"/>
       <use x="127.246094" xlink:href="#DejaVuSans-36"/>
      </g>
     </g>
    </g>
    <g id="xtick_7">
     <g id="line2d_7"/>
     <g id="text_7">
      <!-- 107 -->
      <defs>
       <path d="M 8.203125 72.90625 
L 55.078125 72.90625 
L 55.078125 68.703125 
L 28.609375 0 
L 18.3125 0 
L 43.21875 64.59375 
L 8.203125 64.59375 
z
" id="DejaVuSans-37"/>
      </defs>
      <g style="fill:#262626;" transform="translate(198.912293 277.1625)rotate(-90)scale(0.1 -0.1)">
       <use xlink:href="#DejaVuSans-31"/>
       <use x="63.623047" xlink:href="#DejaVuSans-30"/>
       <use x="127.246094" xlink:href="#DejaVuSans-37"/>
      </g>
     </g>
    </g>
    <g id="xtick_8">
     <g id="line2d_8"/>
     <g id="text_8">
      <!-- 108 -->
      <defs>
       <path d="M 31.78125 34.625 
Q 24.75 34.625 20.71875 30.859375 
Q 16.703125 27.09375 16.703125 20.515625 
Q 16.703125 13.921875 20.71875 10.15625 
Q 24.75 6.390625 31.78125 6.390625 
Q 38.8125 6.390625 42.859375 10.171875 
Q 46.921875 13.96875 46.921875 20.515625 
Q 46.921875 27.09375 42.890625 30.859375 
Q 38.875 34.625 31.78125 34.625 
z
M 21.921875 38.8125 
Q 15.578125 40.375 12.03125 44.71875 
Q 8.5 49.078125 8.5 55.328125 
Q 8.5 64.0625 14.71875 69.140625 
Q 20.953125 74.21875 31.78125 74.21875 
Q 42.671875 74.21875 48.875 69.140625 
Q 55.078125 64.0625 55.078125 55.328125 
Q 55.078125 49.078125 51.53125 44.71875 
Q 48 40.375 41.703125 38.8125 
Q 48.828125 37.15625 52.796875 32.3125 
Q 56.78125 27.484375 56.78125 20.515625 
Q 56.78125 9.90625 50.3125 4.234375 
Q 43.84375 -1.421875 31.78125 -1.421875 
Q 19.734375 -1.421875 13.25 4.234375 
Q 6.78125 9.90625 6.78125 20.515625 
Q 6.78125 27.484375 10.78125 32.3125 
Q 14.796875 37.15625 21.921875 38.8125 
z
M 18.3125 54.390625 
Q 18.3125 48.734375 21.84375 45.5625 
Q 25.390625 42.390625 31.78125 42.390625 
Q 38.140625 42.390625 41.71875 45.5625 
Q 45.3125 48.734375 45.3125 54.390625 
Q 45.3125 60.0625 41.71875 63.234375 
Q 38.140625 66.40625 31.78125 66.40625 
Q 25.390625 66.40625 21.84375 63.234375 
Q 18.3125 60.0625 18.3125 54.390625 
z
" id="DejaVuSans-38"/>
      </defs>
      <g style="fill:#262626;" transform="translate(213.251999 277.1625)rotate(-90)scale(0.1 -0.1)">
       <use xlink:href="#DejaVuSans-31"/>
       <use x="63.623047" xlink:href="#DejaVuSans-30"/>
       <use x="127.246094" xlink:href="#DejaVuSans-38"/>
      </g>
     </g>
    </g>
    <g id="xtick_9">
     <g id="line2d_9"/>
     <g id="text_9">
      <!-- 109 -->
      <defs>
       <path d="M 10.984375 1.515625 
L 10.984375 10.5 
Q 14.703125 8.734375 18.5 7.8125 
Q 22.3125 6.890625 25.984375 6.890625 
Q 35.75 6.890625 40.890625 13.453125 
Q 46.046875 20.015625 46.78125 33.40625 
Q 43.953125 29.203125 39.59375 26.953125 
Q 35.25 24.703125 29.984375 24.703125 
Q 19.046875 24.703125 12.671875 31.3125 
Q 6.296875 37.9375 6.296875 49.421875 
Q 6.296875 60.640625 12.9375 67.421875 
Q 19.578125 74.21875 30.609375 74.21875 
Q 43.265625 74.21875 49.921875 64.515625 
Q 56.59375 54.828125 56.59375 36.375 
Q 56.59375 19.140625 48.40625 8.859375 
Q 40.234375 -1.421875 26.421875 -1.421875 
Q 22.703125 -1.421875 18.890625 -0.6875 
Q 15.09375 0.046875 10.984375 1.515625 
z
M 30.609375 32.421875 
Q 37.25 32.421875 41.125 36.953125 
Q 45.015625 41.5 45.015625 49.421875 
Q 45.015625 57.28125 41.125 61.84375 
Q 37.25 66.40625 30.609375 66.40625 
Q 23.96875 66.40625 20.09375 61.84375 
Q 16.21875 57.28125 16.21875 49.421875 
Q 16.21875 41.5 20.09375 36.953125 
Q 23.96875 32.421875 30.609375 32.421875 
z
" id="DejaVuSans-39"/>
      </defs>
      <g style="fill:#262626;" transform="translate(227.591705 277.1625)rotate(-90)scale(0.1 -0.1)">
       <use xlink:href="#DejaVuSans-31"/>
       <use x="63.623047" xlink:href="#DejaVuSans-30"/>
       <use x="127.246094" xlink:href="#DejaVuSans-39"/>
      </g>
     </g>
    </g>
    <g id="xtick_10">
     <g id="line2d_10"/>
     <g id="text_10">
      <!-- 110 -->
      <g style="fill:#262626;" transform="translate(241.931411 277.1625)rotate(-90)scale(0.1 -0.1)">
       <use xlink:href="#DejaVuSans-31"/>
       <use x="63.623047" xlink:href="#DejaVuSans-31"/>
       <use x="127.246094" xlink:href="#DejaVuSans-30"/>
      </g>
     </g>
    </g>
    <g id="xtick_11">
     <g id="line2d_11"/>
     <g id="text_11">
      <!-- 113 -->
      <g style="fill:#262626;" transform="translate(256.271117 277.1625)rotate(-90)scale(0.1 -0.1)">
       <use xlink:href="#DejaVuSans-31"/>
       <use x="63.623047" xlink:href="#DejaVuSans-31"/>
       <use x="127.246094" xlink:href="#DejaVuSans-33"/>
      </g>
     </g>
    </g>
    <g id="xtick_12">
     <g id="line2d_12"/>
     <g id="text_12">
      <!-- 114 -->
      <g style="fill:#262626;" transform="translate(270.610823 277.1625)rotate(-90)scale(0.1 -0.1)">
       <use xlink:href="#DejaVuSans-31"/>
       <use x="63.623047" xlink:href="#DejaVuSans-31"/>
       <use x="127.246094" xlink:href="#DejaVuSans-34"/>
      </g>
     </g>
    </g>
    <g id="xtick_13">
     <g id="line2d_13"/>
     <g id="text_13">
      <!-- 115 -->
      <g style="fill:#262626;" transform="translate(284.950529 277.1625)rotate(-90)scale(0.1 -0.1)">
       <use xlink:href="#DejaVuSans-31"/>
       <use x="63.623047" xlink:href="#DejaVuSans-31"/>
       <use x="127.246094" xlink:href="#DejaVuSans-35"/>
      </g>
     </g>
    </g>
    <g id="xtick_14">
     <g id="line2d_14"/>
     <g id="text_14">
      <!-- 116 -->
      <g style="fill:#262626;" transform="translate(299.290234 277.1625)rotate(-90)scale(0.1 -0.1)">
       <use xlink:href="#DejaVuSans-31"/>
       <use x="63.623047" xlink:href="#DejaVuSans-31"/>
       <use x="127.246094" xlink:href="#DejaVuSans-36"/>
      </g>
     </g>
    </g>
    <g id="xtick_15">
     <g id="line2d_15"/>
     <g id="text_15">
      <!-- 118 -->
      <g style="fill:#262626;" transform="translate(313.62994 277.1625)rotate(-90)scale(0.1 -0.1)">
       <use xlink:href="#DejaVuSans-31"/>
       <use x="63.623047" xlink:href="#DejaVuSans-31"/>
       <use x="127.246094" xlink:href="#DejaVuSans-38"/>
      </g>
     </g>
    </g>
    <g id="xtick_16">
     <g id="line2d_16"/>
     <g id="text_16">
      <!-- 119 -->
      <g style="fill:#262626;" transform="translate(327.969646 277.1625)rotate(-90)scale(0.1 -0.1)">
       <use xlink:href="#DejaVuSans-31"/>
       <use x="63.623047" xlink:href="#DejaVuSans-31"/>
       <use x="127.246094" xlink:href="#DejaVuSans-39"/>
      </g>
     </g>
    </g>
    <g id="xtick_17">
     <g id="line2d_17"/>
     <g id="text_17">
      <!-- 120 -->
      <g style="fill:#262626;" transform="translate(342.309352 277.1625)rotate(-90)scale(0.1 -0.1)">
       <use xlink:href="#DejaVuSans-31"/>
       <use x="63.623047" xlink:href="#DejaVuSans-32"/>
       <use x="127.246094" xlink:href="#DejaVuSans-30"/>
      </g>
     </g>
    </g>
   </g>
   <g id="matplotlib.axis_2">
    <g id="ytick_1">
     <g id="line2d_18"/>
     <g id="text_18">
      <!-- 101 -->
      <g style="fill:#262626;" transform="translate(80.35733 21.769072)scale(0.1 -0.1)">
       <use xlink:href="#DejaVuSans-31"/>
       <use x="63.623047" xlink:href="#DejaVuSans-30"/>
       <use x="127.246094" xlink:href="#DejaVuSans-31"/>
      </g>
     </g>
    </g>
    <g id="ytick_2">
     <g id="line2d_19"/>
     <g id="text_19">
      <!-- 102 -->
      <g style="fill:#262626;" transform="translate(80.35733 36.108778)scale(0.1 -0.1)">
       <use xlink:href="#DejaVuSans-31"/>
       <use x="63.623047" xlink:href="#DejaVuSans-30"/>
       <use x="127.246094" xlink:href="#DejaVuSans-32"/>
      </g>
     </g>
    </g>
    <g id="ytick_3">
     <g id="line2d_20"/>
     <g id="text_20">
      <!-- 103 -->
      <g style="fill:#262626;" transform="translate(80.35733 50.448483)scale(0.1 -0.1)">
       <use xlink:href="#DejaVuSans-31"/>
       <use x="63.623047" xlink:href="#DejaVuSans-30"/>
       <use x="127.246094" xlink:href="#DejaVuSans-33"/>
      </g>
     </g>
    </g>
    <g id="ytick_4">
     <g id="line2d_21"/>
     <g id="text_21">
      <!-- 104 -->
      <g style="fill:#262626;" transform="translate(80.35733 64.788189)scale(0.1 -0.1)">
       <use xlink:href="#DejaVuSans-31"/>
       <use x="63.623047" xlink:href="#DejaVuSans-30"/>
       <use x="127.246094" xlink:href="#DejaVuSans-34"/>
      </g>
     </g>
    </g>
    <g id="ytick_5">
     <g id="line2d_22"/>
     <g id="text_22">
      <!-- 105 -->
      <g style="fill:#262626;" transform="translate(80.35733 79.127895)scale(0.1 -0.1)">
       <use xlink:href="#DejaVuSans-31"/>
       <use x="63.623047" xlink:href="#DejaVuSans-30"/>
       <use x="127.246094" xlink:href="#DejaVuSans-35"/>
      </g>
     </g>
    </g>
    <g id="ytick_6">
     <g id="line2d_23"/>
     <g id="text_23">
      <!-- 106 -->
      <g style="fill:#262626;" transform="translate(80.35733 93.467601)scale(0.1 -0.1)">
       <use xlink:href="#DejaVuSans-31"/>
       <use x="63.623047" xlink:href="#DejaVuSans-30"/>
       <use x="127.246094" xlink:href="#DejaVuSans-36"/>
      </g>
     </g>
    </g>
    <g id="ytick_7">
     <g id="line2d_24"/>
     <g id="text_24">
      <!-- 107 -->
      <g style="fill:#262626;" transform="translate(80.35733 107.807307)scale(0.1 -0.1)">
       <use xlink:href="#DejaVuSans-31"/>
       <use x="63.623047" xlink:href="#DejaVuSans-30"/>
       <use x="127.246094" xlink:href="#DejaVuSans-37"/>
      </g>
     </g>
    </g>
    <g id="ytick_8">
     <g id="line2d_25"/>
     <g id="text_25">
      <!-- 108 -->
      <g style="fill:#262626;" transform="translate(80.35733 122.147013)scale(0.1 -0.1)">
       <use xlink:href="#DejaVuSans-31"/>
       <use x="63.623047" xlink:href="#DejaVuSans-30"/>
       <use x="127.246094" xlink:href="#DejaVuSans-38"/>
      </g>
     </g>
    </g>
    <g id="ytick_9">
     <g id="line2d_26"/>
     <g id="text_26">
      <!-- 109 -->
      <g style="fill:#262626;" transform="translate(80.35733 136.486719)scale(0.1 -0.1)">
       <use xlink:href="#DejaVuSans-31"/>
       <use x="63.623047" xlink:href="#DejaVuSans-30"/>
       <use x="127.246094" xlink:href="#DejaVuSans-39"/>
      </g>
     </g>
    </g>
    <g id="ytick_10">
     <g id="line2d_27"/>
     <g id="text_27">
      <!-- 110 -->
      <g style="fill:#262626;" transform="translate(80.35733 150.826425)scale(0.1 -0.1)">
       <use xlink:href="#DejaVuSans-31"/>
       <use x="63.623047" xlink:href="#DejaVuSans-31"/>
       <use x="127.246094" xlink:href="#DejaVuSans-30"/>
      </g>
     </g>
    </g>
    <g id="ytick_11">
     <g id="line2d_28"/>
     <g id="text_28">
      <!-- 113 -->
      <g style="fill:#262626;" transform="translate(80.35733 165.166131)scale(0.1 -0.1)">
       <use xlink:href="#DejaVuSans-31"/>
       <use x="63.623047" xlink:href="#DejaVuSans-31"/>
       <use x="127.246094" xlink:href="#DejaVuSans-33"/>
      </g>
     </g>
    </g>
    <g id="ytick_12">
     <g id="line2d_29"/>
     <g id="text_29">
      <!-- 114 -->
      <g style="fill:#262626;" transform="translate(80.35733 179.505836)scale(0.1 -0.1)">
       <use xlink:href="#DejaVuSans-31"/>
       <use x="63.623047" xlink:href="#DejaVuSans-31"/>
       <use x="127.246094" xlink:href="#DejaVuSans-34"/>
      </g>
     </g>
    </g>
    <g id="ytick_13">
     <g id="line2d_30"/>
     <g id="text_30">
      <!-- 115 -->
      <g style="fill:#262626;" transform="translate(80.35733 193.845542)scale(0.1 -0.1)">
       <use xlink:href="#DejaVuSans-31"/>
       <use x="63.623047" xlink:href="#DejaVuSans-31"/>
       <use x="127.246094" xlink:href="#DejaVuSans-35"/>
      </g>
     </g>
    </g>
    <g id="ytick_14">
     <g id="line2d_31"/>
     <g id="text_31">
      <!-- 116 -->
      <g style="fill:#262626;" transform="translate(80.35733 208.185248)scale(0.1 -0.1)">
       <use xlink:href="#DejaVuSans-31"/>
       <use x="63.623047" xlink:href="#DejaVuSans-31"/>
       <use x="127.246094" xlink:href="#DejaVuSans-36"/>
      </g>
     </g>
    </g>
    <g id="ytick_15">
     <g id="line2d_32"/>
     <g id="text_32">
      <!-- 118 -->
      <g style="fill:#262626;" transform="translate(80.35733 222.524954)scale(0.1 -0.1)">
       <use xlink:href="#DejaVuSans-31"/>
       <use x="63.623047" xlink:href="#DejaVuSans-31"/>
       <use x="127.246094" xlink:href="#DejaVuSans-38"/>
      </g>
     </g>
    </g>
    <g id="ytick_16">
     <g id="line2d_33"/>
     <g id="text_33">
      <!-- 119 -->
      <g style="fill:#262626;" transform="translate(80.35733 236.86466)scale(0.1 -0.1)">
       <use xlink:href="#DejaVuSans-31"/>
       <use x="63.623047" xlink:href="#DejaVuSans-31"/>
       <use x="127.246094" xlink:href="#DejaVuSans-39"/>
      </g>
     </g>
    </g>
    <g id="ytick_17">
     <g id="line2d_34"/>
     <g id="text_34">
      <!-- 120 -->
      <g style="fill:#262626;" transform="translate(80.35733 251.204366)scale(0.1 -0.1)">
       <use xlink:href="#DejaVuSans-31"/>
       <use x="63.623047" xlink:href="#DejaVuSans-32"/>
       <use x="127.246094" xlink:href="#DejaVuSans-30"/>
      </g>
     </g>
    </g>
   </g>
   <g id="QuadMesh_1">
    <path clip-path="url(#pe8399683c1)" d="M 102.94483 10.8 
L 117.284536 10.8 
L 117.284536 25.139706 
L 102.94483 25.139706 
L 102.94483 10.8 
" style="fill:none;"/>
    <path clip-path="url(#pe8399683c1)" d="M 117.284536 10.8 
L 131.624242 10.8 
L 131.624242 25.139706 
L 117.284536 25.139706 
L 117.284536 10.8 
" style="fill:none;"/>
    <path clip-path="url(#pe8399683c1)" d="M 131.624242 10.8 
L 145.963948 10.8 
L 145.963948 25.139706 
L 131.624242 25.139706 
L 131.624242 10.8 
" style="fill:none;"/>
    <path clip-path="url(#pe8399683c1)" d="M 145.963948 10.8 
L 160.303654 10.8 
L 160.303654 25.139706 
L 145.963948 25.139706 
L 145.963948 10.8 
" style="fill:none;"/>
    <path clip-path="url(#pe8399683c1)" d="M 160.303654 10.8 
L 174.643359 10.8 
L 174.643359 25.139706 
L 160.303654 25.139706 
L 160.303654 10.8 
" style="fill:none;"/>
    <path clip-path="url(#pe8399683c1)" d="M 174.643359 10.8 
L 188.983065 10.8 
L 188.983065 25.139706 
L 174.643359 25.139706 
L 174.643359 10.8 
" style="fill:none;"/>
    <path clip-path="url(#pe8399683c1)" d="M 188.983065 10.8 
L 203.322771 10.8 
L 203.322771 25.139706 
L 188.983065 25.139706 
L 188.983065 10.8 
" style="fill:none;"/>
    <path clip-path="url(#pe8399683c1)" d="M 203.322771 10.8 
L 217.662477 10.8 
L 217.662477 25.139706 
L 203.322771 25.139706 
L 203.322771 10.8 
" style="fill:none;"/>
    <path clip-path="url(#pe8399683c1)" d="M 217.662477 10.8 
L 232.002183 10.8 
L 232.002183 25.139706 
L 217.662477 25.139706 
L 217.662477 10.8 
" style="fill:none;"/>
    <path clip-path="url(#pe8399683c1)" d="M 232.002183 10.8 
L 246.341889 10.8 
L 246.341889 25.139706 
L 232.002183 25.139706 
L 232.002183 10.8 
" style="fill:none;"/>
    <path clip-path="url(#pe8399683c1)" d="M 246.341889 10.8 
L 260.681595 10.8 
L 260.681595 25.139706 
L 246.341889 25.139706 
L 246.341889 10.8 
" style="fill:none;"/>
    <path clip-path="url(#pe8399683c1)" d="M 260.681595 10.8 
L 275.021301 10.8 
L 275.021301 25.139706 
L 260.681595 25.139706 
L 260.681595 10.8 
" style="fill:none;"/>
    <path clip-path="url(#pe8399683c1)" d="M 275.021301 10.8 
L 289.361006 10.8 
L 289.361006 25.139706 
L 275.021301 25.139706 
L 275.021301 10.8 
" style="fill:none;"/>
    <path clip-path="url(#pe8399683c1)" d="M 289.361006 10.8 
L 303.700712 10.8 
L 303.700712 25.139706 
L 289.361006 25.139706 
L 289.361006 10.8 
" style="fill:none;"/>
    <path clip-path="url(#pe8399683c1)" d="M 303.700712 10.8 
L 318.040418 10.8 
L 318.040418 25.139706 
L 303.700712 25.139706 
L 303.700712 10.8 
" style="fill:none;"/>
    <path clip-path="url(#pe8399683c1)" d="M 318.040418 10.8 
L 332.380124 10.8 
L 332.380124 25.139706 
L 318.040418 25.139706 
L 318.040418 10.8 
" style="fill:none;"/>
    <path clip-path="url(#pe8399683c1)" d="M 332.380124 10.8 
L 346.71983 10.8 
L 346.71983 25.139706 
L 332.380124 25.139706 
L 332.380124 10.8 
" style="fill:none;"/>
    <path clip-path="url(#pe8399683c1)" d="M 102.94483 25.139706 
L 117.284536 25.139706 
L 117.284536 39.479412 
L 102.94483 39.479412 
L 102.94483 25.139706 
" style="fill:#539ecd;"/>
    <path clip-path="url(#pe8399683c1)" d="M 117.284536 25.139706 
L 131.624242 25.139706 
L 131.624242 39.479412 
L 117.284536 39.479412 
L 117.284536 25.139706 
" style="fill:none;"/>
    <path clip-path="url(#pe8399683c1)" d="M 131.624242 25.139706 
L 145.963948 25.139706 
L 145.963948 39.479412 
L 131.624242 39.479412 
L 131.624242 25.139706 
" style="fill:none;"/>
    <path clip-path="url(#pe8399683c1)" d="M 145.963948 25.139706 
L 160.303654 25.139706 
L 160.303654 39.479412 
L 145.963948 39.479412 
L 145.963948 25.139706 
" style="fill:none;"/>
    <path clip-path="url(#pe8399683c1)" d="M 160.303654 25.139706 
L 174.643359 25.139706 
L 174.643359 39.479412 
L 160.303654 39.479412 
L 160.303654 25.139706 
" style="fill:none;"/>
    <path clip-path="url(#pe8399683c1)" d="M 174.643359 25.139706 
L 188.983065 25.139706 
L 188.983065 39.479412 
L 174.643359 39.479412 
L 174.643359 25.139706 
" style="fill:none;"/>
    <path clip-path="url(#pe8399683c1)" d="M 188.983065 25.139706 
L 203.322771 25.139706 
L 203.322771 39.479412 
L 188.983065 39.479412 
L 188.983065 25.139706 
" style="fill:none;"/>
    <path clip-path="url(#pe8399683c1)" d="M 203.322771 25.139706 
L 217.662477 25.139706 
L 217.662477 39.479412 
L 203.322771 39.479412 
L 203.322771 25.139706 
" style="fill:none;"/>
    <path clip-path="url(#pe8399683c1)" d="M 217.662477 25.139706 
L 232.002183 25.139706 
L 232.002183 39.479412 
L 217.662477 39.479412 
L 217.662477 25.139706 
" style="fill:none;"/>
    <path clip-path="url(#pe8399683c1)" d="M 232.002183 25.139706 
L 246.341889 25.139706 
L 246.341889 39.479412 
L 232.002183 39.479412 
L 232.002183 25.139706 
" style="fill:none;"/>
    <path clip-path="url(#pe8399683c1)" d="M 246.341889 25.139706 
L 260.681595 25.139706 
L 260.681595 39.479412 
L 246.341889 39.479412 
L 246.341889 25.139706 
" style="fill:none;"/>
    <path clip-path="url(#pe8399683c1)" d="M 260.681595 25.139706 
L 275.021301 25.139706 
L 275.021301 39.479412 
L 260.681595 39.479412 
L 260.681595 25.139706 
" style="fill:none;"/>
    <path clip-path="url(#pe8399683c1)" d="M 275.021301 25.139706 
L 289.361006 25.139706 
L 289.361006 39.479412 
L 275.021301 39.479412 
L 275.021301 25.139706 
" style="fill:none;"/>
    <path clip-path="url(#pe8399683c1)" d="M 289.361006 25.139706 
L 303.700712 25.139706 
L 303.700712 39.479412 
L 289.361006 39.479412 
L 289.361006 25.139706 
" style="fill:none;"/>
    <path clip-path="url(#pe8399683c1)" d="M 303.700712 25.139706 
L 318.040418 25.139706 
L 318.040418 39.479412 
L 303.700712 39.479412 
L 303.700712 25.139706 
" style="fill:none;"/>
    <path clip-path="url(#pe8399683c1)" d="M 318.040418 25.139706 
L 332.380124 25.139706 
L 332.380124 39.479412 
L 318.040418 39.479412 
L 318.040418 25.139706 
" style="fill:none;"/>
    <path clip-path="url(#pe8399683c1)" d="M 332.380124 25.139706 
L 346.71983 25.139706 
L 346.71983 39.479412 
L 332.380124 39.479412 
L 332.380124 25.139706 
" style="fill:none;"/>
    <path clip-path="url(#pe8399683c1)" d="M 102.94483 39.479412 
L 117.284536 39.479412 
L 117.284536 53.819118 
L 102.94483 53.819118 
L 102.94483 39.479412 
" style="fill:#2b7bba;"/>
    <path clip-path="url(#pe8399683c1)" d="M 117.284536 39.479412 
L 131.624242 39.479412 
L 131.624242 53.819118 
L 117.284536 53.819118 
L 117.284536 39.479412 
" style="fill:#539ecd;"/>
    <path clip-path="url(#pe8399683c1)" d="M 131.624242 39.479412 
L 145.963948 39.479412 
L 145.963948 53.819118 
L 131.624242 53.819118 
L 131.624242 39.479412 
" style="fill:none;"/>
    <path clip-path="url(#pe8399683c1)" d="M 145.963948 39.479412 
L 160.303654 39.479412 
L 160.303654 53.819118 
L 145.963948 53.819118 
L 145.963948 39.479412 
" style="fill:none;"/>
    <path clip-path="url(#pe8399683c1)" d="M 160.303654 39.479412 
L 174.643359 39.479412 
L 174.643359 53.819118 
L 160.303654 53.819118 
L 160.303654 39.479412 
" style="fill:none;"/>
    <path clip-path="url(#pe8399683c1)" d="M 174.643359 39.479412 
L 188.983065 39.479412 
L 188.983065 53.819118 
L 174.643359 53.819118 
L 174.643359 39.479412 
" style="fill:none;"/>
    <path clip-path="url(#pe8399683c1)" d="M 188.983065 39.479412 
L 203.322771 39.479412 
L 203.322771 53.819118 
L 188.983065 53.819118 
L 188.983065 39.479412 
" style="fill:none;"/>
    <path clip-path="url(#pe8399683c1)" d="M 203.322771 39.479412 
L 217.662477 39.479412 
L 217.662477 53.819118 
L 203.322771 53.819118 
L 203.322771 39.479412 
" style="fill:none;"/>
    <path clip-path="url(#pe8399683c1)" d="M 217.662477 39.479412 
L 232.002183 39.479412 
L 232.002183 53.819118 
L 217.662477 53.819118 
L 217.662477 39.479412 
" style="fill:none;"/>
    <path clip-path="url(#pe8399683c1)" d="M 232.002183 39.479412 
L 246.341889 39.479412 
L 246.341889 53.819118 
L 232.002183 53.819118 
L 232.002183 39.479412 
" style="fill:none;"/>
    <path clip-path="url(#pe8399683c1)" d="M 246.341889 39.479412 
L 260.681595 39.479412 
L 260.681595 53.819118 
L 246.341889 53.819118 
L 246.341889 39.479412 
" style="fill:none;"/>
    <path clip-path="url(#pe8399683c1)" d="M 260.681595 39.479412 
L 275.021301 39.479412 
L 275.021301 53.819118 
L 260.681595 53.819118 
L 260.681595 39.479412 
" style="fill:none;"/>
    <path clip-path="url(#pe8399683c1)" d="M 275.021301 39.479412 
L 289.361006 39.479412 
L 289.361006 53.819118 
L 275.021301 53.819118 
L 275.021301 39.479412 
" style="fill:none;"/>
    <path clip-path="url(#pe8399683c1)" d="M 289.361006 39.479412 
L 303.700712 39.479412 
L 303.700712 53.819118 
L 289.361006 53.819118 
L 289.361006 39.479412 
" style="fill:none;"/>
    <path clip-path="url(#pe8399683c1)" d="M 303.700712 39.479412 
L 318.040418 39.479412 
L 318.040418 53.819118 
L 303.700712 53.819118 
L 303.700712 39.479412 
" style="fill:none;"/>
    <path clip-path="url(#pe8399683c1)" d="M 318.040418 39.479412 
L 332.380124 39.479412 
L 332.380124 53.819118 
L 318.040418 53.819118 
L 318.040418 39.479412 
" style="fill:none;"/>
    <path clip-path="url(#pe8399683c1)" d="M 332.380124 39.479412 
L 346.71983 39.479412 
L 346.71983 53.819118 
L 332.380124 53.819118 
L 332.380124 39.479412 
" style="fill:none;"/>
    <path clip-path="url(#pe8399683c1)" d="M 102.94483 53.819118 
L 117.284536 53.819118 
L 117.284536 68.158824 
L 102.94483 68.158824 
L 102.94483 53.819118 
" style="fill:#89bedc;"/>
    <path clip-path="url(#pe8399683c1)" d="M 117.284536 53.819118 
L 131.624242 53.819118 
L 131.624242 68.158824 
L 117.284536 68.158824 
L 117.284536 53.819118 
" style="fill:#bad6eb;"/>
    <path clip-path="url(#pe8399683c1)" d="M 131.624242 53.819118 
L 145.963948 53.819118 
L 145.963948 68.158824 
L 131.624242 68.158824 
L 131.624242 53.819118 
" style="fill:#89bedc;"/>
    <path clip-path="url(#pe8399683c1)" d="M 145.963948 53.819118 
L 160.303654 53.819118 
L 160.303654 68.158824 
L 145.963948 68.158824 
L 145.963948 53.819118 
" style="fill:none;"/>
    <path clip-path="url(#pe8399683c1)" d="M 160.303654 53.819118 
L 174.643359 53.819118 
L 174.643359 68.158824 
L 160.303654 68.158824 
L 160.303654 53.819118 
" style="fill:none;"/>
    <path clip-path="url(#pe8399683c1)" d="M 174.643359 53.819118 
L 188.983065 53.819118 
L 188.983065 68.158824 
L 174.643359 68.158824 
L 174.643359 53.819118 
" style="fill:none;"/>
    <path clip-path="url(#pe8399683c1)" d="M 188.983065 53.819118 
L 203.322771 53.819118 
L 203.322771 68.158824 
L 188.983065 68.158824 
L 188.983065 53.819118 
" style="fill:none;"/>
    <path clip-path="url(#pe8399683c1)" d="M 203.322771 53.819118 
L 217.662477 53.819118 
L 217.662477 68.158824 
L 203.322771 68.158824 
L 203.322771 53.819118 
" style="fill:none;"/>
    <path clip-path="url(#pe8399683c1)" d="M 217.662477 53.819118 
L 232.002183 53.819118 
L 232.002183 68.158824 
L 217.662477 68.158824 
L 217.662477 53.819118 
" style="fill:none;"/>
    <path clip-path="url(#pe8399683c1)" d="M 232.002183 53.819118 
L 246.341889 53.819118 
L 246.341889 68.158824 
L 232.002183 68.158824 
L 232.002183 53.819118 
" style="fill:none;"/>
    <path clip-path="url(#pe8399683c1)" d="M 246.341889 53.819118 
L 260.681595 53.819118 
L 260.681595 68.158824 
L 246.341889 68.158824 
L 246.341889 53.819118 
" style="fill:none;"/>
    <path clip-path="url(#pe8399683c1)" d="M 260.681595 53.819118 
L 275.021301 53.819118 
L 275.021301 68.158824 
L 260.681595 68.158824 
L 260.681595 53.819118 
" style="fill:none;"/>
    <path clip-path="url(#pe8399683c1)" d="M 275.021301 53.819118 
L 289.361006 53.819118 
L 289.361006 68.158824 
L 275.021301 68.158824 
L 275.021301 53.819118 
" style="fill:none;"/>
    <path clip-path="url(#pe8399683c1)" d="M 289.361006 53.819118 
L 303.700712 53.819118 
L 303.700712 68.158824 
L 289.361006 68.158824 
L 289.361006 53.819118 
" style="fill:none;"/>
    <path clip-path="url(#pe8399683c1)" d="M 303.700712 53.819118 
L 318.040418 53.819118 
L 318.040418 68.158824 
L 303.700712 68.158824 
L 303.700712 53.819118 
" style="fill:none;"/>
    <path clip-path="url(#pe8399683c1)" d="M 318.040418 53.819118 
L 332.380124 53.819118 
L 332.380124 68.158824 
L 318.040418 68.158824 
L 318.040418 53.819118 
" style="fill:none;"/>
    <path clip-path="url(#pe8399683c1)" d="M 332.380124 53.819118 
L 346.71983 53.819118 
L 346.71983 68.158824 
L 332.380124 68.158824 
L 332.380124 53.819118 
" style="fill:none;"/>
    <path clip-path="url(#pe8399683c1)" d="M 102.94483 68.158824 
L 117.284536 68.158824 
L 117.284536 82.498529 
L 102.94483 82.498529 
L 102.94483 68.158824 
" style="fill:#bad6eb;"/>
    <path clip-path="url(#pe8399683c1)" d="M 117.284536 68.158824 
L 131.624242 68.158824 
L 131.624242 82.498529 
L 117.284536 82.498529 
L 117.284536 68.158824 
" style="fill:#bad6eb;"/>
    <path clip-path="url(#pe8399683c1)" d="M 131.624242 68.158824 
L 145.963948 68.158824 
L 145.963948 82.498529 
L 131.624242 82.498529 
L 131.624242 68.158824 
" style="fill:#89bedc;"/>
    <path clip-path="url(#pe8399683c1)" d="M 145.963948 68.158824 
L 160.303654 68.158824 
L 160.303654 82.498529 
L 145.963948 82.498529 
L 145.963948 68.158824 
" style="fill:#dbe9f6;"/>
    <path clip-path="url(#pe8399683c1)" d="M 160.303654 68.158824 
L 174.643359 68.158824 
L 174.643359 82.498529 
L 160.303654 82.498529 
L 160.303654 68.158824 
" style="fill:none;"/>
    <path clip-path="url(#pe8399683c1)" d="M 174.643359 68.158824 
L 188.983065 68.158824 
L 188.983065 82.498529 
L 174.643359 82.498529 
L 174.643359 68.158824 
" style="fill:none;"/>
    <path clip-path="url(#pe8399683c1)" d="M 188.983065 68.158824 
L 203.322771 68.158824 
L 203.322771 82.498529 
L 188.983065 82.498529 
L 188.983065 68.158824 
" style="fill:none;"/>
    <path clip-path="url(#pe8399683c1)" d="M 203.322771 68.158824 
L 217.662477 68.158824 
L 217.662477 82.498529 
L 203.322771 82.498529 
L 203.322771 68.158824 
" style="fill:none;"/>
    <path clip-path="url(#pe8399683c1)" d="M 217.662477 68.158824 
L 232.002183 68.158824 
L 232.002183 82.498529 
L 217.662477 82.498529 
L 217.662477 68.158824 
" style="fill:none;"/>
    <path clip-path="url(#pe8399683c1)" d="M 232.002183 68.158824 
L 246.341889 68.158824 
L 246.341889 82.498529 
L 232.002183 82.498529 
L 232.002183 68.158824 
" style="fill:none;"/>
    <path clip-path="url(#pe8399683c1)" d="M 246.341889 68.158824 
L 260.681595 68.158824 
L 260.681595 82.498529 
L 246.341889 82.498529 
L 246.341889 68.158824 
" style="fill:none;"/>
    <path clip-path="url(#pe8399683c1)" d="M 260.681595 68.158824 
L 275.021301 68.158824 
L 275.021301 82.498529 
L 260.681595 82.498529 
L 260.681595 68.158824 
" style="fill:none;"/>
    <path clip-path="url(#pe8399683c1)" d="M 275.021301 68.158824 
L 289.361006 68.158824 
L 289.361006 82.498529 
L 275.021301 82.498529 
L 275.021301 68.158824 
" style="fill:none;"/>
    <path clip-path="url(#pe8399683c1)" d="M 289.361006 68.158824 
L 303.700712 68.158824 
L 303.700712 82.498529 
L 289.361006 82.498529 
L 289.361006 68.158824 
" style="fill:none;"/>
    <path clip-path="url(#pe8399683c1)" d="M 303.700712 68.158824 
L 318.040418 68.158824 
L 318.040418 82.498529 
L 303.700712 82.498529 
L 303.700712 68.158824 
" style="fill:none;"/>
    <path clip-path="url(#pe8399683c1)" d="M 318.040418 68.158824 
L 332.380124 68.158824 
L 332.380124 82.498529 
L 318.040418 82.498529 
L 318.040418 68.158824 
" style="fill:none;"/>
    <path clip-path="url(#pe8399683c1)" d="M 332.380124 68.158824 
L 346.71983 68.158824 
L 346.71983 82.498529 
L 332.380124 82.498529 
L 332.380124 68.158824 
" style="fill:none;"/>
    <path clip-path="url(#pe8399683c1)" d="M 102.94483 82.498529 
L 117.284536 82.498529 
L 117.284536 96.838235 
L 102.94483 96.838235 
L 102.94483 82.498529 
" style="fill:#539ecd;"/>
    <path clip-path="url(#pe8399683c1)" d="M 117.284536 82.498529 
L 131.624242 82.498529 
L 131.624242 96.838235 
L 117.284536 96.838235 
L 117.284536 82.498529 
" style="fill:#539ecd;"/>
    <path clip-path="url(#pe8399683c1)" d="M 131.624242 82.498529 
L 145.963948 82.498529 
L 145.963948 96.838235 
L 131.624242 96.838235 
L 131.624242 82.498529 
" style="fill:#2b7bba;"/>
    <path clip-path="url(#pe8399683c1)" d="M 145.963948 82.498529 
L 160.303654 82.498529 
L 160.303654 96.838235 
L 145.963948 96.838235 
L 145.963948 82.498529 
" style="fill:#89bedc;"/>
    <path clip-path="url(#pe8399683c1)" d="M 160.303654 82.498529 
L 174.643359 82.498529 
L 174.643359 96.838235 
L 160.303654 96.838235 
L 160.303654 82.498529 
" style="fill:#89bedc;"/>
    <path clip-path="url(#pe8399683c1)" d="M 174.643359 82.498529 
L 188.983065 82.498529 
L 188.983065 96.838235 
L 174.643359 96.838235 
L 174.643359 82.498529 
" style="fill:none;"/>
    <path clip-path="url(#pe8399683c1)" d="M 188.983065 82.498529 
L 203.322771 82.498529 
L 203.322771 96.838235 
L 188.983065 96.838235 
L 188.983065 82.498529 
" style="fill:none;"/>
    <path clip-path="url(#pe8399683c1)" d="M 203.322771 82.498529 
L 217.662477 82.498529 
L 217.662477 96.838235 
L 203.322771 96.838235 
L 203.322771 82.498529 
" style="fill:none;"/>
    <path clip-path="url(#pe8399683c1)" d="M 217.662477 82.498529 
L 232.002183 82.498529 
L 232.002183 96.838235 
L 217.662477 96.838235 
L 217.662477 82.498529 
" style="fill:none;"/>
    <path clip-path="url(#pe8399683c1)" d="M 232.002183 82.498529 
L 246.341889 82.498529 
L 246.341889 96.838235 
L 232.002183 96.838235 
L 232.002183 82.498529 
" style="fill:none;"/>
    <path clip-path="url(#pe8399683c1)" d="M 246.341889 82.498529 
L 260.681595 82.498529 
L 260.681595 96.838235 
L 246.341889 96.838235 
L 246.341889 82.498529 
" style="fill:none;"/>
    <path clip-path="url(#pe8399683c1)" d="M 260.681595 82.498529 
L 275.021301 82.498529 
L 275.021301 96.838235 
L 260.681595 96.838235 
L 260.681595 82.498529 
" style="fill:none;"/>
    <path clip-path="url(#pe8399683c1)" d="M 275.021301 82.498529 
L 289.361006 82.498529 
L 289.361006 96.838235 
L 275.021301 96.838235 
L 275.021301 82.498529 
" style="fill:none;"/>
    <path clip-path="url(#pe8399683c1)" d="M 289.361006 82.498529 
L 303.700712 82.498529 
L 303.700712 96.838235 
L 289.361006 96.838235 
L 289.361006 82.498529 
" style="fill:none;"/>
    <path clip-path="url(#pe8399683c1)" d="M 303.700712 82.498529 
L 318.040418 82.498529 
L 318.040418 96.838235 
L 303.700712 96.838235 
L 303.700712 82.498529 
" style="fill:none;"/>
    <path clip-path="url(#pe8399683c1)" d="M 318.040418 82.498529 
L 332.380124 82.498529 
L 332.380124 96.838235 
L 318.040418 96.838235 
L 318.040418 82.498529 
" style="fill:none;"/>
    <path clip-path="url(#pe8399683c1)" d="M 332.380124 82.498529 
L 346.71983 82.498529 
L 346.71983 96.838235 
L 332.380124 96.838235 
L 332.380124 82.498529 
" style="fill:none;"/>
    <path clip-path="url(#pe8399683c1)" d="M 102.94483 96.838235 
L 117.284536 96.838235 
L 117.284536 111.177941 
L 102.94483 111.177941 
L 102.94483 96.838235 
" style="fill:#539ecd;"/>
    <path clip-path="url(#pe8399683c1)" d="M 117.284536 96.838235 
L 131.624242 96.838235 
L 131.624242 111.177941 
L 117.284536 111.177941 
L 117.284536 96.838235 
" style="fill:#539ecd;"/>
    <path clip-path="url(#pe8399683c1)" d="M 131.624242 96.838235 
L 145.963948 96.838235 
L 145.963948 111.177941 
L 131.624242 111.177941 
L 131.624242 96.838235 
" style="fill:#2b7bba;"/>
    <path clip-path="url(#pe8399683c1)" d="M 145.963948 96.838235 
L 160.303654 96.838235 
L 160.303654 111.177941 
L 145.963948 111.177941 
L 145.963948 96.838235 
" style="fill:#89bedc;"/>
    <path clip-path="url(#pe8399683c1)" d="M 160.303654 96.838235 
L 174.643359 96.838235 
L 174.643359 111.177941 
L 160.303654 111.177941 
L 160.303654 96.838235 
" style="fill:#89bedc;"/>
    <path clip-path="url(#pe8399683c1)" d="M 174.643359 96.838235 
L 188.983065 96.838235 
L 188.983065 111.177941 
L 174.643359 111.177941 
L 174.643359 96.838235 
" style="fill:#2b7bba;"/>
    <path clip-path="url(#pe8399683c1)" d="M 188.983065 96.838235 
L 203.322771 96.838235 
L 203.322771 111.177941 
L 188.983065 111.177941 
L 188.983065 96.838235 
" style="fill:none;"/>
    <path clip-path="url(#pe8399683c1)" d="M 203.322771 96.838235 
L 217.662477 96.838235 
L 217.662477 111.177941 
L 203.322771 111.177941 
L 203.322771 96.838235 
" style="fill:none;"/>
    <path clip-path="url(#pe8399683c1)" d="M 217.662477 96.838235 
L 232.002183 96.838235 
L 232.002183 111.177941 
L 217.662477 111.177941 
L 217.662477 96.838235 
" style="fill:none;"/>
    <path clip-path="url(#pe8399683c1)" d="M 232.002183 96.838235 
L 246.341889 96.838235 
L 246.341889 111.177941 
L 232.002183 111.177941 
L 232.002183 96.838235 
" style="fill:none;"/>
    <path clip-path="url(#pe8399683c1)" d="M 246.341889 96.838235 
L 260.681595 96.838235 
L 260.681595 111.177941 
L 246.341889 111.177941 
L 246.341889 96.838235 
" style="fill:none;"/>
    <path clip-path="url(#pe8399683c1)" d="M 260.681595 96.838235 
L 275.021301 96.838235 
L 275.021301 111.177941 
L 260.681595 111.177941 
L 260.681595 96.838235 
" style="fill:none;"/>
    <path clip-path="url(#pe8399683c1)" d="M 275.021301 96.838235 
L 289.361006 96.838235 
L 289.361006 111.177941 
L 275.021301 111.177941 
L 275.021301 96.838235 
" style="fill:none;"/>
    <path clip-path="url(#pe8399683c1)" d="M 289.361006 96.838235 
L 303.700712 96.838235 
L 303.700712 111.177941 
L 289.361006 111.177941 
L 289.361006 96.838235 
" style="fill:none;"/>
    <path clip-path="url(#pe8399683c1)" d="M 303.700712 96.838235 
L 318.040418 96.838235 
L 318.040418 111.177941 
L 303.700712 111.177941 
L 303.700712 96.838235 
" style="fill:none;"/>
    <path clip-path="url(#pe8399683c1)" d="M 318.040418 96.838235 
L 332.380124 96.838235 
L 332.380124 111.177941 
L 318.040418 111.177941 
L 318.040418 96.838235 
" style="fill:none;"/>
    <path clip-path="url(#pe8399683c1)" d="M 332.380124 96.838235 
L 346.71983 96.838235 
L 346.71983 111.177941 
L 332.380124 111.177941 
L 332.380124 96.838235 
" style="fill:none;"/>
    <path clip-path="url(#pe8399683c1)" d="M 102.94483 111.177941 
L 117.284536 111.177941 
L 117.284536 125.517647 
L 102.94483 125.517647 
L 102.94483 111.177941 
" style="fill:#2b7bba;"/>
    <path clip-path="url(#pe8399683c1)" d="M 117.284536 111.177941 
L 131.624242 111.177941 
L 131.624242 125.517647 
L 117.284536 125.517647 
L 117.284536 111.177941 
" style="fill:#539ecd;"/>
    <path clip-path="url(#pe8399683c1)" d="M 131.624242 111.177941 
L 145.963948 111.177941 
L 145.963948 125.517647 
L 131.624242 125.517647 
L 131.624242 111.177941 
" style="fill:#0b559f;"/>
    <path clip-path="url(#pe8399683c1)" d="M 145.963948 111.177941 
L 160.303654 111.177941 
L 160.303654 125.517647 
L 145.963948 125.517647 
L 145.963948 111.177941 
" style="fill:#89bedc;"/>
    <path clip-path="url(#pe8399683c1)" d="M 160.303654 111.177941 
L 174.643359 111.177941 
L 174.643359 125.517647 
L 160.303654 125.517647 
L 160.303654 111.177941 
" style="fill:#89bedc;"/>
    <path clip-path="url(#pe8399683c1)" d="M 174.643359 111.177941 
L 188.983065 111.177941 
L 188.983065 125.517647 
L 174.643359 125.517647 
L 174.643359 111.177941 
" style="fill:#2b7bba;"/>
    <path clip-path="url(#pe8399683c1)" d="M 188.983065 111.177941 
L 203.322771 111.177941 
L 203.322771 125.517647 
L 188.983065 125.517647 
L 188.983065 111.177941 
" style="fill:#2b7bba;"/>
    <path clip-path="url(#pe8399683c1)" d="M 203.322771 111.177941 
L 217.662477 111.177941 
L 217.662477 125.517647 
L 203.322771 125.517647 
L 203.322771 111.177941 
" style="fill:none;"/>
    <path clip-path="url(#pe8399683c1)" d="M 217.662477 111.177941 
L 232.002183 111.177941 
L 232.002183 125.517647 
L 217.662477 125.517647 
L 217.662477 111.177941 
" style="fill:none;"/>
    <path clip-path="url(#pe8399683c1)" d="M 232.002183 111.177941 
L 246.341889 111.177941 
L 246.341889 125.517647 
L 232.002183 125.517647 
L 232.002183 111.177941 
" style="fill:none;"/>
    <path clip-path="url(#pe8399683c1)" d="M 246.341889 111.177941 
L 260.681595 111.177941 
L 260.681595 125.517647 
L 246.341889 125.517647 
L 246.341889 111.177941 
" style="fill:none;"/>
    <path clip-path="url(#pe8399683c1)" d="M 260.681595 111.177941 
L 275.021301 111.177941 
L 275.021301 125.517647 
L 260.681595 125.517647 
L 260.681595 111.177941 
" style="fill:none;"/>
    <path clip-path="url(#pe8399683c1)" d="M 275.021301 111.177941 
L 289.361006 111.177941 
L 289.361006 125.517647 
L 275.021301 125.517647 
L 275.021301 111.177941 
" style="fill:none;"/>
    <path clip-path="url(#pe8399683c1)" d="M 289.361006 111.177941 
L 303.700712 111.177941 
L 303.700712 125.517647 
L 289.361006 125.517647 
L 289.361006 111.177941 
" style="fill:none;"/>
    <path clip-path="url(#pe8399683c1)" d="M 303.700712 111.177941 
L 318.040418 111.177941 
L 318.040418 125.517647 
L 303.700712 125.517647 
L 303.700712 111.177941 
" style="fill:none;"/>
    <path clip-path="url(#pe8399683c1)" d="M 318.040418 111.177941 
L 332.380124 111.177941 
L 332.380124 125.517647 
L 318.040418 125.517647 
L 318.040418 111.177941 
" style="fill:none;"/>
    <path clip-path="url(#pe8399683c1)" d="M 332.380124 111.177941 
L 346.71983 111.177941 
L 346.71983 125.517647 
L 332.380124 125.517647 
L 332.380124 111.177941 
" style="fill:none;"/>
    <path clip-path="url(#pe8399683c1)" d="M 102.94483 125.517647 
L 117.284536 125.517647 
L 117.284536 139.857353 
L 102.94483 139.857353 
L 102.94483 125.517647 
" style="fill:#2b7bba;"/>
    <path clip-path="url(#pe8399683c1)" d="M 117.284536 125.517647 
L 131.624242 125.517647 
L 131.624242 139.857353 
L 117.284536 139.857353 
L 117.284536 125.517647 
" style="fill:#539ecd;"/>
    <path clip-path="url(#pe8399683c1)" d="M 131.624242 125.517647 
L 145.963948 125.517647 
L 145.963948 139.857353 
L 131.624242 139.857353 
L 131.624242 125.517647 
" style="fill:#0b559f;"/>
    <path clip-path="url(#pe8399683c1)" d="M 145.963948 125.517647 
L 160.303654 125.517647 
L 160.303654 139.857353 
L 145.963948 139.857353 
L 145.963948 125.517647 
" style="fill:#89bedc;"/>
    <path clip-path="url(#pe8399683c1)" d="M 160.303654 125.517647 
L 174.643359 125.517647 
L 174.643359 139.857353 
L 160.303654 139.857353 
L 160.303654 125.517647 
" style="fill:#89bedc;"/>
    <path clip-path="url(#pe8399683c1)" d="M 174.643359 125.517647 
L 188.983065 125.517647 
L 188.983065 139.857353 
L 174.643359 139.857353 
L 174.643359 125.517647 
" style="fill:#2b7bba;"/>
    <path clip-path="url(#pe8399683c1)" d="M 188.983065 125.517647 
L 203.322771 125.517647 
L 203.322771 139.857353 
L 188.983065 139.857353 
L 188.983065 125.517647 
" style="fill:#2b7bba;"/>
    <path clip-path="url(#pe8399683c1)" d="M 203.322771 125.517647 
L 217.662477 125.517647 
L 217.662477 139.857353 
L 203.322771 139.857353 
L 203.322771 125.517647 
" style="fill:#0b559f;"/>
    <path clip-path="url(#pe8399683c1)" d="M 217.662477 125.517647 
L 232.002183 125.517647 
L 232.002183 139.857353 
L 217.662477 139.857353 
L 217.662477 125.517647 
" style="fill:none;"/>
    <path clip-path="url(#pe8399683c1)" d="M 232.002183 125.517647 
L 246.341889 125.517647 
L 246.341889 139.857353 
L 232.002183 139.857353 
L 232.002183 125.517647 
" style="fill:none;"/>
    <path clip-path="url(#pe8399683c1)" d="M 246.341889 125.517647 
L 260.681595 125.517647 
L 260.681595 139.857353 
L 246.341889 139.857353 
L 246.341889 125.517647 
" style="fill:none;"/>
    <path clip-path="url(#pe8399683c1)" d="M 260.681595 125.517647 
L 275.021301 125.517647 
L 275.021301 139.857353 
L 260.681595 139.857353 
L 260.681595 125.517647 
" style="fill:none;"/>
    <path clip-path="url(#pe8399683c1)" d="M 275.021301 125.517647 
L 289.361006 125.517647 
L 289.361006 139.857353 
L 275.021301 139.857353 
L 275.021301 125.517647 
" style="fill:none;"/>
    <path clip-path="url(#pe8399683c1)" d="M 289.361006 125.517647 
L 303.700712 125.517647 
L 303.700712 139.857353 
L 289.361006 139.857353 
L 289.361006 125.517647 
" style="fill:none;"/>
    <path clip-path="url(#pe8399683c1)" d="M 303.700712 125.517647 
L 318.040418 125.517647 
L 318.040418 139.857353 
L 303.700712 139.857353 
L 303.700712 125.517647 
" style="fill:none;"/>
    <path clip-path="url(#pe8399683c1)" d="M 318.040418 125.517647 
L 332.380124 125.517647 
L 332.380124 139.857353 
L 318.040418 139.857353 
L 318.040418 125.517647 
" style="fill:none;"/>
    <path clip-path="url(#pe8399683c1)" d="M 332.380124 125.517647 
L 346.71983 125.517647 
L 346.71983 139.857353 
L 332.380124 139.857353 
L 332.380124 125.517647 
" style="fill:none;"/>
    <path clip-path="url(#pe8399683c1)" d="M 102.94483 139.857353 
L 117.284536 139.857353 
L 117.284536 154.197059 
L 102.94483 154.197059 
L 102.94483 139.857353 
" style="fill:#2b7bba;"/>
    <path clip-path="url(#pe8399683c1)" d="M 117.284536 139.857353 
L 131.624242 139.857353 
L 131.624242 154.197059 
L 117.284536 154.197059 
L 117.284536 139.857353 
" style="fill:#2b7bba;"/>
    <path clip-path="url(#pe8399683c1)" d="M 131.624242 139.857353 
L 145.963948 139.857353 
L 145.963948 154.197059 
L 131.624242 154.197059 
L 131.624242 139.857353 
" style="fill:#0b559f;"/>
    <path clip-path="url(#pe8399683c1)" d="M 145.963948 139.857353 
L 160.303654 139.857353 
L 160.303654 154.197059 
L 145.963948 154.197059 
L 145.963948 139.857353 
" style="fill:#89bedc;"/>
    <path clip-path="url(#pe8399683c1)" d="M 160.303654 139.857353 
L 174.643359 139.857353 
L 174.643359 154.197059 
L 160.303654 154.197059 
L 160.303654 139.857353 
" style="fill:#89bedc;"/>
    <path clip-path="url(#pe8399683c1)" d="M 174.643359 139.857353 
L 188.983065 139.857353 
L 188.983065 154.197059 
L 174.643359 154.197059 
L 174.643359 139.857353 
" style="fill:#2b7bba;"/>
    <path clip-path="url(#pe8399683c1)" d="M 188.983065 139.857353 
L 203.322771 139.857353 
L 203.322771 154.197059 
L 188.983065 154.197059 
L 188.983065 139.857353 
" style="fill:#2b7bba;"/>
    <path clip-path="url(#pe8399683c1)" d="M 203.322771 139.857353 
L 217.662477 139.857353 
L 217.662477 154.197059 
L 203.322771 154.197059 
L 203.322771 139.857353 
" style="fill:#0b559f;"/>
    <path clip-path="url(#pe8399683c1)" d="M 217.662477 139.857353 
L 232.002183 139.857353 
L 232.002183 154.197059 
L 217.662477 154.197059 
L 217.662477 139.857353 
" style="fill:#0b559f;"/>
    <path clip-path="url(#pe8399683c1)" d="M 232.002183 139.857353 
L 246.341889 139.857353 
L 246.341889 154.197059 
L 232.002183 154.197059 
L 232.002183 139.857353 
" style="fill:none;"/>
    <path clip-path="url(#pe8399683c1)" d="M 246.341889 139.857353 
L 260.681595 139.857353 
L 260.681595 154.197059 
L 246.341889 154.197059 
L 246.341889 139.857353 
" style="fill:none;"/>
    <path clip-path="url(#pe8399683c1)" d="M 260.681595 139.857353 
L 275.021301 139.857353 
L 275.021301 154.197059 
L 260.681595 154.197059 
L 260.681595 139.857353 
" style="fill:none;"/>
    <path clip-path="url(#pe8399683c1)" d="M 275.021301 139.857353 
L 289.361006 139.857353 
L 289.361006 154.197059 
L 275.021301 154.197059 
L 275.021301 139.857353 
" style="fill:none;"/>
    <path clip-path="url(#pe8399683c1)" d="M 289.361006 139.857353 
L 303.700712 139.857353 
L 303.700712 154.197059 
L 289.361006 154.197059 
L 289.361006 139.857353 
" style="fill:none;"/>
    <path clip-path="url(#pe8399683c1)" d="M 303.700712 139.857353 
L 318.040418 139.857353 
L 318.040418 154.197059 
L 303.700712 154.197059 
L 303.700712 139.857353 
" style="fill:none;"/>
    <path clip-path="url(#pe8399683c1)" d="M 318.040418 139.857353 
L 332.380124 139.857353 
L 332.380124 154.197059 
L 318.040418 154.197059 
L 318.040418 139.857353 
" style="fill:none;"/>
    <path clip-path="url(#pe8399683c1)" d="M 332.380124 139.857353 
L 346.71983 139.857353 
L 346.71983 154.197059 
L 332.380124 154.197059 
L 332.380124 139.857353 
" style="fill:none;"/>
    <path clip-path="url(#pe8399683c1)" d="M 102.94483 154.197059 
L 117.284536 154.197059 
L 117.284536 168.536765 
L 102.94483 168.536765 
L 102.94483 154.197059 
" style="fill:#2b7bba;"/>
    <path clip-path="url(#pe8399683c1)" d="M 117.284536 154.197059 
L 131.624242 154.197059 
L 131.624242 168.536765 
L 117.284536 168.536765 
L 117.284536 154.197059 
" style="fill:#2b7bba;"/>
    <path clip-path="url(#pe8399683c1)" d="M 131.624242 154.197059 
L 145.963948 154.197059 
L 145.963948 168.536765 
L 131.624242 168.536765 
L 131.624242 154.197059 
" style="fill:#0b559f;"/>
    <path clip-path="url(#pe8399683c1)" d="M 145.963948 154.197059 
L 160.303654 154.197059 
L 160.303654 168.536765 
L 145.963948 168.536765 
L 145.963948 154.197059 
" style="fill:#539ecd;"/>
    <path clip-path="url(#pe8399683c1)" d="M 160.303654 154.197059 
L 174.643359 154.197059 
L 174.643359 168.536765 
L 160.303654 168.536765 
L 160.303654 154.197059 
" style="fill:#89bedc;"/>
    <path clip-path="url(#pe8399683c1)" d="M 174.643359 154.197059 
L 188.983065 154.197059 
L 188.983065 168.536765 
L 174.643359 168.536765 
L 174.643359 154.197059 
" style="fill:#0b559f;"/>
    <path clip-path="url(#pe8399683c1)" d="M 188.983065 154.197059 
L 203.322771 154.197059 
L 203.322771 168.536765 
L 188.983065 168.536765 
L 188.983065 154.197059 
" style="fill:#2b7bba;"/>
    <path clip-path="url(#pe8399683c1)" d="M 203.322771 154.197059 
L 217.662477 154.197059 
L 217.662477 168.536765 
L 203.322771 168.536765 
L 203.322771 154.197059 
" style="fill:#0b559f;"/>
    <path clip-path="url(#pe8399683c1)" d="M 217.662477 154.197059 
L 232.002183 154.197059 
L 232.002183 168.536765 
L 217.662477 168.536765 
L 217.662477 154.197059 
" style="fill:#0b559f;"/>
    <path clip-path="url(#pe8399683c1)" d="M 232.002183 154.197059 
L 246.341889 154.197059 
L 246.341889 168.536765 
L 232.002183 168.536765 
L 232.002183 154.197059 
" style="fill:#0b559f;"/>
    <path clip-path="url(#pe8399683c1)" d="M 246.341889 154.197059 
L 260.681595 154.197059 
L 260.681595 168.536765 
L 246.341889 168.536765 
L 246.341889 154.197059 
" style="fill:none;"/>
    <path clip-path="url(#pe8399683c1)" d="M 260.681595 154.197059 
L 275.021301 154.197059 
L 275.021301 168.536765 
L 260.681595 168.536765 
L 260.681595 154.197059 
" style="fill:none;"/>
    <path clip-path="url(#pe8399683c1)" d="M 275.021301 154.197059 
L 289.361006 154.197059 
L 289.361006 168.536765 
L 275.021301 168.536765 
L 275.021301 154.197059 
" style="fill:none;"/>
    <path clip-path="url(#pe8399683c1)" d="M 289.361006 154.197059 
L 303.700712 154.197059 
L 303.700712 168.536765 
L 289.361006 168.536765 
L 289.361006 154.197059 
" style="fill:none;"/>
    <path clip-path="url(#pe8399683c1)" d="M 303.700712 154.197059 
L 318.040418 154.197059 
L 318.040418 168.536765 
L 303.700712 168.536765 
L 303.700712 154.197059 
" style="fill:none;"/>
    <path clip-path="url(#pe8399683c1)" d="M 318.040418 154.197059 
L 332.380124 154.197059 
L 332.380124 168.536765 
L 318.040418 168.536765 
L 318.040418 154.197059 
" style="fill:none;"/>
    <path clip-path="url(#pe8399683c1)" d="M 332.380124 154.197059 
L 346.71983 154.197059 
L 346.71983 168.536765 
L 332.380124 168.536765 
L 332.380124 154.197059 
" style="fill:none;"/>
    <path clip-path="url(#pe8399683c1)" d="M 102.94483 168.536765 
L 117.284536 168.536765 
L 117.284536 182.876471 
L 102.94483 182.876471 
L 102.94483 168.536765 
" style="fill:#2b7bba;"/>
    <path clip-path="url(#pe8399683c1)" d="M 117.284536 168.536765 
L 131.624242 168.536765 
L 131.624242 182.876471 
L 117.284536 182.876471 
L 117.284536 168.536765 
" style="fill:#539ecd;"/>
    <path clip-path="url(#pe8399683c1)" d="M 131.624242 168.536765 
L 145.963948 168.536765 
L 145.963948 182.876471 
L 131.624242 182.876471 
L 131.624242 168.536765 
" style="fill:#0b559f;"/>
    <path clip-path="url(#pe8399683c1)" d="M 145.963948 168.536765 
L 160.303654 168.536765 
L 160.303654 182.876471 
L 145.963948 182.876471 
L 145.963948 168.536765 
" style="fill:#89bedc;"/>
    <path clip-path="url(#pe8399683c1)" d="M 160.303654 168.536765 
L 174.643359 168.536765 
L 174.643359 182.876471 
L 160.303654 182.876471 
L 160.303654 168.536765 
" style="fill:#89bedc;"/>
    <path clip-path="url(#pe8399683c1)" d="M 174.643359 168.536765 
L 188.983065 168.536765 
L 188.983065 182.876471 
L 174.643359 182.876471 
L 174.643359 168.536765 
" style="fill:#2b7bba;"/>
    <path clip-path="url(#pe8399683c1)" d="M 188.983065 168.536765 
L 203.322771 168.536765 
L 203.322771 182.876471 
L 188.983065 182.876471 
L 188.983065 168.536765 
" style="fill:#2b7bba;"/>
    <path clip-path="url(#pe8399683c1)" d="M 203.322771 168.536765 
L 217.662477 168.536765 
L 217.662477 182.876471 
L 203.322771 182.876471 
L 203.322771 168.536765 
" style="fill:#0b559f;"/>
    <path clip-path="url(#pe8399683c1)" d="M 217.662477 168.536765 
L 232.002183 168.536765 
L 232.002183 182.876471 
L 217.662477 182.876471 
L 217.662477 168.536765 
" style="fill:#0b559f;"/>
    <path clip-path="url(#pe8399683c1)" d="M 232.002183 168.536765 
L 246.341889 168.536765 
L 246.341889 182.876471 
L 232.002183 182.876471 
L 232.002183 168.536765 
" style="fill:#2b7bba;"/>
    <path clip-path="url(#pe8399683c1)" d="M 246.341889 168.536765 
L 260.681595 168.536765 
L 260.681595 182.876471 
L 246.341889 182.876471 
L 246.341889 168.536765 
" style="fill:#0b559f;"/>
    <path clip-path="url(#pe8399683c1)" d="M 260.681595 168.536765 
L 275.021301 168.536765 
L 275.021301 182.876471 
L 260.681595 182.876471 
L 260.681595 168.536765 
" style="fill:none;"/>
    <path clip-path="url(#pe8399683c1)" d="M 275.021301 168.536765 
L 289.361006 168.536765 
L 289.361006 182.876471 
L 275.021301 182.876471 
L 275.021301 168.536765 
" style="fill:none;"/>
    <path clip-path="url(#pe8399683c1)" d="M 289.361006 168.536765 
L 303.700712 168.536765 
L 303.700712 182.876471 
L 289.361006 182.876471 
L 289.361006 168.536765 
" style="fill:none;"/>
    <path clip-path="url(#pe8399683c1)" d="M 303.700712 168.536765 
L 318.040418 168.536765 
L 318.040418 182.876471 
L 303.700712 182.876471 
L 303.700712 168.536765 
" style="fill:none;"/>
    <path clip-path="url(#pe8399683c1)" d="M 318.040418 168.536765 
L 332.380124 168.536765 
L 332.380124 182.876471 
L 318.040418 182.876471 
L 318.040418 168.536765 
" style="fill:none;"/>
    <path clip-path="url(#pe8399683c1)" d="M 332.380124 168.536765 
L 346.71983 168.536765 
L 346.71983 182.876471 
L 332.380124 182.876471 
L 332.380124 168.536765 
" style="fill:none;"/>
    <path clip-path="url(#pe8399683c1)" d="M 102.94483 182.876471 
L 117.284536 182.876471 
L 117.284536 197.216176 
L 102.94483 197.216176 
L 102.94483 182.876471 
" style="fill:#2b7bba;"/>
    <path clip-path="url(#pe8399683c1)" d="M 117.284536 182.876471 
L 131.624242 182.876471 
L 131.624242 197.216176 
L 117.284536 197.216176 
L 117.284536 182.876471 
" style="fill:#2b7bba;"/>
    <path clip-path="url(#pe8399683c1)" d="M 131.624242 182.876471 
L 145.963948 182.876471 
L 145.963948 197.216176 
L 131.624242 197.216176 
L 131.624242 182.876471 
" style="fill:#0b559f;"/>
    <path clip-path="url(#pe8399683c1)" d="M 145.963948 182.876471 
L 160.303654 182.876471 
L 160.303654 197.216176 
L 145.963948 197.216176 
L 145.963948 182.876471 
" style="fill:#539ecd;"/>
    <path clip-path="url(#pe8399683c1)" d="M 160.303654 182.876471 
L 174.643359 182.876471 
L 174.643359 197.216176 
L 160.303654 197.216176 
L 160.303654 182.876471 
" style="fill:#89bedc;"/>
    <path clip-path="url(#pe8399683c1)" d="M 174.643359 182.876471 
L 188.983065 182.876471 
L 188.983065 197.216176 
L 174.643359 197.216176 
L 174.643359 182.876471 
" style="fill:#0b559f;"/>
    <path clip-path="url(#pe8399683c1)" d="M 188.983065 182.876471 
L 203.322771 182.876471 
L 203.322771 197.216176 
L 188.983065 197.216176 
L 188.983065 182.876471 
" style="fill:#2b7bba;"/>
    <path clip-path="url(#pe8399683c1)" d="M 203.322771 182.876471 
L 217.662477 182.876471 
L 217.662477 197.216176 
L 203.322771 197.216176 
L 203.322771 182.876471 
" style="fill:#0b559f;"/>
    <path clip-path="url(#pe8399683c1)" d="M 217.662477 182.876471 
L 232.002183 182.876471 
L 232.002183 197.216176 
L 217.662477 197.216176 
L 217.662477 182.876471 
" style="fill:#0b559f;"/>
    <path clip-path="url(#pe8399683c1)" d="M 232.002183 182.876471 
L 246.341889 182.876471 
L 246.341889 197.216176 
L 232.002183 197.216176 
L 232.002183 182.876471 
" style="fill:#0b559f;"/>
    <path clip-path="url(#pe8399683c1)" d="M 246.341889 182.876471 
L 260.681595 182.876471 
L 260.681595 197.216176 
L 246.341889 197.216176 
L 246.341889 182.876471 
" style="fill:#0b559f;"/>
    <path clip-path="url(#pe8399683c1)" d="M 260.681595 182.876471 
L 275.021301 182.876471 
L 275.021301 197.216176 
L 260.681595 197.216176 
L 260.681595 182.876471 
" style="fill:#0b559f;"/>
    <path clip-path="url(#pe8399683c1)" d="M 275.021301 182.876471 
L 289.361006 182.876471 
L 289.361006 197.216176 
L 275.021301 197.216176 
L 275.021301 182.876471 
" style="fill:none;"/>
    <path clip-path="url(#pe8399683c1)" d="M 289.361006 182.876471 
L 303.700712 182.876471 
L 303.700712 197.216176 
L 289.361006 197.216176 
L 289.361006 182.876471 
" style="fill:none;"/>
    <path clip-path="url(#pe8399683c1)" d="M 303.700712 182.876471 
L 318.040418 182.876471 
L 318.040418 197.216176 
L 303.700712 197.216176 
L 303.700712 182.876471 
" style="fill:none;"/>
    <path clip-path="url(#pe8399683c1)" d="M 318.040418 182.876471 
L 332.380124 182.876471 
L 332.380124 197.216176 
L 318.040418 197.216176 
L 318.040418 182.876471 
" style="fill:none;"/>
    <path clip-path="url(#pe8399683c1)" d="M 332.380124 182.876471 
L 346.71983 182.876471 
L 346.71983 197.216176 
L 332.380124 197.216176 
L 332.380124 182.876471 
" style="fill:none;"/>
    <path clip-path="url(#pe8399683c1)" d="M 102.94483 197.216176 
L 117.284536 197.216176 
L 117.284536 211.555882 
L 102.94483 211.555882 
L 102.94483 197.216176 
" style="fill:#539ecd;"/>
    <path clip-path="url(#pe8399683c1)" d="M 117.284536 197.216176 
L 131.624242 197.216176 
L 131.624242 211.555882 
L 117.284536 211.555882 
L 117.284536 197.216176 
" style="fill:#89bedc;"/>
    <path clip-path="url(#pe8399683c1)" d="M 131.624242 197.216176 
L 145.963948 197.216176 
L 145.963948 211.555882 
L 131.624242 211.555882 
L 131.624242 197.216176 
" style="fill:#2b7bba;"/>
    <path clip-path="url(#pe8399683c1)" d="M 145.963948 197.216176 
L 160.303654 197.216176 
L 160.303654 211.555882 
L 145.963948 211.555882 
L 145.963948 197.216176 
" style="fill:#bad6eb;"/>
    <path clip-path="url(#pe8399683c1)" d="M 160.303654 197.216176 
L 174.643359 197.216176 
L 174.643359 211.555882 
L 160.303654 211.555882 
L 160.303654 197.216176 
" style="fill:#bad6eb;"/>
    <path clip-path="url(#pe8399683c1)" d="M 174.643359 197.216176 
L 188.983065 197.216176 
L 188.983065 211.555882 
L 174.643359 211.555882 
L 174.643359 197.216176 
" style="fill:#539ecd;"/>
    <path clip-path="url(#pe8399683c1)" d="M 188.983065 197.216176 
L 203.322771 197.216176 
L 203.322771 211.555882 
L 188.983065 211.555882 
L 188.983065 197.216176 
" style="fill:#539ecd;"/>
    <path clip-path="url(#pe8399683c1)" d="M 203.322771 197.216176 
L 217.662477 197.216176 
L 217.662477 211.555882 
L 203.322771 211.555882 
L 203.322771 197.216176 
" style="fill:#2b7bba;"/>
    <path clip-path="url(#pe8399683c1)" d="M 217.662477 197.216176 
L 232.002183 197.216176 
L 232.002183 211.555882 
L 217.662477 211.555882 
L 217.662477 197.216176 
" style="fill:#539ecd;"/>
    <path clip-path="url(#pe8399683c1)" d="M 232.002183 197.216176 
L 246.341889 197.216176 
L 246.341889 211.555882 
L 232.002183 211.555882 
L 232.002183 197.216176 
" style="fill:#2b7bba;"/>
    <path clip-path="url(#pe8399683c1)" d="M 246.341889 197.216176 
L 260.681595 197.216176 
L 260.681595 211.555882 
L 246.341889 211.555882 
L 246.341889 197.216176 
" style="fill:#2b7bba;"/>
    <path clip-path="url(#pe8399683c1)" d="M 260.681595 197.216176 
L 275.021301 197.216176 
L 275.021301 211.555882 
L 260.681595 211.555882 
L 260.681595 197.216176 
" style="fill:#2b7bba;"/>
    <path clip-path="url(#pe8399683c1)" d="M 275.021301 197.216176 
L 289.361006 197.216176 
L 289.361006 211.555882 
L 275.021301 211.555882 
L 275.021301 197.216176 
" style="fill:#2b7bba;"/>
    <path clip-path="url(#pe8399683c1)" d="M 289.361006 197.216176 
L 303.700712 197.216176 
L 303.700712 211.555882 
L 289.361006 211.555882 
L 289.361006 197.216176 
" style="fill:none;"/>
    <path clip-path="url(#pe8399683c1)" d="M 303.700712 197.216176 
L 318.040418 197.216176 
L 318.040418 211.555882 
L 303.700712 211.555882 
L 303.700712 197.216176 
" style="fill:none;"/>
    <path clip-path="url(#pe8399683c1)" d="M 318.040418 197.216176 
L 332.380124 197.216176 
L 332.380124 211.555882 
L 318.040418 211.555882 
L 318.040418 197.216176 
" style="fill:none;"/>
    <path clip-path="url(#pe8399683c1)" d="M 332.380124 197.216176 
L 346.71983 197.216176 
L 346.71983 211.555882 
L 332.380124 211.555882 
L 332.380124 197.216176 
" style="fill:none;"/>
    <path clip-path="url(#pe8399683c1)" d="M 102.94483 211.555882 
L 117.284536 211.555882 
L 117.284536 225.895588 
L 102.94483 225.895588 
L 102.94483 211.555882 
" style="fill:#2b7bba;"/>
    <path clip-path="url(#pe8399683c1)" d="M 117.284536 211.555882 
L 131.624242 211.555882 
L 131.624242 225.895588 
L 117.284536 225.895588 
L 117.284536 211.555882 
" style="fill:#2b7bba;"/>
    <path clip-path="url(#pe8399683c1)" d="M 131.624242 211.555882 
L 145.963948 211.555882 
L 145.963948 225.895588 
L 131.624242 225.895588 
L 131.624242 211.555882 
" style="fill:#0b559f;"/>
    <path clip-path="url(#pe8399683c1)" d="M 145.963948 211.555882 
L 160.303654 211.555882 
L 160.303654 225.895588 
L 145.963948 225.895588 
L 145.963948 211.555882 
" style="fill:#539ecd;"/>
    <path clip-path="url(#pe8399683c1)" d="M 160.303654 211.555882 
L 174.643359 211.555882 
L 174.643359 225.895588 
L 160.303654 225.895588 
L 160.303654 211.555882 
" style="fill:#89bedc;"/>
    <path clip-path="url(#pe8399683c1)" d="M 174.643359 211.555882 
L 188.983065 211.555882 
L 188.983065 225.895588 
L 174.643359 225.895588 
L 174.643359 211.555882 
" style="fill:#0b559f;"/>
    <path clip-path="url(#pe8399683c1)" d="M 188.983065 211.555882 
L 203.322771 211.555882 
L 203.322771 225.895588 
L 188.983065 225.895588 
L 188.983065 211.555882 
" style="fill:#2b7bba;"/>
    <path clip-path="url(#pe8399683c1)" d="M 203.322771 211.555882 
L 217.662477 211.555882 
L 217.662477 225.895588 
L 203.322771 225.895588 
L 203.322771 211.555882 
" style="fill:#0b559f;"/>
    <path clip-path="url(#pe8399683c1)" d="M 217.662477 211.555882 
L 232.002183 211.555882 
L 232.002183 225.895588 
L 217.662477 225.895588 
L 217.662477 211.555882 
" style="fill:#0b559f;"/>
    <path clip-path="url(#pe8399683c1)" d="M 232.002183 211.555882 
L 246.341889 211.555882 
L 246.341889 225.895588 
L 232.002183 225.895588 
L 232.002183 211.555882 
" style="fill:#0b559f;"/>
    <path clip-path="url(#pe8399683c1)" d="M 246.341889 211.555882 
L 260.681595 211.555882 
L 260.681595 225.895588 
L 246.341889 225.895588 
L 246.341889 211.555882 
" style="fill:#0b559f;"/>
    <path clip-path="url(#pe8399683c1)" d="M 260.681595 211.555882 
L 275.021301 211.555882 
L 275.021301 225.895588 
L 260.681595 225.895588 
L 260.681595 211.555882 
" style="fill:#0b559f;"/>
    <path clip-path="url(#pe8399683c1)" d="M 275.021301 211.555882 
L 289.361006 211.555882 
L 289.361006 225.895588 
L 275.021301 225.895588 
L 275.021301 211.555882 
" style="fill:#0b559f;"/>
    <path clip-path="url(#pe8399683c1)" d="M 289.361006 211.555882 
L 303.700712 211.555882 
L 303.700712 225.895588 
L 289.361006 225.895588 
L 289.361006 211.555882 
" style="fill:#2b7bba;"/>
    <path clip-path="url(#pe8399683c1)" d="M 303.700712 211.555882 
L 318.040418 211.555882 
L 318.040418 225.895588 
L 303.700712 225.895588 
L 303.700712 211.555882 
" style="fill:none;"/>
    <path clip-path="url(#pe8399683c1)" d="M 318.040418 211.555882 
L 332.380124 211.555882 
L 332.380124 225.895588 
L 318.040418 225.895588 
L 318.040418 211.555882 
" style="fill:none;"/>
    <path clip-path="url(#pe8399683c1)" d="M 332.380124 211.555882 
L 346.71983 211.555882 
L 346.71983 225.895588 
L 332.380124 225.895588 
L 332.380124 211.555882 
" style="fill:none;"/>
    <path clip-path="url(#pe8399683c1)" d="M 102.94483 225.895588 
L 117.284536 225.895588 
L 117.284536 240.235294 
L 102.94483 240.235294 
L 102.94483 225.895588 
" style="fill:#2b7bba;"/>
    <path clip-path="url(#pe8399683c1)" d="M 117.284536 225.895588 
L 131.624242 225.895588 
L 131.624242 240.235294 
L 117.284536 240.235294 
L 117.284536 225.895588 
" style="fill:#2b7bba;"/>
    <path clip-path="url(#pe8399683c1)" d="M 131.624242 225.895588 
L 145.963948 225.895588 
L 145.963948 240.235294 
L 131.624242 240.235294 
L 131.624242 225.895588 
" style="fill:#2b7bba;"/>
    <path clip-path="url(#pe8399683c1)" d="M 145.963948 225.895588 
L 160.303654 225.895588 
L 160.303654 240.235294 
L 145.963948 240.235294 
L 145.963948 225.895588 
" style="fill:#89bedc;"/>
    <path clip-path="url(#pe8399683c1)" d="M 160.303654 225.895588 
L 174.643359 225.895588 
L 174.643359 240.235294 
L 160.303654 240.235294 
L 160.303654 225.895588 
" style="fill:#89bedc;"/>
    <path clip-path="url(#pe8399683c1)" d="M 174.643359 225.895588 
L 188.983065 225.895588 
L 188.983065 240.235294 
L 174.643359 240.235294 
L 174.643359 225.895588 
" style="fill:#2b7bba;"/>
    <path clip-path="url(#pe8399683c1)" d="M 188.983065 225.895588 
L 203.322771 225.895588 
L 203.322771 240.235294 
L 188.983065 240.235294 
L 188.983065 225.895588 
" style="fill:#2b7bba;"/>
    <path clip-path="url(#pe8399683c1)" d="M 203.322771 225.895588 
L 217.662477 225.895588 
L 217.662477 240.235294 
L 203.322771 240.235294 
L 203.322771 225.895588 
" style="fill:#0b559f;"/>
    <path clip-path="url(#pe8399683c1)" d="M 217.662477 225.895588 
L 232.002183 225.895588 
L 232.002183 240.235294 
L 217.662477 240.235294 
L 217.662477 225.895588 
" style="fill:#0b559f;"/>
    <path clip-path="url(#pe8399683c1)" d="M 232.002183 225.895588 
L 246.341889 225.895588 
L 246.341889 240.235294 
L 232.002183 240.235294 
L 232.002183 225.895588 
" style="fill:#0b559f;"/>
    <path clip-path="url(#pe8399683c1)" d="M 246.341889 225.895588 
L 260.681595 225.895588 
L 260.681595 240.235294 
L 246.341889 240.235294 
L 246.341889 225.895588 
" style="fill:#0b559f;"/>
    <path clip-path="url(#pe8399683c1)" d="M 260.681595 225.895588 
L 275.021301 225.895588 
L 275.021301 240.235294 
L 260.681595 240.235294 
L 260.681595 225.895588 
" style="fill:#0b559f;"/>
    <path clip-path="url(#pe8399683c1)" d="M 275.021301 225.895588 
L 289.361006 225.895588 
L 289.361006 240.235294 
L 275.021301 240.235294 
L 275.021301 225.895588 
" style="fill:#0b559f;"/>
    <path clip-path="url(#pe8399683c1)" d="M 289.361006 225.895588 
L 303.700712 225.895588 
L 303.700712 240.235294 
L 289.361006 240.235294 
L 289.361006 225.895588 
" style="fill:#2b7bba;"/>
    <path clip-path="url(#pe8399683c1)" d="M 303.700712 225.895588 
L 318.040418 225.895588 
L 318.040418 240.235294 
L 303.700712 240.235294 
L 303.700712 225.895588 
" style="fill:#0b559f;"/>
    <path clip-path="url(#pe8399683c1)" d="M 318.040418 225.895588 
L 332.380124 225.895588 
L 332.380124 240.235294 
L 318.040418 240.235294 
L 318.040418 225.895588 
" style="fill:none;"/>
    <path clip-path="url(#pe8399683c1)" d="M 332.380124 225.895588 
L 346.71983 225.895588 
L 346.71983 240.235294 
L 332.380124 240.235294 
L 332.380124 225.895588 
" style="fill:none;"/>
    <path clip-path="url(#pe8399683c1)" d="M 102.94483 240.235294 
L 117.284536 240.235294 
L 117.284536 254.575 
L 102.94483 254.575 
L 102.94483 240.235294 
" style="fill:#539ecd;"/>
    <path clip-path="url(#pe8399683c1)" d="M 117.284536 240.235294 
L 131.624242 240.235294 
L 131.624242 254.575 
L 117.284536 254.575 
L 117.284536 240.235294 
" style="fill:#539ecd;"/>
    <path clip-path="url(#pe8399683c1)" d="M 131.624242 240.235294 
L 145.963948 240.235294 
L 145.963948 254.575 
L 131.624242 254.575 
L 131.624242 240.235294 
" style="fill:#2b7bba;"/>
    <path clip-path="url(#pe8399683c1)" d="M 145.963948 240.235294 
L 160.303654 240.235294 
L 160.303654 254.575 
L 145.963948 254.575 
L 145.963948 240.235294 
" style="fill:#89bedc;"/>
    <path clip-path="url(#pe8399683c1)" d="M 160.303654 240.235294 
L 174.643359 240.235294 
L 174.643359 254.575 
L 160.303654 254.575 
L 160.303654 240.235294 
" style="fill:#89bedc;"/>
    <path clip-path="url(#pe8399683c1)" d="M 174.643359 240.235294 
L 188.983065 240.235294 
L 188.983065 254.575 
L 174.643359 254.575 
L 174.643359 240.235294 
" style="fill:#2b7bba;"/>
    <path clip-path="url(#pe8399683c1)" d="M 188.983065 240.235294 
L 203.322771 240.235294 
L 203.322771 254.575 
L 188.983065 254.575 
L 188.983065 240.235294 
" style="fill:#539ecd;"/>
    <path clip-path="url(#pe8399683c1)" d="M 203.322771 240.235294 
L 217.662477 240.235294 
L 217.662477 254.575 
L 203.322771 254.575 
L 203.322771 240.235294 
" style="fill:#2b7bba;"/>
    <path clip-path="url(#pe8399683c1)" d="M 217.662477 240.235294 
L 232.002183 240.235294 
L 232.002183 254.575 
L 217.662477 254.575 
L 217.662477 240.235294 
" style="fill:#2b7bba;"/>
    <path clip-path="url(#pe8399683c1)" d="M 232.002183 240.235294 
L 246.341889 240.235294 
L 246.341889 254.575 
L 232.002183 254.575 
L 232.002183 240.235294 
" style="fill:#2b7bba;"/>
    <path clip-path="url(#pe8399683c1)" d="M 246.341889 240.235294 
L 260.681595 240.235294 
L 260.681595 254.575 
L 246.341889 254.575 
L 246.341889 240.235294 
" style="fill:#2b7bba;"/>
    <path clip-path="url(#pe8399683c1)" d="M 260.681595 240.235294 
L 275.021301 240.235294 
L 275.021301 254.575 
L 260.681595 254.575 
L 260.681595 240.235294 
" style="fill:#2b7bba;"/>
    <path clip-path="url(#pe8399683c1)" d="M 275.021301 240.235294 
L 289.361006 240.235294 
L 289.361006 254.575 
L 275.021301 254.575 
L 275.021301 240.235294 
" style="fill:#2b7bba;"/>
    <path clip-path="url(#pe8399683c1)" d="M 289.361006 240.235294 
L 303.700712 240.235294 
L 303.700712 254.575 
L 289.361006 254.575 
L 289.361006 240.235294 
" style="fill:#539ecd;"/>
    <path clip-path="url(#pe8399683c1)" d="M 303.700712 240.235294 
L 318.040418 240.235294 
L 318.040418 254.575 
L 303.700712 254.575 
L 303.700712 240.235294 
" style="fill:#2b7bba;"/>
    <path clip-path="url(#pe8399683c1)" d="M 318.040418 240.235294 
L 332.380124 240.235294 
L 332.380124 254.575 
L 318.040418 254.575 
L 318.040418 240.235294 
" style="fill:#2b7bba;"/>
    <path clip-path="url(#pe8399683c1)" d="M 332.380124 240.235294 
L 346.71983 240.235294 
L 346.71983 254.575 
L 332.380124 254.575 
L 332.380124 240.235294 
" style="fill:none;"/>
   </g>
  </g>
  <g id="axes_2">
   <g id="patch_3">
    <path clip-path="url(#pe127722a46)" d="M 366.47982 218.00875 
L 366.47982 189.568333 
L 366.47982 75.806667 
L 366.47982 47.36625 
L 370.745882 47.36625 
L 370.745882 75.806667 
L 370.745882 189.568333 
L 370.745882 218.00875 
z
" style="fill:#ffffff;stroke:#ffffff;stroke-linejoin:miter;stroke-width:0.01;"/>
   </g>
   <g id="matplotlib.axis_3"/>
   <g id="matplotlib.axis_4">
    <g id="ytick_18">
     <g id="line2d_35"/>
     <g id="text_35">
      <!-- 0.99925 -->
      <defs>
       <path d="M 10.6875 12.40625 
L 21 12.40625 
L 21 0 
L 10.6875 0 
z
" id="DejaVuSans-2e"/>
      </defs>
      <g style="fill:#262626;" transform="translate(374.245882 200.476342)scale(0.1 -0.1)">
       <use xlink:href="#DejaVuSans-30"/>
       <use x="63.623047" xlink:href="#DejaVuSans-2e"/>
       <use x="95.410156" xlink:href="#DejaVuSans-39"/>
       <use x="159.033203" xlink:href="#DejaVuSans-39"/>
       <use x="222.65625" xlink:href="#DejaVuSans-39"/>
       <use x="286.279297" xlink:href="#DejaVuSans-32"/>
       <use x="349.902344" xlink:href="#DejaVuSans-35"/>
      </g>
     </g>
    </g>
    <g id="ytick_19">
     <g id="line2d_36"/>
     <g id="text_36">
      <!-- 0.99940 -->
      <g style="fill:#262626;" transform="translate(374.245882 170.614167)scale(0.1 -0.1)">
       <use xlink:href="#DejaVuSans-30"/>
       <use x="63.623047" xlink:href="#DejaVuSans-2e"/>
       <use x="95.410156" xlink:href="#DejaVuSans-39"/>
       <use x="159.033203" xlink:href="#DejaVuSans-39"/>
       <use x="222.65625" xlink:href="#DejaVuSans-39"/>
       <use x="286.279297" xlink:href="#DejaVuSans-34"/>
       <use x="349.902344" xlink:href="#DejaVuSans-30"/>
      </g>
     </g>
    </g>
    <g id="ytick_20">
     <g id="line2d_37"/>
     <g id="text_37">
      <!-- 0.99955 -->
      <g style="fill:#262626;" transform="translate(374.245882 140.751993)scale(0.1 -0.1)">
       <use xlink:href="#DejaVuSans-30"/>
       <use x="63.623047" xlink:href="#DejaVuSans-2e"/>
       <use x="95.410156" xlink:href="#DejaVuSans-39"/>
       <use x="159.033203" xlink:href="#DejaVuSans-39"/>
       <use x="222.65625" xlink:href="#DejaVuSans-39"/>
       <use x="286.279297" xlink:href="#DejaVuSans-35"/>
       <use x="349.902344" xlink:href="#DejaVuSans-35"/>
      </g>
     </g>
    </g>
    <g id="ytick_21">
     <g id="line2d_38"/>
     <g id="text_38">
      <!-- 0.99970 -->
      <g style="fill:#262626;" transform="translate(374.245882 110.889818)scale(0.1 -0.1)">
       <use xlink:href="#DejaVuSans-30"/>
       <use x="63.623047" xlink:href="#DejaVuSans-2e"/>
       <use x="95.410156" xlink:href="#DejaVuSans-39"/>
       <use x="159.033203" xlink:href="#DejaVuSans-39"/>
       <use x="222.65625" xlink:href="#DejaVuSans-39"/>
       <use x="286.279297" xlink:href="#DejaVuSans-37"/>
       <use x="349.902344" xlink:href="#DejaVuSans-30"/>
      </g>
     </g>
    </g>
    <g id="ytick_22">
     <g id="line2d_39"/>
     <g id="text_39">
      <!-- 0.99985 -->
      <g style="fill:#262626;" transform="translate(374.245882 81.027643)scale(0.1 -0.1)">
       <use xlink:href="#DejaVuSans-30"/>
       <use x="63.623047" xlink:href="#DejaVuSans-2e"/>
       <use x="95.410156" xlink:href="#DejaVuSans-39"/>
       <use x="159.033203" xlink:href="#DejaVuSans-39"/>
       <use x="222.65625" xlink:href="#DejaVuSans-39"/>
       <use x="286.279297" xlink:href="#DejaVuSans-38"/>
       <use x="349.902344" xlink:href="#DejaVuSans-35"/>
      </g>
     </g>
    </g>
    <g id="ytick_23">
     <g id="line2d_40"/>
     <g id="text_40">
      <!-- 1.00000 -->
      <g style="fill:#262626;" transform="translate(374.245882 51.165469)scale(0.1 -0.1)">
       <use xlink:href="#DejaVuSans-31"/>
       <use x="63.623047" xlink:href="#DejaVuSans-2e"/>
       <use x="95.410156" xlink:href="#DejaVuSans-30"/>
       <use x="159.033203" xlink:href="#DejaVuSans-30"/>
       <use x="222.65625" xlink:href="#DejaVuSans-30"/>
       <use x="286.279297" xlink:href="#DejaVuSans-30"/>
       <use x="349.902344" xlink:href="#DejaVuSans-30"/>
      </g>
     </g>
    </g>
   </g>
   <g id="QuadMesh_2">
    <path clip-path="url(#pe127722a46)" d="M 366.47982 218.00875 
L 370.745882 218.00875 
L 370.745882 189.568333 
L 366.47982 189.568333 
L 366.47982 218.00875 
" style="fill:#dbe9f6;"/>
    <path clip-path="url(#pe127722a46)" d="M 366.47982 189.568333 
L 370.745882 189.568333 
L 370.745882 161.127917 
L 366.47982 161.127917 
L 366.47982 189.568333 
" style="fill:#bad6eb;"/>
    <path clip-path="url(#pe127722a46)" d="M 366.47982 161.127917 
L 370.745882 161.127917 
L 370.745882 132.6875 
L 366.47982 132.6875 
L 366.47982 161.127917 
" style="fill:#89bedc;"/>
    <path clip-path="url(#pe127722a46)" d="M 366.47982 132.6875 
L 370.745882 132.6875 
L 370.745882 104.247083 
L 366.47982 104.247083 
L 366.47982 132.6875 
" style="fill:#539ecd;"/>
    <path clip-path="url(#pe127722a46)" d="M 366.47982 104.247083 
L 370.745882 104.247083 
L 370.745882 75.806667 
L 366.47982 75.806667 
L 366.47982 104.247083 
" style="fill:#2b7bba;"/>
    <path clip-path="url(#pe127722a46)" d="M 366.47982 75.806667 
L 370.745882 75.806667 
L 370.745882 47.36625 
L 366.47982 47.36625 
L 366.47982 75.806667 
" style="fill:#0b559f;"/>
   </g>
   <g id="patch_4">
    <path d="M 366.47982 218.00875 
L 366.47982 189.568333 
L 366.47982 75.806667 
L 366.47982 47.36625 
L 370.745882 47.36625 
L 370.745882 75.806667 
L 370.745882 189.568333 
L 370.745882 218.00875 
z
" style="fill:none;"/>
   </g>
  </g>
 </g>
 <defs>
  <clipPath id="pe8399683c1">
   <rect height="243.775" width="243.775" x="102.94483" y="10.8"/>
  </clipPath>
  <clipPath id="pe127722a46">
   <rect height="170.6425" width="4.266062" x="366.47982" y="47.36625"/>
  </clipPath>
 </defs>
</svg>
