<?xml version="1.0" encoding="utf-8" standalone="no"?>
<!DOCTYPE svg PUBLIC "-//W3C//DTD SVG 1.1//EN"
  "http://www.w3.org/Graphics/SVG/1.1/DTD/svg11.dtd">
<!-- Created with matplotlib (http://matplotlib.org/) -->
<svg height="288pt" version="1.1" viewBox="0 0 360 288" width="360pt" xmlns="http://www.w3.org/2000/svg" xmlns:xlink="http://www.w3.org/1999/xlink">
 <defs>
  <style type="text/css">
*{stroke-linecap:butt;stroke-linejoin:round;}
  </style>
 </defs>
 <g id="figure_1">
  <g id="patch_1">
   <path d="M 0 288 
L 360 288 
L 360 0 
L 0 0 
z
" style="fill:#ffffff;"/>
  </g>
  <g id="axes_1">
   <g id="patch_2">
    <path d="M 45 252 
L 324 252 
L 324 34.56 
L 45 34.56 
z
" style="fill:#ffffff;"/>
   </g>
   <g id="matplotlib.axis_1">
    <g id="xtick_1">
     <g id="line2d_1">
      <path clip-path="url(#p30efae5a14)" d="M 48.935737 252 
L 48.935737 34.56 
" style="fill:none;stroke:#cccccc;stroke-linecap:round;stroke-width:0.8;"/>
     </g>
     <g id="line2d_2"/>
     <g id="text_1">
      <!-- 0 -->
      <defs>
       <path d="M 31.78125 66.40625 
Q 24.171875 66.40625 20.328125 58.90625 
Q 16.5 51.421875 16.5 36.375 
Q 16.5 21.390625 20.328125 13.890625 
Q 24.171875 6.390625 31.78125 6.390625 
Q 39.453125 6.390625 43.28125 13.890625 
Q 47.125 21.390625 47.125 36.375 
Q 47.125 51.421875 43.28125 58.90625 
Q 39.453125 66.40625 31.78125 66.40625 
z
M 31.78125 74.21875 
Q 44.046875 74.21875 50.515625 64.515625 
Q 56.984375 54.828125 56.984375 36.375 
Q 56.984375 17.96875 50.515625 8.265625 
Q 44.046875 -1.421875 31.78125 -1.421875 
Q 19.53125 -1.421875 13.0625 8.265625 
Q 6.59375 17.96875 6.59375 36.375 
Q 6.59375 54.828125 13.0625 64.515625 
Q 19.53125 74.21875 31.78125 74.21875 
z
" id="DejaVuSans-30"/>
      </defs>
      <g style="fill:#262626;" transform="translate(45.754487 263.098437)scale(0.1 -0.1)">
       <use xlink:href="#DejaVuSans-30"/>
      </g>
     </g>
    </g>
    <g id="xtick_2">
     <g id="line2d_3">
      <path clip-path="url(#p30efae5a14)" d="M 92.666144 252 
L 92.666144 34.56 
" style="fill:none;stroke:#cccccc;stroke-linecap:round;stroke-width:0.8;"/>
     </g>
     <g id="line2d_4"/>
     <g id="text_2">
      <!-- 5 -->
      <defs>
       <path d="M 10.796875 72.90625 
L 49.515625 72.90625 
L 49.515625 64.59375 
L 19.828125 64.59375 
L 19.828125 46.734375 
Q 21.96875 47.46875 24.109375 47.828125 
Q 26.265625 48.1875 28.421875 48.1875 
Q 40.625 48.1875 47.75 41.5 
Q 54.890625 34.8125 54.890625 23.390625 
Q 54.890625 11.625 47.5625 5.09375 
Q 40.234375 -1.421875 26.90625 -1.421875 
Q 22.3125 -1.421875 17.546875 -0.640625 
Q 12.796875 0.140625 7.71875 1.703125 
L 7.71875 11.625 
Q 12.109375 9.234375 16.796875 8.0625 
Q 21.484375 6.890625 26.703125 6.890625 
Q 35.15625 6.890625 40.078125 11.328125 
Q 45.015625 15.765625 45.015625 23.390625 
Q 45.015625 31 40.078125 35.4375 
Q 35.15625 39.890625 26.703125 39.890625 
Q 22.75 39.890625 18.8125 39.015625 
Q 14.890625 38.140625 10.796875 36.28125 
z
" id="DejaVuSans-35"/>
      </defs>
      <g style="fill:#262626;" transform="translate(89.484894 263.098437)scale(0.1 -0.1)">
       <use xlink:href="#DejaVuSans-35"/>
      </g>
     </g>
    </g>
    <g id="xtick_3">
     <g id="line2d_5">
      <path clip-path="url(#p30efae5a14)" d="M 136.396552 252 
L 136.396552 34.56 
" style="fill:none;stroke:#cccccc;stroke-linecap:round;stroke-width:0.8;"/>
     </g>
     <g id="line2d_6"/>
     <g id="text_3">
      <!-- 10 -->
      <defs>
       <path d="M 12.40625 8.296875 
L 28.515625 8.296875 
L 28.515625 63.921875 
L 10.984375 60.40625 
L 10.984375 69.390625 
L 28.421875 72.90625 
L 38.28125 72.90625 
L 38.28125 8.296875 
L 54.390625 8.296875 
L 54.390625 0 
L 12.40625 0 
z
" id="DejaVuSans-31"/>
      </defs>
      <g style="fill:#262626;" transform="translate(130.034052 263.098437)scale(0.1 -0.1)">
       <use xlink:href="#DejaVuSans-31"/>
       <use x="63.623047" xlink:href="#DejaVuSans-30"/>
      </g>
     </g>
    </g>
    <g id="xtick_4">
     <g id="line2d_7">
      <path clip-path="url(#p30efae5a14)" d="M 180.126959 252 
L 180.126959 34.56 
" style="fill:none;stroke:#cccccc;stroke-linecap:round;stroke-width:0.8;"/>
     </g>
     <g id="line2d_8"/>
     <g id="text_4">
      <!-- 15 -->
      <g style="fill:#262626;" transform="translate(173.764459 263.098437)scale(0.1 -0.1)">
       <use xlink:href="#DejaVuSans-31"/>
       <use x="63.623047" xlink:href="#DejaVuSans-35"/>
      </g>
     </g>
    </g>
    <g id="xtick_5">
     <g id="line2d_9">
      <path clip-path="url(#p30efae5a14)" d="M 223.857367 252 
L 223.857367 34.56 
" style="fill:none;stroke:#cccccc;stroke-linecap:round;stroke-width:0.8;"/>
     </g>
     <g id="line2d_10"/>
     <g id="text_5">
      <!-- 20 -->
      <defs>
       <path d="M 19.1875 8.296875 
L 53.609375 8.296875 
L 53.609375 0 
L 7.328125 0 
L 7.328125 8.296875 
Q 12.9375 14.109375 22.625 23.890625 
Q 32.328125 33.6875 34.8125 36.53125 
Q 39.546875 41.84375 41.421875 45.53125 
Q 43.3125 49.21875 43.3125 52.78125 
Q 43.3125 58.59375 39.234375 62.25 
Q 35.15625 65.921875 28.609375 65.921875 
Q 23.96875 65.921875 18.8125 64.3125 
Q 13.671875 62.703125 7.8125 59.421875 
L 7.8125 69.390625 
Q 13.765625 71.78125 18.9375 73 
Q 24.125 74.21875 28.421875 74.21875 
Q 39.75 74.21875 46.484375 68.546875 
Q 53.21875 62.890625 53.21875 53.421875 
Q 53.21875 48.921875 51.53125 44.890625 
Q 49.859375 40.875 45.40625 35.40625 
Q 44.1875 33.984375 37.640625 27.21875 
Q 31.109375 20.453125 19.1875 8.296875 
z
" id="DejaVuSans-32"/>
      </defs>
      <g style="fill:#262626;" transform="translate(217.494867 263.098437)scale(0.1 -0.1)">
       <use xlink:href="#DejaVuSans-32"/>
       <use x="63.623047" xlink:href="#DejaVuSans-30"/>
      </g>
     </g>
    </g>
    <g id="xtick_6">
     <g id="line2d_11">
      <path clip-path="url(#p30efae5a14)" d="M 267.587774 252 
L 267.587774 34.56 
" style="fill:none;stroke:#cccccc;stroke-linecap:round;stroke-width:0.8;"/>
     </g>
     <g id="line2d_12"/>
     <g id="text_6">
      <!-- 25 -->
      <g style="fill:#262626;" transform="translate(261.225274 263.098437)scale(0.1 -0.1)">
       <use xlink:href="#DejaVuSans-32"/>
       <use x="63.623047" xlink:href="#DejaVuSans-35"/>
      </g>
     </g>
    </g>
    <g id="xtick_7">
     <g id="line2d_13">
      <path clip-path="url(#p30efae5a14)" d="M 311.318182 252 
L 311.318182 34.56 
" style="fill:none;stroke:#cccccc;stroke-linecap:round;stroke-width:0.8;"/>
     </g>
     <g id="line2d_14"/>
     <g id="text_7">
      <!-- 30 -->
      <defs>
       <path d="M 40.578125 39.3125 
Q 47.65625 37.796875 51.625 33 
Q 55.609375 28.21875 55.609375 21.1875 
Q 55.609375 10.40625 48.1875 4.484375 
Q 40.765625 -1.421875 27.09375 -1.421875 
Q 22.515625 -1.421875 17.65625 -0.515625 
Q 12.796875 0.390625 7.625 2.203125 
L 7.625 11.71875 
Q 11.71875 9.328125 16.59375 8.109375 
Q 21.484375 6.890625 26.8125 6.890625 
Q 36.078125 6.890625 40.9375 10.546875 
Q 45.796875 14.203125 45.796875 21.1875 
Q 45.796875 27.640625 41.28125 31.265625 
Q 36.765625 34.90625 28.71875 34.90625 
L 20.21875 34.90625 
L 20.21875 43.015625 
L 29.109375 43.015625 
Q 36.375 43.015625 40.234375 45.921875 
Q 44.09375 48.828125 44.09375 54.296875 
Q 44.09375 59.90625 40.109375 62.90625 
Q 36.140625 65.921875 28.71875 65.921875 
Q 24.65625 65.921875 20.015625 65.03125 
Q 15.375 64.15625 9.8125 62.3125 
L 9.8125 71.09375 
Q 15.4375 72.65625 20.34375 73.4375 
Q 25.25 74.21875 29.59375 74.21875 
Q 40.828125 74.21875 47.359375 69.109375 
Q 53.90625 64.015625 53.90625 55.328125 
Q 53.90625 49.265625 50.4375 45.09375 
Q 46.96875 40.921875 40.578125 39.3125 
z
" id="DejaVuSans-33"/>
      </defs>
      <g style="fill:#262626;" transform="translate(304.955682 263.098437)scale(0.1 -0.1)">
       <use xlink:href="#DejaVuSans-33"/>
       <use x="63.623047" xlink:href="#DejaVuSans-30"/>
      </g>
     </g>
    </g>
    <g id="text_8">
     <!-- Singular value index -->
     <defs>
      <path d="M 53.515625 70.515625 
L 53.515625 60.890625 
Q 47.90625 63.578125 42.921875 64.890625 
Q 37.9375 66.21875 33.296875 66.21875 
Q 25.25 66.21875 20.875 63.09375 
Q 16.5 59.96875 16.5 54.203125 
Q 16.5 49.359375 19.40625 46.890625 
Q 22.3125 44.4375 30.421875 42.921875 
L 36.375 41.703125 
Q 47.40625 39.59375 52.65625 34.296875 
Q 57.90625 29 57.90625 20.125 
Q 57.90625 9.515625 50.796875 4.046875 
Q 43.703125 -1.421875 29.984375 -1.421875 
Q 24.8125 -1.421875 18.96875 -0.25 
Q 13.140625 0.921875 6.890625 3.21875 
L 6.890625 13.375 
Q 12.890625 10.015625 18.65625 8.296875 
Q 24.421875 6.59375 29.984375 6.59375 
Q 38.421875 6.59375 43.015625 9.90625 
Q 47.609375 13.234375 47.609375 19.390625 
Q 47.609375 24.75 44.3125 27.78125 
Q 41.015625 30.8125 33.5 32.328125 
L 27.484375 33.5 
Q 16.453125 35.6875 11.515625 40.375 
Q 6.59375 45.0625 6.59375 53.421875 
Q 6.59375 63.09375 13.40625 68.65625 
Q 20.21875 74.21875 32.171875 74.21875 
Q 37.3125 74.21875 42.625 73.28125 
Q 47.953125 72.359375 53.515625 70.515625 
z
" id="DejaVuSans-53"/>
      <path d="M 9.421875 54.6875 
L 18.40625 54.6875 
L 18.40625 0 
L 9.421875 0 
z
M 9.421875 75.984375 
L 18.40625 75.984375 
L 18.40625 64.59375 
L 9.421875 64.59375 
z
" id="DejaVuSans-69"/>
      <path d="M 54.890625 33.015625 
L 54.890625 0 
L 45.90625 0 
L 45.90625 32.71875 
Q 45.90625 40.484375 42.875 44.328125 
Q 39.84375 48.1875 33.796875 48.1875 
Q 26.515625 48.1875 22.3125 43.546875 
Q 18.109375 38.921875 18.109375 30.90625 
L 18.109375 0 
L 9.078125 0 
L 9.078125 54.6875 
L 18.109375 54.6875 
L 18.109375 46.1875 
Q 21.34375 51.125 25.703125 53.5625 
Q 30.078125 56 35.796875 56 
Q 45.21875 56 50.046875 50.171875 
Q 54.890625 44.34375 54.890625 33.015625 
z
" id="DejaVuSans-6e"/>
      <path d="M 45.40625 27.984375 
Q 45.40625 37.75 41.375 43.109375 
Q 37.359375 48.484375 30.078125 48.484375 
Q 22.859375 48.484375 18.828125 43.109375 
Q 14.796875 37.75 14.796875 27.984375 
Q 14.796875 18.265625 18.828125 12.890625 
Q 22.859375 7.515625 30.078125 7.515625 
Q 37.359375 7.515625 41.375 12.890625 
Q 45.40625 18.265625 45.40625 27.984375 
z
M 54.390625 6.78125 
Q 54.390625 -7.171875 48.1875 -13.984375 
Q 42 -20.796875 29.203125 -20.796875 
Q 24.46875 -20.796875 20.265625 -20.09375 
Q 16.0625 -19.390625 12.109375 -17.921875 
L 12.109375 -9.1875 
Q 16.0625 -11.328125 19.921875 -12.34375 
Q 23.78125 -13.375 27.78125 -13.375 
Q 36.625 -13.375 41.015625 -8.765625 
Q 45.40625 -4.15625 45.40625 5.171875 
L 45.40625 9.625 
Q 42.625 4.78125 38.28125 2.390625 
Q 33.9375 0 27.875 0 
Q 17.828125 0 11.671875 7.65625 
Q 5.515625 15.328125 5.515625 27.984375 
Q 5.515625 40.671875 11.671875 48.328125 
Q 17.828125 56 27.875 56 
Q 33.9375 56 38.28125 53.609375 
Q 42.625 51.21875 45.40625 46.390625 
L 45.40625 54.6875 
L 54.390625 54.6875 
z
" id="DejaVuSans-67"/>
      <path d="M 8.5 21.578125 
L 8.5 54.6875 
L 17.484375 54.6875 
L 17.484375 21.921875 
Q 17.484375 14.15625 20.5 10.265625 
Q 23.53125 6.390625 29.59375 6.390625 
Q 36.859375 6.390625 41.078125 11.03125 
Q 45.3125 15.671875 45.3125 23.6875 
L 45.3125 54.6875 
L 54.296875 54.6875 
L 54.296875 0 
L 45.3125 0 
L 45.3125 8.40625 
Q 42.046875 3.421875 37.71875 1 
Q 33.40625 -1.421875 27.6875 -1.421875 
Q 18.265625 -1.421875 13.375 4.4375 
Q 8.5 10.296875 8.5 21.578125 
z
M 31.109375 56 
z
" id="DejaVuSans-75"/>
      <path d="M 9.421875 75.984375 
L 18.40625 75.984375 
L 18.40625 0 
L 9.421875 0 
z
" id="DejaVuSans-6c"/>
      <path d="M 34.28125 27.484375 
Q 23.390625 27.484375 19.1875 25 
Q 14.984375 22.515625 14.984375 16.5 
Q 14.984375 11.71875 18.140625 8.90625 
Q 21.296875 6.109375 26.703125 6.109375 
Q 34.1875 6.109375 38.703125 11.40625 
Q 43.21875 16.703125 43.21875 25.484375 
L 43.21875 27.484375 
z
M 52.203125 31.203125 
L 52.203125 0 
L 43.21875 0 
L 43.21875 8.296875 
Q 40.140625 3.328125 35.546875 0.953125 
Q 30.953125 -1.421875 24.3125 -1.421875 
Q 15.921875 -1.421875 10.953125 3.296875 
Q 6 8.015625 6 15.921875 
Q 6 25.140625 12.171875 29.828125 
Q 18.359375 34.515625 30.609375 34.515625 
L 43.21875 34.515625 
L 43.21875 35.40625 
Q 43.21875 41.609375 39.140625 45 
Q 35.0625 48.390625 27.6875 48.390625 
Q 23 48.390625 18.546875 47.265625 
Q 14.109375 46.140625 10.015625 43.890625 
L 10.015625 52.203125 
Q 14.9375 54.109375 19.578125 55.046875 
Q 24.21875 56 28.609375 56 
Q 40.484375 56 46.34375 49.84375 
Q 52.203125 43.703125 52.203125 31.203125 
z
" id="DejaVuSans-61"/>
      <path d="M 41.109375 46.296875 
Q 39.59375 47.171875 37.8125 47.578125 
Q 36.03125 48 33.890625 48 
Q 26.265625 48 22.1875 43.046875 
Q 18.109375 38.09375 18.109375 28.8125 
L 18.109375 0 
L 9.078125 0 
L 9.078125 54.6875 
L 18.109375 54.6875 
L 18.109375 46.1875 
Q 20.953125 51.171875 25.484375 53.578125 
Q 30.03125 56 36.53125 56 
Q 37.453125 56 38.578125 55.875 
Q 39.703125 55.765625 41.0625 55.515625 
z
" id="DejaVuSans-72"/>
      <path id="DejaVuSans-20"/>
      <path d="M 2.984375 54.6875 
L 12.5 54.6875 
L 29.59375 8.796875 
L 46.6875 54.6875 
L 56.203125 54.6875 
L 35.6875 0 
L 23.484375 0 
z
" id="DejaVuSans-76"/>
      <path d="M 56.203125 29.59375 
L 56.203125 25.203125 
L 14.890625 25.203125 
Q 15.484375 15.921875 20.484375 11.0625 
Q 25.484375 6.203125 34.421875 6.203125 
Q 39.59375 6.203125 44.453125 7.46875 
Q 49.3125 8.734375 54.109375 11.28125 
L 54.109375 2.78125 
Q 49.265625 0.734375 44.1875 -0.34375 
Q 39.109375 -1.421875 33.890625 -1.421875 
Q 20.796875 -1.421875 13.15625 6.1875 
Q 5.515625 13.8125 5.515625 26.8125 
Q 5.515625 40.234375 12.765625 48.109375 
Q 20.015625 56 32.328125 56 
Q 43.359375 56 49.78125 48.890625 
Q 56.203125 41.796875 56.203125 29.59375 
z
M 47.21875 32.234375 
Q 47.125 39.59375 43.09375 43.984375 
Q 39.0625 48.390625 32.421875 48.390625 
Q 24.90625 48.390625 20.390625 44.140625 
Q 15.875 39.890625 15.1875 32.171875 
z
" id="DejaVuSans-65"/>
      <path d="M 45.40625 46.390625 
L 45.40625 75.984375 
L 54.390625 75.984375 
L 54.390625 0 
L 45.40625 0 
L 45.40625 8.203125 
Q 42.578125 3.328125 38.25 0.953125 
Q 33.9375 -1.421875 27.875 -1.421875 
Q 17.96875 -1.421875 11.734375 6.484375 
Q 5.515625 14.40625 5.515625 27.296875 
Q 5.515625 40.1875 11.734375 48.09375 
Q 17.96875 56 27.875 56 
Q 33.9375 56 38.25 53.625 
Q 42.578125 51.265625 45.40625 46.390625 
z
M 14.796875 27.296875 
Q 14.796875 17.390625 18.875 11.75 
Q 22.953125 6.109375 30.078125 6.109375 
Q 37.203125 6.109375 41.296875 11.75 
Q 45.40625 17.390625 45.40625 27.296875 
Q 45.40625 37.203125 41.296875 42.84375 
Q 37.203125 48.484375 30.078125 48.484375 
Q 22.953125 48.484375 18.875 42.84375 
Q 14.796875 37.203125 14.796875 27.296875 
z
" id="DejaVuSans-64"/>
      <path d="M 54.890625 54.6875 
L 35.109375 28.078125 
L 55.90625 0 
L 45.3125 0 
L 29.390625 21.484375 
L 13.484375 0 
L 2.875 0 
L 24.125 28.609375 
L 4.6875 54.6875 
L 15.28125 54.6875 
L 29.78125 35.203125 
L 44.28125 54.6875 
z
" id="DejaVuSans-78"/>
     </defs>
     <g style="fill:#262626;" transform="translate(133.313281 276.776563)scale(0.1 -0.1)">
      <use xlink:href="#DejaVuSans-53"/>
      <use x="63.476562" xlink:href="#DejaVuSans-69"/>
      <use x="91.259766" xlink:href="#DejaVuSans-6e"/>
      <use x="154.638672" xlink:href="#DejaVuSans-67"/>
      <use x="218.115234" xlink:href="#DejaVuSans-75"/>
      <use x="281.494141" xlink:href="#DejaVuSans-6c"/>
      <use x="309.277344" xlink:href="#DejaVuSans-61"/>
      <use x="370.556641" xlink:href="#DejaVuSans-72"/>
      <use x="411.669922" xlink:href="#DejaVuSans-20"/>
      <use x="443.457031" xlink:href="#DejaVuSans-76"/>
      <use x="502.636719" xlink:href="#DejaVuSans-61"/>
      <use x="563.916016" xlink:href="#DejaVuSans-6c"/>
      <use x="591.699219" xlink:href="#DejaVuSans-75"/>
      <use x="655.078125" xlink:href="#DejaVuSans-65"/>
      <use x="716.601562" xlink:href="#DejaVuSans-20"/>
      <use x="748.388672" xlink:href="#DejaVuSans-69"/>
      <use x="776.171875" xlink:href="#DejaVuSans-6e"/>
      <use x="839.550781" xlink:href="#DejaVuSans-64"/>
      <use x="903.027344" xlink:href="#DejaVuSans-65"/>
      <use x="964.535156" xlink:href="#DejaVuSans-78"/>
     </g>
    </g>
   </g>
   <g id="matplotlib.axis_2">
    <g id="ytick_1">
     <g id="line2d_15">
      <path clip-path="url(#p30efae5a14)" d="M 45 221.35501 
L 324 221.35501 
" style="fill:none;stroke:#cccccc;stroke-linecap:round;stroke-width:0.8;"/>
     </g>
     <g id="line2d_16"/>
     <g id="text_9">
      <!-- $\mathdefault{10^{2}}$ -->
      <g style="fill:#262626;" transform="translate(23.9 225.154229)scale(0.1 -0.1)">
       <use transform="translate(0 0.765625)" xlink:href="#DejaVuSans-31"/>
       <use transform="translate(63.623047 0.765625)" xlink:href="#DejaVuSans-30"/>
       <use transform="translate(128.203125 39.046875)scale(0.7)" xlink:href="#DejaVuSans-32"/>
      </g>
     </g>
    </g>
    <g id="ytick_2">
     <g id="line2d_17">
      <path clip-path="url(#p30efae5a14)" d="M 45 182.049384 
L 324 182.049384 
" style="fill:none;stroke:#cccccc;stroke-linecap:round;stroke-width:0.8;"/>
     </g>
     <g id="line2d_18"/>
     <g id="text_10">
      <!-- $\mathdefault{10^{3}}$ -->
      <g style="fill:#262626;" transform="translate(23.9 185.848602)scale(0.1 -0.1)">
       <use transform="translate(0 0.765625)" xlink:href="#DejaVuSans-31"/>
       <use transform="translate(63.623047 0.765625)" xlink:href="#DejaVuSans-30"/>
       <use transform="translate(128.203125 39.046875)scale(0.7)" xlink:href="#DejaVuSans-33"/>
      </g>
     </g>
    </g>
    <g id="ytick_3">
     <g id="line2d_19">
      <path clip-path="url(#p30efae5a14)" d="M 45 142.743757 
L 324 142.743757 
" style="fill:none;stroke:#cccccc;stroke-linecap:round;stroke-width:0.8;"/>
     </g>
     <g id="line2d_20"/>
     <g id="text_11">
      <!-- $\mathdefault{10^{4}}$ -->
      <defs>
       <path d="M 37.796875 64.3125 
L 12.890625 25.390625 
L 37.796875 25.390625 
z
M 35.203125 72.90625 
L 47.609375 72.90625 
L 47.609375 25.390625 
L 58.015625 25.390625 
L 58.015625 17.1875 
L 47.609375 17.1875 
L 47.609375 0 
L 37.796875 0 
L 37.796875 17.1875 
L 4.890625 17.1875 
L 4.890625 26.703125 
z
" id="DejaVuSans-34"/>
      </defs>
      <g style="fill:#262626;" transform="translate(23.9 146.542976)scale(0.1 -0.1)">
       <use transform="translate(0 0.684375)" xlink:href="#DejaVuSans-31"/>
       <use transform="translate(63.623047 0.684375)" xlink:href="#DejaVuSans-30"/>
       <use transform="translate(128.203125 38.965625)scale(0.7)" xlink:href="#DejaVuSans-34"/>
      </g>
     </g>
    </g>
    <g id="ytick_4">
     <g id="line2d_21">
      <path clip-path="url(#p30efae5a14)" d="M 45 103.438131 
L 324 103.438131 
" style="fill:none;stroke:#cccccc;stroke-linecap:round;stroke-width:0.8;"/>
     </g>
     <g id="line2d_22"/>
     <g id="text_12">
      <!-- $\mathdefault{10^{5}}$ -->
      <g style="fill:#262626;" transform="translate(23.9 107.237349)scale(0.1 -0.1)">
       <use transform="translate(0 0.684375)" xlink:href="#DejaVuSans-31"/>
       <use transform="translate(63.623047 0.684375)" xlink:href="#DejaVuSans-30"/>
       <use transform="translate(128.203125 38.965625)scale(0.7)" xlink:href="#DejaVuSans-35"/>
      </g>
     </g>
    </g>
    <g id="ytick_5">
     <g id="line2d_23">
      <path clip-path="url(#p30efae5a14)" d="M 45 64.132504 
L 324 64.132504 
" style="fill:none;stroke:#cccccc;stroke-linecap:round;stroke-width:0.8;"/>
     </g>
     <g id="line2d_24"/>
     <g id="text_13">
      <!-- $\mathdefault{10^{6}}$ -->
      <defs>
       <path d="M 33.015625 40.375 
Q 26.375 40.375 22.484375 35.828125 
Q 18.609375 31.296875 18.609375 23.390625 
Q 18.609375 15.53125 22.484375 10.953125 
Q 26.375 6.390625 33.015625 6.390625 
Q 39.65625 6.390625 43.53125 10.953125 
Q 47.40625 15.53125 47.40625 23.390625 
Q 47.40625 31.296875 43.53125 35.828125 
Q 39.65625 40.375 33.015625 40.375 
z
M 52.59375 71.296875 
L 52.59375 62.3125 
Q 48.875 64.0625 45.09375 64.984375 
Q 41.3125 65.921875 37.59375 65.921875 
Q 27.828125 65.921875 22.671875 59.328125 
Q 17.53125 52.734375 16.796875 39.40625 
Q 19.671875 43.65625 24.015625 45.921875 
Q 28.375 48.1875 33.59375 48.1875 
Q 44.578125 48.1875 50.953125 41.515625 
Q 57.328125 34.859375 57.328125 23.390625 
Q 57.328125 12.15625 50.6875 5.359375 
Q 44.046875 -1.421875 33.015625 -1.421875 
Q 20.359375 -1.421875 13.671875 8.265625 
Q 6.984375 17.96875 6.984375 36.375 
Q 6.984375 53.65625 15.1875 63.9375 
Q 23.390625 74.21875 37.203125 74.21875 
Q 40.921875 74.21875 44.703125 73.484375 
Q 48.484375 72.75 52.59375 71.296875 
z
" id="DejaVuSans-36"/>
      </defs>
      <g style="fill:#262626;" transform="translate(23.9 67.931723)scale(0.1 -0.1)">
       <use transform="translate(0 0.765625)" xlink:href="#DejaVuSans-31"/>
       <use transform="translate(63.623047 0.765625)" xlink:href="#DejaVuSans-30"/>
       <use transform="translate(128.203125 39.046875)scale(0.7)" xlink:href="#DejaVuSans-36"/>
      </g>
     </g>
    </g>
    <g id="ytick_6">
     <g id="line2d_25"/>
    </g>
    <g id="ytick_7">
     <g id="line2d_26"/>
    </g>
    <g id="ytick_8">
     <g id="line2d_27"/>
    </g>
    <g id="ytick_9">
     <g id="line2d_28"/>
    </g>
    <g id="ytick_10">
     <g id="line2d_29"/>
    </g>
    <g id="ytick_11">
     <g id="line2d_30"/>
    </g>
    <g id="ytick_12">
     <g id="line2d_31"/>
    </g>
    <g id="ytick_13">
     <g id="line2d_32"/>
    </g>
    <g id="ytick_14">
     <g id="line2d_33"/>
    </g>
    <g id="ytick_15">
     <g id="line2d_34"/>
    </g>
    <g id="ytick_16">
     <g id="line2d_35"/>
    </g>
    <g id="ytick_17">
     <g id="line2d_36"/>
    </g>
    <g id="ytick_18">
     <g id="line2d_37"/>
    </g>
    <g id="ytick_19">
     <g id="line2d_38"/>
    </g>
    <g id="ytick_20">
     <g id="line2d_39"/>
    </g>
    <g id="ytick_21">
     <g id="line2d_40"/>
    </g>
    <g id="ytick_22">
     <g id="line2d_41"/>
    </g>
    <g id="ytick_23">
     <g id="line2d_42"/>
    </g>
    <g id="ytick_24">
     <g id="line2d_43"/>
    </g>
    <g id="ytick_25">
     <g id="line2d_44"/>
    </g>
    <g id="ytick_26">
     <g id="line2d_45"/>
    </g>
    <g id="ytick_27">
     <g id="line2d_46"/>
    </g>
    <g id="ytick_28">
     <g id="line2d_47"/>
    </g>
    <g id="ytick_29">
     <g id="line2d_48"/>
    </g>
    <g id="ytick_30">
     <g id="line2d_49"/>
    </g>
    <g id="ytick_31">
     <g id="line2d_50"/>
    </g>
    <g id="ytick_32">
     <g id="line2d_51"/>
    </g>
    <g id="ytick_33">
     <g id="line2d_52"/>
    </g>
    <g id="ytick_34">
     <g id="line2d_53"/>
    </g>
    <g id="ytick_35">
     <g id="line2d_54"/>
    </g>
    <g id="ytick_36">
     <g id="line2d_55"/>
    </g>
    <g id="ytick_37">
     <g id="line2d_56"/>
    </g>
    <g id="ytick_38">
     <g id="line2d_57"/>
    </g>
    <g id="ytick_39">
     <g id="line2d_58"/>
    </g>
    <g id="ytick_40">
     <g id="line2d_59"/>
    </g>
    <g id="ytick_41">
     <g id="line2d_60"/>
    </g>
    <g id="ytick_42">
     <g id="line2d_61"/>
    </g>
    <g id="ytick_43">
     <g id="line2d_62"/>
    </g>
    <g id="ytick_44">
     <g id="line2d_63"/>
    </g>
    <g id="ytick_45">
     <g id="line2d_64"/>
    </g>
    <g id="ytick_46">
     <g id="line2d_65"/>
    </g>
    <g id="ytick_47">
     <g id="line2d_66"/>
    </g>
    <g id="ytick_48">
     <g id="line2d_67"/>
    </g>
    <g id="ytick_49">
     <g id="line2d_68"/>
    </g>
    <g id="text_14">
     <!-- Singular value -->
     <g style="fill:#262626;" transform="translate(17.820312 179.110469)rotate(-90)scale(0.1 -0.1)">
      <use xlink:href="#DejaVuSans-53"/>
      <use x="63.476562" xlink:href="#DejaVuSans-69"/>
      <use x="91.259766" xlink:href="#DejaVuSans-6e"/>
      <use x="154.638672" xlink:href="#DejaVuSans-67"/>
      <use x="218.115234" xlink:href="#DejaVuSans-75"/>
      <use x="281.494141" xlink:href="#DejaVuSans-6c"/>
      <use x="309.277344" xlink:href="#DejaVuSans-61"/>
      <use x="370.556641" xlink:href="#DejaVuSans-72"/>
      <use x="411.669922" xlink:href="#DejaVuSans-20"/>
      <use x="443.457031" xlink:href="#DejaVuSans-76"/>
      <use x="502.636719" xlink:href="#DejaVuSans-61"/>
      <use x="563.916016" xlink:href="#DejaVuSans-6c"/>
      <use x="591.699219" xlink:href="#DejaVuSans-75"/>
      <use x="655.078125" xlink:href="#DejaVuSans-65"/>
     </g>
    </g>
   </g>
   <g id="line2d_69">
    <path clip-path="url(#p30efae5a14)" d="M 57.681818 57.481005 
L 66.4279 100.42841 
L 75.173981 118.196075 
L 83.920063 123.404341 
L 92.666144 131.407126 
L 101.412226 132.592704 
L 110.158307 139.006 
L 118.904389 146.32121 
L 127.65047 148.849334 
L 136.396552 150.327225 
L 145.142633 151.726696 
L 153.888715 153.736865 
L 162.634796 157.240419 
L 171.380878 159.792969 
L 180.126959 162.240605 
L 188.873041 164.673117 
L 197.619122 165.619551 
L 206.365204 167.265955 
L 215.111285 170.313764 
L 223.857367 192.151481 
L 232.603448 231.99333 
L 241.34953 237.855091 
L 250.095611 240.23753 
L 258.841693 240.701246 
L 267.587774 240.782798 
L 276.333856 241.619018 
L 285.079937 241.693114 
L 293.826019 241.824669 
L 302.5721 241.945779 
L 311.318182 242.116364 
" style="fill:none;"/>
    <defs>
     <path d="M 0 2.5 
C 0.663008 2.5 1.29895 2.236584 1.767767 1.767767 
C 2.236584 1.29895 2.5 0.663008 2.5 0 
C 2.5 -0.663008 2.236584 -1.29895 1.767767 -1.767767 
C 1.29895 -2.236584 0.663008 -2.5 0 -2.5 
C -0.663008 -2.5 -1.29895 -2.236584 -1.767767 -1.767767 
C -2.236584 -1.29895 -2.5 -0.663008 -2.5 0 
C -2.5 0.663008 -2.236584 1.29895 -1.767767 1.767767 
C -1.29895 2.236584 -0.663008 2.5 0 2.5 
z
" id="m092bf1a205" style="stroke:#b24d4e;"/>
    </defs>
    <g clip-path="url(#p30efae5a14)">
     <use style="fill:#b24d4e;stroke:#b24d4e;" x="57.681818" xlink:href="#m092bf1a205" y="57.481005"/>
     <use style="fill:#b24d4e;stroke:#b24d4e;" x="66.4279" xlink:href="#m092bf1a205" y="100.42841"/>
     <use style="fill:#b24d4e;stroke:#b24d4e;" x="75.173981" xlink:href="#m092bf1a205" y="118.196075"/>
     <use style="fill:#b24d4e;stroke:#b24d4e;" x="83.920063" xlink:href="#m092bf1a205" y="123.404341"/>
     <use style="fill:#b24d4e;stroke:#b24d4e;" x="92.666144" xlink:href="#m092bf1a205" y="131.407126"/>
     <use style="fill:#b24d4e;stroke:#b24d4e;" x="101.412226" xlink:href="#m092bf1a205" y="132.592704"/>
     <use style="fill:#b24d4e;stroke:#b24d4e;" x="110.158307" xlink:href="#m092bf1a205" y="139.006"/>
     <use style="fill:#b24d4e;stroke:#b24d4e;" x="118.904389" xlink:href="#m092bf1a205" y="146.32121"/>
     <use style="fill:#b24d4e;stroke:#b24d4e;" x="127.65047" xlink:href="#m092bf1a205" y="148.849334"/>
     <use style="fill:#b24d4e;stroke:#b24d4e;" x="136.396552" xlink:href="#m092bf1a205" y="150.327225"/>
     <use style="fill:#b24d4e;stroke:#b24d4e;" x="145.142633" xlink:href="#m092bf1a205" y="151.726696"/>
     <use style="fill:#b24d4e;stroke:#b24d4e;" x="153.888715" xlink:href="#m092bf1a205" y="153.736865"/>
     <use style="fill:#b24d4e;stroke:#b24d4e;" x="162.634796" xlink:href="#m092bf1a205" y="157.240419"/>
     <use style="fill:#b24d4e;stroke:#b24d4e;" x="171.380878" xlink:href="#m092bf1a205" y="159.792969"/>
     <use style="fill:#b24d4e;stroke:#b24d4e;" x="180.126959" xlink:href="#m092bf1a205" y="162.240605"/>
     <use style="fill:#b24d4e;stroke:#b24d4e;" x="188.873041" xlink:href="#m092bf1a205" y="164.673117"/>
     <use style="fill:#b24d4e;stroke:#b24d4e;" x="197.619122" xlink:href="#m092bf1a205" y="165.619551"/>
     <use style="fill:#b24d4e;stroke:#b24d4e;" x="206.365204" xlink:href="#m092bf1a205" y="167.265955"/>
     <use style="fill:#b24d4e;stroke:#b24d4e;" x="215.111285" xlink:href="#m092bf1a205" y="170.313764"/>
     <use style="fill:#b24d4e;stroke:#b24d4e;" x="223.857367" xlink:href="#m092bf1a205" y="192.151481"/>
     <use style="fill:#b24d4e;stroke:#b24d4e;" x="232.603448" xlink:href="#m092bf1a205" y="231.99333"/>
     <use style="fill:#b24d4e;stroke:#b24d4e;" x="241.34953" xlink:href="#m092bf1a205" y="237.855091"/>
     <use style="fill:#b24d4e;stroke:#b24d4e;" x="250.095611" xlink:href="#m092bf1a205" y="240.23753"/>
     <use style="fill:#b24d4e;stroke:#b24d4e;" x="258.841693" xlink:href="#m092bf1a205" y="240.701246"/>
     <use style="fill:#b24d4e;stroke:#b24d4e;" x="267.587774" xlink:href="#m092bf1a205" y="240.782798"/>
     <use style="fill:#b24d4e;stroke:#b24d4e;" x="276.333856" xlink:href="#m092bf1a205" y="241.619018"/>
     <use style="fill:#b24d4e;stroke:#b24d4e;" x="285.079937" xlink:href="#m092bf1a205" y="241.693114"/>
     <use style="fill:#b24d4e;stroke:#b24d4e;" x="293.826019" xlink:href="#m092bf1a205" y="241.824669"/>
     <use style="fill:#b24d4e;stroke:#b24d4e;" x="302.5721" xlink:href="#m092bf1a205" y="241.945779"/>
     <use style="fill:#b24d4e;stroke:#b24d4e;" x="311.318182" xlink:href="#m092bf1a205" y="242.116364"/>
    </g>
   </g>
   <g id="line2d_70">
    <path clip-path="url(#p30efae5a14)" d="M 57.681818 44.443636 
L 66.4279 86.281116 
L 75.173981 105.727859 
L 83.920063 109.623405 
L 92.666144 117.513416 
L 101.412226 122.05926 
L 110.158307 125.728202 
L 118.904389 128.354398 
L 127.65047 134.106531 
L 136.396552 140.086032 
L 145.142633 141.911782 
L 153.888715 143.062502 
L 162.634796 145.303612 
L 171.380878 146.990076 
L 180.126959 152.509855 
L 188.873041 154.445589 
L 197.619122 160.342063 
L 206.365204 163.794181 
L 215.111285 167.521913 
L 223.857367 171.436274 
L 232.603448 192.393248 
" style="fill:none;"/>
    <defs>
     <path d="M -2.5 2.5 
L 2.5 2.5 
L 2.5 -2.5 
L -2.5 -2.5 
z
" id="mfe2e15f8eb" style="stroke:#577b98;stroke-linejoin:miter;"/>
    </defs>
    <g clip-path="url(#p30efae5a14)">
     <use style="fill:#577b98;stroke:#577b98;stroke-linejoin:miter;" x="57.681818" xlink:href="#mfe2e15f8eb" y="44.443636"/>
     <use style="fill:#577b98;stroke:#577b98;stroke-linejoin:miter;" x="66.4279" xlink:href="#mfe2e15f8eb" y="86.281116"/>
     <use style="fill:#577b98;stroke:#577b98;stroke-linejoin:miter;" x="75.173981" xlink:href="#mfe2e15f8eb" y="105.727859"/>
     <use style="fill:#577b98;stroke:#577b98;stroke-linejoin:miter;" x="83.920063" xlink:href="#mfe2e15f8eb" y="109.623405"/>
     <use style="fill:#577b98;stroke:#577b98;stroke-linejoin:miter;" x="92.666144" xlink:href="#mfe2e15f8eb" y="117.513416"/>
     <use style="fill:#577b98;stroke:#577b98;stroke-linejoin:miter;" x="101.412226" xlink:href="#mfe2e15f8eb" y="122.05926"/>
     <use style="fill:#577b98;stroke:#577b98;stroke-linejoin:miter;" x="110.158307" xlink:href="#mfe2e15f8eb" y="125.728202"/>
     <use style="fill:#577b98;stroke:#577b98;stroke-linejoin:miter;" x="118.904389" xlink:href="#mfe2e15f8eb" y="128.354398"/>
     <use style="fill:#577b98;stroke:#577b98;stroke-linejoin:miter;" x="127.65047" xlink:href="#mfe2e15f8eb" y="134.106531"/>
     <use style="fill:#577b98;stroke:#577b98;stroke-linejoin:miter;" x="136.396552" xlink:href="#mfe2e15f8eb" y="140.086032"/>
     <use style="fill:#577b98;stroke:#577b98;stroke-linejoin:miter;" x="145.142633" xlink:href="#mfe2e15f8eb" y="141.911782"/>
     <use style="fill:#577b98;stroke:#577b98;stroke-linejoin:miter;" x="153.888715" xlink:href="#mfe2e15f8eb" y="143.062502"/>
     <use style="fill:#577b98;stroke:#577b98;stroke-linejoin:miter;" x="162.634796" xlink:href="#mfe2e15f8eb" y="145.303612"/>
     <use style="fill:#577b98;stroke:#577b98;stroke-linejoin:miter;" x="171.380878" xlink:href="#mfe2e15f8eb" y="146.990076"/>
     <use style="fill:#577b98;stroke:#577b98;stroke-linejoin:miter;" x="180.126959" xlink:href="#mfe2e15f8eb" y="152.509855"/>
     <use style="fill:#577b98;stroke:#577b98;stroke-linejoin:miter;" x="188.873041" xlink:href="#mfe2e15f8eb" y="154.445589"/>
     <use style="fill:#577b98;stroke:#577b98;stroke-linejoin:miter;" x="197.619122" xlink:href="#mfe2e15f8eb" y="160.342063"/>
     <use style="fill:#577b98;stroke:#577b98;stroke-linejoin:miter;" x="206.365204" xlink:href="#mfe2e15f8eb" y="163.794181"/>
     <use style="fill:#577b98;stroke:#577b98;stroke-linejoin:miter;" x="215.111285" xlink:href="#mfe2e15f8eb" y="167.521913"/>
     <use style="fill:#577b98;stroke:#577b98;stroke-linejoin:miter;" x="223.857367" xlink:href="#mfe2e15f8eb" y="171.436274"/>
     <use style="fill:#577b98;stroke:#577b98;stroke-linejoin:miter;" x="232.603448" xlink:href="#mfe2e15f8eb" y="192.393248"/>
    </g>
   </g>
   <g id="legend_1">
    <g id="line2d_71">
     <path d="M 230.934375 47.658437 
L 250.934375 47.658437 
" style="fill:none;"/>
    </g>
    <g id="line2d_72">
     <g>
      <use style="fill:#b24d4e;stroke:#b24d4e;" x="240.934375" xlink:href="#m092bf1a205" y="47.658437"/>
     </g>
    </g>
    <g id="text_15">
     <!-- WECC -->
     <defs>
      <path d="M 3.328125 72.90625 
L 13.28125 72.90625 
L 28.609375 11.28125 
L 43.890625 72.90625 
L 54.984375 72.90625 
L 70.3125 11.28125 
L 85.59375 72.90625 
L 95.609375 72.90625 
L 77.296875 0 
L 64.890625 0 
L 49.515625 63.28125 
L 33.984375 0 
L 21.578125 0 
z
" id="DejaVuSans-57"/>
      <path d="M 9.8125 72.90625 
L 55.90625 72.90625 
L 55.90625 64.59375 
L 19.671875 64.59375 
L 19.671875 43.015625 
L 54.390625 43.015625 
L 54.390625 34.71875 
L 19.671875 34.71875 
L 19.671875 8.296875 
L 56.78125 8.296875 
L 56.78125 0 
L 9.8125 0 
z
" id="DejaVuSans-45"/>
      <path d="M 64.40625 67.28125 
L 64.40625 56.890625 
Q 59.421875 61.53125 53.78125 63.8125 
Q 48.140625 66.109375 41.796875 66.109375 
Q 29.296875 66.109375 22.65625 58.46875 
Q 16.015625 50.828125 16.015625 36.375 
Q 16.015625 21.96875 22.65625 14.328125 
Q 29.296875 6.6875 41.796875 6.6875 
Q 48.140625 6.6875 53.78125 8.984375 
Q 59.421875 11.28125 64.40625 15.921875 
L 64.40625 5.609375 
Q 59.234375 2.09375 53.4375 0.328125 
Q 47.65625 -1.421875 41.21875 -1.421875 
Q 24.65625 -1.421875 15.125 8.703125 
Q 5.609375 18.84375 5.609375 36.375 
Q 5.609375 53.953125 15.125 64.078125 
Q 24.65625 74.21875 41.21875 74.21875 
Q 47.75 74.21875 53.53125 72.484375 
Q 59.328125 70.75 64.40625 67.28125 
z
" id="DejaVuSans-43"/>
     </defs>
     <g style="fill:#262626;" transform="translate(258.934375 51.158437)scale(0.1 -0.1)">
      <use xlink:href="#DejaVuSans-57"/>
      <use x="98.876953" xlink:href="#DejaVuSans-45"/>
      <use x="162.060547" xlink:href="#DejaVuSans-43"/>
      <use x="231.884766" xlink:href="#DejaVuSans-43"/>
     </g>
    </g>
    <g id="line2d_73">
     <path d="M 230.934375 62.336562 
L 250.934375 62.336562 
" style="fill:none;"/>
    </g>
    <g id="line2d_74">
     <g>
      <use style="fill:#577b98;stroke:#577b98;stroke-linejoin:miter;" x="240.934375" xlink:href="#mfe2e15f8eb" y="62.336562"/>
     </g>
    </g>
    <g id="text_16">
     <!-- WECC Agg. -->
     <defs>
      <path d="M 34.1875 63.1875 
L 20.796875 26.90625 
L 47.609375 26.90625 
z
M 28.609375 72.90625 
L 39.796875 72.90625 
L 67.578125 0 
L 57.328125 0 
L 50.6875 18.703125 
L 17.828125 18.703125 
L 11.1875 0 
L 0.78125 0 
z
" id="DejaVuSans-41"/>
      <path d="M 10.6875 12.40625 
L 21 12.40625 
L 21 0 
L 10.6875 0 
z
" id="DejaVuSans-2e"/>
     </defs>
     <g style="fill:#262626;" transform="translate(258.934375 65.836562)scale(0.1 -0.1)">
      <use xlink:href="#DejaVuSans-57"/>
      <use x="98.876953" xlink:href="#DejaVuSans-45"/>
      <use x="162.060547" xlink:href="#DejaVuSans-43"/>
      <use x="231.884766" xlink:href="#DejaVuSans-43"/>
      <use x="301.708984" xlink:href="#DejaVuSans-20"/>
      <use x="333.496094" xlink:href="#DejaVuSans-41"/>
      <use x="401.904297" xlink:href="#DejaVuSans-67"/>
      <use x="465.380859" xlink:href="#DejaVuSans-67"/>
      <use x="528.857422" xlink:href="#DejaVuSans-2e"/>
     </g>
    </g>
   </g>
  </g>
 </g>
 <defs>
  <clipPath id="p30efae5a14">
   <rect height="217.44" width="279" x="45" y="34.56"/>
  </clipPath>
 </defs>
</svg>
