<?xml version="1.0" encoding="utf-8" standalone="no"?>
<!DOCTYPE svg PUBLIC "-//W3C//DTD SVG 1.1//EN"
  "http://www.w3.org/Graphics/SVG/1.1/DTD/svg11.dtd">
<!-- Created with matplotlib (http://matplotlib.org/) -->
<svg height="432pt" version="1.1" viewBox="0 0 648 432" width="648pt" xmlns="http://www.w3.org/2000/svg" xmlns:xlink="http://www.w3.org/1999/xlink">
 <defs>
  <style type="text/css">
*{stroke-linecap:butt;stroke-linejoin:round;}
  </style>
 </defs>
 <g id="figure_1">
  <g id="patch_1">
   <path d="M 0 432 
L 648 432 
L 648 0 
L 0 0 
z
" style="fill:#ffffff;"/>
  </g>
  <g id="axes_1">
   <g id="patch_2">
    <path d="M 57.135957 190.1 
L 232.790638 190.1 
L 232.790638 26.8 
L 57.135957 26.8 
z
" style="fill:#ffffff;"/>
   </g>
   <g id="matplotlib.axis_1">
    <g id="xtick_1">
     <g id="line2d_1">
      <path clip-path="url(#pa935ed4f97)" d="M 57.135957 190.1 
L 57.135957 26.8 
" style="fill:none;stroke:#cccccc;stroke-linecap:round;stroke-width:0.8;"/>
     </g>
     <g id="line2d_2"/>
     <g id="text_1">
      <!-- 0 -->
      <defs>
       <path d="M 31.78125 66.40625 
Q 24.171875 66.40625 20.328125 58.90625 
Q 16.5 51.421875 16.5 36.375 
Q 16.5 21.390625 20.328125 13.890625 
Q 24.171875 6.390625 31.78125 6.390625 
Q 39.453125 6.390625 43.28125 13.890625 
Q 47.125 21.390625 47.125 36.375 
Q 47.125 51.421875 43.28125 58.90625 
Q 39.453125 66.40625 31.78125 66.40625 
z
M 31.78125 74.21875 
Q 44.046875 74.21875 50.515625 64.515625 
Q 56.984375 54.828125 56.984375 36.375 
Q 56.984375 17.96875 50.515625 8.265625 
Q 44.046875 -1.421875 31.78125 -1.421875 
Q 19.53125 -1.421875 13.0625 8.265625 
Q 6.59375 17.96875 6.59375 36.375 
Q 6.59375 54.828125 13.0625 64.515625 
Q 19.53125 74.21875 31.78125 74.21875 
z
" id="DejaVuSans-30"/>
      </defs>
      <g style="fill:#262626;" transform="translate(53.954707 201.198438)scale(0.1 -0.1)">
       <use xlink:href="#DejaVuSans-30"/>
      </g>
     </g>
    </g>
    <g id="xtick_2">
     <g id="line2d_3">
      <path clip-path="url(#pa935ed4f97)" d="M 123.171551 190.1 
L 123.171551 26.8 
" style="fill:none;stroke:#cccccc;stroke-linecap:round;stroke-width:0.8;"/>
     </g>
     <g id="line2d_4"/>
     <g id="text_2">
      <!-- 50 -->
      <defs>
       <path d="M 10.796875 72.90625 
L 49.515625 72.90625 
L 49.515625 64.59375 
L 19.828125 64.59375 
L 19.828125 46.734375 
Q 21.96875 47.46875 24.109375 47.828125 
Q 26.265625 48.1875 28.421875 48.1875 
Q 40.625 48.1875 47.75 41.5 
Q 54.890625 34.8125 54.890625 23.390625 
Q 54.890625 11.625 47.5625 5.09375 
Q 40.234375 -1.421875 26.90625 -1.421875 
Q 22.3125 -1.421875 17.546875 -0.640625 
Q 12.796875 0.140625 7.71875 1.703125 
L 7.71875 11.625 
Q 12.109375 9.234375 16.796875 8.0625 
Q 21.484375 6.890625 26.703125 6.890625 
Q 35.15625 6.890625 40.078125 11.328125 
Q 45.015625 15.765625 45.015625 23.390625 
Q 45.015625 31 40.078125 35.4375 
Q 35.15625 39.890625 26.703125 39.890625 
Q 22.75 39.890625 18.8125 39.015625 
Q 14.890625 38.140625 10.796875 36.28125 
z
" id="DejaVuSans-35"/>
      </defs>
      <g style="fill:#262626;" transform="translate(116.809051 201.198438)scale(0.1 -0.1)">
       <use xlink:href="#DejaVuSans-35"/>
       <use x="63.623047" xlink:href="#DejaVuSans-30"/>
      </g>
     </g>
    </g>
    <g id="xtick_3">
     <g id="line2d_5">
      <path clip-path="url(#pa935ed4f97)" d="M 189.207146 190.1 
L 189.207146 26.8 
" style="fill:none;stroke:#cccccc;stroke-linecap:round;stroke-width:0.8;"/>
     </g>
     <g id="line2d_6"/>
     <g id="text_3">
      <!-- 100 -->
      <defs>
       <path d="M 12.40625 8.296875 
L 28.515625 8.296875 
L 28.515625 63.921875 
L 10.984375 60.40625 
L 10.984375 69.390625 
L 28.421875 72.90625 
L 38.28125 72.90625 
L 38.28125 8.296875 
L 54.390625 8.296875 
L 54.390625 0 
L 12.40625 0 
z
" id="DejaVuSans-31"/>
      </defs>
      <g style="fill:#262626;" transform="translate(179.663396 201.198438)scale(0.1 -0.1)">
       <use xlink:href="#DejaVuSans-31"/>
       <use x="63.623047" xlink:href="#DejaVuSans-30"/>
       <use x="127.246094" xlink:href="#DejaVuSans-30"/>
      </g>
     </g>
    </g>
   </g>
   <g id="matplotlib.axis_2">
    <g id="ytick_1">
     <g id="line2d_7">
      <path clip-path="url(#pa935ed4f97)" d="M 57.135957 174.740557 
L 232.790638 174.740557 
" style="fill:none;stroke:#cccccc;stroke-linecap:round;stroke-width:0.8;"/>
     </g>
     <g id="line2d_8"/>
     <g id="text_4">
      <!-- $\mathdefault{10^{-13}}$ -->
      <defs>
       <path d="M 10.59375 35.5 
L 73.1875 35.5 
L 73.1875 27.203125 
L 10.59375 27.203125 
z
" id="DejaVuSans-2212"/>
       <path d="M 40.578125 39.3125 
Q 47.65625 37.796875 51.625 33 
Q 55.609375 28.21875 55.609375 21.1875 
Q 55.609375 10.40625 48.1875 4.484375 
Q 40.765625 -1.421875 27.09375 -1.421875 
Q 22.515625 -1.421875 17.65625 -0.515625 
Q 12.796875 0.390625 7.625 2.203125 
L 7.625 11.71875 
Q 11.71875 9.328125 16.59375 8.109375 
Q 21.484375 6.890625 26.8125 6.890625 
Q 36.078125 6.890625 40.9375 10.546875 
Q 45.796875 14.203125 45.796875 21.1875 
Q 45.796875 27.640625 41.28125 31.265625 
Q 36.765625 34.90625 28.71875 34.90625 
L 20.21875 34.90625 
L 20.21875 43.015625 
L 29.109375 43.015625 
Q 36.375 43.015625 40.234375 45.921875 
Q 44.09375 48.828125 44.09375 54.296875 
Q 44.09375 59.90625 40.109375 62.90625 
Q 36.140625 65.921875 28.71875 65.921875 
Q 24.65625 65.921875 20.015625 65.03125 
Q 15.375 64.15625 9.8125 62.3125 
L 9.8125 71.09375 
Q 15.4375 72.65625 20.34375 73.4375 
Q 25.25 74.21875 29.59375 74.21875 
Q 40.828125 74.21875 47.359375 69.109375 
Q 53.90625 64.015625 53.90625 55.328125 
Q 53.90625 49.265625 50.4375 45.09375 
Q 46.96875 40.921875 40.578125 39.3125 
z
" id="DejaVuSans-33"/>
      </defs>
      <g style="fill:#262626;" transform="translate(25.735957 178.539776)scale(0.1 -0.1)">
       <use transform="translate(0 0.765625)" xlink:href="#DejaVuSans-31"/>
       <use transform="translate(63.623047 0.765625)" xlink:href="#DejaVuSans-30"/>
       <use transform="translate(128.203125 39.046875)scale(0.7)" xlink:href="#DejaVuSans-2212"/>
       <use transform="translate(186.855469 39.046875)scale(0.7)" xlink:href="#DejaVuSans-31"/>
       <use transform="translate(231.391602 39.046875)scale(0.7)" xlink:href="#DejaVuSans-33"/>
      </g>
     </g>
    </g>
    <g id="ytick_2">
     <g id="line2d_9">
      <path clip-path="url(#pa935ed4f97)" d="M 57.135957 153.280379 
L 232.790638 153.280379 
" style="fill:none;stroke:#cccccc;stroke-linecap:round;stroke-width:0.8;"/>
     </g>
     <g id="line2d_10"/>
     <g id="text_5">
      <!-- $\mathdefault{10^{-10}}$ -->
      <g style="fill:#262626;" transform="translate(25.735957 157.079597)scale(0.1 -0.1)">
       <use transform="translate(0 0.765625)" xlink:href="#DejaVuSans-31"/>
       <use transform="translate(63.623047 0.765625)" xlink:href="#DejaVuSans-30"/>
       <use transform="translate(128.203125 39.046875)scale(0.7)" xlink:href="#DejaVuSans-2212"/>
       <use transform="translate(186.855469 39.046875)scale(0.7)" xlink:href="#DejaVuSans-31"/>
       <use transform="translate(231.391602 39.046875)scale(0.7)" xlink:href="#DejaVuSans-30"/>
      </g>
     </g>
    </g>
    <g id="ytick_3">
     <g id="line2d_11">
      <path clip-path="url(#pa935ed4f97)" d="M 57.135957 131.8202 
L 232.790638 131.8202 
" style="fill:none;stroke:#cccccc;stroke-linecap:round;stroke-width:0.8;"/>
     </g>
     <g id="line2d_12"/>
     <g id="text_6">
      <!-- $\mathdefault{10^{-7}}$ -->
      <defs>
       <path d="M 8.203125 72.90625 
L 55.078125 72.90625 
L 55.078125 68.703125 
L 28.609375 0 
L 18.3125 0 
L 43.21875 64.59375 
L 8.203125 64.59375 
z
" id="DejaVuSans-37"/>
      </defs>
      <g style="fill:#262626;" transform="translate(30.135957 135.619419)scale(0.1 -0.1)">
       <use transform="translate(0 0.684375)" xlink:href="#DejaVuSans-31"/>
       <use transform="translate(63.623047 0.684375)" xlink:href="#DejaVuSans-30"/>
       <use transform="translate(128.203125 38.965625)scale(0.7)" xlink:href="#DejaVuSans-2212"/>
       <use transform="translate(186.855469 38.965625)scale(0.7)" xlink:href="#DejaVuSans-37"/>
      </g>
     </g>
    </g>
    <g id="ytick_4">
     <g id="line2d_13">
      <path clip-path="url(#pa935ed4f97)" d="M 57.135957 110.360021 
L 232.790638 110.360021 
" style="fill:none;stroke:#cccccc;stroke-linecap:round;stroke-width:0.8;"/>
     </g>
     <g id="line2d_14"/>
     <g id="text_7">
      <!-- $\mathdefault{10^{-4}}$ -->
      <defs>
       <path d="M 37.796875 64.3125 
L 12.890625 25.390625 
L 37.796875 25.390625 
z
M 35.203125 72.90625 
L 47.609375 72.90625 
L 47.609375 25.390625 
L 58.015625 25.390625 
L 58.015625 17.1875 
L 47.609375 17.1875 
L 47.609375 0 
L 37.796875 0 
L 37.796875 17.1875 
L 4.890625 17.1875 
L 4.890625 26.703125 
z
" id="DejaVuSans-34"/>
      </defs>
      <g style="fill:#262626;" transform="translate(30.135957 114.15924)scale(0.1 -0.1)">
       <use transform="translate(0 0.684375)" xlink:href="#DejaVuSans-31"/>
       <use transform="translate(63.623047 0.684375)" xlink:href="#DejaVuSans-30"/>
       <use transform="translate(128.203125 38.965625)scale(0.7)" xlink:href="#DejaVuSans-2212"/>
       <use transform="translate(186.855469 38.965625)scale(0.7)" xlink:href="#DejaVuSans-34"/>
      </g>
     </g>
    </g>
    <g id="ytick_5">
     <g id="line2d_15">
      <path clip-path="url(#pa935ed4f97)" d="M 57.135957 88.899843 
L 232.790638 88.899843 
" style="fill:none;stroke:#cccccc;stroke-linecap:round;stroke-width:0.8;"/>
     </g>
     <g id="line2d_16"/>
     <g id="text_8">
      <!-- $\mathdefault{10^{-1}}$ -->
      <g style="fill:#262626;" transform="translate(30.135957 92.699061)scale(0.1 -0.1)">
       <use transform="translate(0 0.684375)" xlink:href="#DejaVuSans-31"/>
       <use transform="translate(63.623047 0.684375)" xlink:href="#DejaVuSans-30"/>
       <use transform="translate(128.203125 38.965625)scale(0.7)" xlink:href="#DejaVuSans-2212"/>
       <use transform="translate(186.855469 38.965625)scale(0.7)" xlink:href="#DejaVuSans-31"/>
      </g>
     </g>
    </g>
    <g id="ytick_6">
     <g id="line2d_17">
      <path clip-path="url(#pa935ed4f97)" d="M 57.135957 67.439664 
L 232.790638 67.439664 
" style="fill:none;stroke:#cccccc;stroke-linecap:round;stroke-width:0.8;"/>
     </g>
     <g id="line2d_18"/>
     <g id="text_9">
      <!-- $\mathdefault{10^{2}}$ -->
      <defs>
       <path d="M 19.1875 8.296875 
L 53.609375 8.296875 
L 53.609375 0 
L 7.328125 0 
L 7.328125 8.296875 
Q 12.9375 14.109375 22.625 23.890625 
Q 32.328125 33.6875 34.8125 36.53125 
Q 39.546875 41.84375 41.421875 45.53125 
Q 43.3125 49.21875 43.3125 52.78125 
Q 43.3125 58.59375 39.234375 62.25 
Q 35.15625 65.921875 28.609375 65.921875 
Q 23.96875 65.921875 18.8125 64.3125 
Q 13.671875 62.703125 7.8125 59.421875 
L 7.8125 69.390625 
Q 13.765625 71.78125 18.9375 73 
Q 24.125 74.21875 28.421875 74.21875 
Q 39.75 74.21875 46.484375 68.546875 
Q 53.21875 62.890625 53.21875 53.421875 
Q 53.21875 48.921875 51.53125 44.890625 
Q 49.859375 40.875 45.40625 35.40625 
Q 44.1875 33.984375 37.640625 27.21875 
Q 31.109375 20.453125 19.1875 8.296875 
z
" id="DejaVuSans-32"/>
      </defs>
      <g style="fill:#262626;" transform="translate(36.035957 71.238883)scale(0.1 -0.1)">
       <use transform="translate(0 0.765625)" xlink:href="#DejaVuSans-31"/>
       <use transform="translate(63.623047 0.765625)" xlink:href="#DejaVuSans-30"/>
       <use transform="translate(128.203125 39.046875)scale(0.7)" xlink:href="#DejaVuSans-32"/>
      </g>
     </g>
    </g>
    <g id="ytick_7">
     <g id="line2d_19">
      <path clip-path="url(#pa935ed4f97)" d="M 57.135957 45.979485 
L 232.790638 45.979485 
" style="fill:none;stroke:#cccccc;stroke-linecap:round;stroke-width:0.8;"/>
     </g>
     <g id="line2d_20"/>
     <g id="text_10">
      <!-- $\mathdefault{10^{5}}$ -->
      <g style="fill:#262626;" transform="translate(36.035957 49.778704)scale(0.1 -0.1)">
       <use transform="translate(0 0.684375)" xlink:href="#DejaVuSans-31"/>
       <use transform="translate(63.623047 0.684375)" xlink:href="#DejaVuSans-30"/>
       <use transform="translate(128.203125 38.965625)scale(0.7)" xlink:href="#DejaVuSans-35"/>
      </g>
     </g>
    </g>
    <g id="text_11">
     <!-- Singular values (log) -->
     <defs>
      <path d="M 53.515625 70.515625 
L 53.515625 60.890625 
Q 47.90625 63.578125 42.921875 64.890625 
Q 37.9375 66.21875 33.296875 66.21875 
Q 25.25 66.21875 20.875 63.09375 
Q 16.5 59.96875 16.5 54.203125 
Q 16.5 49.359375 19.40625 46.890625 
Q 22.3125 44.4375 30.421875 42.921875 
L 36.375 41.703125 
Q 47.40625 39.59375 52.65625 34.296875 
Q 57.90625 29 57.90625 20.125 
Q 57.90625 9.515625 50.796875 4.046875 
Q 43.703125 -1.421875 29.984375 -1.421875 
Q 24.8125 -1.421875 18.96875 -0.25 
Q 13.140625 0.921875 6.890625 3.21875 
L 6.890625 13.375 
Q 12.890625 10.015625 18.65625 8.296875 
Q 24.421875 6.59375 29.984375 6.59375 
Q 38.421875 6.59375 43.015625 9.90625 
Q 47.609375 13.234375 47.609375 19.390625 
Q 47.609375 24.75 44.3125 27.78125 
Q 41.015625 30.8125 33.5 32.328125 
L 27.484375 33.5 
Q 16.453125 35.6875 11.515625 40.375 
Q 6.59375 45.0625 6.59375 53.421875 
Q 6.59375 63.09375 13.40625 68.65625 
Q 20.21875 74.21875 32.171875 74.21875 
Q 37.3125 74.21875 42.625 73.28125 
Q 47.953125 72.359375 53.515625 70.515625 
z
" id="DejaVuSans-53"/>
      <path d="M 9.421875 54.6875 
L 18.40625 54.6875 
L 18.40625 0 
L 9.421875 0 
z
M 9.421875 75.984375 
L 18.40625 75.984375 
L 18.40625 64.59375 
L 9.421875 64.59375 
z
" id="DejaVuSans-69"/>
      <path d="M 54.890625 33.015625 
L 54.890625 0 
L 45.90625 0 
L 45.90625 32.71875 
Q 45.90625 40.484375 42.875 44.328125 
Q 39.84375 48.1875 33.796875 48.1875 
Q 26.515625 48.1875 22.3125 43.546875 
Q 18.109375 38.921875 18.109375 30.90625 
L 18.109375 0 
L 9.078125 0 
L 9.078125 54.6875 
L 18.109375 54.6875 
L 18.109375 46.1875 
Q 21.34375 51.125 25.703125 53.5625 
Q 30.078125 56 35.796875 56 
Q 45.21875 56 50.046875 50.171875 
Q 54.890625 44.34375 54.890625 33.015625 
z
" id="DejaVuSans-6e"/>
      <path d="M 45.40625 27.984375 
Q 45.40625 37.75 41.375 43.109375 
Q 37.359375 48.484375 30.078125 48.484375 
Q 22.859375 48.484375 18.828125 43.109375 
Q 14.796875 37.75 14.796875 27.984375 
Q 14.796875 18.265625 18.828125 12.890625 
Q 22.859375 7.515625 30.078125 7.515625 
Q 37.359375 7.515625 41.375 12.890625 
Q 45.40625 18.265625 45.40625 27.984375 
z
M 54.390625 6.78125 
Q 54.390625 -7.171875 48.1875 -13.984375 
Q 42 -20.796875 29.203125 -20.796875 
Q 24.46875 -20.796875 20.265625 -20.09375 
Q 16.0625 -19.390625 12.109375 -17.921875 
L 12.109375 -9.1875 
Q 16.0625 -11.328125 19.921875 -12.34375 
Q 23.78125 -13.375 27.78125 -13.375 
Q 36.625 -13.375 41.015625 -8.765625 
Q 45.40625 -4.15625 45.40625 5.171875 
L 45.40625 9.625 
Q 42.625 4.78125 38.28125 2.390625 
Q 33.9375 0 27.875 0 
Q 17.828125 0 11.671875 7.65625 
Q 5.515625 15.328125 5.515625 27.984375 
Q 5.515625 40.671875 11.671875 48.328125 
Q 17.828125 56 27.875 56 
Q 33.9375 56 38.28125 53.609375 
Q 42.625 51.21875 45.40625 46.390625 
L 45.40625 54.6875 
L 54.390625 54.6875 
z
" id="DejaVuSans-67"/>
      <path d="M 8.5 21.578125 
L 8.5 54.6875 
L 17.484375 54.6875 
L 17.484375 21.921875 
Q 17.484375 14.15625 20.5 10.265625 
Q 23.53125 6.390625 29.59375 6.390625 
Q 36.859375 6.390625 41.078125 11.03125 
Q 45.3125 15.671875 45.3125 23.6875 
L 45.3125 54.6875 
L 54.296875 54.6875 
L 54.296875 0 
L 45.3125 0 
L 45.3125 8.40625 
Q 42.046875 3.421875 37.71875 1 
Q 33.40625 -1.421875 27.6875 -1.421875 
Q 18.265625 -1.421875 13.375 4.4375 
Q 8.5 10.296875 8.5 21.578125 
z
M 31.109375 56 
z
" id="DejaVuSans-75"/>
      <path d="M 9.421875 75.984375 
L 18.40625 75.984375 
L 18.40625 0 
L 9.421875 0 
z
" id="DejaVuSans-6c"/>
      <path d="M 34.28125 27.484375 
Q 23.390625 27.484375 19.1875 25 
Q 14.984375 22.515625 14.984375 16.5 
Q 14.984375 11.71875 18.140625 8.90625 
Q 21.296875 6.109375 26.703125 6.109375 
Q 34.1875 6.109375 38.703125 11.40625 
Q 43.21875 16.703125 43.21875 25.484375 
L 43.21875 27.484375 
z
M 52.203125 31.203125 
L 52.203125 0 
L 43.21875 0 
L 43.21875 8.296875 
Q 40.140625 3.328125 35.546875 0.953125 
Q 30.953125 -1.421875 24.3125 -1.421875 
Q 15.921875 -1.421875 10.953125 3.296875 
Q 6 8.015625 6 15.921875 
Q 6 25.140625 12.171875 29.828125 
Q 18.359375 34.515625 30.609375 34.515625 
L 43.21875 34.515625 
L 43.21875 35.40625 
Q 43.21875 41.609375 39.140625 45 
Q 35.0625 48.390625 27.6875 48.390625 
Q 23 48.390625 18.546875 47.265625 
Q 14.109375 46.140625 10.015625 43.890625 
L 10.015625 52.203125 
Q 14.9375 54.109375 19.578125 55.046875 
Q 24.21875 56 28.609375 56 
Q 40.484375 56 46.34375 49.84375 
Q 52.203125 43.703125 52.203125 31.203125 
z
" id="DejaVuSans-61"/>
      <path d="M 41.109375 46.296875 
Q 39.59375 47.171875 37.8125 47.578125 
Q 36.03125 48 33.890625 48 
Q 26.265625 48 22.1875 43.046875 
Q 18.109375 38.09375 18.109375 28.8125 
L 18.109375 0 
L 9.078125 0 
L 9.078125 54.6875 
L 18.109375 54.6875 
L 18.109375 46.1875 
Q 20.953125 51.171875 25.484375 53.578125 
Q 30.03125 56 36.53125 56 
Q 37.453125 56 38.578125 55.875 
Q 39.703125 55.765625 41.0625 55.515625 
z
" id="DejaVuSans-72"/>
      <path id="DejaVuSans-20"/>
      <path d="M 2.984375 54.6875 
L 12.5 54.6875 
L 29.59375 8.796875 
L 46.6875 54.6875 
L 56.203125 54.6875 
L 35.6875 0 
L 23.484375 0 
z
" id="DejaVuSans-76"/>
      <path d="M 56.203125 29.59375 
L 56.203125 25.203125 
L 14.890625 25.203125 
Q 15.484375 15.921875 20.484375 11.0625 
Q 25.484375 6.203125 34.421875 6.203125 
Q 39.59375 6.203125 44.453125 7.46875 
Q 49.3125 8.734375 54.109375 11.28125 
L 54.109375 2.78125 
Q 49.265625 0.734375 44.1875 -0.34375 
Q 39.109375 -1.421875 33.890625 -1.421875 
Q 20.796875 -1.421875 13.15625 6.1875 
Q 5.515625 13.8125 5.515625 26.8125 
Q 5.515625 40.234375 12.765625 48.109375 
Q 20.015625 56 32.328125 56 
Q 43.359375 56 49.78125 48.890625 
Q 56.203125 41.796875 56.203125 29.59375 
z
M 47.21875 32.234375 
Q 47.125 39.59375 43.09375 43.984375 
Q 39.0625 48.390625 32.421875 48.390625 
Q 24.90625 48.390625 20.390625 44.140625 
Q 15.875 39.890625 15.1875 32.171875 
z
" id="DejaVuSans-65"/>
      <path d="M 44.28125 53.078125 
L 44.28125 44.578125 
Q 40.484375 46.53125 36.375 47.5 
Q 32.28125 48.484375 27.875 48.484375 
Q 21.1875 48.484375 17.84375 46.4375 
Q 14.5 44.390625 14.5 40.28125 
Q 14.5 37.15625 16.890625 35.375 
Q 19.28125 33.59375 26.515625 31.984375 
L 29.59375 31.296875 
Q 39.15625 29.25 43.1875 25.515625 
Q 47.21875 21.78125 47.21875 15.09375 
Q 47.21875 7.46875 41.1875 3.015625 
Q 35.15625 -1.421875 24.609375 -1.421875 
Q 20.21875 -1.421875 15.453125 -0.5625 
Q 10.6875 0.296875 5.421875 2 
L 5.421875 11.28125 
Q 10.40625 8.6875 15.234375 7.390625 
Q 20.0625 6.109375 24.8125 6.109375 
Q 31.15625 6.109375 34.5625 8.28125 
Q 37.984375 10.453125 37.984375 14.40625 
Q 37.984375 18.0625 35.515625 20.015625 
Q 33.0625 21.96875 24.703125 23.78125 
L 21.578125 24.515625 
Q 13.234375 26.265625 9.515625 29.90625 
Q 5.8125 33.546875 5.8125 39.890625 
Q 5.8125 47.609375 11.28125 51.796875 
Q 16.75 56 26.8125 56 
Q 31.78125 56 36.171875 55.265625 
Q 40.578125 54.546875 44.28125 53.078125 
z
" id="DejaVuSans-73"/>
      <path d="M 31 75.875 
Q 24.46875 64.65625 21.28125 53.65625 
Q 18.109375 42.671875 18.109375 31.390625 
Q 18.109375 20.125 21.3125 9.0625 
Q 24.515625 -2 31 -13.1875 
L 23.1875 -13.1875 
Q 15.875 -1.703125 12.234375 9.375 
Q 8.59375 20.453125 8.59375 31.390625 
Q 8.59375 42.28125 12.203125 53.3125 
Q 15.828125 64.359375 23.1875 75.875 
z
" id="DejaVuSans-28"/>
      <path d="M 30.609375 48.390625 
Q 23.390625 48.390625 19.1875 42.75 
Q 14.984375 37.109375 14.984375 27.296875 
Q 14.984375 17.484375 19.15625 11.84375 
Q 23.34375 6.203125 30.609375 6.203125 
Q 37.796875 6.203125 41.984375 11.859375 
Q 46.1875 17.53125 46.1875 27.296875 
Q 46.1875 37.015625 41.984375 42.703125 
Q 37.796875 48.390625 30.609375 48.390625 
z
M 30.609375 56 
Q 42.328125 56 49.015625 48.375 
Q 55.71875 40.765625 55.71875 27.296875 
Q 55.71875 13.875 49.015625 6.21875 
Q 42.328125 -1.421875 30.609375 -1.421875 
Q 18.84375 -1.421875 12.171875 6.21875 
Q 5.515625 13.875 5.515625 27.296875 
Q 5.515625 40.765625 12.171875 48.375 
Q 18.84375 56 30.609375 56 
z
" id="DejaVuSans-6f"/>
      <path d="M 8.015625 75.875 
L 15.828125 75.875 
Q 23.140625 64.359375 26.78125 53.3125 
Q 30.421875 42.28125 30.421875 31.390625 
Q 30.421875 20.453125 26.78125 9.375 
Q 23.140625 -1.703125 15.828125 -13.1875 
L 8.015625 -13.1875 
Q 14.5 -2 17.703125 9.0625 
Q 20.90625 20.125 20.90625 31.390625 
Q 20.90625 42.671875 17.703125 53.65625 
Q 14.5 64.65625 8.015625 75.875 
z
" id="DejaVuSans-29"/>
     </defs>
     <g style="fill:#262626;" transform="translate(19.65627 159.998438)rotate(-90)scale(0.1 -0.1)">
      <use xlink:href="#DejaVuSans-53"/>
      <use x="63.476562" xlink:href="#DejaVuSans-69"/>
      <use x="91.259766" xlink:href="#DejaVuSans-6e"/>
      <use x="154.638672" xlink:href="#DejaVuSans-67"/>
      <use x="218.115234" xlink:href="#DejaVuSans-75"/>
      <use x="281.494141" xlink:href="#DejaVuSans-6c"/>
      <use x="309.277344" xlink:href="#DejaVuSans-61"/>
      <use x="370.556641" xlink:href="#DejaVuSans-72"/>
      <use x="411.669922" xlink:href="#DejaVuSans-20"/>
      <use x="443.457031" xlink:href="#DejaVuSans-76"/>
      <use x="502.636719" xlink:href="#DejaVuSans-61"/>
      <use x="563.916016" xlink:href="#DejaVuSans-6c"/>
      <use x="591.699219" xlink:href="#DejaVuSans-75"/>
      <use x="655.078125" xlink:href="#DejaVuSans-65"/>
      <use x="716.601562" xlink:href="#DejaVuSans-73"/>
      <use x="768.701172" xlink:href="#DejaVuSans-20"/>
      <use x="800.488281" xlink:href="#DejaVuSans-28"/>
      <use x="839.501953" xlink:href="#DejaVuSans-6c"/>
      <use x="867.285156" xlink:href="#DejaVuSans-6f"/>
      <use x="928.466797" xlink:href="#DejaVuSans-67"/>
      <use x="991.943359" xlink:href="#DejaVuSans-29"/>
     </g>
    </g>
   </g>
   <g id="line2d_21">
    <path clip-path="url(#pa935ed4f97)" d="M 58.456669 37.615559 
L 59.777381 45.431734 
L 61.098093 48.665344 
L 62.418805 49.613218 
L 63.739516 51.069678 
L 65.060228 51.285446 
L 66.38094 52.452628 
L 67.701652 53.783954 
L 69.022364 54.244057 
L 72.9845 55.133559 
L 74.305212 55.771185 
L 78.267347 57.123893 
L 79.588059 57.296138 
L 80.908771 57.595774 
L 82.229483 58.150457 
L 83.550195 62.124793 
L 84.870907 69.375776 
L 86.191619 70.442582 
L 87.51233 70.876171 
L 92.795178 71.141079 
L 106.002297 71.278548 
L 215.621383 71.848739 
L 222.224943 71.9957 
L 223.545655 72.254088 
L 224.866367 72.28224 
L 226.187079 72.537822 
L 227.50779 147.438236 
L 228.828502 172.774975 
L 230.149214 180.951401 
L 231.469926 182.677273 
L 231.469926 182.677273 
" style="fill:none;"/>
    <defs>
     <path d="M 0 1.5 
C 0.397805 1.5 0.77937 1.341951 1.06066 1.06066 
C 1.341951 0.77937 1.5 0.397805 1.5 0 
C 1.5 -0.397805 1.341951 -0.77937 1.06066 -1.06066 
C 0.77937 -1.341951 0.397805 -1.5 0 -1.5 
C -0.397805 -1.5 -0.77937 -1.341951 -1.06066 -1.06066 
C -1.341951 -0.77937 -1.5 -0.397805 -1.5 0 
C -1.5 0.397805 -1.341951 0.77937 -1.06066 1.06066 
C -0.77937 1.341951 -0.397805 1.5 0 1.5 
z
" id="m9cb950d901" style="stroke:#1f77b4;"/>
    </defs>
    <g clip-path="url(#pa935ed4f97)">
     <use style="fill:#1f77b4;stroke:#1f77b4;" x="58.456669" xlink:href="#m9cb950d901" y="37.615559"/>
     <use style="fill:#1f77b4;stroke:#1f77b4;" x="59.777381" xlink:href="#m9cb950d901" y="45.431734"/>
     <use style="fill:#1f77b4;stroke:#1f77b4;" x="61.098093" xlink:href="#m9cb950d901" y="48.665344"/>
     <use style="fill:#1f77b4;stroke:#1f77b4;" x="62.418805" xlink:href="#m9cb950d901" y="49.613218"/>
     <use style="fill:#1f77b4;stroke:#1f77b4;" x="63.739516" xlink:href="#m9cb950d901" y="51.069678"/>
     <use style="fill:#1f77b4;stroke:#1f77b4;" x="65.060228" xlink:href="#m9cb950d901" y="51.285446"/>
     <use style="fill:#1f77b4;stroke:#1f77b4;" x="66.38094" xlink:href="#m9cb950d901" y="52.452628"/>
     <use style="fill:#1f77b4;stroke:#1f77b4;" x="67.701652" xlink:href="#m9cb950d901" y="53.783954"/>
     <use style="fill:#1f77b4;stroke:#1f77b4;" x="69.022364" xlink:href="#m9cb950d901" y="54.244057"/>
     <use style="fill:#1f77b4;stroke:#1f77b4;" x="70.343076" xlink:href="#m9cb950d901" y="54.513025"/>
     <use style="fill:#1f77b4;stroke:#1f77b4;" x="71.663788" xlink:href="#m9cb950d901" y="54.76772"/>
     <use style="fill:#1f77b4;stroke:#1f77b4;" x="72.9845" xlink:href="#m9cb950d901" y="55.133559"/>
     <use style="fill:#1f77b4;stroke:#1f77b4;" x="74.305212" xlink:href="#m9cb950d901" y="55.771185"/>
     <use style="fill:#1f77b4;stroke:#1f77b4;" x="75.625923" xlink:href="#m9cb950d901" y="56.235734"/>
     <use style="fill:#1f77b4;stroke:#1f77b4;" x="76.946635" xlink:href="#m9cb950d901" y="56.68119"/>
     <use style="fill:#1f77b4;stroke:#1f77b4;" x="78.267347" xlink:href="#m9cb950d901" y="57.123893"/>
     <use style="fill:#1f77b4;stroke:#1f77b4;" x="79.588059" xlink:href="#m9cb950d901" y="57.296138"/>
     <use style="fill:#1f77b4;stroke:#1f77b4;" x="80.908771" xlink:href="#m9cb950d901" y="57.595774"/>
     <use style="fill:#1f77b4;stroke:#1f77b4;" x="82.229483" xlink:href="#m9cb950d901" y="58.150457"/>
     <use style="fill:#1f77b4;stroke:#1f77b4;" x="83.550195" xlink:href="#m9cb950d901" y="62.124793"/>
     <use style="fill:#1f77b4;stroke:#1f77b4;" x="84.870907" xlink:href="#m9cb950d901" y="69.375776"/>
     <use style="fill:#1f77b4;stroke:#1f77b4;" x="86.191619" xlink:href="#m9cb950d901" y="70.442582"/>
     <use style="fill:#1f77b4;stroke:#1f77b4;" x="87.51233" xlink:href="#m9cb950d901" y="70.876171"/>
     <use style="fill:#1f77b4;stroke:#1f77b4;" x="88.833042" xlink:href="#m9cb950d901" y="70.960565"/>
     <use style="fill:#1f77b4;stroke:#1f77b4;" x="90.153754" xlink:href="#m9cb950d901" y="70.975407"/>
     <use style="fill:#1f77b4;stroke:#1f77b4;" x="91.474466" xlink:href="#m9cb950d901" y="71.127594"/>
     <use style="fill:#1f77b4;stroke:#1f77b4;" x="92.795178" xlink:href="#m9cb950d901" y="71.141079"/>
     <use style="fill:#1f77b4;stroke:#1f77b4;" x="94.11589" xlink:href="#m9cb950d901" y="71.165021"/>
     <use style="fill:#1f77b4;stroke:#1f77b4;" x="95.436602" xlink:href="#m9cb950d901" y="71.187063"/>
     <use style="fill:#1f77b4;stroke:#1f77b4;" x="96.757314" xlink:href="#m9cb950d901" y="71.218108"/>
     <use style="fill:#1f77b4;stroke:#1f77b4;" x="98.078026" xlink:href="#m9cb950d901" y="71.230487"/>
     <use style="fill:#1f77b4;stroke:#1f77b4;" x="99.398737" xlink:href="#m9cb950d901" y="71.242446"/>
     <use style="fill:#1f77b4;stroke:#1f77b4;" x="100.719449" xlink:href="#m9cb950d901" y="71.250868"/>
     <use style="fill:#1f77b4;stroke:#1f77b4;" x="102.040161" xlink:href="#m9cb950d901" y="71.256265"/>
     <use style="fill:#1f77b4;stroke:#1f77b4;" x="103.360873" xlink:href="#m9cb950d901" y="71.268202"/>
     <use style="fill:#1f77b4;stroke:#1f77b4;" x="104.681585" xlink:href="#m9cb950d901" y="71.273148"/>
     <use style="fill:#1f77b4;stroke:#1f77b4;" x="106.002297" xlink:href="#m9cb950d901" y="71.278548"/>
     <use style="fill:#1f77b4;stroke:#1f77b4;" x="107.323009" xlink:href="#m9cb950d901" y="71.284143"/>
     <use style="fill:#1f77b4;stroke:#1f77b4;" x="108.643721" xlink:href="#m9cb950d901" y="71.29514"/>
     <use style="fill:#1f77b4;stroke:#1f77b4;" x="109.964433" xlink:href="#m9cb950d901" y="71.309155"/>
     <use style="fill:#1f77b4;stroke:#1f77b4;" x="111.285144" xlink:href="#m9cb950d901" y="71.310421"/>
     <use style="fill:#1f77b4;stroke:#1f77b4;" x="112.605856" xlink:href="#m9cb950d901" y="71.323904"/>
     <use style="fill:#1f77b4;stroke:#1f77b4;" x="113.926568" xlink:href="#m9cb950d901" y="71.334459"/>
     <use style="fill:#1f77b4;stroke:#1f77b4;" x="115.24728" xlink:href="#m9cb950d901" y="71.337939"/>
     <use style="fill:#1f77b4;stroke:#1f77b4;" x="116.567992" xlink:href="#m9cb950d901" y="71.340945"/>
     <use style="fill:#1f77b4;stroke:#1f77b4;" x="117.888704" xlink:href="#m9cb950d901" y="71.345855"/>
     <use style="fill:#1f77b4;stroke:#1f77b4;" x="119.209416" xlink:href="#m9cb950d901" y="71.357662"/>
     <use style="fill:#1f77b4;stroke:#1f77b4;" x="120.530128" xlink:href="#m9cb950d901" y="71.365848"/>
     <use style="fill:#1f77b4;stroke:#1f77b4;" x="121.85084" xlink:href="#m9cb950d901" y="71.374279"/>
     <use style="fill:#1f77b4;stroke:#1f77b4;" x="123.171551" xlink:href="#m9cb950d901" y="71.380178"/>
     <use style="fill:#1f77b4;stroke:#1f77b4;" x="124.492263" xlink:href="#m9cb950d901" y="71.383485"/>
     <use style="fill:#1f77b4;stroke:#1f77b4;" x="125.812975" xlink:href="#m9cb950d901" y="71.388092"/>
     <use style="fill:#1f77b4;stroke:#1f77b4;" x="127.133687" xlink:href="#m9cb950d901" y="71.390134"/>
     <use style="fill:#1f77b4;stroke:#1f77b4;" x="128.454399" xlink:href="#m9cb950d901" y="71.394528"/>
     <use style="fill:#1f77b4;stroke:#1f77b4;" x="129.775111" xlink:href="#m9cb950d901" y="71.403899"/>
     <use style="fill:#1f77b4;stroke:#1f77b4;" x="131.095823" xlink:href="#m9cb950d901" y="71.416953"/>
     <use style="fill:#1f77b4;stroke:#1f77b4;" x="132.416535" xlink:href="#m9cb950d901" y="71.422163"/>
     <use style="fill:#1f77b4;stroke:#1f77b4;" x="133.737246" xlink:href="#m9cb950d901" y="71.427824"/>
     <use style="fill:#1f77b4;stroke:#1f77b4;" x="135.057958" xlink:href="#m9cb950d901" y="71.428441"/>
     <use style="fill:#1f77b4;stroke:#1f77b4;" x="136.37867" xlink:href="#m9cb950d901" y="71.436427"/>
     <use style="fill:#1f77b4;stroke:#1f77b4;" x="137.699382" xlink:href="#m9cb950d901" y="71.444711"/>
     <use style="fill:#1f77b4;stroke:#1f77b4;" x="139.020094" xlink:href="#m9cb950d901" y="71.446797"/>
     <use style="fill:#1f77b4;stroke:#1f77b4;" x="140.340806" xlink:href="#m9cb950d901" y="71.456694"/>
     <use style="fill:#1f77b4;stroke:#1f77b4;" x="141.661518" xlink:href="#m9cb950d901" y="71.46123"/>
     <use style="fill:#1f77b4;stroke:#1f77b4;" x="142.98223" xlink:href="#m9cb950d901" y="71.46373"/>
     <use style="fill:#1f77b4;stroke:#1f77b4;" x="144.302942" xlink:href="#m9cb950d901" y="71.472336"/>
     <use style="fill:#1f77b4;stroke:#1f77b4;" x="145.623653" xlink:href="#m9cb950d901" y="71.47503"/>
     <use style="fill:#1f77b4;stroke:#1f77b4;" x="146.944365" xlink:href="#m9cb950d901" y="71.479606"/>
     <use style="fill:#1f77b4;stroke:#1f77b4;" x="148.265077" xlink:href="#m9cb950d901" y="71.482816"/>
     <use style="fill:#1f77b4;stroke:#1f77b4;" x="149.585789" xlink:href="#m9cb950d901" y="71.489033"/>
     <use style="fill:#1f77b4;stroke:#1f77b4;" x="150.906501" xlink:href="#m9cb950d901" y="71.494532"/>
     <use style="fill:#1f77b4;stroke:#1f77b4;" x="152.227213" xlink:href="#m9cb950d901" y="71.499628"/>
     <use style="fill:#1f77b4;stroke:#1f77b4;" x="153.547925" xlink:href="#m9cb950d901" y="71.502672"/>
     <use style="fill:#1f77b4;stroke:#1f77b4;" x="154.868637" xlink:href="#m9cb950d901" y="71.509666"/>
     <use style="fill:#1f77b4;stroke:#1f77b4;" x="156.189349" xlink:href="#m9cb950d901" y="71.512928"/>
     <use style="fill:#1f77b4;stroke:#1f77b4;" x="157.51006" xlink:href="#m9cb950d901" y="71.520414"/>
     <use style="fill:#1f77b4;stroke:#1f77b4;" x="158.830772" xlink:href="#m9cb950d901" y="71.529008"/>
     <use style="fill:#1f77b4;stroke:#1f77b4;" x="160.151484" xlink:href="#m9cb950d901" y="71.53445"/>
     <use style="fill:#1f77b4;stroke:#1f77b4;" x="161.472196" xlink:href="#m9cb950d901" y="71.541362"/>
     <use style="fill:#1f77b4;stroke:#1f77b4;" x="162.792908" xlink:href="#m9cb950d901" y="71.547799"/>
     <use style="fill:#1f77b4;stroke:#1f77b4;" x="164.11362" xlink:href="#m9cb950d901" y="71.550424"/>
     <use style="fill:#1f77b4;stroke:#1f77b4;" x="165.434332" xlink:href="#m9cb950d901" y="71.554756"/>
     <use style="fill:#1f77b4;stroke:#1f77b4;" x="166.755044" xlink:href="#m9cb950d901" y="71.563762"/>
     <use style="fill:#1f77b4;stroke:#1f77b4;" x="168.075756" xlink:href="#m9cb950d901" y="71.568044"/>
     <use style="fill:#1f77b4;stroke:#1f77b4;" x="169.396467" xlink:href="#m9cb950d901" y="71.571871"/>
     <use style="fill:#1f77b4;stroke:#1f77b4;" x="170.717179" xlink:href="#m9cb950d901" y="71.576532"/>
     <use style="fill:#1f77b4;stroke:#1f77b4;" x="172.037891" xlink:href="#m9cb950d901" y="71.587496"/>
     <use style="fill:#1f77b4;stroke:#1f77b4;" x="173.358603" xlink:href="#m9cb950d901" y="71.591258"/>
     <use style="fill:#1f77b4;stroke:#1f77b4;" x="174.679315" xlink:href="#m9cb950d901" y="71.595073"/>
     <use style="fill:#1f77b4;stroke:#1f77b4;" x="176.000027" xlink:href="#m9cb950d901" y="71.604272"/>
     <use style="fill:#1f77b4;stroke:#1f77b4;" x="177.320739" xlink:href="#m9cb950d901" y="71.606731"/>
     <use style="fill:#1f77b4;stroke:#1f77b4;" x="178.641451" xlink:href="#m9cb950d901" y="71.618036"/>
     <use style="fill:#1f77b4;stroke:#1f77b4;" x="179.962163" xlink:href="#m9cb950d901" y="71.622066"/>
     <use style="fill:#1f77b4;stroke:#1f77b4;" x="181.282874" xlink:href="#m9cb950d901" y="71.630216"/>
     <use style="fill:#1f77b4;stroke:#1f77b4;" x="182.603586" xlink:href="#m9cb950d901" y="71.633634"/>
     <use style="fill:#1f77b4;stroke:#1f77b4;" x="183.924298" xlink:href="#m9cb950d901" y="71.639227"/>
     <use style="fill:#1f77b4;stroke:#1f77b4;" x="185.24501" xlink:href="#m9cb950d901" y="71.648387"/>
     <use style="fill:#1f77b4;stroke:#1f77b4;" x="186.565722" xlink:href="#m9cb950d901" y="71.654151"/>
     <use style="fill:#1f77b4;stroke:#1f77b4;" x="187.886434" xlink:href="#m9cb950d901" y="71.658719"/>
     <use style="fill:#1f77b4;stroke:#1f77b4;" x="189.207146" xlink:href="#m9cb950d901" y="71.663207"/>
     <use style="fill:#1f77b4;stroke:#1f77b4;" x="190.527858" xlink:href="#m9cb950d901" y="71.66996"/>
     <use style="fill:#1f77b4;stroke:#1f77b4;" x="191.84857" xlink:href="#m9cb950d901" y="71.680292"/>
     <use style="fill:#1f77b4;stroke:#1f77b4;" x="193.169281" xlink:href="#m9cb950d901" y="71.689675"/>
     <use style="fill:#1f77b4;stroke:#1f77b4;" x="194.489993" xlink:href="#m9cb950d901" y="71.69245"/>
     <use style="fill:#1f77b4;stroke:#1f77b4;" x="195.810705" xlink:href="#m9cb950d901" y="71.695606"/>
     <use style="fill:#1f77b4;stroke:#1f77b4;" x="197.131417" xlink:href="#m9cb950d901" y="71.705585"/>
     <use style="fill:#1f77b4;stroke:#1f77b4;" x="198.452129" xlink:href="#m9cb950d901" y="71.710343"/>
     <use style="fill:#1f77b4;stroke:#1f77b4;" x="199.772841" xlink:href="#m9cb950d901" y="71.717044"/>
     <use style="fill:#1f77b4;stroke:#1f77b4;" x="201.093553" xlink:href="#m9cb950d901" y="71.739285"/>
     <use style="fill:#1f77b4;stroke:#1f77b4;" x="202.414265" xlink:href="#m9cb950d901" y="71.742244"/>
     <use style="fill:#1f77b4;stroke:#1f77b4;" x="203.734977" xlink:href="#m9cb950d901" y="71.749726"/>
     <use style="fill:#1f77b4;stroke:#1f77b4;" x="205.055688" xlink:href="#m9cb950d901" y="71.75208"/>
     <use style="fill:#1f77b4;stroke:#1f77b4;" x="206.3764" xlink:href="#m9cb950d901" y="71.763587"/>
     <use style="fill:#1f77b4;stroke:#1f77b4;" x="207.697112" xlink:href="#m9cb950d901" y="71.776947"/>
     <use style="fill:#1f77b4;stroke:#1f77b4;" x="209.017824" xlink:href="#m9cb950d901" y="71.790135"/>
     <use style="fill:#1f77b4;stroke:#1f77b4;" x="210.338536" xlink:href="#m9cb950d901" y="71.797167"/>
     <use style="fill:#1f77b4;stroke:#1f77b4;" x="211.659248" xlink:href="#m9cb950d901" y="71.801774"/>
     <use style="fill:#1f77b4;stroke:#1f77b4;" x="212.97996" xlink:href="#m9cb950d901" y="71.827655"/>
     <use style="fill:#1f77b4;stroke:#1f77b4;" x="214.300672" xlink:href="#m9cb950d901" y="71.833454"/>
     <use style="fill:#1f77b4;stroke:#1f77b4;" x="215.621383" xlink:href="#m9cb950d901" y="71.848739"/>
     <use style="fill:#1f77b4;stroke:#1f77b4;" x="216.942095" xlink:href="#m9cb950d901" y="71.86857"/>
     <use style="fill:#1f77b4;stroke:#1f77b4;" x="218.262807" xlink:href="#m9cb950d901" y="71.894523"/>
     <use style="fill:#1f77b4;stroke:#1f77b4;" x="219.583519" xlink:href="#m9cb950d901" y="71.920358"/>
     <use style="fill:#1f77b4;stroke:#1f77b4;" x="220.904231" xlink:href="#m9cb950d901" y="71.945517"/>
     <use style="fill:#1f77b4;stroke:#1f77b4;" x="222.224943" xlink:href="#m9cb950d901" y="71.9957"/>
     <use style="fill:#1f77b4;stroke:#1f77b4;" x="223.545655" xlink:href="#m9cb950d901" y="72.254088"/>
     <use style="fill:#1f77b4;stroke:#1f77b4;" x="224.866367" xlink:href="#m9cb950d901" y="72.28224"/>
     <use style="fill:#1f77b4;stroke:#1f77b4;" x="226.187079" xlink:href="#m9cb950d901" y="72.537822"/>
     <use style="fill:#1f77b4;stroke:#1f77b4;" x="227.50779" xlink:href="#m9cb950d901" y="147.438236"/>
     <use style="fill:#1f77b4;stroke:#1f77b4;" x="228.828502" xlink:href="#m9cb950d901" y="172.774975"/>
     <use style="fill:#1f77b4;stroke:#1f77b4;" x="230.149214" xlink:href="#m9cb950d901" y="180.951401"/>
     <use style="fill:#1f77b4;stroke:#1f77b4;" x="231.469926" xlink:href="#m9cb950d901" y="182.677273"/>
    </g>
   </g>
   <g id="text_12">
    <!-- WECC, 132 profiles -->
    <defs>
     <path d="M 3.328125 72.90625 
L 13.28125 72.90625 
L 28.609375 11.28125 
L 43.890625 72.90625 
L 54.984375 72.90625 
L 70.3125 11.28125 
L 85.59375 72.90625 
L 95.609375 72.90625 
L 77.296875 0 
L 64.890625 0 
L 49.515625 63.28125 
L 33.984375 0 
L 21.578125 0 
z
" id="DejaVuSans-57"/>
     <path d="M 9.8125 72.90625 
L 55.90625 72.90625 
L 55.90625 64.59375 
L 19.671875 64.59375 
L 19.671875 43.015625 
L 54.390625 43.015625 
L 54.390625 34.71875 
L 19.671875 34.71875 
L 19.671875 8.296875 
L 56.78125 8.296875 
L 56.78125 0 
L 9.8125 0 
z
" id="DejaVuSans-45"/>
     <path d="M 64.40625 67.28125 
L 64.40625 56.890625 
Q 59.421875 61.53125 53.78125 63.8125 
Q 48.140625 66.109375 41.796875 66.109375 
Q 29.296875 66.109375 22.65625 58.46875 
Q 16.015625 50.828125 16.015625 36.375 
Q 16.015625 21.96875 22.65625 14.328125 
Q 29.296875 6.6875 41.796875 6.6875 
Q 48.140625 6.6875 53.78125 8.984375 
Q 59.421875 11.28125 64.40625 15.921875 
L 64.40625 5.609375 
Q 59.234375 2.09375 53.4375 0.328125 
Q 47.65625 -1.421875 41.21875 -1.421875 
Q 24.65625 -1.421875 15.125 8.703125 
Q 5.609375 18.84375 5.609375 36.375 
Q 5.609375 53.953125 15.125 64.078125 
Q 24.65625 74.21875 41.21875 74.21875 
Q 47.75 74.21875 53.53125 72.484375 
Q 59.328125 70.75 64.40625 67.28125 
z
" id="DejaVuSans-43"/>
     <path d="M 11.71875 12.40625 
L 22.015625 12.40625 
L 22.015625 4 
L 14.015625 -11.625 
L 7.71875 -11.625 
L 11.71875 4 
z
" id="DejaVuSans-2c"/>
     <path d="M 18.109375 8.203125 
L 18.109375 -20.796875 
L 9.078125 -20.796875 
L 9.078125 54.6875 
L 18.109375 54.6875 
L 18.109375 46.390625 
Q 20.953125 51.265625 25.265625 53.625 
Q 29.59375 56 35.59375 56 
Q 45.5625 56 51.78125 48.09375 
Q 58.015625 40.1875 58.015625 27.296875 
Q 58.015625 14.40625 51.78125 6.484375 
Q 45.5625 -1.421875 35.59375 -1.421875 
Q 29.59375 -1.421875 25.265625 0.953125 
Q 20.953125 3.328125 18.109375 8.203125 
z
M 48.6875 27.296875 
Q 48.6875 37.203125 44.609375 42.84375 
Q 40.53125 48.484375 33.40625 48.484375 
Q 26.265625 48.484375 22.1875 42.84375 
Q 18.109375 37.203125 18.109375 27.296875 
Q 18.109375 17.390625 22.1875 11.75 
Q 26.265625 6.109375 33.40625 6.109375 
Q 40.53125 6.109375 44.609375 11.75 
Q 48.6875 17.390625 48.6875 27.296875 
z
" id="DejaVuSans-70"/>
     <path d="M 37.109375 75.984375 
L 37.109375 68.5 
L 28.515625 68.5 
Q 23.6875 68.5 21.796875 66.546875 
Q 19.921875 64.59375 19.921875 59.515625 
L 19.921875 54.6875 
L 34.71875 54.6875 
L 34.71875 47.703125 
L 19.921875 47.703125 
L 19.921875 0 
L 10.890625 0 
L 10.890625 47.703125 
L 2.296875 47.703125 
L 2.296875 54.6875 
L 10.890625 54.6875 
L 10.890625 58.5 
Q 10.890625 67.625 15.140625 71.796875 
Q 19.390625 75.984375 28.609375 75.984375 
z
" id="DejaVuSans-66"/>
    </defs>
    <g style="fill:#262626;" transform="translate(87.47861 20.8)scale(0.12 -0.12)">
     <use xlink:href="#DejaVuSans-57"/>
     <use x="98.876953" xlink:href="#DejaVuSans-45"/>
     <use x="162.060547" xlink:href="#DejaVuSans-43"/>
     <use x="231.884766" xlink:href="#DejaVuSans-43"/>
     <use x="301.708984" xlink:href="#DejaVuSans-2c"/>
     <use x="333.496094" xlink:href="#DejaVuSans-20"/>
     <use x="365.283203" xlink:href="#DejaVuSans-31"/>
     <use x="428.90625" xlink:href="#DejaVuSans-33"/>
     <use x="492.529297" xlink:href="#DejaVuSans-32"/>
     <use x="556.152344" xlink:href="#DejaVuSans-20"/>
     <use x="587.939453" xlink:href="#DejaVuSans-70"/>
     <use x="651.416016" xlink:href="#DejaVuSans-72"/>
     <use x="692.498047" xlink:href="#DejaVuSans-6f"/>
     <use x="753.679688" xlink:href="#DejaVuSans-66"/>
     <use x="788.884766" xlink:href="#DejaVuSans-69"/>
     <use x="816.667969" xlink:href="#DejaVuSans-6c"/>
     <use x="844.451172" xlink:href="#DejaVuSans-65"/>
     <use x="905.974609" xlink:href="#DejaVuSans-73"/>
    </g>
   </g>
  </g>
  <g id="axes_2">
   <g id="patch_3">
    <path d="M 257.778138 190.1 
L 433.432819 190.1 
L 433.432819 26.8 
L 257.778138 26.8 
z
" style="fill:#ffffff;"/>
   </g>
   <g id="matplotlib.axis_3">
    <g id="xtick_4">
     <g id="line2d_22">
      <path clip-path="url(#pd5dd359378)" d="M 257.778138 190.1 
L 257.778138 26.8 
" style="fill:none;stroke:#cccccc;stroke-linecap:round;stroke-width:0.8;"/>
     </g>
     <g id="line2d_23"/>
     <g id="text_13">
      <!-- 0 -->
      <g style="fill:#262626;" transform="translate(254.596888 201.198438)scale(0.1 -0.1)">
       <use xlink:href="#DejaVuSans-30"/>
      </g>
     </g>
    </g>
    <g id="xtick_5">
     <g id="line2d_24">
      <path clip-path="url(#pd5dd359378)" d="M 325.337631 190.1 
L 325.337631 26.8 
" style="fill:none;stroke:#cccccc;stroke-linecap:round;stroke-width:0.8;"/>
     </g>
     <g id="line2d_25"/>
     <g id="text_14">
      <!-- 20 -->
      <g style="fill:#262626;" transform="translate(318.975131 201.198438)scale(0.1 -0.1)">
       <use xlink:href="#DejaVuSans-32"/>
       <use x="63.623047" xlink:href="#DejaVuSans-30"/>
      </g>
     </g>
    </g>
    <g id="xtick_6">
     <g id="line2d_26">
      <path clip-path="url(#pd5dd359378)" d="M 392.897123 190.1 
L 392.897123 26.8 
" style="fill:none;stroke:#cccccc;stroke-linecap:round;stroke-width:0.8;"/>
     </g>
     <g id="line2d_27"/>
     <g id="text_15">
      <!-- 40 -->
      <g style="fill:#262626;" transform="translate(386.534623 201.198438)scale(0.1 -0.1)">
       <use xlink:href="#DejaVuSans-34"/>
       <use x="63.623047" xlink:href="#DejaVuSans-30"/>
      </g>
     </g>
    </g>
   </g>
   <g id="matplotlib.axis_4">
    <g id="ytick_8">
     <g id="line2d_28">
      <path clip-path="url(#pd5dd359378)" d="M 257.778138 174.740557 
L 433.432819 174.740557 
" style="fill:none;stroke:#cccccc;stroke-linecap:round;stroke-width:0.8;"/>
     </g>
     <g id="line2d_29"/>
    </g>
    <g id="ytick_9">
     <g id="line2d_30">
      <path clip-path="url(#pd5dd359378)" d="M 257.778138 153.280379 
L 433.432819 153.280379 
" style="fill:none;stroke:#cccccc;stroke-linecap:round;stroke-width:0.8;"/>
     </g>
     <g id="line2d_31"/>
    </g>
    <g id="ytick_10">
     <g id="line2d_32">
      <path clip-path="url(#pd5dd359378)" d="M 257.778138 131.8202 
L 433.432819 131.8202 
" style="fill:none;stroke:#cccccc;stroke-linecap:round;stroke-width:0.8;"/>
     </g>
     <g id="line2d_33"/>
    </g>
    <g id="ytick_11">
     <g id="line2d_34">
      <path clip-path="url(#pd5dd359378)" d="M 257.778138 110.360021 
L 433.432819 110.360021 
" style="fill:none;stroke:#cccccc;stroke-linecap:round;stroke-width:0.8;"/>
     </g>
     <g id="line2d_35"/>
    </g>
    <g id="ytick_12">
     <g id="line2d_36">
      <path clip-path="url(#pd5dd359378)" d="M 257.778138 88.899843 
L 433.432819 88.899843 
" style="fill:none;stroke:#cccccc;stroke-linecap:round;stroke-width:0.8;"/>
     </g>
     <g id="line2d_37"/>
    </g>
    <g id="ytick_13">
     <g id="line2d_38">
      <path clip-path="url(#pd5dd359378)" d="M 257.778138 67.439664 
L 433.432819 67.439664 
" style="fill:none;stroke:#cccccc;stroke-linecap:round;stroke-width:0.8;"/>
     </g>
     <g id="line2d_39"/>
    </g>
    <g id="ytick_14">
     <g id="line2d_40">
      <path clip-path="url(#pd5dd359378)" d="M 257.778138 45.979485 
L 433.432819 45.979485 
" style="fill:none;stroke:#cccccc;stroke-linecap:round;stroke-width:0.8;"/>
     </g>
     <g id="line2d_41"/>
    </g>
   </g>
   <g id="line2d_42">
    <path clip-path="url(#pd5dd359378)" d="M 261.156113 46.778218 
L 264.534087 69.155892 
L 267.912062 69.356197 
L 271.290037 69.596719 
L 274.668011 69.667977 
L 278.045986 69.691001 
L 281.42396 69.724089 
L 284.801935 69.770833 
L 288.17991 69.779865 
L 291.557884 69.855664 
L 294.935859 69.861516 
L 298.313834 69.929279 
L 301.691808 69.975126 
L 305.069783 70.003397 
L 308.447758 70.177973 
L 311.825732 70.290648 
L 315.203707 70.434021 
L 318.581681 159.629532 
L 321.959656 161.245568 
L 325.337631 161.245568 
L 328.715605 161.245568 
L 332.09358 161.245568 
L 335.471555 161.245568 
L 338.849529 161.245568 
L 342.227504 161.245568 
L 345.605479 161.245568 
L 348.983453 161.245568 
L 352.361428 161.245568 
L 355.739402 161.245568 
L 359.117377 161.245568 
L 362.495352 161.245568 
L 365.873326 161.245568 
L 369.251301 161.245568 
L 372.629276 161.245568 
L 376.00725 161.245568 
L 379.385225 161.245568 
L 382.763199 161.245568 
L 386.141174 161.245568 
L 389.519149 161.245568 
L 392.897123 161.245568 
L 396.275098 161.245568 
L 399.653073 161.245568 
L 403.031047 161.245568 
L 406.409022 161.245568 
L 409.786997 161.245568 
L 413.164971 161.245568 
L 416.542946 161.245568 
L 419.92092 161.245568 
L 423.298895 161.245568 
L 426.67687 161.245568 
L 430.054844 167.312208 
" style="fill:none;"/>
    <g clip-path="url(#pd5dd359378)">
     <use style="fill:#1f77b4;stroke:#1f77b4;" x="261.156113" xlink:href="#m9cb950d901" y="46.778218"/>
     <use style="fill:#1f77b4;stroke:#1f77b4;" x="264.534087" xlink:href="#m9cb950d901" y="69.155892"/>
     <use style="fill:#1f77b4;stroke:#1f77b4;" x="267.912062" xlink:href="#m9cb950d901" y="69.356197"/>
     <use style="fill:#1f77b4;stroke:#1f77b4;" x="271.290037" xlink:href="#m9cb950d901" y="69.596719"/>
     <use style="fill:#1f77b4;stroke:#1f77b4;" x="274.668011" xlink:href="#m9cb950d901" y="69.667977"/>
     <use style="fill:#1f77b4;stroke:#1f77b4;" x="278.045986" xlink:href="#m9cb950d901" y="69.691001"/>
     <use style="fill:#1f77b4;stroke:#1f77b4;" x="281.42396" xlink:href="#m9cb950d901" y="69.724089"/>
     <use style="fill:#1f77b4;stroke:#1f77b4;" x="284.801935" xlink:href="#m9cb950d901" y="69.770833"/>
     <use style="fill:#1f77b4;stroke:#1f77b4;" x="288.17991" xlink:href="#m9cb950d901" y="69.779865"/>
     <use style="fill:#1f77b4;stroke:#1f77b4;" x="291.557884" xlink:href="#m9cb950d901" y="69.855664"/>
     <use style="fill:#1f77b4;stroke:#1f77b4;" x="294.935859" xlink:href="#m9cb950d901" y="69.861516"/>
     <use style="fill:#1f77b4;stroke:#1f77b4;" x="298.313834" xlink:href="#m9cb950d901" y="69.929279"/>
     <use style="fill:#1f77b4;stroke:#1f77b4;" x="301.691808" xlink:href="#m9cb950d901" y="69.975126"/>
     <use style="fill:#1f77b4;stroke:#1f77b4;" x="305.069783" xlink:href="#m9cb950d901" y="70.003397"/>
     <use style="fill:#1f77b4;stroke:#1f77b4;" x="308.447758" xlink:href="#m9cb950d901" y="70.177973"/>
     <use style="fill:#1f77b4;stroke:#1f77b4;" x="311.825732" xlink:href="#m9cb950d901" y="70.290648"/>
     <use style="fill:#1f77b4;stroke:#1f77b4;" x="315.203707" xlink:href="#m9cb950d901" y="70.434021"/>
     <use style="fill:#1f77b4;stroke:#1f77b4;" x="318.581681" xlink:href="#m9cb950d901" y="159.629532"/>
     <use style="fill:#1f77b4;stroke:#1f77b4;" x="321.959656" xlink:href="#m9cb950d901" y="161.245568"/>
     <use style="fill:#1f77b4;stroke:#1f77b4;" x="325.337631" xlink:href="#m9cb950d901" y="161.245568"/>
     <use style="fill:#1f77b4;stroke:#1f77b4;" x="328.715605" xlink:href="#m9cb950d901" y="161.245568"/>
     <use style="fill:#1f77b4;stroke:#1f77b4;" x="332.09358" xlink:href="#m9cb950d901" y="161.245568"/>
     <use style="fill:#1f77b4;stroke:#1f77b4;" x="335.471555" xlink:href="#m9cb950d901" y="161.245568"/>
     <use style="fill:#1f77b4;stroke:#1f77b4;" x="338.849529" xlink:href="#m9cb950d901" y="161.245568"/>
     <use style="fill:#1f77b4;stroke:#1f77b4;" x="342.227504" xlink:href="#m9cb950d901" y="161.245568"/>
     <use style="fill:#1f77b4;stroke:#1f77b4;" x="345.605479" xlink:href="#m9cb950d901" y="161.245568"/>
     <use style="fill:#1f77b4;stroke:#1f77b4;" x="348.983453" xlink:href="#m9cb950d901" y="161.245568"/>
     <use style="fill:#1f77b4;stroke:#1f77b4;" x="352.361428" xlink:href="#m9cb950d901" y="161.245568"/>
     <use style="fill:#1f77b4;stroke:#1f77b4;" x="355.739402" xlink:href="#m9cb950d901" y="161.245568"/>
     <use style="fill:#1f77b4;stroke:#1f77b4;" x="359.117377" xlink:href="#m9cb950d901" y="161.245568"/>
     <use style="fill:#1f77b4;stroke:#1f77b4;" x="362.495352" xlink:href="#m9cb950d901" y="161.245568"/>
     <use style="fill:#1f77b4;stroke:#1f77b4;" x="365.873326" xlink:href="#m9cb950d901" y="161.245568"/>
     <use style="fill:#1f77b4;stroke:#1f77b4;" x="369.251301" xlink:href="#m9cb950d901" y="161.245568"/>
     <use style="fill:#1f77b4;stroke:#1f77b4;" x="372.629276" xlink:href="#m9cb950d901" y="161.245568"/>
     <use style="fill:#1f77b4;stroke:#1f77b4;" x="376.00725" xlink:href="#m9cb950d901" y="161.245568"/>
     <use style="fill:#1f77b4;stroke:#1f77b4;" x="379.385225" xlink:href="#m9cb950d901" y="161.245568"/>
     <use style="fill:#1f77b4;stroke:#1f77b4;" x="382.763199" xlink:href="#m9cb950d901" y="161.245568"/>
     <use style="fill:#1f77b4;stroke:#1f77b4;" x="386.141174" xlink:href="#m9cb950d901" y="161.245568"/>
     <use style="fill:#1f77b4;stroke:#1f77b4;" x="389.519149" xlink:href="#m9cb950d901" y="161.245568"/>
     <use style="fill:#1f77b4;stroke:#1f77b4;" x="392.897123" xlink:href="#m9cb950d901" y="161.245568"/>
     <use style="fill:#1f77b4;stroke:#1f77b4;" x="396.275098" xlink:href="#m9cb950d901" y="161.245568"/>
     <use style="fill:#1f77b4;stroke:#1f77b4;" x="399.653073" xlink:href="#m9cb950d901" y="161.245568"/>
     <use style="fill:#1f77b4;stroke:#1f77b4;" x="403.031047" xlink:href="#m9cb950d901" y="161.245568"/>
     <use style="fill:#1f77b4;stroke:#1f77b4;" x="406.409022" xlink:href="#m9cb950d901" y="161.245568"/>
     <use style="fill:#1f77b4;stroke:#1f77b4;" x="409.786997" xlink:href="#m9cb950d901" y="161.245568"/>
     <use style="fill:#1f77b4;stroke:#1f77b4;" x="413.164971" xlink:href="#m9cb950d901" y="161.245568"/>
     <use style="fill:#1f77b4;stroke:#1f77b4;" x="416.542946" xlink:href="#m9cb950d901" y="161.245568"/>
     <use style="fill:#1f77b4;stroke:#1f77b4;" x="419.92092" xlink:href="#m9cb950d901" y="161.245568"/>
     <use style="fill:#1f77b4;stroke:#1f77b4;" x="423.298895" xlink:href="#m9cb950d901" y="161.245568"/>
     <use style="fill:#1f77b4;stroke:#1f77b4;" x="426.67687" xlink:href="#m9cb950d901" y="161.245568"/>
     <use style="fill:#1f77b4;stroke:#1f77b4;" x="430.054844" xlink:href="#m9cb950d901" y="167.312208"/>
    </g>
   </g>
   <g id="text_16">
    <!-- RTS 96, 51 profiles -->
    <defs>
     <path d="M 44.390625 34.1875 
Q 47.5625 33.109375 50.5625 29.59375 
Q 53.5625 26.078125 56.59375 19.921875 
L 66.609375 0 
L 56 0 
L 46.6875 18.703125 
Q 43.0625 26.03125 39.671875 28.421875 
Q 36.28125 30.8125 30.421875 30.8125 
L 19.671875 30.8125 
L 19.671875 0 
L 9.8125 0 
L 9.8125 72.90625 
L 32.078125 72.90625 
Q 44.578125 72.90625 50.734375 67.671875 
Q 56.890625 62.453125 56.890625 51.90625 
Q 56.890625 45.015625 53.6875 40.46875 
Q 50.484375 35.9375 44.390625 34.1875 
z
M 19.671875 64.796875 
L 19.671875 38.921875 
L 32.078125 38.921875 
Q 39.203125 38.921875 42.84375 42.21875 
Q 46.484375 45.515625 46.484375 51.90625 
Q 46.484375 58.296875 42.84375 61.546875 
Q 39.203125 64.796875 32.078125 64.796875 
z
" id="DejaVuSans-52"/>
     <path d="M -0.296875 72.90625 
L 61.375 72.90625 
L 61.375 64.59375 
L 35.5 64.59375 
L 35.5 0 
L 25.59375 0 
L 25.59375 64.59375 
L -0.296875 64.59375 
z
" id="DejaVuSans-54"/>
     <path d="M 10.984375 1.515625 
L 10.984375 10.5 
Q 14.703125 8.734375 18.5 7.8125 
Q 22.3125 6.890625 25.984375 6.890625 
Q 35.75 6.890625 40.890625 13.453125 
Q 46.046875 20.015625 46.78125 33.40625 
Q 43.953125 29.203125 39.59375 26.953125 
Q 35.25 24.703125 29.984375 24.703125 
Q 19.046875 24.703125 12.671875 31.3125 
Q 6.296875 37.9375 6.296875 49.421875 
Q 6.296875 60.640625 12.9375 67.421875 
Q 19.578125 74.21875 30.609375 74.21875 
Q 43.265625 74.21875 49.921875 64.515625 
Q 56.59375 54.828125 56.59375 36.375 
Q 56.59375 19.140625 48.40625 8.859375 
Q 40.234375 -1.421875 26.421875 -1.421875 
Q 22.703125 -1.421875 18.890625 -0.6875 
Q 15.09375 0.046875 10.984375 1.515625 
z
M 30.609375 32.421875 
Q 37.25 32.421875 41.125 36.953125 
Q 45.015625 41.5 45.015625 49.421875 
Q 45.015625 57.28125 41.125 61.84375 
Q 37.25 66.40625 30.609375 66.40625 
Q 23.96875 66.40625 20.09375 61.84375 
Q 16.21875 57.28125 16.21875 49.421875 
Q 16.21875 41.5 20.09375 36.953125 
Q 23.96875 32.421875 30.609375 32.421875 
z
" id="DejaVuSans-39"/>
     <path d="M 33.015625 40.375 
Q 26.375 40.375 22.484375 35.828125 
Q 18.609375 31.296875 18.609375 23.390625 
Q 18.609375 15.53125 22.484375 10.953125 
Q 26.375 6.390625 33.015625 6.390625 
Q 39.65625 6.390625 43.53125 10.953125 
Q 47.40625 15.53125 47.40625 23.390625 
Q 47.40625 31.296875 43.53125 35.828125 
Q 39.65625 40.375 33.015625 40.375 
z
M 52.59375 71.296875 
L 52.59375 62.3125 
Q 48.875 64.0625 45.09375 64.984375 
Q 41.3125 65.921875 37.59375 65.921875 
Q 27.828125 65.921875 22.671875 59.328125 
Q 17.53125 52.734375 16.796875 39.40625 
Q 19.671875 43.65625 24.015625 45.921875 
Q 28.375 48.1875 33.59375 48.1875 
Q 44.578125 48.1875 50.953125 41.515625 
Q 57.328125 34.859375 57.328125 23.390625 
Q 57.328125 12.15625 50.6875 5.359375 
Q 44.046875 -1.421875 33.015625 -1.421875 
Q 20.359375 -1.421875 13.671875 8.265625 
Q 6.984375 17.96875 6.984375 36.375 
Q 6.984375 53.65625 15.1875 63.9375 
Q 23.390625 74.21875 37.203125 74.21875 
Q 40.921875 74.21875 44.703125 73.484375 
Q 48.484375 72.75 52.59375 71.296875 
z
" id="DejaVuSans-36"/>
    </defs>
    <g style="fill:#262626;" transform="translate(288.863291 20.8)scale(0.12 -0.12)">
     <use xlink:href="#DejaVuSans-52"/>
     <use x="69.373047" xlink:href="#DejaVuSans-54"/>
     <use x="130.457031" xlink:href="#DejaVuSans-53"/>
     <use x="193.933594" xlink:href="#DejaVuSans-20"/>
     <use x="225.720703" xlink:href="#DejaVuSans-39"/>
     <use x="289.34375" xlink:href="#DejaVuSans-36"/>
     <use x="352.966797" xlink:href="#DejaVuSans-2c"/>
     <use x="384.753906" xlink:href="#DejaVuSans-20"/>
     <use x="416.541016" xlink:href="#DejaVuSans-35"/>
     <use x="480.164062" xlink:href="#DejaVuSans-31"/>
     <use x="543.787109" xlink:href="#DejaVuSans-20"/>
     <use x="575.574219" xlink:href="#DejaVuSans-70"/>
     <use x="639.050781" xlink:href="#DejaVuSans-72"/>
     <use x="680.132812" xlink:href="#DejaVuSans-6f"/>
     <use x="741.314453" xlink:href="#DejaVuSans-66"/>
     <use x="776.519531" xlink:href="#DejaVuSans-69"/>
     <use x="804.302734" xlink:href="#DejaVuSans-6c"/>
     <use x="832.085938" xlink:href="#DejaVuSans-65"/>
     <use x="893.609375" xlink:href="#DejaVuSans-73"/>
    </g>
   </g>
  </g>
  <g id="axes_3">
   <g id="patch_4">
    <path d="M 458.420319 190.1 
L 634.075 190.1 
L 634.075 26.8 
L 458.420319 26.8 
z
" style="fill:#ffffff;"/>
   </g>
   <g id="matplotlib.axis_5">
    <g id="xtick_7">
     <g id="line2d_43">
      <path clip-path="url(#p3a21d58b77)" d="M 458.420319 190.1 
L 458.420319 26.8 
" style="fill:none;stroke:#cccccc;stroke-linecap:round;stroke-width:0.8;"/>
     </g>
     <g id="line2d_44"/>
     <g id="text_17">
      <!-- 0 -->
      <g style="fill:#262626;" transform="translate(455.239069 201.198438)scale(0.1 -0.1)">
       <use xlink:href="#DejaVuSans-30"/>
      </g>
     </g>
    </g>
    <g id="xtick_8">
     <g id="line2d_45">
      <path clip-path="url(#p3a21d58b77)" d="M 498.341837 190.1 
L 498.341837 26.8 
" style="fill:none;stroke:#cccccc;stroke-linecap:round;stroke-width:0.8;"/>
     </g>
     <g id="line2d_46"/>
     <g id="text_18">
      <!-- 5 -->
      <g style="fill:#262626;" transform="translate(495.160587 201.198438)scale(0.1 -0.1)">
       <use xlink:href="#DejaVuSans-35"/>
      </g>
     </g>
    </g>
    <g id="xtick_9">
     <g id="line2d_47">
      <path clip-path="url(#p3a21d58b77)" d="M 538.263356 190.1 
L 538.263356 26.8 
" style="fill:none;stroke:#cccccc;stroke-linecap:round;stroke-width:0.8;"/>
     </g>
     <g id="line2d_48"/>
     <g id="text_19">
      <!-- 10 -->
      <g style="fill:#262626;" transform="translate(531.900856 201.198438)scale(0.1 -0.1)">
       <use xlink:href="#DejaVuSans-31"/>
       <use x="63.623047" xlink:href="#DejaVuSans-30"/>
      </g>
     </g>
    </g>
    <g id="xtick_10">
     <g id="line2d_49">
      <path clip-path="url(#p3a21d58b77)" d="M 578.184874 190.1 
L 578.184874 26.8 
" style="fill:none;stroke:#cccccc;stroke-linecap:round;stroke-width:0.8;"/>
     </g>
     <g id="line2d_50"/>
     <g id="text_20">
      <!-- 15 -->
      <g style="fill:#262626;" transform="translate(571.822374 201.198438)scale(0.1 -0.1)">
       <use xlink:href="#DejaVuSans-31"/>
       <use x="63.623047" xlink:href="#DejaVuSans-35"/>
      </g>
     </g>
    </g>
    <g id="xtick_11">
     <g id="line2d_51">
      <path clip-path="url(#p3a21d58b77)" d="M 618.106393 190.1 
L 618.106393 26.8 
" style="fill:none;stroke:#cccccc;stroke-linecap:round;stroke-width:0.8;"/>
     </g>
     <g id="line2d_52"/>
     <g id="text_21">
      <!-- 20 -->
      <g style="fill:#262626;" transform="translate(611.743893 201.198438)scale(0.1 -0.1)">
       <use xlink:href="#DejaVuSans-32"/>
       <use x="63.623047" xlink:href="#DejaVuSans-30"/>
      </g>
     </g>
    </g>
   </g>
   <g id="matplotlib.axis_6">
    <g id="ytick_15">
     <g id="line2d_53">
      <path clip-path="url(#p3a21d58b77)" d="M 458.420319 174.740557 
L 634.075 174.740557 
" style="fill:none;stroke:#cccccc;stroke-linecap:round;stroke-width:0.8;"/>
     </g>
     <g id="line2d_54"/>
    </g>
    <g id="ytick_16">
     <g id="line2d_55">
      <path clip-path="url(#p3a21d58b77)" d="M 458.420319 153.280379 
L 634.075 153.280379 
" style="fill:none;stroke:#cccccc;stroke-linecap:round;stroke-width:0.8;"/>
     </g>
     <g id="line2d_56"/>
    </g>
    <g id="ytick_17">
     <g id="line2d_57">
      <path clip-path="url(#p3a21d58b77)" d="M 458.420319 131.8202 
L 634.075 131.8202 
" style="fill:none;stroke:#cccccc;stroke-linecap:round;stroke-width:0.8;"/>
     </g>
     <g id="line2d_58"/>
    </g>
    <g id="ytick_18">
     <g id="line2d_59">
      <path clip-path="url(#p3a21d58b77)" d="M 458.420319 110.360021 
L 634.075 110.360021 
" style="fill:none;stroke:#cccccc;stroke-linecap:round;stroke-width:0.8;"/>
     </g>
     <g id="line2d_60"/>
    </g>
    <g id="ytick_19">
     <g id="line2d_61">
      <path clip-path="url(#p3a21d58b77)" d="M 458.420319 88.899843 
L 634.075 88.899843 
" style="fill:none;stroke:#cccccc;stroke-linecap:round;stroke-width:0.8;"/>
     </g>
     <g id="line2d_62"/>
    </g>
    <g id="ytick_20">
     <g id="line2d_63">
      <path clip-path="url(#p3a21d58b77)" d="M 458.420319 67.439664 
L 634.075 67.439664 
" style="fill:none;stroke:#cccccc;stroke-linecap:round;stroke-width:0.8;"/>
     </g>
     <g id="line2d_64"/>
    </g>
    <g id="ytick_21">
     <g id="line2d_65">
      <path clip-path="url(#p3a21d58b77)" d="M 458.420319 45.979485 
L 634.075 45.979485 
" style="fill:none;stroke:#cccccc;stroke-linecap:round;stroke-width:0.8;"/>
     </g>
     <g id="line2d_66"/>
    </g>
   </g>
   <g id="line2d_67">
    <path clip-path="url(#p3a21d58b77)" d="M 466.404623 35.242834 
L 474.388926 42.857009 
L 482.37323 46.396202 
L 490.357534 47.105169 
L 498.341837 48.541104 
L 506.326141 49.368421 
L 514.310445 50.036147 
L 522.294748 50.514099 
L 530.279052 51.560954 
L 538.263356 52.649188 
L 546.24766 52.981463 
L 554.231963 53.190888 
L 562.216267 53.598757 
L 570.200571 53.905683 
L 578.184874 54.910251 
L 586.169178 55.262543 
L 594.153482 56.335666 
L 602.137785 56.963932 
L 610.122089 57.642357 
L 618.106393 58.354747 
L 626.090696 62.168794 
" style="fill:none;"/>
    <g clip-path="url(#p3a21d58b77)">
     <use style="fill:#1f77b4;stroke:#1f77b4;" x="466.404623" xlink:href="#m9cb950d901" y="35.242834"/>
     <use style="fill:#1f77b4;stroke:#1f77b4;" x="474.388926" xlink:href="#m9cb950d901" y="42.857009"/>
     <use style="fill:#1f77b4;stroke:#1f77b4;" x="482.37323" xlink:href="#m9cb950d901" y="46.396202"/>
     <use style="fill:#1f77b4;stroke:#1f77b4;" x="490.357534" xlink:href="#m9cb950d901" y="47.105169"/>
     <use style="fill:#1f77b4;stroke:#1f77b4;" x="498.341837" xlink:href="#m9cb950d901" y="48.541104"/>
     <use style="fill:#1f77b4;stroke:#1f77b4;" x="506.326141" xlink:href="#m9cb950d901" y="49.368421"/>
     <use style="fill:#1f77b4;stroke:#1f77b4;" x="514.310445" xlink:href="#m9cb950d901" y="50.036147"/>
     <use style="fill:#1f77b4;stroke:#1f77b4;" x="522.294748" xlink:href="#m9cb950d901" y="50.514099"/>
     <use style="fill:#1f77b4;stroke:#1f77b4;" x="530.279052" xlink:href="#m9cb950d901" y="51.560954"/>
     <use style="fill:#1f77b4;stroke:#1f77b4;" x="538.263356" xlink:href="#m9cb950d901" y="52.649188"/>
     <use style="fill:#1f77b4;stroke:#1f77b4;" x="546.24766" xlink:href="#m9cb950d901" y="52.981463"/>
     <use style="fill:#1f77b4;stroke:#1f77b4;" x="554.231963" xlink:href="#m9cb950d901" y="53.190888"/>
     <use style="fill:#1f77b4;stroke:#1f77b4;" x="562.216267" xlink:href="#m9cb950d901" y="53.598757"/>
     <use style="fill:#1f77b4;stroke:#1f77b4;" x="570.200571" xlink:href="#m9cb950d901" y="53.905683"/>
     <use style="fill:#1f77b4;stroke:#1f77b4;" x="578.184874" xlink:href="#m9cb950d901" y="54.910251"/>
     <use style="fill:#1f77b4;stroke:#1f77b4;" x="586.169178" xlink:href="#m9cb950d901" y="55.262543"/>
     <use style="fill:#1f77b4;stroke:#1f77b4;" x="594.153482" xlink:href="#m9cb950d901" y="56.335666"/>
     <use style="fill:#1f77b4;stroke:#1f77b4;" x="602.137785" xlink:href="#m9cb950d901" y="56.963932"/>
     <use style="fill:#1f77b4;stroke:#1f77b4;" x="610.122089" xlink:href="#m9cb950d901" y="57.642357"/>
     <use style="fill:#1f77b4;stroke:#1f77b4;" x="618.106393" xlink:href="#m9cb950d901" y="58.354747"/>
     <use style="fill:#1f77b4;stroke:#1f77b4;" x="626.090696" xlink:href="#m9cb950d901" y="62.168794"/>
    </g>
   </g>
   <g id="text_22">
    <!-- WECC Agg., 21 profiles -->
    <defs>
     <path d="M 34.1875 63.1875 
L 20.796875 26.90625 
L 47.609375 26.90625 
z
M 28.609375 72.90625 
L 39.796875 72.90625 
L 67.578125 0 
L 57.328125 0 
L 50.6875 18.703125 
L 17.828125 18.703125 
L 11.1875 0 
L 0.78125 0 
z
" id="DejaVuSans-41"/>
     <path d="M 10.6875 12.40625 
L 21 12.40625 
L 21 0 
L 10.6875 0 
z
" id="DejaVuSans-2e"/>
    </defs>
    <g style="fill:#262626;" transform="translate(477.044222 20.8)scale(0.12 -0.12)">
     <use xlink:href="#DejaVuSans-57"/>
     <use x="98.876953" xlink:href="#DejaVuSans-45"/>
     <use x="162.060547" xlink:href="#DejaVuSans-43"/>
     <use x="231.884766" xlink:href="#DejaVuSans-43"/>
     <use x="301.708984" xlink:href="#DejaVuSans-20"/>
     <use x="333.496094" xlink:href="#DejaVuSans-41"/>
     <use x="401.904297" xlink:href="#DejaVuSans-67"/>
     <use x="465.380859" xlink:href="#DejaVuSans-67"/>
     <use x="528.857422" xlink:href="#DejaVuSans-2e"/>
     <use x="560.644531" xlink:href="#DejaVuSans-2c"/>
     <use x="592.431641" xlink:href="#DejaVuSans-20"/>
     <use x="624.21875" xlink:href="#DejaVuSans-32"/>
     <use x="687.841797" xlink:href="#DejaVuSans-31"/>
     <use x="751.464844" xlink:href="#DejaVuSans-20"/>
     <use x="783.251953" xlink:href="#DejaVuSans-70"/>
     <use x="846.728516" xlink:href="#DejaVuSans-72"/>
     <use x="887.810547" xlink:href="#DejaVuSans-6f"/>
     <use x="948.992188" xlink:href="#DejaVuSans-66"/>
     <use x="984.197266" xlink:href="#DejaVuSans-69"/>
     <use x="1011.980469" xlink:href="#DejaVuSans-6c"/>
     <use x="1039.763672" xlink:href="#DejaVuSans-65"/>
     <use x="1101.287109" xlink:href="#DejaVuSans-73"/>
    </g>
   </g>
  </g>
  <g id="axes_4">
   <g id="patch_5">
    <path d="M 57.135957 393.7 
L 232.790638 393.7 
L 232.790638 230.4 
L 57.135957 230.4 
z
" style="fill:#ffffff;"/>
   </g>
   <g id="matplotlib.axis_7">
    <g id="xtick_12">
     <g id="line2d_68">
      <path clip-path="url(#p1b96c175f3)" d="M 57.135957 393.7 
L 57.135957 230.4 
" style="fill:none;stroke:#cccccc;stroke-linecap:round;stroke-width:0.8;"/>
     </g>
     <g id="line2d_69"/>
     <g id="text_23">
      <!-- 0 -->
      <g style="fill:#262626;" transform="translate(53.954707 404.798437)scale(0.1 -0.1)">
       <use xlink:href="#DejaVuSans-30"/>
      </g>
     </g>
    </g>
    <g id="xtick_13">
     <g id="line2d_70">
      <path clip-path="url(#p1b96c175f3)" d="M 124.69545 393.7 
L 124.69545 230.4 
" style="fill:none;stroke:#cccccc;stroke-linecap:round;stroke-width:0.8;"/>
     </g>
     <g id="line2d_71"/>
     <g id="text_24">
      <!-- 5 -->
      <g style="fill:#262626;" transform="translate(121.5142 404.798437)scale(0.1 -0.1)">
       <use xlink:href="#DejaVuSans-35"/>
      </g>
     </g>
    </g>
    <g id="xtick_14">
     <g id="line2d_72">
      <path clip-path="url(#p1b96c175f3)" d="M 192.254942 393.7 
L 192.254942 230.4 
" style="fill:none;stroke:#cccccc;stroke-linecap:round;stroke-width:0.8;"/>
     </g>
     <g id="line2d_73"/>
     <g id="text_25">
      <!-- 10 -->
      <g style="fill:#262626;" transform="translate(185.892442 404.798437)scale(0.1 -0.1)">
       <use xlink:href="#DejaVuSans-31"/>
       <use x="63.623047" xlink:href="#DejaVuSans-30"/>
      </g>
     </g>
    </g>
    <g id="text_26">
     <!-- Index -->
     <defs>
      <path d="M 9.8125 72.90625 
L 19.671875 72.90625 
L 19.671875 0 
L 9.8125 0 
z
" id="DejaVuSans-49"/>
      <path d="M 45.40625 46.390625 
L 45.40625 75.984375 
L 54.390625 75.984375 
L 54.390625 0 
L 45.40625 0 
L 45.40625 8.203125 
Q 42.578125 3.328125 38.25 0.953125 
Q 33.9375 -1.421875 27.875 -1.421875 
Q 17.96875 -1.421875 11.734375 6.484375 
Q 5.515625 14.40625 5.515625 27.296875 
Q 5.515625 40.1875 11.734375 48.09375 
Q 17.96875 56 27.875 56 
Q 33.9375 56 38.25 53.625 
Q 42.578125 51.265625 45.40625 46.390625 
z
M 14.796875 27.296875 
Q 14.796875 17.390625 18.875 11.75 
Q 22.953125 6.109375 30.078125 6.109375 
Q 37.203125 6.109375 41.296875 11.75 
Q 45.40625 17.390625 45.40625 27.296875 
Q 45.40625 37.203125 41.296875 42.84375 
Q 37.203125 48.484375 30.078125 48.484375 
Q 22.953125 48.484375 18.875 42.84375 
Q 14.796875 37.203125 14.796875 27.296875 
z
" id="DejaVuSans-64"/>
      <path d="M 54.890625 54.6875 
L 35.109375 28.078125 
L 55.90625 0 
L 45.3125 0 
L 29.390625 21.484375 
L 13.484375 0 
L 2.875 0 
L 24.125 28.609375 
L 4.6875 54.6875 
L 15.28125 54.6875 
L 29.78125 35.203125 
L 44.28125 54.6875 
z
" id="DejaVuSans-78"/>
     </defs>
     <g style="fill:#262626;" transform="translate(131.110173 418.476562)scale(0.1 -0.1)">
      <use xlink:href="#DejaVuSans-49"/>
      <use x="29.492188" xlink:href="#DejaVuSans-6e"/>
      <use x="92.871094" xlink:href="#DejaVuSans-64"/>
      <use x="156.347656" xlink:href="#DejaVuSans-65"/>
      <use x="217.855469" xlink:href="#DejaVuSans-78"/>
     </g>
    </g>
   </g>
   <g id="matplotlib.axis_8">
    <g id="ytick_22">
     <g id="line2d_74">
      <path clip-path="url(#p1b96c175f3)" d="M 57.135957 378.340557 
L 232.790638 378.340557 
" style="fill:none;stroke:#cccccc;stroke-linecap:round;stroke-width:0.8;"/>
     </g>
     <g id="line2d_75"/>
     <g id="text_27">
      <!-- $\mathdefault{10^{-13}}$ -->
      <g style="fill:#262626;" transform="translate(25.735957 382.139776)scale(0.1 -0.1)">
       <use transform="translate(0 0.765625)" xlink:href="#DejaVuSans-31"/>
       <use transform="translate(63.623047 0.765625)" xlink:href="#DejaVuSans-30"/>
       <use transform="translate(128.203125 39.046875)scale(0.7)" xlink:href="#DejaVuSans-2212"/>
       <use transform="translate(186.855469 39.046875)scale(0.7)" xlink:href="#DejaVuSans-31"/>
       <use transform="translate(231.391602 39.046875)scale(0.7)" xlink:href="#DejaVuSans-33"/>
      </g>
     </g>
    </g>
    <g id="ytick_23">
     <g id="line2d_76">
      <path clip-path="url(#p1b96c175f3)" d="M 57.135957 356.880379 
L 232.790638 356.880379 
" style="fill:none;stroke:#cccccc;stroke-linecap:round;stroke-width:0.8;"/>
     </g>
     <g id="line2d_77"/>
     <g id="text_28">
      <!-- $\mathdefault{10^{-10}}$ -->
      <g style="fill:#262626;" transform="translate(25.735957 360.679597)scale(0.1 -0.1)">
       <use transform="translate(0 0.765625)" xlink:href="#DejaVuSans-31"/>
       <use transform="translate(63.623047 0.765625)" xlink:href="#DejaVuSans-30"/>
       <use transform="translate(128.203125 39.046875)scale(0.7)" xlink:href="#DejaVuSans-2212"/>
       <use transform="translate(186.855469 39.046875)scale(0.7)" xlink:href="#DejaVuSans-31"/>
       <use transform="translate(231.391602 39.046875)scale(0.7)" xlink:href="#DejaVuSans-30"/>
      </g>
     </g>
    </g>
    <g id="ytick_24">
     <g id="line2d_78">
      <path clip-path="url(#p1b96c175f3)" d="M 57.135957 335.4202 
L 232.790638 335.4202 
" style="fill:none;stroke:#cccccc;stroke-linecap:round;stroke-width:0.8;"/>
     </g>
     <g id="line2d_79"/>
     <g id="text_29">
      <!-- $\mathdefault{10^{-7}}$ -->
      <g style="fill:#262626;" transform="translate(30.135957 339.219419)scale(0.1 -0.1)">
       <use transform="translate(0 0.684375)" xlink:href="#DejaVuSans-31"/>
       <use transform="translate(63.623047 0.684375)" xlink:href="#DejaVuSans-30"/>
       <use transform="translate(128.203125 38.965625)scale(0.7)" xlink:href="#DejaVuSans-2212"/>
       <use transform="translate(186.855469 38.965625)scale(0.7)" xlink:href="#DejaVuSans-37"/>
      </g>
     </g>
    </g>
    <g id="ytick_25">
     <g id="line2d_80">
      <path clip-path="url(#p1b96c175f3)" d="M 57.135957 313.960021 
L 232.790638 313.960021 
" style="fill:none;stroke:#cccccc;stroke-linecap:round;stroke-width:0.8;"/>
     </g>
     <g id="line2d_81"/>
     <g id="text_30">
      <!-- $\mathdefault{10^{-4}}$ -->
      <g style="fill:#262626;" transform="translate(30.135957 317.75924)scale(0.1 -0.1)">
       <use transform="translate(0 0.684375)" xlink:href="#DejaVuSans-31"/>
       <use transform="translate(63.623047 0.684375)" xlink:href="#DejaVuSans-30"/>
       <use transform="translate(128.203125 38.965625)scale(0.7)" xlink:href="#DejaVuSans-2212"/>
       <use transform="translate(186.855469 38.965625)scale(0.7)" xlink:href="#DejaVuSans-34"/>
      </g>
     </g>
    </g>
    <g id="ytick_26">
     <g id="line2d_82">
      <path clip-path="url(#p1b96c175f3)" d="M 57.135957 292.499843 
L 232.790638 292.499843 
" style="fill:none;stroke:#cccccc;stroke-linecap:round;stroke-width:0.8;"/>
     </g>
     <g id="line2d_83"/>
     <g id="text_31">
      <!-- $\mathdefault{10^{-1}}$ -->
      <g style="fill:#262626;" transform="translate(30.135957 296.299061)scale(0.1 -0.1)">
       <use transform="translate(0 0.684375)" xlink:href="#DejaVuSans-31"/>
       <use transform="translate(63.623047 0.684375)" xlink:href="#DejaVuSans-30"/>
       <use transform="translate(128.203125 38.965625)scale(0.7)" xlink:href="#DejaVuSans-2212"/>
       <use transform="translate(186.855469 38.965625)scale(0.7)" xlink:href="#DejaVuSans-31"/>
      </g>
     </g>
    </g>
    <g id="ytick_27">
     <g id="line2d_84">
      <path clip-path="url(#p1b96c175f3)" d="M 57.135957 271.039664 
L 232.790638 271.039664 
" style="fill:none;stroke:#cccccc;stroke-linecap:round;stroke-width:0.8;"/>
     </g>
     <g id="line2d_85"/>
     <g id="text_32">
      <!-- $\mathdefault{10^{2}}$ -->
      <g style="fill:#262626;" transform="translate(36.035957 274.838883)scale(0.1 -0.1)">
       <use transform="translate(0 0.765625)" xlink:href="#DejaVuSans-31"/>
       <use transform="translate(63.623047 0.765625)" xlink:href="#DejaVuSans-30"/>
       <use transform="translate(128.203125 39.046875)scale(0.7)" xlink:href="#DejaVuSans-32"/>
      </g>
     </g>
    </g>
    <g id="ytick_28">
     <g id="line2d_86">
      <path clip-path="url(#p1b96c175f3)" d="M 57.135957 249.579485 
L 232.790638 249.579485 
" style="fill:none;stroke:#cccccc;stroke-linecap:round;stroke-width:0.8;"/>
     </g>
     <g id="line2d_87"/>
     <g id="text_33">
      <!-- $\mathdefault{10^{5}}$ -->
      <g style="fill:#262626;" transform="translate(36.035957 253.378704)scale(0.1 -0.1)">
       <use transform="translate(0 0.684375)" xlink:href="#DejaVuSans-31"/>
       <use transform="translate(63.623047 0.684375)" xlink:href="#DejaVuSans-30"/>
       <use transform="translate(128.203125 38.965625)scale(0.7)" xlink:href="#DejaVuSans-35"/>
      </g>
     </g>
    </g>
    <g id="text_34">
     <!-- Singular values (log) -->
     <g style="fill:#262626;" transform="translate(19.65627 363.598437)rotate(-90)scale(0.1 -0.1)">
      <use xlink:href="#DejaVuSans-53"/>
      <use x="63.476562" xlink:href="#DejaVuSans-69"/>
      <use x="91.259766" xlink:href="#DejaVuSans-6e"/>
      <use x="154.638672" xlink:href="#DejaVuSans-67"/>
      <use x="218.115234" xlink:href="#DejaVuSans-75"/>
      <use x="281.494141" xlink:href="#DejaVuSans-6c"/>
      <use x="309.277344" xlink:href="#DejaVuSans-61"/>
      <use x="370.556641" xlink:href="#DejaVuSans-72"/>
      <use x="411.669922" xlink:href="#DejaVuSans-20"/>
      <use x="443.457031" xlink:href="#DejaVuSans-76"/>
      <use x="502.636719" xlink:href="#DejaVuSans-61"/>
      <use x="563.916016" xlink:href="#DejaVuSans-6c"/>
      <use x="591.699219" xlink:href="#DejaVuSans-75"/>
      <use x="655.078125" xlink:href="#DejaVuSans-65"/>
      <use x="716.601562" xlink:href="#DejaVuSans-73"/>
      <use x="768.701172" xlink:href="#DejaVuSans-20"/>
      <use x="800.488281" xlink:href="#DejaVuSans-28"/>
      <use x="839.501953" xlink:href="#DejaVuSans-6c"/>
      <use x="867.285156" xlink:href="#DejaVuSans-6f"/>
      <use x="928.466797" xlink:href="#DejaVuSans-67"/>
      <use x="991.943359" xlink:href="#DejaVuSans-29"/>
     </g>
    </g>
   </g>
   <g id="line2d_88">
    <path clip-path="url(#p1b96c175f3)" d="M 70.647856 240.889817 
L 84.159754 251.201147 
L 97.671653 252.066887 
L 111.183551 252.767589 
L 124.69545 253.681611 
L 138.207348 255.115695 
L 151.719247 255.674421 
L 165.231145 256.151302 
L 178.743044 256.896811 
L 192.254942 257.220389 
L 205.766841 257.597197 
L 219.278739 258.065435 
" style="fill:none;"/>
    <g clip-path="url(#p1b96c175f3)">
     <use style="fill:#1f77b4;stroke:#1f77b4;" x="70.647856" xlink:href="#m9cb950d901" y="240.889817"/>
     <use style="fill:#1f77b4;stroke:#1f77b4;" x="84.159754" xlink:href="#m9cb950d901" y="251.201147"/>
     <use style="fill:#1f77b4;stroke:#1f77b4;" x="97.671653" xlink:href="#m9cb950d901" y="252.066887"/>
     <use style="fill:#1f77b4;stroke:#1f77b4;" x="111.183551" xlink:href="#m9cb950d901" y="252.767589"/>
     <use style="fill:#1f77b4;stroke:#1f77b4;" x="124.69545" xlink:href="#m9cb950d901" y="253.681611"/>
     <use style="fill:#1f77b4;stroke:#1f77b4;" x="138.207348" xlink:href="#m9cb950d901" y="255.115695"/>
     <use style="fill:#1f77b4;stroke:#1f77b4;" x="151.719247" xlink:href="#m9cb950d901" y="255.674421"/>
     <use style="fill:#1f77b4;stroke:#1f77b4;" x="165.231145" xlink:href="#m9cb950d901" y="256.151302"/>
     <use style="fill:#1f77b4;stroke:#1f77b4;" x="178.743044" xlink:href="#m9cb950d901" y="256.896811"/>
     <use style="fill:#1f77b4;stroke:#1f77b4;" x="192.254942" xlink:href="#m9cb950d901" y="257.220389"/>
     <use style="fill:#1f77b4;stroke:#1f77b4;" x="205.766841" xlink:href="#m9cb950d901" y="257.597197"/>
     <use style="fill:#1f77b4;stroke:#1f77b4;" x="219.278739" xlink:href="#m9cb950d901" y="258.065435"/>
    </g>
   </g>
   <g id="text_35">
    <!-- RTE 1hr, 12 profiles -->
    <defs>
     <path d="M 54.890625 33.015625 
L 54.890625 0 
L 45.90625 0 
L 45.90625 32.71875 
Q 45.90625 40.484375 42.875 44.328125 
Q 39.84375 48.1875 33.796875 48.1875 
Q 26.515625 48.1875 22.3125 43.546875 
Q 18.109375 38.921875 18.109375 30.90625 
L 18.109375 0 
L 9.078125 0 
L 9.078125 75.984375 
L 18.109375 75.984375 
L 18.109375 46.1875 
Q 21.34375 51.125 25.703125 53.5625 
Q 30.078125 56 35.796875 56 
Q 45.21875 56 50.046875 50.171875 
Q 54.890625 44.34375 54.890625 33.015625 
z
" id="DejaVuSans-68"/>
    </defs>
    <g style="fill:#262626;" transform="translate(85.78736 224.4)scale(0.12 -0.12)">
     <use xlink:href="#DejaVuSans-52"/>
     <use x="69.373047" xlink:href="#DejaVuSans-54"/>
     <use x="130.457031" xlink:href="#DejaVuSans-45"/>
     <use x="193.640625" xlink:href="#DejaVuSans-20"/>
     <use x="225.427734" xlink:href="#DejaVuSans-31"/>
     <use x="289.050781" xlink:href="#DejaVuSans-68"/>
     <use x="352.429688" xlink:href="#DejaVuSans-72"/>
     <use x="393.542969" xlink:href="#DejaVuSans-2c"/>
     <use x="425.330078" xlink:href="#DejaVuSans-20"/>
     <use x="457.117188" xlink:href="#DejaVuSans-31"/>
     <use x="520.740234" xlink:href="#DejaVuSans-32"/>
     <use x="584.363281" xlink:href="#DejaVuSans-20"/>
     <use x="616.150391" xlink:href="#DejaVuSans-70"/>
     <use x="679.626953" xlink:href="#DejaVuSans-72"/>
     <use x="720.708984" xlink:href="#DejaVuSans-6f"/>
     <use x="781.890625" xlink:href="#DejaVuSans-66"/>
     <use x="817.095703" xlink:href="#DejaVuSans-69"/>
     <use x="844.878906" xlink:href="#DejaVuSans-6c"/>
     <use x="872.662109" xlink:href="#DejaVuSans-65"/>
     <use x="934.185547" xlink:href="#DejaVuSans-73"/>
    </g>
   </g>
  </g>
  <g id="axes_5">
   <g id="patch_6">
    <path d="M 257.778138 393.7 
L 433.432819 393.7 
L 433.432819 230.4 
L 257.778138 230.4 
z
" style="fill:#ffffff;"/>
   </g>
   <g id="matplotlib.axis_9">
    <g id="xtick_15">
     <g id="line2d_89">
      <path clip-path="url(#pe5de5d7711)" d="M 257.778138 393.7 
L 257.778138 230.4 
" style="fill:none;stroke:#cccccc;stroke-linecap:round;stroke-width:0.8;"/>
     </g>
     <g id="line2d_90"/>
     <g id="text_36">
      <!-- 0 -->
      <g style="fill:#262626;" transform="translate(254.596888 404.798437)scale(0.1 -0.1)">
       <use xlink:href="#DejaVuSans-30"/>
      </g>
     </g>
    </g>
    <g id="xtick_16">
     <g id="line2d_91">
      <path clip-path="url(#pe5de5d7711)" d="M 292.909074 393.7 
L 292.909074 230.4 
" style="fill:none;stroke:#cccccc;stroke-linecap:round;stroke-width:0.8;"/>
     </g>
     <g id="line2d_92"/>
     <g id="text_37">
      <!-- 2 -->
      <g style="fill:#262626;" transform="translate(289.727824 404.798437)scale(0.1 -0.1)">
       <use xlink:href="#DejaVuSans-32"/>
      </g>
     </g>
    </g>
    <g id="xtick_17">
     <g id="line2d_93">
      <path clip-path="url(#pe5de5d7711)" d="M 328.04001 393.7 
L 328.04001 230.4 
" style="fill:none;stroke:#cccccc;stroke-linecap:round;stroke-width:0.8;"/>
     </g>
     <g id="line2d_94"/>
     <g id="text_38">
      <!-- 4 -->
      <g style="fill:#262626;" transform="translate(324.85876 404.798437)scale(0.1 -0.1)">
       <use xlink:href="#DejaVuSans-34"/>
      </g>
     </g>
    </g>
    <g id="xtick_18">
     <g id="line2d_95">
      <path clip-path="url(#pe5de5d7711)" d="M 363.170947 393.7 
L 363.170947 230.4 
" style="fill:none;stroke:#cccccc;stroke-linecap:round;stroke-width:0.8;"/>
     </g>
     <g id="line2d_96"/>
     <g id="text_39">
      <!-- 6 -->
      <g style="fill:#262626;" transform="translate(359.989697 404.798437)scale(0.1 -0.1)">
       <use xlink:href="#DejaVuSans-36"/>
      </g>
     </g>
    </g>
    <g id="xtick_19">
     <g id="line2d_97">
      <path clip-path="url(#pe5de5d7711)" d="M 398.301883 393.7 
L 398.301883 230.4 
" style="fill:none;stroke:#cccccc;stroke-linecap:round;stroke-width:0.8;"/>
     </g>
     <g id="line2d_98"/>
     <g id="text_40">
      <!-- 8 -->
      <defs>
       <path d="M 31.78125 34.625 
Q 24.75 34.625 20.71875 30.859375 
Q 16.703125 27.09375 16.703125 20.515625 
Q 16.703125 13.921875 20.71875 10.15625 
Q 24.75 6.390625 31.78125 6.390625 
Q 38.8125 6.390625 42.859375 10.171875 
Q 46.921875 13.96875 46.921875 20.515625 
Q 46.921875 27.09375 42.890625 30.859375 
Q 38.875 34.625 31.78125 34.625 
z
M 21.921875 38.8125 
Q 15.578125 40.375 12.03125 44.71875 
Q 8.5 49.078125 8.5 55.328125 
Q 8.5 64.0625 14.71875 69.140625 
Q 20.953125 74.21875 31.78125 74.21875 
Q 42.671875 74.21875 48.875 69.140625 
Q 55.078125 64.0625 55.078125 55.328125 
Q 55.078125 49.078125 51.53125 44.71875 
Q 48 40.375 41.703125 38.8125 
Q 48.828125 37.15625 52.796875 32.3125 
Q 56.78125 27.484375 56.78125 20.515625 
Q 56.78125 9.90625 50.3125 4.234375 
Q 43.84375 -1.421875 31.78125 -1.421875 
Q 19.734375 -1.421875 13.25 4.234375 
Q 6.78125 9.90625 6.78125 20.515625 
Q 6.78125 27.484375 10.78125 32.3125 
Q 14.796875 37.15625 21.921875 38.8125 
z
M 18.3125 54.390625 
Q 18.3125 48.734375 21.84375 45.5625 
Q 25.390625 42.390625 31.78125 42.390625 
Q 38.140625 42.390625 41.71875 45.5625 
Q 45.3125 48.734375 45.3125 54.390625 
Q 45.3125 60.0625 41.71875 63.234375 
Q 38.140625 66.40625 31.78125 66.40625 
Q 25.390625 66.40625 21.84375 63.234375 
Q 18.3125 60.0625 18.3125 54.390625 
z
" id="DejaVuSans-38"/>
      </defs>
      <g style="fill:#262626;" transform="translate(395.120633 404.798437)scale(0.1 -0.1)">
       <use xlink:href="#DejaVuSans-38"/>
      </g>
     </g>
    </g>
    <g id="xtick_20">
     <g id="line2d_99">
      <path clip-path="url(#pe5de5d7711)" d="M 433.432819 393.7 
L 433.432819 230.4 
" style="fill:none;stroke:#cccccc;stroke-linecap:round;stroke-width:0.8;"/>
     </g>
     <g id="line2d_100"/>
     <g id="text_41">
      <!-- 10 -->
      <g style="fill:#262626;" transform="translate(427.070319 404.798437)scale(0.1 -0.1)">
       <use xlink:href="#DejaVuSans-31"/>
       <use x="63.623047" xlink:href="#DejaVuSans-30"/>
      </g>
     </g>
    </g>
    <g id="text_42">
     <!-- Index -->
     <g style="fill:#262626;" transform="translate(331.752354 418.476562)scale(0.1 -0.1)">
      <use xlink:href="#DejaVuSans-49"/>
      <use x="29.492188" xlink:href="#DejaVuSans-6e"/>
      <use x="92.871094" xlink:href="#DejaVuSans-64"/>
      <use x="156.347656" xlink:href="#DejaVuSans-65"/>
      <use x="217.855469" xlink:href="#DejaVuSans-78"/>
     </g>
    </g>
   </g>
   <g id="matplotlib.axis_10">
    <g id="ytick_29">
     <g id="line2d_101">
      <path clip-path="url(#pe5de5d7711)" d="M 257.778138 378.340557 
L 433.432819 378.340557 
" style="fill:none;stroke:#cccccc;stroke-linecap:round;stroke-width:0.8;"/>
     </g>
     <g id="line2d_102"/>
    </g>
    <g id="ytick_30">
     <g id="line2d_103">
      <path clip-path="url(#pe5de5d7711)" d="M 257.778138 356.880379 
L 433.432819 356.880379 
" style="fill:none;stroke:#cccccc;stroke-linecap:round;stroke-width:0.8;"/>
     </g>
     <g id="line2d_104"/>
    </g>
    <g id="ytick_31">
     <g id="line2d_105">
      <path clip-path="url(#pe5de5d7711)" d="M 257.778138 335.4202 
L 433.432819 335.4202 
" style="fill:none;stroke:#cccccc;stroke-linecap:round;stroke-width:0.8;"/>
     </g>
     <g id="line2d_106"/>
    </g>
    <g id="ytick_32">
     <g id="line2d_107">
      <path clip-path="url(#pe5de5d7711)" d="M 257.778138 313.960021 
L 433.432819 313.960021 
" style="fill:none;stroke:#cccccc;stroke-linecap:round;stroke-width:0.8;"/>
     </g>
     <g id="line2d_108"/>
    </g>
    <g id="ytick_33">
     <g id="line2d_109">
      <path clip-path="url(#pe5de5d7711)" d="M 257.778138 292.499843 
L 433.432819 292.499843 
" style="fill:none;stroke:#cccccc;stroke-linecap:round;stroke-width:0.8;"/>
     </g>
     <g id="line2d_110"/>
    </g>
    <g id="ytick_34">
     <g id="line2d_111">
      <path clip-path="url(#pe5de5d7711)" d="M 257.778138 271.039664 
L 433.432819 271.039664 
" style="fill:none;stroke:#cccccc;stroke-linecap:round;stroke-width:0.8;"/>
     </g>
     <g id="line2d_112"/>
    </g>
    <g id="ytick_35">
     <g id="line2d_113">
      <path clip-path="url(#pe5de5d7711)" d="M 257.778138 249.579485 
L 433.432819 249.579485 
" style="fill:none;stroke:#cccccc;stroke-linecap:round;stroke-width:0.8;"/>
     </g>
     <g id="line2d_114"/>
    </g>
   </g>
   <g id="line2d_115">
    <path clip-path="url(#pe5de5d7711)" d="M 275.343606 237.822727 
L 292.909074 249.150669 
L 310.474542 251.869574 
L 328.04001 252.414129 
L 345.605479 253.916109 
L 363.170947 257.428359 
L 380.736415 259.057819 
L 398.301883 260.58839 
L 415.867351 318.386924 
" style="fill:none;"/>
    <g clip-path="url(#pe5de5d7711)">
     <use style="fill:#1f77b4;stroke:#1f77b4;" x="275.343606" xlink:href="#m9cb950d901" y="237.822727"/>
     <use style="fill:#1f77b4;stroke:#1f77b4;" x="292.909074" xlink:href="#m9cb950d901" y="249.150669"/>
     <use style="fill:#1f77b4;stroke:#1f77b4;" x="310.474542" xlink:href="#m9cb950d901" y="251.869574"/>
     <use style="fill:#1f77b4;stroke:#1f77b4;" x="328.04001" xlink:href="#m9cb950d901" y="252.414129"/>
     <use style="fill:#1f77b4;stroke:#1f77b4;" x="345.605479" xlink:href="#m9cb950d901" y="253.916109"/>
     <use style="fill:#1f77b4;stroke:#1f77b4;" x="363.170947" xlink:href="#m9cb950d901" y="257.428359"/>
     <use style="fill:#1f77b4;stroke:#1f77b4;" x="380.736415" xlink:href="#m9cb950d901" y="259.057819"/>
     <use style="fill:#1f77b4;stroke:#1f77b4;" x="398.301883" xlink:href="#m9cb950d901" y="260.58839"/>
     <use style="fill:#1f77b4;stroke:#1f77b4;" x="415.867351" xlink:href="#m9cb950d901" y="318.386924"/>
    </g>
   </g>
   <g id="text_43">
    <!-- ERCOT, 9 profiles -->
    <defs>
     <path d="M 39.40625 66.21875 
Q 28.65625 66.21875 22.328125 58.203125 
Q 16.015625 50.203125 16.015625 36.375 
Q 16.015625 22.609375 22.328125 14.59375 
Q 28.65625 6.59375 39.40625 6.59375 
Q 50.140625 6.59375 56.421875 14.59375 
Q 62.703125 22.609375 62.703125 36.375 
Q 62.703125 50.203125 56.421875 58.203125 
Q 50.140625 66.21875 39.40625 66.21875 
z
M 39.40625 74.21875 
Q 54.734375 74.21875 63.90625 63.9375 
Q 73.09375 53.65625 73.09375 36.375 
Q 73.09375 19.140625 63.90625 8.859375 
Q 54.734375 -1.421875 39.40625 -1.421875 
Q 24.03125 -1.421875 14.8125 8.828125 
Q 5.609375 19.09375 5.609375 36.375 
Q 5.609375 53.65625 14.8125 63.9375 
Q 24.03125 74.21875 39.40625 74.21875 
z
" id="DejaVuSans-4f"/>
    </defs>
    <g style="fill:#262626;" transform="translate(293.325791 224.4)scale(0.12 -0.12)">
     <use xlink:href="#DejaVuSans-45"/>
     <use x="63.183594" xlink:href="#DejaVuSans-52"/>
     <use x="132.587891" xlink:href="#DejaVuSans-43"/>
     <use x="202.412109" xlink:href="#DejaVuSans-4f"/>
     <use x="281.123047" xlink:href="#DejaVuSans-54"/>
     <use x="342.207031" xlink:href="#DejaVuSans-2c"/>
     <use x="373.994141" xlink:href="#DejaVuSans-20"/>
     <use x="405.78125" xlink:href="#DejaVuSans-39"/>
     <use x="469.404297" xlink:href="#DejaVuSans-20"/>
     <use x="501.191406" xlink:href="#DejaVuSans-70"/>
     <use x="564.667969" xlink:href="#DejaVuSans-72"/>
     <use x="605.75" xlink:href="#DejaVuSans-6f"/>
     <use x="666.931641" xlink:href="#DejaVuSans-66"/>
     <use x="702.136719" xlink:href="#DejaVuSans-69"/>
     <use x="729.919922" xlink:href="#DejaVuSans-6c"/>
     <use x="757.703125" xlink:href="#DejaVuSans-65"/>
     <use x="819.226562" xlink:href="#DejaVuSans-73"/>
    </g>
   </g>
  </g>
  <g id="axes_6">
   <g id="patch_7">
    <path d="M 458.420319 393.7 
L 634.075 393.7 
L 634.075 230.4 
L 458.420319 230.4 
z
" style="fill:#ffffff;"/>
   </g>
   <g id="matplotlib.axis_11">
    <g id="xtick_21">
     <g id="line2d_116">
      <path clip-path="url(#p5bf39e3130)" d="M 502.333989 393.7 
L 502.333989 230.4 
" style="fill:none;stroke:#cccccc;stroke-linecap:round;stroke-width:0.8;"/>
     </g>
     <g id="line2d_117"/>
     <g id="text_44">
      <!-- 1 -->
      <g style="fill:#262626;" transform="translate(499.152739 404.798437)scale(0.1 -0.1)">
       <use xlink:href="#DejaVuSans-31"/>
      </g>
     </g>
    </g>
    <g id="xtick_22">
     <g id="line2d_118">
      <path clip-path="url(#p5bf39e3130)" d="M 546.24766 393.7 
L 546.24766 230.4 
" style="fill:none;stroke:#cccccc;stroke-linecap:round;stroke-width:0.8;"/>
     </g>
     <g id="line2d_119"/>
     <g id="text_45">
      <!-- 2 -->
      <g style="fill:#262626;" transform="translate(543.06641 404.798437)scale(0.1 -0.1)">
       <use xlink:href="#DejaVuSans-32"/>
      </g>
     </g>
    </g>
    <g id="xtick_23">
     <g id="line2d_120">
      <path clip-path="url(#p5bf39e3130)" d="M 590.16133 393.7 
L 590.16133 230.4 
" style="fill:none;stroke:#cccccc;stroke-linecap:round;stroke-width:0.8;"/>
     </g>
     <g id="line2d_121"/>
     <g id="text_46">
      <!-- 3 -->
      <g style="fill:#262626;" transform="translate(586.98008 404.798437)scale(0.1 -0.1)">
       <use xlink:href="#DejaVuSans-33"/>
      </g>
     </g>
    </g>
    <g id="text_47">
     <!-- Index -->
     <g style="fill:#262626;" transform="translate(532.394535 418.476562)scale(0.1 -0.1)">
      <use xlink:href="#DejaVuSans-49"/>
      <use x="29.492188" xlink:href="#DejaVuSans-6e"/>
      <use x="92.871094" xlink:href="#DejaVuSans-64"/>
      <use x="156.347656" xlink:href="#DejaVuSans-65"/>
      <use x="217.855469" xlink:href="#DejaVuSans-78"/>
     </g>
    </g>
   </g>
   <g id="matplotlib.axis_12">
    <g id="ytick_36">
     <g id="line2d_122">
      <path clip-path="url(#p5bf39e3130)" d="M 458.420319 378.340557 
L 634.075 378.340557 
" style="fill:none;stroke:#cccccc;stroke-linecap:round;stroke-width:0.8;"/>
     </g>
     <g id="line2d_123"/>
    </g>
    <g id="ytick_37">
     <g id="line2d_124">
      <path clip-path="url(#p5bf39e3130)" d="M 458.420319 356.880379 
L 634.075 356.880379 
" style="fill:none;stroke:#cccccc;stroke-linecap:round;stroke-width:0.8;"/>
     </g>
     <g id="line2d_125"/>
    </g>
    <g id="ytick_38">
     <g id="line2d_126">
      <path clip-path="url(#p5bf39e3130)" d="M 458.420319 335.4202 
L 634.075 335.4202 
" style="fill:none;stroke:#cccccc;stroke-linecap:round;stroke-width:0.8;"/>
     </g>
     <g id="line2d_127"/>
    </g>
    <g id="ytick_39">
     <g id="line2d_128">
      <path clip-path="url(#p5bf39e3130)" d="M 458.420319 313.960021 
L 634.075 313.960021 
" style="fill:none;stroke:#cccccc;stroke-linecap:round;stroke-width:0.8;"/>
     </g>
     <g id="line2d_129"/>
    </g>
    <g id="ytick_40">
     <g id="line2d_130">
      <path clip-path="url(#p5bf39e3130)" d="M 458.420319 292.499843 
L 634.075 292.499843 
" style="fill:none;stroke:#cccccc;stroke-linecap:round;stroke-width:0.8;"/>
     </g>
     <g id="line2d_131"/>
    </g>
    <g id="ytick_41">
     <g id="line2d_132">
      <path clip-path="url(#p5bf39e3130)" d="M 458.420319 271.039664 
L 634.075 271.039664 
" style="fill:none;stroke:#cccccc;stroke-linecap:round;stroke-width:0.8;"/>
     </g>
     <g id="line2d_133"/>
    </g>
    <g id="ytick_42">
     <g id="line2d_134">
      <path clip-path="url(#p5bf39e3130)" d="M 458.420319 249.579485 
L 634.075 249.579485 
" style="fill:none;stroke:#cccccc;stroke-linecap:round;stroke-width:0.8;"/>
     </g>
     <g id="line2d_135"/>
    </g>
   </g>
   <g id="line2d_136">
    <path clip-path="url(#p5bf39e3130)" d="M 502.333989 246.967617 
L 546.24766 254.19214 
L 590.16133 257.228382 
" style="fill:none;"/>
    <g clip-path="url(#p5bf39e3130)">
     <use style="fill:#1f77b4;stroke:#1f77b4;" x="502.333989" xlink:href="#m9cb950d901" y="246.967617"/>
     <use style="fill:#1f77b4;stroke:#1f77b4;" x="546.24766" xlink:href="#m9cb950d901" y="254.19214"/>
     <use style="fill:#1f77b4;stroke:#1f77b4;" x="590.16133" xlink:href="#m9cb950d901" y="257.228382"/>
    </g>
   </g>
   <g id="text_48">
    <!-- RTS GMLC 1hr, 3 profiles -->
    <defs>
     <path d="M 59.515625 10.40625 
L 59.515625 29.984375 
L 43.40625 29.984375 
L 43.40625 38.09375 
L 69.28125 38.09375 
L 69.28125 6.78125 
Q 63.578125 2.734375 56.6875 0.65625 
Q 49.8125 -1.421875 42 -1.421875 
Q 24.90625 -1.421875 15.25 8.5625 
Q 5.609375 18.5625 5.609375 36.375 
Q 5.609375 54.25 15.25 64.234375 
Q 24.90625 74.21875 42 74.21875 
Q 49.125 74.21875 55.546875 72.453125 
Q 61.96875 70.703125 67.390625 67.28125 
L 67.390625 56.78125 
Q 61.921875 61.421875 55.765625 63.765625 
Q 49.609375 66.109375 42.828125 66.109375 
Q 29.4375 66.109375 22.71875 58.640625 
Q 16.015625 51.171875 16.015625 36.375 
Q 16.015625 21.625 22.71875 14.15625 
Q 29.4375 6.6875 42.828125 6.6875 
Q 48.046875 6.6875 52.140625 7.59375 
Q 56.25 8.5 59.515625 10.40625 
z
" id="DejaVuSans-47"/>
     <path d="M 9.8125 72.90625 
L 24.515625 72.90625 
L 43.109375 23.296875 
L 61.8125 72.90625 
L 76.515625 72.90625 
L 76.515625 0 
L 66.890625 0 
L 66.890625 64.015625 
L 48.09375 14.015625 
L 38.1875 14.015625 
L 19.390625 64.015625 
L 19.390625 0 
L 9.8125 0 
z
" id="DejaVuSans-4d"/>
     <path d="M 9.8125 72.90625 
L 19.671875 72.90625 
L 19.671875 8.296875 
L 55.171875 8.296875 
L 55.171875 0 
L 9.8125 0 
z
" id="DejaVuSans-4c"/>
    </defs>
    <g style="fill:#262626;" transform="translate(471.605785 224.4)scale(0.12 -0.12)">
     <use xlink:href="#DejaVuSans-52"/>
     <use x="69.373047" xlink:href="#DejaVuSans-54"/>
     <use x="130.457031" xlink:href="#DejaVuSans-53"/>
     <use x="193.933594" xlink:href="#DejaVuSans-20"/>
     <use x="225.720703" xlink:href="#DejaVuSans-47"/>
     <use x="303.210938" xlink:href="#DejaVuSans-4d"/>
     <use x="389.490234" xlink:href="#DejaVuSans-4c"/>
     <use x="445.203125" xlink:href="#DejaVuSans-43"/>
     <use x="515.027344" xlink:href="#DejaVuSans-20"/>
     <use x="546.814453" xlink:href="#DejaVuSans-31"/>
     <use x="610.4375" xlink:href="#DejaVuSans-68"/>
     <use x="673.816406" xlink:href="#DejaVuSans-72"/>
     <use x="714.929688" xlink:href="#DejaVuSans-2c"/>
     <use x="746.716797" xlink:href="#DejaVuSans-20"/>
     <use x="778.503906" xlink:href="#DejaVuSans-33"/>
     <use x="842.126953" xlink:href="#DejaVuSans-20"/>
     <use x="873.914062" xlink:href="#DejaVuSans-70"/>
     <use x="937.390625" xlink:href="#DejaVuSans-72"/>
     <use x="978.472656" xlink:href="#DejaVuSans-6f"/>
     <use x="1039.654297" xlink:href="#DejaVuSans-66"/>
     <use x="1074.859375" xlink:href="#DejaVuSans-69"/>
     <use x="1102.642578" xlink:href="#DejaVuSans-6c"/>
     <use x="1130.425781" xlink:href="#DejaVuSans-65"/>
     <use x="1191.949219" xlink:href="#DejaVuSans-73"/>
    </g>
   </g>
  </g>
 </g>
 <defs>
  <clipPath id="pa935ed4f97">
   <rect height="163.3" width="175.654681" x="57.135957" y="26.8"/>
  </clipPath>
  <clipPath id="pd5dd359378">
   <rect height="163.3" width="175.654681" x="257.778138" y="26.8"/>
  </clipPath>
  <clipPath id="p3a21d58b77">
   <rect height="163.3" width="175.654681" x="458.420319" y="26.8"/>
  </clipPath>
  <clipPath id="p1b96c175f3">
   <rect height="163.3" width="175.654681" x="57.135957" y="230.4"/>
  </clipPath>
  <clipPath id="pe5de5d7711">
   <rect height="163.3" width="175.654681" x="257.778138" y="230.4"/>
  </clipPath>
  <clipPath id="p5bf39e3130">
   <rect height="163.3" width="175.654681" x="458.420319" y="230.4"/>
  </clipPath>
 </defs>
</svg>
