<?xml version="1.0" encoding="UTF-8" standalone="no"?>
<!-- Created with Inkscape (http://www.inkscape.org/) -->

<svg
   xmlns:dc="http://purl.org/dc/elements/1.1/"
   xmlns:cc="http://creativecommons.org/ns#"
   xmlns:rdf="http://www.w3.org/1999/02/22-rdf-syntax-ns#"
   xmlns:svg="http://www.w3.org/2000/svg"
   xmlns="http://www.w3.org/2000/svg"
   xmlns:sodipodi="http://sodipodi.sourceforge.net/DTD/sodipodi-0.dtd"
   xmlns:inkscape="http://www.inkscape.org/namespaces/inkscape"
   id="svg2"
   version="1.1"
   inkscape:version="0.91 r"
   xml:space="preserve"
   width="720"
   height="540"
   viewBox="0 0 720 540"
   sodipodi:docname="secular.svg"><metadata
     id="metadata8"><rdf:RDF><cc:Work
         rdf:about=""><dc:format>image/svg+xml</dc:format><dc:type
           rdf:resource="http://purl.org/dc/dcmitype/StillImage" /><dc:title></dc:title></cc:Work></rdf:RDF></metadata><defs
     id="defs6"><clipPath
       clipPathUnits="userSpaceOnUse"
       id="clipPath20"><path
         d="m 72,43.2 446.4,0 0,345.6 -446.4,0 0,-345.6 z"
         id="path22"
         inkscape:connector-curvature="0" /></clipPath><clipPath
       clipPathUnits="userSpaceOnUse"
       id="clipPath30"><path
         d="m -2.736068,-2.736068 5.472136,0 0,5.472136 -5.472136,0 0,-5.472136 z"
         id="path32"
         inkscape:connector-curvature="0" /></clipPath><clipPath
       clipPathUnits="userSpaceOnUse"
       id="clipPath42"><path
         d="m -2.736068,-2.736068 5.472136,0 0,5.472136 -5.472136,0 0,-5.472136 z"
         id="path44"
         inkscape:connector-curvature="0" /></clipPath><clipPath
       clipPathUnits="userSpaceOnUse"
       id="clipPath52"><path
         d="m 72,43.2 446.4,0 0,345.6 -446.4,0 0,-345.6 z"
         id="path54"
         inkscape:connector-curvature="0" /></clipPath><clipPath
       clipPathUnits="userSpaceOnUse"
       id="clipPath62"><path
         d="m 72,43.2 446.4,0 0,345.6 -446.4,0 0,-345.6 z"
         id="path64"
         inkscape:connector-curvature="0" /></clipPath><clipPath
       clipPathUnits="userSpaceOnUse"
       id="clipPath94"><path
         d="m -184,-236 1472,0 0,1165 -1472,0 0,-1165 z"
         id="path96"
         inkscape:connector-curvature="0" /></clipPath><clipPath
       clipPathUnits="userSpaceOnUse"
       id="clipPath256"><path
         d="m -3.236068,-3.236068 6.472136,0 0,6.472136 -6.472136,0 0,-6.472136 z"
         id="path258"
         inkscape:connector-curvature="0" /></clipPath><clipPath
       clipPathUnits="userSpaceOnUse"
       id="clipPath268"><path
         d="m -3.236068,-3.236068 6.472136,0 0,6.472136 -6.472136,0 0,-6.472136 z"
         id="path270"
         inkscape:connector-curvature="0" /></clipPath><clipPath
       clipPathUnits="userSpaceOnUse"
       id="clipPath280"><path
         d="m -3.236068,-3.236068 6.472136,0 0,6.472136 -6.472136,0 0,-6.472136 z"
         id="path282"
         inkscape:connector-curvature="0" /></clipPath></defs><sodipodi:namedview
     pagecolor="#ffffff"
     bordercolor="#666666"
     borderopacity="1"
     objecttolerance="10"
     gridtolerance="10"
     guidetolerance="10"
     inkscape:pageopacity="0"
     inkscape:pageshadow="2"
     inkscape:window-width="3200"
     inkscape:window-height="1752"
     id="namedview4"
     showgrid="false"
     inkscape:zoom="2.4722548"
     inkscape:cx="360"
     inkscape:cy="270"
     inkscape:window-x="0"
     inkscape:window-y="48"
     inkscape:window-maximized="1"
     inkscape:current-layer="g10" /><g
     id="g10"
     inkscape:groupmode="layer"
     inkscape:label="secular"
     transform="matrix(1.25,0,0,-1.25,0,540)"><path
       d="M 0,0 576,0 576,432 0,432 0,0 Z"
       style="fill:#ffffff;fill-opacity:1;fill-rule:nonzero;stroke:none"
       id="path12"
       inkscape:connector-curvature="0" /><path
       d="m 72,43.2 446.4,0 0,345.6 -446.4,0 0,-345.6 z"
       style="fill:#ffffff;fill-opacity:1;fill-rule:nonzero;stroke:none"
       id="path14"
       inkscape:connector-curvature="0" /><g
       id="g16"><g
         id="g18"
         clip-path="url(#clipPath20)"><g
           id="g24"
           transform="translate(154.37672,77.76)"><g
             id="g26"><g
               id="g28"
               clip-path="url(#clipPath30)"><path
                 d="m 0,-2.236068 c 0.59301216,0 1.1618159,0.2356063 1.5811388,0.6549292 C 2.0004617,-1.1618159 2.236068,-0.59301216 2.236068,0 c 0,0.59301216 -0.2356063,1.1618159 -0.6549292,1.5811388 C 1.1618159,2.0004617 0.59301216,2.236068 0,2.236068 c -0.59301216,0 -1.1618159,-0.2356063 -1.5811388,-0.6549292 C -2.0004617,1.1618159 -2.236068,0.59301216 -2.236068,0 c 0,-0.59301216 0.2356063,-1.1618159 0.6549292,-1.5811388 C -1.1618159,-2.0004617 -0.59301216,-2.236068 0,-2.236068 Z"
                 style="fill:#0000ff;fill-opacity:1;fill-rule:nonzero;stroke:#000000;stroke-width:1;stroke-linecap:butt;stroke-linejoin:round;stroke-miterlimit:10;stroke-dasharray:none;stroke-opacity:1"
                 id="path34"
                 inkscape:connector-curvature="0" /></g></g><g
             id="g36"
             transform="translate(209.1441,0)"><g
               id="g38"><g
                 id="g40"
                 clip-path="url(#clipPath42)"><path
                   d="m 0,-2.236068 c 0.59301216,0 1.1618159,0.2356063 1.5811388,0.6549292 C 2.0004617,-1.1618159 2.236068,-0.59301216 2.236068,0 c 0,0.59301216 -0.2356063,1.1618159 -0.6549292,1.5811388 C 1.1618159,2.0004617 0.59301216,2.236068 0,2.236068 c -0.59301216,0 -1.1618159,-0.2356063 -1.5811388,-0.6549292 C -2.0004617,1.1618159 -2.236068,0.59301216 -2.236068,0 c 0,-0.59301216 0.2356063,-1.1618159 0.6549292,-1.5811388 C -1.1618159,-2.0004617 -0.59301216,-2.236068 0,-2.236068 Z"
                   style="fill:#0000ff;fill-opacity:1;fill-rule:nonzero;stroke:#000000;stroke-width:1;stroke-linecap:butt;stroke-linejoin:round;stroke-miterlimit:10;stroke-dasharray:none;stroke-opacity:1"
                   id="path46"
                   inkscape:connector-curvature="0" /></g></g></g></g></g></g><g
       id="g48"><g
         id="g50"
         clip-path="url(#clipPath52)"><path
           d="m 71.922065,48.714367 11.165546,0.941212 9.473797,1.015537 8.120392,1.089289 6.99257,1.156854 6.0903,1.22659 5.41359,1.313986 4.7369,1.372195 4.28577,1.469338 3.83463,1.54569 3.49628,1.646777 3.15793,1.728449 2.93237,1.857022 2.7068,1.977711 2.48123,2.083498 2.36845,2.281827 2.25567,2.495692 2.0301,2.571355 1.91731,2.769345 1.91732,3.168049 1.80453,3.421256 1.69175,3.675469 1.69175,4.224208 1.57897,4.543261 1.57896,5.251033 1.46618,5.65028 1.46619,6.56679 1.3534,7.06224 1.3534,8.25093 1.3534,9.73193 1.24061,10.55208 1.24062,12.52211 1.12783,13.54207 1.12783,16.15534 1.12784,19.50406 1.01505,21.2483 1.01505,25.80145 1.01505,31.77972 0.90226,34.89144 0.90227,43.24468 0.90226,54.52951 0.12149,8.42706 m 21.69074,0 0.85722,-42.33024 0.90226,-34.73759 0.90227,-27.07152 0.90227,-21.09277 0.90226,-16.30563 0.90227,-12.36772 0.78948,-8.07167 0.78948,-5.81253 0.6767,-3.34238 0.56392,-1.6993 0.45113,-0.6742 0.33835,-0.11345 0.33835,0.21989 0.33835,0.55258 0.45114,1.25643 0.56391,2.41718 0.6767,4.17995 0.6767,5.64731 0.78949,8.58944 0.78948,10.97375 0.90227,15.88206 0.90226,20.08475 0.90227,25.19786 0.90226,31.56757 0.90227,39.68912 0.14605,7.36111 m 24.25463,0 0.97556,-53.45529 1.01505,-44.06846 1.01505,-35.35751 1.12783,-31.65256 1.12784,-25.5824 1.12783,-20.95272 1.24062,-18.92625 1.24061,-15.56646 1.24062,-12.92984 1.3534,-11.72297 1.3534,-9.73587 1.3534,-8.13368 1.3534,-6.82242 1.3534,-5.73375 1.3534,-4.81705 1.35339,-4.03414 1.3534,-3.35573 1.3534,-2.75895 1.24062,-2.05923 1.24062,-1.64906 1.24061,-1.26791 1.12784,-0.84 1.12783,-0.55389 1.01505,-0.25966 1.01505,-0.0357 1.01505,0.18861 1.01505,0.41598 1.01505,0.64906 1.12783,1.00508 1.12783,1.31966 1.12784,1.65561 1.24061,2.24188 1.24062,2.72733 1.24061,3.27065 1.24062,3.88645 1.24062,4.59294 1.24061,5.41307 1.24062,6.37611 1.24061,7.52012 1.24062,8.89507 1.24062,10.56777 1.24061,12.62884 1.12784,13.6983 1.12783,16.33381 1.12783,19.6455 1.12784,23.86902 1.01504,26.1192 1.01505,31.80411 1.01505,39.22592 0.90227,43.06277 L 308.03026,433 m 24.31722,0 1.00626,-56.5015 1.01505,-45.23453 1.12783,-40.08635 1.12783,-32.12616 1.12784,-26.14717 1.24061,-23.51579 1.24062,-19.29989 1.24061,-16.03861 1.3534,-14.59323 1.3534,-12.20955 1.3534,-10.32113 1.46619,-9.48037 1.46618,-8.05931 1.57897,-7.40145 1.57896,-6.32915 1.57897,-5.45647 1.69175,-5.053366 1.69175,-4.378213 1.80453,-4.05693 1.80453,-3.53267 1.91732,-3.277086 2.0301,-3.02546 2.14288,-2.782307 2.25567,-2.550752 2.36844,-2.332792 2.48124,-2.129523 2.7068,-2.019958 2.81958,-1.826557 3.04515,-1.711048 3.3835,-1.640237 3.60906,-1.503103 4.0602,-1.445425 4.51133,-1.361802 4.96247,-1.262554 5.63916,-1.19987 6.31587,-1.113708 7.21813,-1.044936 8.34596,-0.979782 9.69936,-0.910767 11.5039,-0.849989 13.64678,-0.778913 16.57914,-0.715592 20.41378,-0.649138 16.57914,-0.399534 0,0"
           style="fill:none;stroke:#0000ff;stroke-width:1;stroke-linecap:square;stroke-linejoin:round;stroke-miterlimit:10;stroke-dasharray:none;stroke-opacity:1"
           id="path56"
           inkscape:connector-curvature="0" /></g></g><g
       id="g58"><g
         id="g60"
         clip-path="url(#clipPath62)"><path
           d="m -1,77.76 578,0"
           style="fill:none;stroke:#008000;stroke-width:1;stroke-linecap:butt;stroke-linejoin:round;stroke-miterlimit:10;stroke-dasharray:6, 6;stroke-dashoffset:0;stroke-opacity:1"
           id="path66"
           inkscape:connector-curvature="0" /></g></g><g
       id="g68"><path
         d="m 72,388.8 446.4,0"
         style="fill:none;stroke:#000000;stroke-width:1;stroke-linecap:square;stroke-linejoin:miter;stroke-miterlimit:10;stroke-dasharray:none;stroke-opacity:1"
         id="path70"
         inkscape:connector-curvature="0" /><path
         d="m 518.4,43.2 0,345.6"
         style="fill:none;stroke:#000000;stroke-width:1;stroke-linecap:square;stroke-linejoin:miter;stroke-miterlimit:10;stroke-dasharray:none;stroke-opacity:1"
         id="path72"
         inkscape:connector-curvature="0" /><path
         d="m 72,43.2 446.4,0"
         style="fill:none;stroke:#000000;stroke-width:1;stroke-linecap:square;stroke-linejoin:miter;stroke-miterlimit:10;stroke-dasharray:none;stroke-opacity:1"
         id="path74"
         inkscape:connector-curvature="0" /><path
         d="m 72,43.2 0,345.6"
         style="fill:none;stroke:#000000;stroke-width:1;stroke-linecap:square;stroke-linejoin:miter;stroke-miterlimit:10;stroke-dasharray:none;stroke-opacity:1"
         id="path76"
         inkscape:connector-curvature="0" /><path
         d="m 72,43.2 0,4"
         style="fill:#000000;fill-opacity:1;fill-rule:nonzero;stroke:#000000;stroke-width:0.5;stroke-linecap:butt;stroke-linejoin:round;stroke-miterlimit:10;stroke-dasharray:none;stroke-opacity:1"
         id="path78"
         inkscape:connector-curvature="0" /><path
         d="m 72,388.8 0,-4"
         style="fill:#000000;fill-opacity:1;fill-rule:nonzero;stroke:#000000;stroke-width:0.5;stroke-linecap:butt;stroke-linejoin:round;stroke-miterlimit:10;stroke-dasharray:none;stroke-opacity:1"
         id="path80"
         inkscape:connector-curvature="0" /><g
         id="g82"
         transform="translate(56.539062,30.075)"><text
           transform="matrix(1,0,0,-1,10.054688,0)"
           style="font-variant:normal;font-weight:normal;font-size:12px;font-family:'Bitstream Charter';-inkscape-font-specification:BitstreamVeraSans-Roman;writing-mode:lr-tb;fill:#000000;fill-opacity:1;fill-rule:nonzero;stroke:none"
           id="text84"><tspan
             x="0 7.632 15.264"
             y="0"
             sodipodi:role="line"
             id="tspan86">200</tspan></text>
<g
           id="g88"
           transform="scale(0.012,0.012)"><g
             id="g90"><g
               id="g92"
               clip-path="url(#clipPath94)"><path
                 d="m 106,355 626,0 0,-83 -626,0 0,83"
                 style="fill:#000000;fill-opacity:1;fill-rule:nonzero;stroke:none"
                 id="path98"
                 inkscape:connector-curvature="0" /></g></g></g></g><path
         d="m 153.16364,43.2 0,4"
         style="fill:#000000;fill-opacity:1;fill-rule:nonzero;stroke:#000000;stroke-width:0.5;stroke-linecap:butt;stroke-linejoin:round;stroke-miterlimit:10;stroke-dasharray:none;stroke-opacity:1"
         id="path100"
         inkscape:connector-curvature="0" /><path
         d="m 153.16364,388.8 0,-4"
         style="fill:#000000;fill-opacity:1;fill-rule:nonzero;stroke:#000000;stroke-width:0.5;stroke-linecap:butt;stroke-linejoin:round;stroke-miterlimit:10;stroke-dasharray:none;stroke-opacity:1"
         id="path102"
         inkscape:connector-curvature="0" /><text
         transform="matrix(1,0,0,-1,150.1402,30.075)"
         style="font-variant:normal;font-weight:normal;font-size:12px;font-family:'Bitstream Charter';-inkscape-font-specification:BitstreamVeraSans-Roman;writing-mode:lr-tb;fill:#000000;fill-opacity:1;fill-rule:nonzero;stroke:none"
         id="text104"><tspan
           x="0"
           y="0"
           id="tspan106">0</tspan></text>
<path
         d="m 234.32727,43.2 0,4"
         style="fill:#000000;fill-opacity:1;fill-rule:nonzero;stroke:#000000;stroke-width:0.5;stroke-linecap:butt;stroke-linejoin:round;stroke-miterlimit:10;stroke-dasharray:none;stroke-opacity:1"
         id="path108"
         inkscape:connector-curvature="0" /><path
         d="m 234.32727,388.8 0,-4"
         style="fill:#000000;fill-opacity:1;fill-rule:nonzero;stroke:#000000;stroke-width:0.5;stroke-linecap:butt;stroke-linejoin:round;stroke-miterlimit:10;stroke-dasharray:none;stroke-opacity:1"
         id="path110"
         inkscape:connector-curvature="0" /><text
         transform="matrix(1,0,0,-1,223.70227,30.075)"
         style="font-variant:normal;font-weight:normal;font-size:12px;font-family:'Bitstream Charter';-inkscape-font-specification:BitstreamVeraSans-Roman;writing-mode:lr-tb;fill:#000000;fill-opacity:1;fill-rule:nonzero;stroke:none"
         id="text112"><tspan
           x="0 7.632 15.264"
           y="0"
           sodipodi:role="line"
           id="tspan114">200</tspan></text>
<path
         d="m 315.49091,43.2 0,4"
         style="fill:#000000;fill-opacity:1;fill-rule:nonzero;stroke:#000000;stroke-width:0.5;stroke-linecap:butt;stroke-linejoin:round;stroke-miterlimit:10;stroke-dasharray:none;stroke-opacity:1"
         id="path116"
         inkscape:connector-curvature="0" /><path
         d="m 315.49091,388.8 0,-4"
         style="fill:#000000;fill-opacity:1;fill-rule:nonzero;stroke:#000000;stroke-width:0.5;stroke-linecap:butt;stroke-linejoin:round;stroke-miterlimit:10;stroke-dasharray:none;stroke-opacity:1"
         id="path118"
         inkscape:connector-curvature="0" /><text
         transform="matrix(1,0,0,-1,304.72528,30.075)"
         style="font-variant:normal;font-weight:normal;font-size:12px;font-family:'Bitstream Charter';-inkscape-font-specification:BitstreamVeraSans-Roman;writing-mode:lr-tb;fill:#000000;fill-opacity:1;fill-rule:nonzero;stroke:none"
         id="text120"><tspan
           x="0 7.632 15.264"
           y="0"
           sodipodi:role="line"
           id="tspan122">400</tspan></text>
<path
         d="m 396.65455,43.2 0,4"
         style="fill:#000000;fill-opacity:1;fill-rule:nonzero;stroke:#000000;stroke-width:0.5;stroke-linecap:butt;stroke-linejoin:round;stroke-miterlimit:10;stroke-dasharray:none;stroke-opacity:1"
         id="path124"
         inkscape:connector-curvature="0" /><path
         d="m 396.65455,388.8 0,-4"
         style="fill:#000000;fill-opacity:1;fill-rule:nonzero;stroke:#000000;stroke-width:0.5;stroke-linecap:butt;stroke-linejoin:round;stroke-miterlimit:10;stroke-dasharray:none;stroke-opacity:1"
         id="path126"
         inkscape:connector-curvature="0" /><text
         transform="matrix(1,0,0,-1,386.01392,30.075)"
         style="font-variant:normal;font-weight:normal;font-size:12px;font-family:'Bitstream Charter';-inkscape-font-specification:BitstreamVeraSans-Roman;writing-mode:lr-tb;fill:#000000;fill-opacity:1;fill-rule:nonzero;stroke:none"
         id="text128"><tspan
           x="0 7.632 15.264"
           y="0"
           sodipodi:role="line"
           id="tspan130">600</tspan></text>
<path
         d="m 477.81818,43.2 0,4"
         style="fill:#000000;fill-opacity:1;fill-rule:nonzero;stroke:#000000;stroke-width:0.5;stroke-linecap:butt;stroke-linejoin:round;stroke-miterlimit:10;stroke-dasharray:none;stroke-opacity:1"
         id="path132"
         inkscape:connector-curvature="0" /><path
         d="m 477.81818,388.8 0,-4"
         style="fill:#000000;fill-opacity:1;fill-rule:nonzero;stroke:#000000;stroke-width:0.5;stroke-linecap:butt;stroke-linejoin:round;stroke-miterlimit:10;stroke-dasharray:none;stroke-opacity:1"
         id="path134"
         inkscape:connector-curvature="0" /><text
         transform="matrix(1,0,0,-1,467.16193,30.075)"
         style="font-variant:normal;font-weight:normal;font-size:12px;font-family:'Bitstream Charter';-inkscape-font-specification:BitstreamVeraSans-Roman;writing-mode:lr-tb;fill:#000000;fill-opacity:1;fill-rule:nonzero;stroke:none"
         id="text136"><tspan
           x="0 7.632 15.264"
           y="0"
           sodipodi:role="line"
           id="tspan138">800</tspan></text>
<g
         id="g140"
         transform="translate(291.2,10.41875)"><text
           transform="matrix(1,0,0,-1,0,0.90625)"
           style="font-variant:normal;font-weight:normal;font-size:16px;font-family:Cmmi10;-inkscape-font-specification:Cmmi10;writing-mode:lr-tb;fill:#000000;fill-opacity:1;fill-rule:nonzero;stroke:none"
           id="text142"><tspan
             x="0"
             y="0"
             id="tspan144">v</tspan></text>
</g><path
         d="m 72,43.2 4,0"
         style="fill:#000000;fill-opacity:1;fill-rule:nonzero;stroke:#000000;stroke-width:0.5;stroke-linecap:butt;stroke-linejoin:round;stroke-miterlimit:10;stroke-dasharray:none;stroke-opacity:1"
         id="path146"
         inkscape:connector-curvature="0" /><path
         d="m 518.4,43.2 -4,0"
         style="fill:#000000;fill-opacity:1;fill-rule:nonzero;stroke:#000000;stroke-width:0.5;stroke-linecap:butt;stroke-linejoin:round;stroke-miterlimit:10;stroke-dasharray:none;stroke-opacity:1"
         id="path148"
         inkscape:connector-curvature="0" /><text
         transform="matrix(1,0,0,-1,42.859375,39.8875)"
         style="font-variant:normal;font-weight:normal;font-size:12px;font-family:'Bitstream Charter';-inkscape-font-specification:BitstreamVeraSans-Roman;writing-mode:lr-tb;fill:#000000;fill-opacity:1;fill-rule:nonzero;stroke:none"
         id="text150"><tspan
           x="0 7.632 11.448 19.08"
           y="0"
           sodipodi:role="line"
           id="tspan152">0.00</tspan></text>
<path
         d="m 72,100.8 4,0"
         style="fill:#000000;fill-opacity:1;fill-rule:nonzero;stroke:#000000;stroke-width:0.5;stroke-linecap:butt;stroke-linejoin:round;stroke-miterlimit:10;stroke-dasharray:none;stroke-opacity:1"
         id="path154"
         inkscape:connector-curvature="0" /><path
         d="m 518.4,100.8 -4,0"
         style="fill:#000000;fill-opacity:1;fill-rule:nonzero;stroke:#000000;stroke-width:0.5;stroke-linecap:butt;stroke-linejoin:round;stroke-miterlimit:10;stroke-dasharray:none;stroke-opacity:1"
         id="path156"
         inkscape:connector-curvature="0" /><text
         transform="matrix(1,0,0,-1,43.109375,97.4875)"
         style="font-variant:normal;font-weight:normal;font-size:12px;font-family:'Bitstream Charter';-inkscape-font-specification:BitstreamVeraSans-Roman;writing-mode:lr-tb;fill:#000000;fill-opacity:1;fill-rule:nonzero;stroke:none"
         id="text158"><tspan
           x="0 7.632 11.448 19.08"
           y="0"
           sodipodi:role="line"
           id="tspan160">0.05</tspan></text>
<path
         d="m 72,158.4 4,0"
         style="fill:#000000;fill-opacity:1;fill-rule:nonzero;stroke:#000000;stroke-width:0.5;stroke-linecap:butt;stroke-linejoin:round;stroke-miterlimit:10;stroke-dasharray:none;stroke-opacity:1"
         id="path162"
         inkscape:connector-curvature="0" /><path
         d="m 518.4,158.4 -4,0"
         style="fill:#000000;fill-opacity:1;fill-rule:nonzero;stroke:#000000;stroke-width:0.5;stroke-linecap:butt;stroke-linejoin:round;stroke-miterlimit:10;stroke-dasharray:none;stroke-opacity:1"
         id="path164"
         inkscape:connector-curvature="0" /><text
         transform="matrix(1,0,0,-1,42.859375,155.0875)"
         style="font-variant:normal;font-weight:normal;font-size:12px;font-family:'Bitstream Charter';-inkscape-font-specification:BitstreamVeraSans-Roman;writing-mode:lr-tb;fill:#000000;fill-opacity:1;fill-rule:nonzero;stroke:none"
         id="text166"><tspan
           x="0 7.632 11.448 19.08"
           y="0"
           sodipodi:role="line"
           id="tspan168">0.10</tspan></text>
<path
         d="m 72,216 4,0"
         style="fill:#000000;fill-opacity:1;fill-rule:nonzero;stroke:#000000;stroke-width:0.5;stroke-linecap:butt;stroke-linejoin:round;stroke-miterlimit:10;stroke-dasharray:none;stroke-opacity:1"
         id="path170"
         inkscape:connector-curvature="0" /><path
         d="m 518.4,216 -4,0"
         style="fill:#000000;fill-opacity:1;fill-rule:nonzero;stroke:#000000;stroke-width:0.5;stroke-linecap:butt;stroke-linejoin:round;stroke-miterlimit:10;stroke-dasharray:none;stroke-opacity:1"
         id="path172"
         inkscape:connector-curvature="0" /><text
         transform="matrix(1,0,0,-1,43.109375,212.6875)"
         style="font-variant:normal;font-weight:normal;font-size:12px;font-family:'Bitstream Charter';-inkscape-font-specification:BitstreamVeraSans-Roman;writing-mode:lr-tb;fill:#000000;fill-opacity:1;fill-rule:nonzero;stroke:none"
         id="text174"><tspan
           x="0 7.632 11.448 19.08"
           y="0"
           sodipodi:role="line"
           id="tspan176">0.15</tspan></text>
<path
         d="m 72,273.6 4,0"
         style="fill:#000000;fill-opacity:1;fill-rule:nonzero;stroke:#000000;stroke-width:0.5;stroke-linecap:butt;stroke-linejoin:round;stroke-miterlimit:10;stroke-dasharray:none;stroke-opacity:1"
         id="path178"
         inkscape:connector-curvature="0" /><path
         d="m 518.4,273.6 -4,0"
         style="fill:#000000;fill-opacity:1;fill-rule:nonzero;stroke:#000000;stroke-width:0.5;stroke-linecap:butt;stroke-linejoin:round;stroke-miterlimit:10;stroke-dasharray:none;stroke-opacity:1"
         id="path180"
         inkscape:connector-curvature="0" /><text
         transform="matrix(1,0,0,-1,42.859375,270.2875)"
         style="font-variant:normal;font-weight:normal;font-size:12px;font-family:'Bitstream Charter';-inkscape-font-specification:BitstreamVeraSans-Roman;writing-mode:lr-tb;fill:#000000;fill-opacity:1;fill-rule:nonzero;stroke:none"
         id="text182"><tspan
           x="0 7.632 11.448 19.08"
           y="0"
           sodipodi:role="line"
           id="tspan184">0.20</tspan></text>
<path
         d="m 72,331.2 4,0"
         style="fill:#000000;fill-opacity:1;fill-rule:nonzero;stroke:#000000;stroke-width:0.5;stroke-linecap:butt;stroke-linejoin:round;stroke-miterlimit:10;stroke-dasharray:none;stroke-opacity:1"
         id="path186"
         inkscape:connector-curvature="0" /><path
         d="m 518.4,331.2 -4,0"
         style="fill:#000000;fill-opacity:1;fill-rule:nonzero;stroke:#000000;stroke-width:0.5;stroke-linecap:butt;stroke-linejoin:round;stroke-miterlimit:10;stroke-dasharray:none;stroke-opacity:1"
         id="path188"
         inkscape:connector-curvature="0" /><text
         transform="matrix(1,0,0,-1,43.109375,327.8875)"
         style="font-variant:normal;font-weight:normal;font-size:12px;font-family:'Bitstream Charter';-inkscape-font-specification:BitstreamVeraSans-Roman;writing-mode:lr-tb;fill:#000000;fill-opacity:1;fill-rule:nonzero;stroke:none"
         id="text190"><tspan
           x="0 7.632 11.448 19.08"
           y="0"
           sodipodi:role="line"
           id="tspan192">0.25</tspan></text>
<text
         transform="matrix(1,0,0,-1,42.859375,385.4875)"
         style="font-variant:normal;font-weight:normal;font-size:12px;font-family:'Bitstream Charter';-inkscape-font-specification:BitstreamVeraSans-Roman;writing-mode:lr-tb;fill:#000000;fill-opacity:1;fill-rule:nonzero;stroke:none"
         id="text194"><tspan
           x="0 7.632 11.448 19.08"
           y="0"
           sodipodi:role="line"
           id="tspan196">0.30</tspan></text>
<g
         id="g198"
         transform="matrix(0,1,-1,0,33.859375,202)"><text
           transform="scale(1,-1)"
           style="font-variant:normal;font-weight:normal;font-size:16px;font-family:Cmmi10;-inkscape-font-specification:Cmmi10;writing-mode:lr-tb;fill:#000000;fill-opacity:1;fill-rule:nonzero;stroke:none"
           id="text200"><tspan
             x="0"
             y="0"
             id="tspan202">s</tspan></text>
<text
           transform="matrix(1,0,0,-1,7.484375,0)"
           style="font-variant:normal;font-weight:normal;font-size:16px;font-family:Cmr10;-inkscape-font-specification:Cmr10;writing-mode:lr-tb;fill:#000000;fill-opacity:1;fill-rule:nonzero;stroke:none"
           id="text204"><tspan
             x="0"
             y="0"
             id="tspan206">(</tspan></text>
<text
           transform="matrix(1,0,0,-1,13.695313,0)"
           style="font-variant:normal;font-weight:normal;font-size:16px;font-family:Cmmi10;-inkscape-font-specification:Cmmi10;writing-mode:lr-tb;fill:#000000;fill-opacity:1;fill-rule:nonzero;stroke:none"
           id="text208"><tspan
             x="0"
             y="0"
             id="tspan210">v</tspan></text>
<text
           transform="matrix(1,0,0,-1,21.4375,0)"
           style="font-variant:normal;font-weight:normal;font-size:16px;font-family:Cmr10;-inkscape-font-specification:Cmr10;writing-mode:lr-tb;fill:#000000;fill-opacity:1;fill-rule:nonzero;stroke:none"
           id="text212"><tspan
             x="0"
             y="0"
             id="tspan214">)</tspan></text>
</g><path
         d="m 353.21562,325.825 159.18438,0 0,56.975 -159.18438,0 0,-56.975 z"
         style="fill:#ffffff;fill-opacity:1;fill-rule:nonzero;stroke:#000000;stroke-width:1;stroke-linecap:butt;stroke-linejoin:miter;stroke-miterlimit:10;stroke-dasharray:none;stroke-opacity:1"
         id="path216"
         inkscape:connector-curvature="0" /><path
         d="m 361.61563,373.075 16.79999,0"
         style="fill:none;stroke:#0000ff;stroke-width:1;stroke-linecap:square;stroke-linejoin:round;stroke-miterlimit:10;stroke-dasharray:none;stroke-opacity:1"
         id="path218"
         inkscape:connector-curvature="0" /><text
         transform="matrix(1,0,0,-1,391.61563,368.875)"
         style="font-variant:normal;font-weight:normal;font-size:12px;font-family:'Bitstream Charter';-inkscape-font-specification:BitstreamVeraSans-Roman;writing-mode:lr-tb;fill:#000000;fill-opacity:1;fill-rule:nonzero;stroke:none"
         id="text220"><tspan
           x="0 7.6199999 15 21.6 29.208 32.543999 39.900002 44.832001 48.647999 56.231998 63.852001 71.459999 78.816002 83.519997 86.856003 94.199997"
           y="0"
           sodipodi:role="line"
           id="tspan222">Secular Equation</tspan></text>
<path
         d="m 361.61563,355.45 16.79999,0"
         style="fill:none;stroke:#008000;stroke-width:1;stroke-linecap:butt;stroke-linejoin:round;stroke-miterlimit:10;stroke-dasharray:6, 6;stroke-dashoffset:0;stroke-opacity:1"
         id="path224"
         inkscape:connector-curvature="0" /><g
         id="g226"
         transform="translate(391.61563,351.25)"><text
           transform="scale(1,-1)"
           style="font-variant:normal;font-weight:normal;font-size:12px;font-family:Cmmi10;-inkscape-font-specification:Cmmi10;writing-mode:lr-tb;fill:#000000;fill-opacity:1;fill-rule:nonzero;stroke:none"
           id="text228"><tspan
             x="0"
             y="0"
             id="tspan230">s</tspan></text>
<text
           transform="matrix(1,0,0,-1,5.6132812,0)"
           style="font-variant:normal;font-weight:normal;font-size:12px;font-family:Cmr10;-inkscape-font-specification:Cmr10;writing-mode:lr-tb;fill:#000000;fill-opacity:1;fill-rule:nonzero;stroke:none"
           id="text232"><tspan
             x="0"
             y="0"
             id="tspan234">(</tspan></text>
<text
           transform="matrix(1,0,0,-1,10.271484,0)"
           style="font-variant:normal;font-weight:normal;font-size:12px;font-family:Cmmi10;-inkscape-font-specification:Cmmi10;writing-mode:lr-tb;fill:#000000;fill-opacity:1;fill-rule:nonzero;stroke:none"
           id="text236"><tspan
             x="0"
             y="0"
             id="tspan238">v</tspan></text>
<text
           transform="matrix(1,0,0,-1,16.078125,0)"
           style="font-variant:normal;font-weight:normal;font-size:12px;font-family:Cmr10;-inkscape-font-specification:Cmr10;writing-mode:lr-tb;fill:#000000;fill-opacity:1;fill-rule:nonzero;stroke:none"
           id="text240"><tspan
             x="0 6.7652345"
             y="0"
             sodipodi:role="line"
             id="tspan242">)=</tspan></text>
<text
           transform="matrix(1,0,0,-1,32.919141,0)"
           style="font-variant:normal;font-weight:normal;font-size:12px;font-family:Cmmi10;-inkscape-font-specification:Cmmi10;writing-mode:lr-tb;fill:#000000;fill-opacity:1;fill-rule:nonzero;stroke:none"
           id="text244"><tspan
             x="0"
             y="0"
             id="tspan246">c</tspan></text>
</g><g
         id="g248"><g
           id="g250"
           transform="translate(361.61563,336.275)"><g
             id="g252"><g
               id="g254"
               clip-path="url(#clipPath256)"><path
                 d="m 0,-2.236068 c 0.59301216,0 1.1618159,0.2356063 1.5811388,0.6549292 C 2.0004617,-1.1618159 2.236068,-0.59301216 2.236068,0 c 0,0.59301216 -0.2356063,1.1618159 -0.6549292,1.5811388 C 1.1618159,2.0004617 0.59301216,2.236068 0,2.236068 c -0.59301216,0 -1.1618159,-0.2356063 -1.5811388,-0.6549292 C -2.0004617,1.1618159 -2.236068,0.59301216 -2.236068,0 c 0,-0.59301216 0.2356063,-1.1618159 0.6549292,-1.5811388 C -1.1618159,-2.0004617 -0.59301216,-2.236068 0,-2.236068 Z"
                 style="fill:#0000ff;fill-opacity:1;fill-rule:nonzero;stroke:#000000;stroke-width:1;stroke-linecap:butt;stroke-linejoin:round;stroke-miterlimit:10;stroke-dasharray:none;stroke-opacity:1"
                 id="path260"
                 inkscape:connector-curvature="0" /></g></g><g
             id="g262"
             transform="translate(8.4,1.05)"><g
               id="g264"><g
                 id="g266"
                 clip-path="url(#clipPath268)"><path
                   d="m 0,-2.236068 c 0.59301216,0 1.1618159,0.2356063 1.5811388,0.6549292 C 2.0004617,-1.1618159 2.236068,-0.59301216 2.236068,0 c 0,0.59301216 -0.2356063,1.1618159 -0.6549292,1.5811388 C 1.1618159,2.0004617 0.59301216,2.236068 0,2.236068 c -0.59301216,0 -1.1618159,-0.2356063 -1.5811388,-0.6549292 C -2.0004617,1.1618159 -2.236068,0.59301216 -2.236068,0 c 0,-0.59301216 0.2356063,-1.1618159 0.6549292,-1.5811388 C -1.1618159,-2.0004617 -0.59301216,-2.236068 0,-2.236068 Z"
                   style="fill:#0000ff;fill-opacity:1;fill-rule:nonzero;stroke:#000000;stroke-width:1;stroke-linecap:butt;stroke-linejoin:round;stroke-miterlimit:10;stroke-dasharray:none;stroke-opacity:1"
                   id="path272"
                   inkscape:connector-curvature="0" /></g></g><g
               id="g274"
               transform="translate(8.4,-1.575)"><g
                 id="g276"><g
                   id="g278"
                   clip-path="url(#clipPath280)"><path
                     d="m 0,-2.236068 c 0.59301216,0 1.1618159,0.2356063 1.5811388,0.6549292 C 2.0004617,-1.1618159 2.236068,-0.59301216 2.236068,0 c 0,0.59301216 -0.2356063,1.1618159 -0.6549292,1.5811388 C 1.1618159,2.0004617 0.59301216,2.236068 0,2.236068 c -0.59301216,0 -1.1618159,-0.2356063 -1.5811388,-0.6549292 C -2.0004617,1.1618159 -2.236068,0.59301216 -2.236068,0 c 0,-0.59301216 0.2356063,-1.1618159 0.6549292,-1.5811388 C -1.1618159,-2.0004617 -0.59301216,-2.236068 0,-2.236068 Z"
                     style="fill:#0000ff;fill-opacity:1;fill-rule:nonzero;stroke:#000000;stroke-width:1;stroke-linecap:butt;stroke-linejoin:round;stroke-miterlimit:10;stroke-dasharray:none;stroke-opacity:1"
                     id="path284"
                     inkscape:connector-curvature="0" /></g></g></g></g></g></g><text
         transform="matrix(1,0,0,-1,391.61563,333.125)"
         style="font-variant:normal;font-weight:normal;font-size:12px;font-family:'Bitstream Charter';-inkscape-font-specification:BitstreamVeraSans-Roman;writing-mode:lr-tb;fill:#000000;fill-opacity:1;fill-rule:nonzero;stroke:none"
         id="text286"><tspan
           x="0 6.9000001 14.244 21.851999 29.459999 37.080002 40.896 48.515999 55.619999 59.436001 66.792 70.127998 77.748001 85.092003 90.024002 93.360001 98.064003 105.672"
           y="0"
           sodipodi:role="line"
           id="tspan288">Found by algorithm</tspan></text>
</g></g></svg>