<?xml version="1.0" encoding="utf-8" standalone="no"?>
<!DOCTYPE svg PUBLIC "-//W3C//DTD SVG 1.1//EN"
  "http://www.w3.org/Graphics/SVG/1.1/DTD/svg11.dtd">
<!-- Created with matplotlib (http://matplotlib.org/) -->
<svg height="432pt" version="1.1" viewBox="0 0 720 432" width="720pt" xmlns="http://www.w3.org/2000/svg" xmlns:xlink="http://www.w3.org/1999/xlink">
 <defs>
  <style type="text/css">
*{stroke-linecap:butt;stroke-linejoin:round;}
  </style>
 </defs>
 <g id="figure_1">
  <g id="patch_1">
   <path d="M 0 432 
L 720 432 
L 720 0 
L 0 0 
z
" style="fill:#ffffff;"/>
  </g>
  <g id="axes_1">
   <g id="patch_2">
    <path d="M 45.44 221.06 
L 700.56 221.06 
L 700.56 19.44 
L 45.44 19.44 
z
" style="fill:#ffffff;"/>
   </g>
   <g id="matplotlib.axis_1">
    <g id="xtick_1">
     <g id="line2d_1"/>
     <g id="text_1">
      <!-- nesta_case6515_rte -->
      <defs>
       <path d="M 54.890625 33.015625 
L 54.890625 0 
L 45.90625 0 
L 45.90625 32.71875 
Q 45.90625 40.484375 42.875 44.328125 
Q 39.84375 48.1875 33.796875 48.1875 
Q 26.515625 48.1875 22.3125 43.546875 
Q 18.109375 38.921875 18.109375 30.90625 
L 18.109375 0 
L 9.078125 0 
L 9.078125 54.6875 
L 18.109375 54.6875 
L 18.109375 46.1875 
Q 21.34375 51.125 25.703125 53.5625 
Q 30.078125 56 35.796875 56 
Q 45.21875 56 50.046875 50.171875 
Q 54.890625 44.34375 54.890625 33.015625 
z
" id="DejaVuSans-6e"/>
       <path d="M 56.203125 29.59375 
L 56.203125 25.203125 
L 14.890625 25.203125 
Q 15.484375 15.921875 20.484375 11.0625 
Q 25.484375 6.203125 34.421875 6.203125 
Q 39.59375 6.203125 44.453125 7.46875 
Q 49.3125 8.734375 54.109375 11.28125 
L 54.109375 2.78125 
Q 49.265625 0.734375 44.1875 -0.34375 
Q 39.109375 -1.421875 33.890625 -1.421875 
Q 20.796875 -1.421875 13.15625 6.1875 
Q 5.515625 13.8125 5.515625 26.8125 
Q 5.515625 40.234375 12.765625 48.109375 
Q 20.015625 56 32.328125 56 
Q 43.359375 56 49.78125 48.890625 
Q 56.203125 41.796875 56.203125 29.59375 
z
M 47.21875 32.234375 
Q 47.125 39.59375 43.09375 43.984375 
Q 39.0625 48.390625 32.421875 48.390625 
Q 24.90625 48.390625 20.390625 44.140625 
Q 15.875 39.890625 15.1875 32.171875 
z
" id="DejaVuSans-65"/>
       <path d="M 44.28125 53.078125 
L 44.28125 44.578125 
Q 40.484375 46.53125 36.375 47.5 
Q 32.28125 48.484375 27.875 48.484375 
Q 21.1875 48.484375 17.84375 46.4375 
Q 14.5 44.390625 14.5 40.28125 
Q 14.5 37.15625 16.890625 35.375 
Q 19.28125 33.59375 26.515625 31.984375 
L 29.59375 31.296875 
Q 39.15625 29.25 43.1875 25.515625 
Q 47.21875 21.78125 47.21875 15.09375 
Q 47.21875 7.46875 41.1875 3.015625 
Q 35.15625 -1.421875 24.609375 -1.421875 
Q 20.21875 -1.421875 15.453125 -0.5625 
Q 10.6875 0.296875 5.421875 2 
L 5.421875 11.28125 
Q 10.40625 8.6875 15.234375 7.390625 
Q 20.0625 6.109375 24.8125 6.109375 
Q 31.15625 6.109375 34.5625 8.28125 
Q 37.984375 10.453125 37.984375 14.40625 
Q 37.984375 18.0625 35.515625 20.015625 
Q 33.0625 21.96875 24.703125 23.78125 
L 21.578125 24.515625 
Q 13.234375 26.265625 9.515625 29.90625 
Q 5.8125 33.546875 5.8125 39.890625 
Q 5.8125 47.609375 11.28125 51.796875 
Q 16.75 56 26.8125 56 
Q 31.78125 56 36.171875 55.265625 
Q 40.578125 54.546875 44.28125 53.078125 
z
" id="DejaVuSans-73"/>
       <path d="M 18.3125 70.21875 
L 18.3125 54.6875 
L 36.8125 54.6875 
L 36.8125 47.703125 
L 18.3125 47.703125 
L 18.3125 18.015625 
Q 18.3125 11.328125 20.140625 9.421875 
Q 21.96875 7.515625 27.59375 7.515625 
L 36.8125 7.515625 
L 36.8125 0 
L 27.59375 0 
Q 17.1875 0 13.234375 3.875 
Q 9.28125 7.765625 9.28125 18.015625 
L 9.28125 47.703125 
L 2.6875 47.703125 
L 2.6875 54.6875 
L 9.28125 54.6875 
L 9.28125 70.21875 
z
" id="DejaVuSans-74"/>
       <path d="M 34.28125 27.484375 
Q 23.390625 27.484375 19.1875 25 
Q 14.984375 22.515625 14.984375 16.5 
Q 14.984375 11.71875 18.140625 8.90625 
Q 21.296875 6.109375 26.703125 6.109375 
Q 34.1875 6.109375 38.703125 11.40625 
Q 43.21875 16.703125 43.21875 25.484375 
L 43.21875 27.484375 
z
M 52.203125 31.203125 
L 52.203125 0 
L 43.21875 0 
L 43.21875 8.296875 
Q 40.140625 3.328125 35.546875 0.953125 
Q 30.953125 -1.421875 24.3125 -1.421875 
Q 15.921875 -1.421875 10.953125 3.296875 
Q 6 8.015625 6 15.921875 
Q 6 25.140625 12.171875 29.828125 
Q 18.359375 34.515625 30.609375 34.515625 
L 43.21875 34.515625 
L 43.21875 35.40625 
Q 43.21875 41.609375 39.140625 45 
Q 35.0625 48.390625 27.6875 48.390625 
Q 23 48.390625 18.546875 47.265625 
Q 14.109375 46.140625 10.015625 43.890625 
L 10.015625 52.203125 
Q 14.9375 54.109375 19.578125 55.046875 
Q 24.21875 56 28.609375 56 
Q 40.484375 56 46.34375 49.84375 
Q 52.203125 43.703125 52.203125 31.203125 
z
" id="DejaVuSans-61"/>
       <path d="M 50.984375 -16.609375 
L 50.984375 -23.578125 
L -0.984375 -23.578125 
L -0.984375 -16.609375 
z
" id="DejaVuSans-5f"/>
       <path d="M 48.78125 52.59375 
L 48.78125 44.1875 
Q 44.96875 46.296875 41.140625 47.34375 
Q 37.3125 48.390625 33.40625 48.390625 
Q 24.65625 48.390625 19.8125 42.84375 
Q 14.984375 37.3125 14.984375 27.296875 
Q 14.984375 17.28125 19.8125 11.734375 
Q 24.65625 6.203125 33.40625 6.203125 
Q 37.3125 6.203125 41.140625 7.25 
Q 44.96875 8.296875 48.78125 10.40625 
L 48.78125 2.09375 
Q 45.015625 0.34375 40.984375 -0.53125 
Q 36.96875 -1.421875 32.421875 -1.421875 
Q 20.0625 -1.421875 12.78125 6.34375 
Q 5.515625 14.109375 5.515625 27.296875 
Q 5.515625 40.671875 12.859375 48.328125 
Q 20.21875 56 33.015625 56 
Q 37.15625 56 41.109375 55.140625 
Q 45.0625 54.296875 48.78125 52.59375 
z
" id="DejaVuSans-63"/>
       <path d="M 33.015625 40.375 
Q 26.375 40.375 22.484375 35.828125 
Q 18.609375 31.296875 18.609375 23.390625 
Q 18.609375 15.53125 22.484375 10.953125 
Q 26.375 6.390625 33.015625 6.390625 
Q 39.65625 6.390625 43.53125 10.953125 
Q 47.40625 15.53125 47.40625 23.390625 
Q 47.40625 31.296875 43.53125 35.828125 
Q 39.65625 40.375 33.015625 40.375 
z
M 52.59375 71.296875 
L 52.59375 62.3125 
Q 48.875 64.0625 45.09375 64.984375 
Q 41.3125 65.921875 37.59375 65.921875 
Q 27.828125 65.921875 22.671875 59.328125 
Q 17.53125 52.734375 16.796875 39.40625 
Q 19.671875 43.65625 24.015625 45.921875 
Q 28.375 48.1875 33.59375 48.1875 
Q 44.578125 48.1875 50.953125 41.515625 
Q 57.328125 34.859375 57.328125 23.390625 
Q 57.328125 12.15625 50.6875 5.359375 
Q 44.046875 -1.421875 33.015625 -1.421875 
Q 20.359375 -1.421875 13.671875 8.265625 
Q 6.984375 17.96875 6.984375 36.375 
Q 6.984375 53.65625 15.1875 63.9375 
Q 23.390625 74.21875 37.203125 74.21875 
Q 40.921875 74.21875 44.703125 73.484375 
Q 48.484375 72.75 52.59375 71.296875 
z
" id="DejaVuSans-36"/>
       <path d="M 10.796875 72.90625 
L 49.515625 72.90625 
L 49.515625 64.59375 
L 19.828125 64.59375 
L 19.828125 46.734375 
Q 21.96875 47.46875 24.109375 47.828125 
Q 26.265625 48.1875 28.421875 48.1875 
Q 40.625 48.1875 47.75 41.5 
Q 54.890625 34.8125 54.890625 23.390625 
Q 54.890625 11.625 47.5625 5.09375 
Q 40.234375 -1.421875 26.90625 -1.421875 
Q 22.3125 -1.421875 17.546875 -0.640625 
Q 12.796875 0.140625 7.71875 1.703125 
L 7.71875 11.625 
Q 12.109375 9.234375 16.796875 8.0625 
Q 21.484375 6.890625 26.703125 6.890625 
Q 35.15625 6.890625 40.078125 11.328125 
Q 45.015625 15.765625 45.015625 23.390625 
Q 45.015625 31 40.078125 35.4375 
Q 35.15625 39.890625 26.703125 39.890625 
Q 22.75 39.890625 18.8125 39.015625 
Q 14.890625 38.140625 10.796875 36.28125 
z
" id="DejaVuSans-35"/>
       <path d="M 12.40625 8.296875 
L 28.515625 8.296875 
L 28.515625 63.921875 
L 10.984375 60.40625 
L 10.984375 69.390625 
L 28.421875 72.90625 
L 38.28125 72.90625 
L 38.28125 8.296875 
L 54.390625 8.296875 
L 54.390625 0 
L 12.40625 0 
z
" id="DejaVuSans-31"/>
       <path d="M 41.109375 46.296875 
Q 39.59375 47.171875 37.8125 47.578125 
Q 36.03125 48 33.890625 48 
Q 26.265625 48 22.1875 43.046875 
Q 18.109375 38.09375 18.109375 28.8125 
L 18.109375 0 
L 9.078125 0 
L 9.078125 54.6875 
L 18.109375 54.6875 
L 18.109375 46.1875 
Q 20.953125 51.171875 25.484375 53.578125 
Q 30.03125 56 36.53125 56 
Q 37.453125 56 38.578125 55.875 
Q 39.703125 55.765625 41.0625 55.515625 
z
" id="DejaVuSans-72"/>
      </defs>
      <g style="fill:#262626;" transform="translate(81.994047 378.617813)rotate(-90)scale(0.15 -0.15)">
       <use xlink:href="#DejaVuSans-6e"/>
       <use x="63.378906" xlink:href="#DejaVuSans-65"/>
       <use x="124.902344" xlink:href="#DejaVuSans-73"/>
       <use x="177.001953" xlink:href="#DejaVuSans-74"/>
       <use x="216.210938" xlink:href="#DejaVuSans-61"/>
       <use x="277.490234" xlink:href="#DejaVuSans-5f"/>
       <use x="327.490234" xlink:href="#DejaVuSans-63"/>
       <use x="382.470703" xlink:href="#DejaVuSans-61"/>
       <use x="443.75" xlink:href="#DejaVuSans-73"/>
       <use x="495.849609" xlink:href="#DejaVuSans-65"/>
       <use x="557.373047" xlink:href="#DejaVuSans-36"/>
       <use x="620.996094" xlink:href="#DejaVuSans-35"/>
       <use x="684.619141" xlink:href="#DejaVuSans-31"/>
       <use x="748.242188" xlink:href="#DejaVuSans-35"/>
       <use x="811.865234" xlink:href="#DejaVuSans-5f"/>
       <use x="861.865234" xlink:href="#DejaVuSans-72"/>
       <use x="902.978516" xlink:href="#DejaVuSans-74"/>
       <use x="942.1875" xlink:href="#DejaVuSans-65"/>
      </g>
     </g>
    </g>
    <g id="xtick_2">
     <g id="line2d_2"/>
     <g id="text_2">
      <!-- nesta_case3120sp_mp -->
      <defs>
       <path d="M 40.578125 39.3125 
Q 47.65625 37.796875 51.625 33 
Q 55.609375 28.21875 55.609375 21.1875 
Q 55.609375 10.40625 48.1875 4.484375 
Q 40.765625 -1.421875 27.09375 -1.421875 
Q 22.515625 -1.421875 17.65625 -0.515625 
Q 12.796875 0.390625 7.625 2.203125 
L 7.625 11.71875 
Q 11.71875 9.328125 16.59375 8.109375 
Q 21.484375 6.890625 26.8125 6.890625 
Q 36.078125 6.890625 40.9375 10.546875 
Q 45.796875 14.203125 45.796875 21.1875 
Q 45.796875 27.640625 41.28125 31.265625 
Q 36.765625 34.90625 28.71875 34.90625 
L 20.21875 34.90625 
L 20.21875 43.015625 
L 29.109375 43.015625 
Q 36.375 43.015625 40.234375 45.921875 
Q 44.09375 48.828125 44.09375 54.296875 
Q 44.09375 59.90625 40.109375 62.90625 
Q 36.140625 65.921875 28.71875 65.921875 
Q 24.65625 65.921875 20.015625 65.03125 
Q 15.375 64.15625 9.8125 62.3125 
L 9.8125 71.09375 
Q 15.4375 72.65625 20.34375 73.4375 
Q 25.25 74.21875 29.59375 74.21875 
Q 40.828125 74.21875 47.359375 69.109375 
Q 53.90625 64.015625 53.90625 55.328125 
Q 53.90625 49.265625 50.4375 45.09375 
Q 46.96875 40.921875 40.578125 39.3125 
z
" id="DejaVuSans-33"/>
       <path d="M 19.1875 8.296875 
L 53.609375 8.296875 
L 53.609375 0 
L 7.328125 0 
L 7.328125 8.296875 
Q 12.9375 14.109375 22.625 23.890625 
Q 32.328125 33.6875 34.8125 36.53125 
Q 39.546875 41.84375 41.421875 45.53125 
Q 43.3125 49.21875 43.3125 52.78125 
Q 43.3125 58.59375 39.234375 62.25 
Q 35.15625 65.921875 28.609375 65.921875 
Q 23.96875 65.921875 18.8125 64.3125 
Q 13.671875 62.703125 7.8125 59.421875 
L 7.8125 69.390625 
Q 13.765625 71.78125 18.9375 73 
Q 24.125 74.21875 28.421875 74.21875 
Q 39.75 74.21875 46.484375 68.546875 
Q 53.21875 62.890625 53.21875 53.421875 
Q 53.21875 48.921875 51.53125 44.890625 
Q 49.859375 40.875 45.40625 35.40625 
Q 44.1875 33.984375 37.640625 27.21875 
Q 31.109375 20.453125 19.1875 8.296875 
z
" id="DejaVuSans-32"/>
       <path d="M 31.78125 66.40625 
Q 24.171875 66.40625 20.328125 58.90625 
Q 16.5 51.421875 16.5 36.375 
Q 16.5 21.390625 20.328125 13.890625 
Q 24.171875 6.390625 31.78125 6.390625 
Q 39.453125 6.390625 43.28125 13.890625 
Q 47.125 21.390625 47.125 36.375 
Q 47.125 51.421875 43.28125 58.90625 
Q 39.453125 66.40625 31.78125 66.40625 
z
M 31.78125 74.21875 
Q 44.046875 74.21875 50.515625 64.515625 
Q 56.984375 54.828125 56.984375 36.375 
Q 56.984375 17.96875 50.515625 8.265625 
Q 44.046875 -1.421875 31.78125 -1.421875 
Q 19.53125 -1.421875 13.0625 8.265625 
Q 6.59375 17.96875 6.59375 36.375 
Q 6.59375 54.828125 13.0625 64.515625 
Q 19.53125 74.21875 31.78125 74.21875 
z
" id="DejaVuSans-30"/>
       <path d="M 18.109375 8.203125 
L 18.109375 -20.796875 
L 9.078125 -20.796875 
L 9.078125 54.6875 
L 18.109375 54.6875 
L 18.109375 46.390625 
Q 20.953125 51.265625 25.265625 53.625 
Q 29.59375 56 35.59375 56 
Q 45.5625 56 51.78125 48.09375 
Q 58.015625 40.1875 58.015625 27.296875 
Q 58.015625 14.40625 51.78125 6.484375 
Q 45.5625 -1.421875 35.59375 -1.421875 
Q 29.59375 -1.421875 25.265625 0.953125 
Q 20.953125 3.328125 18.109375 8.203125 
z
M 48.6875 27.296875 
Q 48.6875 37.203125 44.609375 42.84375 
Q 40.53125 48.484375 33.40625 48.484375 
Q 26.265625 48.484375 22.1875 42.84375 
Q 18.109375 37.203125 18.109375 27.296875 
Q 18.109375 17.390625 22.1875 11.75 
Q 26.265625 6.109375 33.40625 6.109375 
Q 40.53125 6.109375 44.609375 11.75 
Q 48.6875 17.390625 48.6875 27.296875 
z
" id="DejaVuSans-70"/>
       <path d="M 52 44.1875 
Q 55.375 50.25 60.0625 53.125 
Q 64.75 56 71.09375 56 
Q 79.640625 56 84.28125 50.015625 
Q 88.921875 44.046875 88.921875 33.015625 
L 88.921875 0 
L 79.890625 0 
L 79.890625 32.71875 
Q 79.890625 40.578125 77.09375 44.375 
Q 74.3125 48.1875 68.609375 48.1875 
Q 61.625 48.1875 57.5625 43.546875 
Q 53.515625 38.921875 53.515625 30.90625 
L 53.515625 0 
L 44.484375 0 
L 44.484375 32.71875 
Q 44.484375 40.625 41.703125 44.40625 
Q 38.921875 48.1875 33.109375 48.1875 
Q 26.21875 48.1875 22.15625 43.53125 
Q 18.109375 38.875 18.109375 30.90625 
L 18.109375 0 
L 9.078125 0 
L 9.078125 54.6875 
L 18.109375 54.6875 
L 18.109375 46.1875 
Q 21.1875 51.21875 25.484375 53.609375 
Q 29.78125 56 35.6875 56 
Q 41.65625 56 45.828125 52.96875 
Q 50 49.953125 52 44.1875 
z
" id="DejaVuSans-6d"/>
      </defs>
      <g style="fill:#262626;" transform="translate(147.506047 398.811563)rotate(-90)scale(0.15 -0.15)">
       <use xlink:href="#DejaVuSans-6e"/>
       <use x="63.378906" xlink:href="#DejaVuSans-65"/>
       <use x="124.902344" xlink:href="#DejaVuSans-73"/>
       <use x="177.001953" xlink:href="#DejaVuSans-74"/>
       <use x="216.210938" xlink:href="#DejaVuSans-61"/>
       <use x="277.490234" xlink:href="#DejaVuSans-5f"/>
       <use x="327.490234" xlink:href="#DejaVuSans-63"/>
       <use x="382.470703" xlink:href="#DejaVuSans-61"/>
       <use x="443.75" xlink:href="#DejaVuSans-73"/>
       <use x="495.849609" xlink:href="#DejaVuSans-65"/>
       <use x="557.373047" xlink:href="#DejaVuSans-33"/>
       <use x="620.996094" xlink:href="#DejaVuSans-31"/>
       <use x="684.619141" xlink:href="#DejaVuSans-32"/>
       <use x="748.242188" xlink:href="#DejaVuSans-30"/>
       <use x="811.865234" xlink:href="#DejaVuSans-73"/>
       <use x="863.964844" xlink:href="#DejaVuSans-70"/>
       <use x="927.441406" xlink:href="#DejaVuSans-5f"/>
       <use x="977.441406" xlink:href="#DejaVuSans-6d"/>
       <use x="1074.853516" xlink:href="#DejaVuSans-70"/>
      </g>
     </g>
    </g>
    <g id="xtick_3">
     <g id="line2d_3"/>
     <g id="text_3">
      <!-- nesta_case2869_pegase -->
      <defs>
       <path d="M 31.78125 34.625 
Q 24.75 34.625 20.71875 30.859375 
Q 16.703125 27.09375 16.703125 20.515625 
Q 16.703125 13.921875 20.71875 10.15625 
Q 24.75 6.390625 31.78125 6.390625 
Q 38.8125 6.390625 42.859375 10.171875 
Q 46.921875 13.96875 46.921875 20.515625 
Q 46.921875 27.09375 42.890625 30.859375 
Q 38.875 34.625 31.78125 34.625 
z
M 21.921875 38.8125 
Q 15.578125 40.375 12.03125 44.71875 
Q 8.5 49.078125 8.5 55.328125 
Q 8.5 64.0625 14.71875 69.140625 
Q 20.953125 74.21875 31.78125 74.21875 
Q 42.671875 74.21875 48.875 69.140625 
Q 55.078125 64.0625 55.078125 55.328125 
Q 55.078125 49.078125 51.53125 44.71875 
Q 48 40.375 41.703125 38.8125 
Q 48.828125 37.15625 52.796875 32.3125 
Q 56.78125 27.484375 56.78125 20.515625 
Q 56.78125 9.90625 50.3125 4.234375 
Q 43.84375 -1.421875 31.78125 -1.421875 
Q 19.734375 -1.421875 13.25 4.234375 
Q 6.78125 9.90625 6.78125 20.515625 
Q 6.78125 27.484375 10.78125 32.3125 
Q 14.796875 37.15625 21.921875 38.8125 
z
M 18.3125 54.390625 
Q 18.3125 48.734375 21.84375 45.5625 
Q 25.390625 42.390625 31.78125 42.390625 
Q 38.140625 42.390625 41.71875 45.5625 
Q 45.3125 48.734375 45.3125 54.390625 
Q 45.3125 60.0625 41.71875 63.234375 
Q 38.140625 66.40625 31.78125 66.40625 
Q 25.390625 66.40625 21.84375 63.234375 
Q 18.3125 60.0625 18.3125 54.390625 
z
" id="DejaVuSans-38"/>
       <path d="M 10.984375 1.515625 
L 10.984375 10.5 
Q 14.703125 8.734375 18.5 7.8125 
Q 22.3125 6.890625 25.984375 6.890625 
Q 35.75 6.890625 40.890625 13.453125 
Q 46.046875 20.015625 46.78125 33.40625 
Q 43.953125 29.203125 39.59375 26.953125 
Q 35.25 24.703125 29.984375 24.703125 
Q 19.046875 24.703125 12.671875 31.3125 
Q 6.296875 37.9375 6.296875 49.421875 
Q 6.296875 60.640625 12.9375 67.421875 
Q 19.578125 74.21875 30.609375 74.21875 
Q 43.265625 74.21875 49.921875 64.515625 
Q 56.59375 54.828125 56.59375 36.375 
Q 56.59375 19.140625 48.40625 8.859375 
Q 40.234375 -1.421875 26.421875 -1.421875 
Q 22.703125 -1.421875 18.890625 -0.6875 
Q 15.09375 0.046875 10.984375 1.515625 
z
M 30.609375 32.421875 
Q 37.25 32.421875 41.125 36.953125 
Q 45.015625 41.5 45.015625 49.421875 
Q 45.015625 57.28125 41.125 61.84375 
Q 37.25 66.40625 30.609375 66.40625 
Q 23.96875 66.40625 20.09375 61.84375 
Q 16.21875 57.28125 16.21875 49.421875 
Q 16.21875 41.5 20.09375 36.953125 
Q 23.96875 32.421875 30.609375 32.421875 
z
" id="DejaVuSans-39"/>
       <path d="M 45.40625 27.984375 
Q 45.40625 37.75 41.375 43.109375 
Q 37.359375 48.484375 30.078125 48.484375 
Q 22.859375 48.484375 18.828125 43.109375 
Q 14.796875 37.75 14.796875 27.984375 
Q 14.796875 18.265625 18.828125 12.890625 
Q 22.859375 7.515625 30.078125 7.515625 
Q 37.359375 7.515625 41.375 12.890625 
Q 45.40625 18.265625 45.40625 27.984375 
z
M 54.390625 6.78125 
Q 54.390625 -7.171875 48.1875 -13.984375 
Q 42 -20.796875 29.203125 -20.796875 
Q 24.46875 -20.796875 20.265625 -20.09375 
Q 16.0625 -19.390625 12.109375 -17.921875 
L 12.109375 -9.1875 
Q 16.0625 -11.328125 19.921875 -12.34375 
Q 23.78125 -13.375 27.78125 -13.375 
Q 36.625 -13.375 41.015625 -8.765625 
Q 45.40625 -4.15625 45.40625 5.171875 
L 45.40625 9.625 
Q 42.625 4.78125 38.28125 2.390625 
Q 33.9375 0 27.875 0 
Q 17.828125 0 11.671875 7.65625 
Q 5.515625 15.328125 5.515625 27.984375 
Q 5.515625 40.671875 11.671875 48.328125 
Q 17.828125 56 27.875 56 
Q 33.9375 56 38.28125 53.609375 
Q 42.625 51.21875 45.40625 46.390625 
L 45.40625 54.6875 
L 54.390625 54.6875 
z
" id="DejaVuSans-67"/>
      </defs>
      <g style="fill:#262626;" transform="translate(213.018047 411.852188)rotate(-90)scale(0.15 -0.15)">
       <use xlink:href="#DejaVuSans-6e"/>
       <use x="63.378906" xlink:href="#DejaVuSans-65"/>
       <use x="124.902344" xlink:href="#DejaVuSans-73"/>
       <use x="177.001953" xlink:href="#DejaVuSans-74"/>
       <use x="216.210938" xlink:href="#DejaVuSans-61"/>
       <use x="277.490234" xlink:href="#DejaVuSans-5f"/>
       <use x="327.490234" xlink:href="#DejaVuSans-63"/>
       <use x="382.470703" xlink:href="#DejaVuSans-61"/>
       <use x="443.75" xlink:href="#DejaVuSans-73"/>
       <use x="495.849609" xlink:href="#DejaVuSans-65"/>
       <use x="557.373047" xlink:href="#DejaVuSans-32"/>
       <use x="620.996094" xlink:href="#DejaVuSans-38"/>
       <use x="684.619141" xlink:href="#DejaVuSans-36"/>
       <use x="748.242188" xlink:href="#DejaVuSans-39"/>
       <use x="811.865234" xlink:href="#DejaVuSans-5f"/>
       <use x="861.865234" xlink:href="#DejaVuSans-70"/>
       <use x="925.341797" xlink:href="#DejaVuSans-65"/>
       <use x="986.865234" xlink:href="#DejaVuSans-67"/>
       <use x="1050.341797" xlink:href="#DejaVuSans-61"/>
       <use x="1111.621094" xlink:href="#DejaVuSans-73"/>
       <use x="1163.720703" xlink:href="#DejaVuSans-65"/>
      </g>
     </g>
    </g>
    <g id="xtick_4">
     <g id="line2d_4"/>
     <g id="text_4">
      <!-- nesta_case2868_rte -->
      <g style="fill:#262626;" transform="translate(278.530047 378.617813)rotate(-90)scale(0.15 -0.15)">
       <use xlink:href="#DejaVuSans-6e"/>
       <use x="63.378906" xlink:href="#DejaVuSans-65"/>
       <use x="124.902344" xlink:href="#DejaVuSans-73"/>
       <use x="177.001953" xlink:href="#DejaVuSans-74"/>
       <use x="216.210938" xlink:href="#DejaVuSans-61"/>
       <use x="277.490234" xlink:href="#DejaVuSans-5f"/>
       <use x="327.490234" xlink:href="#DejaVuSans-63"/>
       <use x="382.470703" xlink:href="#DejaVuSans-61"/>
       <use x="443.75" xlink:href="#DejaVuSans-73"/>
       <use x="495.849609" xlink:href="#DejaVuSans-65"/>
       <use x="557.373047" xlink:href="#DejaVuSans-32"/>
       <use x="620.996094" xlink:href="#DejaVuSans-38"/>
       <use x="684.619141" xlink:href="#DejaVuSans-36"/>
       <use x="748.242188" xlink:href="#DejaVuSans-38"/>
       <use x="811.865234" xlink:href="#DejaVuSans-5f"/>
       <use x="861.865234" xlink:href="#DejaVuSans-72"/>
       <use x="902.978516" xlink:href="#DejaVuSans-74"/>
       <use x="942.1875" xlink:href="#DejaVuSans-65"/>
      </g>
     </g>
    </g>
    <g id="xtick_5">
     <g id="line2d_5"/>
     <g id="text_5">
      <!-- nesta_case2736sp_mp -->
      <defs>
       <path d="M 8.203125 72.90625 
L 55.078125 72.90625 
L 55.078125 68.703125 
L 28.609375 0 
L 18.3125 0 
L 43.21875 64.59375 
L 8.203125 64.59375 
z
" id="DejaVuSans-37"/>
      </defs>
      <g style="fill:#262626;" transform="translate(344.042047 398.811563)rotate(-90)scale(0.15 -0.15)">
       <use xlink:href="#DejaVuSans-6e"/>
       <use x="63.378906" xlink:href="#DejaVuSans-65"/>
       <use x="124.902344" xlink:href="#DejaVuSans-73"/>
       <use x="177.001953" xlink:href="#DejaVuSans-74"/>
       <use x="216.210938" xlink:href="#DejaVuSans-61"/>
       <use x="277.490234" xlink:href="#DejaVuSans-5f"/>
       <use x="327.490234" xlink:href="#DejaVuSans-63"/>
       <use x="382.470703" xlink:href="#DejaVuSans-61"/>
       <use x="443.75" xlink:href="#DejaVuSans-73"/>
       <use x="495.849609" xlink:href="#DejaVuSans-65"/>
       <use x="557.373047" xlink:href="#DejaVuSans-32"/>
       <use x="620.996094" xlink:href="#DejaVuSans-37"/>
       <use x="684.619141" xlink:href="#DejaVuSans-33"/>
       <use x="748.242188" xlink:href="#DejaVuSans-36"/>
       <use x="811.865234" xlink:href="#DejaVuSans-73"/>
       <use x="863.964844" xlink:href="#DejaVuSans-70"/>
       <use x="927.441406" xlink:href="#DejaVuSans-5f"/>
       <use x="977.441406" xlink:href="#DejaVuSans-6d"/>
       <use x="1074.853516" xlink:href="#DejaVuSans-70"/>
      </g>
     </g>
    </g>
    <g id="xtick_6">
     <g id="line2d_6"/>
     <g id="text_6">
      <!-- nesta_case2383wp_mp -->
      <defs>
       <path d="M 4.203125 54.6875 
L 13.1875 54.6875 
L 24.421875 12.015625 
L 35.59375 54.6875 
L 46.1875 54.6875 
L 57.421875 12.015625 
L 68.609375 54.6875 
L 77.59375 54.6875 
L 63.28125 0 
L 52.6875 0 
L 40.921875 44.828125 
L 29.109375 0 
L 18.5 0 
z
" id="DejaVuSans-77"/>
      </defs>
      <g style="fill:#262626;" transform="translate(409.554047 403.264688)rotate(-90)scale(0.15 -0.15)">
       <use xlink:href="#DejaVuSans-6e"/>
       <use x="63.378906" xlink:href="#DejaVuSans-65"/>
       <use x="124.902344" xlink:href="#DejaVuSans-73"/>
       <use x="177.001953" xlink:href="#DejaVuSans-74"/>
       <use x="216.210938" xlink:href="#DejaVuSans-61"/>
       <use x="277.490234" xlink:href="#DejaVuSans-5f"/>
       <use x="327.490234" xlink:href="#DejaVuSans-63"/>
       <use x="382.470703" xlink:href="#DejaVuSans-61"/>
       <use x="443.75" xlink:href="#DejaVuSans-73"/>
       <use x="495.849609" xlink:href="#DejaVuSans-65"/>
       <use x="557.373047" xlink:href="#DejaVuSans-32"/>
       <use x="620.996094" xlink:href="#DejaVuSans-33"/>
       <use x="684.619141" xlink:href="#DejaVuSans-38"/>
       <use x="748.242188" xlink:href="#DejaVuSans-33"/>
       <use x="811.865234" xlink:href="#DejaVuSans-77"/>
       <use x="893.652344" xlink:href="#DejaVuSans-70"/>
       <use x="957.128906" xlink:href="#DejaVuSans-5f"/>
       <use x="1007.128906" xlink:href="#DejaVuSans-6d"/>
       <use x="1104.541016" xlink:href="#DejaVuSans-70"/>
      </g>
     </g>
    </g>
    <g id="xtick_7">
     <g id="line2d_7"/>
     <g id="text_7">
      <!-- nesta_case2224_edin -->
      <defs>
       <path d="M 37.796875 64.3125 
L 12.890625 25.390625 
L 37.796875 25.390625 
z
M 35.203125 72.90625 
L 47.609375 72.90625 
L 47.609375 25.390625 
L 58.015625 25.390625 
L 58.015625 17.1875 
L 47.609375 17.1875 
L 47.609375 0 
L 37.796875 0 
L 37.796875 17.1875 
L 4.890625 17.1875 
L 4.890625 26.703125 
z
" id="DejaVuSans-34"/>
       <path d="M 45.40625 46.390625 
L 45.40625 75.984375 
L 54.390625 75.984375 
L 54.390625 0 
L 45.40625 0 
L 45.40625 8.203125 
Q 42.578125 3.328125 38.25 0.953125 
Q 33.9375 -1.421875 27.875 -1.421875 
Q 17.96875 -1.421875 11.734375 6.484375 
Q 5.515625 14.40625 5.515625 27.296875 
Q 5.515625 40.1875 11.734375 48.09375 
Q 17.96875 56 27.875 56 
Q 33.9375 56 38.25 53.625 
Q 42.578125 51.265625 45.40625 46.390625 
z
M 14.796875 27.296875 
Q 14.796875 17.390625 18.875 11.75 
Q 22.953125 6.109375 30.078125 6.109375 
Q 37.203125 6.109375 41.296875 11.75 
Q 45.40625 17.390625 45.40625 27.296875 
Q 45.40625 37.203125 41.296875 42.84375 
Q 37.203125 48.484375 30.078125 48.484375 
Q 22.953125 48.484375 18.875 42.84375 
Q 14.796875 37.203125 14.796875 27.296875 
z
" id="DejaVuSans-64"/>
       <path d="M 9.421875 54.6875 
L 18.40625 54.6875 
L 18.40625 0 
L 9.421875 0 
z
M 9.421875 75.984375 
L 18.40625 75.984375 
L 18.40625 64.59375 
L 9.421875 64.59375 
z
" id="DejaVuSans-69"/>
      </defs>
      <g style="fill:#262626;" transform="translate(475.198469 389.767031)rotate(-90)scale(0.15 -0.15)">
       <use xlink:href="#DejaVuSans-6e"/>
       <use x="63.378906" xlink:href="#DejaVuSans-65"/>
       <use x="124.902344" xlink:href="#DejaVuSans-73"/>
       <use x="177.001953" xlink:href="#DejaVuSans-74"/>
       <use x="216.210938" xlink:href="#DejaVuSans-61"/>
       <use x="277.490234" xlink:href="#DejaVuSans-5f"/>
       <use x="327.490234" xlink:href="#DejaVuSans-63"/>
       <use x="382.470703" xlink:href="#DejaVuSans-61"/>
       <use x="443.75" xlink:href="#DejaVuSans-73"/>
       <use x="495.849609" xlink:href="#DejaVuSans-65"/>
       <use x="557.373047" xlink:href="#DejaVuSans-32"/>
       <use x="620.996094" xlink:href="#DejaVuSans-32"/>
       <use x="684.619141" xlink:href="#DejaVuSans-32"/>
       <use x="748.242188" xlink:href="#DejaVuSans-34"/>
       <use x="811.865234" xlink:href="#DejaVuSans-5f"/>
       <use x="861.865234" xlink:href="#DejaVuSans-65"/>
       <use x="923.388672" xlink:href="#DejaVuSans-64"/>
       <use x="986.865234" xlink:href="#DejaVuSans-69"/>
       <use x="1014.648438" xlink:href="#DejaVuSans-6e"/>
      </g>
     </g>
    </g>
    <g id="xtick_8">
     <g id="line2d_8"/>
     <g id="text_8">
      <!-- nesta_case1951_rte -->
      <g style="fill:#262626;" transform="translate(540.578047 378.617813)rotate(-90)scale(0.15 -0.15)">
       <use xlink:href="#DejaVuSans-6e"/>
       <use x="63.378906" xlink:href="#DejaVuSans-65"/>
       <use x="124.902344" xlink:href="#DejaVuSans-73"/>
       <use x="177.001953" xlink:href="#DejaVuSans-74"/>
       <use x="216.210938" xlink:href="#DejaVuSans-61"/>
       <use x="277.490234" xlink:href="#DejaVuSans-5f"/>
       <use x="327.490234" xlink:href="#DejaVuSans-63"/>
       <use x="382.470703" xlink:href="#DejaVuSans-61"/>
       <use x="443.75" xlink:href="#DejaVuSans-73"/>
       <use x="495.849609" xlink:href="#DejaVuSans-65"/>
       <use x="557.373047" xlink:href="#DejaVuSans-31"/>
       <use x="620.996094" xlink:href="#DejaVuSans-39"/>
       <use x="684.619141" xlink:href="#DejaVuSans-35"/>
       <use x="748.242188" xlink:href="#DejaVuSans-31"/>
       <use x="811.865234" xlink:href="#DejaVuSans-5f"/>
       <use x="861.865234" xlink:href="#DejaVuSans-72"/>
       <use x="902.978516" xlink:href="#DejaVuSans-74"/>
       <use x="942.1875" xlink:href="#DejaVuSans-65"/>
      </g>
     </g>
    </g>
    <g id="xtick_9">
     <g id="line2d_9"/>
     <g id="text_9">
      <!-- nesta_case1397sp_eir -->
      <g style="fill:#262626;" transform="translate(606.222469 394.24125)rotate(-90)scale(0.15 -0.15)">
       <use xlink:href="#DejaVuSans-6e"/>
       <use x="63.378906" xlink:href="#DejaVuSans-65"/>
       <use x="124.902344" xlink:href="#DejaVuSans-73"/>
       <use x="177.001953" xlink:href="#DejaVuSans-74"/>
       <use x="216.210938" xlink:href="#DejaVuSans-61"/>
       <use x="277.490234" xlink:href="#DejaVuSans-5f"/>
       <use x="327.490234" xlink:href="#DejaVuSans-63"/>
       <use x="382.470703" xlink:href="#DejaVuSans-61"/>
       <use x="443.75" xlink:href="#DejaVuSans-73"/>
       <use x="495.849609" xlink:href="#DejaVuSans-65"/>
       <use x="557.373047" xlink:href="#DejaVuSans-31"/>
       <use x="620.996094" xlink:href="#DejaVuSans-33"/>
       <use x="684.619141" xlink:href="#DejaVuSans-39"/>
       <use x="748.242188" xlink:href="#DejaVuSans-37"/>
       <use x="811.865234" xlink:href="#DejaVuSans-73"/>
       <use x="863.964844" xlink:href="#DejaVuSans-70"/>
       <use x="927.441406" xlink:href="#DejaVuSans-5f"/>
       <use x="977.441406" xlink:href="#DejaVuSans-65"/>
       <use x="1038.964844" xlink:href="#DejaVuSans-69"/>
       <use x="1066.748047" xlink:href="#DejaVuSans-72"/>
      </g>
     </g>
    </g>
    <g id="xtick_10">
     <g id="line2d_10"/>
     <g id="text_10">
      <!-- nesta_case1354_pegase -->
      <g style="fill:#262626;" transform="translate(671.602047 411.852188)rotate(-90)scale(0.15 -0.15)">
       <use xlink:href="#DejaVuSans-6e"/>
       <use x="63.378906" xlink:href="#DejaVuSans-65"/>
       <use x="124.902344" xlink:href="#DejaVuSans-73"/>
       <use x="177.001953" xlink:href="#DejaVuSans-74"/>
       <use x="216.210938" xlink:href="#DejaVuSans-61"/>
       <use x="277.490234" xlink:href="#DejaVuSans-5f"/>
       <use x="327.490234" xlink:href="#DejaVuSans-63"/>
       <use x="382.470703" xlink:href="#DejaVuSans-61"/>
       <use x="443.75" xlink:href="#DejaVuSans-73"/>
       <use x="495.849609" xlink:href="#DejaVuSans-65"/>
       <use x="557.373047" xlink:href="#DejaVuSans-31"/>
       <use x="620.996094" xlink:href="#DejaVuSans-33"/>
       <use x="684.619141" xlink:href="#DejaVuSans-35"/>
       <use x="748.242188" xlink:href="#DejaVuSans-34"/>
       <use x="811.865234" xlink:href="#DejaVuSans-5f"/>
       <use x="861.865234" xlink:href="#DejaVuSans-70"/>
       <use x="925.341797" xlink:href="#DejaVuSans-65"/>
       <use x="986.865234" xlink:href="#DejaVuSans-67"/>
       <use x="1050.341797" xlink:href="#DejaVuSans-61"/>
       <use x="1111.621094" xlink:href="#DejaVuSans-73"/>
       <use x="1163.720703" xlink:href="#DejaVuSans-65"/>
      </g>
     </g>
    </g>
   </g>
   <g id="matplotlib.axis_2">
    <g id="ytick_1">
     <g id="line2d_11">
      <path clip-path="url(#pd944f9d31e)" d="M 45.44 221.06 
L 700.56 221.06 
" style="fill:none;stroke:#cccccc;stroke-linecap:round;"/>
     </g>
     <g id="line2d_12"/>
     <g id="text_11">
      <!-- 0 -->
      <g style="fill:#262626;" transform="translate(28.89625 226.758828)scale(0.15 -0.15)">
       <use xlink:href="#DejaVuSans-30"/>
      </g>
     </g>
    </g>
    <g id="ytick_2">
     <g id="line2d_13">
      <path clip-path="url(#pd944f9d31e)" d="M 45.44 165.054444 
L 700.56 165.054444 
" style="fill:none;stroke:#cccccc;stroke-linecap:round;"/>
     </g>
     <g id="line2d_14"/>
     <g id="text_12">
      <!-- 5 -->
      <g style="fill:#262626;" transform="translate(28.89625 170.753273)scale(0.15 -0.15)">
       <use xlink:href="#DejaVuSans-35"/>
      </g>
     </g>
    </g>
    <g id="ytick_3">
     <g id="line2d_15">
      <path clip-path="url(#pd944f9d31e)" d="M 45.44 109.048889 
L 700.56 109.048889 
" style="fill:none;stroke:#cccccc;stroke-linecap:round;"/>
     </g>
     <g id="line2d_16"/>
     <g id="text_13">
      <!-- 10 -->
      <g style="fill:#262626;" transform="translate(19.3525 114.747717)scale(0.15 -0.15)">
       <use xlink:href="#DejaVuSans-31"/>
       <use x="63.623047" xlink:href="#DejaVuSans-30"/>
      </g>
     </g>
    </g>
    <g id="ytick_4">
     <g id="line2d_17">
      <path clip-path="url(#pd944f9d31e)" d="M 45.44 53.043333 
L 700.56 53.043333 
" style="fill:none;stroke:#cccccc;stroke-linecap:round;"/>
     </g>
     <g id="line2d_18"/>
     <g id="text_14">
      <!-- 15 -->
      <g style="fill:#262626;" transform="translate(19.3525 58.742161)scale(0.15 -0.15)">
       <use xlink:href="#DejaVuSans-31"/>
       <use x="63.623047" xlink:href="#DejaVuSans-35"/>
      </g>
     </g>
    </g>
   </g>
   <g id="PolyCollection_1"/>
   <g id="PolyCollection_2"/>
   <g id="PolyCollection_3"/>
   <g id="PolyCollection_4"/>
   <g id="PolyCollection_5"/>
   <g id="PolyCollection_6"/>
   <g id="PolyCollection_7"/>
   <g id="PolyCollection_8"/>
   <g id="PolyCollection_9"/>
   <g id="PolyCollection_10"/>
   <g id="patch_3">
    <path clip-path="url(#pd944f9d31e)" d="M 78.196 214.339333 
L 104.242057 214.339333 
L 104.242057 205.378444 
L 78.196 205.378444 
z
" style="fill:#20b2aa;"/>
   </g>
   <g id="patch_4">
    <path clip-path="url(#pd944f9d31e)" d="M 78.196 203.138222 
L 104.4008 203.138222 
L 104.4008 194.177333 
L 78.196 194.177333 
z
" style="fill:#20b2aa;"/>
   </g>
   <g id="patch_5">
    <path clip-path="url(#pd944f9d31e)" d="M 78.196 191.937111 
L 92.116537 191.937111 
L 92.116537 182.976222 
L 78.196 182.976222 
z
" style="fill:#20b2aa;"/>
   </g>
   <g id="patch_6">
    <path clip-path="url(#pd944f9d31e)" d="M 78.196 180.736 
L 82.543115 180.736 
L 82.543115 171.775111 
L 78.196 171.775111 
z
" style="fill:#20b2aa;"/>
   </g>
   <g id="patch_7">
    <path clip-path="url(#pd944f9d31e)" d="M 78.196 169.534889 
L 81.358648 169.534889 
L 81.358648 160.574 
L 78.196 160.574 
z
" style="fill:#20b2aa;"/>
   </g>
   <g id="patch_8">
    <path clip-path="url(#pd944f9d31e)" d="M 78.196 158.333778 
L 80.296292 158.333778 
L 80.296292 149.372889 
L 78.196 149.372889 
z
" style="fill:#20b2aa;"/>
   </g>
   <g id="patch_9">
    <path clip-path="url(#pd944f9d31e)" d="M 78.196 147.132667 
L 79.612476 147.132667 
L 79.612476 138.171778 
L 78.196 138.171778 
z
" style="fill:#20b2aa;"/>
   </g>
   <g id="patch_10">
    <path clip-path="url(#pd944f9d31e)" d="M 78.196 135.931556 
L 79.197302 135.931556 
L 79.197302 126.970667 
L 78.196 126.970667 
z
" style="fill:#20b2aa;"/>
   </g>
   <g id="patch_11">
    <path clip-path="url(#pd944f9d31e)" d="M 78.196 124.730444 
L 78.745495 124.730444 
L 78.745495 115.769556 
L 78.196 115.769556 
z
" style="fill:#20b2aa;"/>
   </g>
   <g id="patch_12">
    <path clip-path="url(#pd944f9d31e)" d="M 78.196 113.529333 
L 78.537908 113.529333 
L 78.537908 104.568444 
L 78.196 104.568444 
z
" style="fill:#20b2aa;"/>
   </g>
   <g id="patch_13">
    <path clip-path="url(#pd944f9d31e)" d="M 78.196 102.328222 
L 78.354743 102.328222 
L 78.354743 93.367333 
L 78.196 93.367333 
z
" style="fill:#20b2aa;"/>
   </g>
   <g id="patch_14">
    <path clip-path="url(#pd944f9d31e)" d="M 78.196 91.127111 
L 78.379165 91.127111 
L 78.379165 82.166222 
L 78.196 82.166222 
z
" style="fill:#20b2aa;"/>
   </g>
   <g id="patch_15">
    <path clip-path="url(#pd944f9d31e)" d="M 78.196 79.926 
L 78.281477 79.926 
L 78.281477 70.965111 
L 78.196 70.965111 
z
" style="fill:#20b2aa;"/>
   </g>
   <g id="patch_16">
    <path clip-path="url(#pd944f9d31e)" d="M 78.196 68.724889 
L 78.208211 68.724889 
L 78.208211 59.764 
L 78.196 59.764 
z
" style="fill:#20b2aa;"/>
   </g>
   <g id="patch_17">
    <path clip-path="url(#pd944f9d31e)" d="M 78.196 57.523778 
L 78.208211 57.523778 
L 78.208211 48.562889 
L 78.196 48.562889 
z
" style="fill:#20b2aa;"/>
   </g>
   <g id="patch_18">
    <path clip-path="url(#pd944f9d31e)" d="M 78.196 46.322667 
L 78.208211 46.322667 
L 78.208211 37.361778 
L 78.196 37.361778 
z
" style="fill:#20b2aa;"/>
   </g>
   <g id="patch_19">
    <path clip-path="url(#pd944f9d31e)" d="M 78.196 214.339333 
L 52.149943 214.339333 
L 52.149943 205.378444 
L 78.196 205.378444 
z
" style="fill:#20b2aa;"/>
   </g>
   <g id="patch_20">
    <path clip-path="url(#pd944f9d31e)" d="M 78.196 203.138222 
L 51.9912 203.138222 
L 51.9912 194.177333 
L 78.196 194.177333 
z
" style="fill:#20b2aa;"/>
   </g>
   <g id="patch_21">
    <path clip-path="url(#pd944f9d31e)" d="M 78.196 191.937111 
L 64.275463 191.937111 
L 64.275463 182.976222 
L 78.196 182.976222 
z
" style="fill:#20b2aa;"/>
   </g>
   <g id="patch_22">
    <path clip-path="url(#pd944f9d31e)" d="M 78.196 180.736 
L 73.848885 180.736 
L 73.848885 171.775111 
L 78.196 171.775111 
z
" style="fill:#20b2aa;"/>
   </g>
   <g id="patch_23">
    <path clip-path="url(#pd944f9d31e)" d="M 78.196 169.534889 
L 75.033352 169.534889 
L 75.033352 160.574 
L 78.196 160.574 
z
" style="fill:#20b2aa;"/>
   </g>
   <g id="patch_24">
    <path clip-path="url(#pd944f9d31e)" d="M 78.196 158.333778 
L 76.095708 158.333778 
L 76.095708 149.372889 
L 78.196 149.372889 
z
" style="fill:#20b2aa;"/>
   </g>
   <g id="patch_25">
    <path clip-path="url(#pd944f9d31e)" d="M 78.196 147.132667 
L 76.779524 147.132667 
L 76.779524 138.171778 
L 78.196 138.171778 
z
" style="fill:#20b2aa;"/>
   </g>
   <g id="patch_26">
    <path clip-path="url(#pd944f9d31e)" d="M 78.196 135.931556 
L 77.194698 135.931556 
L 77.194698 126.970667 
L 78.196 126.970667 
z
" style="fill:#20b2aa;"/>
   </g>
   <g id="patch_27">
    <path clip-path="url(#pd944f9d31e)" d="M 78.196 124.730444 
L 77.646505 124.730444 
L 77.646505 115.769556 
L 78.196 115.769556 
z
" style="fill:#20b2aa;"/>
   </g>
   <g id="patch_28">
    <path clip-path="url(#pd944f9d31e)" d="M 78.196 113.529333 
L 77.854092 113.529333 
L 77.854092 104.568444 
L 78.196 104.568444 
z
" style="fill:#20b2aa;"/>
   </g>
   <g id="patch_29">
    <path clip-path="url(#pd944f9d31e)" d="M 78.196 102.328222 
L 78.037257 102.328222 
L 78.037257 93.367333 
L 78.196 93.367333 
z
" style="fill:#20b2aa;"/>
   </g>
   <g id="patch_30">
    <path clip-path="url(#pd944f9d31e)" d="M 78.196 91.127111 
L 78.012835 91.127111 
L 78.012835 82.166222 
L 78.196 82.166222 
z
" style="fill:#20b2aa;"/>
   </g>
   <g id="patch_31">
    <path clip-path="url(#pd944f9d31e)" d="M 78.196 79.926 
L 78.110523 79.926 
L 78.110523 70.965111 
L 78.196 70.965111 
z
" style="fill:#20b2aa;"/>
   </g>
   <g id="patch_32">
    <path clip-path="url(#pd944f9d31e)" d="M 78.196 68.724889 
L 78.183789 68.724889 
L 78.183789 59.764 
L 78.196 59.764 
z
" style="fill:#20b2aa;"/>
   </g>
   <g id="patch_33">
    <path clip-path="url(#pd944f9d31e)" d="M 78.196 57.523778 
L 78.183789 57.523778 
L 78.183789 48.562889 
L 78.196 48.562889 
z
" style="fill:#20b2aa;"/>
   </g>
   <g id="patch_34">
    <path clip-path="url(#pd944f9d31e)" d="M 78.196 46.322667 
L 78.183789 46.322667 
L 78.183789 37.361778 
L 78.196 37.361778 
z
" style="fill:#20b2aa;"/>
   </g>
   <g id="patch_35">
    <path clip-path="url(#pd944f9d31e)" d="M 143.708 214.339333 
L 152.864284 214.339333 
L 152.864284 205.378444 
L 143.708 205.378444 
z
" style="fill:#20b2aa;"/>
   </g>
   <g id="patch_36">
    <path clip-path="url(#pd944f9d31e)" d="M 143.708 203.138222 
L 169.9128 203.138222 
L 169.9128 194.177333 
L 143.708 194.177333 
z
" style="fill:#20b2aa;"/>
   </g>
   <g id="patch_37">
    <path clip-path="url(#pd944f9d31e)" d="M 143.708 191.937111 
L 152.588786 191.937111 
L 152.588786 182.976222 
L 143.708 182.976222 
z
" style="fill:#20b2aa;"/>
   </g>
   <g id="patch_38">
    <path clip-path="url(#pd944f9d31e)" d="M 143.708 180.736 
L 146.673664 180.736 
L 146.673664 171.775111 
L 143.708 171.775111 
z
" style="fill:#20b2aa;"/>
   </g>
   <g id="patch_39">
    <path clip-path="url(#pd944f9d31e)" d="M 143.708 169.534889 
L 145.474434 169.534889 
L 145.474434 160.574 
L 143.708 160.574 
z
" style="fill:#20b2aa;"/>
   </g>
   <g id="patch_40">
    <path clip-path="url(#pd944f9d31e)" d="M 143.708 158.333778 
L 144.647937 158.333778 
L 144.647937 149.372889 
L 143.708 149.372889 
z
" style="fill:#20b2aa;"/>
   </g>
   <g id="patch_41">
    <path clip-path="url(#pd944f9d31e)" d="M 143.708 147.132667 
L 144.145557 147.132667 
L 144.145557 138.171778 
L 143.708 138.171778 
z
" style="fill:#20b2aa;"/>
   </g>
   <g id="patch_42">
    <path clip-path="url(#pd944f9d31e)" d="M 143.708 135.931556 
L 143.805235 135.931556 
L 143.805235 126.970667 
L 143.708 126.970667 
z
" style="fill:#20b2aa;"/>
   </g>
   <g id="patch_43">
    <path clip-path="url(#pd944f9d31e)" d="M 143.708 124.730444 
L 143.821441 124.730444 
L 143.821441 115.769556 
L 143.708 115.769556 
z
" style="fill:#20b2aa;"/>
   </g>
   <g id="patch_44">
    <path clip-path="url(#pd944f9d31e)" d="M 143.708 214.339333 
L 134.551716 214.339333 
L 134.551716 205.378444 
L 143.708 205.378444 
z
" style="fill:#20b2aa;"/>
   </g>
   <g id="patch_45">
    <path clip-path="url(#pd944f9d31e)" d="M 143.708 203.138222 
L 117.5032 203.138222 
L 117.5032 194.177333 
L 143.708 194.177333 
z
" style="fill:#20b2aa;"/>
   </g>
   <g id="patch_46">
    <path clip-path="url(#pd944f9d31e)" d="M 143.708 191.937111 
L 134.827214 191.937111 
L 134.827214 182.976222 
L 143.708 182.976222 
z
" style="fill:#20b2aa;"/>
   </g>
   <g id="patch_47">
    <path clip-path="url(#pd944f9d31e)" d="M 143.708 180.736 
L 140.742336 180.736 
L 140.742336 171.775111 
L 143.708 171.775111 
z
" style="fill:#20b2aa;"/>
   </g>
   <g id="patch_48">
    <path clip-path="url(#pd944f9d31e)" d="M 143.708 169.534889 
L 141.941566 169.534889 
L 141.941566 160.574 
L 143.708 160.574 
z
" style="fill:#20b2aa;"/>
   </g>
   <g id="patch_49">
    <path clip-path="url(#pd944f9d31e)" d="M 143.708 158.333778 
L 142.768063 158.333778 
L 142.768063 149.372889 
L 143.708 149.372889 
z
" style="fill:#20b2aa;"/>
   </g>
   <g id="patch_50">
    <path clip-path="url(#pd944f9d31e)" d="M 143.708 147.132667 
L 143.270443 147.132667 
L 143.270443 138.171778 
L 143.708 138.171778 
z
" style="fill:#20b2aa;"/>
   </g>
   <g id="patch_51">
    <path clip-path="url(#pd944f9d31e)" d="M 143.708 135.931556 
L 143.610765 135.931556 
L 143.610765 126.970667 
L 143.708 126.970667 
z
" style="fill:#20b2aa;"/>
   </g>
   <g id="patch_52">
    <path clip-path="url(#pd944f9d31e)" d="M 143.708 124.730444 
L 143.594559 124.730444 
L 143.594559 115.769556 
L 143.708 115.769556 
z
" style="fill:#20b2aa;"/>
   </g>
   <g id="patch_53">
    <path clip-path="url(#pd944f9d31e)" d="M 209.22 214.339333 
L 230.590905 214.339333 
L 230.590905 205.378444 
L 209.22 205.378444 
z
" style="fill:#20b2aa;"/>
   </g>
   <g id="patch_54">
    <path clip-path="url(#pd944f9d31e)" d="M 209.22 203.138222 
L 235.4248 203.138222 
L 235.4248 194.177333 
L 209.22 194.177333 
z
" style="fill:#20b2aa;"/>
   </g>
   <g id="patch_55">
    <path clip-path="url(#pd944f9d31e)" d="M 209.22 191.937111 
L 223.354196 191.937111 
L 223.354196 182.976222 
L 209.22 182.976222 
z
" style="fill:#20b2aa;"/>
   </g>
   <g id="patch_56">
    <path clip-path="url(#pd944f9d31e)" d="M 209.22 180.736 
L 216.711124 180.736 
L 216.711124 171.775111 
L 209.22 171.775111 
z
" style="fill:#20b2aa;"/>
   </g>
   <g id="patch_57">
    <path clip-path="url(#pd944f9d31e)" d="M 209.22 169.534889 
L 213.742943 169.534889 
L 213.742943 160.574 
L 209.22 160.574 
z
" style="fill:#20b2aa;"/>
   </g>
   <g id="patch_58">
    <path clip-path="url(#pd944f9d31e)" d="M 209.22 158.333778 
L 212.38606 158.333778 
L 212.38606 149.372889 
L 209.22 149.372889 
z
" style="fill:#20b2aa;"/>
   </g>
   <g id="patch_59">
    <path clip-path="url(#pd944f9d31e)" d="M 209.22 147.132667 
L 210.859567 147.132667 
L 210.859567 138.171778 
L 209.22 138.171778 
z
" style="fill:#20b2aa;"/>
   </g>
   <g id="patch_60">
    <path clip-path="url(#pd944f9d31e)" d="M 209.22 135.931556 
L 209.983247 135.931556 
L 209.983247 126.970667 
L 209.22 126.970667 
z
" style="fill:#20b2aa;"/>
   </g>
   <g id="patch_61">
    <path clip-path="url(#pd944f9d31e)" d="M 209.22 124.730444 
L 209.841905 124.730444 
L 209.841905 115.769556 
L 209.22 115.769556 
z
" style="fill:#20b2aa;"/>
   </g>
   <g id="patch_62">
    <path clip-path="url(#pd944f9d31e)" d="M 209.22 113.529333 
L 209.813636 113.529333 
L 209.813636 104.568444 
L 209.22 104.568444 
z
" style="fill:#20b2aa;"/>
   </g>
   <g id="patch_63">
    <path clip-path="url(#pd944f9d31e)" d="M 209.22 102.328222 
L 209.361342 102.328222 
L 209.361342 93.367333 
L 209.22 93.367333 
z
" style="fill:#20b2aa;"/>
   </g>
   <g id="patch_64">
    <path clip-path="url(#pd944f9d31e)" d="M 209.22 91.127111 
L 209.38961 91.127111 
L 209.38961 82.166222 
L 209.22 82.166222 
z
" style="fill:#20b2aa;"/>
   </g>
   <g id="patch_65">
    <path clip-path="url(#pd944f9d31e)" d="M 209.22 79.926 
L 209.361342 79.926 
L 209.361342 70.965111 
L 209.22 70.965111 
z
" style="fill:#20b2aa;"/>
   </g>
   <g id="patch_66">
    <path clip-path="url(#pd944f9d31e)" d="M 209.22 68.724889 
L 209.304805 68.724889 
L 209.304805 59.764 
L 209.22 59.764 
z
" style="fill:#20b2aa;"/>
   </g>
   <g id="patch_67">
    <path clip-path="url(#pd944f9d31e)" d="M 209.22 57.523778 
L 209.276537 57.523778 
L 209.276537 48.562889 
L 209.22 48.562889 
z
" style="fill:#20b2aa;"/>
   </g>
   <g id="patch_68">
    <path clip-path="url(#pd944f9d31e)" d="M 209.22 214.339333 
L 187.849095 214.339333 
L 187.849095 205.378444 
L 209.22 205.378444 
z
" style="fill:#20b2aa;"/>
   </g>
   <g id="patch_69">
    <path clip-path="url(#pd944f9d31e)" d="M 209.22 203.138222 
L 183.0152 203.138222 
L 183.0152 194.177333 
L 209.22 194.177333 
z
" style="fill:#20b2aa;"/>
   </g>
   <g id="patch_70">
    <path clip-path="url(#pd944f9d31e)" d="M 209.22 191.937111 
L 195.085804 191.937111 
L 195.085804 182.976222 
L 209.22 182.976222 
z
" style="fill:#20b2aa;"/>
   </g>
   <g id="patch_71">
    <path clip-path="url(#pd944f9d31e)" d="M 209.22 180.736 
L 201.728876 180.736 
L 201.728876 171.775111 
L 209.22 171.775111 
z
" style="fill:#20b2aa;"/>
   </g>
   <g id="patch_72">
    <path clip-path="url(#pd944f9d31e)" d="M 209.22 169.534889 
L 204.697057 169.534889 
L 204.697057 160.574 
L 209.22 160.574 
z
" style="fill:#20b2aa;"/>
   </g>
   <g id="patch_73">
    <path clip-path="url(#pd944f9d31e)" d="M 209.22 158.333778 
L 206.05394 158.333778 
L 206.05394 149.372889 
L 209.22 149.372889 
z
" style="fill:#20b2aa;"/>
   </g>
   <g id="patch_74">
    <path clip-path="url(#pd944f9d31e)" d="M 209.22 147.132667 
L 207.580433 147.132667 
L 207.580433 138.171778 
L 209.22 138.171778 
z
" style="fill:#20b2aa;"/>
   </g>
   <g id="patch_75">
    <path clip-path="url(#pd944f9d31e)" d="M 209.22 135.931556 
L 208.456753 135.931556 
L 208.456753 126.970667 
L 209.22 126.970667 
z
" style="fill:#20b2aa;"/>
   </g>
   <g id="patch_76">
    <path clip-path="url(#pd944f9d31e)" d="M 209.22 124.730444 
L 208.598095 124.730444 
L 208.598095 115.769556 
L 209.22 115.769556 
z
" style="fill:#20b2aa;"/>
   </g>
   <g id="patch_77">
    <path clip-path="url(#pd944f9d31e)" d="M 209.22 113.529333 
L 208.626364 113.529333 
L 208.626364 104.568444 
L 209.22 104.568444 
z
" style="fill:#20b2aa;"/>
   </g>
   <g id="patch_78">
    <path clip-path="url(#pd944f9d31e)" d="M 209.22 102.328222 
L 209.078658 102.328222 
L 209.078658 93.367333 
L 209.22 93.367333 
z
" style="fill:#20b2aa;"/>
   </g>
   <g id="patch_79">
    <path clip-path="url(#pd944f9d31e)" d="M 209.22 91.127111 
L 209.05039 91.127111 
L 209.05039 82.166222 
L 209.22 82.166222 
z
" style="fill:#20b2aa;"/>
   </g>
   <g id="patch_80">
    <path clip-path="url(#pd944f9d31e)" d="M 209.22 79.926 
L 209.078658 79.926 
L 209.078658 70.965111 
L 209.22 70.965111 
z
" style="fill:#20b2aa;"/>
   </g>
   <g id="patch_81">
    <path clip-path="url(#pd944f9d31e)" d="M 209.22 68.724889 
L 209.135195 68.724889 
L 209.135195 59.764 
L 209.22 59.764 
z
" style="fill:#20b2aa;"/>
   </g>
   <g id="patch_82">
    <path clip-path="url(#pd944f9d31e)" d="M 209.22 57.523778 
L 209.163463 57.523778 
L 209.163463 48.562889 
L 209.22 48.562889 
z
" style="fill:#20b2aa;"/>
   </g>
   <g id="patch_83">
    <path clip-path="url(#pd944f9d31e)" d="M 274.732 214.339333 
L 300.9368 214.339333 
L 300.9368 205.378444 
L 274.732 205.378444 
z
" style="fill:#20b2aa;"/>
   </g>
   <g id="patch_84">
    <path clip-path="url(#pd944f9d31e)" d="M 274.732 203.138222 
L 295.137377 203.138222 
L 295.137377 194.177333 
L 274.732 194.177333 
z
" style="fill:#20b2aa;"/>
   </g>
   <g id="patch_85">
    <path clip-path="url(#pd944f9d31e)" d="M 274.732 191.937111 
L 284.77956 191.937111 
L 284.77956 182.976222 
L 274.732 182.976222 
z
" style="fill:#20b2aa;"/>
   </g>
   <g id="patch_86">
    <path clip-path="url(#pd944f9d31e)" d="M 274.732 180.736 
L 278.813075 180.736 
L 278.813075 171.775111 
L 274.732 171.775111 
z
" style="fill:#20b2aa;"/>
   </g>
   <g id="patch_87">
    <path clip-path="url(#pd944f9d31e)" d="M 274.732 169.534889 
L 277.166326 169.534889 
L 277.166326 160.574 
L 274.732 160.574 
z
" style="fill:#20b2aa;"/>
   </g>
   <g id="patch_88">
    <path clip-path="url(#pd944f9d31e)" d="M 274.732 158.333778 
L 276.426482 158.333778 
L 276.426482 149.372889 
L 274.732 149.372889 
z
" style="fill:#20b2aa;"/>
   </g>
   <g id="patch_89">
    <path clip-path="url(#pd944f9d31e)" d="M 274.732 147.132667 
L 276.163956 147.132667 
L 276.163956 138.171778 
L 274.732 138.171778 
z
" style="fill:#20b2aa;"/>
   </g>
   <g id="patch_90">
    <path clip-path="url(#pd944f9d31e)" d="M 274.732 135.931556 
L 275.758235 135.931556 
L 275.758235 126.970667 
L 274.732 126.970667 
z
" style="fill:#20b2aa;"/>
   </g>
   <g id="patch_91">
    <path clip-path="url(#pd944f9d31e)" d="M 274.732 124.730444 
L 275.280917 124.730444 
L 275.280917 115.769556 
L 274.732 115.769556 
z
" style="fill:#20b2aa;"/>
   </g>
   <g id="patch_92">
    <path clip-path="url(#pd944f9d31e)" d="M 274.732 113.529333 
L 274.875196 113.529333 
L 274.875196 104.568444 
L 274.732 104.568444 
z
" style="fill:#20b2aa;"/>
   </g>
   <g id="patch_93">
    <path clip-path="url(#pd944f9d31e)" d="M 274.732 102.328222 
L 274.875196 102.328222 
L 274.875196 93.367333 
L 274.732 93.367333 
z
" style="fill:#20b2aa;"/>
   </g>
   <g id="patch_94">
    <path clip-path="url(#pd944f9d31e)" d="M 274.732 91.127111 
L 274.922928 91.127111 
L 274.922928 82.166222 
L 274.732 82.166222 
z
" style="fill:#20b2aa;"/>
   </g>
   <g id="patch_95">
    <path clip-path="url(#pd944f9d31e)" d="M 274.732 79.926 
L 274.755866 79.926 
L 274.755866 70.965111 
L 274.732 70.965111 
z
" style="fill:#20b2aa;"/>
   </g>
   <g id="patch_96">
    <path clip-path="url(#pd944f9d31e)" d="M 274.732 68.724889 
L 274.755866 68.724889 
L 274.755866 59.764 
L 274.732 59.764 
z
" style="fill:#20b2aa;"/>
   </g>
   <g id="patch_97">
    <path clip-path="url(#pd944f9d31e)" d="M 274.732 57.523778 
L 274.755866 57.523778 
L 274.755866 48.562889 
L 274.732 48.562889 
z
" style="fill:#20b2aa;"/>
   </g>
   <g id="patch_98">
    <path clip-path="url(#pd944f9d31e)" d="M 274.732 46.322667 
L 274.755866 46.322667 
L 274.755866 37.361778 
L 274.732 37.361778 
z
" style="fill:#20b2aa;"/>
   </g>
   <g id="patch_99">
    <path clip-path="url(#pd944f9d31e)" d="M 274.732 214.339333 
L 248.5272 214.339333 
L 248.5272 205.378444 
L 274.732 205.378444 
z
" style="fill:#20b2aa;"/>
   </g>
   <g id="patch_100">
    <path clip-path="url(#pd944f9d31e)" d="M 274.732 203.138222 
L 254.326623 203.138222 
L 254.326623 194.177333 
L 274.732 194.177333 
z
" style="fill:#20b2aa;"/>
   </g>
   <g id="patch_101">
    <path clip-path="url(#pd944f9d31e)" d="M 274.732 191.937111 
L 264.68444 191.937111 
L 264.68444 182.976222 
L 274.732 182.976222 
z
" style="fill:#20b2aa;"/>
   </g>
   <g id="patch_102">
    <path clip-path="url(#pd944f9d31e)" d="M 274.732 180.736 
L 270.650925 180.736 
L 270.650925 171.775111 
L 274.732 171.775111 
z
" style="fill:#20b2aa;"/>
   </g>
   <g id="patch_103">
    <path clip-path="url(#pd944f9d31e)" d="M 274.732 169.534889 
L 272.297674 169.534889 
L 272.297674 160.574 
L 274.732 160.574 
z
" style="fill:#20b2aa;"/>
   </g>
   <g id="patch_104">
    <path clip-path="url(#pd944f9d31e)" d="M 274.732 158.333778 
L 273.037518 158.333778 
L 273.037518 149.372889 
L 274.732 149.372889 
z
" style="fill:#20b2aa;"/>
   </g>
   <g id="patch_105">
    <path clip-path="url(#pd944f9d31e)" d="M 274.732 147.132667 
L 273.300044 147.132667 
L 273.300044 138.171778 
L 274.732 138.171778 
z
" style="fill:#20b2aa;"/>
   </g>
   <g id="patch_106">
    <path clip-path="url(#pd944f9d31e)" d="M 274.732 135.931556 
L 273.705765 135.931556 
L 273.705765 126.970667 
L 274.732 126.970667 
z
" style="fill:#20b2aa;"/>
   </g>
   <g id="patch_107">
    <path clip-path="url(#pd944f9d31e)" d="M 274.732 124.730444 
L 274.183083 124.730444 
L 274.183083 115.769556 
L 274.732 115.769556 
z
" style="fill:#20b2aa;"/>
   </g>
   <g id="patch_108">
    <path clip-path="url(#pd944f9d31e)" d="M 274.732 113.529333 
L 274.588804 113.529333 
L 274.588804 104.568444 
L 274.732 104.568444 
z
" style="fill:#20b2aa;"/>
   </g>
   <g id="patch_109">
    <path clip-path="url(#pd944f9d31e)" d="M 274.732 102.328222 
L 274.588804 102.328222 
L 274.588804 93.367333 
L 274.732 93.367333 
z
" style="fill:#20b2aa;"/>
   </g>
   <g id="patch_110">
    <path clip-path="url(#pd944f9d31e)" d="M 274.732 91.127111 
L 274.541072 91.127111 
L 274.541072 82.166222 
L 274.732 82.166222 
z
" style="fill:#20b2aa;"/>
   </g>
   <g id="patch_111">
    <path clip-path="url(#pd944f9d31e)" d="M 274.732 79.926 
L 274.708134 79.926 
L 274.708134 70.965111 
L 274.732 70.965111 
z
" style="fill:#20b2aa;"/>
   </g>
   <g id="patch_112">
    <path clip-path="url(#pd944f9d31e)" d="M 274.732 68.724889 
L 274.708134 68.724889 
L 274.708134 59.764 
L 274.732 59.764 
z
" style="fill:#20b2aa;"/>
   </g>
   <g id="patch_113">
    <path clip-path="url(#pd944f9d31e)" d="M 274.732 57.523778 
L 274.708134 57.523778 
L 274.708134 48.562889 
L 274.732 48.562889 
z
" style="fill:#20b2aa;"/>
   </g>
   <g id="patch_114">
    <path clip-path="url(#pd944f9d31e)" d="M 274.732 46.322667 
L 274.708134 46.322667 
L 274.708134 37.361778 
L 274.732 37.361778 
z
" style="fill:#20b2aa;"/>
   </g>
   <g id="patch_115">
    <path clip-path="url(#pd944f9d31e)" d="M 340.244 214.339333 
L 349.194231 214.339333 
L 349.194231 205.378444 
L 340.244 205.378444 
z
" style="fill:#20b2aa;"/>
   </g>
   <g id="patch_116">
    <path clip-path="url(#pd944f9d31e)" d="M 340.244 203.138222 
L 366.4488 203.138222 
L 366.4488 194.177333 
L 340.244 194.177333 
z
" style="fill:#20b2aa;"/>
   </g>
   <g id="patch_117">
    <path clip-path="url(#pd944f9d31e)" d="M 340.244 191.937111 
L 348.492976 191.937111 
L 348.492976 182.976222 
L 340.244 182.976222 
z
" style="fill:#20b2aa;"/>
   </g>
   <g id="patch_118">
    <path clip-path="url(#pd944f9d31e)" d="M 340.244 180.736 
L 343.861001 180.736 
L 343.861001 171.775111 
L 340.244 171.775111 
z
" style="fill:#20b2aa;"/>
   </g>
   <g id="patch_119">
    <path clip-path="url(#pd944f9d31e)" d="M 340.244 169.534889 
L 342.200133 169.534889 
L 342.200133 160.574 
L 340.244 160.574 
z
" style="fill:#20b2aa;"/>
   </g>
   <g id="patch_120">
    <path clip-path="url(#pd944f9d31e)" d="M 340.244 158.333778 
L 341.111342 158.333778 
L 341.111342 149.372889 
L 340.244 149.372889 
z
" style="fill:#20b2aa;"/>
   </g>
   <g id="patch_121">
    <path clip-path="url(#pd944f9d31e)" d="M 340.244 147.132667 
L 340.631536 147.132667 
L 340.631536 138.171778 
L 340.244 138.171778 
z
" style="fill:#20b2aa;"/>
   </g>
   <g id="patch_122">
    <path clip-path="url(#pd944f9d31e)" d="M 340.244 135.931556 
L 340.410087 135.931556 
L 340.410087 126.970667 
L 340.244 126.970667 
z
" style="fill:#20b2aa;"/>
   </g>
   <g id="patch_123">
    <path clip-path="url(#pd944f9d31e)" d="M 340.244 124.730444 
L 340.33627 124.730444 
L 340.33627 115.769556 
L 340.244 115.769556 
z
" style="fill:#20b2aa;"/>
   </g>
   <g id="patch_124">
    <path clip-path="url(#pd944f9d31e)" d="M 340.244 214.339333 
L 331.293769 214.339333 
L 331.293769 205.378444 
L 340.244 205.378444 
z
" style="fill:#20b2aa;"/>
   </g>
   <g id="patch_125">
    <path clip-path="url(#pd944f9d31e)" d="M 340.244 203.138222 
L 314.0392 203.138222 
L 314.0392 194.177333 
L 340.244 194.177333 
z
" style="fill:#20b2aa;"/>
   </g>
   <g id="patch_126">
    <path clip-path="url(#pd944f9d31e)" d="M 340.244 191.937111 
L 331.995024 191.937111 
L 331.995024 182.976222 
L 340.244 182.976222 
z
" style="fill:#20b2aa;"/>
   </g>
   <g id="patch_127">
    <path clip-path="url(#pd944f9d31e)" d="M 340.244 180.736 
L 336.626999 180.736 
L 336.626999 171.775111 
L 340.244 171.775111 
z
" style="fill:#20b2aa;"/>
   </g>
   <g id="patch_128">
    <path clip-path="url(#pd944f9d31e)" d="M 340.244 169.534889 
L 338.287867 169.534889 
L 338.287867 160.574 
L 340.244 160.574 
z
" style="fill:#20b2aa;"/>
   </g>
   <g id="patch_129">
    <path clip-path="url(#pd944f9d31e)" d="M 340.244 158.333778 
L 339.376658 158.333778 
L 339.376658 149.372889 
L 340.244 149.372889 
z
" style="fill:#20b2aa;"/>
   </g>
   <g id="patch_130">
    <path clip-path="url(#pd944f9d31e)" d="M 340.244 147.132667 
L 339.856464 147.132667 
L 339.856464 138.171778 
L 340.244 138.171778 
z
" style="fill:#20b2aa;"/>
   </g>
   <g id="patch_131">
    <path clip-path="url(#pd944f9d31e)" d="M 340.244 135.931556 
L 340.077913 135.931556 
L 340.077913 126.970667 
L 340.244 126.970667 
z
" style="fill:#20b2aa;"/>
   </g>
   <g id="patch_132">
    <path clip-path="url(#pd944f9d31e)" d="M 340.244 124.730444 
L 340.15173 124.730444 
L 340.15173 115.769556 
L 340.244 115.769556 
z
" style="fill:#20b2aa;"/>
   </g>
   <g id="patch_133">
    <path clip-path="url(#pd944f9d31e)" d="M 405.756 214.339333 
L 417.729907 214.339333 
L 417.729907 205.378444 
L 405.756 205.378444 
z
" style="fill:#20b2aa;"/>
   </g>
   <g id="patch_134">
    <path clip-path="url(#pd944f9d31e)" d="M 405.756 203.138222 
L 431.9608 203.138222 
L 431.9608 194.177333 
L 405.756 194.177333 
z
" style="fill:#20b2aa;"/>
   </g>
   <g id="patch_135">
    <path clip-path="url(#pd944f9d31e)" d="M 405.756 191.937111 
L 415.069039 191.937111 
L 415.069039 182.976222 
L 405.756 182.976222 
z
" style="fill:#20b2aa;"/>
   </g>
   <g id="patch_136">
    <path clip-path="url(#pd944f9d31e)" d="M 405.756 180.736 
L 410.365004 180.736 
L 410.365004 171.775111 
L 405.756 171.775111 
z
" style="fill:#20b2aa;"/>
   </g>
   <g id="patch_137">
    <path clip-path="url(#pd944f9d31e)" d="M 405.756 169.534889 
L 408.012986 169.534889 
L 408.012986 160.574 
L 405.756 160.574 
z
" style="fill:#20b2aa;"/>
   </g>
   <g id="patch_138">
    <path clip-path="url(#pd944f9d31e)" d="M 405.756 158.333778 
L 407.015161 158.333778 
L 407.015161 149.372889 
L 405.756 149.372889 
z
" style="fill:#20b2aa;"/>
   </g>
   <g id="patch_139">
    <path clip-path="url(#pd944f9d31e)" d="M 405.756 147.132667 
L 406.349944 147.132667 
L 406.349944 138.171778 
L 405.756 138.171778 
z
" style="fill:#20b2aa;"/>
   </g>
   <g id="patch_140">
    <path clip-path="url(#pd944f9d31e)" d="M 405.756 135.931556 
L 406.017335 135.931556 
L 406.017335 126.970667 
L 405.756 126.970667 
z
" style="fill:#20b2aa;"/>
   </g>
   <g id="patch_141">
    <path clip-path="url(#pd944f9d31e)" d="M 405.756 124.730444 
L 405.898547 124.730444 
L 405.898547 115.769556 
L 405.756 115.769556 
z
" style="fill:#20b2aa;"/>
   </g>
   <g id="patch_142">
    <path clip-path="url(#pd944f9d31e)" d="M 405.756 214.339333 
L 393.782093 214.339333 
L 393.782093 205.378444 
L 405.756 205.378444 
z
" style="fill:#20b2aa;"/>
   </g>
   <g id="patch_143">
    <path clip-path="url(#pd944f9d31e)" d="M 405.756 203.138222 
L 379.5512 203.138222 
L 379.5512 194.177333 
L 405.756 194.177333 
z
" style="fill:#20b2aa;"/>
   </g>
   <g id="patch_144">
    <path clip-path="url(#pd944f9d31e)" d="M 405.756 191.937111 
L 396.442961 191.937111 
L 396.442961 182.976222 
L 405.756 182.976222 
z
" style="fill:#20b2aa;"/>
   </g>
   <g id="patch_145">
    <path clip-path="url(#pd944f9d31e)" d="M 405.756 180.736 
L 401.146996 180.736 
L 401.146996 171.775111 
L 405.756 171.775111 
z
" style="fill:#20b2aa;"/>
   </g>
   <g id="patch_146">
    <path clip-path="url(#pd944f9d31e)" d="M 405.756 169.534889 
L 403.499014 169.534889 
L 403.499014 160.574 
L 405.756 160.574 
z
" style="fill:#20b2aa;"/>
   </g>
   <g id="patch_147">
    <path clip-path="url(#pd944f9d31e)" d="M 405.756 158.333778 
L 404.496839 158.333778 
L 404.496839 149.372889 
L 405.756 149.372889 
z
" style="fill:#20b2aa;"/>
   </g>
   <g id="patch_148">
    <path clip-path="url(#pd944f9d31e)" d="M 405.756 147.132667 
L 405.162056 147.132667 
L 405.162056 138.171778 
L 405.756 138.171778 
z
" style="fill:#20b2aa;"/>
   </g>
   <g id="patch_149">
    <path clip-path="url(#pd944f9d31e)" d="M 405.756 135.931556 
L 405.494665 135.931556 
L 405.494665 126.970667 
L 405.756 126.970667 
z
" style="fill:#20b2aa;"/>
   </g>
   <g id="patch_150">
    <path clip-path="url(#pd944f9d31e)" d="M 405.756 124.730444 
L 405.613453 124.730444 
L 405.613453 115.769556 
L 405.756 115.769556 
z
" style="fill:#20b2aa;"/>
   </g>
   <g id="patch_151">
    <path clip-path="url(#pd944f9d31e)" d="M 471.268 214.339333 
L 497.4728 214.339333 
L 497.4728 205.378444 
L 471.268 205.378444 
z
" style="fill:#20b2aa;"/>
   </g>
   <g id="patch_152">
    <path clip-path="url(#pd944f9d31e)" d="M 471.268 203.138222 
L 497.397391 203.138222 
L 497.397391 194.177333 
L 471.268 194.177333 
z
" style="fill:#20b2aa;"/>
   </g>
   <g id="patch_153">
    <path clip-path="url(#pd944f9d31e)" d="M 471.268 191.937111 
L 489.064641 191.937111 
L 489.064641 182.976222 
L 471.268 182.976222 
z
" style="fill:#20b2aa;"/>
   </g>
   <g id="patch_154">
    <path clip-path="url(#pd944f9d31e)" d="M 471.268 180.736 
L 475.867979 180.736 
L 475.867979 171.775111 
L 471.268 171.775111 
z
" style="fill:#20b2aa;"/>
   </g>
   <g id="patch_155">
    <path clip-path="url(#pd944f9d31e)" d="M 471.268 169.534889 
L 474.095856 169.534889 
L 474.095856 160.574 
L 471.268 160.574 
z
" style="fill:#20b2aa;"/>
   </g>
   <g id="patch_156">
    <path clip-path="url(#pd944f9d31e)" d="M 471.268 158.333778 
L 473.417171 158.333778 
L 473.417171 149.372889 
L 471.268 149.372889 
z
" style="fill:#20b2aa;"/>
   </g>
   <g id="patch_157">
    <path clip-path="url(#pd944f9d31e)" d="M 471.268 147.132667 
L 473.077828 147.132667 
L 473.077828 138.171778 
L 471.268 138.171778 
z
" style="fill:#20b2aa;"/>
   </g>
   <g id="patch_158">
    <path clip-path="url(#pd944f9d31e)" d="M 471.268 135.931556 
L 472.172914 135.931556 
L 472.172914 126.970667 
L 471.268 126.970667 
z
" style="fill:#20b2aa;"/>
   </g>
   <g id="patch_159">
    <path clip-path="url(#pd944f9d31e)" d="M 471.268 124.730444 
L 472.022095 124.730444 
L 472.022095 115.769556 
L 471.268 115.769556 
z
" style="fill:#20b2aa;"/>
   </g>
   <g id="patch_160">
    <path clip-path="url(#pd944f9d31e)" d="M 471.268 113.529333 
L 471.531933 113.529333 
L 471.531933 104.568444 
L 471.268 104.568444 
z
" style="fill:#20b2aa;"/>
   </g>
   <g id="patch_161">
    <path clip-path="url(#pd944f9d31e)" d="M 471.268 102.328222 
L 471.531933 102.328222 
L 471.531933 93.367333 
L 471.268 93.367333 
z
" style="fill:#20b2aa;"/>
   </g>
   <g id="patch_162">
    <path clip-path="url(#pd944f9d31e)" d="M 471.268 91.127111 
L 471.343409 91.127111 
L 471.343409 82.166222 
L 471.268 82.166222 
z
" style="fill:#20b2aa;"/>
   </g>
   <g id="patch_163">
    <path clip-path="url(#pd944f9d31e)" d="M 471.268 79.926 
L 471.305705 79.926 
L 471.305705 70.965111 
L 471.268 70.965111 
z
" style="fill:#20b2aa;"/>
   </g>
   <g id="patch_164">
    <path clip-path="url(#pd944f9d31e)" d="M 471.268 68.724889 
L 471.305705 68.724889 
L 471.305705 59.764 
L 471.268 59.764 
z
" style="fill:#20b2aa;"/>
   </g>
   <g id="patch_165">
    <path clip-path="url(#pd944f9d31e)" d="M 471.268 214.339333 
L 445.0632 214.339333 
L 445.0632 205.378444 
L 471.268 205.378444 
z
" style="fill:#20b2aa;"/>
   </g>
   <g id="patch_166">
    <path clip-path="url(#pd944f9d31e)" d="M 471.268 203.138222 
L 445.138609 203.138222 
L 445.138609 194.177333 
L 471.268 194.177333 
z
" style="fill:#20b2aa;"/>
   </g>
   <g id="patch_167">
    <path clip-path="url(#pd944f9d31e)" d="M 471.268 191.937111 
L 453.471359 191.937111 
L 453.471359 182.976222 
L 471.268 182.976222 
z
" style="fill:#20b2aa;"/>
   </g>
   <g id="patch_168">
    <path clip-path="url(#pd944f9d31e)" d="M 471.268 180.736 
L 466.668021 180.736 
L 466.668021 171.775111 
L 471.268 171.775111 
z
" style="fill:#20b2aa;"/>
   </g>
   <g id="patch_169">
    <path clip-path="url(#pd944f9d31e)" d="M 471.268 169.534889 
L 468.440144 169.534889 
L 468.440144 160.574 
L 471.268 160.574 
z
" style="fill:#20b2aa;"/>
   </g>
   <g id="patch_170">
    <path clip-path="url(#pd944f9d31e)" d="M 471.268 158.333778 
L 469.118829 158.333778 
L 469.118829 149.372889 
L 471.268 149.372889 
z
" style="fill:#20b2aa;"/>
   </g>
   <g id="patch_171">
    <path clip-path="url(#pd944f9d31e)" d="M 471.268 147.132667 
L 469.458172 147.132667 
L 469.458172 138.171778 
L 471.268 138.171778 
z
" style="fill:#20b2aa;"/>
   </g>
   <g id="patch_172">
    <path clip-path="url(#pd944f9d31e)" d="M 471.268 135.931556 
L 470.363086 135.931556 
L 470.363086 126.970667 
L 471.268 126.970667 
z
" style="fill:#20b2aa;"/>
   </g>
   <g id="patch_173">
    <path clip-path="url(#pd944f9d31e)" d="M 471.268 124.730444 
L 470.513905 124.730444 
L 470.513905 115.769556 
L 471.268 115.769556 
z
" style="fill:#20b2aa;"/>
   </g>
   <g id="patch_174">
    <path clip-path="url(#pd944f9d31e)" d="M 471.268 113.529333 
L 471.004067 113.529333 
L 471.004067 104.568444 
L 471.268 104.568444 
z
" style="fill:#20b2aa;"/>
   </g>
   <g id="patch_175">
    <path clip-path="url(#pd944f9d31e)" d="M 471.268 102.328222 
L 471.004067 102.328222 
L 471.004067 93.367333 
L 471.268 93.367333 
z
" style="fill:#20b2aa;"/>
   </g>
   <g id="patch_176">
    <path clip-path="url(#pd944f9d31e)" d="M 471.268 91.127111 
L 471.192591 91.127111 
L 471.192591 82.166222 
L 471.268 82.166222 
z
" style="fill:#20b2aa;"/>
   </g>
   <g id="patch_177">
    <path clip-path="url(#pd944f9d31e)" d="M 471.268 79.926 
L 471.230295 79.926 
L 471.230295 70.965111 
L 471.268 70.965111 
z
" style="fill:#20b2aa;"/>
   </g>
   <g id="patch_178">
    <path clip-path="url(#pd944f9d31e)" d="M 471.268 68.724889 
L 471.230295 68.724889 
L 471.230295 59.764 
L 471.268 59.764 
z
" style="fill:#20b2aa;"/>
   </g>
   <g id="patch_179">
    <path clip-path="url(#pd944f9d31e)" d="M 536.78 214.339333 
L 562.9848 214.339333 
L 562.9848 205.378444 
L 536.78 205.378444 
z
" style="fill:#20b2aa;"/>
   </g>
   <g id="patch_180">
    <path clip-path="url(#pd944f9d31e)" d="M 536.78 203.138222 
L 556.220067 203.138222 
L 556.220067 194.177333 
L 536.78 194.177333 
z
" style="fill:#20b2aa;"/>
   </g>
   <g id="patch_181">
    <path clip-path="url(#pd944f9d31e)" d="M 536.78 191.937111 
L 546.038802 191.937111 
L 546.038802 182.976222 
L 536.78 182.976222 
z
" style="fill:#20b2aa;"/>
   </g>
   <g id="patch_182">
    <path clip-path="url(#pd944f9d31e)" d="M 536.78 180.736 
L 540.401524 180.736 
L 540.401524 171.775111 
L 536.78 171.775111 
z
" style="fill:#20b2aa;"/>
   </g>
   <g id="patch_183">
    <path clip-path="url(#pd944f9d31e)" d="M 536.78 169.534889 
L 539.376564 169.534889 
L 539.376564 160.574 
L 536.78 160.574 
z
" style="fill:#20b2aa;"/>
   </g>
   <g id="patch_184">
    <path clip-path="url(#pd944f9d31e)" d="M 536.78 158.333778 
L 538.624927 158.333778 
L 538.624927 149.372889 
L 536.78 149.372889 
z
" style="fill:#20b2aa;"/>
   </g>
   <g id="patch_185">
    <path clip-path="url(#pd944f9d31e)" d="M 536.78 147.132667 
L 538.317439 147.132667 
L 538.317439 138.171778 
L 536.78 138.171778 
z
" style="fill:#20b2aa;"/>
   </g>
   <g id="patch_186">
    <path clip-path="url(#pd944f9d31e)" d="M 536.78 135.931556 
L 537.668298 135.931556 
L 537.668298 126.970667 
L 536.78 126.970667 
z
" style="fill:#20b2aa;"/>
   </g>
   <g id="patch_187">
    <path clip-path="url(#pd944f9d31e)" d="M 536.78 124.730444 
L 537.429141 124.730444 
L 537.429141 115.769556 
L 536.78 115.769556 
z
" style="fill:#20b2aa;"/>
   </g>
   <g id="patch_188">
    <path clip-path="url(#pd944f9d31e)" d="M 536.78 113.529333 
L 536.950827 113.529333 
L 536.950827 104.568444 
L 536.78 104.568444 
z
" style="fill:#20b2aa;"/>
   </g>
   <g id="patch_189">
    <path clip-path="url(#pd944f9d31e)" d="M 536.78 102.328222 
L 536.916661 102.328222 
L 536.916661 93.367333 
L 536.78 93.367333 
z
" style="fill:#20b2aa;"/>
   </g>
   <g id="patch_190">
    <path clip-path="url(#pd944f9d31e)" d="M 536.78 91.127111 
L 536.916661 91.127111 
L 536.916661 82.166222 
L 536.78 82.166222 
z
" style="fill:#20b2aa;"/>
   </g>
   <g id="patch_191">
    <path clip-path="url(#pd944f9d31e)" d="M 536.78 79.926 
L 536.882496 79.926 
L 536.882496 70.965111 
L 536.78 70.965111 
z
" style="fill:#20b2aa;"/>
   </g>
   <g id="patch_192">
    <path clip-path="url(#pd944f9d31e)" d="M 536.78 68.724889 
L 536.814165 68.724889 
L 536.814165 59.764 
L 536.78 59.764 
z
" style="fill:#20b2aa;"/>
   </g>
   <g id="patch_193">
    <path clip-path="url(#pd944f9d31e)" d="M 536.78 57.523778 
L 536.814165 57.523778 
L 536.814165 48.562889 
L 536.78 48.562889 
z
" style="fill:#20b2aa;"/>
   </g>
   <g id="patch_194">
    <path clip-path="url(#pd944f9d31e)" d="M 536.78 214.339333 
L 510.5752 214.339333 
L 510.5752 205.378444 
L 536.78 205.378444 
z
" style="fill:#20b2aa;"/>
   </g>
   <g id="patch_195">
    <path clip-path="url(#pd944f9d31e)" d="M 536.78 203.138222 
L 517.339933 203.138222 
L 517.339933 194.177333 
L 536.78 194.177333 
z
" style="fill:#20b2aa;"/>
   </g>
   <g id="patch_196">
    <path clip-path="url(#pd944f9d31e)" d="M 536.78 191.937111 
L 527.521198 191.937111 
L 527.521198 182.976222 
L 536.78 182.976222 
z
" style="fill:#20b2aa;"/>
   </g>
   <g id="patch_197">
    <path clip-path="url(#pd944f9d31e)" d="M 536.78 180.736 
L 533.158476 180.736 
L 533.158476 171.775111 
L 536.78 171.775111 
z
" style="fill:#20b2aa;"/>
   </g>
   <g id="patch_198">
    <path clip-path="url(#pd944f9d31e)" d="M 536.78 169.534889 
L 534.183436 169.534889 
L 534.183436 160.574 
L 536.78 160.574 
z
" style="fill:#20b2aa;"/>
   </g>
   <g id="patch_199">
    <path clip-path="url(#pd944f9d31e)" d="M 536.78 158.333778 
L 534.935073 158.333778 
L 534.935073 149.372889 
L 536.78 149.372889 
z
" style="fill:#20b2aa;"/>
   </g>
   <g id="patch_200">
    <path clip-path="url(#pd944f9d31e)" d="M 536.78 147.132667 
L 535.242561 147.132667 
L 535.242561 138.171778 
L 536.78 138.171778 
z
" style="fill:#20b2aa;"/>
   </g>
   <g id="patch_201">
    <path clip-path="url(#pd944f9d31e)" d="M 536.78 135.931556 
L 535.891702 135.931556 
L 535.891702 126.970667 
L 536.78 126.970667 
z
" style="fill:#20b2aa;"/>
   </g>
   <g id="patch_202">
    <path clip-path="url(#pd944f9d31e)" d="M 536.78 124.730444 
L 536.130859 124.730444 
L 536.130859 115.769556 
L 536.78 115.769556 
z
" style="fill:#20b2aa;"/>
   </g>
   <g id="patch_203">
    <path clip-path="url(#pd944f9d31e)" d="M 536.78 113.529333 
L 536.609173 113.529333 
L 536.609173 104.568444 
L 536.78 104.568444 
z
" style="fill:#20b2aa;"/>
   </g>
   <g id="patch_204">
    <path clip-path="url(#pd944f9d31e)" d="M 536.78 102.328222 
L 536.643339 102.328222 
L 536.643339 93.367333 
L 536.78 93.367333 
z
" style="fill:#20b2aa;"/>
   </g>
   <g id="patch_205">
    <path clip-path="url(#pd944f9d31e)" d="M 536.78 91.127111 
L 536.643339 91.127111 
L 536.643339 82.166222 
L 536.78 82.166222 
z
" style="fill:#20b2aa;"/>
   </g>
   <g id="patch_206">
    <path clip-path="url(#pd944f9d31e)" d="M 536.78 79.926 
L 536.677504 79.926 
L 536.677504 70.965111 
L 536.78 70.965111 
z
" style="fill:#20b2aa;"/>
   </g>
   <g id="patch_207">
    <path clip-path="url(#pd944f9d31e)" d="M 536.78 68.724889 
L 536.745835 68.724889 
L 536.745835 59.764 
L 536.78 59.764 
z
" style="fill:#20b2aa;"/>
   </g>
   <g id="patch_208">
    <path clip-path="url(#pd944f9d31e)" d="M 536.78 57.523778 
L 536.745835 57.523778 
L 536.745835 48.562889 
L 536.78 48.562889 
z
" style="fill:#20b2aa;"/>
   </g>
   <g id="patch_209">
    <path clip-path="url(#pd944f9d31e)" d="M 602.292 214.339333 
L 628.4968 214.339333 
L 628.4968 205.378444 
L 602.292 205.378444 
z
" style="fill:#20b2aa;"/>
   </g>
   <g id="patch_210">
    <path clip-path="url(#pd944f9d31e)" d="M 602.292 203.138222 
L 627.600459 203.138222 
L 627.600459 194.177333 
L 602.292 194.177333 
z
" style="fill:#20b2aa;"/>
   </g>
   <g id="patch_211">
    <path clip-path="url(#pd944f9d31e)" d="M 602.292 191.937111 
L 613.364451 191.937111 
L 613.364451 182.976222 
L 602.292 182.976222 
z
" style="fill:#20b2aa;"/>
   </g>
   <g id="patch_212">
    <path clip-path="url(#pd944f9d31e)" d="M 602.292 180.736 
L 606.299173 180.736 
L 606.299173 171.775111 
L 602.292 171.775111 
z
" style="fill:#20b2aa;"/>
   </g>
   <g id="patch_213">
    <path clip-path="url(#pd944f9d31e)" d="M 602.292 169.534889 
L 604.453764 169.534889 
L 604.453764 160.574 
L 602.292 160.574 
z
" style="fill:#20b2aa;"/>
   </g>
   <g id="patch_214">
    <path clip-path="url(#pd944f9d31e)" d="M 602.292 158.333778 
L 603.926505 158.333778 
L 603.926505 149.372889 
L 602.292 149.372889 
z
" style="fill:#20b2aa;"/>
   </g>
   <g id="patch_215">
    <path clip-path="url(#pd944f9d31e)" d="M 602.292 147.132667 
L 603.715601 147.132667 
L 603.715601 138.171778 
L 602.292 138.171778 
z
" style="fill:#20b2aa;"/>
   </g>
   <g id="patch_216">
    <path clip-path="url(#pd944f9d31e)" d="M 602.292 135.931556 
L 602.713808 135.931556 
L 602.713808 126.970667 
L 602.292 126.970667 
z
" style="fill:#20b2aa;"/>
   </g>
   <g id="patch_217">
    <path clip-path="url(#pd944f9d31e)" d="M 602.292 124.730444 
L 602.977437 124.730444 
L 602.977437 115.769556 
L 602.292 115.769556 
z
" style="fill:#20b2aa;"/>
   </g>
   <g id="patch_218">
    <path clip-path="url(#pd944f9d31e)" d="M 602.292 113.529333 
L 602.661082 113.529333 
L 602.661082 104.568444 
L 602.292 104.568444 
z
" style="fill:#20b2aa;"/>
   </g>
   <g id="patch_219">
    <path clip-path="url(#pd944f9d31e)" d="M 602.292 102.328222 
L 602.450178 102.328222 
L 602.450178 93.367333 
L 602.292 93.367333 
z
" style="fill:#20b2aa;"/>
   </g>
   <g id="patch_220">
    <path clip-path="url(#pd944f9d31e)" d="M 602.292 91.127111 
L 602.397452 91.127111 
L 602.397452 82.166222 
L 602.292 82.166222 
z
" style="fill:#20b2aa;"/>
   </g>
   <g id="patch_221">
    <path clip-path="url(#pd944f9d31e)" d="M 602.292 79.926 
L 602.292 79.926 
L 602.292 70.965111 
L 602.292 70.965111 
z
" style="fill:#20b2aa;"/>
   </g>
   <g id="patch_222">
    <path clip-path="url(#pd944f9d31e)" d="M 602.292 68.724889 
L 602.344726 68.724889 
L 602.344726 59.764 
L 602.292 59.764 
z
" style="fill:#20b2aa;"/>
   </g>
   <g id="patch_223">
    <path clip-path="url(#pd944f9d31e)" d="M 602.292 57.523778 
L 602.344726 57.523778 
L 602.344726 48.562889 
L 602.292 48.562889 
z
" style="fill:#20b2aa;"/>
   </g>
   <g id="patch_224">
    <path clip-path="url(#pd944f9d31e)" d="M 602.292 214.339333 
L 576.0872 214.339333 
L 576.0872 205.378444 
L 602.292 205.378444 
z
" style="fill:#20b2aa;"/>
   </g>
   <g id="patch_225">
    <path clip-path="url(#pd944f9d31e)" d="M 602.292 203.138222 
L 576.983541 203.138222 
L 576.983541 194.177333 
L 602.292 194.177333 
z
" style="fill:#20b2aa;"/>
   </g>
   <g id="patch_226">
    <path clip-path="url(#pd944f9d31e)" d="M 602.292 191.937111 
L 591.219549 191.937111 
L 591.219549 182.976222 
L 602.292 182.976222 
z
" style="fill:#20b2aa;"/>
   </g>
   <g id="patch_227">
    <path clip-path="url(#pd944f9d31e)" d="M 602.292 180.736 
L 598.284827 180.736 
L 598.284827 171.775111 
L 602.292 171.775111 
z
" style="fill:#20b2aa;"/>
   </g>
   <g id="patch_228">
    <path clip-path="url(#pd944f9d31e)" d="M 602.292 169.534889 
L 600.130236 169.534889 
L 600.130236 160.574 
L 602.292 160.574 
z
" style="fill:#20b2aa;"/>
   </g>
   <g id="patch_229">
    <path clip-path="url(#pd944f9d31e)" d="M 602.292 158.333778 
L 600.657495 158.333778 
L 600.657495 149.372889 
L 602.292 149.372889 
z
" style="fill:#20b2aa;"/>
   </g>
   <g id="patch_230">
    <path clip-path="url(#pd944f9d31e)" d="M 602.292 147.132667 
L 600.868399 147.132667 
L 600.868399 138.171778 
L 602.292 138.171778 
z
" style="fill:#20b2aa;"/>
   </g>
   <g id="patch_231">
    <path clip-path="url(#pd944f9d31e)" d="M 602.292 135.931556 
L 601.870192 135.931556 
L 601.870192 126.970667 
L 602.292 126.970667 
z
" style="fill:#20b2aa;"/>
   </g>
   <g id="patch_232">
    <path clip-path="url(#pd944f9d31e)" d="M 602.292 124.730444 
L 601.606563 124.730444 
L 601.606563 115.769556 
L 602.292 115.769556 
z
" style="fill:#20b2aa;"/>
   </g>
   <g id="patch_233">
    <path clip-path="url(#pd944f9d31e)" d="M 602.292 113.529333 
L 601.922918 113.529333 
L 601.922918 104.568444 
L 602.292 104.568444 
z
" style="fill:#20b2aa;"/>
   </g>
   <g id="patch_234">
    <path clip-path="url(#pd944f9d31e)" d="M 602.292 102.328222 
L 602.133822 102.328222 
L 602.133822 93.367333 
L 602.292 93.367333 
z
" style="fill:#20b2aa;"/>
   </g>
   <g id="patch_235">
    <path clip-path="url(#pd944f9d31e)" d="M 602.292 91.127111 
L 602.186548 91.127111 
L 602.186548 82.166222 
L 602.292 82.166222 
z
" style="fill:#20b2aa;"/>
   </g>
   <g id="patch_236">
    <path clip-path="url(#pd944f9d31e)" d="M 602.292 79.926 
L 602.292 79.926 
L 602.292 70.965111 
L 602.292 70.965111 
z
" style="fill:#20b2aa;"/>
   </g>
   <g id="patch_237">
    <path clip-path="url(#pd944f9d31e)" d="M 602.292 68.724889 
L 602.239274 68.724889 
L 602.239274 59.764 
L 602.292 59.764 
z
" style="fill:#20b2aa;"/>
   </g>
   <g id="patch_238">
    <path clip-path="url(#pd944f9d31e)" d="M 602.292 57.523778 
L 602.239274 57.523778 
L 602.239274 48.562889 
L 602.292 48.562889 
z
" style="fill:#20b2aa;"/>
   </g>
   <g id="patch_239">
    <path clip-path="url(#pd944f9d31e)" d="M 667.804 214.339333 
L 694.0088 214.339333 
L 694.0088 205.378444 
L 667.804 205.378444 
z
" style="fill:#20b2aa;"/>
   </g>
   <g id="patch_240">
    <path clip-path="url(#pd944f9d31e)" d="M 667.804 203.138222 
L 684.671457 203.138222 
L 684.671457 194.177333 
L 667.804 194.177333 
z
" style="fill:#20b2aa;"/>
   </g>
   <g id="patch_241">
    <path clip-path="url(#pd944f9d31e)" d="M 667.804 191.937111 
L 678.647366 191.937111 
L 678.647366 182.976222 
L 667.804 182.976222 
z
" style="fill:#20b2aa;"/>
   </g>
   <g id="patch_242">
    <path clip-path="url(#pd944f9d31e)" d="M 667.804 180.736 
L 672.623274 180.736 
L 672.623274 171.775111 
L 667.804 171.775111 
z
" style="fill:#20b2aa;"/>
   </g>
   <g id="patch_243">
    <path clip-path="url(#pd944f9d31e)" d="M 667.804 169.534889 
L 671.06705 169.534889 
L 671.06705 160.574 
L 667.804 160.574 
z
" style="fill:#20b2aa;"/>
   </g>
   <g id="patch_244">
    <path clip-path="url(#pd944f9d31e)" d="M 667.804 158.333778 
L 670.615243 158.333778 
L 670.615243 149.372889 
L 667.804 149.372889 
z
" style="fill:#20b2aa;"/>
   </g>
   <g id="patch_245">
    <path clip-path="url(#pd944f9d31e)" d="M 667.804 147.132667 
L 669.059019 147.132667 
L 669.059019 138.171778 
L 667.804 138.171778 
z
" style="fill:#20b2aa;"/>
   </g>
   <g id="patch_246">
    <path clip-path="url(#pd944f9d31e)" d="M 667.804 135.931556 
L 668.45661 135.931556 
L 668.45661 126.970667 
L 667.804 126.970667 
z
" style="fill:#20b2aa;"/>
   </g>
   <g id="patch_247">
    <path clip-path="url(#pd944f9d31e)" d="M 667.804 124.730444 
L 668.205606 124.730444 
L 668.205606 115.769556 
L 667.804 115.769556 
z
" style="fill:#20b2aa;"/>
   </g>
   <g id="patch_248">
    <path clip-path="url(#pd944f9d31e)" d="M 667.804 113.529333 
L 668.356208 113.529333 
L 668.356208 104.568444 
L 667.804 104.568444 
z
" style="fill:#20b2aa;"/>
   </g>
   <g id="patch_249">
    <path clip-path="url(#pd944f9d31e)" d="M 667.804 102.328222 
L 667.954602 102.328222 
L 667.954602 93.367333 
L 667.804 93.367333 
z
" style="fill:#20b2aa;"/>
   </g>
   <g id="patch_250">
    <path clip-path="url(#pd944f9d31e)" d="M 667.804 91.127111 
L 667.804 91.127111 
L 667.804 82.166222 
L 667.804 82.166222 
z
" style="fill:#20b2aa;"/>
   </g>
   <g id="patch_251">
    <path clip-path="url(#pd944f9d31e)" d="M 667.804 79.926 
L 667.954602 79.926 
L 667.954602 70.965111 
L 667.804 70.965111 
z
" style="fill:#20b2aa;"/>
   </g>
   <g id="patch_252">
    <path clip-path="url(#pd944f9d31e)" d="M 667.804 214.339333 
L 641.5992 214.339333 
L 641.5992 205.378444 
L 667.804 205.378444 
z
" style="fill:#20b2aa;"/>
   </g>
   <g id="patch_253">
    <path clip-path="url(#pd944f9d31e)" d="M 667.804 203.138222 
L 650.936543 203.138222 
L 650.936543 194.177333 
L 667.804 194.177333 
z
" style="fill:#20b2aa;"/>
   </g>
   <g id="patch_254">
    <path clip-path="url(#pd944f9d31e)" d="M 667.804 191.937111 
L 656.960634 191.937111 
L 656.960634 182.976222 
L 667.804 182.976222 
z
" style="fill:#20b2aa;"/>
   </g>
   <g id="patch_255">
    <path clip-path="url(#pd944f9d31e)" d="M 667.804 180.736 
L 662.984726 180.736 
L 662.984726 171.775111 
L 667.804 171.775111 
z
" style="fill:#20b2aa;"/>
   </g>
   <g id="patch_256">
    <path clip-path="url(#pd944f9d31e)" d="M 667.804 169.534889 
L 664.54095 169.534889 
L 664.54095 160.574 
L 667.804 160.574 
z
" style="fill:#20b2aa;"/>
   </g>
   <g id="patch_257">
    <path clip-path="url(#pd944f9d31e)" d="M 667.804 158.333778 
L 664.992757 158.333778 
L 664.992757 149.372889 
L 667.804 149.372889 
z
" style="fill:#20b2aa;"/>
   </g>
   <g id="patch_258">
    <path clip-path="url(#pd944f9d31e)" d="M 667.804 147.132667 
L 666.548981 147.132667 
L 666.548981 138.171778 
L 667.804 138.171778 
z
" style="fill:#20b2aa;"/>
   </g>
   <g id="patch_259">
    <path clip-path="url(#pd944f9d31e)" d="M 667.804 135.931556 
L 667.15139 135.931556 
L 667.15139 126.970667 
L 667.804 126.970667 
z
" style="fill:#20b2aa;"/>
   </g>
   <g id="patch_260">
    <path clip-path="url(#pd944f9d31e)" d="M 667.804 124.730444 
L 667.402394 124.730444 
L 667.402394 115.769556 
L 667.804 115.769556 
z
" style="fill:#20b2aa;"/>
   </g>
   <g id="patch_261">
    <path clip-path="url(#pd944f9d31e)" d="M 667.804 113.529333 
L 667.251792 113.529333 
L 667.251792 104.568444 
L 667.804 104.568444 
z
" style="fill:#20b2aa;"/>
   </g>
   <g id="patch_262">
    <path clip-path="url(#pd944f9d31e)" d="M 667.804 102.328222 
L 667.653398 102.328222 
L 667.653398 93.367333 
L 667.804 93.367333 
z
" style="fill:#20b2aa;"/>
   </g>
   <g id="patch_263">
    <path clip-path="url(#pd944f9d31e)" d="M 667.804 91.127111 
L 667.804 91.127111 
L 667.804 82.166222 
L 667.804 82.166222 
z
" style="fill:#20b2aa;"/>
   </g>
   <g id="patch_264">
    <path clip-path="url(#pd944f9d31e)" d="M 667.804 79.926 
L 667.653398 79.926 
L 667.653398 70.965111 
L 667.804 70.965111 
z
" style="fill:#20b2aa;"/>
   </g>
   <g id="line2d_19">
    <path clip-path="url(#pd944f9d31e)" d="M 78.196 209.858889 
L 78.196 153.853333 
" style="fill:none;stroke:#484848;stroke-linecap:round;stroke-width:1.5;"/>
   </g>
   <g id="line2d_20">
    <path clip-path="url(#pd944f9d31e)" d="M 78.196 209.858889 
L 78.196 187.456667 
" style="fill:none;stroke:#484848;stroke-linecap:round;stroke-width:4.5;"/>
   </g>
   <g id="line2d_21">
    <path clip-path="url(#pd944f9d31e)" d="M 143.708 209.858889 
L 143.708 176.255556 
" style="fill:none;stroke:#484848;stroke-linecap:round;stroke-width:1.5;"/>
   </g>
   <g id="line2d_22">
    <path clip-path="url(#pd944f9d31e)" d="M 143.708 198.657778 
L 143.708 187.456667 
" style="fill:none;stroke:#484848;stroke-linecap:round;stroke-width:4.5;"/>
   </g>
   <g id="line2d_23">
    <path clip-path="url(#pd944f9d31e)" d="M 209.22 209.858889 
L 209.22 153.853333 
" style="fill:none;stroke:#484848;stroke-linecap:round;stroke-width:1.5;"/>
   </g>
   <g id="line2d_24">
    <path clip-path="url(#pd944f9d31e)" d="M 209.22 209.858889 
L 209.22 187.456667 
" style="fill:none;stroke:#484848;stroke-linecap:round;stroke-width:4.5;"/>
   </g>
   <g id="line2d_25">
    <path clip-path="url(#pd944f9d31e)" d="M 274.732 209.858889 
L 274.732 153.853333 
" style="fill:none;stroke:#484848;stroke-linecap:round;stroke-width:1.5;"/>
   </g>
   <g id="line2d_26">
    <path clip-path="url(#pd944f9d31e)" d="M 274.732 209.858889 
L 274.732 187.456667 
" style="fill:none;stroke:#484848;stroke-linecap:round;stroke-width:4.5;"/>
   </g>
   <g id="line2d_27">
    <path clip-path="url(#pd944f9d31e)" d="M 340.244 209.858889 
L 340.244 176.255556 
" style="fill:none;stroke:#484848;stroke-linecap:round;stroke-width:1.5;"/>
   </g>
   <g id="line2d_28">
    <path clip-path="url(#pd944f9d31e)" d="M 340.244 198.657778 
L 340.244 187.456667 
" style="fill:none;stroke:#484848;stroke-linecap:round;stroke-width:4.5;"/>
   </g>
   <g id="line2d_29">
    <path clip-path="url(#pd944f9d31e)" d="M 405.756 209.858889 
L 405.756 176.255556 
" style="fill:none;stroke:#484848;stroke-linecap:round;stroke-width:1.5;"/>
   </g>
   <g id="line2d_30">
    <path clip-path="url(#pd944f9d31e)" d="M 405.756 198.657778 
L 405.756 187.456667 
" style="fill:none;stroke:#484848;stroke-linecap:round;stroke-width:4.5;"/>
   </g>
   <g id="line2d_31">
    <path clip-path="url(#pd944f9d31e)" d="M 471.268 209.858889 
L 471.268 153.853333 
" style="fill:none;stroke:#484848;stroke-linecap:round;stroke-width:1.5;"/>
   </g>
   <g id="line2d_32">
    <path clip-path="url(#pd944f9d31e)" d="M 471.268 209.858889 
L 471.268 187.456667 
" style="fill:none;stroke:#484848;stroke-linecap:round;stroke-width:4.5;"/>
   </g>
   <g id="line2d_33">
    <path clip-path="url(#pd944f9d31e)" d="M 536.78 209.858889 
L 536.78 153.853333 
" style="fill:none;stroke:#484848;stroke-linecap:round;stroke-width:1.5;"/>
   </g>
   <g id="line2d_34">
    <path clip-path="url(#pd944f9d31e)" d="M 536.78 209.858889 
L 536.78 187.456667 
" style="fill:none;stroke:#484848;stroke-linecap:round;stroke-width:4.5;"/>
   </g>
   <g id="line2d_35">
    <path clip-path="url(#pd944f9d31e)" d="M 602.292 209.858889 
L 602.292 153.853333 
" style="fill:none;stroke:#484848;stroke-linecap:round;stroke-width:1.5;"/>
   </g>
   <g id="line2d_36">
    <path clip-path="url(#pd944f9d31e)" d="M 602.292 209.858889 
L 602.292 187.456667 
" style="fill:none;stroke:#484848;stroke-linecap:round;stroke-width:4.5;"/>
   </g>
   <g id="line2d_37">
    <path clip-path="url(#pd944f9d31e)" d="M 667.804 209.858889 
L 667.804 153.853333 
" style="fill:none;stroke:#484848;stroke-linecap:round;stroke-width:1.5;"/>
   </g>
   <g id="line2d_38">
    <path clip-path="url(#pd944f9d31e)" d="M 667.804 209.858889 
L 667.804 187.456667 
" style="fill:none;stroke:#484848;stroke-linecap:round;stroke-width:4.5;"/>
   </g>
   <g id="PathCollection_1">
    <defs>
     <path d="M 3.535534 0 
L -3.535534 -0 
" id="mecf9653530" style="stroke:#1a1a1a;stroke-width:1.75;"/>
    </defs>
    <g clip-path="url(#pd944f9d31e)">
     <use style="fill:#1a1a1a;stroke:#1a1a1a;stroke-width:1.75;" x="78.196" xlink:href="#mecf9653530" y="41.842222"/>
    </g>
   </g>
   <g id="PathCollection_2">
    <g clip-path="url(#pd944f9d31e)">
     <use style="fill:#1a1a1a;stroke:#1a1a1a;stroke-width:1.75;" x="143.708" xlink:href="#mecf9653530" y="120.25"/>
    </g>
   </g>
   <g id="PathCollection_3">
    <g clip-path="url(#pd944f9d31e)">
     <use style="fill:#1a1a1a;stroke:#1a1a1a;stroke-width:1.75;" x="209.22" xlink:href="#mecf9653530" y="53.043333"/>
    </g>
   </g>
   <g id="PathCollection_4">
    <g clip-path="url(#pd944f9d31e)">
     <use style="fill:#1a1a1a;stroke:#1a1a1a;stroke-width:1.75;" x="274.732" xlink:href="#mecf9653530" y="41.842222"/>
    </g>
   </g>
   <g id="PathCollection_5">
    <g clip-path="url(#pd944f9d31e)">
     <use style="fill:#1a1a1a;stroke:#1a1a1a;stroke-width:1.75;" x="340.244" xlink:href="#mecf9653530" y="120.25"/>
    </g>
   </g>
   <g id="PathCollection_6">
    <g clip-path="url(#pd944f9d31e)">
     <use style="fill:#1a1a1a;stroke:#1a1a1a;stroke-width:1.75;" x="405.756" xlink:href="#mecf9653530" y="120.25"/>
    </g>
   </g>
   <g id="PathCollection_7">
    <g clip-path="url(#pd944f9d31e)">
     <use style="fill:#1a1a1a;stroke:#1a1a1a;stroke-width:1.75;" x="471.268" xlink:href="#mecf9653530" y="64.244444"/>
    </g>
   </g>
   <g id="PathCollection_8">
    <g clip-path="url(#pd944f9d31e)">
     <use style="fill:#1a1a1a;stroke:#1a1a1a;stroke-width:1.75;" x="536.78" xlink:href="#mecf9653530" y="53.043333"/>
    </g>
   </g>
   <g id="PathCollection_9">
    <g clip-path="url(#pd944f9d31e)">
     <use style="fill:#1a1a1a;stroke:#1a1a1a;stroke-width:1.75;" x="602.292" xlink:href="#mecf9653530" y="53.043333"/>
    </g>
   </g>
   <g id="PathCollection_10">
    <g clip-path="url(#pd944f9d31e)">
     <use style="fill:#1a1a1a;stroke:#1a1a1a;stroke-width:1.75;" x="667.804" xlink:href="#mecf9653530" y="75.445556"/>
    </g>
   </g>
   <g id="PathCollection_11">
    <defs>
     <path d="M 0 1.5 
C 0.397805 1.5 0.77937 1.341951 1.06066 1.06066 
C 1.341951 0.77937 1.5 0.397805 1.5 0 
C 1.5 -0.397805 1.341951 -0.77937 1.06066 -1.06066 
C 0.77937 -1.341951 0.397805 -1.5 0 -1.5 
C -0.397805 -1.5 -0.77937 -1.341951 -1.06066 -1.06066 
C -1.341951 -0.77937 -1.5 -0.397805 -1.5 0 
C -1.5 0.397805 -1.341951 0.77937 -1.06066 1.06066 
C -0.77937 1.341951 -0.397805 1.5 0 1.5 
z
" id="m8c63561f24" style="stroke:#484848;stroke-width:0.3;"/>
    </defs>
    <g clip-path="url(#pd944f9d31e)">
     <use style="fill:#ffffff;stroke:#484848;stroke-width:0.3;" x="78.196" xlink:href="#m8c63561f24" y="198.657778"/>
    </g>
   </g>
   <g id="PathCollection_12">
    <g clip-path="url(#pd944f9d31e)">
     <use style="fill:#ffffff;stroke:#484848;stroke-width:0.3;" x="143.708" xlink:href="#m8c63561f24" y="198.657778"/>
    </g>
   </g>
   <g id="PathCollection_13">
    <g clip-path="url(#pd944f9d31e)">
     <use style="fill:#ffffff;stroke:#484848;stroke-width:0.3;" x="209.22" xlink:href="#m8c63561f24" y="198.657778"/>
    </g>
   </g>
   <g id="PathCollection_14">
    <g clip-path="url(#pd944f9d31e)">
     <use style="fill:#ffffff;stroke:#484848;stroke-width:0.3;" x="274.732" xlink:href="#m8c63561f24" y="198.657778"/>
    </g>
   </g>
   <g id="PathCollection_15">
    <g clip-path="url(#pd944f9d31e)">
     <use style="fill:#ffffff;stroke:#484848;stroke-width:0.3;" x="340.244" xlink:href="#m8c63561f24" y="198.657778"/>
    </g>
   </g>
   <g id="PathCollection_16">
    <g clip-path="url(#pd944f9d31e)">
     <use style="fill:#ffffff;stroke:#484848;stroke-width:0.3;" x="405.756" xlink:href="#m8c63561f24" y="198.657778"/>
    </g>
   </g>
   <g id="PathCollection_17">
    <g clip-path="url(#pd944f9d31e)">
     <use style="fill:#ffffff;stroke:#484848;stroke-width:0.3;" x="471.268" xlink:href="#m8c63561f24" y="198.657778"/>
    </g>
   </g>
   <g id="PathCollection_18">
    <g clip-path="url(#pd944f9d31e)">
     <use style="fill:#ffffff;stroke:#484848;stroke-width:0.3;" x="536.78" xlink:href="#m8c63561f24" y="198.657778"/>
    </g>
   </g>
   <g id="PathCollection_19">
    <g clip-path="url(#pd944f9d31e)">
     <use style="fill:#ffffff;stroke:#484848;stroke-width:0.3;" x="602.292" xlink:href="#m8c63561f24" y="198.657778"/>
    </g>
   </g>
   <g id="PathCollection_20">
    <g clip-path="url(#pd944f9d31e)">
     <use style="fill:#ffffff;stroke:#484848;stroke-width:0.3;" x="667.804" xlink:href="#m8c63561f24" y="198.657778"/>
    </g>
   </g>
  </g>
 </g>
 <defs>
  <clipPath id="pd944f9d31e">
   <rect height="201.62" width="655.12" x="45.44" y="19.44"/>
  </clipPath>
 </defs>
</svg>
