<?xml version="1.0" encoding="utf-8" standalone="no"?>
<!DOCTYPE svg PUBLIC "-//W3C//DTD SVG 1.1//EN"
  "http://www.w3.org/Graphics/SVG/1.1/DTD/svg11.dtd">
<!-- Created with matplotlib (http://matplotlib.org/) -->
<svg height="432pt" version="1.1" viewBox="0 0 720 432" width="720pt" xmlns="http://www.w3.org/2000/svg" xmlns:xlink="http://www.w3.org/1999/xlink">
 <defs>
  <style type="text/css">
*{stroke-linecap:butt;stroke-linejoin:round;}
  </style>
 </defs>
 <g id="figure_1">
  <g id="patch_1">
   <path d="M 0 432 
L 720 432 
L 720 0 
L 0 0 
z
" style="fill:#ffffff;"/>
  </g>
  <g id="axes_1">
   <g id="patch_2">
    <path d="M 59.085 316.04 
L 707.04 316.04 
L 707.04 12.96 
L 59.085 12.96 
z
" style="fill:#ffffff;"/>
   </g>
   <g id="matplotlib.axis_1">
    <g id="xtick_1">
     <g id="line2d_1">
      <path clip-path="url(#p292d4792e2)" d="M 68.9025 316.04 
L 68.9025 12.96 
" style="fill:none;opacity:0.3;stroke:#cccccc;stroke-linecap:round;"/>
     </g>
     <g id="line2d_2"/>
     <g id="text_1">
      <!-- case13659_pegase -->
      <defs>
       <path d="M 48.78125 52.59375 
L 48.78125 44.1875 
Q 44.96875 46.296875 41.140625 47.34375 
Q 37.3125 48.390625 33.40625 48.390625 
Q 24.65625 48.390625 19.8125 42.84375 
Q 14.984375 37.3125 14.984375 27.296875 
Q 14.984375 17.28125 19.8125 11.734375 
Q 24.65625 6.203125 33.40625 6.203125 
Q 37.3125 6.203125 41.140625 7.25 
Q 44.96875 8.296875 48.78125 10.40625 
L 48.78125 2.09375 
Q 45.015625 0.34375 40.984375 -0.53125 
Q 36.96875 -1.421875 32.421875 -1.421875 
Q 20.0625 -1.421875 12.78125 6.34375 
Q 5.515625 14.109375 5.515625 27.296875 
Q 5.515625 40.671875 12.859375 48.328125 
Q 20.21875 56 33.015625 56 
Q 37.15625 56 41.109375 55.140625 
Q 45.0625 54.296875 48.78125 52.59375 
z
" id="DejaVuSans-63"/>
       <path d="M 34.28125 27.484375 
Q 23.390625 27.484375 19.1875 25 
Q 14.984375 22.515625 14.984375 16.5 
Q 14.984375 11.71875 18.140625 8.90625 
Q 21.296875 6.109375 26.703125 6.109375 
Q 34.1875 6.109375 38.703125 11.40625 
Q 43.21875 16.703125 43.21875 25.484375 
L 43.21875 27.484375 
z
M 52.203125 31.203125 
L 52.203125 0 
L 43.21875 0 
L 43.21875 8.296875 
Q 40.140625 3.328125 35.546875 0.953125 
Q 30.953125 -1.421875 24.3125 -1.421875 
Q 15.921875 -1.421875 10.953125 3.296875 
Q 6 8.015625 6 15.921875 
Q 6 25.140625 12.171875 29.828125 
Q 18.359375 34.515625 30.609375 34.515625 
L 43.21875 34.515625 
L 43.21875 35.40625 
Q 43.21875 41.609375 39.140625 45 
Q 35.0625 48.390625 27.6875 48.390625 
Q 23 48.390625 18.546875 47.265625 
Q 14.109375 46.140625 10.015625 43.890625 
L 10.015625 52.203125 
Q 14.9375 54.109375 19.578125 55.046875 
Q 24.21875 56 28.609375 56 
Q 40.484375 56 46.34375 49.84375 
Q 52.203125 43.703125 52.203125 31.203125 
z
" id="DejaVuSans-61"/>
       <path d="M 44.28125 53.078125 
L 44.28125 44.578125 
Q 40.484375 46.53125 36.375 47.5 
Q 32.28125 48.484375 27.875 48.484375 
Q 21.1875 48.484375 17.84375 46.4375 
Q 14.5 44.390625 14.5 40.28125 
Q 14.5 37.15625 16.890625 35.375 
Q 19.28125 33.59375 26.515625 31.984375 
L 29.59375 31.296875 
Q 39.15625 29.25 43.1875 25.515625 
Q 47.21875 21.78125 47.21875 15.09375 
Q 47.21875 7.46875 41.1875 3.015625 
Q 35.15625 -1.421875 24.609375 -1.421875 
Q 20.21875 -1.421875 15.453125 -0.5625 
Q 10.6875 0.296875 5.421875 2 
L 5.421875 11.28125 
Q 10.40625 8.6875 15.234375 7.390625 
Q 20.0625 6.109375 24.8125 6.109375 
Q 31.15625 6.109375 34.5625 8.28125 
Q 37.984375 10.453125 37.984375 14.40625 
Q 37.984375 18.0625 35.515625 20.015625 
Q 33.0625 21.96875 24.703125 23.78125 
L 21.578125 24.515625 
Q 13.234375 26.265625 9.515625 29.90625 
Q 5.8125 33.546875 5.8125 39.890625 
Q 5.8125 47.609375 11.28125 51.796875 
Q 16.75 56 26.8125 56 
Q 31.78125 56 36.171875 55.265625 
Q 40.578125 54.546875 44.28125 53.078125 
z
" id="DejaVuSans-73"/>
       <path d="M 56.203125 29.59375 
L 56.203125 25.203125 
L 14.890625 25.203125 
Q 15.484375 15.921875 20.484375 11.0625 
Q 25.484375 6.203125 34.421875 6.203125 
Q 39.59375 6.203125 44.453125 7.46875 
Q 49.3125 8.734375 54.109375 11.28125 
L 54.109375 2.78125 
Q 49.265625 0.734375 44.1875 -0.34375 
Q 39.109375 -1.421875 33.890625 -1.421875 
Q 20.796875 -1.421875 13.15625 6.1875 
Q 5.515625 13.8125 5.515625 26.8125 
Q 5.515625 40.234375 12.765625 48.109375 
Q 20.015625 56 32.328125 56 
Q 43.359375 56 49.78125 48.890625 
Q 56.203125 41.796875 56.203125 29.59375 
z
M 47.21875 32.234375 
Q 47.125 39.59375 43.09375 43.984375 
Q 39.0625 48.390625 32.421875 48.390625 
Q 24.90625 48.390625 20.390625 44.140625 
Q 15.875 39.890625 15.1875 32.171875 
z
" id="DejaVuSans-65"/>
       <path d="M 12.40625 8.296875 
L 28.515625 8.296875 
L 28.515625 63.921875 
L 10.984375 60.40625 
L 10.984375 69.390625 
L 28.421875 72.90625 
L 38.28125 72.90625 
L 38.28125 8.296875 
L 54.390625 8.296875 
L 54.390625 0 
L 12.40625 0 
z
" id="DejaVuSans-31"/>
       <path d="M 40.578125 39.3125 
Q 47.65625 37.796875 51.625 33 
Q 55.609375 28.21875 55.609375 21.1875 
Q 55.609375 10.40625 48.1875 4.484375 
Q 40.765625 -1.421875 27.09375 -1.421875 
Q 22.515625 -1.421875 17.65625 -0.515625 
Q 12.796875 0.390625 7.625 2.203125 
L 7.625 11.71875 
Q 11.71875 9.328125 16.59375 8.109375 
Q 21.484375 6.890625 26.8125 6.890625 
Q 36.078125 6.890625 40.9375 10.546875 
Q 45.796875 14.203125 45.796875 21.1875 
Q 45.796875 27.640625 41.28125 31.265625 
Q 36.765625 34.90625 28.71875 34.90625 
L 20.21875 34.90625 
L 20.21875 43.015625 
L 29.109375 43.015625 
Q 36.375 43.015625 40.234375 45.921875 
Q 44.09375 48.828125 44.09375 54.296875 
Q 44.09375 59.90625 40.109375 62.90625 
Q 36.140625 65.921875 28.71875 65.921875 
Q 24.65625 65.921875 20.015625 65.03125 
Q 15.375 64.15625 9.8125 62.3125 
L 9.8125 71.09375 
Q 15.4375 72.65625 20.34375 73.4375 
Q 25.25 74.21875 29.59375 74.21875 
Q 40.828125 74.21875 47.359375 69.109375 
Q 53.90625 64.015625 53.90625 55.328125 
Q 53.90625 49.265625 50.4375 45.09375 
Q 46.96875 40.921875 40.578125 39.3125 
z
" id="DejaVuSans-33"/>
       <path d="M 33.015625 40.375 
Q 26.375 40.375 22.484375 35.828125 
Q 18.609375 31.296875 18.609375 23.390625 
Q 18.609375 15.53125 22.484375 10.953125 
Q 26.375 6.390625 33.015625 6.390625 
Q 39.65625 6.390625 43.53125 10.953125 
Q 47.40625 15.53125 47.40625 23.390625 
Q 47.40625 31.296875 43.53125 35.828125 
Q 39.65625 40.375 33.015625 40.375 
z
M 52.59375 71.296875 
L 52.59375 62.3125 
Q 48.875 64.0625 45.09375 64.984375 
Q 41.3125 65.921875 37.59375 65.921875 
Q 27.828125 65.921875 22.671875 59.328125 
Q 17.53125 52.734375 16.796875 39.40625 
Q 19.671875 43.65625 24.015625 45.921875 
Q 28.375 48.1875 33.59375 48.1875 
Q 44.578125 48.1875 50.953125 41.515625 
Q 57.328125 34.859375 57.328125 23.390625 
Q 57.328125 12.15625 50.6875 5.359375 
Q 44.046875 -1.421875 33.015625 -1.421875 
Q 20.359375 -1.421875 13.671875 8.265625 
Q 6.984375 17.96875 6.984375 36.375 
Q 6.984375 53.65625 15.1875 63.9375 
Q 23.390625 74.21875 37.203125 74.21875 
Q 40.921875 74.21875 44.703125 73.484375 
Q 48.484375 72.75 52.59375 71.296875 
z
" id="DejaVuSans-36"/>
       <path d="M 10.796875 72.90625 
L 49.515625 72.90625 
L 49.515625 64.59375 
L 19.828125 64.59375 
L 19.828125 46.734375 
Q 21.96875 47.46875 24.109375 47.828125 
Q 26.265625 48.1875 28.421875 48.1875 
Q 40.625 48.1875 47.75 41.5 
Q 54.890625 34.8125 54.890625 23.390625 
Q 54.890625 11.625 47.5625 5.09375 
Q 40.234375 -1.421875 26.90625 -1.421875 
Q 22.3125 -1.421875 17.546875 -0.640625 
Q 12.796875 0.140625 7.71875 1.703125 
L 7.71875 11.625 
Q 12.109375 9.234375 16.796875 8.0625 
Q 21.484375 6.890625 26.703125 6.890625 
Q 35.15625 6.890625 40.078125 11.328125 
Q 45.015625 15.765625 45.015625 23.390625 
Q 45.015625 31 40.078125 35.4375 
Q 35.15625 39.890625 26.703125 39.890625 
Q 22.75 39.890625 18.8125 39.015625 
Q 14.890625 38.140625 10.796875 36.28125 
z
" id="DejaVuSans-35"/>
       <path d="M 10.984375 1.515625 
L 10.984375 10.5 
Q 14.703125 8.734375 18.5 7.8125 
Q 22.3125 6.890625 25.984375 6.890625 
Q 35.75 6.890625 40.890625 13.453125 
Q 46.046875 20.015625 46.78125 33.40625 
Q 43.953125 29.203125 39.59375 26.953125 
Q 35.25 24.703125 29.984375 24.703125 
Q 19.046875 24.703125 12.671875 31.3125 
Q 6.296875 37.9375 6.296875 49.421875 
Q 6.296875 60.640625 12.9375 67.421875 
Q 19.578125 74.21875 30.609375 74.21875 
Q 43.265625 74.21875 49.921875 64.515625 
Q 56.59375 54.828125 56.59375 36.375 
Q 56.59375 19.140625 48.40625 8.859375 
Q 40.234375 -1.421875 26.421875 -1.421875 
Q 22.703125 -1.421875 18.890625 -0.6875 
Q 15.09375 0.046875 10.984375 1.515625 
z
M 30.609375 32.421875 
Q 37.25 32.421875 41.125 36.953125 
Q 45.015625 41.5 45.015625 49.421875 
Q 45.015625 57.28125 41.125 61.84375 
Q 37.25 66.40625 30.609375 66.40625 
Q 23.96875 66.40625 20.09375 61.84375 
Q 16.21875 57.28125 16.21875 49.421875 
Q 16.21875 41.5 20.09375 36.953125 
Q 23.96875 32.421875 30.609375 32.421875 
z
" id="DejaVuSans-39"/>
       <path d="M 50.984375 -16.609375 
L 50.984375 -23.578125 
L -0.984375 -23.578125 
L -0.984375 -16.609375 
z
" id="DejaVuSans-5f"/>
       <path d="M 18.109375 8.203125 
L 18.109375 -20.796875 
L 9.078125 -20.796875 
L 9.078125 54.6875 
L 18.109375 54.6875 
L 18.109375 46.390625 
Q 20.953125 51.265625 25.265625 53.625 
Q 29.59375 56 35.59375 56 
Q 45.5625 56 51.78125 48.09375 
Q 58.015625 40.1875 58.015625 27.296875 
Q 58.015625 14.40625 51.78125 6.484375 
Q 45.5625 -1.421875 35.59375 -1.421875 
Q 29.59375 -1.421875 25.265625 0.953125 
Q 20.953125 3.328125 18.109375 8.203125 
z
M 48.6875 27.296875 
Q 48.6875 37.203125 44.609375 42.84375 
Q 40.53125 48.484375 33.40625 48.484375 
Q 26.265625 48.484375 22.1875 42.84375 
Q 18.109375 37.203125 18.109375 27.296875 
Q 18.109375 17.390625 22.1875 11.75 
Q 26.265625 6.109375 33.40625 6.109375 
Q 40.53125 6.109375 44.609375 11.75 
Q 48.6875 17.390625 48.6875 27.296875 
z
" id="DejaVuSans-70"/>
       <path d="M 45.40625 27.984375 
Q 45.40625 37.75 41.375 43.109375 
Q 37.359375 48.484375 30.078125 48.484375 
Q 22.859375 48.484375 18.828125 43.109375 
Q 14.796875 37.75 14.796875 27.984375 
Q 14.796875 18.265625 18.828125 12.890625 
Q 22.859375 7.515625 30.078125 7.515625 
Q 37.359375 7.515625 41.375 12.890625 
Q 45.40625 18.265625 45.40625 27.984375 
z
M 54.390625 6.78125 
Q 54.390625 -7.171875 48.1875 -13.984375 
Q 42 -20.796875 29.203125 -20.796875 
Q 24.46875 -20.796875 20.265625 -20.09375 
Q 16.0625 -19.390625 12.109375 -17.921875 
L 12.109375 -9.1875 
Q 16.0625 -11.328125 19.921875 -12.34375 
Q 23.78125 -13.375 27.78125 -13.375 
Q 36.625 -13.375 41.015625 -8.765625 
Q 45.40625 -4.15625 45.40625 5.171875 
L 45.40625 9.625 
Q 42.625 4.78125 38.28125 2.390625 
Q 33.9375 0 27.875 0 
Q 17.828125 0 11.671875 7.65625 
Q 5.515625 15.328125 5.515625 27.984375 
Q 5.515625 40.671875 11.671875 48.328125 
Q 17.828125 56 27.875 56 
Q 33.9375 56 38.28125 53.609375 
Q 42.625 51.21875 45.40625 46.390625 
L 45.40625 54.6875 
L 54.390625 54.6875 
z
" id="DejaVuSans-67"/>
      </defs>
      <g style="fill:#262626;" transform="translate(71.434531 419.182187)rotate(-90)scale(0.1 -0.1)">
       <use xlink:href="#DejaVuSans-63"/>
       <use x="54.980469" xlink:href="#DejaVuSans-61"/>
       <use x="116.259766" xlink:href="#DejaVuSans-73"/>
       <use x="168.359375" xlink:href="#DejaVuSans-65"/>
       <use x="229.882812" xlink:href="#DejaVuSans-31"/>
       <use x="293.505859" xlink:href="#DejaVuSans-33"/>
       <use x="357.128906" xlink:href="#DejaVuSans-36"/>
       <use x="420.751953" xlink:href="#DejaVuSans-35"/>
       <use x="484.375" xlink:href="#DejaVuSans-39"/>
       <use x="547.998047" xlink:href="#DejaVuSans-5f"/>
       <use x="597.998047" xlink:href="#DejaVuSans-70"/>
       <use x="661.474609" xlink:href="#DejaVuSans-65"/>
       <use x="722.998047" xlink:href="#DejaVuSans-67"/>
       <use x="786.474609" xlink:href="#DejaVuSans-61"/>
       <use x="847.753906" xlink:href="#DejaVuSans-73"/>
       <use x="899.853516" xlink:href="#DejaVuSans-65"/>
      </g>
     </g>
    </g>
    <g id="xtick_2">
     <g id="line2d_3">
      <path clip-path="url(#p292d4792e2)" d="M 88.5375 316.04 
L 88.5375 12.96 
" style="fill:none;opacity:0.3;stroke:#cccccc;stroke-linecap:round;"/>
     </g>
     <g id="line2d_4"/>
     <g id="text_2">
      <!-- case9241_pegase -->
      <defs>
       <path d="M 19.1875 8.296875 
L 53.609375 8.296875 
L 53.609375 0 
L 7.328125 0 
L 7.328125 8.296875 
Q 12.9375 14.109375 22.625 23.890625 
Q 32.328125 33.6875 34.8125 36.53125 
Q 39.546875 41.84375 41.421875 45.53125 
Q 43.3125 49.21875 43.3125 52.78125 
Q 43.3125 58.59375 39.234375 62.25 
Q 35.15625 65.921875 28.609375 65.921875 
Q 23.96875 65.921875 18.8125 64.3125 
Q 13.671875 62.703125 7.8125 59.421875 
L 7.8125 69.390625 
Q 13.765625 71.78125 18.9375 73 
Q 24.125 74.21875 28.421875 74.21875 
Q 39.75 74.21875 46.484375 68.546875 
Q 53.21875 62.890625 53.21875 53.421875 
Q 53.21875 48.921875 51.53125 44.890625 
Q 49.859375 40.875 45.40625 35.40625 
Q 44.1875 33.984375 37.640625 27.21875 
Q 31.109375 20.453125 19.1875 8.296875 
z
" id="DejaVuSans-32"/>
       <path d="M 37.796875 64.3125 
L 12.890625 25.390625 
L 37.796875 25.390625 
z
M 35.203125 72.90625 
L 47.609375 72.90625 
L 47.609375 25.390625 
L 58.015625 25.390625 
L 58.015625 17.1875 
L 47.609375 17.1875 
L 47.609375 0 
L 37.796875 0 
L 37.796875 17.1875 
L 4.890625 17.1875 
L 4.890625 26.703125 
z
" id="DejaVuSans-34"/>
      </defs>
      <g style="fill:#262626;" transform="translate(91.069531 412.819687)rotate(-90)scale(0.1 -0.1)">
       <use xlink:href="#DejaVuSans-63"/>
       <use x="54.980469" xlink:href="#DejaVuSans-61"/>
       <use x="116.259766" xlink:href="#DejaVuSans-73"/>
       <use x="168.359375" xlink:href="#DejaVuSans-65"/>
       <use x="229.882812" xlink:href="#DejaVuSans-39"/>
       <use x="293.505859" xlink:href="#DejaVuSans-32"/>
       <use x="357.128906" xlink:href="#DejaVuSans-34"/>
       <use x="420.751953" xlink:href="#DejaVuSans-31"/>
       <use x="484.375" xlink:href="#DejaVuSans-5f"/>
       <use x="534.375" xlink:href="#DejaVuSans-70"/>
       <use x="597.851562" xlink:href="#DejaVuSans-65"/>
       <use x="659.375" xlink:href="#DejaVuSans-67"/>
       <use x="722.851562" xlink:href="#DejaVuSans-61"/>
       <use x="784.130859" xlink:href="#DejaVuSans-73"/>
       <use x="836.230469" xlink:href="#DejaVuSans-65"/>
      </g>
     </g>
    </g>
    <g id="xtick_3">
     <g id="line2d_5">
      <path clip-path="url(#p292d4792e2)" d="M 108.1725 316.04 
L 108.1725 12.96 
" style="fill:none;opacity:0.3;stroke:#cccccc;stroke-linecap:round;"/>
     </g>
     <g id="line2d_6"/>
     <g id="text_3">
      <!-- case6515_rte -->
      <defs>
       <path d="M 41.109375 46.296875 
Q 39.59375 47.171875 37.8125 47.578125 
Q 36.03125 48 33.890625 48 
Q 26.265625 48 22.1875 43.046875 
Q 18.109375 38.09375 18.109375 28.8125 
L 18.109375 0 
L 9.078125 0 
L 9.078125 54.6875 
L 18.109375 54.6875 
L 18.109375 46.1875 
Q 20.953125 51.171875 25.484375 53.578125 
Q 30.03125 56 36.53125 56 
Q 37.453125 56 38.578125 55.875 
Q 39.703125 55.765625 41.0625 55.515625 
z
" id="DejaVuSans-72"/>
       <path d="M 18.3125 70.21875 
L 18.3125 54.6875 
L 36.8125 54.6875 
L 36.8125 47.703125 
L 18.3125 47.703125 
L 18.3125 18.015625 
Q 18.3125 11.328125 20.140625 9.421875 
Q 21.96875 7.515625 27.59375 7.515625 
L 36.8125 7.515625 
L 36.8125 0 
L 27.59375 0 
Q 17.1875 0 13.234375 3.875 
Q 9.28125 7.765625 9.28125 18.015625 
L 9.28125 47.703125 
L 2.6875 47.703125 
L 2.6875 54.6875 
L 9.28125 54.6875 
L 9.28125 70.21875 
z
" id="DejaVuSans-74"/>
      </defs>
      <g style="fill:#262626;" transform="translate(110.704531 390.663437)rotate(-90)scale(0.1 -0.1)">
       <use xlink:href="#DejaVuSans-63"/>
       <use x="54.980469" xlink:href="#DejaVuSans-61"/>
       <use x="116.259766" xlink:href="#DejaVuSans-73"/>
       <use x="168.359375" xlink:href="#DejaVuSans-65"/>
       <use x="229.882812" xlink:href="#DejaVuSans-36"/>
       <use x="293.505859" xlink:href="#DejaVuSans-35"/>
       <use x="357.128906" xlink:href="#DejaVuSans-31"/>
       <use x="420.751953" xlink:href="#DejaVuSans-35"/>
       <use x="484.375" xlink:href="#DejaVuSans-5f"/>
       <use x="534.375" xlink:href="#DejaVuSans-72"/>
       <use x="575.488281" xlink:href="#DejaVuSans-74"/>
       <use x="614.697266" xlink:href="#DejaVuSans-65"/>
      </g>
     </g>
    </g>
    <g id="xtick_4">
     <g id="line2d_7">
      <path clip-path="url(#p292d4792e2)" d="M 127.8075 316.04 
L 127.8075 12.96 
" style="fill:none;opacity:0.3;stroke:#cccccc;stroke-linecap:round;"/>
     </g>
     <g id="line2d_8"/>
     <g id="text_4">
      <!-- case3120sp_mp -->
      <defs>
       <path d="M 31.78125 66.40625 
Q 24.171875 66.40625 20.328125 58.90625 
Q 16.5 51.421875 16.5 36.375 
Q 16.5 21.390625 20.328125 13.890625 
Q 24.171875 6.390625 31.78125 6.390625 
Q 39.453125 6.390625 43.28125 13.890625 
Q 47.125 21.390625 47.125 36.375 
Q 47.125 51.421875 43.28125 58.90625 
Q 39.453125 66.40625 31.78125 66.40625 
z
M 31.78125 74.21875 
Q 44.046875 74.21875 50.515625 64.515625 
Q 56.984375 54.828125 56.984375 36.375 
Q 56.984375 17.96875 50.515625 8.265625 
Q 44.046875 -1.421875 31.78125 -1.421875 
Q 19.53125 -1.421875 13.0625 8.265625 
Q 6.59375 17.96875 6.59375 36.375 
Q 6.59375 54.828125 13.0625 64.515625 
Q 19.53125 74.21875 31.78125 74.21875 
z
" id="DejaVuSans-30"/>
       <path d="M 52 44.1875 
Q 55.375 50.25 60.0625 53.125 
Q 64.75 56 71.09375 56 
Q 79.640625 56 84.28125 50.015625 
Q 88.921875 44.046875 88.921875 33.015625 
L 88.921875 0 
L 79.890625 0 
L 79.890625 32.71875 
Q 79.890625 40.578125 77.09375 44.375 
Q 74.3125 48.1875 68.609375 48.1875 
Q 61.625 48.1875 57.5625 43.546875 
Q 53.515625 38.921875 53.515625 30.90625 
L 53.515625 0 
L 44.484375 0 
L 44.484375 32.71875 
Q 44.484375 40.625 41.703125 44.40625 
Q 38.921875 48.1875 33.109375 48.1875 
Q 26.21875 48.1875 22.15625 43.53125 
Q 18.109375 38.875 18.109375 30.90625 
L 18.109375 0 
L 9.078125 0 
L 9.078125 54.6875 
L 18.109375 54.6875 
L 18.109375 46.1875 
Q 21.1875 51.21875 25.484375 53.609375 
Q 29.78125 56 35.6875 56 
Q 41.65625 56 45.828125 52.96875 
Q 50 49.953125 52 44.1875 
z
" id="DejaVuSans-6d"/>
      </defs>
      <g style="fill:#262626;" transform="translate(130.339531 404.125937)rotate(-90)scale(0.1 -0.1)">
       <use xlink:href="#DejaVuSans-63"/>
       <use x="54.980469" xlink:href="#DejaVuSans-61"/>
       <use x="116.259766" xlink:href="#DejaVuSans-73"/>
       <use x="168.359375" xlink:href="#DejaVuSans-65"/>
       <use x="229.882812" xlink:href="#DejaVuSans-33"/>
       <use x="293.505859" xlink:href="#DejaVuSans-31"/>
       <use x="357.128906" xlink:href="#DejaVuSans-32"/>
       <use x="420.751953" xlink:href="#DejaVuSans-30"/>
       <use x="484.375" xlink:href="#DejaVuSans-73"/>
       <use x="536.474609" xlink:href="#DejaVuSans-70"/>
       <use x="599.951172" xlink:href="#DejaVuSans-5f"/>
       <use x="649.951172" xlink:href="#DejaVuSans-6d"/>
       <use x="747.363281" xlink:href="#DejaVuSans-70"/>
      </g>
     </g>
    </g>
    <g id="xtick_5">
     <g id="line2d_9">
      <path clip-path="url(#p292d4792e2)" d="M 147.4425 316.04 
L 147.4425 12.96 
" style="fill:none;opacity:0.3;stroke:#cccccc;stroke-linecap:round;"/>
     </g>
     <g id="line2d_10"/>
     <g id="text_5">
      <!-- case2869_pegase -->
      <defs>
       <path d="M 31.78125 34.625 
Q 24.75 34.625 20.71875 30.859375 
Q 16.703125 27.09375 16.703125 20.515625 
Q 16.703125 13.921875 20.71875 10.15625 
Q 24.75 6.390625 31.78125 6.390625 
Q 38.8125 6.390625 42.859375 10.171875 
Q 46.921875 13.96875 46.921875 20.515625 
Q 46.921875 27.09375 42.890625 30.859375 
Q 38.875 34.625 31.78125 34.625 
z
M 21.921875 38.8125 
Q 15.578125 40.375 12.03125 44.71875 
Q 8.5 49.078125 8.5 55.328125 
Q 8.5 64.0625 14.71875 69.140625 
Q 20.953125 74.21875 31.78125 74.21875 
Q 42.671875 74.21875 48.875 69.140625 
Q 55.078125 64.0625 55.078125 55.328125 
Q 55.078125 49.078125 51.53125 44.71875 
Q 48 40.375 41.703125 38.8125 
Q 48.828125 37.15625 52.796875 32.3125 
Q 56.78125 27.484375 56.78125 20.515625 
Q 56.78125 9.90625 50.3125 4.234375 
Q 43.84375 -1.421875 31.78125 -1.421875 
Q 19.734375 -1.421875 13.25 4.234375 
Q 6.78125 9.90625 6.78125 20.515625 
Q 6.78125 27.484375 10.78125 32.3125 
Q 14.796875 37.15625 21.921875 38.8125 
z
M 18.3125 54.390625 
Q 18.3125 48.734375 21.84375 45.5625 
Q 25.390625 42.390625 31.78125 42.390625 
Q 38.140625 42.390625 41.71875 45.5625 
Q 45.3125 48.734375 45.3125 54.390625 
Q 45.3125 60.0625 41.71875 63.234375 
Q 38.140625 66.40625 31.78125 66.40625 
Q 25.390625 66.40625 21.84375 63.234375 
Q 18.3125 60.0625 18.3125 54.390625 
z
" id="DejaVuSans-38"/>
      </defs>
      <g style="fill:#262626;" transform="translate(149.974531 412.819687)rotate(-90)scale(0.1 -0.1)">
       <use xlink:href="#DejaVuSans-63"/>
       <use x="54.980469" xlink:href="#DejaVuSans-61"/>
       <use x="116.259766" xlink:href="#DejaVuSans-73"/>
       <use x="168.359375" xlink:href="#DejaVuSans-65"/>
       <use x="229.882812" xlink:href="#DejaVuSans-32"/>
       <use x="293.505859" xlink:href="#DejaVuSans-38"/>
       <use x="357.128906" xlink:href="#DejaVuSans-36"/>
       <use x="420.751953" xlink:href="#DejaVuSans-39"/>
       <use x="484.375" xlink:href="#DejaVuSans-5f"/>
       <use x="534.375" xlink:href="#DejaVuSans-70"/>
       <use x="597.851562" xlink:href="#DejaVuSans-65"/>
       <use x="659.375" xlink:href="#DejaVuSans-67"/>
       <use x="722.851562" xlink:href="#DejaVuSans-61"/>
       <use x="784.130859" xlink:href="#DejaVuSans-73"/>
       <use x="836.230469" xlink:href="#DejaVuSans-65"/>
      </g>
     </g>
    </g>
    <g id="xtick_6">
     <g id="line2d_11">
      <path clip-path="url(#p292d4792e2)" d="M 167.0775 316.04 
L 167.0775 12.96 
" style="fill:none;opacity:0.3;stroke:#cccccc;stroke-linecap:round;"/>
     </g>
     <g id="line2d_12"/>
     <g id="text_6">
      <!-- case2868_rte -->
      <g style="fill:#262626;" transform="translate(169.609531 390.663437)rotate(-90)scale(0.1 -0.1)">
       <use xlink:href="#DejaVuSans-63"/>
       <use x="54.980469" xlink:href="#DejaVuSans-61"/>
       <use x="116.259766" xlink:href="#DejaVuSans-73"/>
       <use x="168.359375" xlink:href="#DejaVuSans-65"/>
       <use x="229.882812" xlink:href="#DejaVuSans-32"/>
       <use x="293.505859" xlink:href="#DejaVuSans-38"/>
       <use x="357.128906" xlink:href="#DejaVuSans-36"/>
       <use x="420.751953" xlink:href="#DejaVuSans-38"/>
       <use x="484.375" xlink:href="#DejaVuSans-5f"/>
       <use x="534.375" xlink:href="#DejaVuSans-72"/>
       <use x="575.488281" xlink:href="#DejaVuSans-74"/>
       <use x="614.697266" xlink:href="#DejaVuSans-65"/>
      </g>
     </g>
    </g>
    <g id="xtick_7">
     <g id="line2d_13">
      <path clip-path="url(#p292d4792e2)" d="M 186.7125 316.04 
L 186.7125 12.96 
" style="fill:none;opacity:0.3;stroke:#cccccc;stroke-linecap:round;"/>
     </g>
     <g id="line2d_14"/>
     <g id="text_7">
      <!-- case2736sp_mp -->
      <defs>
       <path d="M 8.203125 72.90625 
L 55.078125 72.90625 
L 55.078125 68.703125 
L 28.609375 0 
L 18.3125 0 
L 43.21875 64.59375 
L 8.203125 64.59375 
z
" id="DejaVuSans-37"/>
      </defs>
      <g style="fill:#262626;" transform="translate(189.244531 404.125937)rotate(-90)scale(0.1 -0.1)">
       <use xlink:href="#DejaVuSans-63"/>
       <use x="54.980469" xlink:href="#DejaVuSans-61"/>
       <use x="116.259766" xlink:href="#DejaVuSans-73"/>
       <use x="168.359375" xlink:href="#DejaVuSans-65"/>
       <use x="229.882812" xlink:href="#DejaVuSans-32"/>
       <use x="293.505859" xlink:href="#DejaVuSans-37"/>
       <use x="357.128906" xlink:href="#DejaVuSans-33"/>
       <use x="420.751953" xlink:href="#DejaVuSans-36"/>
       <use x="484.375" xlink:href="#DejaVuSans-73"/>
       <use x="536.474609" xlink:href="#DejaVuSans-70"/>
       <use x="599.951172" xlink:href="#DejaVuSans-5f"/>
       <use x="649.951172" xlink:href="#DejaVuSans-6d"/>
       <use x="747.363281" xlink:href="#DejaVuSans-70"/>
      </g>
     </g>
    </g>
    <g id="xtick_8">
     <g id="line2d_15">
      <path clip-path="url(#p292d4792e2)" d="M 206.3475 316.04 
L 206.3475 12.96 
" style="fill:none;opacity:0.3;stroke:#cccccc;stroke-linecap:round;"/>
     </g>
     <g id="line2d_16"/>
     <g id="text_8">
      <!-- case2383wp_mp -->
      <defs>
       <path d="M 4.203125 54.6875 
L 13.1875 54.6875 
L 24.421875 12.015625 
L 35.59375 54.6875 
L 46.1875 54.6875 
L 57.421875 12.015625 
L 68.609375 54.6875 
L 77.59375 54.6875 
L 63.28125 0 
L 52.6875 0 
L 40.921875 44.828125 
L 29.109375 0 
L 18.5 0 
z
" id="DejaVuSans-77"/>
      </defs>
      <g style="fill:#262626;" transform="translate(208.879531 407.094687)rotate(-90)scale(0.1 -0.1)">
       <use xlink:href="#DejaVuSans-63"/>
       <use x="54.980469" xlink:href="#DejaVuSans-61"/>
       <use x="116.259766" xlink:href="#DejaVuSans-73"/>
       <use x="168.359375" xlink:href="#DejaVuSans-65"/>
       <use x="229.882812" xlink:href="#DejaVuSans-32"/>
       <use x="293.505859" xlink:href="#DejaVuSans-33"/>
       <use x="357.128906" xlink:href="#DejaVuSans-38"/>
       <use x="420.751953" xlink:href="#DejaVuSans-33"/>
       <use x="484.375" xlink:href="#DejaVuSans-77"/>
       <use x="566.162109" xlink:href="#DejaVuSans-70"/>
       <use x="629.638672" xlink:href="#DejaVuSans-5f"/>
       <use x="679.638672" xlink:href="#DejaVuSans-6d"/>
       <use x="777.050781" xlink:href="#DejaVuSans-70"/>
      </g>
     </g>
    </g>
    <g id="xtick_9">
     <g id="line2d_17">
      <path clip-path="url(#p292d4792e2)" d="M 225.9825 316.04 
L 225.9825 12.96 
" style="fill:none;opacity:0.3;stroke:#cccccc;stroke-linecap:round;"/>
     </g>
     <g id="line2d_18"/>
     <g id="text_9">
      <!-- case2224_edin -->
      <defs>
       <path d="M 45.40625 46.390625 
L 45.40625 75.984375 
L 54.390625 75.984375 
L 54.390625 0 
L 45.40625 0 
L 45.40625 8.203125 
Q 42.578125 3.328125 38.25 0.953125 
Q 33.9375 -1.421875 27.875 -1.421875 
Q 17.96875 -1.421875 11.734375 6.484375 
Q 5.515625 14.40625 5.515625 27.296875 
Q 5.515625 40.1875 11.734375 48.09375 
Q 17.96875 56 27.875 56 
Q 33.9375 56 38.25 53.625 
Q 42.578125 51.265625 45.40625 46.390625 
z
M 14.796875 27.296875 
Q 14.796875 17.390625 18.875 11.75 
Q 22.953125 6.109375 30.078125 6.109375 
Q 37.203125 6.109375 41.296875 11.75 
Q 45.40625 17.390625 45.40625 27.296875 
Q 45.40625 37.203125 41.296875 42.84375 
Q 37.203125 48.484375 30.078125 48.484375 
Q 22.953125 48.484375 18.875 42.84375 
Q 14.796875 37.203125 14.796875 27.296875 
z
" id="DejaVuSans-64"/>
       <path d="M 9.421875 54.6875 
L 18.40625 54.6875 
L 18.40625 0 
L 9.421875 0 
z
M 9.421875 75.984375 
L 18.40625 75.984375 
L 18.40625 64.59375 
L 9.421875 64.59375 
z
" id="DejaVuSans-69"/>
       <path d="M 54.890625 33.015625 
L 54.890625 0 
L 45.90625 0 
L 45.90625 32.71875 
Q 45.90625 40.484375 42.875 44.328125 
Q 39.84375 48.1875 33.796875 48.1875 
Q 26.515625 48.1875 22.3125 43.546875 
Q 18.109375 38.921875 18.109375 30.90625 
L 18.109375 0 
L 9.078125 0 
L 9.078125 54.6875 
L 18.109375 54.6875 
L 18.109375 46.1875 
Q 21.34375 51.125 25.703125 53.5625 
Q 30.078125 56 35.796875 56 
Q 45.21875 56 50.046875 50.171875 
Q 54.890625 44.34375 54.890625 33.015625 
z
" id="DejaVuSans-6e"/>
      </defs>
      <g style="fill:#262626;" transform="translate(228.602812 398.09625)rotate(-90)scale(0.1 -0.1)">
       <use xlink:href="#DejaVuSans-63"/>
       <use x="54.980469" xlink:href="#DejaVuSans-61"/>
       <use x="116.259766" xlink:href="#DejaVuSans-73"/>
       <use x="168.359375" xlink:href="#DejaVuSans-65"/>
       <use x="229.882812" xlink:href="#DejaVuSans-32"/>
       <use x="293.505859" xlink:href="#DejaVuSans-32"/>
       <use x="357.128906" xlink:href="#DejaVuSans-32"/>
       <use x="420.751953" xlink:href="#DejaVuSans-34"/>
       <use x="484.375" xlink:href="#DejaVuSans-5f"/>
       <use x="534.375" xlink:href="#DejaVuSans-65"/>
       <use x="595.898438" xlink:href="#DejaVuSans-64"/>
       <use x="659.375" xlink:href="#DejaVuSans-69"/>
       <use x="687.158203" xlink:href="#DejaVuSans-6e"/>
      </g>
     </g>
    </g>
    <g id="xtick_10">
     <g id="line2d_19">
      <path clip-path="url(#p292d4792e2)" d="M 245.6175 316.04 
L 245.6175 12.96 
" style="fill:none;opacity:0.3;stroke:#cccccc;stroke-linecap:round;"/>
     </g>
     <g id="line2d_20"/>
     <g id="text_10">
      <!-- case1951_rte -->
      <g style="fill:#262626;" transform="translate(248.149531 390.663437)rotate(-90)scale(0.1 -0.1)">
       <use xlink:href="#DejaVuSans-63"/>
       <use x="54.980469" xlink:href="#DejaVuSans-61"/>
       <use x="116.259766" xlink:href="#DejaVuSans-73"/>
       <use x="168.359375" xlink:href="#DejaVuSans-65"/>
       <use x="229.882812" xlink:href="#DejaVuSans-31"/>
       <use x="293.505859" xlink:href="#DejaVuSans-39"/>
       <use x="357.128906" xlink:href="#DejaVuSans-35"/>
       <use x="420.751953" xlink:href="#DejaVuSans-31"/>
       <use x="484.375" xlink:href="#DejaVuSans-5f"/>
       <use x="534.375" xlink:href="#DejaVuSans-72"/>
       <use x="575.488281" xlink:href="#DejaVuSans-74"/>
       <use x="614.697266" xlink:href="#DejaVuSans-65"/>
      </g>
     </g>
    </g>
    <g id="xtick_11">
     <g id="line2d_21">
      <path clip-path="url(#p292d4792e2)" d="M 265.2525 316.04 
L 265.2525 12.96 
" style="fill:none;opacity:0.3;stroke:#cccccc;stroke-linecap:round;"/>
     </g>
     <g id="line2d_22"/>
     <g id="text_11">
      <!-- case1397sp_eir -->
      <g style="fill:#262626;" transform="translate(267.872812 401.079062)rotate(-90)scale(0.1 -0.1)">
       <use xlink:href="#DejaVuSans-63"/>
       <use x="54.980469" xlink:href="#DejaVuSans-61"/>
       <use x="116.259766" xlink:href="#DejaVuSans-73"/>
       <use x="168.359375" xlink:href="#DejaVuSans-65"/>
       <use x="229.882812" xlink:href="#DejaVuSans-31"/>
       <use x="293.505859" xlink:href="#DejaVuSans-33"/>
       <use x="357.128906" xlink:href="#DejaVuSans-39"/>
       <use x="420.751953" xlink:href="#DejaVuSans-37"/>
       <use x="484.375" xlink:href="#DejaVuSans-73"/>
       <use x="536.474609" xlink:href="#DejaVuSans-70"/>
       <use x="599.951172" xlink:href="#DejaVuSans-5f"/>
       <use x="649.951172" xlink:href="#DejaVuSans-65"/>
       <use x="711.474609" xlink:href="#DejaVuSans-69"/>
       <use x="739.257812" xlink:href="#DejaVuSans-72"/>
      </g>
     </g>
    </g>
    <g id="xtick_12">
     <g id="line2d_23">
      <path clip-path="url(#p292d4792e2)" d="M 284.8875 316.04 
L 284.8875 12.96 
" style="fill:none;opacity:0.3;stroke:#cccccc;stroke-linecap:round;"/>
     </g>
     <g id="line2d_24"/>
     <g id="text_12">
      <!-- case1354_pegase -->
      <g style="fill:#262626;" transform="translate(287.419531 412.819687)rotate(-90)scale(0.1 -0.1)">
       <use xlink:href="#DejaVuSans-63"/>
       <use x="54.980469" xlink:href="#DejaVuSans-61"/>
       <use x="116.259766" xlink:href="#DejaVuSans-73"/>
       <use x="168.359375" xlink:href="#DejaVuSans-65"/>
       <use x="229.882812" xlink:href="#DejaVuSans-31"/>
       <use x="293.505859" xlink:href="#DejaVuSans-33"/>
       <use x="357.128906" xlink:href="#DejaVuSans-35"/>
       <use x="420.751953" xlink:href="#DejaVuSans-34"/>
       <use x="484.375" xlink:href="#DejaVuSans-5f"/>
       <use x="534.375" xlink:href="#DejaVuSans-70"/>
       <use x="597.851562" xlink:href="#DejaVuSans-65"/>
       <use x="659.375" xlink:href="#DejaVuSans-67"/>
       <use x="722.851562" xlink:href="#DejaVuSans-61"/>
       <use x="784.130859" xlink:href="#DejaVuSans-73"/>
       <use x="836.230469" xlink:href="#DejaVuSans-65"/>
      </g>
     </g>
    </g>
    <g id="xtick_13">
     <g id="line2d_25">
      <path clip-path="url(#p292d4792e2)" d="M 304.5225 316.04 
L 304.5225 12.96 
" style="fill:none;opacity:0.3;stroke:#cccccc;stroke-linecap:round;"/>
     </g>
     <g id="line2d_26"/>
     <g id="text_13">
      <!-- case300_ieee -->
      <g style="fill:#262626;" transform="translate(307.142812 391.354062)rotate(-90)scale(0.1 -0.1)">
       <use xlink:href="#DejaVuSans-63"/>
       <use x="54.980469" xlink:href="#DejaVuSans-61"/>
       <use x="116.259766" xlink:href="#DejaVuSans-73"/>
       <use x="168.359375" xlink:href="#DejaVuSans-65"/>
       <use x="229.882812" xlink:href="#DejaVuSans-33"/>
       <use x="293.505859" xlink:href="#DejaVuSans-30"/>
       <use x="357.128906" xlink:href="#DejaVuSans-30"/>
       <use x="420.751953" xlink:href="#DejaVuSans-5f"/>
       <use x="470.751953" xlink:href="#DejaVuSans-69"/>
       <use x="498.535156" xlink:href="#DejaVuSans-65"/>
       <use x="560.058594" xlink:href="#DejaVuSans-65"/>
       <use x="621.582031" xlink:href="#DejaVuSans-65"/>
      </g>
     </g>
    </g>
    <g id="xtick_14">
     <g id="line2d_27">
      <path clip-path="url(#p292d4792e2)" d="M 324.1575 316.04 
L 324.1575 12.96 
" style="fill:none;opacity:0.3;stroke:#cccccc;stroke-linecap:round;"/>
     </g>
     <g id="line2d_28"/>
     <g id="text_14">
      <!-- case240_wecc -->
      <g style="fill:#262626;" transform="translate(326.689531 395.444687)rotate(-90)scale(0.1 -0.1)">
       <use xlink:href="#DejaVuSans-63"/>
       <use x="54.980469" xlink:href="#DejaVuSans-61"/>
       <use x="116.259766" xlink:href="#DejaVuSans-73"/>
       <use x="168.359375" xlink:href="#DejaVuSans-65"/>
       <use x="229.882812" xlink:href="#DejaVuSans-32"/>
       <use x="293.505859" xlink:href="#DejaVuSans-34"/>
       <use x="357.128906" xlink:href="#DejaVuSans-30"/>
       <use x="420.751953" xlink:href="#DejaVuSans-5f"/>
       <use x="470.751953" xlink:href="#DejaVuSans-77"/>
       <use x="552.539062" xlink:href="#DejaVuSans-65"/>
       <use x="614.0625" xlink:href="#DejaVuSans-63"/>
       <use x="669.042969" xlink:href="#DejaVuSans-63"/>
      </g>
     </g>
    </g>
    <g id="xtick_15">
     <g id="line2d_29">
      <path clip-path="url(#p292d4792e2)" d="M 343.7925 316.04 
L 343.7925 12.96 
" style="fill:none;opacity:0.3;stroke:#cccccc;stroke-linecap:round;"/>
     </g>
     <g id="line2d_30"/>
     <g id="text_15">
      <!-- case189_edin -->
      <g style="fill:#262626;" transform="translate(346.412813 391.73375)rotate(-90)scale(0.1 -0.1)">
       <use xlink:href="#DejaVuSans-63"/>
       <use x="54.980469" xlink:href="#DejaVuSans-61"/>
       <use x="116.259766" xlink:href="#DejaVuSans-73"/>
       <use x="168.359375" xlink:href="#DejaVuSans-65"/>
       <use x="229.882812" xlink:href="#DejaVuSans-31"/>
       <use x="293.505859" xlink:href="#DejaVuSans-38"/>
       <use x="357.128906" xlink:href="#DejaVuSans-39"/>
       <use x="420.751953" xlink:href="#DejaVuSans-5f"/>
       <use x="470.751953" xlink:href="#DejaVuSans-65"/>
       <use x="532.275391" xlink:href="#DejaVuSans-64"/>
       <use x="595.751953" xlink:href="#DejaVuSans-69"/>
       <use x="623.535156" xlink:href="#DejaVuSans-6e"/>
      </g>
     </g>
    </g>
    <g id="xtick_16">
     <g id="line2d_31">
      <path clip-path="url(#p292d4792e2)" d="M 363.4275 316.04 
L 363.4275 12.96 
" style="fill:none;opacity:0.3;stroke:#cccccc;stroke-linecap:round;"/>
     </g>
     <g id="line2d_32"/>
     <g id="text_16">
      <!-- case162_ieee_dtc -->
      <g style="fill:#262626;" transform="translate(366.047813 412.12125)rotate(-90)scale(0.1 -0.1)">
       <use xlink:href="#DejaVuSans-63"/>
       <use x="54.980469" xlink:href="#DejaVuSans-61"/>
       <use x="116.259766" xlink:href="#DejaVuSans-73"/>
       <use x="168.359375" xlink:href="#DejaVuSans-65"/>
       <use x="229.882812" xlink:href="#DejaVuSans-31"/>
       <use x="293.505859" xlink:href="#DejaVuSans-36"/>
       <use x="357.128906" xlink:href="#DejaVuSans-32"/>
       <use x="420.751953" xlink:href="#DejaVuSans-5f"/>
       <use x="470.751953" xlink:href="#DejaVuSans-69"/>
       <use x="498.535156" xlink:href="#DejaVuSans-65"/>
       <use x="560.058594" xlink:href="#DejaVuSans-65"/>
       <use x="621.582031" xlink:href="#DejaVuSans-65"/>
       <use x="683.105469" xlink:href="#DejaVuSans-5f"/>
       <use x="733.105469" xlink:href="#DejaVuSans-64"/>
       <use x="796.582031" xlink:href="#DejaVuSans-74"/>
       <use x="835.791016" xlink:href="#DejaVuSans-63"/>
      </g>
     </g>
    </g>
    <g id="xtick_17">
     <g id="line2d_33">
      <path clip-path="url(#p292d4792e2)" d="M 383.0625 316.04 
L 383.0625 12.96 
" style="fill:none;opacity:0.3;stroke:#cccccc;stroke-linecap:round;"/>
     </g>
     <g id="line2d_34"/>
     <g id="text_17">
      <!-- case118_ieee -->
      <g style="fill:#262626;" transform="translate(385.682813 391.354062)rotate(-90)scale(0.1 -0.1)">
       <use xlink:href="#DejaVuSans-63"/>
       <use x="54.980469" xlink:href="#DejaVuSans-61"/>
       <use x="116.259766" xlink:href="#DejaVuSans-73"/>
       <use x="168.359375" xlink:href="#DejaVuSans-65"/>
       <use x="229.882812" xlink:href="#DejaVuSans-31"/>
       <use x="293.505859" xlink:href="#DejaVuSans-31"/>
       <use x="357.128906" xlink:href="#DejaVuSans-38"/>
       <use x="420.751953" xlink:href="#DejaVuSans-5f"/>
       <use x="470.751953" xlink:href="#DejaVuSans-69"/>
       <use x="498.535156" xlink:href="#DejaVuSans-65"/>
       <use x="560.058594" xlink:href="#DejaVuSans-65"/>
       <use x="621.582031" xlink:href="#DejaVuSans-65"/>
      </g>
     </g>
    </g>
    <g id="xtick_18">
     <g id="line2d_35">
      <path clip-path="url(#p292d4792e2)" d="M 402.6975 316.04 
L 402.6975 12.96 
" style="fill:none;opacity:0.3;stroke:#cccccc;stroke-linecap:round;"/>
     </g>
     <g id="line2d_36"/>
     <g id="text_18">
      <!-- case89_pegase -->
      <g style="fill:#262626;" transform="translate(405.229531 400.094687)rotate(-90)scale(0.1 -0.1)">
       <use xlink:href="#DejaVuSans-63"/>
       <use x="54.980469" xlink:href="#DejaVuSans-61"/>
       <use x="116.259766" xlink:href="#DejaVuSans-73"/>
       <use x="168.359375" xlink:href="#DejaVuSans-65"/>
       <use x="229.882812" xlink:href="#DejaVuSans-38"/>
       <use x="293.505859" xlink:href="#DejaVuSans-39"/>
       <use x="357.128906" xlink:href="#DejaVuSans-5f"/>
       <use x="407.128906" xlink:href="#DejaVuSans-70"/>
       <use x="470.605469" xlink:href="#DejaVuSans-65"/>
       <use x="532.128906" xlink:href="#DejaVuSans-67"/>
       <use x="595.605469" xlink:href="#DejaVuSans-61"/>
       <use x="656.884766" xlink:href="#DejaVuSans-73"/>
       <use x="708.984375" xlink:href="#DejaVuSans-65"/>
      </g>
     </g>
    </g>
    <g id="xtick_19">
     <g id="line2d_37">
      <path clip-path="url(#p292d4792e2)" d="M 422.3325 316.04 
L 422.3325 12.96 
" style="fill:none;opacity:0.3;stroke:#cccccc;stroke-linecap:round;"/>
     </g>
     <g id="line2d_38"/>
     <g id="text_19">
      <!-- case73_ieee_rts -->
      <g style="fill:#262626;" transform="translate(424.952812 403.232188)rotate(-90)scale(0.1 -0.1)">
       <use xlink:href="#DejaVuSans-63"/>
       <use x="54.980469" xlink:href="#DejaVuSans-61"/>
       <use x="116.259766" xlink:href="#DejaVuSans-73"/>
       <use x="168.359375" xlink:href="#DejaVuSans-65"/>
       <use x="229.882812" xlink:href="#DejaVuSans-37"/>
       <use x="293.505859" xlink:href="#DejaVuSans-33"/>
       <use x="357.128906" xlink:href="#DejaVuSans-5f"/>
       <use x="407.128906" xlink:href="#DejaVuSans-69"/>
       <use x="434.912109" xlink:href="#DejaVuSans-65"/>
       <use x="496.435547" xlink:href="#DejaVuSans-65"/>
       <use x="557.958984" xlink:href="#DejaVuSans-65"/>
       <use x="619.482422" xlink:href="#DejaVuSans-5f"/>
       <use x="669.482422" xlink:href="#DejaVuSans-72"/>
       <use x="710.595703" xlink:href="#DejaVuSans-74"/>
       <use x="749.804688" xlink:href="#DejaVuSans-73"/>
      </g>
     </g>
    </g>
    <g id="xtick_20">
     <g id="line2d_39">
      <path clip-path="url(#p292d4792e2)" d="M 441.9675 316.04 
L 441.9675 12.96 
" style="fill:none;opacity:0.3;stroke:#cccccc;stroke-linecap:round;"/>
     </g>
     <g id="line2d_40"/>
     <g id="text_20">
      <!-- case57_ieee -->
      <g style="fill:#262626;" transform="translate(444.587812 384.991562)rotate(-90)scale(0.1 -0.1)">
       <use xlink:href="#DejaVuSans-63"/>
       <use x="54.980469" xlink:href="#DejaVuSans-61"/>
       <use x="116.259766" xlink:href="#DejaVuSans-73"/>
       <use x="168.359375" xlink:href="#DejaVuSans-65"/>
       <use x="229.882812" xlink:href="#DejaVuSans-35"/>
       <use x="293.505859" xlink:href="#DejaVuSans-37"/>
       <use x="357.128906" xlink:href="#DejaVuSans-5f"/>
       <use x="407.128906" xlink:href="#DejaVuSans-69"/>
       <use x="434.912109" xlink:href="#DejaVuSans-65"/>
       <use x="496.435547" xlink:href="#DejaVuSans-65"/>
       <use x="557.958984" xlink:href="#DejaVuSans-65"/>
      </g>
     </g>
    </g>
    <g id="xtick_21">
     <g id="line2d_41">
      <path clip-path="url(#p292d4792e2)" d="M 461.6025 316.04 
L 461.6025 12.96 
" style="fill:none;opacity:0.3;stroke:#cccccc;stroke-linecap:round;"/>
     </g>
     <g id="line2d_42"/>
     <g id="text_21">
      <!-- case39_epri -->
      <g style="fill:#262626;" transform="translate(464.222812 383.144687)rotate(-90)scale(0.1 -0.1)">
       <use xlink:href="#DejaVuSans-63"/>
       <use x="54.980469" xlink:href="#DejaVuSans-61"/>
       <use x="116.259766" xlink:href="#DejaVuSans-73"/>
       <use x="168.359375" xlink:href="#DejaVuSans-65"/>
       <use x="229.882812" xlink:href="#DejaVuSans-33"/>
       <use x="293.505859" xlink:href="#DejaVuSans-39"/>
       <use x="357.128906" xlink:href="#DejaVuSans-5f"/>
       <use x="407.128906" xlink:href="#DejaVuSans-65"/>
       <use x="468.652344" xlink:href="#DejaVuSans-70"/>
       <use x="532.128906" xlink:href="#DejaVuSans-72"/>
       <use x="573.242188" xlink:href="#DejaVuSans-69"/>
      </g>
     </g>
    </g>
    <g id="xtick_22">
     <g id="line2d_43">
      <path clip-path="url(#p292d4792e2)" d="M 481.2375 316.04 
L 481.2375 12.96 
" style="fill:none;opacity:0.3;stroke:#cccccc;stroke-linecap:round;"/>
     </g>
     <g id="line2d_44"/>
     <g id="text_22">
      <!-- case30_fsr -->
      <defs>
       <path d="M 37.109375 75.984375 
L 37.109375 68.5 
L 28.515625 68.5 
Q 23.6875 68.5 21.796875 66.546875 
Q 19.921875 64.59375 19.921875 59.515625 
L 19.921875 54.6875 
L 34.71875 54.6875 
L 34.71875 47.703125 
L 19.921875 47.703125 
L 19.921875 0 
L 10.890625 0 
L 10.890625 47.703125 
L 2.296875 47.703125 
L 2.296875 54.6875 
L 10.890625 54.6875 
L 10.890625 58.5 
Q 10.890625 67.625 15.140625 71.796875 
Q 19.390625 75.984375 28.609375 75.984375 
z
" id="DejaVuSans-66"/>
      </defs>
      <g style="fill:#262626;" transform="translate(483.857812 376.594687)rotate(-90)scale(0.1 -0.1)">
       <use xlink:href="#DejaVuSans-63"/>
       <use x="54.980469" xlink:href="#DejaVuSans-61"/>
       <use x="116.259766" xlink:href="#DejaVuSans-73"/>
       <use x="168.359375" xlink:href="#DejaVuSans-65"/>
       <use x="229.882812" xlink:href="#DejaVuSans-33"/>
       <use x="293.505859" xlink:href="#DejaVuSans-30"/>
       <use x="357.128906" xlink:href="#DejaVuSans-5f"/>
       <use x="407.128906" xlink:href="#DejaVuSans-66"/>
       <use x="442.333984" xlink:href="#DejaVuSans-73"/>
       <use x="494.433594" xlink:href="#DejaVuSans-72"/>
      </g>
     </g>
    </g>
    <g id="xtick_23">
     <g id="line2d_45">
      <path clip-path="url(#p292d4792e2)" d="M 500.8725 316.04 
L 500.8725 12.96 
" style="fill:none;opacity:0.3;stroke:#cccccc;stroke-linecap:round;"/>
     </g>
     <g id="line2d_46"/>
     <g id="text_23">
      <!-- case30_as -->
      <g style="fill:#262626;" transform="translate(503.404531 375.091563)rotate(-90)scale(0.1 -0.1)">
       <use xlink:href="#DejaVuSans-63"/>
       <use x="54.980469" xlink:href="#DejaVuSans-61"/>
       <use x="116.259766" xlink:href="#DejaVuSans-73"/>
       <use x="168.359375" xlink:href="#DejaVuSans-65"/>
       <use x="229.882812" xlink:href="#DejaVuSans-33"/>
       <use x="293.505859" xlink:href="#DejaVuSans-30"/>
       <use x="357.128906" xlink:href="#DejaVuSans-5f"/>
       <use x="407.128906" xlink:href="#DejaVuSans-61"/>
       <use x="468.408203" xlink:href="#DejaVuSans-73"/>
      </g>
     </g>
    </g>
    <g id="xtick_24">
     <g id="line2d_47">
      <path clip-path="url(#p292d4792e2)" d="M 520.5075 316.04 
L 520.5075 12.96 
" style="fill:none;opacity:0.3;stroke:#cccccc;stroke-linecap:round;"/>
     </g>
     <g id="line2d_48"/>
     <g id="text_24">
      <!-- case30_ieee -->
      <g style="fill:#262626;" transform="translate(523.127812 384.991562)rotate(-90)scale(0.1 -0.1)">
       <use xlink:href="#DejaVuSans-63"/>
       <use x="54.980469" xlink:href="#DejaVuSans-61"/>
       <use x="116.259766" xlink:href="#DejaVuSans-73"/>
       <use x="168.359375" xlink:href="#DejaVuSans-65"/>
       <use x="229.882812" xlink:href="#DejaVuSans-33"/>
       <use x="293.505859" xlink:href="#DejaVuSans-30"/>
       <use x="357.128906" xlink:href="#DejaVuSans-5f"/>
       <use x="407.128906" xlink:href="#DejaVuSans-69"/>
       <use x="434.912109" xlink:href="#DejaVuSans-65"/>
       <use x="496.435547" xlink:href="#DejaVuSans-65"/>
       <use x="557.958984" xlink:href="#DejaVuSans-65"/>
      </g>
     </g>
    </g>
    <g id="xtick_25">
     <g id="line2d_49">
      <path clip-path="url(#p292d4792e2)" d="M 540.1425 316.04 
L 540.1425 12.96 
" style="fill:none;opacity:0.3;stroke:#cccccc;stroke-linecap:round;"/>
     </g>
     <g id="line2d_50"/>
     <g id="text_25">
      <!-- case29_edin -->
      <g style="fill:#262626;" transform="translate(542.762812 385.37125)rotate(-90)scale(0.1 -0.1)">
       <use xlink:href="#DejaVuSans-63"/>
       <use x="54.980469" xlink:href="#DejaVuSans-61"/>
       <use x="116.259766" xlink:href="#DejaVuSans-73"/>
       <use x="168.359375" xlink:href="#DejaVuSans-65"/>
       <use x="229.882812" xlink:href="#DejaVuSans-32"/>
       <use x="293.505859" xlink:href="#DejaVuSans-39"/>
       <use x="357.128906" xlink:href="#DejaVuSans-5f"/>
       <use x="407.128906" xlink:href="#DejaVuSans-65"/>
       <use x="468.652344" xlink:href="#DejaVuSans-64"/>
       <use x="532.128906" xlink:href="#DejaVuSans-69"/>
       <use x="559.912109" xlink:href="#DejaVuSans-6e"/>
      </g>
     </g>
    </g>
    <g id="xtick_26">
     <g id="line2d_51">
      <path clip-path="url(#p292d4792e2)" d="M 559.7775 316.04 
L 559.7775 12.96 
" style="fill:none;opacity:0.3;stroke:#cccccc;stroke-linecap:round;"/>
     </g>
     <g id="line2d_52"/>
     <g id="text_26">
      <!-- case24_ieee_rts -->
      <g style="fill:#262626;" transform="translate(562.397812 403.232188)rotate(-90)scale(0.1 -0.1)">
       <use xlink:href="#DejaVuSans-63"/>
       <use x="54.980469" xlink:href="#DejaVuSans-61"/>
       <use x="116.259766" xlink:href="#DejaVuSans-73"/>
       <use x="168.359375" xlink:href="#DejaVuSans-65"/>
       <use x="229.882812" xlink:href="#DejaVuSans-32"/>
       <use x="293.505859" xlink:href="#DejaVuSans-34"/>
       <use x="357.128906" xlink:href="#DejaVuSans-5f"/>
       <use x="407.128906" xlink:href="#DejaVuSans-69"/>
       <use x="434.912109" xlink:href="#DejaVuSans-65"/>
       <use x="496.435547" xlink:href="#DejaVuSans-65"/>
       <use x="557.958984" xlink:href="#DejaVuSans-65"/>
       <use x="619.482422" xlink:href="#DejaVuSans-5f"/>
       <use x="669.482422" xlink:href="#DejaVuSans-72"/>
       <use x="710.595703" xlink:href="#DejaVuSans-74"/>
       <use x="749.804688" xlink:href="#DejaVuSans-73"/>
      </g>
     </g>
    </g>
    <g id="xtick_27">
     <g id="line2d_53">
      <path clip-path="url(#p292d4792e2)" d="M 579.4125 316.04 
L 579.4125 12.96 
" style="fill:none;opacity:0.3;stroke:#cccccc;stroke-linecap:round;"/>
     </g>
     <g id="line2d_54"/>
     <g id="text_27">
      <!-- case14_ieee -->
      <g style="fill:#262626;" transform="translate(582.032812 384.991562)rotate(-90)scale(0.1 -0.1)">
       <use xlink:href="#DejaVuSans-63"/>
       <use x="54.980469" xlink:href="#DejaVuSans-61"/>
       <use x="116.259766" xlink:href="#DejaVuSans-73"/>
       <use x="168.359375" xlink:href="#DejaVuSans-65"/>
       <use x="229.882812" xlink:href="#DejaVuSans-31"/>
       <use x="293.505859" xlink:href="#DejaVuSans-34"/>
       <use x="357.128906" xlink:href="#DejaVuSans-5f"/>
       <use x="407.128906" xlink:href="#DejaVuSans-69"/>
       <use x="434.912109" xlink:href="#DejaVuSans-65"/>
       <use x="496.435547" xlink:href="#DejaVuSans-65"/>
       <use x="557.958984" xlink:href="#DejaVuSans-65"/>
      </g>
     </g>
    </g>
    <g id="xtick_28">
     <g id="line2d_55">
      <path clip-path="url(#p292d4792e2)" d="M 599.0475 316.04 
L 599.0475 12.96 
" style="fill:none;opacity:0.3;stroke:#cccccc;stroke-linecap:round;"/>
     </g>
     <g id="line2d_56"/>
     <g id="text_28">
      <!-- case9_wscc -->
      <g style="fill:#262626;" transform="translate(601.579531 381.775937)rotate(-90)scale(0.1 -0.1)">
       <use xlink:href="#DejaVuSans-63"/>
       <use x="54.980469" xlink:href="#DejaVuSans-61"/>
       <use x="116.259766" xlink:href="#DejaVuSans-73"/>
       <use x="168.359375" xlink:href="#DejaVuSans-65"/>
       <use x="229.882812" xlink:href="#DejaVuSans-39"/>
       <use x="293.505859" xlink:href="#DejaVuSans-5f"/>
       <use x="343.505859" xlink:href="#DejaVuSans-77"/>
       <use x="425.292969" xlink:href="#DejaVuSans-73"/>
       <use x="477.392578" xlink:href="#DejaVuSans-63"/>
       <use x="532.373047" xlink:href="#DejaVuSans-63"/>
      </g>
     </g>
    </g>
    <g id="xtick_29">
     <g id="line2d_57">
      <path clip-path="url(#p292d4792e2)" d="M 618.6825 316.04 
L 618.6825 12.96 
" style="fill:none;opacity:0.3;stroke:#cccccc;stroke-linecap:round;"/>
     </g>
     <g id="line2d_58"/>
     <g id="text_29">
      <!-- case6_ww -->
      <g style="fill:#262626;" transform="translate(621.214531 373.747813)rotate(-90)scale(0.1 -0.1)">
       <use xlink:href="#DejaVuSans-63"/>
       <use x="54.980469" xlink:href="#DejaVuSans-61"/>
       <use x="116.259766" xlink:href="#DejaVuSans-73"/>
       <use x="168.359375" xlink:href="#DejaVuSans-65"/>
       <use x="229.882812" xlink:href="#DejaVuSans-36"/>
       <use x="293.505859" xlink:href="#DejaVuSans-5f"/>
       <use x="343.505859" xlink:href="#DejaVuSans-77"/>
       <use x="425.292969" xlink:href="#DejaVuSans-77"/>
      </g>
     </g>
    </g>
    <g id="xtick_30">
     <g id="line2d_59">
      <path clip-path="url(#p292d4792e2)" d="M 638.3175 316.04 
L 638.3175 12.96 
" style="fill:none;opacity:0.3;stroke:#cccccc;stroke-linecap:round;"/>
     </g>
     <g id="line2d_60"/>
     <g id="text_30">
      <!-- case6_c -->
      <g style="fill:#262626;" transform="translate(640.849531 362.89)rotate(-90)scale(0.1 -0.1)">
       <use xlink:href="#DejaVuSans-63"/>
       <use x="54.980469" xlink:href="#DejaVuSans-61"/>
       <use x="116.259766" xlink:href="#DejaVuSans-73"/>
       <use x="168.359375" xlink:href="#DejaVuSans-65"/>
       <use x="229.882812" xlink:href="#DejaVuSans-36"/>
       <use x="293.505859" xlink:href="#DejaVuSans-5f"/>
       <use x="343.505859" xlink:href="#DejaVuSans-63"/>
      </g>
     </g>
    </g>
    <g id="xtick_31">
     <g id="line2d_61">
      <path clip-path="url(#p292d4792e2)" d="M 657.9525 316.04 
L 657.9525 12.96 
" style="fill:none;opacity:0.3;stroke:#cccccc;stroke-linecap:round;"/>
     </g>
     <g id="line2d_62"/>
     <g id="text_31">
      <!-- case5_pjm -->
      <defs>
       <path d="M 9.421875 54.6875 
L 18.40625 54.6875 
L 18.40625 -0.984375 
Q 18.40625 -11.421875 14.421875 -16.109375 
Q 10.453125 -20.796875 1.609375 -20.796875 
L -1.8125 -20.796875 
L -1.8125 -13.1875 
L 0.59375 -13.1875 
Q 5.71875 -13.1875 7.5625 -10.8125 
Q 9.421875 -8.453125 9.421875 -0.984375 
z
M 9.421875 75.984375 
L 18.40625 75.984375 
L 18.40625 64.59375 
L 9.421875 64.59375 
z
" id="DejaVuSans-6a"/>
      </defs>
      <g style="fill:#262626;" transform="translate(660.572812 376.25875)rotate(-90)scale(0.1 -0.1)">
       <use xlink:href="#DejaVuSans-63"/>
       <use x="54.980469" xlink:href="#DejaVuSans-61"/>
       <use x="116.259766" xlink:href="#DejaVuSans-73"/>
       <use x="168.359375" xlink:href="#DejaVuSans-65"/>
       <use x="229.882812" xlink:href="#DejaVuSans-35"/>
       <use x="293.505859" xlink:href="#DejaVuSans-5f"/>
       <use x="343.505859" xlink:href="#DejaVuSans-70"/>
       <use x="406.982422" xlink:href="#DejaVuSans-6a"/>
       <use x="434.765625" xlink:href="#DejaVuSans-6d"/>
      </g>
     </g>
    </g>
    <g id="xtick_32">
     <g id="line2d_63">
      <path clip-path="url(#p292d4792e2)" d="M 677.5875 316.04 
L 677.5875 12.96 
" style="fill:none;opacity:0.3;stroke:#cccccc;stroke-linecap:round;"/>
     </g>
     <g id="line2d_64"/>
     <g id="text_32">
      <!-- case4_gs -->
      <g style="fill:#262626;" transform="translate(680.06875 368.949375)rotate(-90)scale(0.1 -0.1)">
       <use xlink:href="#DejaVuSans-63"/>
       <use x="54.980469" xlink:href="#DejaVuSans-61"/>
       <use x="116.259766" xlink:href="#DejaVuSans-73"/>
       <use x="168.359375" xlink:href="#DejaVuSans-65"/>
       <use x="229.882812" xlink:href="#DejaVuSans-34"/>
       <use x="293.505859" xlink:href="#DejaVuSans-5f"/>
       <use x="343.505859" xlink:href="#DejaVuSans-67"/>
       <use x="406.982422" xlink:href="#DejaVuSans-73"/>
      </g>
     </g>
    </g>
    <g id="xtick_33">
     <g id="line2d_65">
      <path clip-path="url(#p292d4792e2)" d="M 697.2225 316.04 
L 697.2225 12.96 
" style="fill:none;opacity:0.3;stroke:#cccccc;stroke-linecap:round;"/>
     </g>
     <g id="line2d_66"/>
     <g id="text_33">
      <!-- case3_lmbd -->
      <defs>
       <path d="M 9.421875 75.984375 
L 18.40625 75.984375 
L 18.40625 0 
L 9.421875 0 
z
" id="DejaVuSans-6c"/>
       <path d="M 48.6875 27.296875 
Q 48.6875 37.203125 44.609375 42.84375 
Q 40.53125 48.484375 33.40625 48.484375 
Q 26.265625 48.484375 22.1875 42.84375 
Q 18.109375 37.203125 18.109375 27.296875 
Q 18.109375 17.390625 22.1875 11.75 
Q 26.265625 6.109375 33.40625 6.109375 
Q 40.53125 6.109375 44.609375 11.75 
Q 48.6875 17.390625 48.6875 27.296875 
z
M 18.109375 46.390625 
Q 20.953125 51.265625 25.265625 53.625 
Q 29.59375 56 35.59375 56 
Q 45.5625 56 51.78125 48.09375 
Q 58.015625 40.1875 58.015625 27.296875 
Q 58.015625 14.40625 51.78125 6.484375 
Q 45.5625 -1.421875 35.59375 -1.421875 
Q 29.59375 -1.421875 25.265625 0.953125 
Q 20.953125 3.328125 18.109375 8.203125 
L 18.109375 0 
L 9.078125 0 
L 9.078125 75.984375 
L 18.109375 75.984375 
z
" id="DejaVuSans-62"/>
      </defs>
      <g style="fill:#262626;" transform="translate(699.842812 382.607188)rotate(-90)scale(0.1 -0.1)">
       <use xlink:href="#DejaVuSans-63"/>
       <use x="54.980469" xlink:href="#DejaVuSans-61"/>
       <use x="116.259766" xlink:href="#DejaVuSans-73"/>
       <use x="168.359375" xlink:href="#DejaVuSans-65"/>
       <use x="229.882812" xlink:href="#DejaVuSans-33"/>
       <use x="293.505859" xlink:href="#DejaVuSans-5f"/>
       <use x="343.505859" xlink:href="#DejaVuSans-6c"/>
       <use x="371.289062" xlink:href="#DejaVuSans-6d"/>
       <use x="468.701172" xlink:href="#DejaVuSans-62"/>
       <use x="532.177734" xlink:href="#DejaVuSans-64"/>
      </g>
     </g>
    </g>
   </g>
   <g id="matplotlib.axis_2">
    <g id="ytick_1">
     <g id="line2d_67">
      <path clip-path="url(#p292d4792e2)" d="M 59.085 240.27 
L 707.04 240.27 
" style="fill:none;stroke:#cccccc;stroke-linecap:round;stroke-width:2;"/>
     </g>
     <g id="line2d_68"/>
     <g id="text_34">
      <!-- 20 -->
      <g style="fill:#262626;" transform="translate(39.36 244.069219)scale(0.1 -0.1)">
       <use xlink:href="#DejaVuSans-32"/>
       <use x="63.623047" xlink:href="#DejaVuSans-30"/>
      </g>
     </g>
    </g>
    <g id="ytick_2">
     <g id="line2d_69">
      <path clip-path="url(#p292d4792e2)" d="M 59.085 111.539043 
L 707.04 111.539043 
" style="fill:none;stroke:#cccccc;stroke-linecap:round;stroke-width:2;"/>
     </g>
     <g id="line2d_70"/>
     <g id="text_35">
      <!-- 1000 -->
      <g style="fill:#262626;" transform="translate(26.635 115.338262)scale(0.1 -0.1)">
       <use xlink:href="#DejaVuSans-31"/>
       <use x="63.623047" xlink:href="#DejaVuSans-30"/>
       <use x="127.246094" xlink:href="#DejaVuSans-30"/>
       <use x="190.869141" xlink:href="#DejaVuSans-30"/>
      </g>
     </g>
    </g>
    <g id="ytick_3">
     <g id="line2d_71">
      <path clip-path="url(#p292d4792e2)" d="M 59.085 58.578086 
L 707.04 58.578086 
" style="fill:none;stroke:#cccccc;stroke-linecap:round;stroke-width:2;"/>
     </g>
     <g id="line2d_72"/>
     <g id="text_36">
      <!-- 5000 -->
      <g style="fill:#262626;" transform="translate(26.635 62.377304)scale(0.1 -0.1)">
       <use xlink:href="#DejaVuSans-35"/>
       <use x="63.623047" xlink:href="#DejaVuSans-30"/>
       <use x="127.246094" xlink:href="#DejaVuSans-30"/>
       <use x="190.869141" xlink:href="#DejaVuSans-30"/>
      </g>
     </g>
    </g>
    <g id="ytick_4">
     <g id="line2d_73"/>
    </g>
    <g id="ytick_5">
     <g id="line2d_74"/>
    </g>
    <g id="ytick_6">
     <g id="line2d_75"/>
    </g>
    <g id="ytick_7">
     <g id="line2d_76"/>
    </g>
    <g id="ytick_8">
     <g id="line2d_77"/>
    </g>
    <g id="ytick_9">
     <g id="line2d_78"/>
    </g>
    <g id="ytick_10">
     <g id="line2d_79"/>
    </g>
    <g id="ytick_11">
     <g id="line2d_80"/>
    </g>
    <g id="ytick_12">
     <g id="line2d_81"/>
    </g>
    <g id="ytick_13">
     <g id="line2d_82"/>
    </g>
    <g id="ytick_14">
     <g id="line2d_83"/>
    </g>
    <g id="ytick_15">
     <g id="line2d_84"/>
    </g>
    <g id="ytick_16">
     <g id="line2d_85"/>
    </g>
    <g id="ytick_17">
     <g id="line2d_86"/>
    </g>
    <g id="ytick_18">
     <g id="line2d_87"/>
    </g>
    <g id="ytick_19">
     <g id="line2d_88"/>
    </g>
    <g id="ytick_20">
     <g id="line2d_89"/>
    </g>
    <g id="ytick_21">
     <g id="line2d_90"/>
    </g>
    <g id="ytick_22">
     <g id="line2d_91"/>
    </g>
    <g id="ytick_23">
     <g id="line2d_92"/>
    </g>
    <g id="ytick_24">
     <g id="line2d_93"/>
    </g>
    <g id="ytick_25">
     <g id="line2d_94"/>
    </g>
    <g id="ytick_26">
     <g id="line2d_95"/>
    </g>
    <g id="ytick_27">
     <g id="line2d_96"/>
    </g>
    <g id="ytick_28">
     <g id="line2d_97"/>
    </g>
    <g id="ytick_29">
     <g id="line2d_98"/>
    </g>
    <g id="ytick_30">
     <g id="line2d_99"/>
    </g>
    <g id="ytick_31">
     <g id="line2d_100"/>
    </g>
    <g id="ytick_32">
     <g id="line2d_101"/>
    </g>
    <g id="ytick_33">
     <g id="line2d_102"/>
    </g>
    <g id="ytick_34">
     <g id="line2d_103"/>
    </g>
    <g id="ytick_35">
     <g id="line2d_104"/>
    </g>
    <g id="ytick_36">
     <g id="line2d_105"/>
    </g>
    <g id="text_37">
     <!-- Node count (log) -->
     <defs>
      <path d="M 9.8125 72.90625 
L 23.09375 72.90625 
L 55.421875 11.921875 
L 55.421875 72.90625 
L 64.984375 72.90625 
L 64.984375 0 
L 51.703125 0 
L 19.390625 60.984375 
L 19.390625 0 
L 9.8125 0 
z
" id="DejaVuSans-4e"/>
      <path d="M 30.609375 48.390625 
Q 23.390625 48.390625 19.1875 42.75 
Q 14.984375 37.109375 14.984375 27.296875 
Q 14.984375 17.484375 19.15625 11.84375 
Q 23.34375 6.203125 30.609375 6.203125 
Q 37.796875 6.203125 41.984375 11.859375 
Q 46.1875 17.53125 46.1875 27.296875 
Q 46.1875 37.015625 41.984375 42.703125 
Q 37.796875 48.390625 30.609375 48.390625 
z
M 30.609375 56 
Q 42.328125 56 49.015625 48.375 
Q 55.71875 40.765625 55.71875 27.296875 
Q 55.71875 13.875 49.015625 6.21875 
Q 42.328125 -1.421875 30.609375 -1.421875 
Q 18.84375 -1.421875 12.171875 6.21875 
Q 5.515625 13.875 5.515625 27.296875 
Q 5.515625 40.765625 12.171875 48.375 
Q 18.84375 56 30.609375 56 
z
" id="DejaVuSans-6f"/>
      <path id="DejaVuSans-20"/>
      <path d="M 8.5 21.578125 
L 8.5 54.6875 
L 17.484375 54.6875 
L 17.484375 21.921875 
Q 17.484375 14.15625 20.5 10.265625 
Q 23.53125 6.390625 29.59375 6.390625 
Q 36.859375 6.390625 41.078125 11.03125 
Q 45.3125 15.671875 45.3125 23.6875 
L 45.3125 54.6875 
L 54.296875 54.6875 
L 54.296875 0 
L 45.3125 0 
L 45.3125 8.40625 
Q 42.046875 3.421875 37.71875 1 
Q 33.40625 -1.421875 27.6875 -1.421875 
Q 18.265625 -1.421875 13.375 4.4375 
Q 8.5 10.296875 8.5 21.578125 
z
M 31.109375 56 
z
" id="DejaVuSans-75"/>
      <path d="M 31 75.875 
Q 24.46875 64.65625 21.28125 53.65625 
Q 18.109375 42.671875 18.109375 31.390625 
Q 18.109375 20.125 21.3125 9.0625 
Q 24.515625 -2 31 -13.1875 
L 23.1875 -13.1875 
Q 15.875 -1.703125 12.234375 9.375 
Q 8.59375 20.453125 8.59375 31.390625 
Q 8.59375 42.28125 12.203125 53.3125 
Q 15.828125 64.359375 23.1875 75.875 
z
" id="DejaVuSans-28"/>
      <path d="M 8.015625 75.875 
L 15.828125 75.875 
Q 23.140625 64.359375 26.78125 53.3125 
Q 30.421875 42.28125 30.421875 31.390625 
Q 30.421875 20.453125 26.78125 9.375 
Q 23.140625 -1.703125 15.828125 -13.1875 
L 8.015625 -13.1875 
Q 14.5 -2 17.703125 9.0625 
Q 20.90625 20.125 20.90625 31.390625 
Q 20.90625 42.671875 17.703125 53.65625 
Q 14.5 64.65625 8.015625 75.875 
z
" id="DejaVuSans-29"/>
     </defs>
     <g style="fill:#262626;" transform="translate(20.347344 210.545312)rotate(-90)scale(0.11 -0.11)">
      <use xlink:href="#DejaVuSans-4e"/>
      <use x="74.804688" xlink:href="#DejaVuSans-6f"/>
      <use x="135.986328" xlink:href="#DejaVuSans-64"/>
      <use x="199.462891" xlink:href="#DejaVuSans-65"/>
      <use x="260.986328" xlink:href="#DejaVuSans-20"/>
      <use x="292.773438" xlink:href="#DejaVuSans-63"/>
      <use x="347.753906" xlink:href="#DejaVuSans-6f"/>
      <use x="408.935547" xlink:href="#DejaVuSans-75"/>
      <use x="472.314453" xlink:href="#DejaVuSans-6e"/>
      <use x="535.693359" xlink:href="#DejaVuSans-74"/>
      <use x="574.902344" xlink:href="#DejaVuSans-20"/>
      <use x="606.689453" xlink:href="#DejaVuSans-28"/>
      <use x="645.703125" xlink:href="#DejaVuSans-6c"/>
      <use x="673.486328" xlink:href="#DejaVuSans-6f"/>
      <use x="734.667969" xlink:href="#DejaVuSans-67"/>
      <use x="798.144531" xlink:href="#DejaVuSans-29"/>
     </g>
    </g>
   </g>
   <g id="PathCollection_1">
    <defs>
     <path d="M 0 3.5 
C 0.928211 3.5 1.81853 3.131218 2.474874 2.474874 
C 3.131218 1.81853 3.5 0.928211 3.5 0 
C 3.5 -0.928211 3.131218 -1.81853 2.474874 -2.474874 
C 1.81853 -3.131218 0.928211 -3.5 0 -3.5 
C -0.928211 -3.5 -1.81853 -3.131218 -2.474874 -2.474874 
C -3.131218 -1.81853 -3.5 -0.928211 -3.5 0 
C -3.5 0.928211 -3.131218 1.81853 -2.474874 2.474874 
C -1.81853 3.131218 -0.928211 3.5 0 3.5 
z
" id="mc05be9d327" style="stroke:#1a1a1a;stroke-opacity:0.7;stroke-width:0.3;"/>
    </defs>
    <g clip-path="url(#p292d4792e2)">
     <use style="fill:#1a1a1a;fill-opacity:0.7;stroke:#1a1a1a;stroke-opacity:0.7;stroke-width:0.3;" x="68.9025" xlink:href="#mc05be9d327" y="25.508352"/>
     <use style="fill:#1a1a1a;fill-opacity:0.7;stroke:#1a1a1a;stroke-opacity:0.7;stroke-width:0.3;" x="88.5375" xlink:href="#mc05be9d327" y="38.366516"/>
     <use style="fill:#1a1a1a;fill-opacity:0.7;stroke:#1a1a1a;stroke-opacity:0.7;stroke-width:0.3;" x="108.1725" xlink:href="#mc05be9d327" y="49.868747"/>
     <use style="fill:#1a1a1a;fill-opacity:0.7;stroke:#1a1a1a;stroke-opacity:0.7;stroke-width:0.3;" x="127.8075" xlink:href="#mc05be9d327" y="74.096949"/>
     <use style="fill:#1a1a1a;fill-opacity:0.7;stroke:#1a1a1a;stroke-opacity:0.7;stroke-width:0.3;" x="147.4425" xlink:href="#mc05be9d327" y="76.856799"/>
     <use style="fill:#1a1a1a;fill-opacity:0.7;stroke:#1a1a1a;stroke-opacity:0.7;stroke-width:0.3;" x="167.0775" xlink:href="#mc05be9d327" y="76.868271"/>
     <use style="fill:#1a1a1a;fill-opacity:0.7;stroke:#1a1a1a;stroke-opacity:0.7;stroke-width:0.3;" x="186.7125" xlink:href="#mc05be9d327" y="78.418756"/>
     <use style="fill:#1a1a1a;fill-opacity:0.7;stroke:#1a1a1a;stroke-opacity:0.7;stroke-width:0.3;" x="206.3475" xlink:href="#mc05be9d327" y="82.964354"/>
     <use style="fill:#1a1a1a;fill-opacity:0.7;stroke:#1a1a1a;stroke-opacity:0.7;stroke-width:0.3;" x="225.9825" xlink:href="#mc05be9d327" y="85.23664"/>
     <use style="fill:#1a1a1a;fill-opacity:0.7;stroke:#1a1a1a;stroke-opacity:0.7;stroke-width:0.3;" x="245.6175" xlink:href="#mc05be9d327" y="89.546249"/>
     <use style="fill:#1a1a1a;fill-opacity:0.7;stroke:#1a1a1a;stroke-opacity:0.7;stroke-width:0.3;" x="265.2525" xlink:href="#mc05be9d327" y="100.537511"/>
     <use style="fill:#1a1a1a;fill-opacity:0.7;stroke:#1a1a1a;stroke-opacity:0.7;stroke-width:0.3;" x="284.8875" xlink:href="#mc05be9d327" y="101.566297"/>
     <use style="fill:#1a1a1a;fill-opacity:0.7;stroke:#1a1a1a;stroke-opacity:0.7;stroke-width:0.3;" x="304.5225" xlink:href="#mc05be9d327" y="151.157565"/>
     <use style="fill:#1a1a1a;fill-opacity:0.7;stroke:#1a1a1a;stroke-opacity:0.7;stroke-width:0.3;" x="324.1575" xlink:href="#mc05be9d327" y="158.500437"/>
     <use style="fill:#1a1a1a;fill-opacity:0.7;stroke:#1a1a1a;stroke-opacity:0.7;stroke-width:0.3;" x="343.7925" xlink:href="#mc05be9d327" y="166.361532"/>
     <use style="fill:#1a1a1a;fill-opacity:0.7;stroke:#1a1a1a;stroke-opacity:0.7;stroke-width:0.3;" x="363.4275" xlink:href="#mc05be9d327" y="171.43409"/>
     <use style="fill:#1a1a1a;fill-opacity:0.7;stroke:#1a1a1a;stroke-opacity:0.7;stroke-width:0.3;" x="383.0625" xlink:href="#mc05be9d327" y="181.862543"/>
     <use style="fill:#1a1a1a;fill-opacity:0.7;stroke:#1a1a1a;stroke-opacity:0.7;stroke-width:0.3;" x="402.6975" xlink:href="#mc05be9d327" y="191.143762"/>
     <use style="fill:#1a1a1a;fill-opacity:0.7;stroke:#1a1a1a;stroke-opacity:0.7;stroke-width:0.3;" x="422.3325" xlink:href="#mc05be9d327" y="197.66507"/>
     <use style="fill:#1a1a1a;fill-opacity:0.7;stroke:#1a1a1a;stroke-opacity:0.7;stroke-width:0.3;" x="441.9675" xlink:href="#mc05be9d327" y="205.806405"/>
     <use style="fill:#1a1a1a;fill-opacity:0.7;stroke:#1a1a1a;stroke-opacity:0.7;stroke-width:0.3;" x="461.6025" xlink:href="#mc05be9d327" y="218.294077"/>
     <use style="fill:#1a1a1a;fill-opacity:0.7;stroke:#1a1a1a;stroke-opacity:0.7;stroke-width:0.3;" x="481.2375" xlink:href="#mc05be9d327" y="226.927565"/>
     <use style="fill:#1a1a1a;fill-opacity:0.7;stroke:#1a1a1a;stroke-opacity:0.7;stroke-width:0.3;" x="500.8725" xlink:href="#mc05be9d327" y="226.927565"/>
     <use style="fill:#1a1a1a;fill-opacity:0.7;stroke:#1a1a1a;stroke-opacity:0.7;stroke-width:0.3;" x="520.5075" xlink:href="#mc05be9d327" y="226.927565"/>
     <use style="fill:#1a1a1a;fill-opacity:0.7;stroke:#1a1a1a;stroke-opacity:0.7;stroke-width:0.3;" x="540.1425" xlink:href="#mc05be9d327" y="228.043146"/>
     <use style="fill:#1a1a1a;fill-opacity:0.7;stroke:#1a1a1a;stroke-opacity:0.7;stroke-width:0.3;" x="559.7775" xlink:href="#mc05be9d327" y="234.270437"/>
     <use style="fill:#1a1a1a;fill-opacity:0.7;stroke:#1a1a1a;stroke-opacity:0.7;stroke-width:0.3;" x="579.4125" xlink:href="#mc05be9d327" y="252.006922"/>
     <use style="fill:#1a1a1a;fill-opacity:0.7;stroke:#1a1a1a;stroke-opacity:0.7;stroke-width:0.3;" x="599.0475" xlink:href="#mc05be9d327" y="266.546088"/>
     <use style="fill:#1a1a1a;fill-opacity:0.7;stroke:#1a1a1a;stroke-opacity:0.7;stroke-width:0.3;" x="618.6825" xlink:href="#mc05be9d327" y="279.888523"/>
     <use style="fill:#1a1a1a;fill-opacity:0.7;stroke:#1a1a1a;stroke-opacity:0.7;stroke-width:0.3;" x="638.3175" xlink:href="#mc05be9d327" y="279.888523"/>
     <use style="fill:#1a1a1a;fill-opacity:0.7;stroke:#1a1a1a;stroke-opacity:0.7;stroke-width:0.3;" x="657.9525" xlink:href="#mc05be9d327" y="285.888086"/>
     <use style="fill:#1a1a1a;fill-opacity:0.7;stroke:#1a1a1a;stroke-opacity:0.7;stroke-width:0.3;" x="677.5875" xlink:href="#mc05be9d327" y="293.230957"/>
     <use style="fill:#1a1a1a;fill-opacity:0.7;stroke:#1a1a1a;stroke-opacity:0.7;stroke-width:0.3;" x="697.2225" xlink:href="#mc05be9d327" y="302.697565"/>
    </g>
   </g>
  </g>
 </g>
 <defs>
  <clipPath id="p292d4792e2">
   <rect height="303.08" width="647.955" x="59.085" y="12.96"/>
  </clipPath>
 </defs>
</svg>
